<svg style="position: absolute;margin-top: 15px;right:-9px;width:82px" version="1.1" id="Layer_1" xmlns="http://www.w3.org/2000/svg" xmlns:xlink="http://www.w3.org/1999/xlink" x="0px" y="0px"
     viewBox="0 0 82 29"  xml:space="preserve">
<path fill="#DCB701" d="M81.5,19.6h-5.7v8.6L81.5,19.6z"/>
    <g>
	<polygon fill="#FFFFFF" points="0.9,0.1 0.9,0.1 0.9,0.1 	"/>
        <g>
		<polygon fill="#FFCE1F" points="0.9,0.1 6.3,9.9 0.9,19.6 81.5,19.6 81.5,0.1"/>
	</g>
</g>
    <path d="M15.2,10.4h-2l0-1.1h1.7c0.3,0,0.5,0,0.7-0.1C15.8,9.1,16,9,16.1,8.8c0.1-0.2,0.1-0.3,0.1-0.5c0-0.2,0-0.4-0.1-0.6
	c-0.1-0.2-0.2-0.3-0.4-0.3c-0.2-0.1-0.4-0.1-0.7-0.1h-1.1v6.6h-1.6V6h2.7c0.5,0,0.9,0,1.2,0.1c0.4,0.1,0.7,0.2,0.9,0.4
	c0.3,0.2,0.4,0.4,0.6,0.7c0.1,0.3,0.2,0.6,0.2,0.9c0,0.3-0.1,0.6-0.2,0.9c-0.1,0.3-0.4,0.5-0.7,0.7c-0.3,0.2-0.7,0.3-1.2,0.3
	L15.2,10.4z M15.2,13.8h-2.4l0.6-1.3h1.8c0.3,0,0.5,0,0.7-0.1c0.2-0.1,0.3-0.2,0.4-0.4c0.1-0.2,0.1-0.3,0.1-0.5c0-0.2,0-0.4-0.1-0.6
	c-0.1-0.2-0.2-0.3-0.4-0.4c-0.2-0.1-0.4-0.1-0.7-0.1h-1.6l0-1.1h1.9L16,9.7c0.5,0,0.9,0.1,1.1,0.3c0.3,0.2,0.5,0.4,0.6,0.7
	c0.1,0.3,0.2,0.6,0.2,0.9c0,0.5-0.1,0.9-0.3,1.3c-0.2,0.3-0.5,0.6-1,0.8C16.3,13.7,15.8,13.8,15.2,13.8z M24.4,12.6v1.3h-4.2v-1.3
	H24.4z M20.8,6v7.8h-1.6V6H20.8z M23.9,9.2v1.2h-3.6V9.2H23.9z M24.4,6v1.3h-4.2V6H24.4z M29.5,11.8c0-0.1,0-0.3-0.1-0.4
	c0-0.1-0.1-0.2-0.2-0.3c-0.1-0.1-0.3-0.2-0.5-0.3c-0.2-0.1-0.5-0.2-0.8-0.3c-0.4-0.1-0.7-0.2-1-0.4c-0.3-0.1-0.6-0.3-0.8-0.5
	c-0.2-0.2-0.4-0.4-0.6-0.7c-0.1-0.3-0.2-0.5-0.2-0.9c0-0.3,0.1-0.6,0.2-0.9c0.1-0.3,0.3-0.5,0.6-0.7C26.4,6.3,26.7,6.1,27,6
	c0.4-0.1,0.7-0.2,1.2-0.2c0.6,0,1.1,0.1,1.5,0.3c0.4,0.2,0.8,0.5,1,0.9c0.2,0.4,0.4,0.8,0.4,1.2h-1.6c0-0.2,0-0.4-0.1-0.6
	c-0.1-0.2-0.2-0.3-0.4-0.4c-0.2-0.1-0.4-0.2-0.7-0.2c-0.3,0-0.5,0-0.7,0.1c-0.2,0.1-0.3,0.2-0.4,0.3c-0.1,0.1-0.1,0.3-0.1,0.5
	c0,0.1,0,0.3,0.1,0.4c0.1,0.1,0.2,0.2,0.3,0.3c0.1,0.1,0.3,0.2,0.5,0.3c0.2,0.1,0.4,0.2,0.7,0.2c0.4,0.1,0.8,0.3,1.1,0.4
	c0.3,0.2,0.6,0.3,0.8,0.5c0.2,0.2,0.4,0.4,0.5,0.7c0.1,0.3,0.2,0.5,0.2,0.9c0,0.3-0.1,0.6-0.2,0.9c-0.1,0.3-0.3,0.5-0.6,0.7
	c-0.3,0.2-0.5,0.3-0.9,0.4c-0.3,0.1-0.7,0.1-1.2,0.1c-0.4,0-0.8-0.1-1.1-0.2c-0.4-0.1-0.7-0.3-1-0.5c-0.3-0.2-0.5-0.5-0.7-0.8
	c-0.2-0.3-0.3-0.7-0.3-1.1h1.6c0,0.2,0,0.4,0.1,0.6c0.1,0.2,0.2,0.3,0.3,0.4c0.1,0.1,0.3,0.2,0.5,0.2c0.2,0,0.4,0.1,0.6,0.1
	c0.3,0,0.5,0,0.7-0.1c0.2-0.1,0.3-0.2,0.4-0.3C29.4,12.1,29.5,11.9,29.5,11.8z M35.7,6v7.8h-1.6V6H35.7z M38.1,6v1.3h-6.4V6H38.1z
	 M44.3,12.2L46.1,6h1.8l-2.7,7.8H44L44.3,12.2z M42.6,6l1.8,6.2l0.3,1.6h-1.2L40.8,6H42.6z M51.4,7.3l-2.1,6.5h-1.7L50.5,6h1.1
	L51.4,7.3z M53.2,13.8L51,7.3L50.9,6H52l2.9,7.8H53.2z M53.1,10.9v1.3h-4.1v-1.3H53.1z M60.6,12.6v1.3h-3.9v-1.3H60.6z M57.2,6v7.8
	h-1.6V6H57.2z M65.7,6h1.6v5.2c0,0.6-0.1,1.1-0.4,1.5c-0.3,0.4-0.6,0.7-1.1,0.9c-0.4,0.2-1,0.3-1.5,0.3c-0.6,0-1.1-0.1-1.6-0.3
	c-0.5-0.2-0.8-0.5-1.1-0.9c-0.3-0.4-0.4-0.9-0.4-1.5V6h1.6v5.2c0,0.4,0.1,0.6,0.2,0.9c0.1,0.2,0.3,0.4,0.5,0.5
	c0.2,0.1,0.5,0.2,0.7,0.2c0.3,0,0.5-0.1,0.7-0.2c0.2-0.1,0.4-0.3,0.5-0.5c0.1-0.2,0.2-0.5,0.2-0.9V6z M73.9,12.6v1.3h-4.2v-1.3H73.9
	z M70.2,6v7.8h-1.6V6H70.2z M73.3,9.2v1.2h-3.6V9.2H73.3z M73.9,6v1.3h-4.2V6H73.9z"/>
</svg>
