<svg width="24" height="24" viewBox="0 0 24 24" fill="none" xmlns="http://www.w3.org/2000/svg">
<path fill-rule="evenodd" clip-rule="evenodd" d="M12 19C15.866 19 19 15.866 19 12C19 8.134 15.866 5 12 5C8.13401 5 5 8.13401 5 12C5 15.866 8.13401 19 12 19ZM12 21C16.9706 21 21 16.9706 21 12C21 7.02943 16.9706 3 12 3C7.02944 3 3 7.02944 3 12C3 16.9706 7.02944 21 12 21Z" fill="#E4E5E6"/>
<path fill-rule="evenodd" clip-rule="evenodd" d="M4.51557 17C6.13009 19.412 8.8796 21 12 21C16.9706 21 21 16.9706 21 12C21 7.02943 16.9706 3 12 3L12 5C15.866 5 19 8.134 19 12C19 15.866 15.866 19 12 19C10.0927 19 8.36357 18.2372 7.10103 17L4.51557 17Z" fill="#3773E8"/>
<path fill-rule="evenodd" clip-rule="evenodd" d="M7.75735 16.2427C6.9763 15.4617 5.70997 15.4617 4.92893 16.2427C4.14788 17.0238 4.14788 18.2901 4.92893 19.0711C5.70997 19.8522 6.9763 19.8522 7.75735 19.0711C8.5384 18.2901 8.5384 17.0238 7.75735 16.2427Z" fill="#3773E8"/>
</svg>
