<svg width="24" height="24" viewBox="0 0 24 24" fill="none" xmlns="http://www.w3.org/2000/svg">
  <rect width="24" height="24" fill="white" />
  <path d="M11.3066 17.3554H13.0346V15.6274H11.3066V17.3554Z" fill="#26114D" />
  <path
    d="M12.1708 6.98746C10.2614 6.98746 8.71484 8.53402 8.71484 10.4435H10.4428C10.4428 9.49306 11.2204 8.71546 12.1708 8.71546C13.1212 8.71546 13.8988 9.49306 13.8988 10.4435C13.8988 12.1715 11.3068 11.9555 11.3068 14.7635H13.0348C13.0348 12.8195 15.6268 12.6035 15.6268 10.4435C15.6268 8.53402 14.0803 6.98746 12.1708 6.98746Z"
    fill="#26114D" />
  <path
    d="M12.1713 2.57144C17.4705 2.57144 21.7713 6.87224 21.7713 12.1714C21.7713 17.4706 17.4705 21.7714 12.1713 21.7714C6.87209 21.7714 2.57129 17.4706 2.57129 12.1714C2.57129 6.87224 6.87209 2.57144 12.1713 2.57144ZM12.1713 4.49144C7.93769 4.49144 4.49129 7.93784 4.49129 12.1714C4.49129 16.405 7.93769 19.8514 12.1713 19.8514C16.4049 19.8514 19.8513 16.405 19.8513 12.1714C19.8513 7.93784 16.4049 4.49144 12.1713 4.49144Z"
    fill="#26114D" />
</svg>