<svg width="168" height="95" viewBox="0 0 168 95" fill="none" xmlns="http://www.w3.org/2000/svg">
<rect x="0.842773" y="0.447266" width="167" height="94" rx="4" fill="#09CCA6"/>
<path d="M18.9014 40.3613V44.1621C18.7601 44.349 18.5391 44.554 18.2383 44.7773C17.9421 44.9961 17.5479 45.1852 17.0557 45.3447C16.5635 45.5042 15.9505 45.584 15.2168 45.584C14.5924 45.584 14.0205 45.4792 13.501 45.2695C12.9814 45.0553 12.5326 44.7432 12.1543 44.333C11.7806 43.9229 11.4912 43.4238 11.2861 42.8359C11.0811 42.2435 10.9785 41.569 10.9785 40.8125V40.1221C10.9785 39.3701 11.0719 38.7002 11.2588 38.1123C11.4502 37.5199 11.7236 37.0186 12.0791 36.6084C12.4346 36.1982 12.863 35.8883 13.3643 35.6787C13.8701 35.4645 14.4421 35.3574 15.0801 35.3574C15.8958 35.3574 16.5703 35.4941 17.1035 35.7676C17.6413 36.0365 18.056 36.4102 18.3477 36.8887C18.6393 37.3672 18.8239 37.9141 18.9014 38.5293H17.2197C17.165 38.1829 17.0579 37.873 16.8984 37.5996C16.7435 37.3262 16.5202 37.112 16.2285 36.957C15.9414 36.7975 15.5677 36.7178 15.1074 36.7178C14.7109 36.7178 14.3623 36.793 14.0615 36.9434C13.7607 37.0938 13.5101 37.3148 13.3096 37.6064C13.1136 37.8981 12.9655 38.2536 12.8652 38.6729C12.765 39.0921 12.7148 39.5706 12.7148 40.1084V40.8125C12.7148 41.3594 12.7718 41.8447 12.8857 42.2686C13.0042 42.6924 13.1729 43.0501 13.3916 43.3418C13.6149 43.6335 13.8861 43.8545 14.2051 44.0049C14.5241 44.1507 14.8841 44.2236 15.2852 44.2236C15.6771 44.2236 15.9984 44.1917 16.249 44.1279C16.4997 44.0596 16.6979 43.9798 16.8438 43.8887C16.9941 43.793 17.1104 43.7018 17.1924 43.6152V41.6396H15.1211V40.3613H18.9014ZM23.8984 45.584C23.3516 45.584 22.8571 45.4951 22.415 45.3174C21.9775 45.1351 21.6038 44.8822 21.2939 44.5586C20.9886 44.235 20.7539 43.8545 20.5898 43.417C20.4258 42.9795 20.3438 42.5078 20.3438 42.002V41.7285C20.3438 41.1497 20.4281 40.6257 20.5967 40.1562C20.7653 39.6868 21 39.2858 21.3008 38.9531C21.6016 38.6159 21.957 38.3584 22.3672 38.1807C22.7773 38.0029 23.2217 37.9141 23.7002 37.9141C24.2288 37.9141 24.6914 38.0029 25.0879 38.1807C25.4844 38.3584 25.8125 38.609 26.0723 38.9326C26.3366 39.2516 26.5326 39.6322 26.6602 40.0742C26.7923 40.5163 26.8584 41.0039 26.8584 41.5371V42.2412H21.1436V41.0586H25.2314V40.9287C25.2223 40.6325 25.1631 40.3545 25.0537 40.0947C24.9489 39.835 24.7871 39.6253 24.5684 39.4658C24.3496 39.3063 24.0579 39.2266 23.6934 39.2266C23.4199 39.2266 23.1761 39.2858 22.9619 39.4043C22.7523 39.5182 22.5768 39.6846 22.4355 39.9033C22.2943 40.1221 22.1849 40.3864 22.1074 40.6963C22.0345 41.0016 21.998 41.3457 21.998 41.7285V42.002C21.998 42.3255 22.0413 42.6263 22.1279 42.9043C22.2191 43.1777 22.3512 43.417 22.5244 43.6221C22.6976 43.8271 22.9072 43.9889 23.1533 44.1074C23.3994 44.2214 23.6797 44.2783 23.9941 44.2783C24.3906 44.2783 24.7438 44.1986 25.0537 44.0391C25.3636 43.8796 25.6325 43.654 25.8604 43.3623L26.7285 44.2031C26.569 44.4355 26.3617 44.6589 26.1064 44.873C25.8512 45.0827 25.5391 45.2536 25.1699 45.3857C24.8053 45.5179 24.3815 45.584 23.8984 45.584ZM31.5342 38.0508V39.2539H27.3643V38.0508H31.5342ZM28.5674 36.2393H30.2148V43.4033C30.2148 43.6312 30.2467 43.8066 30.3105 43.9297C30.3789 44.0482 30.4723 44.1279 30.5908 44.1689C30.7093 44.21 30.8483 44.2305 31.0078 44.2305C31.1217 44.2305 31.2311 44.2236 31.3359 44.21C31.4408 44.1963 31.5251 44.1826 31.5889 44.1689L31.5957 45.4268C31.459 45.4678 31.2995 45.5042 31.1172 45.5361C30.9395 45.568 30.7344 45.584 30.502 45.584C30.1237 45.584 29.7887 45.5179 29.4971 45.3857C29.2054 45.249 28.9775 45.028 28.8135 44.7227C28.6494 44.4173 28.5674 44.0117 28.5674 43.5059V36.2393ZM39.6826 38.0508V39.2539H35.5127V38.0508H39.6826ZM36.7158 36.2393H38.3633V43.4033C38.3633 43.6312 38.3952 43.8066 38.459 43.9297C38.5273 44.0482 38.6208 44.1279 38.7393 44.1689C38.8577 44.21 38.9967 44.2305 39.1562 44.2305C39.2702 44.2305 39.3796 44.2236 39.4844 44.21C39.5892 44.1963 39.6735 44.1826 39.7373 44.1689L39.7441 45.4268C39.6074 45.4678 39.4479 45.5042 39.2656 45.5361C39.0879 45.568 38.8828 45.584 38.6504 45.584C38.2721 45.584 37.9372 45.5179 37.6455 45.3857C37.3538 45.249 37.126 45.028 36.9619 44.7227C36.7979 44.4173 36.7158 44.0117 36.7158 43.5059V36.2393ZM40.4756 41.8311V41.6738C40.4756 41.1406 40.5531 40.6462 40.708 40.1904C40.863 39.7301 41.0863 39.3314 41.3779 38.9941C41.6742 38.6523 42.0342 38.388 42.458 38.2012C42.8864 38.0098 43.3695 37.9141 43.9072 37.9141C44.4495 37.9141 44.9326 38.0098 45.3564 38.2012C45.7848 38.388 46.1471 38.6523 46.4434 38.9941C46.7396 39.3314 46.9652 39.7301 47.1201 40.1904C47.2751 40.6462 47.3525 41.1406 47.3525 41.6738V41.8311C47.3525 42.3643 47.2751 42.8587 47.1201 43.3145C46.9652 43.7702 46.7396 44.1689 46.4434 44.5107C46.1471 44.848 45.7871 45.1123 45.3633 45.3037C44.9395 45.4906 44.4587 45.584 43.9209 45.584C43.3786 45.584 42.8932 45.4906 42.4648 45.3037C42.041 45.1123 41.681 44.848 41.3848 44.5107C41.0885 44.1689 40.863 43.7702 40.708 43.3145C40.5531 42.8587 40.4756 42.3643 40.4756 41.8311ZM42.123 41.6738V41.8311C42.123 42.1637 42.1572 42.4782 42.2256 42.7744C42.2939 43.0706 42.401 43.3304 42.5469 43.5537C42.6927 43.777 42.8796 43.9525 43.1074 44.0801C43.3353 44.2077 43.6064 44.2715 43.9209 44.2715C44.2262 44.2715 44.4906 44.2077 44.7139 44.0801C44.9417 43.9525 45.1286 43.777 45.2744 43.5537C45.4202 43.3304 45.5273 43.0706 45.5957 42.7744C45.6686 42.4782 45.7051 42.1637 45.7051 41.8311V41.6738C45.7051 41.3457 45.6686 41.0358 45.5957 40.7441C45.5273 40.4479 45.418 40.1859 45.2676 39.958C45.1217 39.7301 44.9349 39.5524 44.707 39.4248C44.4837 39.2926 44.2171 39.2266 43.9072 39.2266C43.5973 39.2266 43.3285 39.2926 43.1006 39.4248C42.8773 39.5524 42.6927 39.7301 42.5469 39.958C42.401 40.1859 42.2939 40.4479 42.2256 40.7441C42.1572 41.0358 42.123 41.3457 42.123 41.6738ZM12.7559 47.9473V58.4473H11.1016V47.9473H12.7559ZM17.3496 51.0508L14.1299 54.6191L12.3662 56.4238L11.9355 55.0293L13.2686 53.3818L15.3604 51.0508H17.3496ZM15.7158 58.4473L13.3164 54.9746L14.3555 53.8193L17.623 58.4473H15.7158ZM20.0293 52.6299V58.4473H18.3818V51.0508H19.9336L20.0293 52.6299ZM19.7354 54.4756L19.2021 54.4688C19.2067 53.9447 19.2796 53.4639 19.4209 53.0264C19.5667 52.5889 19.7673 52.2129 20.0225 51.8984C20.2822 51.584 20.5921 51.3424 20.9521 51.1738C21.3122 51.0007 21.7132 50.9141 22.1553 50.9141C22.5107 50.9141 22.832 50.9642 23.1191 51.0645C23.4108 51.1602 23.6592 51.3174 23.8643 51.5361C24.0739 51.7549 24.2334 52.0397 24.3428 52.3906C24.4521 52.737 24.5068 53.1631 24.5068 53.6689V58.4473H22.8525V53.6621C22.8525 53.3066 22.8001 53.0264 22.6953 52.8213C22.5951 52.6117 22.4469 52.4635 22.251 52.377C22.0596 52.2858 21.8203 52.2402 21.5332 52.2402C21.2507 52.2402 20.9977 52.2995 20.7744 52.418C20.5511 52.5365 20.362 52.6982 20.207 52.9033C20.0566 53.1084 19.9404 53.3454 19.8584 53.6143C19.7764 53.8831 19.7354 54.1702 19.7354 54.4756ZM25.874 54.8311V54.6738C25.874 54.1406 25.9515 53.6462 26.1064 53.1904C26.2614 52.7301 26.4847 52.3314 26.7764 51.9941C27.0726 51.6523 27.4326 51.388 27.8564 51.2012C28.2848 51.0098 28.7679 50.9141 29.3057 50.9141C29.848 50.9141 30.3311 51.0098 30.7549 51.2012C31.1833 51.388 31.5456 51.6523 31.8418 51.9941C32.138 52.3314 32.3636 52.7301 32.5186 53.1904C32.6735 53.6462 32.751 54.1406 32.751 54.6738V54.8311C32.751 55.3643 32.6735 55.8587 32.5186 56.3145C32.3636 56.7702 32.138 57.1689 31.8418 57.5107C31.5456 57.848 31.1855 58.1123 30.7617 58.3037C30.3379 58.4906 29.8571 58.584 29.3193 58.584C28.777 58.584 28.2917 58.4906 27.8633 58.3037C27.4395 58.1123 27.0794 57.848 26.7832 57.5107C26.487 57.1689 26.2614 56.7702 26.1064 56.3145C25.9515 55.8587 25.874 55.3643 25.874 54.8311ZM27.5215 54.6738V54.8311C27.5215 55.1637 27.5557 55.4782 27.624 55.7744C27.6924 56.0706 27.7995 56.3304 27.9453 56.5537C28.0911 56.777 28.278 56.9525 28.5059 57.0801C28.7337 57.2077 29.0049 57.2715 29.3193 57.2715C29.6247 57.2715 29.889 57.2077 30.1123 57.0801C30.3402 56.9525 30.527 56.777 30.6729 56.5537C30.8187 56.3304 30.9258 56.0706 30.9941 55.7744C31.0671 55.4782 31.1035 55.1637 31.1035 54.8311V54.6738C31.1035 54.3457 31.0671 54.0358 30.9941 53.7441C30.9258 53.4479 30.8164 53.1859 30.666 52.958C30.5202 52.7301 30.3333 52.5524 30.1055 52.4248C29.8822 52.2926 29.6156 52.2266 29.3057 52.2266C28.9958 52.2266 28.7269 52.2926 28.499 52.4248C28.2757 52.5524 28.0911 52.7301 27.9453 52.958C27.7995 53.1859 27.6924 53.4479 27.624 53.7441C27.5557 54.0358 27.5215 54.3457 27.5215 54.6738ZM36.1416 56.8066L37.8506 51.0508H38.9033L38.6162 52.7734L36.8936 58.4473H35.9502L36.1416 56.8066ZM35.1367 51.0508L36.4697 56.834L36.5791 58.4473H35.5264L33.5234 51.0508H35.1367ZM40.5029 56.7656L41.7949 51.0508H43.4014L41.4053 58.4473H40.3525L40.5029 56.7656ZM39.0811 51.0508L40.7695 56.7383L40.9814 58.4473H40.0381L38.2949 52.7666L38.0078 51.0508H39.0811ZM48.1729 48.4941H51.6934C52.4499 48.4941 53.0947 48.6081 53.6279 48.8359C54.1611 49.0638 54.569 49.401 54.8516 49.8477C55.1387 50.2897 55.2822 50.8366 55.2822 51.4883C55.2822 51.985 55.1911 52.4225 55.0088 52.8008C54.8265 53.179 54.569 53.498 54.2363 53.7578C53.9036 54.013 53.5072 54.2113 53.0469 54.3525L52.5273 54.6055H49.3623L49.3486 53.2451H51.7207C52.1309 53.2451 52.4727 53.1722 52.7461 53.0264C53.0195 52.8805 53.2246 52.6823 53.3613 52.4316C53.5026 52.1764 53.5732 51.8893 53.5732 51.5703C53.5732 51.224 53.5049 50.9232 53.3682 50.668C53.236 50.4082 53.0309 50.21 52.7529 50.0732C52.4749 49.932 52.1217 49.8613 51.6934 49.8613H49.8887V58.4473H48.1729V48.4941ZM53.8535 58.4473L51.5156 53.9766L53.3135 53.9697L55.6855 58.3584V58.4473H53.8535ZM58.5908 51.0508V58.4473H56.9365V51.0508H58.5908ZM56.8271 49.1094C56.8271 48.8587 56.9092 48.6514 57.0732 48.4873C57.2419 48.3187 57.4743 48.2344 57.7705 48.2344C58.0622 48.2344 58.2923 48.3187 58.4609 48.4873C58.6296 48.6514 58.7139 48.8587 58.7139 49.1094C58.7139 49.3555 58.6296 49.5605 58.4609 49.7246C58.2923 49.8887 58.0622 49.9707 57.7705 49.9707C57.4743 49.9707 57.2419 49.8887 57.0732 49.7246C56.9092 49.5605 56.8271 49.3555 56.8271 49.1094ZM62.8018 57.1416L64.6133 51.0508H66.3223L63.752 58.4473H62.6855L62.8018 57.1416ZM61.4141 51.0508L63.2598 57.1689L63.3486 58.4473H62.2822L59.6982 51.0508H61.4141ZM70.5059 58.584C69.959 58.584 69.4645 58.4951 69.0225 58.3174C68.585 58.1351 68.2113 57.8822 67.9014 57.5586C67.596 57.235 67.3613 56.8545 67.1973 56.417C67.0332 55.9795 66.9512 55.5078 66.9512 55.002V54.7285C66.9512 54.1497 67.0355 53.6257 67.2041 53.1562C67.3727 52.6868 67.6074 52.2858 67.9082 51.9531C68.209 51.6159 68.5645 51.3584 68.9746 51.1807C69.3848 51.0029 69.8291 50.9141 70.3076 50.9141C70.8363 50.9141 71.2988 51.0029 71.6953 51.1807C72.0918 51.3584 72.4199 51.609 72.6797 51.9326C72.944 52.2516 73.14 52.6322 73.2676 53.0742C73.3997 53.5163 73.4658 54.0039 73.4658 54.5371V55.2412H67.751V54.0586H71.8389V53.9287C71.8298 53.6325 71.7705 53.3545 71.6611 53.0947C71.5563 52.835 71.3945 52.6253 71.1758 52.4658C70.957 52.3063 70.6654 52.2266 70.3008 52.2266C70.0273 52.2266 69.7835 52.2858 69.5693 52.4043C69.3597 52.5182 69.1842 52.6846 69.043 52.9033C68.9017 53.1221 68.7923 53.3864 68.7148 53.6963C68.6419 54.0016 68.6055 54.3457 68.6055 54.7285V55.002C68.6055 55.3255 68.6488 55.6263 68.7354 55.9043C68.8265 56.1777 68.9587 56.417 69.1318 56.6221C69.305 56.8271 69.5146 56.9889 69.7607 57.1074C70.0068 57.2214 70.2871 57.2783 70.6016 57.2783C70.998 57.2783 71.3512 57.1986 71.6611 57.0391C71.971 56.8796 72.2399 56.654 72.4678 56.3623L73.3359 57.2031C73.1764 57.4355 72.9691 57.6589 72.7139 57.873C72.4587 58.0827 72.1465 58.2536 71.7773 58.3857C71.4128 58.5179 70.9889 58.584 70.5059 58.584ZM76.4053 52.459V58.4473H74.7578V51.0508H76.3301L76.4053 52.459ZM78.668 51.0029L78.6543 52.5342C78.554 52.516 78.4447 52.5023 78.3262 52.4932C78.2122 52.484 78.0983 52.4795 77.9844 52.4795C77.7018 52.4795 77.4535 52.5205 77.2393 52.6025C77.0251 52.68 76.8451 52.7939 76.6992 52.9443C76.5579 53.0902 76.4486 53.2679 76.3711 53.4775C76.2936 53.6872 76.248 53.9219 76.2344 54.1816L75.8584 54.209C75.8584 53.7441 75.904 53.3135 75.9951 52.917C76.0863 52.5205 76.223 52.1719 76.4053 51.8711C76.5921 51.5703 76.8245 51.3356 77.1025 51.167C77.3851 50.9984 77.7109 50.9141 78.0801 50.9141C78.1803 50.9141 78.2874 50.9232 78.4014 50.9414C78.5199 50.9596 78.6087 50.9801 78.668 51.0029ZM81.9697 57.6406L83.9795 51.0508H85.7432L82.7764 59.5752C82.708 59.7575 82.6191 59.9557 82.5098 60.1699C82.4004 60.3841 82.2568 60.5869 82.0791 60.7783C81.9059 60.9743 81.6895 61.1315 81.4297 61.25C81.1699 61.373 80.8555 61.4346 80.4863 61.4346C80.3405 61.4346 80.1992 61.4209 80.0625 61.3936C79.9303 61.3708 79.805 61.3457 79.6865 61.3184L79.6797 60.0605C79.7253 60.0651 79.7799 60.0697 79.8438 60.0742C79.9121 60.0788 79.9668 60.0811 80.0078 60.0811C80.2812 60.0811 80.5091 60.0469 80.6914 59.9785C80.8737 59.9147 81.0218 59.8099 81.1357 59.6641C81.2542 59.5182 81.3545 59.3223 81.4365 59.0762L81.9697 57.6406ZM80.835 51.0508L82.5918 56.5879L82.8857 58.3242L81.7441 58.6182L79.0576 51.0508H80.835Z" fill="white"/>
<path opacity="0.5" d="M103.161 71.2993C98.8349 67.3987 95.8146 62.2698 94.5072 56.6051C93.1999 50.9403 93.6684 45.0123 95.8497 39.6212C98.031 34.2301 101.82 29.6355 106.705 26.4574C111.59 23.2794 117.337 21.6709 123.168 21.8492C129 22.0274 134.637 23.9838 139.317 27.4542C143.998 30.9246 147.497 35.742 149.342 41.2562C151.188 46.7703 151.29 52.7158 149.637 58.29C147.984 63.8643 144.653 68.7991 140.096 72.4282" fill="#F9FAFB"/>
<path d="M98.9226 62.5991C98.9009 63.1747 98.7083 63.7309 98.3692 64.1974C98.0301 64.6639 97.5598 65.0198 97.0177 65.2199C96.4755 65.4201 95.886 65.4555 95.3237 65.3218C94.7613 65.1881 94.2514 64.8912 93.8584 64.4687C93.4655 64.0463 93.2071 63.5172 93.1161 62.9484C93.025 62.3796 93.1053 61.7967 93.3469 61.2734C93.5884 60.7501 93.9803 60.3099 94.473 60.0086C94.9658 59.7072 95.5371 59.5582 96.1148 59.5804C96.8882 59.6111 97.6178 59.9462 98.1435 60.5121C98.6692 61.078 98.9481 61.8286 98.919 62.5991" fill="#09CCA6"/>
<path d="M156.441 64.7053C156.407 65.5854 156.112 66.4358 155.593 67.149C155.074 67.8621 154.354 68.406 153.525 68.7119C152.696 69.0178 151.794 69.072 150.934 68.8676C150.074 68.6631 149.295 68.2093 148.693 67.5635C148.092 66.9177 147.697 66.1087 147.557 65.239C147.417 64.3693 147.539 63.4778 147.908 62.6772C148.276 61.8765 148.875 61.2027 149.628 60.7409C150.38 60.2791 151.254 60.05 152.137 60.0825C152.725 60.1037 153.302 60.2402 153.837 60.4841C154.371 60.7281 154.852 61.0747 155.252 61.5041C155.652 61.9336 155.963 62.4374 156.166 62.9867C156.37 63.536 156.464 64.12 156.441 64.7053Z" fill="#09CCA6"/>
<path d="M157.954 68.9136C157.92 69.7938 157.625 70.6442 157.106 71.3574C156.587 72.0705 155.867 72.6144 155.038 72.9203C154.209 73.2262 153.308 73.2803 152.448 73.0759C151.588 72.8715 150.808 72.4177 150.207 71.7719C149.605 71.126 149.21 70.3171 149.07 69.4474C148.93 68.5777 149.052 67.6862 149.421 66.8855C149.789 66.0849 150.388 65.4111 151.141 64.9493C151.894 64.4875 152.767 64.2583 153.651 64.2909C154.837 64.3355 155.956 64.8476 156.763 65.7145C157.57 66.5814 157.998 67.7322 157.954 68.9136Z" fill="#09CCA6"/>
<path d="M135.083 70.3462C135.049 71.3033 134.732 72.2289 134.17 73.0059C133.608 73.7828 132.827 74.3761 131.926 74.7106C131.026 75.0451 130.046 75.1057 129.11 74.8848C128.175 74.6639 127.326 74.1713 126.672 73.4696C126.018 72.7678 125.588 71.8885 125.436 70.9429C125.284 69.9973 125.417 69.0281 125.819 68.158C126.22 67.2879 126.872 66.5561 127.691 66.0552C128.51 65.5544 129.461 65.3072 130.421 65.3448C131.707 65.3969 132.919 65.9543 133.793 66.8951C134.666 67.8359 135.13 69.0833 135.083 70.3641" fill="#09CCA6"/>
<path d="M139.795 71.7389C139.764 72.5615 139.488 73.3565 139.004 74.0233C138.519 74.69 137.847 75.1986 137.072 75.4847C136.297 75.7709 135.455 75.8217 134.651 75.6307C133.847 75.4398 133.118 75.0156 132.557 74.412C131.995 73.8083 131.625 73.0522 131.495 72.2393C131.364 71.4265 131.479 70.5933 131.824 69.8452C132.169 69.0972 132.728 68.4678 133.432 68.0367C134.136 67.6056 134.953 67.3922 135.778 67.4234C136.327 67.4441 136.866 67.5723 137.364 67.8006C137.863 68.0289 138.312 68.3528 138.685 68.7539C139.058 69.155 139.348 69.6254 139.538 70.1382C139.729 70.651 139.816 71.1961 139.795 71.7425" fill="#09CCA6"/>
<path d="M119.384 65.4197C119.361 66.018 119.161 66.5963 118.808 67.0812C118.456 67.5662 117.967 67.936 117.403 68.144C116.84 68.352 116.227 68.3888 115.643 68.2497C115.058 68.1106 114.528 67.8018 114.12 67.3625C113.711 66.9232 113.443 66.373 113.349 65.7817C113.254 65.1904 113.338 64.5845 113.59 64.0407C113.841 63.4969 114.249 63.0396 114.761 62.7268C115.274 62.4139 115.868 62.2595 116.468 62.2831C116.866 62.2978 117.257 62.3906 117.619 62.5561C117.981 62.7216 118.307 62.9565 118.578 63.2475C118.849 63.5385 119.059 63.8798 119.197 64.2519C119.336 64.624 119.399 65.0197 119.384 65.4162" fill="#09CCA6"/>
<path d="M112.821 68.3914C112.811 68.6554 112.722 68.9105 112.567 69.1244C112.411 69.3383 112.196 69.5015 111.947 69.5933C111.698 69.6851 111.428 69.7014 111.17 69.6402C110.912 69.579 110.678 69.4429 110.498 69.2493C110.317 69.0556 110.199 68.813 110.157 68.5522C110.115 68.2913 110.151 68.024 110.262 67.7838C110.372 67.5436 110.552 67.3415 110.777 67.2029C111.003 67.0644 111.265 66.9956 111.53 67.0053C111.885 67.0192 112.22 67.1731 112.462 67.433C112.703 67.6929 112.831 68.0376 112.817 68.3914" fill="#09CCA6"/>
<path d="M127.373 72.1214C127.332 73.228 126.962 74.2975 126.311 75.1947C125.659 76.0919 124.756 76.7765 123.714 77.1619C122.672 77.5473 121.538 77.6161 120.457 77.3598C119.376 77.1034 118.395 76.5333 117.639 75.7217C116.883 74.91 116.385 73.8932 116.209 72.7998C116.034 71.7065 116.187 70.5857 116.651 69.5793C117.114 68.5728 117.867 67.726 118.814 67.1458C119.76 66.5656 120.858 66.2781 121.969 66.3198C123.454 66.3802 124.854 67.0249 125.863 68.1125C126.871 69.2002 127.405 70.6419 127.348 72.1214" fill="#09CCA6"/>
<path d="M114.008 71.8182C113.967 72.9247 113.597 73.9943 112.946 74.8915C112.295 75.7887 111.391 76.4733 110.349 76.8587C109.307 77.244 108.173 77.3129 107.092 77.0566C106.011 76.8002 105.03 76.2301 104.274 75.4184C103.518 74.6068 103.021 73.5899 102.845 72.4966C102.669 71.4032 102.822 70.2825 103.286 69.276C103.749 68.2696 104.502 67.4227 105.449 66.8426C106.396 66.2624 107.494 65.9749 108.604 66.0165C110.089 66.0769 111.49 66.7217 112.498 67.8093C113.506 68.897 114.041 70.3387 113.983 71.8182" fill="#09CCA6"/>
<path d="M152.238 60.6538C152.212 61.2639 152.006 61.8529 151.645 62.3465C151.284 62.84 150.785 63.2159 150.209 63.4267C149.634 63.6376 149.009 63.6739 148.413 63.531C147.817 63.3882 147.277 63.0727 146.861 62.6242C146.445 62.1758 146.171 61.6146 146.075 61.0115C145.979 60.4084 146.064 59.7905 146.32 59.2356C146.576 58.6808 146.992 58.214 147.514 57.8942C148.036 57.5743 148.642 57.4158 149.254 57.4386C149.662 57.4546 150.062 57.5506 150.432 57.721C150.802 57.8913 151.135 58.1327 151.412 58.4313C151.688 58.73 151.903 59.08 152.043 59.4613C152.184 59.8427 152.247 60.2479 152.231 60.6538" fill="#09CCA6"/>
<path d="M156.817 58.7066C156.804 58.8942 156.736 59.0739 156.621 59.2233C156.507 59.3726 156.351 59.4851 156.172 59.5465C155.994 59.608 155.801 59.6158 155.618 59.569C155.436 59.5221 155.271 59.4227 155.144 59.283C155.018 59.1434 154.936 58.9698 154.908 58.7839C154.88 58.598 154.907 58.4079 154.987 58.2375C155.067 58.067 155.195 57.9237 155.356 57.8255C155.517 57.7272 155.703 57.6783 155.892 57.6849C156.15 57.6997 156.392 57.8152 156.565 58.0065C156.738 58.1978 156.829 58.4493 156.817 58.7066Z" fill="#09CCA6"/>
<path d="M154.235 59.9356C154.22 60.2722 154.104 60.5966 153.904 60.8681C153.703 61.1395 153.426 61.3457 153.109 61.4608C152.791 61.5759 152.446 61.5947 152.117 61.5148C151.788 61.4349 151.491 61.26 151.262 61.012C151.033 60.764 150.882 60.454 150.83 60.1211C150.777 59.7882 150.825 59.4472 150.966 59.1412C151.108 58.8351 151.337 58.5776 151.625 58.4011C151.914 58.2246 152.248 58.137 152.586 58.1493C152.812 58.158 153.034 58.2113 153.239 58.3059C153.445 58.4006 153.629 58.5348 153.782 58.7009C153.935 58.8669 154.054 59.0615 154.131 59.2735C154.208 59.4854 154.242 59.7104 154.232 59.9356" fill="#09CCA6"/>
<path d="M149.136 66.9485C149.085 68.3316 148.624 69.6685 147.81 70.7903C146.997 71.912 145.867 72.7681 144.565 73.2501C143.263 73.7322 141.847 73.8186 140.495 73.4985C139.144 73.1783 137.918 72.4659 136.973 71.4515C136.028 70.437 135.406 69.1661 135.187 67.7996C134.967 66.4331 135.159 65.0323 135.739 63.7746C136.318 62.5169 137.259 61.4588 138.443 60.7341C139.626 60.0094 140.999 59.6508 142.387 59.7036C143.309 59.7381 144.214 59.9532 145.052 60.3366C145.89 60.72 146.644 61.2642 147.271 61.938C147.898 62.6119 148.385 63.4022 148.705 64.2637C149.025 65.1253 149.172 66.0413 149.136 66.9592" fill="#09CCA6"/>
<path d="M138.811 67.6503C138.768 68.8125 138.381 69.9359 137.696 70.8785C137.012 71.8211 136.063 72.5405 134.968 72.9456C133.873 73.3507 132.682 73.4233 131.546 73.1543C130.41 72.8852 129.379 72.2866 128.584 71.4342C127.79 70.5817 127.267 69.5138 127.083 68.3654C126.898 67.2171 127.059 66.0401 127.547 64.9832C128.034 63.9263 128.825 63.0372 129.821 62.4282C130.816 61.8193 131.97 61.5179 133.137 61.5623C134.701 61.6232 136.177 62.2998 137.241 63.4435C138.305 64.5872 138.87 66.1045 138.811 67.6623" fill="#09CCA6"/>
<path d="M153.217 69.7064C153.155 71.3346 152.609 72.908 151.649 74.2273C150.69 75.5467 149.359 76.5529 147.825 77.1187C146.291 77.6844 144.623 77.7843 143.032 77.4057C141.442 77.0271 139.999 76.1871 138.888 74.9917C137.776 73.7964 137.045 72.2996 136.788 70.6904C136.53 69.0813 136.757 67.4323 137.441 65.9518C138.124 64.4714 139.232 63.226 140.626 62.3733C142.02 61.5205 143.636 61.0987 145.271 61.1611C147.461 61.2457 149.529 62.1932 151.019 63.7955C152.509 65.3978 153.299 67.5237 153.217 69.7064Z" fill="#09CCA6"/>
<path d="M106.238 70.5247C106.204 71.4817 105.886 72.4074 105.324 73.1843C104.763 73.9613 103.982 74.5546 103.081 74.8891C102.18 75.2236 101.2 75.2842 100.265 75.0633C99.3297 74.8423 98.4812 74.3498 97.8272 73.648C97.1731 72.9463 96.7428 72.0669 96.5909 71.1214C96.4389 70.1758 96.5721 69.2065 96.9735 68.3364C97.375 67.4663 98.0266 66.7345 98.846 66.2337C99.6653 65.7329 100.615 65.4857 101.576 65.5233C102.213 65.5477 102.839 65.6969 103.418 65.9623C103.997 66.2278 104.518 66.6044 104.951 67.0706C105.384 67.5367 105.72 68.0832 105.941 68.679C106.162 69.2747 106.263 69.908 106.238 70.5426" fill="#09CCA6"/>
<path d="M111.05 66.7663C110.997 68.1488 110.534 69.4847 109.719 70.6049C108.904 71.7252 107.774 72.5796 106.472 73.06C105.17 73.5405 103.753 73.6254 102.403 73.3041C101.052 72.9827 99.8273 72.2696 98.8834 71.2548C97.9395 70.24 97.3189 68.9692 97.1 67.603C96.8811 66.2368 97.0738 64.8367 97.6537 63.5796C98.2336 62.3225 99.1746 61.2649 100.358 60.5407C101.541 59.8164 102.913 59.458 104.301 59.5107C106.161 59.5823 107.917 60.3867 109.183 61.7472C110.448 63.1076 111.12 64.9129 111.05 66.7663Z" fill="#09CCA6"/>
<path d="M100.507 68.61C100.47 69.5662 100.149 70.4899 99.5854 71.2644C99.0214 72.0389 98.2395 72.6294 97.3387 72.9612C96.4378 73.2929 95.4584 73.3511 94.5244 73.1282C93.5903 72.9054 92.7436 72.4116 92.0913 71.7093C91.439 71.0069 91.0105 70.1277 90.8599 69.1827C90.7093 68.2377 90.8434 67.2694 91.2452 66.4003C91.6471 65.5313 92.2986 64.8005 93.1174 64.3004C93.9362 63.8002 94.8855 63.5533 95.8452 63.5907C97.1314 63.6409 98.3449 64.1978 99.219 65.139C100.093 66.0802 100.556 67.3287 100.507 68.61Z" fill="#09CCA6"/>
<path d="M150.879 68.94C150.864 69.3105 150.739 69.6682 150.519 69.9679C150.3 70.2676 149.996 70.4958 149.646 70.6239C149.297 70.7519 148.917 70.7739 148.554 70.6872C148.192 70.6005 147.864 70.4089 147.611 70.1366C147.358 69.8643 147.192 69.5235 147.133 69.1572C147.075 68.791 147.127 68.4157 147.282 68.0788C147.438 67.7419 147.69 67.4584 148.008 67.2642C148.325 67.07 148.693 66.9737 149.066 66.9875C149.313 66.9973 149.557 67.0556 149.782 67.159C150.007 67.2625 150.209 67.409 150.377 67.5904C150.545 67.7717 150.676 67.9843 150.761 68.2158C150.846 68.4474 150.885 68.6935 150.875 68.94" fill="#09CCA6"/>
<path d="M133.484 68.5615C133.448 69.5176 133.127 70.4413 132.563 71.2158C131.999 71.9904 131.217 72.5808 130.316 72.9126C129.415 73.2444 128.436 73.3025 127.502 73.0796C126.568 72.8568 125.721 72.363 125.069 71.6607C124.417 70.9584 123.988 70.0791 123.837 69.1341C123.687 68.1891 123.821 67.2208 124.223 66.3518C124.625 65.4827 125.276 64.7519 126.095 64.2518C126.914 63.7517 127.863 63.5047 128.823 63.5422C130.109 63.5924 131.322 64.1493 132.197 65.0905C133.071 66.0317 133.534 67.2801 133.484 68.5615Z" fill="#09CCA6"/>
<path d="M127.894 70.5412C127.857 71.4973 127.536 72.4211 126.972 73.1956C126.408 73.9701 125.626 74.5606 124.725 74.8923C123.825 75.2241 122.845 75.2822 121.911 75.0594C120.977 74.8365 120.13 74.3427 119.478 73.6404C118.826 72.9381 118.397 72.0588 118.247 71.1138C118.096 70.1688 118.23 69.2005 118.632 68.3315C119.034 67.4624 119.685 66.7316 120.504 66.2315C121.323 65.7314 122.272 65.4844 123.232 65.5219C124.518 65.5721 125.732 66.129 126.606 67.0702C127.48 68.0114 127.943 69.2599 127.894 70.5412Z" fill="#09CCA6"/>
<path d="M121.751 69.0457C121.697 70.428 121.234 71.7634 120.418 72.8832C119.603 74.003 118.473 74.8568 117.17 75.3367C115.868 75.8166 114.452 75.901 113.102 75.5793C111.751 75.2576 110.527 74.5442 109.583 73.5293C108.64 72.5144 108.02 71.2436 107.801 69.8775C107.582 68.5115 107.775 67.1115 108.355 65.8546C108.935 64.5977 109.876 63.5404 111.059 62.8163C112.242 62.0922 113.614 61.7338 115.002 61.7864C116.862 61.8571 118.618 62.6607 119.883 64.0206C121.149 65.3805 121.821 67.1854 121.751 69.0385" fill="#09CCA6"/>
<path d="M124.095 62.2989C124.592 60.9605 126.066 60.3034 127.402 60.7901L128.624 57.5129L132.788 59.6707L131.468 63.2075L130.637 65.4301L126.27 63.824L123.85 62.9236L124.095 62.2989Z" fill="#26114D"/>
<path d="M140.609 59.6548L141.195 59.0708L142.858 57.2456L148.015 62.4859L147.534 62.9645C146.54 63.9703 144.886 63.9703 143.892 62.9726L143.884 62.9645L143.827 63.0213C143.281 63.5648 142.556 63.8487 141.798 63.8487C141.041 63.8487 140.299 63.5485 139.77 63.0213L136.397 59.6629L140.609 59.6548Z" fill="#3C295F"/>
<path opacity="0.15" d="M142.046 67.1019C138.769 67.1019 136.111 66.8186 136.111 66.4692C136.111 66.1197 138.769 65.8364 142.046 65.8364C145.324 65.8364 147.981 66.1197 147.981 66.4692C147.981 66.8186 145.324 67.1019 142.046 67.1019Z" fill="black"/>
<path d="M128.146 46.3355H124.35V45.7514C124.35 44.7131 125.197 43.8776 126.232 43.8776C127.275 43.8776 128.114 44.7212 128.114 45.7514L128.146 46.3355Z" fill="#FFC494"/>
<path d="M124.35 46.3518H128.146V48.5501H124.35V46.3518Z" fill="#26114D"/>
<path d="M124.35 48.5498H128.146V52.3299C126.045 52.3218 124.35 50.6427 124.35 48.5498Z" fill="#FFC494"/>
<path d="M129.621 48.5499C130.664 48.5499 131.503 49.3935 131.503 50.4237C131.503 51.454 130.656 52.2976 129.621 52.2976H128.139V48.5175L129.621 48.5499Z" fill="#E5E7EB"/>
<path d="M142.304 46.5789L142.337 45.9948C142.337 44.9646 143.176 44.121 144.219 44.121C145.253 44.121 146.101 44.9565 146.101 45.9948V46.5789H142.304Z" fill="#FFC494"/>
<path d="M142.304 46.5953H146.101V48.7937H142.304V46.5953Z" fill="#26114D"/>
<path d="M142.304 52.5733V48.7932H146.101C146.101 50.8861 144.406 52.5652 142.304 52.5733Z" fill="#FFC494"/>
<path d="M140.829 48.7934L142.312 48.761V52.5411H140.829C139.795 52.5411 138.947 51.6975 138.947 50.6673C138.947 49.6371 139.786 48.7934 140.829 48.7934Z" fill="#E5E7EB"/>
<path d="M128.69 55.3962C128.69 52.3136 131.737 49.8152 135.484 49.8152C139.232 49.8152 142.287 52.3218 142.287 55.3962V57.5296H128.681V55.3962H128.69Z" fill="#FFCE1F"/>
<path d="M142.271 60.0033H128.625V57.5129H142.271V60.0033Z" fill="#26114D"/>
<path d="M136.275 49.9208L128.624 57.5216L131.02 57.5379L138.694 49.8965L136.275 49.9208Z" fill="#514171"/>
<path d="M125.629 47.1306C125.503 48.0926 129.433 49.3971 134.408 50.0463C139.382 50.6955 143.515 50.4433 143.641 49.4813L144.441 43.3514L126.434 41.0014L125.634 47.1312L125.629 47.1306Z" fill="#6B7280"/>
<path d="M135.661 40.4406C130.687 39.7914 126.554 40.0436 126.428 41.0056C126.303 41.9676 130.233 43.2721 135.207 43.9213C140.182 44.5705 144.315 44.3183 144.44 43.3563C144.566 42.3943 140.636 41.0898 135.661 40.4406Z" fill="#2F3845"/>
<path d="M126.61 39.613C126.485 40.575 130.415 41.8795 135.389 42.5287C140.364 43.1779 144.497 42.9257 144.622 41.9637L145.422 35.8339L127.415 33.4838L126.615 39.6137L126.61 39.613Z" fill="#6B7280"/>
<path d="M136.643 32.9189C131.668 32.2697 127.535 32.5219 127.41 33.4839C127.284 34.4459 131.214 35.7503 136.188 36.3996C141.163 37.0488 145.296 36.7966 145.422 35.8346C145.547 34.8726 141.617 33.5681 136.643 32.9189Z" fill="#2F3845"/>
<path d="M127.591 32.091C127.466 33.053 131.395 34.3575 136.37 35.0067C141.344 35.6559 145.478 35.4038 145.603 34.4417L146.403 28.3119L128.396 25.9618L127.596 32.0917L127.591 32.091Z" fill="#6B7280"/>
<path d="M137.624 25.3962C132.65 24.747 128.517 24.9991 128.391 25.9612C128.265 26.9232 132.195 28.2276 137.17 28.8769C142.144 29.5261 146.277 29.2739 146.403 28.3119C146.529 27.3499 142.599 26.0454 137.624 25.3962Z" fill="#ADB5BD"/>
<g style="mix-blend-mode:multiply">
<path d="M128.391 25.9612L127.591 32.091C127.559 32.3376 127.802 32.6103 128.254 32.8855C127.742 33.035 127.442 33.2367 127.409 33.4833L126.609 39.6131C126.577 39.8597 126.821 40.1324 127.272 40.4076C126.76 40.5571 126.46 40.7589 126.428 41.0054L125.628 47.1352C125.502 48.0973 129.432 49.4017 134.407 50.0509L137.624 25.3962C132.65 24.747 128.517 24.9991 128.391 25.9612Z" fill="#D1D5DB"/>
</g>
<g style="mix-blend-mode:soft-light">
<path d="M144.294 29.4284C143.895 29.3763 143.532 29.6633 143.479 30.0694L142.956 34.0818C142.903 34.4879 143.179 34.8583 143.578 34.9104C143.977 34.9625 144.34 34.6755 144.393 34.2694L144.916 30.2569C144.969 29.8509 144.693 29.4805 144.294 29.4284Z" fill="#ADB5BD"/>
</g>
<g style="mix-blend-mode:soft-light">
<path d="M143.3 37.0421C142.901 36.99 142.539 37.2771 142.486 37.6832L141.962 41.6956C141.909 42.1017 142.185 42.4721 142.585 42.5242C142.984 42.5763 143.346 42.2892 143.399 41.8832L143.923 37.8707C143.976 37.4646 143.699 37.0942 143.3 37.0421Z" fill="#ADB5BD"/>
</g>
<g style="mix-blend-mode:soft-light">
<path d="M142.319 44.5639C141.919 44.5118 141.557 44.7988 141.504 45.2049L140.981 49.2173C140.928 49.6234 141.204 49.9938 141.603 50.0459C142.002 50.098 142.365 49.8109 142.418 49.4049L142.941 45.3924C142.994 44.9864 142.718 44.616 142.319 44.5639Z" fill="#ADB5BD"/>
</g>
<path d="M135.623 41.7358C132.241 40.803 130.254 37.2986 131.199 33.9079L131.565 32.5938L132.038 32.7479C131.378 35.1084 132.755 37.5339 135.117 38.1909L136.502 38.5722" fill="#E5E7EB"/>
<path d="M131.692 43.7256L140.454 46.1472L139.798 48.5L131.036 46.0784L131.692 43.7256Z" fill="#FFC494"/>
<path d="M131.859 46.0024C131.508 46.0024 131.223 45.7191 131.223 45.3697C131.223 45.0202 131.508 44.7369 131.859 44.7369C132.21 44.7369 132.494 45.0202 132.494 45.3697C132.494 45.7191 132.21 46.0024 131.859 46.0024Z" fill="#FFE1C9"/>
<path d="M133.325 44.8348C133.423 44.5022 133.219 44.1453 132.885 44.0561C132.551 43.9587 132.193 44.1615 132.103 44.4941L133.325 44.8348Z" fill="#26114D"/>
<path d="M136.796 45.7995C136.894 45.467 136.69 45.11 136.356 45.0208C136.014 44.9235 135.664 45.1263 135.574 45.4588L136.796 45.7995Z" fill="#26114D"/>
<path d="M141.269 44.3238C141.986 41.7442 140.487 39.0673 137.904 38.3535C135.321 37.6396 132.649 39.1484 131.924 41.7442L141.269 44.3238Z" fill="#26114D"/>
<path d="M134.204 42.3715L136.111 42.8988L135.189 46.2052L133.282 45.6779L134.204 42.3715Z" fill="#E5E7EB"/>
<path d="M135.859 47.4063C136.005 46.879 135.688 46.3436 135.174 46.1976C134.653 46.0516 134.107 46.3679 133.96 46.879L135.859 47.4063Z" fill="#26114D"/>
<path d="M133.96 46.8784C134.107 46.3511 133.789 45.8158 133.276 45.6697C132.746 45.5237 132.209 45.8401 132.062 46.3511L133.96 46.8784Z" fill="#26114D"/>
<path d="M136.56 47.2921C136.209 47.2921 135.924 47.0088 135.924 46.6593C135.924 46.3099 136.209 46.0266 136.56 46.0266C136.911 46.0266 137.195 46.3099 137.195 46.6593C137.195 47.0088 136.911 47.2921 136.56 47.2921Z" fill="#FFE1C9"/>
<path d="M128.779 50.6586L130.807 43.3741L131.744 43.6337L130.327 48.7036L128.779 50.6586Z" fill="#26114D"/>
<path d="M130.767 45.9211C129.667 49.8554 132.087 52.5891 132.087 52.5891C132.087 52.5891 135.508 51.7292 136.673 47.5516L130.767 45.9211Z" fill="#26114D"/>
<path d="M139.297 46.2783L139.672 44.9318L141.48 45.4347L140.584 48.6389C139.607 52.1432 136.731 52.8571 136.731 52.8571C136.731 52.8571 134.694 50.5614 135.615 47.2599L136.902 47.6168C137.945 47.9169 139.004 47.3167 139.297 46.2783Z" fill="#26114D"/>
<path d="M132.625 46.4326C131.647 49.9369 128.771 50.6507 128.771 50.6507L130.14 45.743L132.625 46.4326Z" fill="#26114D"/>
<path d="M139.753 48.428C139.753 48.428 139.232 50.4559 137.154 51.6322" stroke="#514171" stroke-width="0.314994" stroke-miterlimit="10"/>
<path d="M132.844 46.5706C132.673 47.1789 133.039 47.8198 133.65 47.9901C134.261 48.1605 134.905 47.7954 135.076 47.1871L132.844 46.5706Z" fill="white"/>
<path d="M130.983 41.4769L142.217 44.582L141.687 46.4815L130.453 43.3763L130.983 41.4769Z" fill="#E5E7EB"/>
<path d="M135.501 43.5422L137.872 44.1975L137.765 44.5805L135.394 43.9252L135.501 43.5422Z" fill="#26114D"/>
<path d="M132.021 42.5842L134.392 43.2395L134.285 43.6225L131.914 42.9672L132.021 42.5842Z" fill="#26114D"/>
<path d="M140.47 40.219C140.478 40.219 140.495 40.2271 140.495 40.2271L141.871 40.6084C144.234 41.2655 146.678 39.8702 147.33 37.5259L147.819 37.6313L147.452 38.9536C146.507 42.3281 142.996 44.3317 139.607 43.3908V43.3826C139.598 43.3826 139.582 43.3745 139.582 43.3745C138.718 43.1393 138.197 42.2389 138.441 41.3628C138.686 40.4786 139.59 39.9757 140.47 40.219Z" fill="#E5E7EB"/>
<path d="M138.165 42.2625L139.574 42.6518C140.975 43.0412 142.483 42.8384 143.835 42.1002" stroke="#514171" stroke-width="0.314994" stroke-miterlimit="10"/>
<path d="M104 49.2506C104.977 49.2506 105.763 50.0409 105.763 51.0061C105.763 51.9712 104.969 52.7615 104 52.7615H102.611V49.2202L104 49.2506Z" fill="#E5E7EB"/>
<path d="M102.557 62.8385C102.832 61.5466 104.107 60.7183 105.404 60.9919C105.412 60.9919 105.412 60.9919 105.419 60.9919L105.908 58.7045L110.174 59.6012L109.518 62.6865L109.052 64.8599L104.786 63.9632L102.42 63.454L102.557 62.8385Z" fill="#26114D"/>
<path d="M111.075 60.3379L111.624 59.7907L113.212 58.2177L116.295 61.2878L118.013 62.9976L117.562 63.446C116.624 64.3883 115.097 64.3883 114.151 63.4536L114.143 63.446L114.09 63.4992C113.586 64.0007 112.899 64.2819 112.189 64.2743C111.479 64.2743 110.792 63.9931 110.289 63.4992L107.129 60.3531L111.075 60.3379Z" fill="#3C295F"/>
<path d="M104.946 49.3569H116.173V57.6706H104.946V49.3569Z" fill="#E5E7EB"/>
<path d="M104 49.2506C104.977 49.2506 105.763 50.0409 105.763 51.0061C105.763 51.9712 104.969 52.7615 104 52.7615H102.611V49.2202L104 49.2506Z" fill="#E5E7EB"/>
<path d="M114.937 52.3743C114.242 51.6828 114.242 50.5657 114.937 49.8741C115.631 49.1826 116.753 49.1826 117.448 49.8741L118.425 50.8544L115.914 53.3546L114.937 52.3743Z" fill="#E5E7EB"/>
<path opacity="0.15" d="M114.189 67.3217C110.72 67.3217 107.908 66.9815 107.908 66.5618C107.908 66.1421 110.72 65.8019 114.189 65.8019C117.658 65.8019 120.47 66.1421 120.47 66.5618C120.47 66.9815 117.658 67.3217 114.189 67.3217Z" fill="black"/>
<path d="M108.64 43.2928C105.351 43.2928 102.679 40.6254 102.679 37.3273V36.0507L103.145 36.0735C103.137 38.3533 104.992 40.2075 107.282 40.2151C107.289 40.2151 107.289 40.2151 107.297 40.2151H108.64" fill="#E5E7EB"/>
<path d="M114.387 44.2202C114.387 41.7124 112.357 39.6682 109.846 39.6682C107.335 39.6758 105.297 41.7048 105.305 44.205C105.305 44.2126 105.305 44.2126 105.305 44.2202H114.387Z" fill="#26114D"/>
<path d="M108.983 44.9567H111.288V45.329H108.983V44.9567Z" fill="#26114D"/>
<path d="M105.602 44.9567H107.907V45.329H105.602V44.9567Z" fill="#26114D"/>
<path d="M112.632 40.7168H113.99C116.288 40.7168 118.142 38.8626 118.142 36.5752L118.608 36.5524V37.8367C118.608 41.1196 115.937 43.8021 112.647 43.8021V43.7945H112.624C111.769 43.7945 111.082 43.103 111.082 42.2519C111.082 41.4007 111.777 40.7168 112.632 40.7168Z" fill="#E5E7EB"/>
<path d="M111.068 43.1404H112.442C113.8 43.1404 115.113 42.5857 116.151 41.575" stroke="#514171" stroke-width="0.295091" stroke-miterlimit="10"/>
<path d="M104.946 53.932L112.25 53.9168V44.2201H104.946V53.932Z" fill="#26114D"/>
<path d="M102.42 60.4898H116.425L114.128 53.1565L105.213 53.1337L102.42 60.4898Z" fill="#6254B8"/>
<path d="M109.663 60.0874C106.953 60.0874 104.756 57.8997 104.756 55.2011C104.756 52.5024 106.953 50.3147 109.663 50.3147C112.374 50.3147 114.571 52.5024 114.571 55.2011C114.571 57.8997 112.374 60.0874 109.663 60.0874Z" fill="#6254B8"/>
<path d="M113.723 49.2429L102.419 60.5203L104.656 60.5279L114.272 50.9376L113.723 49.2429Z" fill="#514171"/>
<path d="M102.42 60.4899H116.425L115.792 58.4837L103.191 58.4761L102.42 60.4899Z" fill="#26114D"/>
<path d="M105.846 44.3187H113.7V46.7049C113.7 48.6959 112.082 50.307 110.09 50.3146H109.464C107.465 50.3146 105.846 48.7035 105.846 46.7125V44.3187Z" fill="#FDC396"/>
<path d="M110.937 48.5671C110.634 48.5671 110.388 48.3221 110.388 48.0199C110.388 47.7177 110.634 47.4728 110.937 47.4728C111.241 47.4728 111.487 47.7177 111.487 48.0199C111.487 48.3221 111.241 48.5671 110.937 48.5671Z" fill="#FEE1CA"/>
<path d="M106.747 48.5671C106.444 48.5671 106.198 48.3221 106.198 48.0199C106.198 47.7177 106.444 47.4728 106.747 47.4728C107.051 47.4728 107.297 47.7177 107.297 48.0199C107.297 48.3221 107.051 48.5671 106.747 48.5671Z" fill="#FEE1CA"/>
<path d="M107.839 48.5891C107.839 49.1363 108.289 49.5846 108.839 49.5846C109.389 49.5846 109.839 49.1363 109.839 48.5891H107.839Z" fill="white"/>
<path d="M111.518 52.473L114.952 52.4654V44.2201H111.518V52.473Z" fill="#26114D"/>
<path d="M107.709 47.0468C107.709 46.6668 107.396 46.3477 107.014 46.3477C106.64 46.3477 106.335 46.6364 106.312 47.0088V47.0468H107.709Z" fill="#26114D"/>
<path d="M111.083 47.0468C111.083 46.6668 110.77 46.3477 110.388 46.3477C110.014 46.3477 109.709 46.6364 109.686 47.0088V47.0468H111.083Z" fill="#26114D"/>
<path d="M104.389 44.2201H115.311V46.0667H104.389V44.2201Z" fill="#E5E7EB"/>
<path d="M107.709 44.2201H109.563V47.4346H107.709V44.2201Z" fill="#E5E7EB"/>
<path d="M105.74 44.995H107.686V45.3066H105.74V44.995Z" fill="#26114D"/>
<path d="M108.999 44.995H110.945V45.3066H108.999V44.995Z" fill="#26114D"/>
<path d="M118.417 55.847L115.906 53.3469L118.417 50.8467C119.799 52.2146 119.806 54.4412 118.44 55.8242L118.417 55.847Z" fill="#FFC494"/>
<path d="M105.852 49.8838L109.976 49.3015L111.518 60.1177L107.394 60.7L105.852 49.8838Z" fill="#176BA0"/>
<path d="M106.459 49.7985L110.583 49.2162L112.125 60.0323L108 60.6146L106.459 49.7985Z" fill="#1AC9E6"/>
<path d="M102.65 42.0998L107.176 57.1309L103.173 58.2988L98.6477 43.2676L102.65 42.0998Z" fill="#B41D88"/>
<path d="M103.24 41.9278L107.503 57.0519L103.5 58.2197L99.2374 43.0957L103.24 41.9278Z" fill="#DB4CB2"/>
<path d="M111.524 50.8777L115.57 51.84L113.559 60.19L109.513 59.2278L111.524 50.8777Z" fill="#AC8704"/>
<path d="M112.119 51.0201L116.166 51.9823L114.155 60.3323L110.109 59.3701L112.119 51.0201Z" fill="#FFCE1F"/>
<path d="M99.1368 48.7394L101.98 50.858L100.847 52.6522C100.847 52.6522 99.7545 54.1836 98.3129 53.3222C96.8713 52.4609 97.9563 50.3086 99.1368 48.7394Z" fill="#FFC494"/>
<path d="M103.234 49.2026L100.387 47.0796L100.716 46.6416C101.302 45.8631 102.403 45.7059 103.185 46.2891C103.966 46.8723 104.124 47.968 103.539 48.7465L103.234 49.2026Z" fill="#FFC494"/>
<path d="M100.378 47.0921L103.224 49.2152L101.984 50.8635L99.1375 48.7404L100.378 47.0921Z" fill="#26114D"/>
<path d="M114.449 54.8209L116.96 57.3211L116.571 57.7087C115.876 58.3926 114.754 58.3926 114.06 57.7087C113.373 57.0171 113.373 55.9 114.06 55.2085L114.449 54.8209Z" fill="#FFC494"/>
<path d="M115.899 53.3365L118.414 55.8406L116.952 57.2968L114.437 54.7927L115.899 53.3365Z" fill="#26114D"/>
<path d="M104.944 65.9249C104.92 66.5563 104.708 67.1663 104.336 67.6777C103.963 68.1892 103.447 68.5791 102.852 68.7982C102.257 69.0173 101.611 69.0557 100.994 68.9085C100.377 68.7613 99.8178 68.4353 99.387 67.9715C98.9563 67.5077 98.6733 66.9271 98.5738 66.303C98.4744 65.679 98.5629 65.0396 98.8283 64.4657C99.0937 63.8918 99.5239 63.4092 100.065 63.079C100.605 62.7487 101.232 62.5856 101.866 62.6104C102.715 62.6435 103.517 63.0113 104.094 63.6328C104.671 64.2543 104.977 65.0787 104.944 65.9249Z" fill="#09CCA6"/>
<path d="M133.776 66.2326C133.793 66.8266 133.632 67.4121 133.315 67.9151C132.997 68.4181 132.537 68.8159 131.992 69.0583C131.448 69.3007 130.843 69.3767 130.255 69.2768C129.667 69.1769 129.122 68.9055 128.689 68.4969C128.256 68.0883 127.954 67.561 127.822 66.9815C127.69 66.4021 127.733 65.7966 127.946 65.2416C128.159 64.6867 128.533 64.2072 129.02 63.8638C129.507 63.5205 130.085 63.3287 130.681 63.3127C131.48 63.2912 132.255 63.5868 132.835 64.1343C133.416 64.6818 133.754 65.4365 133.776 66.2326Z" fill="#09CCA6"/>
<g clip-path="url(#clip0_1375_139920)">
<path fill-rule="evenodd" clip-rule="evenodd" d="M84.2616 59.2849C87.422 59.2849 90.4555 58.0276 92.6893 55.7938C94.9231 53.56 96.1804 50.5265 96.1804 47.3661C96.1804 44.2057 94.9231 41.1721 92.6893 38.9383C90.4517 36.7045 87.422 35.4473 84.2616 35.4473C81.1012 35.4473 78.0676 36.7045 75.8338 38.9383C73.6 41.1721 72.3428 44.2057 72.3428 47.3661C72.3428 50.5265 73.6 53.56 75.8338 55.7938C78.0676 58.0276 81.1012 59.2849 84.2616 59.2849Z" fill="black"/>
<path fill-rule="evenodd" clip-rule="evenodd" d="M83.6236 43.1444C83.4006 42.9945 83.1391 42.9099 82.87 42.8945C82.6009 42.883 82.3317 42.9406 82.0934 43.0675C81.855 43.1944 81.6551 43.3828 81.5166 43.6173C81.3782 43.848 81.3052 44.1133 81.3052 44.3824L81.3052 50.3418C81.3052 50.611 81.3782 50.8763 81.5166 51.1069C81.6551 51.3376 81.855 51.526 82.0934 51.6568C82.3317 51.7836 82.6009 51.8451 82.87 51.8298C83.1391 51.8182 83.4006 51.7298 83.6236 51.5799L88.0912 48.6002C88.295 48.4656 88.4641 48.281 88.5795 48.0619C88.6948 47.8466 88.7564 47.6044 88.7564 47.3583C88.7564 47.1122 88.6948 46.87 88.5795 46.6547C88.4641 46.4394 88.295 46.2548 88.0912 46.1164L83.6236 43.1367L83.6236 43.1444Z" fill="white"/>
</g>
<defs>
<clipPath id="clip0_1375_139920">
<rect width="24" height="24" fill="white" transform="translate(72.3428 35.4473)"/>
</clipPath>
</defs>
</svg>
