<svg width="195" height="100" viewBox="0 0 195 100" fill="none" xmlns="http://www.w3.org/2000/svg">
<rect x="1" y="1" width="193" height="44" rx="3" fill="#DCE6F9" stroke="#262D34" stroke-width="2"/>
<path d="M9 12C9 10.3431 10.3431 9 12 9H69C70.6569 9 72 10.3431 72 12V34C72 35.6569 70.6569 37 69 37H12C10.3431 37 9 35.6569 9 34V12Z" fill="#DCE6F9" stroke="#262D34" stroke-width="2"/>
<path d="M87.9453 17.3359H89.4297L83.2891 30.4844H81.7969L87.9453 17.3359ZM95.3359 32.4375C95.1328 32.4375 94.9297 32.4271 94.7266 32.4062C94.5234 32.3906 94.3125 32.3646 94.0938 32.3281C93.8802 32.2917 93.6667 32.2474 93.4531 32.1953C93.2448 32.1432 93.026 32.0807 92.7969 32.0078V30.5859C93.0521 30.7057 93.2969 30.8099 93.5312 30.8984C93.7708 30.987 93.9896 31.0599 94.1875 31.1172C94.5938 31.2318 94.987 31.2891 95.3672 31.2891C95.7526 31.2891 96.0807 31.237 96.3516 31.1328C96.6224 31.0286 96.849 30.8672 97.0312 30.6484C97.3854 30.2318 97.5625 29.5651 97.5625 28.6484V27.6094C97.3385 28.0938 97.026 28.4583 96.625 28.7031C96.2292 28.9427 95.75 29.0625 95.1875 29.0625C94.1615 29.0625 93.3438 28.6536 92.7344 27.8359C92.125 27.0182 91.8203 25.9245 91.8203 24.5547C91.8203 23.1849 92.125 22.0885 92.7344 21.2656C93.0417 20.8542 93.3958 20.5469 93.7969 20.3438C94.2031 20.1406 94.6693 20.0391 95.1953 20.0391C95.4661 20.0391 95.7188 20.0677 95.9531 20.125C96.1927 20.1771 96.4115 20.2604 96.6094 20.375C97.0052 20.6042 97.3229 20.9505 97.5625 21.4141L97.7031 20.2812H99V28.4375C99 29.7448 98.6901 30.7396 98.0703 31.4219C97.4557 32.099 96.5443 32.4375 95.3359 32.4375ZM95.5 27.8672C96.1771 27.8672 96.6901 27.5833 97.0391 27.0156C97.388 26.4479 97.5625 25.6276 97.5625 24.5547C97.5625 23.4714 97.388 22.651 97.0391 22.0938C96.8568 21.7969 96.6328 21.5833 96.3672 21.4531C96.1068 21.3229 95.8151 21.2578 95.4922 21.2578C94.7943 21.2578 94.2604 21.5365 93.8906 22.0938C93.5208 22.651 93.3359 23.474 93.3359 24.5625C93.3359 25.6302 93.5234 26.4479 93.8984 27.0156C94.2734 27.5833 94.8073 27.8672 95.5 27.8672ZM105.57 29.2266C104.898 29.2266 104.294 29.125 103.758 28.9219C103.227 28.7135 102.773 28.4089 102.398 28.0078C102.023 27.6068 101.737 27.125 101.539 26.5625C101.346 25.9948 101.25 25.3542 101.25 24.6406C101.25 23.9062 101.349 23.263 101.547 22.7109C101.745 22.1536 102.018 21.6797 102.367 21.2891C102.747 20.8672 103.193 20.5547 103.703 20.3516C104.214 20.1432 104.763 20.0391 105.352 20.0391C105.935 20.0391 106.445 20.1354 106.883 20.3281C107.326 20.5208 107.703 20.7995 108.016 21.1641C108.328 21.5286 108.565 21.9714 108.727 22.4922C108.893 23.0078 108.977 23.599 108.977 24.2656V24.9688H102.75V25.0156C102.75 25.9688 103 26.7057 103.5 27.2266C103.74 27.4766 104.029 27.6693 104.367 27.8047C104.711 27.9401 105.12 28.0078 105.594 28.0078C106.068 28.0078 106.549 27.9349 107.039 27.7891C107.544 27.638 108.078 27.4167 108.641 27.125V28.5547C108.365 28.6693 108.096 28.7682 107.836 28.8516C107.576 28.9349 107.318 29.0052 107.062 29.0625C106.812 29.1198 106.562 29.1615 106.312 29.1875C106.062 29.2135 105.815 29.2266 105.57 29.2266ZM107.539 23.8438C107.529 23.3958 107.469 23.013 107.359 22.6953C107.255 22.3724 107.117 22.112 106.945 21.9141C106.758 21.6953 106.526 21.5312 106.25 21.4219C105.974 21.3125 105.664 21.2578 105.32 21.2578C104.617 21.2578 104.044 21.487 103.602 21.9453C103.154 22.4089 102.888 23.0443 102.805 23.8516L107.539 23.8438ZM116.227 29.0312C115.154 29.0312 114.393 28.8151 113.945 28.3828C113.503 27.9557 113.281 27.2109 113.281 26.1484V21.3672H110.945V20.25H113.281V17.9609L114.719 17.3359V20.25H117.984V21.3672H114.719V26.1484C114.719 26.7891 114.841 27.2396 115.086 27.5C115.326 27.7552 115.753 27.8828 116.367 27.8828H117.984V29.0312H116.227Z" fill="#262D34"/>
<path d="M34.7266 23.3359V27.5C34.5859 27.7083 34.362 27.9427 34.0547 28.2031C33.7474 28.4583 33.3229 28.6823 32.7812 28.875C32.2448 29.0625 31.5521 29.1562 30.7031 29.1562C30.0104 29.1562 29.3724 29.0365 28.7891 28.7969C28.2109 28.5521 27.7083 28.1979 27.2812 27.7344C26.8594 27.2656 26.5312 26.6979 26.2969 26.0312C26.0677 25.3594 25.9531 24.599 25.9531 23.75V22.8672C25.9531 22.0182 26.0521 21.2604 26.25 20.5938C26.4531 19.9271 26.75 19.362 27.1406 18.8984C27.5312 18.4297 28.0104 18.0755 28.5781 17.8359C29.1458 17.5911 29.7969 17.4688 30.5312 17.4688C31.401 17.4688 32.1276 17.6198 32.7109 17.9219C33.2995 18.2188 33.7578 18.6302 34.0859 19.1562C34.4193 19.6823 34.6328 20.2812 34.7266 20.9531H33.2188C33.151 20.5417 33.0156 20.1667 32.8125 19.8281C32.6146 19.4896 32.3307 19.2188 31.9609 19.0156C31.5911 18.8073 31.1146 18.7031 30.5312 18.7031C30.0052 18.7031 29.5495 18.7995 29.1641 18.9922C28.7786 19.1849 28.4609 19.4609 28.2109 19.8203C27.9609 20.1797 27.7734 20.6146 27.6484 21.125C27.5286 21.6354 27.4688 22.2109 27.4688 22.8516V23.75C27.4688 24.4062 27.5443 24.9922 27.6953 25.5078C27.8516 26.0234 28.0729 26.4635 28.3594 26.8281C28.6458 27.1875 28.987 27.4609 29.3828 27.6484C29.7839 27.8359 30.2266 27.9297 30.7109 27.9297C31.2474 27.9297 31.6823 27.8854 32.0156 27.7969C32.349 27.7031 32.6094 27.5938 32.7969 27.4688C32.9844 27.3385 33.1276 27.2161 33.2266 27.1016V24.5547H30.5938V23.3359H34.7266ZM44.4531 27.7734V29H38.4297V27.7734H44.4531ZM38.7344 17.625V29H37.2266V17.625H38.7344ZM43.6562 22.5156V23.7422H38.4297V22.5156H43.6562ZM44.375 17.625V18.8594H38.4297V17.625H44.375ZM50.6797 17.625V29H49.1953V17.625H50.6797ZM54.3359 17.625V18.8594H45.5469V17.625H54.3359Z" fill="#262D34"/>
<rect x="1" y="55" width="193" height="44" rx="3" fill="#DCE6F9" stroke="#262D34" stroke-width="2"/>
<path d="M9 66C9 64.3431 10.3431 63 12 63H69C70.6569 63 72 64.3431 72 66V88C72 89.6569 70.6569 91 69 91H12C10.3431 91 9 89.6569 9 88V66Z" fill="#DCE6F9" stroke="#262D34" stroke-width="2"/>
<path d="M87.9453 71.3359H89.4297L83.2891 84.4844H81.7969L87.9453 71.3359ZM92.125 74.25H93.4297L93.5703 75.3672C93.8151 74.9297 94.1354 74.599 94.5312 74.375C94.9271 74.151 95.388 74.0391 95.9141 74.0391C96.4349 74.0391 96.9036 74.1406 97.3203 74.3438C97.737 74.5469 98.0964 74.8542 98.3984 75.2656C98.7005 75.6771 98.9245 76.1667 99.0703 76.7344C99.2214 77.2969 99.2969 77.9349 99.2969 78.6484C99.2969 80.0807 98.9948 81.2005 98.3906 82.0078C97.7865 82.8203 96.9583 83.2266 95.9062 83.2266C95.6094 83.2266 95.3516 83.1953 95.1328 83.1328C94.9141 83.0755 94.7083 82.9922 94.5156 82.8828C94.1094 82.6484 93.7943 82.3203 93.5703 81.8984V86.3281H92.125V74.25ZM95.6953 82.0078C96.3932 82.0078 96.9167 81.724 97.2656 81.1562C97.6146 80.5885 97.7891 79.7474 97.7891 78.6328C97.7891 77.5182 97.6146 76.6771 97.2656 76.1094C96.9167 75.5417 96.3932 75.2578 95.6953 75.2578C94.9974 75.2578 94.4688 75.5417 94.1094 76.1094C93.75 76.6823 93.5703 77.5234 93.5703 78.6328C93.5703 79.7422 93.75 80.5807 94.1094 81.1484C94.4688 81.7214 94.9974 82.0078 95.6953 82.0078ZM105.094 83.2266C104.495 83.2266 103.961 83.1302 103.492 82.9375C103.029 82.7396 102.635 82.4453 102.312 82.0547C101.984 81.6484 101.742 81.1589 101.586 80.5859C101.43 80.0078 101.352 79.3542 101.352 78.625C101.352 77.1458 101.672 76.0104 102.312 75.2188C102.953 74.4323 103.88 74.0391 105.094 74.0391C105.719 74.0391 106.26 74.1406 106.719 74.3438C107.182 74.5417 107.57 74.8333 107.883 75.2188C108.523 76.0104 108.844 77.1432 108.844 78.6172C108.844 79.362 108.763 80.0234 108.602 80.6016C108.445 81.1797 108.206 81.6641 107.883 82.0547C107.57 82.4401 107.18 82.7318 106.711 82.9297C106.247 83.1276 105.708 83.2266 105.094 83.2266ZM105.094 82.0078C105.828 82.0078 106.383 81.7214 106.758 81.1484C107.133 80.5807 107.32 79.7422 107.32 78.6328C107.32 77.5234 107.133 76.6823 106.758 76.1094C106.383 75.5417 105.828 75.2578 105.094 75.2578C104.365 75.2578 103.812 75.5417 103.438 76.1094C103.062 76.6823 102.875 77.5234 102.875 78.6328C102.875 79.7422 103.062 80.5807 103.438 81.1484C103.812 81.7214 104.365 82.0078 105.094 82.0078ZM114.531 83.2266C114.302 83.2266 114.065 83.2135 113.82 83.1875C113.581 83.1667 113.349 83.1354 113.125 83.0938C112.922 83.0521 112.682 82.9948 112.406 82.9219C112.135 82.849 111.862 82.7682 111.586 82.6797V81.1953C111.919 81.362 112.203 81.4922 112.438 81.5859C112.672 81.6745 112.901 81.75 113.125 81.8125C113.365 81.8802 113.596 81.9323 113.82 81.9688C114.044 82.0052 114.276 82.0234 114.516 82.0234C115.146 82.0234 115.638 81.8932 115.992 81.6328C116.174 81.4974 116.307 81.3385 116.391 81.1562C116.474 80.974 116.516 80.7891 116.516 80.6016C116.516 80.237 116.362 79.9427 116.055 79.7188C115.747 79.4896 115.263 79.3073 114.602 79.1719L114.539 79.1562L114 79.0469C113.609 78.9688 113.26 78.8646 112.953 78.7344C112.651 78.6042 112.396 78.4349 112.188 78.2266C111.807 77.8464 111.617 77.3229 111.617 76.6562C111.617 76.2344 111.688 75.862 111.828 75.5391C111.974 75.2161 112.188 74.9427 112.469 74.7188C112.766 74.4792 113.12 74.3073 113.531 74.2031C113.943 74.0938 114.404 74.0391 114.914 74.0391C115.138 74.0391 115.362 74.0495 115.586 74.0703C115.81 74.0911 116.031 74.1224 116.25 74.1641C116.448 74.2057 116.654 74.2604 116.867 74.3281C117.086 74.3906 117.305 74.4661 117.523 74.5547V75.9609C117.107 75.7214 116.693 75.5417 116.281 75.4219C116.073 75.3646 115.862 75.3203 115.648 75.2891C115.44 75.2578 115.216 75.2422 114.977 75.2422C114.674 75.2422 114.401 75.2682 114.156 75.3203C113.917 75.3724 113.716 75.4505 113.555 75.5547C113.232 75.7682 113.07 76.0938 113.07 76.5312C113.07 76.7135 113.099 76.8802 113.156 77.0312C113.219 77.1823 113.31 77.3047 113.43 77.3984C113.549 77.4922 113.747 77.5859 114.023 77.6797C114.305 77.7682 114.703 77.862 115.219 77.9609L115.797 78.0703C116.172 78.1432 116.492 78.2474 116.758 78.3828C117.023 78.5182 117.245 78.6849 117.422 78.8828C117.786 79.2839 117.969 79.8151 117.969 80.4766C117.969 80.9245 117.888 81.3151 117.727 81.6484C117.57 81.9766 117.344 82.2578 117.047 82.4922C116.729 82.7422 116.357 82.9271 115.93 83.0469C115.508 83.1667 115.042 83.2266 114.531 83.2266ZM125.867 83.0312C124.794 83.0312 124.034 82.8151 123.586 82.3828C123.143 81.9557 122.922 81.2109 122.922 80.1484V75.3672H120.586V74.25H122.922V71.9609L124.359 71.3359V74.25H127.625V75.3672H124.359V80.1484C124.359 80.7891 124.482 81.2396 124.727 81.5C124.966 81.7552 125.393 81.8828 126.008 81.8828H127.625V83.0312H125.867Z" fill="#262D34"/>
<path d="M25.5156 78.5391H22.4766V77.3125H25.5156C26.1042 77.3125 26.5807 77.2188 26.9453 77.0312C27.3099 76.8438 27.5755 76.5833 27.7422 76.25C27.9141 75.9167 28 75.5365 28 75.1094C28 74.7188 27.9141 74.3516 27.7422 74.0078C27.5755 73.6641 27.3099 73.388 26.9453 73.1797C26.5807 72.9661 26.1042 72.8594 25.5156 72.8594H22.8281V83H21.3203V71.625H25.5156C26.375 71.625 27.1016 71.7734 27.6953 72.0703C28.2891 72.3672 28.7396 72.7786 29.0469 73.3047C29.3542 73.8255 29.5078 74.4219 29.5078 75.0938C29.5078 75.8229 29.3542 76.4453 29.0469 76.9609C28.7396 77.4766 28.2891 77.8698 27.6953 78.1406C27.1016 78.4062 26.375 78.5391 25.5156 78.5391ZM40.1719 76.9531V77.6719C40.1719 78.526 40.0651 79.2917 39.8516 79.9688C39.638 80.6458 39.3307 81.2214 38.9297 81.6953C38.5286 82.1693 38.0469 82.5312 37.4844 82.7812C36.9271 83.0312 36.3021 83.1562 35.6094 83.1562C34.9375 83.1562 34.3203 83.0312 33.7578 82.7812C33.2005 82.5312 32.7161 82.1693 32.3047 81.6953C31.8984 81.2214 31.5833 80.6458 31.3594 79.9688C31.1354 79.2917 31.0234 78.526 31.0234 77.6719V76.9531C31.0234 76.099 31.1328 75.3359 31.3516 74.6641C31.5755 73.987 31.8906 73.4115 32.2969 72.9375C32.7031 72.4583 33.1849 72.0938 33.7422 71.8438C34.3047 71.5938 34.9219 71.4688 35.5938 71.4688C36.2865 71.4688 36.9115 71.5938 37.4688 71.8438C38.0312 72.0938 38.513 72.4583 38.9141 72.9375C39.3203 73.4115 39.6302 73.987 39.8438 74.6641C40.0625 75.3359 40.1719 76.099 40.1719 76.9531ZM38.6797 77.6719V76.9375C38.6797 76.2604 38.6094 75.6615 38.4688 75.1406C38.3333 74.6198 38.1328 74.1823 37.8672 73.8281C37.6016 73.474 37.276 73.2057 36.8906 73.0234C36.5104 72.8411 36.0781 72.75 35.5938 72.75C35.125 72.75 34.7005 72.8411 34.3203 73.0234C33.9453 73.2057 33.6224 73.474 33.3516 73.8281C33.0859 74.1823 32.8802 74.6198 32.7344 75.1406C32.5885 75.6615 32.5156 76.2604 32.5156 76.9375V77.6719C32.5156 78.3542 32.5885 78.9583 32.7344 79.4844C32.8802 80.0052 33.0885 80.4453 33.3594 80.8047C33.6354 81.1589 33.9609 81.4271 34.3359 81.6094C34.7161 81.7917 35.1406 81.8828 35.6094 81.8828C36.099 81.8828 36.5339 81.7917 36.9141 81.6094C37.2943 81.4271 37.6146 81.1589 37.875 80.8047C38.1406 80.4453 38.3411 80.0052 38.4766 79.4844C38.612 78.9583 38.6797 78.3542 38.6797 77.6719ZM48.4922 80.125C48.4922 79.8594 48.4505 79.625 48.3672 79.4219C48.2891 79.2135 48.1484 79.026 47.9453 78.8594C47.7474 78.6927 47.4714 78.5339 47.1172 78.3828C46.7682 78.2318 46.3255 78.0781 45.7891 77.9219C45.2266 77.7552 44.7188 77.5703 44.2656 77.3672C43.8125 77.1589 43.4245 76.9219 43.1016 76.6562C42.7786 76.3906 42.5312 76.0859 42.3594 75.7422C42.1875 75.3984 42.1016 75.0052 42.1016 74.5625C42.1016 74.1198 42.1927 73.7109 42.375 73.3359C42.5573 72.9609 42.8177 72.6354 43.1562 72.3594C43.5 72.0781 43.9089 71.8594 44.3828 71.7031C44.8568 71.5469 45.3854 71.4688 45.9688 71.4688C46.8229 71.4688 47.5469 71.6328 48.1406 71.9609C48.7396 72.2839 49.1953 72.7083 49.5078 73.2344C49.8203 73.7552 49.9766 74.3125 49.9766 74.9062H48.4766C48.4766 74.4792 48.3854 74.1016 48.2031 73.7734C48.0208 73.4401 47.7448 73.1797 47.375 72.9922C47.0052 72.7995 46.5365 72.7031 45.9688 72.7031C45.4323 72.7031 44.9896 72.7839 44.6406 72.9453C44.2917 73.1068 44.0312 73.3255 43.8594 73.6016C43.6927 73.8776 43.6094 74.1927 43.6094 74.5469C43.6094 74.7865 43.6589 75.0052 43.7578 75.2031C43.862 75.3958 44.0208 75.5755 44.2344 75.7422C44.4531 75.9089 44.7292 76.0625 45.0625 76.2031C45.401 76.3438 45.8047 76.4792 46.2734 76.6094C46.9193 76.7917 47.4766 76.9948 47.9453 77.2188C48.4141 77.4427 48.7995 77.6953 49.1016 77.9766C49.4089 78.2526 49.6354 78.5677 49.7812 78.9219C49.9323 79.2708 50.0078 79.6667 50.0078 80.1094C50.0078 80.5729 49.9141 80.9922 49.7266 81.3672C49.5391 81.7422 49.2708 82.0625 48.9219 82.3281C48.5729 82.5938 48.1536 82.7995 47.6641 82.9453C47.1797 83.0859 46.638 83.1562 46.0391 83.1562C45.513 83.1562 44.9948 83.0833 44.4844 82.9375C43.9792 82.7917 43.5182 82.5729 43.1016 82.2812C42.6901 81.9896 42.3594 81.6302 42.1094 81.2031C41.8646 80.7708 41.7422 80.2708 41.7422 79.7031H43.2422C43.2422 80.0938 43.3177 80.4297 43.4688 80.7109C43.6198 80.987 43.8255 81.2161 44.0859 81.3984C44.3516 81.5807 44.651 81.7161 44.9844 81.8047C45.3229 81.888 45.6745 81.9297 46.0391 81.9297C46.5651 81.9297 47.0104 81.8568 47.375 81.7109C47.7396 81.5651 48.0156 81.3568 48.2031 81.0859C48.3958 80.8151 48.4922 80.4948 48.4922 80.125ZM56.1328 71.625V83H54.6484V71.625H56.1328ZM59.7891 71.625V72.8594H51V71.625H59.7891Z" fill="#262D34"/>
</svg>
