<?xml version="1.0" encoding="UTF-8"?>
<svg width="33px" height="50px" viewBox="0 0 33 50" version="1.1" xmlns="http://www.w3.org/2000/svg" xmlns:xlink="http://www.w3.org/1999/xlink">
    <!-- Generator: Sketch 51.3 (57544) - http://www.bohemiancoding.com/sketch -->
    <title>Load-Data-color</title>
    <desc>Created with Sketch.</desc>
    <defs>
        <polygon id="path-1" points="0 0.221242675 26.1267523 0.221242675 26.1267523 36.6634203 0 36.6634203"></polygon>
        <polygon id="path-3" points="0 0.0289735954 26.1267523 0.0289735954 26.1267523 7.08059126 0 7.08059126"></polygon>
        <polygon id="path-5" points="0 0.371702705 26.1267523 0.371702705 26.1267523 7.42219445 0 7.42219445"></polygon>
        <polygon id="path-7" points="0 0.115218831 26.1267523 0.115218831 26.1267523 13.1182081 0 13.1182081"></polygon>
        <polygon id="path-9" points="0.0369138239 0.112141325 16.4224884 0.112141325 16.4224884 16.1380674 0.0369138239 16.1380674"></polygon>
    </defs>
    <g id="Page-1-Copy" stroke="none" stroke-width="1" fill="none" fill-rule="evenodd">
        <g id="2" transform="translate(-179.000000, -311.000000)">
            <g id="Load-Data-color" transform="translate(179.000000, 311.000000)">
                <path d="M13.1940299,1 C24.744505,1 26,6.64301746 26,6.64301746 L26,33.3533001 C26,33.3533001 16.2340896,35.9611266 17.2364478,41.993136 C17.2364478,41.993136 0.388059701,42.382128 0.194029851,37.3034123 C0,32.2246966 1.64355469,4.25878906 0,7.39541979 C0,7.39541979 1.64355469,1 13.1940299,1 Z" id="Fill-1" fill="#B5CFF9"></path>
                <g id="Group">
                    <g id="Group-20">
                        <g id="Group-3" transform="translate(0.000000, 5.889671)">
                            <mask id="mask-2" fill="white">
                                <use xlink:href="#path-1"></use>
                            </mask>
                            <g id="Clip-2"></g>
                            <path d="M13.063357,36.6634203 C5.73812442,36.6634203 -3.8372093e-05,33.8077197 -3.8372093e-05,30.1616254 L-3.8372093e-05,0.771065436 C-3.8372093e-05,0.46781848 0.251682558,0.22161798 0.56172907,0.22161798 C0.871775581,0.22161798 1.12349651,0.46781848 1.12349651,0.771065436 L1.12349651,30.1616254 C1.12349651,33.0901353 6.59113605,35.5645254 13.063357,35.5645254 C19.5355779,35.5645254 25.0032174,33.0901353 25.0032174,30.1616254 L25.0032174,0.770690131 C25.0032174,0.467443174 25.2549384,0.221242675 25.5649849,0.221242675 C25.8754151,0.221242675 26.1267523,0.467443174 26.1267523,0.770690131 L26.1267523,30.1616254 C26.1267523,33.8077197 20.3889733,36.6634203 13.063357,36.6634203" id="Fill-1" fill="#4688F1" mask="url(#mask-2)"></path>
                        </g>
                        <g id="Group-6" transform="translate(0.000000, 16.022924)">
                            <mask id="mask-4" fill="white">
                                <use xlink:href="#path-3"></use>
                            </mask>
                            <g id="Clip-5"></g>
                            <path d="M13.063357,7.08059126 C5.73812442,7.08059126 -3.8372093e-05,4.22451534 -3.8372093e-05,0.578421052 C-3.8372093e-05,0.275174095 0.251682558,0.0289735954 0.56172907,0.0289735954 C0.871775581,0.0289735954 1.12349651,0.275174095 1.12349651,0.578421052 C1.12349651,3.50730626 6.59113605,5.98132104 13.063357,5.98132104 C19.5355779,5.98132104 25.0032174,3.50730626 25.0032174,0.578421052 C25.0032174,0.275174095 25.2549384,0.0289735954 25.5649849,0.0289735954 C25.8754151,0.0289735954 26.1267523,0.275174095 26.1267523,0.578421052 C26.1267523,4.22451534 20.3889733,7.08059126 13.063357,7.08059126" id="Fill-4" fill="#4688F1" mask="url(#mask-4)"></path>
                        </g>
                        <g id="Group-9" transform="translate(0.000000, 25.405565)">
                            <mask id="mask-6" fill="white">
                                <use xlink:href="#path-5"></use>
                            </mask>
                            <g id="Clip-8"></g>
                            <path d="M13.063357,7.42219445 C5.73812442,7.42219445 -3.8372093e-05,4.56686914 -3.8372093e-05,0.921150162 C-3.8372093e-05,0.617903205 0.251682558,0.371702705 0.56172907,0.371702705 C0.871775581,0.371702705 1.12349651,0.617903205 1.12349651,0.921150162 C1.12349651,3.84966007 6.59113605,6.32329954 13.063357,6.32329954 C19.5355779,6.32329954 25.0032174,3.84966007 25.0032174,0.921150162 C25.0032174,0.617903205 25.2549384,0.371702705 25.5649849,0.371702705 C25.8754151,0.371702705 26.1267523,0.617903205 26.1267523,0.921150162 C26.1267523,4.56686914 20.3889733,7.42219445 13.063357,7.42219445" id="Fill-7" fill="#4688F1" mask="url(#mask-6)"></path>
                        </g>
                        <g id="Group-12" transform="translate(0.000000, 0.260087)">
                            <mask id="mask-8" fill="white">
                                <use xlink:href="#path-7"></use>
                            </mask>
                            <g id="Clip-11"></g>
                            <path d="M13.063357,1.21388856 C6.59113605,1.21388856 1.12349651,3.68790334 1.12349651,6.61678855 C1.12349651,9.54529845 6.59113605,12.0193132 13.063357,12.0193132 C19.5355779,12.0193132 25.0032174,9.54529845 25.0032174,6.61678855 C25.0032174,3.68790334 19.5355779,1.21388856 13.063357,1.21388856 M13.063357,13.1182081 C5.73812442,13.1182081 -3.8372093e-05,10.2625075 -3.8372093e-05,6.61678855 C-3.8372093e-05,2.97069426 5.73812442,0.114993648 13.063357,0.114993648 C20.3889733,0.114993648 26.1267523,2.97069426 26.1267523,6.61678855 C26.1267523,10.2625075 20.3889733,13.1182081 13.063357,13.1182081" id="Fill-10" fill="#4688F1" mask="url(#mask-8)"></path>
                        </g>
                        <path d="M32.3787174,41.4095729 C32.3802523,45.5413127 28.9566942,48.8920415 24.7323105,48.8931674 C20.507543,48.8942933 17.08245,45.5458164 17.0809151,41.4144519 C17.079764,37.2827121 20.5033221,33.9319834 24.7277058,33.9308574 C28.9517058,33.9293562 32.3771826,37.2778331 32.3787174,41.4095729" id="Fill-13" fill="#FFFFFF"></path>
                        <g id="Group-17" transform="translate(16.500000, 33.286983)">
                            <mask id="mask-10" fill="white">
                                <use xlink:href="#path-9"></use>
                            </mask>
                            <g id="Clip-16"></g>
                            <path d="M8.23012326,1.17575751 L8.22782093,1.17575751 C6.32993721,1.17650812 4.54563488,1.89972209 3.20414651,3.21291652 C1.86265814,4.52573565 1.12437907,6.27090687 1.12476279,8.12716856 C1.12591395,11.9579132 4.31348372,15.074076 8.23012326,15.0744513 L8.23242558,15.0744513 C12.1502163,15.07295 15.3362512,11.9545355 15.3351,8.1230402 C15.3335651,4.29192023 12.1463791,1.17575751 8.23012326,1.17575751 Z M8.23050698,16.1380674 C3.71334419,16.1380674 0.0384488372,12.5452666 0.0369139535,8.12716856 C0.0365302326,5.98717581 0.888006977,3.97478697 2.43478605,2.46080402 C3.98194884,0.946821067 6.03907674,0.112516631 8.22743721,0.112141325 L8.23050698,0.112141325 C12.7465186,0.112141325 16.4210302,3.70456691 16.4225651,8.12228959 C16.4233326,10.2626577 15.5718558,12.2750465 14.0250767,13.7890294 C12.477914,15.3033877 10.420786,16.1373168 8.2328093,16.1380674 L8.23050698,16.1380674 Z" id="Fill-15" fill="#4688F1" mask="url(#mask-10)"></path>
                        </g>
                        <path d="M27.4885012,40.7348109 L25.72185,40.7348109 L27.3645593,36.8747924 C27.447443,36.6725027 27.1888151,36.500988 27.0234314,36.6522362 L21.8263151,41.7353757 C21.6923965,41.8667327 21.785257,42.0787804 21.9709779,42.0787804 L23.7380128,42.0787804 L22.0949198,45.9496828 C22.0124198,46.1515972 22.270664,46.3234872 22.4360477,46.1714884 L27.633164,41.0883488 C27.7674663,40.9573672 27.6742221,40.7348109 27.4885012,40.7348109" id="Fill-18" fill="#4688F1"></path>
                    </g>
                </g>
            </g>
        </g>
    </g>
</svg>