<?xml version="1.0" encoding="UTF-8"?>
<svg width="78px" height="78px" viewBox="0 0 78 78" version="1.1" xmlns="http://www.w3.org/2000/svg" xmlns:xlink="http://www.w3.org/1999/xlink">
    <!-- Generator: Sketch 51.3 (57544) - http://www.bohemiancoding.com/sketch -->
    <title>Data-transformations-color-big</title>
    <desc>Created with Sketch.</desc>
    <defs>
        <polygon id="path-1" points="0 0 78 0 78 78 0 78"></polygon>
    </defs>
    <g id="sign-in-river-types" stroke="none" stroke-width="1" fill="none" fill-rule="evenodd">
        <g id="5" transform="translate(-521.000000, -382.000000)">
            <g id="Data-transformations-color-big" transform="translate(521.000000, 382.000000)">
                <path d="M24.0487857,8.2100034 L25.6376316,1.6600501 L32.9045941,1.6600501 L34.790676,2.77778957 L34.790676,8.2100034 L40.698136,10.1681174 L45.5226308,8.2100034 L47.3755944,8.2100034 L52.1189496,12.1833602 L49.359375,18.6637653 L52.1189496,24.2474949 L57.3060887,25.685653 L58.4900645,33.2581309 L52.1189496,35.4845024 L49.359375,40.8985012 L52.1189496,45.3967816 L51.0450917,49.4380307 L47.3755944,52.2265837 L41.2694251,49.4380307 L36.3811778,51.0657906 L34.790676,57.1024117 C30.6458977,57.9908233 27.5948829,57.9908233 25.6376316,57.1024117 C23.6803803,56.214 23.150765,54.588724 24.0487857,52.2265837 L19.1025815,49.4380307 L12.8034986,52.2265837 L7.67680027,46.9566491 L10.5423531,40.8985012 L7.67680027,35.4845024 L1.69565217,33.2581309 L1.69565217,25.685653 L7.67680027,24.2474949 L10.5423531,18.6637653 L6.57065217,12.1833602 L12.8034986,8.2100034 L19.1025815,10.1681174 L24.0487857,8.2100034 Z" id="Path-2" fill="#B5CFF9" fill-rule="nonzero"></path>
                <path d="M59.2211489,37.7584812 L53.9421068,35.6252548 L51.5298595,35.6252548 L49.8424868,40.125605 L51.5298595,44.5837296 L52.1094281,47.6682766 L48.6725862,50.8087105 L47.2120733,52.4915294 L41.8527195,49.8424868 L36.3708284,50.8087105 L34.864364,56.4955206 L39.4578592,62.2435993 L37.7133577,68.1353282 L40.5569697,71.7725352 L45.4414912,69.9034265 L48.6725862,70.9164296 L50.5197542,73.3183275 L51.5298595,75.9437734 L54.5552076,76.5891644 L57.4737496,75.9437734 L58.1100331,73.3183275 L59.2211489,70.9164296 L62.3019701,69.9034265 L64.3081055,69.9034265 L65.9184783,71.7725352 L68.3659137,71.7725352 C69.5231191,71.8771336 70.1017217,71.591765 70.1017217,70.9164296 C70.1017217,70.2410942 70.5913192,69.3140604 71.5705142,68.1353282 L71.5705142,65.9934082 L70.1017217,63.2023713 L70.1017217,61.0144998 L71.5705142,58.7657736 L74.731233,57.889797 L76.522514,56.1072096 L76.522514,52.4915294 L75.5206883,50.8087105 L72.6427161,49.8424868 L70.1017217,47.6682766 L70.1017217,45.3239215 L71.5705142,42.2513799 L70.1017217,37.7584812 C68.435324,37.7584812 67.6021251,37.7584812 67.6021251,37.7584812 C67.6021251,37.7584812 66.5041185,37.7584812 64.3081055,37.7584812 L62.3019701,39.5373429 L59.2211489,37.7584812 Z" id="Path-3" fill="#B5CFF9" fill-rule="nonzero"></path>
                <circle id="Oval-2" fill="#FFFFFF" fill-rule="nonzero" cx="29.673913" cy="29.673913" r="9.32608696"></circle>
                <circle id="Oval-2" fill="#FFFFFF" fill-rule="nonzero" cx="54.2608696" cy="54.2608696" r="6.7826087"></circle>
                <g id="Data-ransformations-icon">
                    <mask id="mask-2" fill="white">
                        <use xlink:href="#path-1"></use>
                    </mask>
                    <g id="Clip-2"></g>
                    <path d="M21.1860007,29.673197 C21.1818886,34.3883672 25.0037561,38.2144098 29.7229031,38.2193403 C34.4420501,38.223449 38.2713196,34.4048021 38.2762542,29.6896319 C38.2811888,24.9744616 34.4584988,21.1475973 29.7393518,21.1434885 L29.7229031,21.1434885 C25.0119805,21.1525277 21.1950476,24.9654224 21.1860007,29.673197 Z M18.7186879,29.673197 C18.7186879,23.5955743 23.6492014,18.6700375 29.7311275,18.6700375 C35.8130536,18.6700375 40.743567,23.5955743 40.743567,29.673197 C40.743567,35.7499979 35.8130536,40.6763565 29.7311275,40.6763565 L29.7229031,40.6763565 C23.6459116,40.6673173 18.7236226,35.7450674 18.7186879,29.673197 Z M9.17018733,47.6611852 L11.7279683,50.2168107 C12.4270402,50.9062544 13.5175925,51.0032202 14.3268711,50.4468992 L17.8798016,47.9816655 C18.2803287,47.6743331 18.8272497,47.642285 19.2614967,47.8994911 C20.8389321,48.8108058 22.5282189,49.5117539 24.2865905,49.9867222 C24.7504453,50.1108057 25.0999813,50.4912734 25.1830475,50.9645982 L25.9314657,55.2294525 C26.1033552,56.2097937 26.9578679,56.9255332 27.9546622,56.9222462 L31.5733877,56.9222462 C32.5701821,56.9255332 33.4246947,56.2097937 33.5965842,55.2294525 L34.3450024,50.9645982 C34.4280686,50.4912734 34.7776046,50.1108057 35.2414594,49.9867222 C37.0006535,49.5117539 38.6899403,48.8108058 40.2665532,47.8994911 C40.6761271,47.684194 41.1712345,47.716242 41.5495558,47.9816655 L45.1024863,50.4468992 C45.9166995,51.0163682 47.0237005,50.9194023 47.7260623,50.2168107 L50.2838432,47.6611852 C50.9870274,46.9594153 51.0848974,45.8533471 50.5141257,45.03982 L48.0468129,41.4898836 C47.7721188,41.0970897 47.749913,40.5810341 47.9892423,40.1668749 C48.8988583,38.5907688 49.5979303,36.9029055 50.0700094,35.1460157 C50.1941975,34.6825517 50.5758086,34.3324886 51.0487102,34.2503141 L55.3171614,33.5025266 C56.2991519,33.330782 57.0146726,32.4769894 57.0113828,31.481035 L57.0113828,27.865359 C57.0146726,26.8694046 56.2991519,26.015612 55.3171614,25.8438674 L51.0487102,25.0960798 C50.5758086,25.0130836 50.1941975,24.6638422 50.0700094,24.2003783 C49.5872386,22.4558146 48.8791198,20.7819209 47.9645692,19.2206063 C47.7178379,18.7924774 47.749913,18.2591652 48.0468129,17.8647278 L50.5141257,14.290139 C51.0848974,13.4766119 50.9870274,12.3705437 50.2838432,11.6687739 L47.7260623,9.10493089 C47.0237005,8.40151756 45.9166995,8.3045517 45.1024863,8.87484242 L41.5495558,11.3400761 C41.1572531,11.6145387 40.6407623,11.6367259 40.2254313,11.3975982 C38.6455287,10.5027184 36.9570643,9.81820516 35.2003375,9.35967171 C34.7364827,9.23558828 34.3869467,8.85429881 34.3038805,8.38179569 L33.5554623,4.11694148 C33.3835729,3.13577849 32.5290602,2.42086073 31.5322658,2.42414771 L27.9135404,2.42414771 C26.916746,2.42086073 26.0630557,3.13577849 25.8903438,4.11694148 L25.1419256,8.38179569 C25.0605043,8.85183357 24.7142581,9.2323013 24.253693,9.35967171 C22.5060131,9.83957052 20.8282404,10.5438056 19.2614967,11.4551203 C18.8461658,11.694248 18.3304974,11.6720609 17.9373722,11.3975982 L14.3844417,8.93236454 C13.5702285,8.36207382 12.4640499,8.45986142 11.7608658,9.16245301 L9.20308483,11.726296 C8.52046162,12.411631 8.41025498,13.4807206 8.9399048,14.290139 L11.4072176,17.8400755 C11.7148093,18.2394433 11.7477068,18.7867252 11.4894614,19.2206063 C10.5773781,20.7852079 9.87172661,22.4623885 9.39224548,24.2085957 C9.2680574,24.6720596 8.88644635,25.0213011 8.41354473,25.1042973 L4.14509356,25.8520848 C3.16310306,26.0238294 2.44758234,26.877622 2.45087209,27.8735764 L2.45087209,31.4892524 C2.44758234,32.4852068 3.16310306,33.3381777 4.14509356,33.510744 L8.41354473,34.2585316 C8.88397904,34.3398843 9.26559009,34.6858387 9.39224548,35.1460157 C9.86350223,36.9029055 10.5633966,38.5907688 11.4730126,40.1668749 C11.712342,40.5810341 11.6901362,41.0970897 11.415442,41.4898836 L8.94812917,45.03982 C8.37324529,45.8492384 8.46371343,46.9553066 9.16196295,47.6611852 L9.17018733,47.6611852 Z M6.92493267,43.618202 L8.9728023,40.7010088 C8.26468352,39.3738914 7.68568745,37.9810344 7.24568333,36.5429814 L3.73387476,35.926673 C1.57168629,35.550314 -0.0041041584,33.6734494 8.02962745e-06,31.481035 L8.02962745e-06,27.865359 C-0.000814407978,25.6737662 1.57415361,23.7985452 3.73387476,23.4197209 L7.24568333,22.8034125 C7.68568745,21.3653596 8.26468352,19.9725026 8.9728023,18.6453851 L6.92493267,15.7364094 C5.68140701,13.949115 5.89277347,11.5290773 7.42661961,9.98419756 L9.99262493,7.42035457 C11.5379852,5.88369226 13.9617088,5.67250391 15.7496882,6.91909039 L18.6693417,8.96523432 C19.9984008,8.25771226 21.3916101,7.6792041 22.830876,7.23957077 L23.4477042,3.73072154 C23.8268479,1.57199861 25.7044729,-0.00164220297 27.8970916,1.28612581e-06 L31.5158171,1.28612581e-06 C33.7092582,-0.00164220297 35.5860608,1.57199861 35.9652045,3.73072154 L36.5820327,7.23957077 C38.022121,7.6792041 39.4153303,8.25689052 40.743567,8.96523432 L43.6796692,6.89443806 C45.4676486,5.64867332 47.8913722,5.85986167 49.4367325,7.39570223 L51.9945134,9.95954523 C53.5324718,11.5036032 53.7430158,13.9252844 52.4962004,15.7117571 L50.5141257,18.6536026 C51.2222445,19.98072 51.8012406,21.3727553 52.2412447,22.81163 L55.7530533,23.4279384 C57.9135969,23.8067626 59.4877425,25.6819837 59.48692,27.8735764 L59.48692,31.4892524 C59.4918546,33.6816669 57.9152418,35.5585314 55.7530533,35.9348904 L52.2412447,36.5511988 C51.8004182,37.9867866 51.2222445,39.3763566 50.5141257,40.7010088 L52.5619954,43.618202 C53.805521,45.4054964 53.594977,47.8247123 52.0603084,49.3704138 L49.5025275,51.9260394 C47.9555224,53.458593 45.534266,53.6697813 43.7454643,52.4273035 L40.7600157,50.4468992 C39.431779,51.1544212 38.0385697,51.7321077 36.5984815,52.171741 L35.9816533,55.681412 C35.6025095,57.8393131 33.7257069,59.412954 31.5322658,59.4121322 L27.9135404,59.4121322 C25.7209217,59.412954 23.8432966,57.8393131 23.4641529,55.681412 L22.8473247,52.171741 C21.4105262,51.7312859 20.0197842,51.1535995 18.6940148,50.4468992 L15.7743613,52.4930431 C13.9863819,53.7388078 11.5626583,53.5276195 10.0172981,51.9917789 L7.41839523,49.4032836 C5.86563303,47.8526516 5.65755632,45.4087833 6.92493267,43.618202 Z M74.8418301,59.4367846 C76.6709313,59.1171259 78.0041027,57.527872 77.9999905,55.6731945 L77.9999905,52.8209192 C78.0041027,50.9670635 76.6709313,49.3778095 74.8418301,49.0573291 L72.2347029,48.5979739 C71.9049054,47.5543584 71.4838174,46.5436126 70.9763734,45.573954 L72.4978829,43.4037266 C73.5876128,41.8793905 73.4058541,39.7896941 72.0702154,38.4740811 L70.0634676,36.4772418 C68.7475675,35.1427287 66.6552862,34.9619449 65.128842,36.0499347 L62.9576067,37.5701621 C62.0915799,37.1412114 61.1951229,36.7763569 60.2764601,36.4772418 C59.631669,36.2496186 58.9243727,36.5889991 58.6973799,37.2332468 C58.4703871,37.8774946 58.8092314,38.5841949 59.4540225,38.8109964 C60.4845368,39.1438029 61.4796863,39.5785058 62.4230223,40.1093527 C62.8383533,40.3484804 63.3540216,40.3262933 63.7471468,40.0518306 L66.5845566,38.1207309 C67.1216083,37.7402632 67.8552227,37.8027158 68.3198999,38.268645 L70.334872,40.2819191 C70.8003717,40.745383 70.8661667,41.4759139 70.4911352,42.0158001 L68.5255093,44.8089098 C68.2508151,45.2017037 68.2286093,45.7177593 68.4679387,46.1327403 C69.1834594,47.3505657 69.7369599,48.6579613 70.1128139,50.019592 C70.237002,50.4748385 70.6112111,50.8199712 71.0750659,50.9062544 L74.4388357,51.4987322 C75.0869165,51.6104895 75.5589957,52.1725627 75.5573508,52.8299584 L75.5573508,55.681412 C75.561463,56.3462033 75.0795146,56.9156723 74.4223869,57.0208556 L71.0750659,57.5960768 C70.6021643,57.679073 70.2205532,58.0274927 70.0963651,58.4917783 C69.7205111,59.8558743 69.1670106,61.1657351 68.4514899,62.3868475 C68.2121606,62.8018285 68.2343664,63.3170623 68.5090605,63.7090345 L70.4746864,66.5037877 C70.855475,67.0403869 70.7929698,67.773383 70.3266477,68.2376687 L68.3116755,70.2501211 C67.8469983,70.716872 67.1133839,70.7793246 66.5763322,70.3988568 L63.7800443,68.4340656 C63.3877416,68.1596029 62.8712508,68.1374158 62.4559198,68.3773653 C61.2370672,69.092283 59.928569,69.6444953 58.5657899,70.0208544 C58.1044024,70.1432943 57.7548664,70.520475 57.6693329,70.9905129 L57.0936266,74.3350132 C56.9817751,74.9817262 56.4184053,75.4534076 55.7612777,75.4517641 L52.8909704,75.4517641 C52.2338428,75.4534076 51.670473,74.9817262 51.5586215,74.3350132 L50.9746908,70.9905129 C50.8916246,70.5180098 50.5420886,70.1367203 50.0782338,70.0118152 C48.7154547,69.6362779 47.4077789,69.0840656 46.1881039,68.3683261 C45.7735954,68.1291984 45.2571046,68.1522072 44.8639794,68.4266699 L42.0676915,70.3898177 C41.5306398,70.7711071 40.7970254,70.7086545 40.3323482,70.2427254 L38.3173761,68.2286295 C37.8584559,67.7643438 37.7992404,67.0362781 38.1775617,66.5037877 L40.1431875,63.7090345 C40.4178817,63.3170623 40.44091,62.8018285 40.2007582,62.3868475 C39.6702859,61.4434847 39.234394,60.4499956 38.9013068,59.4203497 C38.674314,58.7761019 37.9670176,58.4367214 37.3222266,58.6643447 C36.6774355,58.8911462 36.3385912,59.5978465 36.565584,60.2420942 C36.8707083,61.1747743 37.2449174,62.0836237 37.6840991,62.9620687 L36.1625895,65.1314743 C35.0736821,66.6566322 35.2546184,68.7463286 36.5902571,70.0619416 L38.6052292,72.0752157 C39.9219518,73.4097289 42.0134107,73.5905127 43.5398549,72.5025229 L45.7110901,70.9822955 C46.6815665,71.4893119 47.6939872,71.9100451 48.7376605,72.2387429 L49.1982256,74.8444949 C49.5181538,76.6720547 51.1087481,78.0032809 52.9649898,77.9999939 L55.8188483,77.9999939 C57.6759124,78.0032809 59.2656843,76.6720547 59.5856125,74.8444949 L60.0461776,72.2387429 C61.0906733,71.9100451 62.103094,71.4893119 63.072748,70.9822955 L65.2439833,72.5025229 C66.7704275,73.5905127 68.8627087,73.4097289 70.1786089,72.0752157 L72.193581,70.0619416 C73.5292197,68.7463286 73.7109784,66.6566322 72.6212486,65.1314743 L71.099739,62.9620687 C71.607183,61.9932318 72.0282711,60.9808426 72.3580685,59.9380487 L74.8418301,59.4367846 Z M60.7863714,54.2515764 C60.7797919,51.4666842 58.9802985,49.003094 56.3287596,48.1460144 C55.6897256,47.9109955 55.3623954,47.2026517 55.5976126,46.5633344 C55.8204932,45.9577087 56.4726862,45.6273674 57.0936266,45.8032207 C61.7757639,47.3283786 64.3335448,52.3558118 62.8079231,57.03236 C61.2823013,61.7105517 56.250628,64.266999 51.5693132,62.7426629 C48.856914,61.8592875 46.7309128,59.7326126 45.8509045,57.0208556 C45.6239117,56.3716774 45.9660458,55.6608683 46.6157715,55.4348886 C47.2654972,55.2080871 47.9760833,55.5499328 48.2030761,56.199111 C49.2845815,59.589629 52.9115314,61.4615631 56.3040865,60.3817908 C58.9877004,59.5279982 60.8052875,57.0315383 60.7945958,54.2187067 L60.7863714,54.2515764 Z" id="Fill-1" fill="#4688F1" mask="url(#mask-2)"></path>
                </g>
            </g>
        </g>
    </g>
</svg>