<svg width="85" height="104" viewBox="0 0 85 104" fill="none" xmlns="http://www.w3.org/2000/svg">
<path d="M14 52.5L42 43L70.5 52.5V93L42 102.5L14 93V52.5Z" fill="#DCE6F9" stroke="#262D34" stroke-width="2"/>
<line x1="42" y1="62" x2="42" y2="102" stroke="#262D34" stroke-width="2"/>
<path d="M42 62.5L14 52.5L2 65L30 76L42 62.5Z" fill="#DCE6F9" stroke="#262D34" stroke-width="2"/>
<path d="M42 43L70.5 52.5L82.5 40L54.5 29L42 43Z" fill="#DCE6F9" stroke="#262D34" stroke-width="2"/>
<path d="M42 62.5L70.5 52.5L82.5 65L54.5 76L42 62.5Z" fill="#DCE6F9" stroke="#262D34" stroke-width="2"/>
<path d="M42 43L14 52.5L2 40L30 29L42 43Z" fill="#DCE6F9" stroke="#262D34" stroke-width="2"/>
<path d="M61.5 14.8815L64.7486 23.6606L64.9081 24.0919L65.3394 24.2514L74.1185 27.5L65.3394 30.7486L64.9081 30.9081L64.7486 31.3394L61.5 40.1185L58.2514 31.3394L58.0919 30.9081L57.6606 30.7486L48.8815 27.5L57.6606 24.2514L58.0919 24.0919L58.2514 23.6606L61.5 14.8815Z" fill="#DCE6F9" stroke="#262D34" stroke-width="2"/>
<path d="M47 2.88154L49.3032 9.10595L49.4628 9.53719L49.8941 9.69676L56.1185 12L49.8941 14.3032L49.4628 14.4628L49.3032 14.8941L47 21.1185L44.6968 14.8941L44.5372 14.4628L44.1059 14.3032L37.8815 12L44.1059 9.69676L44.5372 9.53719L44.6968 9.10595L47 2.88154Z" fill="#DCE6F9" stroke="#262D34" stroke-width="2"/>
</svg>
