<?xml version="1.0" encoding="UTF-8"?>
<svg width="46px" height="46px" viewBox="0 0 46 46" version="1.1" xmlns="http://www.w3.org/2000/svg" xmlns:xlink="http://www.w3.org/1999/xlink">
    <!-- Generator: Sketch 51.3 (57544) - http://www.bohemiancoding.com/sketch -->
    <title>Data-ransformations</title>
    <desc>Created with Sketch.</desc>
    <defs>
        <polygon id="path-1" points="0 0 46 0 46 46 0 46"></polygon>
    </defs>
    <g id="Page-1-Copy" stroke="none" stroke-width="1" fill="none" fill-rule="evenodd">
        <g id="2" transform="translate(-175.000000, -460.000000)">
            <g id="Data-ransformations" transform="translate(175.000000, 460.000000)">
                <mask id="mask-2" fill="white">
                    <use xlink:href="#path-1"></use>
                </mask>
                <g id="Clip-2"></g>
                <path d="M12.4943081,17.4995777 C12.491883,20.2803191 14.7458049,22.5367032 17.5288916,22.5396109 C20.3119782,22.542034 22.5702654,20.2900115 22.5731755,17.5092701 C22.5760857,14.7285287 20.3216788,12.4716599 17.5385921,12.4692368 L17.5288916,12.4692368 C14.7506552,12.4745676 12.4996434,14.7231979 12.4943081,17.4995777 Z M11.0392262,17.4995777 C11.0392262,13.9153387 13.9469649,11.0105349 17.5337418,11.0105349 C21.1205188,11.0105349 24.0282575,13.9153387 24.0282575,17.4995777 C24.0282575,21.0833321 21.1205188,23.9886205 17.5337418,23.9886205 L17.5288916,23.9886205 C13.9450248,23.9832897 11.0421364,21.0804244 11.0392262,17.4995777 Z M5.40805919,28.1078784 L6.91649411,29.6150422 C7.32876732,30.0216372 7.97191353,30.0788222 8.4491804,29.7507354 L10.5444984,28.2968797 C10.7807067,28.1156323 11.1032498,28.0967322 11.3593442,28.2484178 C12.2896266,28.7858598 13.2858727,29.1992395 14.3228611,29.479349 C14.5964165,29.5525264 14.8025531,29.7769048 14.8515408,30.0560451 L15.2929157,32.5712156 C15.3942864,33.1493655 15.8982298,33.5714683 16.4860829,33.5695298 L18.620203,33.5695298 C19.2080561,33.5714683 19.7119995,33.1493655 19.8133702,32.5712156 L20.254745,30.0560451 C20.3037328,29.7769048 20.5098694,29.5525264 20.7834248,29.479349 C21.8208982,29.1992395 22.8171443,28.7858598 23.7469416,28.2484178 C23.9884852,28.1214477 24.2804717,28.1403479 24.5035842,28.2968797 L26.5989022,29.7507354 C27.0790792,30.0865761 27.731926,30.0293911 28.1461393,29.6150422 L29.6545742,28.1078784 C30.0692726,27.6940142 30.1269908,27.0417175 29.7903818,26.5619452 L28.3352999,24.4683929 C28.1733008,24.2367452 28.1602051,23.9324047 28.301348,23.688157 C28.8377882,22.7586585 29.2500614,21.763252 29.5284671,20.7271374 C29.6017062,20.4538126 29.8267589,20.2473651 30.1056496,20.1989032 L32.6229413,19.7579003 C33.2020639,19.656615 33.6240377,19.1530963 33.6220976,18.5657386 L33.6220976,16.4334168 C33.6240377,15.8460591 33.2020639,15.3425404 32.6229413,15.2412551 L30.1056496,14.8002522 C29.8267589,14.7513057 29.6017062,14.5453428 29.5284671,14.272018 C29.2437561,13.2431727 28.8261476,12.2560047 28.2867972,11.3352294 C28.141289,11.0827431 28.1602051,10.7682256 28.3352999,10.5356087 L29.7903818,8.42751787 C30.1269908,7.94774548 30.0692726,7.29544887 29.6545742,6.8815846 L28.1461393,5.36957463 C27.731926,4.95474113 27.0790792,4.89755613 26.5989022,5.23388143 L24.5035842,6.68773717 C24.2722262,6.84959978 23.967629,6.86268448 23.7226903,6.72166047 C22.7909528,6.19391084 21.7951917,5.79022356 20.7591734,5.51980639 C20.485618,5.44662898 20.2794814,5.22176596 20.2304937,4.94311028 L19.7891188,2.42793985 C19.6877481,1.84930526 19.1838047,1.4276871 18.5959516,1.42962557 L16.4618315,1.42962557 C15.8739784,1.4276871 15.3705201,1.84930526 15.2686643,2.42793985 L14.8272895,4.94311028 C14.7792718,5.22031211 14.5750753,5.44469051 14.30346,5.51980639 C13.272777,5.80282364 12.2833213,6.21814176 11.3593442,6.75558377 C11.1144054,6.89660778 10.8102933,6.88352308 10.5784503,6.72166047 L8.48313231,5.26780473 C8.00295528,4.93147943 7.35059355,4.98914904 6.93589521,5.40349793 L5.42746029,6.9155079 C5.02488762,7.3196798 4.95989396,7.95016857 5.27225155,8.42751787 L6.72733347,10.5210701 C6.90873368,10.7565948 6.92813477,11.0793507 6.7758362,11.3352294 C6.23794091,12.2579431 5.82178749,13.2470497 5.53901657,14.2768641 C5.46577744,14.550189 5.24072477,14.7561519 4.96183407,14.8050984 L2.44454236,15.2461013 C1.86541975,15.3473866 1.443446,15.8509053 1.44538611,16.438263 L1.44538611,18.5705848 C1.443446,19.1579425 1.86541975,19.6609766 2.44454236,19.7627465 L4.96183407,20.2037494 C5.23926969,20.2517266 5.46432236,20.455751 5.53901657,20.7271374 C5.81693721,21.763252 6.22969545,22.7586585 6.76613565,23.688157 C6.9072786,23.9324047 6.89418286,24.2367452 6.73218374,24.4683929 L5.27710182,26.5619452 C4.93806773,27.0392945 4.99142074,27.6915911 5.40320892,28.1078784 L5.40805919,28.1078784 Z M4.08393465,25.723555 L5.29165264,24.003159 C4.87404413,23.2205 4.53258491,22.3990715 4.2730953,21.550989 L2.2020287,21.1875251 C0.926891917,20.9655698 -0.00242040111,19.8587009 4.73542131e-06,18.5657386 L4.73542131e-06,16.4334168 C-0.000480291884,15.1409391 0.928346998,14.0350395 2.2020287,13.8116303 L4.2730953,13.4481664 C4.53258491,12.6000839 4.87404413,11.7786554 5.29165264,10.9959963 L4.08393465,9.28044657 C3.35057336,8.22640116 3.47522538,6.79919944 4.37980131,5.88811651 L5.8930865,4.37610654 C6.80445281,3.46986979 8.23382828,3.34532282 9.28827764,4.08048921 L11.0101246,5.28718947 C11.7939287,4.86993287 12.615565,4.52876139 13.4643627,4.26949045 L13.8281332,2.20016911 C14.0517308,0.927076103 15.1590481,-0.000968478677 16.4521309,7.58484452e-07 L18.5862511,7.58484452e-07 C19.8798189,-0.000968478677 20.9866512,0.927076103 21.2102488,2.20016911 L21.5740193,4.26949045 C22.4233021,4.52876139 23.2449384,4.86944826 24.0282575,5.28718947 L25.7598049,4.06595065 C26.8142543,3.33126888 28.2436298,3.45581586 29.1549961,4.36156798 L30.663431,5.87357795 C31.5704321,6.78417627 31.6945991,8.21234722 30.9592977,9.26590802 L29.7903818,11.0008425 C30.2079904,11.7835015 30.5494496,12.6044454 30.8089392,13.4530126 L32.8800058,13.8164765 C34.1541725,14.0398857 35.0825148,15.1457853 35.0820298,16.438263 L35.0820298,18.5705848 C35.0849399,19.8635471 34.1551426,20.970416 32.8800058,21.1923713 L30.8089392,21.5558352 C30.5489646,22.4024639 30.2079904,23.2219539 29.7903818,24.003159 L30.9980998,25.723555 C31.7314611,26.7776004 31.6072941,28.2043175 30.7022332,29.1158851 L29.1937983,30.6230489 C28.2814619,31.5268625 26.8535415,31.6514095 25.7986071,30.9186662 L24.037958,29.7507354 C23.2546389,30.167992 22.4330026,30.5086789 21.5837198,30.7679498 L21.2199494,32.8377558 C20.9963518,34.1103642 19.8895195,35.0384087 18.5959516,35.0379241 L16.4618315,35.0379241 C15.1687487,35.0384087 14.0614314,34.1103642 13.8378338,32.8377558 L13.4740633,30.7679498 C12.6267206,30.5081943 11.8065394,30.1675074 11.0246754,29.7507354 L9.30282846,30.9574357 C8.2483791,31.6921174 6.81900363,31.5675705 5.90763732,30.6618183 L4.37495103,29.1352698 C3.45921948,28.2207946 3.33650757,26.7795389 4.08393465,25.723555 Z M44.1374896,35.0524627 C45.2161903,34.8639461 46.0024195,33.9266937 45.9999944,32.8329096 L45.9999944,31.1507985 C46.0024195,30.057499 45.2161903,29.1202466 44.1374896,28.9312454 L42.599953,28.6603436 C42.405457,28.044878 42.1571231,27.4487972 41.8578612,26.8769472 L42.7551617,25.5970696 C43.3978229,24.6981021 43.2906319,23.465717 42.5029475,22.6898427 L41.3194809,21.5122195 C40.5434372,20.725199 39.3095278,20.6185829 38.4093171,21.2602179 L37.128845,22.1567623 C36.6181112,21.9037914 36.0894315,21.6886207 35.547656,21.5122195 C35.1673946,21.3779802 34.7502711,21.5781277 34.6164035,21.9580686 C34.482536,22.3380096 34.6823673,22.7547816 35.0626287,22.8885363 C35.6703679,23.0848068 36.2572509,23.3411701 36.8135772,23.6542337 C37.058516,23.7952577 37.3626281,23.782173 37.5944712,23.6203104 L39.2678154,22.4814567 C39.5845382,22.2570783 40.0171826,22.2939093 40.291223,22.5686881 L41.4795399,23.7560036 C41.7540654,24.0293285 41.7928676,24.4601544 41.5716951,24.7785488 L40.4124798,26.4257673 C40.2504807,26.657415 40.237385,26.9617555 40.3785279,27.2064879 C40.8005017,27.9246926 41.1269251,28.6957208 41.3485825,29.4987338 C41.4218217,29.7672124 41.6425091,29.9707523 41.9160645,30.0216372 L43.8998262,30.3710472 C44.2820277,30.4369553 44.5604334,30.7684344 44.5594633,31.1561293 L44.5594633,32.8377558 C44.5618884,33.2298122 44.2776624,33.5656529 43.8901256,33.6276841 L41.9160645,33.9669171 C41.6371738,34.0158635 41.4121211,34.2213418 41.338882,34.4951513 C41.1172245,35.2996182 40.7908011,36.0721002 40.3688274,36.7922434 C40.2276844,37.0369758 40.2407802,37.3408316 40.4027793,37.5719947 L41.5619946,39.2201825 C41.7865622,39.5366384 41.7497001,39.9689182 41.4746896,40.2427277 L40.2863727,41.4295586 C40.0123323,41.7048219 39.579688,41.741653 39.2629651,41.5172745 L37.6138723,40.3585515 C37.3825143,40.1966889 37.0779171,40.1836042 36.8329783,40.3251128 C36.1141679,40.746731 35.3424894,41.0723947 34.5387992,41.29435 C34.2666989,41.3665582 34.0605622,41.5889981 34.0101194,41.8661999 L33.6706003,43.8385975 C33.6046366,44.2199924 33.2723929,44.4981634 32.8848561,44.4971942 L31.1921108,44.4971942 C30.8045739,44.4981634 30.4723302,44.2199924 30.4063665,43.8385975 L30.0619971,41.8661999 C30.0130094,41.5875442 29.8068728,41.3626812 29.5333174,41.2890192 C28.7296271,41.0675485 27.9584337,40.7418848 27.2391382,40.319782 C26.9946845,40.178758 26.6900873,40.1923273 26.4582443,40.35419 L24.8091514,41.5119437 C24.4924286,41.7368068 24.0597842,41.6999758 23.7857438,41.425197 L22.5974269,40.2373969 C22.3267817,39.9635874 22.2918597,39.5342153 22.5149723,39.2201825 L23.6741875,37.5719947 C23.8361866,37.3408316 23.8497674,37.0369758 23.7081394,36.7922434 C23.3952968,36.2359013 23.1382324,35.6499974 22.9417963,35.0427703 C22.8079288,34.6628293 22.3908053,34.4626819 22.0105439,34.5969212 C21.6302825,34.7306759 21.4304512,35.1474479 21.5643187,35.5273889 C21.7442639,36.077431 21.9649513,36.6134191 22.2239559,37.1314764 L21.3266554,38.4108694 C20.6844792,39.3103215 20.7911852,40.5427066 21.5788696,41.3185809 L22.7671865,42.5058965 C23.5437152,43.292917 24.7771396,43.3995331 25.6773503,42.7578981 L26.9578224,41.8613537 C27.5301546,42.1603634 28.1272232,42.4084881 28.7427229,42.6023356 L29.0143382,44.1390611 C29.2030138,45.2168528 30.1410566,46.0019349 31.2357632,45.9999964 L32.918808,45.9999964 C34.0139996,46.0019349 34.9515574,45.2168528 35.140233,44.1390611 L35.4118483,42.6023356 C36.027833,42.4084881 36.6249016,42.1603634 37.1967488,41.8613537 L38.4772209,42.7578981 C39.3774316,43.3995331 40.611341,43.292917 41.3873847,42.5058965 L42.5757016,41.3185809 C43.363386,40.5427066 43.470577,39.3103215 42.8279158,38.4108694 L41.9306153,37.1314764 C42.2298772,36.5601111 42.4782111,35.963061 42.6727071,35.34808 L44.1374896,35.0524627 Z M35.8483729,31.9945194 C35.8444927,30.3521471 34.7832529,28.8992606 33.2195249,28.3938034 C32.8426587,28.2552025 32.6496178,27.8374613 32.7883356,27.460428 C32.919778,27.1032641 33.3044047,26.9084474 33.6706003,27.0121558 C36.4318607,27.9116079 37.9402957,30.8765044 37.04057,33.6344687 C36.1408444,36.3934023 33.1734473,37.9010507 30.4126719,37.0020832 C28.8130518,36.4811183 27.5592562,35.2269254 27.040277,33.6276841 C26.9064095,33.2448354 27.1081808,32.8256403 27.4913524,32.6923702 C27.874524,32.5586155 28.2935876,32.7602168 28.4274551,33.1430655 C29.065266,35.1426017 31.2042364,36.2465629 33.2049741,35.6097741 C34.7876182,35.1062553 35.8595285,33.6339841 35.8532232,31.9751347 L35.8483729,31.9945194 Z" id="Fill-1" fill="#4688F1" mask="url(#mask-2)"></path>
            </g>
        </g>
    </g>
</svg>