<svg width="195" height="158" viewBox="0 0 195 158" fill="none" xmlns="http://www.w3.org/2000/svg">
<rect x="1" y="1" width="193" height="44" rx="3" fill="#DCE6F9" stroke="#262D34" stroke-width="2"/>
<path fill-rule="evenodd" clip-rule="evenodd" d="M97.5 71C103.023 71 107.5 66.5228 107.5 61C107.5 55.4772 103.023 51 97.5 51C91.9772 51 87.5 55.4772 87.5 61C87.5 66.5228 91.9772 71 97.5 71Z" fill="#DCE6F9"/>
<path fill-rule="evenodd" clip-rule="evenodd" d="M96.5 51.0494V46H98.5V51.0494C103.553 51.5511 107.5 55.8147 107.5 61C107.5 66.1853 103.553 70.4489 98.5 70.9506V74H101.5L97.5 79L93.5 74H96.5V70.9506C91.4467 70.4489 87.5 66.1853 87.5 61C87.5 55.8147 91.4467 51.5511 96.5 51.0494ZM105.5 61C105.5 65.4183 101.918 69 97.5 69C93.0817 69 89.5 65.4183 89.5 61C89.5 56.5817 93.0817 53 97.5 53C101.918 53 105.5 56.5817 105.5 61Z" fill="#262D34"/>
<path fill-rule="evenodd" clip-rule="evenodd" d="M97.5 56C96.9477 56 96.5 56.4477 96.5 57V60L93.5 60C92.9477 60 92.5 60.4477 92.5 61C92.5 61.5523 92.9477 62 93.5 62H96.5V65C96.5 65.5523 96.9477 66 97.5 66C98.0523 66 98.5 65.5523 98.5 65V62H101.5C102.052 62 102.5 61.5523 102.5 61C102.5 60.4477 102.052 60 101.5 60L98.5 60V57C98.5 56.4477 98.0523 56 97.5 56Z" fill="#262D34"/>
<rect x="1" y="80" width="193" height="44" rx="3" fill="#DCE6F9" stroke="#262D34" stroke-width="2"/>
<path fill-rule="evenodd" clip-rule="evenodd" d="M97.5 150C103.023 150 107.5 145.523 107.5 140C107.5 134.477 103.023 130 97.5 130C91.9772 130 87.5 134.477 87.5 140C87.5 145.523 91.9772 150 97.5 150Z" fill="#DCE6F9"/>
<path fill-rule="evenodd" clip-rule="evenodd" d="M96.5 130.049V125H98.5V130.049C103.553 130.551 107.5 134.815 107.5 140C107.5 145.185 103.553 149.449 98.5 149.951V153H101.5L97.5 158L93.5 153H96.5V149.951C91.4467 149.449 87.5 145.185 87.5 140C87.5 134.815 91.4467 130.551 96.5 130.049ZM105.5 140C105.5 144.418 101.918 148 97.5 148C93.0817 148 89.5 144.418 89.5 140C89.5 135.582 93.0817 132 97.5 132C101.918 132 105.5 135.582 105.5 140Z" fill="#262D34"/>
<path fill-rule="evenodd" clip-rule="evenodd" d="M97.5 135C96.9477 135 96.5 135.448 96.5 136V139L93.5 139C92.9477 139 92.5 139.448 92.5 140C92.5 140.552 92.9477 141 93.5 141H96.5V144C96.5 144.552 96.9477 145 97.5 145C98.0523 145 98.5 144.552 98.5 144V141H101.5C102.052 141 102.5 140.552 102.5 140C102.5 139.448 102.052 139 101.5 139L98.5 139V136C98.5 135.448 98.0523 135 97.5 135Z" fill="#262D34"/>
</svg>
