<svg width="184" height="75" viewBox="0 0 184 75" fill="none" xmlns="http://www.w3.org/2000/svg">
<path d="M1 7C1 5.34315 2.34315 4 4 4H71C72.6569 4 74 5.34315 74 7V68C74 69.6569 72.6569 71 71 71H4C2.34315 71 1 69.6569 1 68V7Z" fill="#DCE6F9" stroke="#262D34" stroke-width="2"/>
<line y1="19" x2="74" y2="19" stroke="#262D34" stroke-width="2"/>
<line y1="32" x2="74" y2="32" stroke="#262D34" stroke-width="2"/>
<line y1="45" x2="74" y2="45" stroke="#262D34" stroke-width="2"/>
<line y1="58" x2="74" y2="58" stroke="#262D34" stroke-width="2"/>
<line x1="15.5" y1="20" x2="15.5" y2="72" stroke="#262D34" stroke-width="2"/>
<line x1="30.5" y1="20" x2="30.5" y2="72" stroke="#262D34" stroke-width="2"/>
<line x1="45.5" y1="20" x2="45.5" y2="72" stroke="#262D34" stroke-width="2"/>
<line x1="60.5" y1="20" x2="60.5" y2="72" stroke="#262D34" stroke-width="2"/>
<path d="M111.3 34.1242L115.52 37.5L111.3 40.8758L111.3 34.1242Z" fill="#262D34" stroke="#262D34" stroke-width="0.6"/>
<path fill-rule="evenodd" clip-rule="evenodd" d="M113 38.5L83 38.5L83 36.5L113 36.5L113 38.5Z" fill="#262D34"/>
<mask id="path-12-inside-1_451_11457" fill="white">
<path fill-rule="evenodd" clip-rule="evenodd" d="M184 61.5V13.5V13H183.98C183.395 5.7758 170.197 0 154 0C137.803 0 124.605 5.7758 124.02 13H124V13.5V61.5V62H124.02C124.605 69.2242 137.803 75 154 75C170.197 75 183.395 69.2242 183.98 62H184V61.5Z"/>
</mask>
<path fill-rule="evenodd" clip-rule="evenodd" d="M184 61.5V13.5V13H183.98C183.395 5.7758 170.197 0 154 0C137.803 0 124.605 5.7758 124.02 13H124V13.5V61.5V62H124.02C124.605 69.2242 137.803 75 154 75C170.197 75 183.395 69.2242 183.98 62H184V61.5Z" fill="#DCE6F9"/>
<path d="M184 13H186V11H184V13ZM183.98 13L181.986 13.1613L182.135 15H183.98V13ZM124.02 13V15H125.865L126.014 13.1613L124.02 13ZM124 13V11H122V13H124ZM124 62H122V64H124V62ZM124.02 62L126.014 61.8387L125.865 60H124.02V62ZM183.98 62V60H182.135L181.986 61.8387L183.98 62ZM184 62V64H186V62H184ZM182 13.5V61.5H186V13.5H182ZM182 13V13.5H186V13H182ZM183.98 15H184V11H183.98V15ZM154 2C161.885 2 168.952 3.40962 174.047 5.62503C179.317 7.91666 181.79 10.7336 181.986 13.1613L185.973 12.8387C185.585 8.04221 181.167 4.35914 175.642 1.95682C169.942 -0.521724 162.311 -2 154 -2V2ZM126.014 13.1613C126.21 10.7336 128.683 7.91666 133.953 5.62503C139.048 3.40962 146.115 2 154 2V-2C145.689 -2 138.058 -0.521724 132.358 1.95682C126.833 4.35913 122.415 8.04221 122.027 12.8387L126.014 13.1613ZM124 15H124.02V11H124V15ZM126 13.5V13H122V13.5H126ZM126 61.5V13.5H122V61.5H126ZM126 62V61.5H122V62H126ZM124.02 60H124V64H124.02V60ZM154 73C146.115 73 139.048 71.5904 133.953 69.375C128.683 67.0833 126.21 64.2664 126.014 61.8387L122.027 62.1613C122.415 66.9578 126.833 70.6409 132.358 73.0432C138.058 75.5217 145.689 77 154 77V73ZM181.986 61.8387C181.79 64.2664 179.317 67.0833 174.047 69.375C168.952 71.5904 161.885 73 154 73V77C162.311 77 169.942 75.5217 175.642 73.0432C181.167 70.6409 185.585 66.9578 185.973 62.1613L181.986 61.8387ZM184 60H183.98V64H184V60ZM182 61.5V62H186V61.5H182Z" fill="#262D34" mask="url(#path-12-inside-1_451_11457)"/>
<path d="M183 13.5C183 16.5893 180.169 19.7192 174.803 22.134C169.53 24.5066 162.176 26 154 26C145.824 26 138.47 24.5066 133.197 22.134C127.831 19.7192 125 16.5893 125 13.5C125 10.4107 127.831 7.28083 133.197 4.86598C138.47 2.49337 145.824 1 154 1C162.176 1 169.53 2.49337 174.803 4.86598C180.169 7.28083 183 10.4107 183 13.5Z" fill="#DCE6F9" stroke="#262D34" stroke-width="2"/>
<path fill-rule="evenodd" clip-rule="evenodd" d="M124.02 45C124.007 45.1659 124 45.3326 124 45.5C124 52.9558 137.431 59 154 59C170.569 59 184 52.9558 184 45.5C184 45.3326 183.993 45.1659 183.98 45H181.969C181.99 45.1684 182 45.3352 182 45.5C182 47.9507 179.696 50.8354 174.392 53.2221C169.276 55.5243 162.068 57 154 57C145.932 57 138.724 55.5243 133.608 53.2221C128.304 50.8354 126 47.9507 126 45.5C126 45.3352 126.01 45.1684 126.031 45H124.02Z" fill="#262D34"/>
<path fill-rule="evenodd" clip-rule="evenodd" d="M124.183 26C124.062 26.4925 124 26.993 124 27.5C124 34.9558 137.431 41 154 41C170.569 41 184 34.9558 184 27.5C184 26.993 183.938 26.4925 183.817 26H181.723C181.91 26.5122 182 27.0146 182 27.5C182 29.9507 179.696 32.8354 174.392 35.2221C169.276 37.5243 162.068 39 154 39C145.932 39 138.724 37.5243 133.608 35.2221C128.304 32.8354 126 29.9507 126 27.5C126 27.0146 126.09 26.5122 126.277 26H124.183Z" fill="#262D34"/>
</svg>
