<?xml version="1.0" encoding="UTF-8"?>
<svg width="52px" height="80px" viewBox="0 0 52 80" version="1.1" xmlns="http://www.w3.org/2000/svg" xmlns:xlink="http://www.w3.org/1999/xlink">
    <!-- Generator: Sketch 51.3 (57544) - http://www.bohemiancoding.com/sketch -->
    <title>load-data-big</title>
    <desc>Created with Sketch.</desc>
    <defs>
        <polygon id="path-1" points="0 0.357272727 41.1694279 0.357272727 41.1694279 59.2057576 0 59.2057576"></polygon>
        <polygon id="path-3" points="0 0.0467878788 41.1694279 0.0467878788 41.1694279 11.4340606 0 11.4340606"></polygon>
        <polygon id="path-5" points="0 0.600242424 41.1694279 0.600242424 41.1694279 11.985697 0 11.985697"></polygon>
        <polygon id="path-7" points="0 0.186060606 41.1694279 0.186060606 41.1694279 21.1838788 0 21.1838788"></polygon>
        <polygon id="path-9" points="0.0581672376 0.181090909 25.8778605 0.181090909 25.8778605 26.0604848 0.0581672376 26.0604848"></polygon>
    </defs>
    <g id="sign-in-river-types" stroke="none" stroke-width="1" fill="none" fill-rule="evenodd">
        <g id="5" transform="translate(-199.000000, -382.000000)">
            <g id="load-data-big" transform="translate(199.000000, 382.000000)">
                <g id="Group-20">
                    <g id="Group-3" transform="translate(0.000000, 9.510909)">
                        <mask id="mask-2" fill="white">
                            <use xlink:href="#path-1"></use>
                        </mask>
                        <g id="Clip-2"></g>
                        <path d="M20.5846837,59.2057576 C9.04189302,59.2057576 -6.04651163e-05,54.5942424 -6.04651163e-05,48.7063636 L-6.04651163e-05,1.24515152 C-6.04651163e-05,0.755454545 0.396590698,0.357878788 0.885148837,0.357878788 C1.37370698,0.357878788 1.77035814,0.755454545 1.77035814,1.24515152 L1.77035814,48.7063636 C1.77035814,53.4354545 10.3860326,57.4312121 20.5846837,57.4312121 C30.7833349,57.4312121 39.3990093,53.4354545 39.3990093,48.7063636 L39.3990093,1.24454545 C39.3990093,0.754848485 39.7956605,0.357272727 40.2842186,0.357272727 C40.7733814,0.357272727 41.1694279,0.754848485 41.1694279,1.24454545 L41.1694279,48.7063636 C41.1694279,54.5942424 32.1280791,59.2057576 20.5846837,59.2057576" id="Fill-1" fill="#4688F1" mask="url(#mask-2)"></path>
                    </g>
                    <g id="Group-6" transform="translate(0.000000, 25.874545)">
                        <mask id="mask-4" fill="white">
                            <use xlink:href="#path-3"></use>
                        </mask>
                        <g id="Clip-5"></g>
                        <path d="M20.5846837,11.4340606 C9.04189302,11.4340606 -6.04651163e-05,6.82193939 -6.04651163e-05,0.934060606 C-6.04651163e-05,0.444363636 0.396590698,0.0467878788 0.885148837,0.0467878788 C1.37370698,0.0467878788 1.77035814,0.444363636 1.77035814,0.934060606 C1.77035814,5.66375758 10.3860326,9.65890909 20.5846837,9.65890909 C30.7833349,9.65890909 39.3990093,5.66375758 39.3990093,0.934060606 C39.3990093,0.444363636 39.7956605,0.0467878788 40.2842186,0.0467878788 C40.7733814,0.0467878788 41.1694279,0.444363636 41.1694279,0.934060606 C41.1694279,6.82193939 32.1280791,11.4340606 20.5846837,11.4340606" id="Fill-4" fill="#4688F1" mask="url(#mask-4)"></path>
                    </g>
                    <g id="Group-9" transform="translate(0.000000, 41.026061)">
                        <mask id="mask-6" fill="white">
                            <use xlink:href="#path-5"></use>
                        </mask>
                        <g id="Clip-8"></g>
                        <path d="M20.5846837,11.985697 C9.04189302,11.985697 -6.04651163e-05,7.37478788 -6.04651163e-05,1.48751515 C-6.04651163e-05,0.997818182 0.396590698,0.600242424 0.885148837,0.600242424 C1.37370698,0.600242424 1.77035814,0.997818182 1.77035814,1.48751515 C1.77035814,6.21660606 10.3860326,10.2111515 20.5846837,10.2111515 C30.7833349,10.2111515 39.3990093,6.21660606 39.3990093,1.48751515 C39.3990093,0.997818182 39.7956605,0.600242424 40.2842186,0.600242424 C40.7733814,0.600242424 41.1694279,0.997818182 41.1694279,1.48751515 C41.1694279,7.37478788 32.1280791,11.985697 20.5846837,11.985697" id="Fill-7" fill="#4688F1" mask="url(#mask-6)"></path>
                    </g>
                    <g id="Group-12" transform="translate(0.000000, 0.420000)">
                        <mask id="mask-8" fill="white">
                            <use xlink:href="#path-7"></use>
                        </mask>
                        <g id="Clip-11"></g>
                        <path d="M20.5846837,1.96024242 C10.3860326,1.96024242 1.77035814,5.95539394 1.77035814,10.6850909 C1.77035814,15.4141818 10.3860326,19.4093333 20.5846837,19.4093333 C30.7833349,19.4093333 39.3990093,15.4141818 39.3990093,10.6850909 C39.3990093,5.95539394 30.7833349,1.96024242 20.5846837,1.96024242 M20.5846837,21.1838788 C9.04189302,21.1838788 -6.04651163e-05,16.5723636 -6.04651163e-05,10.6850909 C-6.04651163e-05,4.79721212 9.04189302,0.18569697 20.5846837,0.18569697 C32.1280791,0.18569697 41.1694279,4.79721212 41.1694279,10.6850909 C41.1694279,16.5723636 32.1280791,21.1838788 20.5846837,21.1838788" id="Fill-10" fill="#4688F1" mask="url(#mask-8)"></path>
                    </g>
                    <path d="M51.0210093,66.8700606 C51.0234279,73.5421818 45.6287302,78.9530909 38.9721256,78.9549091 C32.3149163,78.9567273 26.9178,73.5494545 26.9153814,66.8779394 C26.9135674,60.2058182 32.3082651,54.7949091 38.9648698,54.7930909 C45.6208698,54.7906667 51.0185907,60.1979394 51.0210093,66.8700606" id="Fill-13" fill="#FFFFFF"></path>
                    <g id="Group-17" transform="translate(26.000000, 53.753333)">
                        <mask id="mask-10" fill="white">
                            <use xlink:href="#path-9"></use>
                        </mask>
                        <g id="Clip-16"></g>
                        <path d="M12.9686791,1.89866667 L12.9650512,1.89866667 C9.97444651,1.89987879 7.1628186,3.06775758 5.04895814,5.18836364 C2.93509767,7.30836364 1.77174884,10.1265455 1.77235349,13.1241212 C1.77416744,19.3101818 6.79700465,24.342303 12.9686791,24.3429091 L12.972307,24.3429091 C19.1457953,24.3404848 24.166214,19.3047273 24.1644,13.1174545 C24.1619814,6.93078788 19.1397488,1.89866667 12.9686791,1.89866667 Z M12.9692837,26.0604848 C5.85133023,26.0604848 0.0605860465,20.2586667 0.0581674419,13.1241212 C0.0575627907,9.66836364 1.39928372,6.41866667 3.83663256,3.97381818 C6.27458605,1.5289697 9.51612093,0.18169697 12.9644465,0.181090909 L12.9692837,0.181090909 C20.0854233,0.181090909 25.8755628,5.98230303 25.8779814,13.1162424 C25.8791907,16.5726061 24.5374698,19.822303 22.1001209,22.2671515 C19.6621674,24.7126061 16.4206326,26.0592727 12.9729116,26.0604848 L12.9692837,26.0604848 Z" id="Fill-15" fill="#4688F1" mask="url(#mask-10)"></path>
                    </g>
                    <path d="M43.315214,65.7804242 L40.5314,65.7804242 L43.1199116,59.5470909 C43.2505163,59.2204242 42.8429814,58.9434545 42.5823767,59.187697 L34.3929814,67.3961818 C34.1819581,67.608303 34.3282837,67.9507273 34.6209349,67.9507273 L37.4053535,67.9507273 L34.8162372,74.2016364 C34.6862372,74.527697 35.0931674,74.8052727 35.3537721,74.5598182 L43.5431674,66.3513333 C43.7547953,66.1398182 43.6078651,65.7804242 43.315214,65.7804242" id="Fill-18" fill="#4688F1"></path>
                </g>
            </g>
        </g>
    </g>
</svg>