<svg width="155" height="154" viewBox="0 0 155 154" fill="none" xmlns="http://www.w3.org/2000/svg">
<g filter="url(#filter0_d_3791_45619)">
<rect x="8.5" y="4" width="138" height="138" rx="10" fill="white" shape-rendering="crispEdges"/>
<g clip-path="url(#clip0_3791_45619)">
<path d="M98.308 54.9341H55.6927C52.6227 54.9341 50.1342 57.7099 50.1342 61.134V71.4671C50.1342 74.8913 52.6229 77.667 55.6927 77.667H72.3682V74.567C72.3124 73.4858 73.1402 72.5625 74.2211 72.5003H79.7797C80.8605 72.5624 81.6883 73.4858 81.6325 74.567V77.667H98.3081C101.378 77.667 103.867 74.8912 103.867 71.4671V61.134C103.867 57.7099 101.378 54.9341 98.308 54.9341Z" fill="white"/>
<path d="M50.134 71.4671V61.134C50.134 57.7098 52.6227 54.9341 55.6926 54.9341H53.234C49.8099 54.9341 47.0341 57.7099 47.0341 61.134V71.4671C47.0341 74.8913 49.81 77.667 53.234 77.667H55.6927C52.6227 77.667 50.134 74.8913 50.134 71.4671Z" fill="white"/>
<path d="M100.767 54.9341H98.3079C101.378 54.9341 103.866 57.7099 103.866 61.134V71.4671C103.866 74.8913 101.378 77.667 98.3079 77.667H100.767C104.191 77.667 106.966 74.8912 106.966 71.4671V61.134C106.966 57.7099 104.191 54.9341 100.767 54.9341Z" fill="white"/>
<path d="M101.8 96.2668V76.0791C100.839 77.0813 99.5145 77.6538 98.1259 77.6672H81.5929V80.7672C81.6524 81.8439 80.832 82.7669 79.7559 82.834H74.2449C73.1687 82.7669 72.3483 81.8439 72.4079 80.7672V77.6672H55.8749C54.4864 77.6539 53.1619 77.0814 52.2007 76.0791V96.2669H101.8V96.2668Z" fill="white"/>
<path d="M49.1008 76.0791V96.2669H52.2008V77.5694C51.0471 77.3758 49.9722 76.8589 49.1008 76.0791Z" fill="white"/>
<path d="M101.8 77.5694V96.2668H104.9V76.0791C104.028 76.8589 102.954 77.3758 101.8 77.5694Z" fill="white"/>
<path d="M57.7117 102.466H96.2889C99.3326 102.466 101.8 99.6906 101.8 96.2666H52.2007C52.2007 99.6906 54.6682 102.466 57.7117 102.466Z" fill="white"/>
<path d="M52.2007 96.2666H49.1007C49.1007 99.6908 51.8765 102.466 55.3006 102.466H57.7117C54.6681 102.466 52.2007 99.6906 52.2007 96.2666Z" fill="white"/>
<path d="M101.8 96.2666C101.8 99.6908 99.333 102.466 96.2894 102.466H98.7005C102.125 102.466 104.9 99.6906 104.9 96.2666H101.8Z" fill="white"/>
<path d="M73.9008 72.5005H80.1007C81.2421 72.5005 82.1674 73.4258 82.1674 74.5672V80.7671C82.1674 81.9085 81.2421 82.8338 80.1007 82.8338H73.9008C72.7594 82.8338 71.8341 81.9085 71.8341 80.7671V74.5672C71.8342 73.4256 72.7595 72.5005 73.9008 72.5005Z" fill="white"/>
<path d="M73.9004 72.5005H77.0004C78.1418 72.5005 79.0671 73.4258 79.0671 74.5672V80.7671C79.0671 81.9085 78.1418 82.8338 77.0004 82.8338H73.9004C72.759 82.8338 71.8337 81.9085 71.8337 80.7671V74.5672C71.8338 73.4256 72.7591 72.5005 73.9004 72.5005Z" fill="white"/>
<path d="M83.2002 50.8006C79.1759 49.4592 74.8248 49.4592 70.8005 50.8006V42.5342C74.8248 43.8757 79.1759 43.8757 83.2002 42.5342V50.8006Z" fill="white"/>
<path d="M64.6006 54.9342H60.4673C60.4738 49.2301 65.0962 44.6076 70.8005 44.6011V48.7344C67.3779 48.7381 64.6043 51.5118 64.6006 54.9342Z" fill="white"/>
<path d="M83.2003 48.7344V44.6011C88.9044 44.6076 93.5269 49.23 93.5334 54.9342H89.4003C89.3964 51.5118 86.6229 48.7381 83.2003 48.7344Z" fill="white"/>
<path d="M83.2007 51.8341C83.0896 51.8344 82.9793 51.8163 82.8742 51.7806C79.0601 50.5192 74.9414 50.5192 71.1274 51.7806C70.8124 51.8861 70.4659 51.8334 70.1963 51.6392C69.9268 51.4449 69.7673 51.1329 69.7675 50.8007V42.5343C69.7675 42.2021 69.9271 41.8902 70.1963 41.6957C70.4653 41.5001 70.8124 41.4474 71.1273 41.5544C74.9414 42.8158 79.0601 42.8158 82.8742 41.5544C83.1892 41.4489 83.5358 41.5016 83.8053 41.6957C84.0749 41.8898 84.2345 42.202 84.2341 42.5341V50.8007C84.2343 51.0749 84.1256 51.3379 83.9317 51.5316C83.7377 51.7256 83.4748 51.8344 83.2007 51.8341ZM77.0008 48.7684C78.7435 48.7677 80.4793 48.9864 82.1674 49.4193V43.9157C78.7776 44.7836 75.224 44.7836 71.8342 43.9157V49.4193C73.5222 48.9864 75.258 48.7677 77.0008 48.7684Z" fill="url(#paint0_linear_3791_45619)"/>
<path d="M64.601 55.9674H60.4677C60.1937 55.9675 59.9308 55.8586 59.7369 55.6648C59.5431 55.4709 59.4343 55.2081 59.4343 54.934C59.4415 48.6594 64.5262 43.5745 70.8009 43.5674C71.0749 43.5673 71.3378 43.6761 71.5317 43.87C71.7255 44.0637 71.8343 44.3266 71.8343 44.6008V48.734C71.8344 49.008 71.7256 49.2709 71.5317 49.4648C71.338 49.6585 71.0751 49.7674 70.8009 49.7674C67.9488 49.7708 65.6377 52.082 65.6343 54.934C65.6344 55.208 65.5256 55.4709 65.3317 55.6648C65.1377 55.8588 64.8751 55.9675 64.601 55.9674ZM61.5581 53.9007H63.6414C64.1044 50.7286 66.5957 48.2375 69.7676 47.7744V45.6916C65.4523 46.1805 62.047 49.5856 61.5581 53.9007Z" fill="url(#paint1_linear_3791_45619)"/>
<path d="M93.5339 55.9673H89.4007C89.1267 55.9674 88.8638 55.8585 88.6699 55.6646C88.4761 55.4708 88.3673 55.208 88.3673 54.9338C88.3639 52.0817 86.0527 49.7707 83.2007 49.7673C82.9267 49.7674 82.6638 49.6585 82.4699 49.4646C82.2762 49.2709 82.1673 49.008 82.1673 48.7338V44.6008C82.1672 44.3268 82.2761 44.0639 82.4699 43.87C82.6637 43.6762 82.9266 43.5674 83.2007 43.5674C89.4753 43.5745 94.5602 48.6593 94.5673 54.934C94.5675 55.208 94.4586 55.4709 94.2647 55.6648C94.0708 55.8585 93.808 55.9674 93.5339 55.9673ZM90.3603 53.9006H92.4436C91.9545 49.5855 88.5493 46.1803 84.234 45.6915V47.7743C87.4061 48.2375 89.8972 50.7287 90.3603 53.9006Z" fill="url(#paint2_linear_3791_45619)"/>
<path d="M80.1008 83.8672H73.901C72.1897 83.8653 70.8028 82.4785 70.801 80.7672V74.5673C70.8028 72.856 72.1897 71.4691 73.901 71.4673H80.1008C81.8121 71.4691 83.199 72.856 83.2008 74.5673V80.7672C83.1988 82.4785 81.812 83.8653 80.1008 83.8672ZM73.9008 73.534C73.3304 73.5346 72.868 73.9968 72.8675 74.5673V80.7672C72.8682 81.3376 73.3304 81.8 73.9008 81.8005H80.1007C80.6712 81.7999 81.1335 81.3376 81.134 80.7672V74.5673C81.1334 73.9968 80.6712 73.5345 80.1007 73.534H73.9008Z" fill="url(#paint3_linear_3791_45619)"/>
<path d="M98.7005 103.5H55.3013C51.3084 103.495 48.0727 100.26 48.0681 96.2668C48.068 95.9928 48.1768 95.7299 48.3707 95.536C48.5644 95.3423 48.8273 95.2334 49.1015 95.2334H104.901C105.175 95.2333 105.438 95.3421 105.631 95.536C105.825 95.7298 105.934 95.9927 105.934 96.2668C105.929 100.26 102.693 103.495 98.7005 103.5ZM50.2384 97.3001C50.7326 99.7039 52.8471 101.43 55.301 101.433H98.7003C101.154 101.43 103.269 99.7038 103.763 97.3001H50.2384Z" fill="url(#paint4_linear_3791_45619)"/>
<path d="M100.767 78.7004H82.1673C81.8933 78.7005 81.6304 78.5917 81.4365 78.3978C81.2427 78.2039 81.1339 77.9411 81.1339 77.667V74.567C81.1333 73.9965 80.6711 73.5342 80.1006 73.5337H73.9007C73.3303 73.5343 72.8679 73.9965 72.8674 74.567V77.667C72.8676 77.941 72.7587 78.2039 72.5648 78.3978C72.371 78.5917 72.1082 78.7004 71.834 78.7004H53.2344C49.2416 78.6958 46.0058 75.46 46.0012 71.4672V61.1341C46.0058 57.1412 49.2416 53.9055 53.2344 53.9009H100.767C104.76 53.9055 107.996 57.1412 108 61.1341V71.4672C107.996 75.46 104.76 78.6957 100.767 78.7004ZM83.2007 76.6337H100.767C103.619 76.6303 105.93 74.3191 105.934 71.4671V61.1339C105.93 58.2818 103.619 55.9707 100.767 55.9673H53.2345C50.3824 55.9707 48.0713 58.2819 48.0679 61.1339V71.4671C48.0713 74.3192 50.3825 76.6303 53.2345 76.6337H70.801V74.5671C70.8028 72.8558 72.1897 71.4689 73.901 71.4671H80.1009C81.8122 71.4689 83.199 72.8558 83.2009 74.5671L83.2007 76.6337Z" fill="url(#paint5_linear_3791_45619)"/>
<path d="M104.9 97.3002H49.1014C48.8273 97.3003 48.5644 97.1915 48.3706 96.9976C48.1768 96.8038 48.068 96.5409 48.068 96.2668V76.0788C48.068 75.6709 48.3078 75.3012 48.6803 75.1351C49.0528 74.9689 49.4882 75.0374 49.7916 75.3098C50.7365 76.1611 51.9629 76.6326 53.2347 76.6337H71.8344C72.1085 76.6336 72.3714 76.7425 72.5652 76.9363C72.759 77.1301 72.8678 77.393 72.8678 77.6671V80.7671C72.8684 81.3376 73.3307 81.8 73.9011 81.8004H80.101C80.6715 81.7998 81.1338 81.3376 81.1343 80.7671V77.6671C81.1342 77.3931 81.243 77.1302 81.4369 76.9363C81.6307 76.7426 81.8936 76.6337 82.1677 76.6337H100.767C102.039 76.6326 103.266 76.1611 104.211 75.3098C104.514 75.0374 104.949 74.9689 105.322 75.1351C105.694 75.3012 105.934 75.6709 105.934 76.0788V96.2668C105.934 96.5408 105.825 96.8037 105.632 96.9976C105.437 97.1913 105.174 97.3002 104.9 97.3002ZM50.1345 95.2335H103.867V77.998C102.899 78.4604 101.84 78.7004 100.767 78.7003H83.2008V80.767C83.199 82.4783 81.8121 83.8652 80.1008 83.867H73.9009C72.1896 83.8652 70.8027 82.4783 70.8009 80.767V78.7003H53.2345C52.1618 78.7004 51.1026 78.4604 50.1345 77.998V95.2335Z" fill="url(#paint6_linear_3791_45619)"/>
</g>
</g>
<defs>
<filter id="filter0_d_3791_45619" x="0.5" y="0" width="154" height="154" filterUnits="userSpaceOnUse" color-interpolation-filters="sRGB">
<feFlood flood-opacity="0" result="BackgroundImageFix"/>
<feColorMatrix in="SourceAlpha" type="matrix" values="0 0 0 0 0 0 0 0 0 0 0 0 0 0 0 0 0 0 127 0" result="hardAlpha"/>
<feOffset dy="4"/>
<feGaussianBlur stdDeviation="4"/>
<feComposite in2="hardAlpha" operator="out"/>
<feColorMatrix type="matrix" values="0 0 0 0 0 0 0 0 0 0 0 0 0 0 0 0 0 0 0.15 0"/>
<feBlend mode="normal" in2="BackgroundImageFix" result="effect1_dropShadow_3791_45619"/>
<feBlend mode="normal" in="SourceGraphic" in2="effect1_dropShadow_3791_45619" result="shape"/>
</filter>
<linearGradient id="paint0_linear_3791_45619" x1="69.7675" y1="51.8341" x2="79.5433" y2="38.1492" gradientUnits="userSpaceOnUse">
<stop stop-color="#A03291"/>
<stop offset="1" stop-color="#FF7C66"/>
</linearGradient>
<linearGradient id="paint1_linear_3791_45619" x1="59.4343" y1="55.9674" x2="71.8343" y2="43.5674" gradientUnits="userSpaceOnUse">
<stop stop-color="#A03291"/>
<stop offset="1" stop-color="#FF7C66"/>
</linearGradient>
<linearGradient id="paint2_linear_3791_45619" x1="82.1673" y1="55.9673" x2="94.5672" y2="43.5673" gradientUnits="userSpaceOnUse">
<stop stop-color="#A03291"/>
<stop offset="1" stop-color="#FF7C66"/>
</linearGradient>
<linearGradient id="paint3_linear_3791_45619" x1="70.801" y1="83.8672" x2="83.2008" y2="71.4673" gradientUnits="userSpaceOnUse">
<stop stop-color="#A03291"/>
<stop offset="1" stop-color="#FF7C66"/>
</linearGradient>
<linearGradient id="paint4_linear_3791_45619" x1="48.0681" y1="103.5" x2="50.3827" y2="87.2975" gradientUnits="userSpaceOnUse">
<stop stop-color="#A03291"/>
<stop offset="1" stop-color="#FF7C66"/>
</linearGradient>
<linearGradient id="paint5_linear_3791_45619" x1="46.0012" y1="78.7004" x2="63.1043" y2="35.9426" gradientUnits="userSpaceOnUse">
<stop stop-color="#A03291"/>
<stop offset="1" stop-color="#FF7C66"/>
</linearGradient>
<linearGradient id="paint6_linear_3791_45619" x1="48.068" y1="97.3002" x2="62.9802" y2="58.5257" gradientUnits="userSpaceOnUse">
<stop stop-color="#A03291"/>
<stop offset="1" stop-color="#FF7C66"/>
</linearGradient>
<clipPath id="clip0_3791_45619">
<rect width="62.0005" height="62" fill="white" transform="translate(45.9998 41.5)"/>
</clipPath>
</defs>
</svg>
