<svg width="155" height="154" viewBox="0 0 155 154" fill="none" xmlns="http://www.w3.org/2000/svg">
<g filter="url(#filter0_d_3791_45675)">
<rect x="8.5" y="4" width="138" height="138" rx="10" fill="white" shape-rendering="crispEdges"/>
<g clip-path="url(#clip0_3791_45675)">
<path d="M68.3691 104.956C68.884 105.214 69.3273 105.596 69.6599 106.066C71.4348 108.659 74.3773 110.207 77.5201 110.2C80.6629 110.193 83.5986 108.633 85.3627 106.032C85.6823 105.58 86.108 105.215 86.6024 104.967C93.8989 101.443 98.5471 94.0665 98.5783 85.9633C98.7037 77.1297 93.3915 69.1253 85.2026 65.8093C84.2837 65.4268 83.6883 64.5248 83.6985 63.5292V55.6418C83.6985 52.7288 86.4502 50.7689 88.0895 49.8613C89.4938 49.0763 90.1908 47.4421 89.7855 45.8852C89.3797 44.3283 87.9737 43.2419 86.3645 43.2424H84.9387V39.5223C84.9387 37.4682 83.2734 35.8022 81.2186 35.8022H73.779C71.7243 35.8022 70.0589 37.4682 70.0589 39.5223V43.2424H68.6331C67.0251 43.243 65.6208 44.3294 65.215 45.8852C64.8091 47.441 65.5044 49.0752 66.907 49.8613C68.5462 50.7689 71.2991 52.7277 71.2991 55.6418V63.7546C71.2855 64.7655 70.6714 65.6708 69.7382 66.0574C62.1232 69.4687 56.6555 77.4016 56.4284 85.3475C56.1974 93.6652 60.8733 101.343 68.3691 104.956ZM72.5388 39.5223C72.5388 38.8372 73.0939 38.2821 73.779 38.2821H81.2186C81.9037 38.2821 82.4588 38.8372 82.4588 39.5223V43.2424H72.5388V39.5223ZM70.7537 68.3193C72.5717 67.5246 73.7552 65.7384 73.779 63.7546V55.6418C73.779 51.4568 70.2264 48.864 68.1086 47.6913C67.7766 47.5074 67.5728 47.1555 67.579 46.7758C67.5796 46.194 68.0513 45.7229 68.6331 45.7223H86.3645C86.6444 45.7223 86.9128 45.8341 87.1109 46.0322C87.3085 46.2309 87.4192 46.4999 87.4186 46.7798C87.4231 47.1583 87.2194 47.5086 86.8879 47.6913C84.7701 48.864 81.2186 51.458 81.2186 55.6418V63.5292C81.2135 65.5408 82.4282 67.3549 84.2899 68.1166C91.5303 71.0608 96.2199 78.1485 96.0984 85.9633C96.0706 93.1135 91.9697 99.6216 85.5324 102.733C84.6651 103.157 83.917 103.791 83.3551 104.577C82.0581 106.534 79.8683 107.713 77.5201 107.72C75.1719 107.727 72.9758 106.56 71.6675 104.61C71.0931 103.808 70.3297 103.16 69.4453 102.723C62.8287 99.5354 58.7017 92.7593 58.9054 85.4179C59.3959 77.9686 63.9509 71.3946 70.7537 68.3193Z" fill="url(#paint0_linear_3791_45675)"/>
<path d="M65.7471 78.4303C66.9016 79.0047 68.2587 79.0047 69.4132 78.4303L71.8136 77.2292C72.2711 77.0039 72.8064 77.0039 73.2633 77.2292L75.6666 78.4303C76.8211 79.0047 78.1782 79.0047 79.3327 78.4303L81.7337 77.2292C82.1906 77.0039 82.7259 77.0039 83.1828 77.2292L85.586 78.4303C86.7406 79.0041 88.0971 79.0041 89.2516 78.4303C89.6581 78.239 89.9294 77.8417 89.96 77.3933C89.9907 76.9449 89.7755 76.5146 89.3987 76.2694C89.0218 76.0242 88.5416 76.0026 88.1442 76.2121C87.6868 76.4369 87.1515 76.4369 86.6946 76.2121L84.2913 75.0105C83.1368 74.4366 81.7797 74.4366 80.6252 75.0105L78.2248 76.2121C77.7673 76.4369 77.232 76.4369 76.7751 76.2121L74.3718 75.0105C73.2173 74.4366 71.8602 74.4366 70.7051 75.0105L68.3047 76.2121C67.8472 76.4369 67.3114 76.4369 66.8539 76.2121C66.2443 75.9249 65.5172 76.1769 65.2158 76.7803C64.915 77.3831 65.1505 78.1158 65.7471 78.4303Z" fill="url(#paint1_linear_3791_45675)"/>
<path d="M91.6927 57.0121C91.0797 56.7056 90.3344 56.9542 90.0285 57.5672L88.7888 60.0477C88.4823 60.6601 88.7315 61.4054 89.3439 61.7113C89.9569 62.0173 90.7022 61.7687 91.0081 61.1562L92.2484 58.6758C92.5543 58.0633 92.3057 57.3181 91.6927 57.0121Z" fill="url(#paint2_linear_3791_45675)"/>
<path d="M91.5015 65.1976C91.9862 65.6817 92.7707 65.6817 93.2548 65.1976L94.4951 63.9579C94.965 63.4709 94.9582 62.6978 94.4797 62.2193C94.0018 61.7414 93.2282 61.7346 92.7417 62.2046L91.5015 63.4442C91.0179 63.9284 91.0179 64.7134 91.5015 65.1976Z" fill="url(#paint3_linear_3791_45675)"/>
<path d="M65.0993 61.842C65.529 61.8414 65.9281 61.6189 66.1534 61.2534C66.3793 60.8879 66.3997 60.4321 66.2079 60.0478L64.9682 57.5674C64.6617 56.9549 63.917 56.7063 63.304 57.0123C62.691 57.3182 62.4424 58.0635 62.7483 58.6759L63.9885 61.1563C64.1986 61.5769 64.6288 61.8426 65.0993 61.842Z" fill="url(#paint4_linear_3791_45675)"/>
<path d="M60.5029 62.2049C60.0187 62.6891 60.0187 63.4741 60.5029 63.9583L61.7431 65.1979C62.2296 65.6679 63.0026 65.6611 63.4811 65.1826C63.9596 64.7047 63.9659 63.931 63.4965 63.4446L62.2562 62.2049C61.7721 61.7208 60.9871 61.7208 60.5029 62.2049Z" fill="url(#paint5_linear_3791_45675)"/>
<path d="M87.4187 87.8708L81.6864 86.538L78.4948 82.1868C78.2501 81.8854 77.8823 81.71 77.4941 81.71C77.1058 81.71 76.738 81.8854 76.4934 82.1868L73.3017 86.538L67.5791 87.8708C67.1489 87.9712 66.8038 88.2925 66.6744 88.7154C66.5449 89.1382 66.65 89.5974 66.9508 89.9221L70.6272 93.8897L70.307 98.9624C70.2815 99.3756 70.4631 99.774 70.7918 100.025C71.121 100.276 71.5535 100.347 71.9452 100.213L77.4992 98.3215L83.0589 100.213C83.4505 100.347 83.883 100.276 84.2123 100.025C84.5409 99.774 84.7225 99.3756 84.697 98.9624L84.3757 93.8846L88.0521 89.917C88.3501 89.5917 88.4534 89.1331 88.3229 88.712C88.1923 88.2908 87.8478 87.9707 87.4187 87.8708ZM82.1944 92.5927C81.9634 92.8419 81.8448 93.175 81.8658 93.5139L82.1042 97.272L77.8982 95.8411C77.6394 95.752 77.3584 95.752 77.0996 95.8411L72.8936 97.272L73.132 93.5139C73.153 93.175 73.0344 92.8419 72.8034 92.5927L70.2179 89.8029L74.316 88.8482C74.6044 88.7812 74.8598 88.6132 75.0352 88.3742L77.4992 85.0163L79.9626 88.3771C80.138 88.6155 80.3934 88.7835 80.6817 88.8504L84.7799 89.8052L82.1944 92.5927Z" fill="url(#paint6_linear_3791_45675)"/>
<path d="M52.9973 69.3866L49.8789 68.6158L48.1432 66.0984C47.9002 65.78 47.5228 65.5933 47.1226 65.5933C46.7225 65.5933 46.345 65.78 46.1021 66.0984L44.3663 68.6158L41.2428 69.3866C40.8233 69.4904 40.4879 69.8049 40.3573 70.2176C40.2273 70.6296 40.3216 71.0797 40.6054 71.4056L42.609 73.7021L42.4342 76.6468C42.4092 77.0635 42.5954 77.4647 42.9303 77.7145C43.2646 77.9642 43.7022 78.0289 44.0944 77.8865L47.1198 76.7916L50.1457 77.8865C50.2813 77.9359 50.4244 77.9608 50.5686 77.9614C50.9103 77.962 51.2378 77.8212 51.4728 77.572C51.7072 77.3234 51.8286 76.9885 51.8082 76.6468L51.6334 73.7021L53.637 71.4056C53.9214 71.0797 54.0151 70.6296 53.8851 70.2176C53.7551 69.8049 53.4196 69.4904 53.0002 69.3866H52.9973ZM49.4277 72.4556C49.2142 72.7008 49.1058 73.0193 49.1251 73.3434L49.2182 74.9134L47.5426 74.3072C47.2696 74.2078 46.9705 74.2078 46.6975 74.3072L45.0219 74.9134L45.115 73.3434C45.1343 73.0193 45.0259 72.7008 44.8125 72.4556L43.8106 71.3062L45.4141 70.9095C45.707 70.8379 45.9641 70.6614 46.1367 70.4134L47.1198 68.9853L48.1034 70.41C48.276 70.6574 48.5331 70.834 48.826 70.9061L50.4295 71.3028L49.4277 72.4556Z" fill="url(#paint7_linear_3791_45675)"/>
<path d="M53.1002 98.3372C52.8578 98.0188 52.4804 97.832 52.0802 97.832C51.6795 97.832 51.302 98.0188 51.0597 98.3372L49.3234 100.855L46.2049 101.625C45.7855 101.729 45.45 102.044 45.32 102.456C45.19 102.868 45.2837 103.319 45.5675 103.644L47.5717 105.94L47.3941 108.886C47.3691 109.302 47.5558 109.704 47.8901 109.953C48.2245 110.203 48.6621 110.268 49.0543 110.125L52.0802 109.03L55.1056 110.125C55.2412 110.174 55.3843 110.2 55.5284 110.2C55.8707 110.2 56.1976 110.059 56.4326 109.811C56.667 109.562 56.7891 109.227 56.7681 108.886L56.5933 105.94L58.5975 103.644C58.8813 103.319 58.9749 102.868 58.8449 102.456C58.715 102.044 58.3795 101.729 57.96 101.625L54.8416 100.855L53.1002 98.3372ZM54.3875 104.694C54.1741 104.94 54.0657 105.258 54.085 105.582L54.1781 107.152L52.5031 106.546C52.2295 106.447 51.9304 106.447 51.6573 106.546L49.9818 107.152L50.0749 105.582C50.0942 105.258 49.9857 104.94 49.7723 104.694L48.7705 103.545L50.374 103.148C50.6669 103.076 50.924 102.9 51.0966 102.652L52.0802 101.224L53.0633 102.649C53.2359 102.896 53.493 103.073 53.7864 103.144L55.3894 103.541L54.3875 104.694Z" fill="url(#paint8_linear_3791_45675)"/>
<path d="M114.641 70.2176C114.511 69.8055 114.175 69.4904 113.755 69.3866L110.637 68.6158L108.901 66.0984C108.658 65.78 108.281 65.5933 107.88 65.5933C107.48 65.5933 107.103 65.78 106.86 66.0984L105.124 68.6158L102.006 69.3866C101.586 69.4904 101.251 69.8049 101.12 70.2176C100.99 70.6296 101.084 71.0797 101.368 71.4056L103.372 73.7021L103.197 76.6468C103.172 77.0635 103.358 77.4647 103.693 77.7145C104.028 77.9642 104.465 78.0289 104.857 77.8865L107.883 76.7916L110.909 77.8865C111.044 77.9359 111.187 77.9608 111.332 77.9614C111.673 77.962 112.001 77.8212 112.235 77.572C112.47 77.3234 112.592 76.9885 112.571 76.6468L112.396 73.7021L114.4 71.4056C114.682 71.0786 114.773 70.6285 114.641 70.2176ZM110.186 72.4494C109.972 72.6946 109.864 73.013 109.883 73.3371L109.976 74.9071L108.301 74.3009C108.028 74.2016 107.728 74.2016 107.455 74.3009L105.78 74.9071L105.873 73.3371C105.892 73.013 105.784 72.6946 105.57 72.4494L104.569 71.3L106.172 70.9032C106.465 70.8317 106.722 70.6552 106.895 70.4071L107.878 68.9824L108.861 70.4071C109.034 70.6552 109.291 70.8317 109.584 70.9032L111.187 71.3L110.186 72.4494Z" fill="url(#paint9_linear_3791_45675)"/>
<path d="M97.0408 101.625C96.6213 101.729 96.2858 102.044 96.1553 102.456C96.0253 102.868 96.1195 103.319 96.4033 103.644L98.407 105.94L98.2322 108.886C98.2072 109.302 98.3934 109.704 98.7283 109.953C99.0626 110.203 99.5002 110.268 99.8924 110.125L102.918 109.03L105.944 110.125C106.079 110.174 106.222 110.2 106.367 110.2C106.708 110.2 107.036 110.059 107.271 109.811C107.505 109.562 107.627 109.227 107.606 108.886L107.431 105.94L109.435 103.644C109.719 103.319 109.813 102.868 109.683 102.456C109.553 102.044 109.218 101.729 108.798 101.625L105.679 100.855L103.943 98.3372C103.7 98.0188 103.324 97.832 102.923 97.832C102.523 97.832 102.145 98.0188 101.902 98.3372L100.167 100.855L97.0408 101.625ZM101.935 102.649L102.918 101.224L103.901 102.649C104.074 102.896 104.331 103.073 104.624 103.144L106.227 103.541L105.226 104.69C105.012 104.936 104.904 105.255 104.923 105.579L105.016 107.148L103.341 106.542C103.068 106.443 102.768 106.443 102.495 106.542L100.82 107.148L100.913 105.579C100.932 105.255 100.824 104.936 100.61 104.69L99.6086 103.541L101.212 103.144C101.505 103.073 101.762 102.896 101.935 102.649Z" fill="url(#paint10_linear_3791_45675)"/>
</g>
</g>
<defs>
<filter id="filter0_d_3791_45675" x="0.5" y="0" width="154" height="154" filterUnits="userSpaceOnUse" color-interpolation-filters="sRGB">
<feFlood flood-opacity="0" result="BackgroundImageFix"/>
<feColorMatrix in="SourceAlpha" type="matrix" values="0 0 0 0 0 0 0 0 0 0 0 0 0 0 0 0 0 0 127 0" result="hardAlpha"/>
<feOffset dy="4"/>
<feGaussianBlur stdDeviation="4"/>
<feComposite in2="hardAlpha" operator="out"/>
<feColorMatrix type="matrix" values="0 0 0 0 0 0 0 0 0 0 0 0 0 0 0 0 0 0 0.15 0"/>
<feBlend mode="normal" in2="BackgroundImageFix" result="effect1_dropShadow_3791_45675"/>
<feBlend mode="normal" in="SourceGraphic" in2="effect1_dropShadow_3791_45675" result="shape"/>
</filter>
<linearGradient id="paint0_linear_3791_45675" x1="56.4202" y1="110.2" x2="120.245" y2="74.0318" gradientUnits="userSpaceOnUse">
<stop stop-color="#A03291"/>
<stop offset="1" stop-color="#FF7C66"/>
</linearGradient>
<linearGradient id="paint1_linear_3791_45675" x1="65.0851" y1="78.8611" x2="66.5161" y2="70.5453" gradientUnits="userSpaceOnUse">
<stop stop-color="#A03291"/>
<stop offset="1" stop-color="#FF7C66"/>
</linearGradient>
<linearGradient id="paint2_linear_3791_45675" x1="88.6577" y1="61.8422" x2="93.4208" y2="58.2693" gradientUnits="userSpaceOnUse">
<stop stop-color="#A03291"/>
<stop offset="1" stop-color="#FF7C66"/>
</linearGradient>
<linearGradient id="paint3_linear_3791_45675" x1="91.1388" y1="65.5607" x2="94.843" y2="61.8564" gradientUnits="userSpaceOnUse">
<stop stop-color="#A03291"/>
<stop offset="1" stop-color="#FF7C66"/>
</linearGradient>
<linearGradient id="paint4_linear_3791_45675" x1="62.6174" y1="61.842" x2="67.3799" y2="58.2696" gradientUnits="userSpaceOnUse">
<stop stop-color="#A03291"/>
<stop offset="1" stop-color="#FF7C66"/>
</linearGradient>
<linearGradient id="paint5_linear_3791_45675" x1="60.1398" y1="65.546" x2="63.8439" y2="61.8414" gradientUnits="userSpaceOnUse">
<stop stop-color="#A03291"/>
<stop offset="1" stop-color="#FF7C66"/>
</linearGradient>
<linearGradient id="paint6_linear_3791_45675" x1="66.6199" y1="100.28" x2="84.9592" y2="78.7918" gradientUnits="userSpaceOnUse">
<stop stop-color="#A03291"/>
<stop offset="1" stop-color="#FF7C66"/>
</linearGradient>
<linearGradient id="paint7_linear_3791_45675" x1="40.2999" y1="77.9614" x2="52.6088" y2="64.3841" gradientUnits="userSpaceOnUse">
<stop stop-color="#A03291"/>
<stop offset="1" stop-color="#FF7C66"/>
</linearGradient>
<linearGradient id="paint8_linear_3791_45675" x1="45.2625" y1="110.2" x2="57.5711" y2="96.6248" gradientUnits="userSpaceOnUse">
<stop stop-color="#A03291"/>
<stop offset="1" stop-color="#FF7C66"/>
</linearGradient>
<linearGradient id="paint9_linear_3791_45675" x1="101.063" y1="77.9614" x2="113.372" y2="64.3888" gradientUnits="userSpaceOnUse">
<stop stop-color="#A03291"/>
<stop offset="1" stop-color="#FF7C66"/>
</linearGradient>
<linearGradient id="paint10_linear_3791_45675" x1="96.0979" y1="110.2" x2="108.406" y2="96.6224" gradientUnits="userSpaceOnUse">
<stop stop-color="#A03291"/>
<stop offset="1" stop-color="#FF7C66"/>
</linearGradient>
<clipPath id="clip0_3791_45675">
<rect width="74.4" height="74.4" fill="white" transform="translate(40.3 35.7998)"/>
</clipPath>
</defs>
</svg>
