<svg width="155" height="154" viewBox="0 0 155 154" fill="none" xmlns="http://www.w3.org/2000/svg">
<g filter="url(#filter0_d_3791_45756)">
<rect x="8.5" y="4" width="138" height="138" rx="10" fill="white" shape-rendering="crispEdges"/>
<g clip-path="url(#clip0_3791_45756)">
<path d="M57.6987 110.128H102.252C105.667 110.123 108.435 107.355 108.44 103.94V47.0108C108.434 44.0308 106.306 41.4779 103.375 40.9367C102.834 38.0063 100.281 35.8778 97.3013 35.8726H63.8866C63.5584 35.8726 63.2437 36.0031 63.0116 36.2352L46.923 52.3237C46.6909 52.5558 46.5605 52.8705 46.5604 53.1987V98.9893C46.5657 101.969 48.6942 104.522 51.6246 105.063C52.1658 107.994 54.7187 110.122 57.6987 110.128ZM105.964 47.0108V103.94C105.964 105.99 104.302 107.652 102.252 107.652H57.6987C56.1309 107.646 54.7362 106.655 54.2136 105.177H97.3013C100.717 105.173 103.485 102.405 103.489 98.9893V43.5258C104.967 44.0483 105.958 45.4431 105.964 47.0108ZM62.649 40.0977V48.2484C62.649 50.2989 60.9867 51.9611 58.9363 51.9611H50.7855L62.649 40.0977ZM49.0356 98.9893V54.4363H58.9363C62.352 54.4322 65.1201 51.6642 65.1242 48.2484V38.3477H97.3013C99.3518 38.3477 101.014 40.01 101.014 42.0605V98.9893C101.014 101.04 99.3518 102.702 97.3013 102.702H52.7483C50.6978 102.702 49.0356 101.04 49.0356 98.9893Z" fill="url(#paint0_linear_3791_45756)"/>
<path d="M82.4504 43.2979H89.8758C90.5593 43.2979 91.1134 42.7438 91.1134 42.0603C91.1134 41.3768 90.5593 40.8228 89.8758 40.8228H82.4504C81.7669 40.8228 81.2128 41.3768 81.2128 42.0603C81.2128 42.7438 81.7669 43.2979 82.4504 43.2979Z" fill="url(#paint1_linear_3791_45756)"/>
<path d="M94.8262 43.2979H97.3014C97.9849 43.2979 98.539 42.7438 98.539 42.0603C98.539 41.3768 97.9849 40.8228 97.3014 40.8228H94.8262C94.1427 40.8228 93.5886 41.3768 93.5886 42.0603C93.5886 42.7438 94.1427 43.2979 94.8262 43.2979Z" fill="url(#paint2_linear_3791_45756)"/>
<path d="M53.986 98.9893H55.2236C55.9071 98.9893 56.4612 98.4352 56.4612 97.7517C56.4612 97.0682 55.9071 96.5142 55.2236 96.5142H53.986C53.3025 96.5142 52.7484 97.0682 52.7484 97.7517C52.7484 98.4352 53.3025 98.9893 53.986 98.9893Z" fill="url(#paint3_linear_3791_45756)"/>
<path d="M96.0638 96.5142H84.9256C84.2421 96.5142 83.688 97.0682 83.688 97.7517C83.688 98.4352 84.2421 98.9893 84.9256 98.9893H96.0638C96.7473 98.9893 97.3014 98.4352 97.3014 97.7517C97.3014 97.0682 96.7473 96.5142 96.0638 96.5142Z" fill="url(#paint4_linear_3791_45756)"/>
<path d="M78.7376 96.5142H60.1739C59.4904 96.5142 58.9363 97.0682 58.9363 97.7517C58.9363 98.4352 59.4904 98.9893 60.1739 98.9893H78.7376C79.4211 98.9893 79.9752 98.4352 79.9752 97.7517C79.9752 97.0682 79.4211 96.5142 78.7376 96.5142Z" fill="url(#paint5_linear_3791_45756)"/>
<path d="M60.1738 81.6627H65.1241V86.613C65.1282 90.0288 67.8962 92.7969 71.312 92.801H78.7375C82.1533 92.7969 84.9213 90.0288 84.9254 86.613V81.6627H89.8757C93.2915 81.6586 96.0596 78.8906 96.0637 75.4748V68.0493C96.0596 64.6335 93.2915 61.8655 89.8757 61.8614H84.9254V56.9111C84.9213 53.4953 82.1533 50.7272 78.7375 50.7231H71.312C67.8962 50.7272 65.1282 53.4953 65.1241 56.9111V61.8614H60.1738C56.758 61.8655 53.9899 64.6335 53.9858 68.0493V75.4748C53.9899 78.8906 56.758 81.6586 60.1738 81.6627ZM89.8757 64.3366C91.9262 64.3366 93.5885 65.9988 93.5885 68.0493V75.4748C93.5885 77.5253 91.9262 79.1876 89.8757 79.1876H75.0247C74.3413 79.1876 73.7872 79.7416 73.7872 80.4251C73.7872 81.1086 74.3413 81.6627 75.0247 81.6627H82.4502V86.613C82.4502 88.6635 80.788 90.3258 78.7375 90.3258H71.312C69.2615 90.3258 67.5993 88.6635 67.5993 86.613V76.7124C67.5993 74.6619 69.2615 72.9996 71.312 72.9996H78.7375C82.1533 72.9955 84.9213 70.2275 84.9254 66.8117V64.3366H89.8757ZM56.461 68.0493C56.461 65.9988 58.1233 64.3366 60.1738 64.3366H75.0247C75.7082 64.3366 76.2623 63.7825 76.2623 63.099C76.2623 62.4155 75.7082 61.8614 75.0247 61.8614H67.5993V56.9111C67.5993 54.8606 69.2615 53.1983 71.312 53.1983H78.7375C80.788 53.1983 82.4502 54.8606 82.4502 56.9111V66.8117C82.4502 68.8622 80.788 70.5245 78.7375 70.5245H71.312C67.8962 70.5286 65.1282 73.2966 65.1241 76.7124V79.1876H60.1738C58.1233 79.1876 56.461 77.5253 56.461 75.4748V68.0493Z" fill="url(#paint6_linear_3791_45756)"/>
<path d="M72.5496 59.3863C73.2331 59.3863 73.7872 58.8322 73.7872 58.1487C73.7872 57.4652 73.2331 56.9111 72.5496 56.9111C71.8661 56.9111 71.312 57.4652 71.312 58.1487C71.312 58.8322 71.8661 59.3863 72.5496 59.3863Z" fill="url(#paint7_linear_3791_45756)"/>
<path d="M77.5 86.6133C78.1835 86.6133 78.7376 86.0593 78.7376 85.3758C78.7376 84.6923 78.1835 84.1382 77.5 84.1382C76.8165 84.1382 76.2625 84.6923 76.2625 85.3758C76.2625 86.0593 76.8165 86.6133 77.5 86.6133Z" fill="url(#paint8_linear_3791_45756)"/>
</g>
</g>
<defs>
<filter id="filter0_d_3791_45756" x="0.5" y="0" width="154" height="154" filterUnits="userSpaceOnUse" color-interpolation-filters="sRGB">
<feFlood flood-opacity="0" result="BackgroundImageFix"/>
<feColorMatrix in="SourceAlpha" type="matrix" values="0 0 0 0 0 0 0 0 0 0 0 0 0 0 0 0 0 0 127 0" result="hardAlpha"/>
<feOffset dy="4"/>
<feGaussianBlur stdDeviation="4"/>
<feComposite in2="hardAlpha" operator="out"/>
<feColorMatrix type="matrix" values="0 0 0 0 0 0 0 0 0 0 0 0 0 0 0 0 0 0 0.15 0"/>
<feBlend mode="normal" in2="BackgroundImageFix" result="effect1_dropShadow_3791_45756"/>
<feBlend mode="normal" in="SourceGraphic" in2="effect1_dropShadow_3791_45756" result="shape"/>
</filter>
<linearGradient id="paint0_linear_3791_45756" x1="46.5604" y1="110.128" x2="119.598" y2="49.2628" gradientUnits="userSpaceOnUse">
<stop stop-color="#A03291"/>
<stop offset="1" stop-color="#FF7C66"/>
</linearGradient>
<linearGradient id="paint1_linear_3791_45756" x1="81.2128" y1="43.2979" x2="82.3776" y2="38.6388" gradientUnits="userSpaceOnUse">
<stop stop-color="#A03291"/>
<stop offset="1" stop-color="#FF7C66"/>
</linearGradient>
<linearGradient id="paint2_linear_3791_45756" x1="93.5886" y1="43.2979" x2="95.5688" y2="39.3377" gradientUnits="userSpaceOnUse">
<stop stop-color="#A03291"/>
<stop offset="1" stop-color="#FF7C66"/>
</linearGradient>
<linearGradient id="paint3_linear_3791_45756" x1="52.7484" y1="98.9893" x2="55.0332" y2="95.5622" gradientUnits="userSpaceOnUse">
<stop stop-color="#A03291"/>
<stop offset="1" stop-color="#FF7C66"/>
</linearGradient>
<linearGradient id="paint4_linear_3791_45756" x1="83.688" y1="98.9893" x2="84.5592" y2="94.1974" gradientUnits="userSpaceOnUse">
<stop stop-color="#A03291"/>
<stop offset="1" stop-color="#FF7C66"/>
</linearGradient>
<linearGradient id="paint5_linear_3791_45756" x1="58.9363" y1="98.9893" x2="59.5107" y2="94.1066" gradientUnits="userSpaceOnUse">
<stop stop-color="#A03291"/>
<stop offset="1" stop-color="#FF7C66"/>
</linearGradient>
<linearGradient id="paint6_linear_3791_45756" x1="53.9858" y1="92.801" x2="96.0637" y2="50.7231" gradientUnits="userSpaceOnUse">
<stop stop-color="#A03291"/>
<stop offset="1" stop-color="#FF7C66"/>
</linearGradient>
<linearGradient id="paint7_linear_3791_45756" x1="71.312" y1="59.3863" x2="73.7872" y2="56.9111" gradientUnits="userSpaceOnUse">
<stop stop-color="#A03291"/>
<stop offset="1" stop-color="#FF7C66"/>
</linearGradient>
<linearGradient id="paint8_linear_3791_45756" x1="76.2625" y1="86.6133" x2="78.7376" y2="84.1382" gradientUnits="userSpaceOnUse">
<stop stop-color="#A03291"/>
<stop offset="1" stop-color="#FF7C66"/>
</linearGradient>
<clipPath id="clip0_3791_45756">
<rect width="62.0725" height="74.4" fill="white" transform="translate(46.4637 35.7998)"/>
</clipPath>
</defs>
</svg>
