<svg width="155" height="154" viewBox="0 0 155 154" fill="none" xmlns="http://www.w3.org/2000/svg">
<g filter="url(#filter0_d_3791_45657)">
<rect x="8.5" y="4" width="138" height="138" rx="10" fill="white" shape-rendering="crispEdges"/>
<g clip-path="url(#clip0_3791_45657)">
<path d="M111.386 70.2793L107.659 69.8713C106.4 67.3902 104.712 65.1517 102.672 63.2597C103.262 62.1644 103.641 60.9675 103.788 59.7319C103.978 57.9105 103.948 56.0729 103.701 54.2585L103.684 54.1035C103.697 52.4565 103.075 50.8677 101.948 49.6668C100.746 48.6091 98.4868 48.0349 94.5547 51.3011C92.8173 52.7205 91.4647 54.5541 90.6215 56.6331C90.5123 56.9158 90.4404 57.1985 90.3573 57.4825C89.7373 57.2829 89.1173 57.0981 88.5048 56.9319C90.6505 52.3278 90.2952 46.9465 87.5627 42.6645C84.8302 38.3825 80.0994 35.7933 75.0198 35.7999C72.1354 35.792 69.312 36.6301 66.899 38.2104C66.5287 38.4541 66.3164 38.8768 66.3423 39.3194C66.3681 39.7619 66.6281 40.1571 67.0243 40.356C67.4205 40.5549 67.8927 40.5274 68.263 40.2837C70.271 38.9697 72.6201 38.273 75.0198 38.2799C80.9934 38.2668 86.1262 42.5172 87.2271 48.3885C88.328 54.2599 85.0837 60.081 79.5111 62.2329C76.5442 61.7105 73.509 61.7105 70.5421 62.2329C65.7613 60.3972 62.6096 55.8011 62.6198 50.6799C62.6113 48.7208 63.075 46.7885 63.9714 45.0465C64.1738 44.6525 64.1507 44.1804 63.9106 43.808C63.6706 43.4356 63.2502 43.2196 62.8077 43.2413C62.3652 43.263 61.9679 43.5191 61.7654 43.9132C58.2387 50.7318 60.522 59.1153 67.0193 63.2039C66.0901 63.5435 65.206 63.9958 64.3868 64.5505C63.839 64.9487 63.712 65.7126 64.1014 66.2666C64.4908 66.8206 65.2527 66.9597 65.8128 66.5791C67.3194 65.6341 69.0007 65.0015 70.7567 64.7191H70.7914C73.5864 64.2 76.4531 64.2 79.2482 64.7191H79.2742C81.0331 65.0009 82.7173 65.6334 84.2268 66.5791C84.5889 66.8424 85.0648 66.89 85.4719 66.7036C85.879 66.5173 86.154 66.126 86.1915 65.6799C86.229 65.2338 86.0231 64.8021 85.6528 64.5505C84.8391 63.9969 83.9609 63.5447 83.0376 63.2039C84.6895 62.147 86.1174 60.7756 87.24 59.1677C88.1477 59.3971 89.0566 59.6637 89.968 59.9687C89.9477 60.6717 90.0131 61.3746 90.1627 62.0618C90.257 62.4987 90.5791 62.8509 91.0058 62.9839C91.4325 63.1168 91.8977 63.0099 92.2235 62.704C92.5493 62.3981 92.6853 61.9405 92.5794 61.5063C92.2911 60.1762 92.4135 58.7899 92.9303 57.5309C93.6203 55.8459 94.722 54.3609 96.1345 53.2119C98.0937 51.5826 99.6524 50.9576 100.306 51.5317C100.922 52.3488 101.24 53.3512 101.21 54.3738L101.227 54.5325C101.451 56.1517 101.481 57.7917 101.319 59.4181C101.215 61.1756 100.305 62.7865 98.8526 63.7817C98.4549 63.9884 98.1997 64.3935 98.185 64.8415C98.1704 65.2894 98.3986 65.7104 98.7819 65.9426C99.1653 66.1748 99.6441 66.1821 100.034 65.9616C100.419 65.7468 100.781 65.4915 101.112 65.2003C103.027 67.0067 104.584 69.1586 105.7 71.5429C105.881 71.9397 106.258 72.2119 106.692 72.2596L111.105 72.7432C111.736 72.8136 112.211 73.3487 112.207 73.9832V83.184C112.211 83.8185 111.736 84.3536 111.105 84.424L106.692 84.9076C106.257 84.9565 105.88 85.2313 105.7 85.6305C105.139 86.851 104.454 88.0103 103.655 89.0901C102.214 88.3823 101.233 86.9898 101.051 85.3949C100.996 84.7526 100.458 84.2597 99.8132 84.261C99.1685 84.2623 98.6324 84.7574 98.5798 85.3999C98.7403 87.7393 100.051 89.8468 102.078 91.0257C100.396 92.8259 98.4668 94.3774 96.3478 95.6336C96.0003 95.8405 95.7765 96.2048 95.7489 96.6082L94.9466 107.72H87.3305L86.8469 100.813C86.8225 100.46 86.6485 100.135 86.3688 99.9181C86.0891 99.7016 85.7302 99.6148 85.3825 99.6797L85.1667 99.7194C81.7489 100.465 78.2106 100.465 74.7929 99.7194L74.5771 99.6797C74.2294 99.6148 73.8705 99.7016 73.5908 99.9181C73.311 100.135 73.1371 100.46 73.1127 100.813L72.6266 107.72H65.0093L64.2157 96.6095C64.187 96.2067 63.964 95.843 63.618 95.6348C63.3985 95.5022 63.1889 95.3707 62.9261 95.2046C55.398 90.4107 51.5243 82.533 53.0581 75.1376C54.1228 70.5273 56.7612 66.4323 60.5192 63.5573C61.0551 63.1306 61.1437 62.3503 60.717 61.8144C60.2903 61.2786 59.5101 61.19 58.9742 61.6167C54.7629 64.8541 51.8118 69.4582 50.629 74.6367C50.3889 75.8138 50.2643 77.0115 50.257 78.2128C49.4336 78.2674 48.6326 78.3207 47.8613 78.3468C47.9059 78.1583 47.9431 77.9661 47.9717 77.7689C48.2148 76.4179 47.8073 75.0312 46.8718 74.0266C45.4872 72.7744 43.417 72.6567 41.8994 73.7439C41.0719 74.3266 40.5099 75.2143 40.337 76.2115C40.1848 77.347 40.5619 78.4896 41.36 79.3115C42.1649 80.0617 43.1921 80.5296 44.2864 80.6445C43.6602 81.9832 42.8745 83.2414 41.9465 84.3918C41.5212 84.93 41.6128 85.7112 42.1511 86.1364C42.6894 86.5617 43.4705 86.4701 43.8958 85.9318C45.0813 84.4636 46.0586 82.8387 46.7999 81.1033L46.9152 80.8379C48.0634 80.8379 49.2464 80.761 50.4021 80.6841C51.1907 87.0925 55.2157 93.2292 61.6625 97.3361L61.7927 97.418L62.5367 107.902C62.6399 109.197 63.7182 110.196 65.0167 110.2H72.6303C73.9311 110.193 75.0097 109.19 75.1103 107.893L75.4972 102.369C76.9749 102.647 78.4764 102.778 79.9798 102.76C81.4853 102.778 82.9888 102.647 84.4686 102.369L84.8567 107.902C84.9599 109.197 86.0382 110.196 87.3367 110.2H94.9503C96.2507 110.195 97.3296 109.192 97.4303 107.896L98.1743 97.4204C102.216 94.9877 105.502 91.4799 107.665 87.2884L111.385 86.8804C113.272 86.6735 114.701 85.0787 114.7 83.1803V73.9795C114.701 72.0814 113.273 70.4868 111.386 70.2793ZM45.5189 77.413C45.4722 77.7088 45.3975 77.9994 45.2957 78.281C44.5257 78.2956 43.7723 78.0564 43.1518 77.6003C42.8828 77.3323 42.7489 76.9575 42.7872 76.5798C42.8585 76.2436 43.0589 75.9489 43.3452 75.7589C43.6135 75.5742 43.9322 75.4767 44.2579 75.4799C44.5795 75.4673 44.8934 75.5802 45.1333 75.7948C45.5007 76.2478 45.6426 76.8431 45.5189 77.413Z" fill="url(#paint0_linear_3791_45657)"/>
<path d="M101.06 71.7605C101.06 71.0757 100.505 70.5205 99.8199 70.5205C99.1351 70.5205 98.5799 71.0757 98.5799 71.7605C98.5799 73.1302 97.4696 74.2405 96.0999 74.2405C94.7302 74.2405 93.6199 73.1302 93.6199 71.7605C93.6199 71.0757 93.0647 70.5205 92.3799 70.5205C91.6951 70.5205 91.1399 71.0757 91.1399 71.7605C91.1399 74.4998 93.3606 76.7205 96.0999 76.7205C98.8392 76.7205 101.06 74.4998 101.06 71.7605Z" fill="url(#paint1_linear_3791_45657)"/>
<path d="M76.2599 60.6005V60.4877C79.0148 60.0988 81.1002 57.8001 81.2199 55.0205C81.1002 52.2409 79.0148 49.9422 76.2599 49.5533V43.4315C77.6399 43.7445 78.6492 44.9284 78.7399 46.3405C78.7399 47.0253 79.2951 47.5805 79.9799 47.5805C80.6648 47.5805 81.2199 47.0253 81.2199 46.3405C81.1002 43.5609 79.0148 41.2622 76.2599 40.8733V40.7605C76.2599 40.0757 75.7048 39.5205 75.0199 39.5205C74.3351 39.5205 73.7799 40.0757 73.7799 40.7605V40.8733C71.0251 41.2622 68.9397 43.5609 68.8199 46.3405C68.9397 49.1201 71.0251 51.4188 73.7799 51.8077V57.9295C72.4 57.6165 71.3907 56.4326 71.2999 55.0205C71.2999 54.3357 70.7448 53.7805 70.0599 53.7805C69.3751 53.7805 68.8199 54.3357 68.8199 55.0205C68.9397 57.8001 71.0251 60.0988 73.7799 60.4877V60.6005C73.7799 61.2853 74.3351 61.8405 75.0199 61.8405C75.7048 61.8405 76.2599 61.2853 76.2599 60.6005ZM78.7399 55.0205C78.6492 56.4326 77.6399 57.6165 76.2599 57.9295V52.1115C77.6399 52.4245 78.6492 53.6084 78.7399 55.0205ZM71.2999 46.3405C71.3907 44.9284 72.4 43.7445 73.7799 43.4315V49.2495C72.4 48.9365 71.3907 47.7526 71.2999 46.3405Z" fill="url(#paint2_linear_3791_45657)"/>
</g>
</g>
<defs>
<filter id="filter0_d_3791_45657" x="0.5" y="0" width="154" height="154" filterUnits="userSpaceOnUse" color-interpolation-filters="sRGB">
<feFlood flood-opacity="0" result="BackgroundImageFix"/>
<feColorMatrix in="SourceAlpha" type="matrix" values="0 0 0 0 0 0 0 0 0 0 0 0 0 0 0 0 0 0 127 0" result="hardAlpha"/>
<feOffset dy="4"/>
<feGaussianBlur stdDeviation="4"/>
<feComposite in2="hardAlpha" operator="out"/>
<feColorMatrix type="matrix" values="0 0 0 0 0 0 0 0 0 0 0 0 0 0 0 0 0 0 0.15 0"/>
<feBlend mode="normal" in2="BackgroundImageFix" result="effect1_dropShadow_3791_45657"/>
<feBlend mode="normal" in="SourceGraphic" in2="effect1_dropShadow_3791_45657" result="shape"/>
</filter>
<linearGradient id="paint0_linear_3791_45657" x1="40.3038" y1="110.2" x2="114.704" y2="35.8039" gradientUnits="userSpaceOnUse">
<stop stop-color="#A03291"/>
<stop offset="1" stop-color="#FF7C66"/>
</linearGradient>
<linearGradient id="paint1_linear_3791_45657" x1="91.1399" y1="76.7205" x2="96.7129" y2="67.8037" gradientUnits="userSpaceOnUse">
<stop stop-color="#A03291"/>
<stop offset="1" stop-color="#FF7C66"/>
</linearGradient>
<linearGradient id="paint2_linear_3791_45657" x1="68.8199" y1="61.8405" x2="87.7709" y2="51.3122" gradientUnits="userSpaceOnUse">
<stop stop-color="#A03291"/>
<stop offset="1" stop-color="#FF7C66"/>
</linearGradient>
<clipPath id="clip0_3791_45657">
<rect width="74.4" height="74.4" fill="white" transform="translate(40.3 35.7998)"/>
</clipPath>
</defs>
</svg>
