<svg width="155" height="154" viewBox="0 0 155 154" fill="none" xmlns="http://www.w3.org/2000/svg">
<g filter="url(#filter0_d_3791_45738)">
<rect x="8.5" y="4" width="138" height="138" rx="10" fill="white" shape-rendering="crispEdges"/>
<g clip-path="url(#clip0_3791_45738)">
<path d="M112.22 95.3198H107.26V85.3998C107.26 84.0301 106.15 82.9198 104.78 82.9198H98.5243C98.3542 81.5779 97.6405 80.3648 96.5502 79.5644C97.4984 77.5763 97.589 75.2861 96.8007 73.2293C96.0123 71.1725 94.4142 69.5296 92.38 68.6846V66.1166C93.1589 65.5192 93.6169 64.5946 93.62 63.613V57.5866C93.6169 56.6051 93.1589 55.6804 92.38 55.083V49.3406C92.38 41.6204 85.9829 35.7998 77.5 35.7998C69.0172 35.7998 62.62 41.6204 62.62 49.3406V55.083C61.8412 55.6804 61.3832 56.6051 61.38 57.5866V63.613C61.3832 64.5946 61.8412 65.5192 62.62 66.1166V68.6846C60.586 69.5293 58.9879 71.172 58.1995 73.2286C57.4112 75.2852 57.5017 77.5752 58.4499 79.5631C57.3597 80.3642 56.6461 81.5777 56.4758 82.9198H50.22C48.8504 82.9198 47.74 84.0301 47.74 85.3998V95.3198H42.78C41.9573 95.3202 41.1882 95.7286 40.7271 96.41C40.266 97.0915 40.1729 97.9572 40.4786 98.7211L42.103 102.76L40.4749 106.807C40.1727 107.571 40.2681 108.434 40.7296 109.114C41.1911 109.793 41.9589 110.2 42.78 110.2H52.7C54.0697 110.2 55.18 109.089 55.18 107.72V105.24H99.82V107.72C99.82 109.089 100.93 110.2 102.3 110.2H112.22C113.043 110.2 113.812 109.792 114.274 109.11C114.735 108.429 114.828 107.563 114.523 106.798L112.897 102.76L114.525 98.7087C114.826 97.9456 114.73 97.0832 114.268 96.405C113.807 95.7268 113.04 95.3206 112.22 95.3198ZM76.5254 43.2398H78.4747C84.7739 43.2398 89.9 47.7732 89.9 53.3446V54.3998H87.7139C86.4925 53.4934 81.5474 50.7728 78.8678 48.6859C78.0628 48.0617 76.9373 48.0617 76.1323 48.6859C73.1737 50.9873 68.7283 53.3396 67.2874 54.3998H65.1V53.3446C65.1 47.7732 70.2262 43.2398 76.5254 43.2398ZM83.6281 68.8632C80.7538 74.0885 77.1702 76.3478 73.3188 71.7598H77.5C78.1849 71.7598 78.74 71.2046 78.74 70.5198C78.74 69.835 78.1849 69.2798 77.5 69.2798H71.6138C70.8451 67.9374 70.1818 66.5374 69.6298 65.0923C68.6068 62.4524 68.82 63.1319 68.82 56.3454C70.0278 55.4984 74.7522 52.861 77.5 50.7654C80.352 52.9478 85.3629 55.7254 86.18 56.3454C86.18 62.5776 86.252 62.5739 85.963 63.4456C85.3449 65.3164 84.5636 67.1292 83.6281 68.8632ZM64.5668 64.3198C64.3789 64.3215 64.1981 64.2475 64.0652 64.1146C63.9323 63.9817 63.8584 63.801 63.86 63.613V57.5866C63.8584 57.3986 63.9323 57.2179 64.0652 57.085C64.1981 56.9521 64.3789 56.8781 64.5668 56.8798H66.34C66.34 62.3631 66.2297 62.8504 66.6823 64.2268C66.7269 64.3607 66.96 64.3198 64.5668 64.3198ZM88.319 64.2243C88.7729 62.8417 88.66 62.3358 88.66 56.8798H90.4332C90.6212 56.8781 90.802 56.9521 90.9349 57.085C91.0678 57.2179 91.1417 57.3986 91.14 57.5866V63.613C91.1417 63.801 91.0678 63.9817 90.9349 64.1146C90.802 64.2475 90.6212 64.3215 90.4332 64.3198C87.9607 64.3198 88.2744 64.3582 88.319 64.2243ZM67.6458 66.7998C67.9657 67.5698 68.3476 68.4118 68.789 69.2798H67.58C66.2104 69.2798 65.1 68.1695 65.1 66.7998H67.6458ZM72.54 78.3318V74.5275C75.5991 77.3658 79.2125 77.5407 82.46 74.5275V78.3318C82.4885 79.6235 81.9617 80.8654 81.0133 81.7428C80.0648 82.6201 78.7856 83.0487 77.5 82.9198C76.2175 83.0353 74.9461 82.6022 74.0007 81.7278C73.0554 80.8533 72.5247 79.6194 72.54 78.3318ZM84.8446 79.428L94.0627 81.1032C95.0098 81.2791 95.7693 81.9874 96.0108 82.9198H83.3094C84.1142 81.908 84.6431 80.705 84.8446 79.428ZM94.2574 78.6195L84.94 76.9256V71.5006C85.8843 70.0093 86.6923 68.436 87.3543 66.7998H89.9V72.9998C89.9 73.6846 90.4552 74.2398 91.14 74.2398C91.8249 74.2398 92.38 73.6846 92.38 72.9998V71.4684C94.7218 73.0361 95.5271 76.1037 94.2574 78.6195ZM89.104 45.2474C86.3343 42.3454 82.486 40.7207 78.4747 40.7598H76.5254C72.5141 40.7207 68.6658 42.3454 65.8961 45.2474C69.688 35.9374 85.3046 35.9238 89.104 45.2474ZM62.62 71.4684V72.9998C62.62 73.6846 63.1752 74.2398 63.86 74.2398C64.5449 74.2398 65.1 73.6846 65.1 72.9998V71.0704C66.5955 71.9384 67.6408 71.7598 70.06 71.7598V76.9256L60.7427 78.6195C59.473 76.1037 60.2783 73.0361 62.62 71.4684ZM60.9361 81.1032L70.1555 79.428C70.357 80.705 70.8859 81.908 71.6906 82.9198H58.9893C59.2306 81.9877 59.9896 81.2795 60.9361 81.1032ZM104.78 85.3998V102.76H50.22V85.3998H104.78ZM52.7 107.72H42.78L44.4156 103.653C44.6331 103.066 44.6296 102.421 44.4057 101.837L42.78 97.7998H47.74V102.76C47.74 104.129 48.8504 105.24 50.22 105.24H52.7V107.72ZM110.596 103.68L112.22 107.72H102.3V105.24H104.78C106.15 105.24 107.26 104.129 107.26 102.76V97.7998H112.22L110.584 101.868C110.368 102.454 110.372 103.097 110.596 103.68Z" fill="url(#paint0_linear_3791_45738)"/>
<path d="M57.2334 95.9154L56.8738 98.1127C56.7502 98.8065 57.0343 99.5098 57.6051 99.9232C58.1759 100.337 58.9327 100.387 59.5534 100.053L61.3799 99.0514C63.1692 100.035 63.4507 100.28 64.0806 100.28C64.6239 100.275 65.1375 100.032 65.4853 99.6143C65.8331 99.197 65.9801 98.648 65.8873 98.1127L65.5265 95.9154L67.0455 94.3667C67.5338 93.8694 67.7045 93.1416 67.4884 92.4791C67.2722 91.8165 66.7051 91.3294 66.0175 91.2158L63.9628 90.9033L63.0328 88.9379C62.7346 88.294 62.0896 87.8818 61.3799 87.8818C60.6703 87.8818 60.0252 88.294 59.727 88.9379L58.797 90.9058L56.7423 91.2183C56.0547 91.3319 55.4876 91.819 55.2715 92.4815C55.0553 93.1441 55.2261 93.8719 55.7144 94.3691L57.2334 95.9154ZM61.3799 91.2431L61.8635 92.2661C62.1219 92.8207 62.6402 93.2096 63.2449 93.3027L64.4378 93.485L63.5437 94.3952C63.1221 94.822 62.9307 95.4252 63.0291 96.0171L63.23 97.2385L62.2492 96.6991C61.7065 96.4015 61.0496 96.4015 60.507 96.6991L59.5298 97.236C59.8882 95.0573 60.0258 95.2185 58.3221 93.4825C60.3879 93.1713 60.3879 93.3499 61.3799 91.2431Z" fill="url(#paint1_linear_3791_45738)"/>
<path d="M89.4733 95.9154L89.1137 98.1127C88.9892 98.8068 89.273 99.5109 89.8441 99.9245C90.4153 100.338 91.1728 100.388 91.7934 100.053L93.6199 99.0514C95.4092 100.035 95.6907 100.28 96.3206 100.28C96.8639 100.275 97.3774 100.032 97.7253 99.6143C98.0731 99.197 98.2201 98.648 98.1273 98.1127L97.7665 95.9154L99.2855 94.3667C99.7737 93.8694 99.9445 93.1416 99.7283 92.4791C99.5122 91.8165 98.9451 91.3294 98.2575 91.2158L96.2028 90.9033L95.2728 88.9379C94.9746 88.294 94.3296 87.8818 93.6199 87.8818C92.9102 87.8818 92.2652 88.294 91.967 88.9379L91.037 90.9058L88.9823 91.2183C88.2947 91.3319 87.7276 91.819 87.5115 92.4815C87.2953 93.1441 87.4661 93.8719 87.9543 94.3691L89.4733 95.9154ZM93.6199 91.2431L94.1035 92.2661C94.3619 92.8207 94.8802 93.2096 95.4849 93.3027L96.6777 93.485L95.7837 94.3952C95.362 94.822 95.1707 95.4252 95.2691 96.0171L95.47 97.2385L94.4891 96.6991C93.9465 96.4015 93.2896 96.4015 92.7469 96.6991L91.7698 97.236C92.1282 95.0573 92.2658 95.2185 90.5621 93.4825C92.6279 93.1713 92.6279 93.3499 93.6199 91.2431Z" fill="url(#paint2_linear_3791_45738)"/>
<path d="M73.3533 95.9154L72.9937 98.1127C72.8691 98.8068 73.153 99.5109 73.7241 99.9245C74.2952 100.338 75.0527 100.388 75.6733 100.053L77.4998 99.0514C79.2892 100.035 79.5706 100.28 80.2006 100.28C80.7438 100.275 81.2574 100.032 81.6052 99.6143C81.9531 99.197 82.1001 98.648 82.0072 98.1127L81.6464 95.9154L83.1654 94.3667C83.6537 93.8694 83.8244 93.1416 83.6083 92.4791C83.3921 91.8165 82.825 91.3294 82.1374 91.2158L80.0828 90.9033L79.1528 88.9379C78.8546 88.294 78.2095 87.8818 77.4998 87.8818C76.7902 87.8818 76.1451 88.294 75.8469 88.9379L74.9169 90.9058L72.8622 91.2183C72.1747 91.3319 71.6076 91.819 71.3914 92.4815C71.1752 93.1441 71.346 93.8719 71.8343 94.3691L73.3533 95.9154ZM77.4998 91.2431L77.9834 92.2661C78.2418 92.8207 78.7601 93.2096 79.3648 93.3027L80.5577 93.485L79.6636 94.3952C79.242 94.822 79.0506 95.4252 79.149 96.0171L79.3499 97.2385L78.3691 96.6991C77.8265 96.4015 77.1695 96.4015 76.6269 96.6991L75.6498 97.236C76.0081 95.0573 76.1458 95.2185 74.442 93.4825C76.5078 93.1713 76.5078 93.3499 77.4998 91.2431Z" fill="url(#paint3_linear_3791_45738)"/>
</g>
</g>
<defs>
<filter id="filter0_d_3791_45738" x="0.5" y="0" width="154" height="154" filterUnits="userSpaceOnUse" color-interpolation-filters="sRGB">
<feFlood flood-opacity="0" result="BackgroundImageFix"/>
<feColorMatrix in="SourceAlpha" type="matrix" values="0 0 0 0 0 0 0 0 0 0 0 0 0 0 0 0 0 0 127 0" result="hardAlpha"/>
<feOffset dy="4"/>
<feGaussianBlur stdDeviation="4"/>
<feComposite in2="hardAlpha" operator="out"/>
<feColorMatrix type="matrix" values="0 0 0 0 0 0 0 0 0 0 0 0 0 0 0 0 0 0 0.15 0"/>
<feBlend mode="normal" in2="BackgroundImageFix" result="effect1_dropShadow_3791_45738"/>
<feBlend mode="normal" in="SourceGraphic" in2="effect1_dropShadow_3791_45738" result="shape"/>
</filter>
<linearGradient id="paint0_linear_3791_45738" x1="40.3008" y1="110.2" x2="114.701" y2="35.8004" gradientUnits="userSpaceOnUse">
<stop stop-color="#A03291"/>
<stop offset="1" stop-color="#FF7C66"/>
</linearGradient>
<linearGradient id="paint1_linear_3791_45738" x1="55.1793" y1="100.28" x2="67.5777" y2="87.879" gradientUnits="userSpaceOnUse">
<stop stop-color="#A03291"/>
<stop offset="1" stop-color="#FF7C66"/>
</linearGradient>
<linearGradient id="paint2_linear_3791_45738" x1="87.4193" y1="100.28" x2="99.8177" y2="87.879" gradientUnits="userSpaceOnUse">
<stop stop-color="#A03291"/>
<stop offset="1" stop-color="#FF7C66"/>
</linearGradient>
<linearGradient id="paint3_linear_3791_45738" x1="71.2993" y1="100.28" x2="83.6976" y2="87.879" gradientUnits="userSpaceOnUse">
<stop stop-color="#A03291"/>
<stop offset="1" stop-color="#FF7C66"/>
</linearGradient>
<clipPath id="clip0_3791_45738">
<rect width="74.4" height="74.4" fill="white" transform="translate(40.3 35.7998)"/>
</clipPath>
</defs>
</svg>
