<svg width="161" height="160" viewBox="0 0 161 160" fill="none" xmlns="http://www.w3.org/2000/svg">
<g filter="url(#filter0_d_3791_35070)">
<rect x="8.5" y="4" width="144" height="144" rx="10" fill="white" shape-rendering="crispEdges"/>
<g clip-path="url(#clip0_3791_35070)">
<path d="M46.6251 65.3442C44.9808 65.4413 43.4372 66.1694 42.3172 67.3779C41.0459 68.747 40.3934 70.5792 40.5142 72.4445C40.7498 75.9522 43.6655 78.6761 47.1811 78.6725H49.8331C49.8331 79.4086 50.43 80.0055 51.1667 80.0055C51.9028 80.0055 52.4997 79.4086 52.4997 78.6725H70.5692C72.2897 78.6682 73.9218 77.9083 75.0333 76.5949C76.2033 75.213 76.7111 73.3881 76.4224 71.6003C76.066 69.3079 74.4235 67.4237 72.2012 66.7578C71.7239 66.6174 71.2314 66.5393 70.7346 66.5247C70.7639 66.0584 70.7474 65.5902 70.6851 65.127C70.3031 62.2479 68.0838 59.9573 65.2182 59.4843C64.0836 59.3109 62.9227 59.4489 61.8601 59.8846C60.1981 58.2477 57.9587 57.3315 55.6265 57.334C51.0513 57.3944 47.2159 60.8075 46.6251 65.3442ZM62.5516 62.4908C63.2486 62.1295 64.0427 61.9989 64.8184 62.1179C66.5109 62.4219 67.814 63.7824 68.0466 65.4858C68.1131 65.9583 68.0985 66.4392 68.0039 66.9067C67.8763 67.5299 68.0588 68.1763 68.4934 68.6401C68.9182 69.0906 69.5346 69.3066 70.148 69.2206C70.5856 69.1608 71.0312 69.1949 71.4542 69.3201C72.6804 69.7034 73.5843 70.7471 73.7894 72.0148C73.9578 73.0347 73.6716 74.0765 73.0063 74.8669C72.3984 75.5823 71.5079 75.9961 70.5692 76.0004H47.1823C45.0736 76.0053 43.3231 74.3713 43.1827 72.2668C43.1003 71.1383 43.494 70.0262 44.2679 69.2004C44.9735 68.4369 45.9653 68.0017 47.0053 68.0005H47.2995C48.3115 68.0005 49.1495 67.2162 49.2172 66.2073C49.3936 62.7765 52.1921 60.0665 55.6265 60.0006C57.3972 60.0006 59.0842 60.7513 60.2707 62.0654C60.8493 62.7033 61.7819 62.8772 62.5516 62.4908Z" fill="url(#paint0_linear_3791_35070)"/>
<path d="M99.1396 59.8761C98.0776 59.4397 96.9161 59.3012 95.7808 59.4763C92.9159 59.9494 90.696 62.24 90.3145 65.119C90.2523 65.5823 90.2352 66.0498 90.2651 66.5161C89.7683 66.5314 89.2751 66.6095 88.7984 66.7499C86.5737 67.417 84.9306 69.3048 84.5772 71.6004C84.2879 73.3881 84.7957 75.213 85.9664 76.5949C87.0785 77.9065 88.7105 78.664 90.4305 78.667H108.5C108.5 79.4037 109.097 80.0006 109.833 80.0006C110.57 80.0006 111.167 79.4037 111.167 78.667H113.817C117.332 78.6707 120.249 75.9467 120.484 72.439C120.604 70.5744 119.953 68.7421 118.681 67.3725C117.561 66.164 116.018 65.4352 114.373 65.3388C113.779 60.8045 109.946 57.3944 105.373 57.334C103.042 57.3297 100.803 58.2428 99.1396 59.8761ZM111.784 66.203C111.85 67.2132 112.688 67.9993 113.7 68.0005H113.993C115.035 67.9999 116.03 68.4351 116.737 69.2005C117.511 70.0263 117.904 71.1383 117.822 72.2669C117.681 74.3732 115.928 76.0077 113.817 76.0004H90.4305C89.4912 75.9949 88.6013 75.5786 87.9946 74.8615C87.3293 74.0717 87.0431 73.0298 87.2115 72.0111C87.416 70.7428 88.3193 69.6991 89.5449 69.3152C89.833 69.2285 90.132 69.1834 90.4329 69.1815C90.5733 69.1815 90.7131 69.1913 90.8516 69.2108C91.465 69.2969 92.0821 69.0808 92.5075 68.631C92.9421 68.1665 93.1246 67.5208 92.997 66.8976C92.9018 66.4301 92.8878 65.9491 92.9543 65.4761C93.1868 63.7726 94.4899 62.4127 96.1825 62.1082C96.9582 61.9898 97.7517 62.1204 98.4493 62.4817C99.2177 62.8674 100.15 62.6935 100.728 62.0563C101.917 60.7459 103.604 59.9994 105.373 60.0006C108.806 60.0659 111.605 62.7735 111.784 66.203Z" fill="url(#paint1_linear_3791_35070)"/>
<path d="M67.9587 44.0109C66.3138 44.1073 64.7702 44.8361 63.6502 46.0439C62.3789 47.4136 61.727 49.2459 61.8478 51.1105C62.0828 54.6182 64.9991 57.3422 68.5147 57.3385H91.9009C93.6221 57.3348 95.2548 56.5756 96.3663 55.2615C97.5369 53.879 98.0441 52.0547 97.756 50.267C97.399 47.9739 95.7571 46.0903 93.5342 45.4238C93.0576 45.2841 92.5644 45.2053 92.0676 45.1907C92.0975 44.7244 92.081 44.2562 92.0181 43.7936C91.6367 40.9146 89.4174 38.6239 86.5518 38.1509C85.4166 37.9763 84.2557 38.1149 83.1931 38.5507C81.5317 36.9143 79.2923 35.9976 76.9595 36C72.385 36.0604 68.5495 39.4735 67.9587 44.0109ZM83.8852 41.1575C84.5822 40.7955 85.3757 40.6649 86.152 40.7839C87.8439 41.0885 89.1476 42.4484 89.3796 44.1519C89.4467 44.6249 89.4321 45.1052 89.3369 45.5734C89.2099 46.1965 89.3918 46.8423 89.8264 47.3068C90.253 47.7542 90.8682 47.9696 91.481 47.8866C91.9186 47.8268 92.3642 47.861 92.7878 47.9867C94.014 48.37 94.9179 49.4131 95.1224 50.6814C95.2908 51.7007 95.0052 52.7426 94.3399 53.5336C93.7314 54.2489 92.8415 54.6627 91.9022 54.6664H68.5159C66.4066 54.6713 64.6561 53.038 64.5157 50.9335C64.4339 49.8043 64.8276 48.6929 65.6009 47.8665C66.3065 47.1029 67.2989 46.6683 68.3383 46.6665H68.6319C69.6433 46.6671 70.4819 45.8828 70.549 44.8733C70.7254 41.4425 73.5251 38.7319 76.9595 38.6666C78.7302 38.6672 80.4178 39.4174 81.6037 40.7321C82.1823 41.3699 83.1155 41.5438 83.8852 41.1575Z" fill="url(#paint2_linear_3791_35070)"/>
<path d="M79.1668 69.3336C79.1668 70.0703 79.7637 70.6672 80.4998 70.6672C81.2365 70.6672 81.8334 70.0703 81.8334 69.3336V68.0006C81.8334 67.2639 81.2365 66.667 80.4998 66.667C79.7637 66.667 79.1668 67.2639 79.1668 68.0006V69.3336Z" fill="url(#paint3_linear_3791_35070)"/>
<path d="M80.4998 63.9996C81.2365 63.9996 81.8334 63.4027 81.8334 62.6666V61.333C81.8334 60.5969 81.2365 60 80.4998 60C79.7637 60 79.1668 60.5969 79.1668 61.333V62.6666C79.1668 63.4027 79.7637 63.9996 80.4998 63.9996Z" fill="url(#paint4_linear_3791_35070)"/>
<path d="M79.1668 76.0006C79.1668 76.7367 79.7637 77.3342 80.4998 77.3342C81.2365 77.3342 81.8334 76.7367 81.8334 76.0006V74.667C81.8334 73.9309 81.2365 73.334 80.4998 73.334C79.7637 73.334 79.1668 73.9309 79.1668 74.667V76.0006Z" fill="url(#paint5_linear_3791_35070)"/>
<path d="M67.1666 108H64.5C63.7633 108 63.1664 108.597 63.1664 109.333C63.1664 110.07 63.7633 110.667 64.5 110.667H67.1666C67.9027 110.667 68.5003 110.07 68.5003 109.333C68.5003 108.597 67.9027 108 67.1666 108Z" fill="url(#paint6_linear_3791_35070)"/>
<path d="M75.1664 108H72.4998C71.7637 108 71.1668 108.597 71.1668 109.333C71.1668 110.07 71.7637 110.667 72.4998 110.667H75.1664C75.9031 110.667 76.5 110.07 76.5 109.333C76.5 108.597 75.9031 108 75.1664 108Z" fill="url(#paint7_linear_3791_35070)"/>
<path d="M83.1664 108H80.4998C79.7637 108 79.1668 108.597 79.1668 109.333C79.1668 110.07 79.7637 110.667 80.4998 110.667H83.1664C83.9031 110.667 84.5 110.07 84.5 109.333C84.5 108.597 83.9031 108 83.1664 108Z" fill="url(#paint8_linear_3791_35070)"/>
<path d="M96.4999 108H88.5C87.7633 108 87.1664 108.597 87.1664 109.333C87.1664 110.07 87.7633 110.667 88.5 110.667H96.4999C97.236 110.667 97.8329 110.07 97.8329 109.333C97.8329 108.597 97.236 108 96.4999 108Z" fill="url(#paint9_linear_3791_35070)"/>
<path d="M96.4999 97.334H93.8332C93.0965 97.334 92.4996 97.9309 92.4996 98.667C92.4996 99.4037 93.0965 100.001 93.8332 100.001H96.4999C97.2359 100.001 97.8329 99.4037 97.8329 98.667C97.8329 97.9309 97.2359 97.334 96.4999 97.334Z" fill="url(#paint10_linear_3791_35070)"/>
<path d="M72.4999 97.334H64.5C63.7633 97.334 63.1664 97.9309 63.1664 98.667C63.1664 99.4037 63.7633 100.001 64.5 100.001H72.4999C73.2366 100.001 73.8335 99.4037 73.8335 98.667C73.8335 97.9309 73.2366 97.334 72.4999 97.334Z" fill="url(#paint11_linear_3791_35070)"/>
<path d="M64.5 89.3326H67.1666C67.9027 89.3326 68.5003 88.7357 68.5003 87.9996C68.5003 87.2629 67.9027 86.666 67.1666 86.666H64.5C63.7633 86.666 63.1664 87.2629 63.1664 87.9996C63.1664 88.7357 63.7633 89.3326 64.5 89.3326Z" fill="url(#paint12_linear_3791_35070)"/>
<path d="M72.4998 89.3326H75.1664C75.9031 89.3326 76.5 88.7357 76.5 87.9996C76.5 87.2629 75.9031 86.666 75.1664 86.666H72.4998C71.7637 86.666 71.1668 87.2629 71.1668 87.9996C71.1668 88.7357 71.7637 89.3326 72.4998 89.3326Z" fill="url(#paint13_linear_3791_35070)"/>
<path d="M80.4998 89.3326H83.1664C83.9031 89.3326 84.5 88.7357 84.5 87.9996C84.5 87.2629 83.9031 86.666 83.1664 86.666H80.4998C79.7637 86.666 79.1668 87.2629 79.1668 87.9996C79.1668 88.7357 79.7637 89.3326 80.4998 89.3326Z" fill="url(#paint14_linear_3791_35070)"/>
<path d="M88.5 89.3326H96.4999C97.236 89.3326 97.8329 88.7357 97.8329 87.9996C97.8329 87.2629 97.236 86.666 96.4999 86.666H88.5C87.7633 86.666 87.1664 87.2629 87.1664 87.9996C87.1664 88.7357 87.7633 89.3326 88.5 89.3326Z" fill="url(#paint15_linear_3791_35070)"/>
<path d="M107.166 98.6666C107.166 99.4033 107.763 100 108.5 100H109.833C110.57 100 111.167 99.4033 111.167 98.6666V97.3336C111.167 96.5969 110.57 96 109.833 96C109.097 96 108.5 96.5969 108.5 97.3336C107.763 97.3336 107.166 97.9305 107.166 98.6666Z" fill="url(#paint16_linear_3791_35070)"/>
<path d="M108.5 91.9996C108.5 92.7363 109.097 93.3333 109.833 93.3333C110.57 93.3333 111.167 92.7363 111.167 91.9996V90.6666C111.167 89.9299 110.57 89.333 109.833 89.333C109.097 89.333 108.5 89.9299 108.5 90.6666V91.9996Z" fill="url(#paint17_linear_3791_35070)"/>
<path d="M109.833 86.6676C110.57 86.6676 111.167 86.0707 111.167 85.3346V84.001C111.167 83.2649 110.57 82.668 109.833 82.668C109.097 82.668 108.5 83.2649 108.5 84.001V85.3346C108.5 86.0707 109.097 86.6676 109.833 86.6676Z" fill="url(#paint18_linear_3791_35070)"/>
<path d="M49.8336 98.6666C49.8336 99.4033 50.4305 100 51.1672 100H52.5002C53.2369 100 53.8338 99.4033 53.8338 98.6666C53.8338 97.9305 53.2369 97.3336 52.5002 97.3336C52.5002 96.5969 51.9033 96 51.1672 96C50.4305 96 49.8336 96.5969 49.8336 97.3336V98.6666Z" fill="url(#paint19_linear_3791_35070)"/>
<path d="M49.8336 91.9996C49.8336 92.7363 50.4305 93.3333 51.1672 93.3333C51.9033 93.3333 52.5002 92.7363 52.5002 91.9996V90.6666C52.5002 89.9299 51.9033 89.333 51.1672 89.333C50.4305 89.333 49.8336 89.9299 49.8336 90.6666V91.9996Z" fill="url(#paint20_linear_3791_35070)"/>
<path d="M51.1672 86.6676C51.9033 86.6676 52.5002 86.0707 52.5002 85.3346V84.001C52.5002 83.2649 51.9033 82.668 51.1672 82.668C50.4305 82.668 49.8336 83.2649 49.8336 84.001V85.3346C49.8336 86.0707 50.4305 86.6676 51.1672 86.6676Z" fill="url(#paint21_linear_3791_35070)"/>
<path d="M79.1666 98.667C79.1666 99.4037 78.5697 100.001 77.833 100.001C77.0969 100.001 76.5 99.4037 76.5 98.667C76.5 97.9309 77.0969 97.334 77.833 97.334C78.5697 97.334 79.1666 97.9309 79.1666 98.667Z" fill="url(#paint22_linear_3791_35070)"/>
<path d="M84.5002 98.667C84.5002 99.4037 83.9033 100.001 83.1666 100.001C82.4305 100.001 81.8336 99.4037 81.8336 98.667C81.8336 97.9309 82.4305 97.334 83.1666 97.334C83.9033 97.334 84.5002 97.9309 84.5002 98.667Z" fill="url(#paint23_linear_3791_35070)"/>
<path d="M89.833 98.667C89.833 99.4037 89.2361 100.001 88.5 100.001C87.7633 100.001 87.1664 99.4037 87.1664 98.667C87.1664 97.9309 87.7633 97.334 88.5 97.334C89.2361 97.334 89.833 97.9309 89.833 98.667Z" fill="url(#paint24_linear_3791_35070)"/>
<path d="M47.1664 114.666C47.1664 115.403 47.7633 116 48.5 116H112.5C113.236 116 113.833 115.403 113.833 114.666C113.833 113.93 113.236 113.333 112.5 113.333H103.166V100C103.903 100 104.5 99.4031 104.5 98.6664C104.5 97.9303 103.903 97.3334 103.166 97.3334V85.3333C103.166 83.1238 101.375 81.333 99.1665 81.333H81.8332C81.8332 80.5969 81.2362 80 80.4995 80C79.7635 80 79.1665 80.5969 79.1665 81.333H61.8332C59.6237 81.333 57.8329 83.1238 57.8329 85.3333V97.3334C57.0968 97.3334 56.4999 97.9303 56.4999 98.6664C56.4999 99.4031 57.0968 100 57.8329 100V113.333H48.5C47.7633 113.333 47.1664 113.93 47.1664 114.666ZM60.4995 94.6661H100.5V102.667H60.4995V94.6661ZM61.8332 83.9996H99.1665C99.9026 83.9996 100.5 84.5966 100.5 85.3333V91.9995H60.4995V85.3333C60.4995 84.5966 61.0965 83.9996 61.8332 83.9996ZM60.4995 105.333H100.5V113.333H60.4995V105.333Z" fill="url(#paint25_linear_3791_35070)"/>
</g>
</g>
<defs>
<filter id="filter0_d_3791_35070" x="0.5" y="0" width="160" height="160" filterUnits="userSpaceOnUse" color-interpolation-filters="sRGB">
<feFlood flood-opacity="0" result="BackgroundImageFix"/>
<feColorMatrix in="SourceAlpha" type="matrix" values="0 0 0 0 0 0 0 0 0 0 0 0 0 0 0 0 0 0 127 0" result="hardAlpha"/>
<feOffset dy="4"/>
<feGaussianBlur stdDeviation="4"/>
<feComposite in2="hardAlpha" operator="out"/>
<feColorMatrix type="matrix" values="0 0 0 0 0 0 0 0 0 0 0 0 0 0 0 0 0 0 0.15 0"/>
<feBlend mode="normal" in2="BackgroundImageFix" result="effect1_dropShadow_3791_35070"/>
<feBlend mode="normal" in="SourceGraphic" in2="effect1_dropShadow_3791_35070" result="shape"/>
</filter>
<linearGradient id="paint0_linear_3791_35070" x1="40.5" y1="80.0055" x2="60.9459" y2="47.538" gradientUnits="userSpaceOnUse">
<stop stop-color="#A03291"/>
<stop offset="1" stop-color="#FF7C66"/>
</linearGradient>
<linearGradient id="paint1_linear_3791_35070" x1="84.4977" y1="80.0006" x2="104.938" y2="47.5369" gradientUnits="userSpaceOnUse">
<stop stop-color="#A03291"/>
<stop offset="1" stop-color="#FF7C66"/>
</linearGradient>
<linearGradient id="paint2_linear_3791_35070" x1="61.8336" y1="57.3385" x2="80.5526" y2="25.7565" gradientUnits="userSpaceOnUse">
<stop stop-color="#A03291"/>
<stop offset="1" stop-color="#FF7C66"/>
</linearGradient>
<linearGradient id="paint3_linear_3791_35070" x1="79.1668" y1="70.6672" x2="82.8592" y2="68.2058" gradientUnits="userSpaceOnUse">
<stop stop-color="#A03291"/>
<stop offset="1" stop-color="#FF7C66"/>
</linearGradient>
<linearGradient id="paint4_linear_3791_35070" x1="79.1668" y1="63.9996" x2="82.8589" y2="61.5381" gradientUnits="userSpaceOnUse">
<stop stop-color="#A03291"/>
<stop offset="1" stop-color="#FF7C66"/>
</linearGradient>
<linearGradient id="paint5_linear_3791_35070" x1="79.1668" y1="77.3342" x2="82.8592" y2="74.8728" gradientUnits="userSpaceOnUse">
<stop stop-color="#A03291"/>
<stop offset="1" stop-color="#FF7C66"/>
</linearGradient>
<linearGradient id="paint6_linear_3791_35070" x1="63.1664" y1="110.667" x2="65.2996" y2="106.4" gradientUnits="userSpaceOnUse">
<stop stop-color="#A03291"/>
<stop offset="1" stop-color="#FF7C66"/>
</linearGradient>
<linearGradient id="paint7_linear_3791_35070" x1="71.1668" y1="110.667" x2="73.3001" y2="106.4" gradientUnits="userSpaceOnUse">
<stop stop-color="#A03291"/>
<stop offset="1" stop-color="#FF7C66"/>
</linearGradient>
<linearGradient id="paint8_linear_3791_35070" x1="79.1668" y1="110.667" x2="81.3001" y2="106.4" gradientUnits="userSpaceOnUse">
<stop stop-color="#A03291"/>
<stop offset="1" stop-color="#FF7C66"/>
</linearGradient>
<linearGradient id="paint9_linear_3791_35070" x1="87.1664" y1="110.667" x2="88.4213" y2="105.647" gradientUnits="userSpaceOnUse">
<stop stop-color="#A03291"/>
<stop offset="1" stop-color="#FF7C66"/>
</linearGradient>
<linearGradient id="paint10_linear_3791_35070" x1="92.4996" y1="100.001" x2="94.6329" y2="95.734" gradientUnits="userSpaceOnUse">
<stop stop-color="#A03291"/>
<stop offset="1" stop-color="#FF7C66"/>
</linearGradient>
<linearGradient id="paint11_linear_3791_35070" x1="63.1664" y1="100.001" x2="64.4212" y2="94.981" gradientUnits="userSpaceOnUse">
<stop stop-color="#A03291"/>
<stop offset="1" stop-color="#FF7C66"/>
</linearGradient>
<linearGradient id="paint12_linear_3791_35070" x1="63.1664" y1="89.3326" x2="65.2996" y2="85.0658" gradientUnits="userSpaceOnUse">
<stop stop-color="#A03291"/>
<stop offset="1" stop-color="#FF7C66"/>
</linearGradient>
<linearGradient id="paint13_linear_3791_35070" x1="71.1668" y1="89.3326" x2="73.3001" y2="85.066" gradientUnits="userSpaceOnUse">
<stop stop-color="#A03291"/>
<stop offset="1" stop-color="#FF7C66"/>
</linearGradient>
<linearGradient id="paint14_linear_3791_35070" x1="79.1668" y1="89.3326" x2="81.3001" y2="85.066" gradientUnits="userSpaceOnUse">
<stop stop-color="#A03291"/>
<stop offset="1" stop-color="#FF7C66"/>
</linearGradient>
<linearGradient id="paint15_linear_3791_35070" x1="87.1664" y1="89.3326" x2="88.4213" y2="84.3131" gradientUnits="userSpaceOnUse">
<stop stop-color="#A03291"/>
<stop offset="1" stop-color="#FF7C66"/>
</linearGradient>
<linearGradient id="paint16_linear_3791_35070" x1="107.166" y1="100" x2="111.167" y2="96" gradientUnits="userSpaceOnUse">
<stop stop-color="#A03291"/>
<stop offset="1" stop-color="#FF7C66"/>
</linearGradient>
<linearGradient id="paint17_linear_3791_35070" x1="108.5" y1="93.3333" x2="112.193" y2="90.8718" gradientUnits="userSpaceOnUse">
<stop stop-color="#A03291"/>
<stop offset="1" stop-color="#FF7C66"/>
</linearGradient>
<linearGradient id="paint18_linear_3791_35070" x1="108.5" y1="86.6676" x2="112.192" y2="84.206" gradientUnits="userSpaceOnUse">
<stop stop-color="#A03291"/>
<stop offset="1" stop-color="#FF7C66"/>
</linearGradient>
<linearGradient id="paint19_linear_3791_35070" x1="49.8336" y1="100" x2="53.8338" y2="96" gradientUnits="userSpaceOnUse">
<stop stop-color="#A03291"/>
<stop offset="1" stop-color="#FF7C66"/>
</linearGradient>
<linearGradient id="paint20_linear_3791_35070" x1="49.8336" y1="93.3333" x2="53.526" y2="90.8718" gradientUnits="userSpaceOnUse">
<stop stop-color="#A03291"/>
<stop offset="1" stop-color="#FF7C66"/>
</linearGradient>
<linearGradient id="paint21_linear_3791_35070" x1="49.8336" y1="86.6676" x2="53.5257" y2="84.206" gradientUnits="userSpaceOnUse">
<stop stop-color="#A03291"/>
<stop offset="1" stop-color="#FF7C66"/>
</linearGradient>
<linearGradient id="paint22_linear_3791_35070" x1="76.5" y1="100.001" x2="79.1666" y2="97.334" gradientUnits="userSpaceOnUse">
<stop stop-color="#A03291"/>
<stop offset="1" stop-color="#FF7C66"/>
</linearGradient>
<linearGradient id="paint23_linear_3791_35070" x1="81.8336" y1="100.001" x2="84.5002" y2="97.334" gradientUnits="userSpaceOnUse">
<stop stop-color="#A03291"/>
<stop offset="1" stop-color="#FF7C66"/>
</linearGradient>
<linearGradient id="paint24_linear_3791_35070" x1="87.1664" y1="100.001" x2="89.833" y2="97.334" gradientUnits="userSpaceOnUse">
<stop stop-color="#A03291"/>
<stop offset="1" stop-color="#FF7C66"/>
</linearGradient>
<linearGradient id="paint25_linear_3791_35070" x1="47.1664" y1="116" x2="77.2682" y2="60.2551" gradientUnits="userSpaceOnUse">
<stop stop-color="#A03291"/>
<stop offset="1" stop-color="#FF7C66"/>
</linearGradient>
<clipPath id="clip0_3791_35070">
<rect width="80" height="80" fill="white" transform="translate(40.5 36)"/>
</clipPath>
</defs>
</svg>
