<svg width="14" height="14" viewBox="0 0 14 14" fill="none" xmlns="http://www.w3.org/2000/svg">
<path d="M4.4095 2.72198C5.16503 2.26348 6.05418 1.99868 7.00065 1.99868C7.9778 1.99868 8.89361 2.28062 9.66471 2.76691C9.7221 2.80103 9.77207 2.8463 9.81168 2.90004C9.85129 2.95379 9.87974 3.01492 9.89534 3.07984C9.91095 3.14476 9.91339 3.21214 9.90254 3.27802C9.89168 3.34389 9.86775 3.40693 9.83214 3.46341C9.79653 3.51988 9.74997 3.56866 9.69521 3.60685C9.64045 3.64505 9.5786 3.67189 9.5133 3.6858C9.448 3.6997 9.38057 3.70039 9.315 3.68782C9.24943 3.67525 9.18704 3.64968 9.13151 3.61261C8.51461 3.22357 7.78617 2.99868 7.00065 2.99868C6.23979 2.99868 5.53286 3.20997 4.92839 3.5768C4.87223 3.61211 4.80962 3.6359 4.74418 3.64678C4.67875 3.65765 4.6118 3.6554 4.54724 3.64016C4.48269 3.62491 4.42181 3.59697 4.36816 3.55797C4.3145 3.51896 4.26914 3.46967 4.23472 3.41297C4.20031 3.35626 4.17751 3.29328 4.16767 3.22768C4.15783 3.16208 4.16114 3.09518 4.17741 3.03087C4.19367 2.96657 4.22257 2.90614 4.26242 2.85311C4.30226 2.80008 4.35226 2.7555 4.4095 2.72198Z" fill="currentColor"/>
<path fill-rule="evenodd" clip-rule="evenodd" d="M3.66732 6.99998C3.66732 5.16198 5.16265 3.66665 7.00065 3.66665C8.83865 3.66665 10.334 5.16198 10.334 6.99998C10.334 8.83798 8.83865 10.3333 7.00065 10.3333C5.16265 10.3333 3.66732 8.83798 3.66732 6.99998ZM5.33398 5.33331H8.44043V6.28416H7.44238V8.98435H6.30924V6.28416H5.33398V5.33331Z" fill="currentColor"/>
<path d="M11.3038 6.26441C11.3684 6.23788 11.4379 6.2252 11.5078 6.22719C11.6343 6.23071 11.7547 6.28205 11.8448 6.37084C11.935 6.45964 11.9881 6.5793 11.9935 6.70571C11.999 6.80265 12.002 6.90099 12.002 6.99998C12.002 8.96755 10.8615 10.6761 9.20312 11.4909C9.14395 11.5224 9.07903 11.5417 9.01225 11.5476C8.94546 11.5536 8.87816 11.546 8.81435 11.5254C8.75054 11.5048 8.69152 11.4716 8.64081 11.4277C8.5901 11.3839 8.54874 11.3302 8.51917 11.2701C8.4896 11.2099 8.47244 11.1444 8.46871 11.0774C8.46497 11.0105 8.47474 10.9434 8.49743 10.8803C8.52012 10.8172 8.55526 10.7594 8.60078 10.7101C8.64629 10.6609 8.70125 10.6213 8.76237 10.5937C10.088 9.94248 11.002 8.58175 11.002 6.99998C11.002 6.92097 10.9993 6.84206 10.9948 6.763C10.9898 6.69328 10.9994 6.62328 11.0231 6.55752C11.0468 6.49176 11.084 6.4317 11.1324 6.38122C11.1807 6.33073 11.2391 6.29093 11.3038 6.26441Z" fill="currentColor"/>
<path d="M2.32643 6.31767C2.38782 6.29429 2.45321 6.28323 2.51888 6.28514C2.58581 6.28703 2.65168 6.30235 2.71257 6.33018C2.77347 6.35801 2.82816 6.39779 2.87339 6.44715C2.91863 6.49652 2.95349 6.55446 2.97591 6.61755C2.99833 6.68064 3.00785 6.74759 3.00391 6.81443C3.00118 6.8765 2.99935 6.93829 2.99935 6.99998C2.99935 8.59003 3.92311 9.95741 5.26042 10.6041C5.32212 10.631 5.37777 10.6701 5.42401 10.719C5.47025 10.768 5.50613 10.8257 5.52952 10.8888C5.5529 10.952 5.56329 11.0192 5.56008 11.0864C5.55687 11.1536 5.54011 11.2195 5.51082 11.2802C5.48152 11.3408 5.44029 11.3948 5.38959 11.4391C5.3389 11.4834 5.27979 11.517 5.21579 11.5379C5.1518 11.5588 5.08425 11.5665 5.01719 11.5607C4.95013 11.5549 4.88493 11.5355 4.82552 11.5039C3.15216 10.6946 1.99935 8.97793 1.99935 6.99998C1.99935 6.92234 2.00127 6.84607 2.00456 6.77081C2.00642 6.70515 2.0212 6.64049 2.04806 6.58054C2.07492 6.52058 2.11332 6.46651 2.16109 6.42141C2.20885 6.3763 2.26503 6.34105 2.32643 6.31767Z" fill="currentColor"/>
<path fill-rule="evenodd" clip-rule="evenodd" d="M0.333984 6.99998C0.333984 3.31798 3.31865 0.333313 7.00065 0.333313C10.6827 0.333313 13.6673 3.31798 13.6673 6.99998C13.6673 10.682 10.6827 13.6666 7.00065 13.6666C3.31865 13.6666 0.333984 10.682 0.333984 6.99998ZM12.6673 6.99998C12.6673 3.87531 10.1253 1.33331 7.00065 1.33331C3.87598 1.33331 1.33398 3.87531 1.33398 6.99998C1.33398 10.1246 3.87598 12.6666 7.00065 12.6666C10.1253 12.6666 12.6673 10.1246 12.6673 6.99998Z" fill="currentColor"/>
</svg>
