<svg width="16" height="16" viewBox="0 0 16 16" fill="none" xmlns="http://www.w3.org/2000/svg">
<path fill-rule="evenodd" clip-rule="evenodd" d="M3.2518 1.9191C3.62687 1.54403 4.13558 1.33331 4.66602 1.33331H8.39002C8.74358 1.33339 9.08277 1.47389 9.33275 1.72391M9.33275 1.72391L12.942 5.33317C12.942 5.33319 12.942 5.33315 12.942 5.33317C13.192 5.58316 13.3326 5.92228 13.3327 6.27584V12.6666C13.3327 13.1971 13.122 13.7058 12.7469 14.0809C12.3718 14.4559 11.8631 14.6666 11.3327 14.6666H6.66602C6.29783 14.6666 5.99935 14.3682 5.99935 14C5.99935 13.6318 6.29783 13.3333 6.66602 13.3333H11.3327C11.5095 13.3333 11.6791 13.2631 11.8041 13.1381C11.9291 13.013 11.9993 12.8435 11.9993 12.6666V6.27612L8.38994 2.66672L4.66602 2.66665C4.4892 2.66665 4.31964 2.73688 4.19461 2.86191C4.06959 2.98693 3.99935 3.1565 3.99935 3.33331V10.6666C3.99935 11.0348 3.70087 11.3333 3.33268 11.3333C2.96449 11.3333 2.66602 11.0348 2.66602 10.6666V3.33331C2.66602 2.80288 2.87673 2.29417 3.2518 1.9191M8.00065 6.67818C8.70413 6.6754 9.38021 6.95071 9.88162 7.44414C10.1325 7.69105 10.3321 7.98519 10.4687 8.3096C10.6054 8.63401 10.6764 8.98227 10.6778 9.33429C10.6792 9.6863 10.6109 10.0351 10.4768 10.3606C10.3427 10.6861 10.1455 10.9818 9.89659 11.2307C9.64765 11.4796 9.35189 11.6767 9.02638 11.8107C8.70087 11.9447 8.35204 12.0129 8.00002 12.0115C7.64801 12.01 7.29977 11.9388 6.97539 11.8021C6.86026 11.7536 6.74894 11.6971 6.6422 11.6333L3.80409 14.4714C3.54374 14.7317 3.12163 14.7317 2.86128 14.4714C2.60093 14.211 2.60093 13.7889 2.86128 13.5286L5.70542 10.6844C5.46912 10.2777 5.34255 9.81199 5.34455 9.33366C5.3475 8.63018 5.6283 7.95637 6.1258 7.45899C6.6233 6.96161 7.29718 6.68097 8.00065 6.67818ZM8.94641 8.39448C8.6957 8.14777 8.35766 8.01012 8.00593 8.01151C7.65419 8.0129 7.31725 8.15322 7.0685 8.40191C6.81975 8.6506 6.67935 8.98751 6.67787 9.33924C6.6764 9.69098 6.81398 10.0291 7.06063 10.2798C7.18406 10.4053 7.3311 10.5051 7.49329 10.5735C7.65548 10.6418 7.8296 10.6774 8.00561 10.6782C8.18162 10.6789 8.35603 10.6448 8.51879 10.5778C8.68154 10.5108 8.82942 10.4122 8.95389 10.2878C9.07837 10.1633 9.17697 10.0155 9.24401 9.85271C9.31106 9.68997 9.34521 9.51557 9.34452 9.33956C9.34382 9.16355 9.30829 8.98942 9.23996 8.82722C9.17163 8.66501 9.07186 8.51794 8.94641 8.39448Z" fill="currentColor"/>
</svg>
