<svg width="24" height="24" viewBox="0 0 24 24" fill="none" xmlns="http://www.w3.org/2000/svg">
<path fill-rule="evenodd" clip-rule="evenodd" d="M9.2 14.8C9.9 15.6 10.9 16 12 16C13.1 16 14 15.5 14.8 14.8C15.6 14.1 16 13.1 16 12C16 10.9 15.6 9.9 14.8 9.2C14.1 8.4 13.1 8 12 8C10.9 8 9.9 8.4 9.2 9.2C8.4 9.9 8 10.9 8 12C8 13.1 8.4 14.1 9.2 14.8ZM10.6 10.6C11 10.2 11.5 10 12 10C12.5 10 13 10.2 13.4 10.6C13.8 11 14 11.5 14 12C14 12.5 13.8 13 13.4 13.4C12.7 14.1 11.3 14.1 10.6 13.4C10.2 13 10 12.5 10 12C10 11.5 10.2 11 10.6 10.6Z" fill="currentColor"/>
<path fill-rule="evenodd" clip-rule="evenodd" d="M9.4 19.9C9.7 21.2 10.7 22 12 22C13.3 22 14.3 21.2 14.6 19.9C14.65 19.85 14.675 19.8 14.7 19.75C14.725 19.7 14.75 19.65 14.8 19.6C14.9 19.5 15 19.4 15.1 19.4C15.2 19.3 15.3 19.3 15.4 19.3C15.5 19.3 15.6 19.3 15.7 19.4C16.8 20.1 18.1 19.9 19 19C19.9 18.1 20.1 16.8 19.4 15.7C19.3 15.6 19.3 15.5 19.3 15.4C19.3 15.35 19.325 15.3 19.35 15.25C19.375 15.2 19.4 15.15 19.4 15.1C19.4 15 19.5 14.9 19.6 14.8C19.7 14.7 19.8 14.6 19.9 14.6C21.2 14.3 22 13.3 22 12C22 10.7 21.2 9.7 19.9 9.4C19.85 9.35 19.8 9.325 19.75 9.3C19.7 9.275 19.65 9.25 19.6 9.2C19.5 9.1 19.4 9 19.4 8.9C19.3 8.8 19.3 8.7 19.3 8.6C19.3 8.5 19.3 8.4 19.4 8.3C20.1 7.2 19.9 5.9 19 5C18.1 4.1 16.8 3.9 15.7 4.6C15.6 4.7 15.5 4.7 15.4 4.7C15.35 4.7 15.3 4.675 15.25 4.65C15.2 4.625 15.15 4.6 15.1 4.6C15 4.6 14.9 4.5 14.8 4.4C14.7 4.3 14.6 4.2 14.6 4.1C14.3 2.8 13.3 2 12 2C10.7 2 9.7 2.8 9.4 4.1C9.4 4.3 9.2 4.5 9 4.6C8.7 4.6 8.5 4.6 8.3 4.5C7.2 3.9 5.8 4 4.9 4.9C4 5.8 3.9 7.2 4.6 8.3C4.7 8.4 4.7 8.5 4.7 8.6C4.7 8.65 4.675 8.7 4.65 8.75C4.625 8.8 4.6 8.85 4.6 8.9C4.55 8.95 4.525 9 4.5 9.05C4.475 9.1 4.45 9.15 4.4 9.2C4.3 9.3 4.2 9.4 4.1 9.4C2.8 9.7 2 10.7 2 12C2 13.3 2.8 14.3 4.1 14.6C4.15 14.65 4.2 14.675 4.25 14.7C4.3 14.725 4.35 14.75 4.4 14.8C4.45 14.85 4.475 14.9 4.5 14.95C4.525 15 4.55 15.05 4.6 15.1C4.7 15.2 4.7 15.3 4.7 15.4C4.7 15.5 4.7 15.6 4.6 15.7C3.9 16.8 4.1 18.1 5 19C5.9 19.9 7.2 20.1 8.3 19.4C8.4 19.3 8.5 19.3 8.6 19.3C8.65 19.3 8.7 19.325 8.75 19.35C8.8 19.375 8.85 19.4 8.9 19.4C9 19.4 9.1 19.5 9.2 19.6C9.3 19.7 9.4 19.8 9.4 19.9ZM9.6 17.6C9.3 17.5 9 17.4 8.6 17.4H8.4C8 17.4 7.6 17.6 7.2 17.8C6.7 18.1 6.4 17.8 6.3 17.7C6.2 17.6 5.9 17.3 6.2 16.8C6.22918 16.7416 6.25836 16.6854 6.28692 16.6304C6.4541 16.3082 6.6 16.0271 6.6 15.6C6.6 15.1 6.6 14.7 6.4 14.3C6.3 13.9 6 13.6 5.7 13.3C5.4 13 5 12.8 4.6 12.7C4 12.6 4 12.1 4 12C4 11.9 4 11.4 4.6 11.3C5 11.2 5.4 11 5.7 10.7C6 10.5 6.2 10.1 6.4 9.7C6.6 9.3 6.6 8.8 6.6 8.4C6.6 8 6.5 7.6 6.2 7.2C6 6.8 6.2 6.4 6.3 6.3C6.4 6.2 6.8 6 7.2 6.2C8 6.7 8.9 6.8 9.7 6.5C10.5 6.1 11.1 5.5 11.3 4.6C11.4 4 11.9 4 12 4C12.1 4 12.6 4 12.7 4.6C12.8 5 13 5.4 13.3 5.7C13.5 6 13.9 6.2 14.3 6.4C14.7 6.6 15.2 6.6 15.6 6.6C16 6.6 16.4 6.4 16.8 6.2C17.3 5.9 17.6 6.2 17.7 6.3C17.8 6.4 18.1 6.7 17.8 7.2C17.6 7.6 17.4 8 17.4 8.4C17.4 8.9 17.4 9.3 17.6 9.7C17.7 10.1 18 10.4 18.3 10.7C18.6 11 19 11.2 19.4 11.3C20 11.4 20 11.9 20 12C20 12.1 20 12.6 19.4 12.8C19 12.9 18.6 13.1 18.3 13.4C18 13.6 17.8 14 17.6 14.4C17.4 14.7 17.4 15.2 17.4 15.6C17.4 16 17.6 16.4 17.8 16.8C18.1 17.3 17.8 17.6 17.7 17.7C17.6 17.8 17.2 18.1 16.8 17.8C16.4 17.6 16 17.4 15.6 17.4C15.1 17.4 14.7 17.4 14.3 17.6C13.9 17.7 13.6 18 13.3 18.3C13 18.6 12.8 19 12.7 19.4C12.6 20 12.1 20 12 20C11.9 20 11.4 20 11.2 19.4C11.1 19 10.9 18.6 10.6 18.3C10.4 18 10 17.8 9.6 17.6Z" fill="currentColor"/>
</svg>
