<svg width="28" height="28" viewBox="0 0 28 28" fill="currentColor" xmlns="http://www.w3.org/2000/svg">
    <path fill-rule="evenodd" clip-rule="evenodd" d="M16.8392 20L12.8794 23.9598C10.696 26.1432 7.14323 26.1432 4.9598 23.9598C2.77637 21.7764 2.77637 18.2236 4.9598 16.0402L8.9196 12.0804L10.5035 13.6643L6.54372 17.6241C5.23382 18.934 5.23382 21.066 6.54372 22.3759C7.85362 23.6858 9.98557 23.6858 11.2955 22.3759L15.2553 18.4161L16.8392 20Z" />
    <path fill-rule="evenodd" clip-rule="evenodd" d="M12.0879 8.91257L16.0477 4.95277C18.2311 2.76934 21.7839 2.76934 23.9673 4.95277C26.1507 7.1362 26.1507 10.6889 23.9673 12.8724L20.0075 16.8322L18.4236 15.2482L22.3834 11.2884C23.6933 9.97854 23.6933 7.84659 22.3834 6.53669C21.0735 5.22679 18.9415 5.22679 17.6316 6.53669L13.6718 10.4965L12.0879 8.91257Z" />
    <mask id="mask0" mask-type="alpha" maskUnits="userSpaceOnUse" x="1" y="0" width="27" height="28">
        <path d="M8.9196 27.9196L27.9266 8.91257L20.007 0.992971L1 20L8.9196 27.9196Z" fill="currentColor"/>
    </mask>
    <g mask="url(#mask0)">
        <path fill-rule="evenodd" clip-rule="evenodd" d="M12.0878 18.4161L18.4235 12.0804L16.8396 10.4965L10.5039 16.8322L12.0878 18.4161Z"/>
    </g>
</svg>
