<svg width="12" height="14" viewBox="0 0 12 14" xmlns="http://www.w3.org/2000/svg">
<path fill-rule="evenodd" clip-rule="evenodd" d="M2.66602 1.66665C2.4892 1.66665 2.31964 1.73688 2.19461 1.86191C2.06959 1.98693 1.99935 2.1565 1.99935 2.33331V11.6666C1.99935 11.8435 2.06959 12.013 2.19461 12.1381C2.31964 12.2631 2.4892 12.3333 2.66602 12.3333H9.33268C9.50949 12.3333 9.67906 12.2631 9.80409 12.1381C9.92911 12.013 9.99935 11.8435 9.99935 11.6666V5.27612L6.38994 1.66672L2.66602 1.66665ZM1.2518 0.919099C1.62687 0.544027 2.13558 0.333313 2.66602 0.333313H6.39002C6.74358 0.333389 7.08277 0.473887 7.33275 0.723908M7.33275 0.723908L10.942 4.33317C10.942 4.33319 10.942 4.33315 10.942 4.33317C11.192 4.58316 11.3326 4.92228 11.3327 5.27584V11.6666C11.3327 12.1971 11.122 12.7058 10.7469 13.0809C10.3718 13.4559 9.86312 13.6666 9.33268 13.6666H2.66602C2.13558 13.6666 1.62687 13.4559 1.2518 13.0809C0.876729 12.7058 0.666016 12.1971 0.666016 11.6666V2.33331C0.666016 1.80288 0.876729 1.29417 1.2518 0.919099M3.33268 6.99998C3.33268 6.63179 3.63116 6.33331 3.99935 6.33331H7.99935C8.36754 6.33331 8.66602 6.63179 8.66602 6.99998C8.66602 7.36817 8.36754 7.66665 7.99935 7.66665H3.99935C3.63116 7.66665 3.33268 7.36817 3.33268 6.99998ZM3.33268 9.66665C3.33268 9.29846 3.63116 8.99998 3.99935 8.99998H7.99935C8.36754 8.99998 8.66602 9.29846 8.66602 9.66665C8.66602 10.0348 8.36754 10.3333 7.99935 10.3333H3.99935C3.63116 10.3333 3.33268 10.0348 3.33268 9.66665Z" fill="currentColor"/>
</svg>
