<svg width="14" height="12" viewBox="0 0 14 12" fill="none" xmlns="http://www.w3.org/2000/svg">
<path fill-rule="evenodd" clip-rule="evenodd" d="M0.919842 1.25247C1.29491 0.877401 1.80362 0.666687 2.33406 0.666687H11.6674C12.1978 0.666687 12.7065 0.877401 13.0816 1.25247C13.4567 1.62755 13.6674 2.13625 13.6674 2.66669V3.32301C13.6675 3.3295 13.6675 3.33599 13.6674 3.34247V9.33335C13.6674 9.86379 13.4567 10.3725 13.0816 10.7476C12.7065 11.1226 12.1978 11.3334 11.6674 11.3334H2.33406C1.80362 11.3334 1.29491 11.1226 0.919842 10.7476C0.544769 10.3725 0.334055 9.86379 0.334055 9.33335V3.34247C0.333961 3.33599 0.333961 3.3295 0.334055 3.32301V2.66669C0.334055 2.13625 0.544769 1.62755 0.919842 1.25247ZM1.66739 4.57903V9.33335C1.66739 9.51016 1.73763 9.67973 1.86265 9.80476C1.98768 9.92978 2.15724 10 2.33406 10H11.6674C11.8442 10 12.0138 9.92978 12.1388 9.80476C12.2638 9.67973 12.3341 9.51016 12.3341 9.33335V4.57903L8.11072 7.39459C8.11065 7.39463 8.11059 7.39468 8.11052 7.39472C7.7819 7.61391 7.39574 7.73089 7.00072 7.73089C6.60571 7.73089 6.21954 7.61391 5.89092 7.39472C5.89085 7.39468 5.89079 7.39463 5.89072 7.39459L1.66739 4.57903ZM12.3341 2.97656L7.37092 6.28532L7.37072 6.28545C7.26117 6.35855 7.13242 6.39755 7.00072 6.39755C6.86902 6.39755 6.74027 6.35855 6.63072 6.28545L6.63052 6.28532L1.66739 2.97656V2.66669C1.66739 2.48988 1.73763 2.32031 1.86265 2.19528C1.98767 2.07026 2.15724 2.00002 2.33406 2.00002H11.6674C11.8442 2.00002 12.0138 2.07026 12.1388 2.19528C12.2638 2.32031 12.3341 2.48988 12.3341 2.66669V2.97656Z" fill="currentColor"/>
</svg>
