<svg width="16" height="16" viewBox="0 0 16 16" fill="none" xmlns="http://www.w3.org/2000/svg">
<path fill-rule="evenodd" clip-rule="evenodd" d="M5.61289 0.55044C6.12209 0.449154 6.64989 0.501137 7.12954 0.699817C7.58978 0.890454 7.98586 1.20793 8.27198 1.61467C8.38756 1.53939 8.51033 1.47455 8.63896 1.42127C9.0501 1.25097 9.5025 1.20642 9.93895 1.29323C10.3754 1.38005 10.7763 1.59434 11.091 1.90901C11.4057 2.22368 11.62 2.62459 11.7068 3.06105C11.7858 3.45855 11.7559 3.86927 11.6213 4.25H13.25C13.8467 4.25 14.419 4.48705 14.841 4.90901C15.2629 5.33097 15.5 5.90326 15.5 6.5C15.5 7.09674 15.2629 7.66903 14.841 8.09099C14.6014 8.33054 14.3134 8.5105 14 8.62132V13.25C14 13.8467 13.7629 14.419 13.341 14.841C12.919 15.2629 12.3467 15.5 11.75 15.5H4.25C3.65326 15.5 3.08097 15.2629 2.65901 14.841C2.23705 14.419 2 13.8467 2 13.25V8.62132C1.68657 8.5105 1.39856 8.33054 1.15901 8.09099C0.737053 7.66903 0.5 7.09674 0.5 6.5C0.5 5.90326 0.737053 5.33097 1.15901 4.90901C1.58097 4.48705 2.15326 4.25 2.75 4.25H3.75329C3.73449 4.21037 3.71666 4.17021 3.69982 4.12955C3.50114 3.64989 3.44915 3.12209 3.55044 2.61289C3.65172 2.10369 3.90173 1.63596 4.26884 1.26885C4.63596 0.901733 5.10369 0.651726 5.61289 0.55044ZM6.125 4.25H7.25V3.125C7.25 2.9025 7.18402 2.68499 7.0604 2.49998C6.93679 2.31498 6.76109 2.17079 6.55552 2.08564C6.34995 2.00049 6.12375 1.97821 5.90552 2.02162C5.68729 2.06503 5.48684 2.17217 5.3295 2.32951C5.17217 2.48684 5.06502 2.6873 5.02162 2.90552C4.97821 3.12375 5.00049 3.34995 5.08564 3.55552C5.17078 3.76109 5.31498 3.93679 5.49998 4.0604C5.68499 4.18402 5.9025 4.25 6.125 4.25ZM8.75 4.25V3.5C8.75 3.35167 8.79399 3.20666 8.8764 3.08332C8.95881 2.95999 9.07594 2.86386 9.21299 2.80709C9.35003 2.75033 9.50083 2.73547 9.64632 2.76441C9.7918 2.79335 9.92544 2.86478 10.0303 2.96967C10.1352 3.07456 10.2067 3.2082 10.2356 3.35368C10.2645 3.49917 10.2497 3.64997 10.1929 3.78701C10.1361 3.92406 10.04 4.04119 9.91668 4.1236C9.79334 4.20601 9.64834 4.25 9.5 4.25H8.75ZM3.5 8.75V13.25C3.5 13.4489 3.57902 13.6397 3.71967 13.7803C3.86032 13.921 4.05109 14 4.25 14H7.25V8.75H3.5ZM8.75 8.75V14H11.75C11.9489 14 12.1397 13.921 12.2803 13.7803C12.421 13.6397 12.5 13.4489 12.5 13.25V8.75H8.75ZM8.75 7.25V5.75H13.25C13.4489 5.75 13.6397 5.82902 13.7803 5.96967C13.921 6.11032 14 6.30109 14 6.5C14 6.69891 13.921 6.88968 13.7803 7.03033C13.6397 7.17098 13.4489 7.25 13.25 7.25H8.75ZM7.25 5.75V7.25H2.75C2.55109 7.25 2.36032 7.17098 2.21967 7.03033C2.07902 6.88968 2 6.69891 2 6.5C2 6.30109 2.07902 6.11032 2.21967 5.96967C2.36032 5.82902 2.55109 5.75 2.75 5.75H7.25Z" fill="#E5E7EB"/>
</svg>
