<svg width="26" height="25" viewBox="0 0 26 25" fill="none" xmlns="http://www.w3.org/2000/svg">
<g clip-path="url(#clip0_7433_25017)">
<path fill-rule="evenodd" clip-rule="evenodd" d="M11.8854 6.18894C11.7152 6.18819 11.549 6.23938 11.4075 6.33546C11.2662 6.4315 11.1559 6.56806 11.0899 6.72739L9.79489 9.8588H6.82114C6.70657 9.85723 6.59297 9.87921 6.48695 9.92334C6.38071 9.96756 6.28436 10.0331 6.20337 10.1158C6.12239 10.1985 6.05836 10.2967 6.01474 10.4047C5.97112 10.5127 5.94872 10.6284 5.94872 10.7452C5.94872 10.862 5.97112 10.9777 6.01474 11.0857C6.05836 11.1937 6.12239 11.2919 6.20337 11.3746C6.28436 11.4573 6.38071 11.5228 6.48695 11.5671C6.59296 11.6112 6.70655 11.6332 6.8211 11.6316H10.3635C10.5331 11.6317 10.6985 11.5801 10.8393 11.4841C10.98 11.3881 11.0897 11.252 11.1555 11.0932L11.8392 9.44175L13.6085 14.2078C13.6679 14.3676 13.7711 14.5068 13.9064 14.608C14.0418 14.7092 14.2033 14.7679 14.3712 14.7762C14.5391 14.7845 14.7054 14.742 14.8498 14.6544C14.994 14.5669 15.1098 14.4382 15.1837 14.2849L16.465 11.6316H19.4736C19.5881 11.6332 19.7017 11.6112 19.8077 11.5671C19.914 11.5228 20.0103 11.4573 20.0913 11.3746C20.1723 11.2919 20.2363 11.1937 20.2799 11.0857C20.3235 10.9777 20.3459 10.862 20.3459 10.7452C20.3459 10.6284 20.3235 10.5127 20.2799 10.4047C20.2363 10.2967 20.1723 10.1985 20.0913 10.1158C20.0103 10.0331 19.914 9.96756 19.8077 9.92334C19.7017 9.87921 19.5881 9.85723 19.4735 9.8588H15.9312C15.7701 9.85884 15.6126 9.90538 15.4765 9.99264C15.3403 10.0799 15.231 10.2042 15.1602 10.3511L14.5159 11.6858L12.6862 6.75836C12.6245 6.5924 12.5155 6.44877 12.3727 6.34685C12.2298 6.24489 12.06 6.1896 11.8854 6.18894ZM14.5648 11.8176L14.5159 11.6858L14.4548 11.8125L14.5037 11.9442L14.5648 11.8176ZM16.4008 11.5316L16.4926 11.5745L16.465 11.6316H16.4008V11.5316Z" fill="currentColor"/>
<path fill-rule="evenodd" clip-rule="evenodd" d="M5.30193 2.51907C3.99202 2.51907 2.92261 3.63431 2.92261 4.97827V15.9879C2.92261 17.3318 3.99202 18.4471 5.30193 18.4471H9.50262V20.8684H7.83341C7.71886 20.8668 7.60527 20.8888 7.49926 20.9329C7.39302 20.9772 7.29667 21.0427 7.21568 21.1254C7.1347 21.2081 7.07067 21.3063 7.02705 21.4143C6.98343 21.5223 6.96103 21.638 6.96103 21.7548C6.96103 21.8716 6.98343 21.9873 7.02705 22.0953C7.07067 22.2033 7.1347 22.3015 7.21568 22.3842C7.29667 22.4669 7.39302 22.5324 7.49926 22.5767C7.60527 22.6208 7.71886 22.6428 7.83341 22.6412H10.2305C10.3176 22.6551 10.4064 22.6551 10.4935 22.6412H15.7982C15.8853 22.6551 15.9741 22.6551 16.0612 22.6412H18.4613C18.5758 22.6428 18.6894 22.6208 18.7954 22.5767C18.9016 22.5324 18.998 22.4669 19.079 22.3842C19.16 22.3015 19.224 22.2033 19.2676 22.0953C19.3112 21.9873 19.3336 21.8716 19.3336 21.7548C19.3336 21.638 19.3112 21.5223 19.2676 21.4143C19.224 21.3063 19.16 21.2081 19.079 21.1254C18.998 21.0427 18.9016 20.9772 18.7954 20.9329C18.6894 20.8888 18.5758 20.8668 18.4613 20.8684H16.792V18.4471H20.9927C22.3026 18.4471 23.3721 17.3318 23.3721 15.9879V4.97827C23.3721 3.63431 22.3026 2.51907 20.9927 2.51907H5.30193ZM4.64433 4.97827C4.64433 4.58481 4.93445 4.29187 5.30193 4.29187H20.9927C21.3602 4.29187 21.6503 4.58481 21.6503 4.97827V15.9879C21.6503 16.3813 21.3602 16.6743 20.9927 16.6743H16.0642C15.977 16.6604 15.8883 16.6604 15.8012 16.6743H10.4965C10.4093 16.6604 10.3206 16.6604 10.2335 16.6743H5.30193C4.93445 16.6743 4.64433 16.3813 4.64433 15.9879V4.97827ZM11.2243 20.8684V18.4471H15.0703V20.8684H11.2243Z" fill="currentColor"/>
</g>
<defs>
<clipPath id="clip0_7433_25017">
<rect width="20.3253" height="20" fill="white" transform="translate(2.98462 2.61905)"/>
</clipPath>
</defs>
</svg>
