<svg width="12" height="13" viewBox="0 0 12 13" xmlns="http://www.w3.org/2000/svg">
<path fill-rule="evenodd" clip-rule="evenodd" d="M2.97385 1.81751C4.12084 1.14774 5.45764 0.87744 6.77475 1.04898C8.09185 1.22053 9.31483 1.82421 10.252 2.76544C11.1892 3.70666 11.7876 4.93222 11.9534 6.25006C11.9994 6.61536 11.7406 6.94878 11.3753 6.99475C11.0099 7.04073 10.6765 6.78186 10.6306 6.41656C10.5015 5.39154 10.0361 4.4383 9.30716 3.70621C8.57822 2.97413 7.62699 2.50458 6.60255 2.37115C5.5781 2.23772 4.53833 2.44796 3.64619 2.96891C3.05686 3.31305 2.55395 3.77993 2.16882 4.33331H4C4.36819 4.33331 4.66667 4.63178 4.66667 4.99997C4.66667 5.36816 4.36819 5.66664 4 5.66664H0.666667C0.298477 5.66664 0 5.36816 0 4.99997V1.66664C0 1.29845 0.298477 0.999973 0.666667 0.999973C1.03486 0.999973 1.33333 1.29845 1.33333 1.66664V3.22679C1.78729 2.66529 2.34192 2.18652 2.97385 1.81751ZM0.624272 7.00525C0.989547 6.95901 1.32315 7.21764 1.36939 7.58291C1.4991 8.60756 1.96493 9.56027 2.69394 10.2919C3.42295 11.0235 4.37398 11.4928 5.39816 11.6261C6.42234 11.7595 7.46184 11.5495 8.35392 11.029C8.94286 10.6854 9.44561 10.2192 9.83087 9.66664H8C7.63181 9.66664 7.33333 9.36816 7.33333 8.99997C7.33333 8.63178 7.63181 8.33331 8 8.33331H11.3333C11.7015 8.33331 12 8.63178 12 8.99997V12.3333C12 12.7015 11.7015 13 11.3333 13C10.9651 13 10.6667 12.7015 10.6667 12.3333V10.7723C10.2125 11.3335 9.65779 11.8119 9.02586 12.1807C7.87901 12.8498 6.54265 13.1198 5.22597 12.9483C3.9093 12.7768 2.68665 12.1736 1.74944 11.233C0.812233 10.2924 0.213371 9.06765 0.0466118 7.75037C0.000370383 7.38509 0.258998 7.05149 0.624272 7.00525Z" fill="currentColor"/>
</svg>
