<svg width="16" height="16" viewBox="0 0 16 16" fill="none" xmlns="http://www.w3.org/2000/svg">
<path d="M10.1082 5.6451C10.6801 5.97606 11.3325 6.14216 11.993 6.125C12.8705 6.125 14.168 5.75 15.383 3.8675C15.4914 3.70041 15.529 3.49711 15.4875 3.3023C15.446 3.1075 15.3289 2.93716 15.1618 2.82875C14.9947 2.72034 14.7914 2.68275 14.5966 2.72424C14.4018 2.76574 14.2314 2.88291 14.123 3.05C13.658 3.77 12.908 4.625 11.993 4.625C11.5764 4.64912 11.1621 4.54765 10.8037 4.33371C10.4454 4.11977 10.1595 3.80322 9.98303 3.425C9.50303 2.645 8.97803 2 8.00303 2C7.02803 2 6.50303 2.645 6.02303 3.425C5.84658 3.80322 5.56069 4.11977 5.20234 4.33371C4.84399 4.54765 4.42969 4.64912 4.01303 4.625C3.09803 4.625 2.34803 3.8 1.88303 3.05C1.77363 2.88291 1.60234 2.76613 1.40683 2.72534C1.21132 2.68455 1.00762 2.7231 0.840534 2.8325C0.673448 2.9419 0.556665 3.1132 0.515875 3.3087C0.475086 3.50421 0.513633 3.70791 0.623034 3.875C1.83803 5.735 3.13553 6.125 4.01303 6.125C4.67357 6.14216 5.32595 5.97606 5.89785 5.6451C6.46974 5.31414 6.93881 4.83126 7.25303 4.25C7.76303 3.5 7.84553 3.5 8.00303 3.5C8.16053 3.5 8.27303 3.5 8.75303 4.25C9.06726 4.83126 9.53633 5.31414 10.1082 5.6451Z" fill="#E5E7EB"/>
<path d="M11.993 9.875C11.3325 9.89216 10.6801 9.72606 10.1082 9.3951C9.53633 9.06414 9.06726 8.58126 8.75303 8C8.27303 7.25 8.16053 7.25 8.00303 7.25C7.84553 7.25 7.76303 7.25 7.25303 8C6.93881 8.58126 6.46974 9.06414 5.89785 9.3951C5.32595 9.72606 4.67357 9.89216 4.01303 9.875C3.13553 9.875 1.83803 9.485 0.623034 7.625C0.513633 7.45791 0.475086 7.25421 0.515875 7.0587C0.556665 6.8632 0.673448 6.6919 0.840534 6.5825C1.00762 6.4731 1.21132 6.43455 1.40683 6.47534C1.60234 6.51613 1.77363 6.63291 1.88303 6.8C2.34803 7.55 3.09803 8.375 4.01303 8.375C4.42969 8.39912 4.84399 8.29765 5.20234 8.08371C5.56069 7.86977 5.84658 7.55322 6.02303 7.175C6.50303 6.395 7.02803 5.75 8.00303 5.75C8.97803 5.75 9.50303 6.395 9.98303 7.175C10.1595 7.55322 10.4454 7.86977 10.8037 8.08371C11.1621 8.29765 11.5764 8.39912 11.993 8.375C12.908 8.375 13.658 7.52 14.123 6.8C14.2314 6.63291 14.4018 6.51574 14.5966 6.47424C14.7914 6.43275 14.9947 6.47034 15.1618 6.57875C15.3289 6.68716 15.446 6.8575 15.4875 7.0523C15.529 7.24711 15.4914 7.45041 15.383 7.6175C14.168 9.5 12.8705 9.875 11.993 9.875Z" fill="#E5E7EB"/>
<path d="M11.993 13.625C11.3325 13.6422 10.6801 13.4761 10.1082 13.1451C9.53633 12.8141 9.06726 12.3313 8.75303 11.75C8.27303 11 8.16053 11 8.00303 11C7.84553 11 7.76303 11 7.25303 11.75C6.93881 12.3313 6.46974 12.8141 5.89785 13.1451C5.32595 13.4761 4.67357 13.6422 4.01303 13.625C3.13553 13.625 1.83803 13.235 0.623034 11.375C0.513633 11.2079 0.475086 11.0042 0.515875 10.8087C0.556665 10.6132 0.673448 10.4419 0.840534 10.3325C1.00762 10.2231 1.21132 10.1846 1.40683 10.2253C1.60234 10.2661 1.77363 10.3829 1.88303 10.55C2.34803 11.3 3.09803 12.125 4.01303 12.125C4.42969 12.1491 4.84399 12.0477 5.20234 11.8337C5.56069 11.6198 5.84658 11.3032 6.02303 10.925C6.50303 10.145 7.02803 9.5 8.00303 9.5C8.97803 9.5 9.50303 10.145 9.98303 10.925C10.1595 11.3032 10.4454 11.6198 10.8037 11.8337C11.1621 12.0477 11.5764 12.1491 11.993 12.125C12.908 12.125 13.658 11.27 14.123 10.55C14.2314 10.3829 14.4018 10.2657 14.5966 10.2242C14.7914 10.1828 14.9947 10.2203 15.1618 10.3288C15.3289 10.4372 15.446 10.6075 15.4875 10.8023C15.529 10.9971 15.4914 11.2004 15.383 11.3675C14.168 13.25 12.8705 13.625 11.993 13.625Z" fill="#E5E7EB"/>
</svg>
