<svg width="14" height="12" viewBox="0 0 14 12" fill="none" xmlns="http://www.w3.org/2000/svg">
<path fill-rule="evenodd" clip-rule="evenodd" d="M0.919771 1.25247C1.29484 0.877401 1.80355 0.666687 2.33398 0.666687H11.6673C12.1978 0.666687 12.7065 0.877401 13.0815 1.25247C13.4566 1.62755 13.6673 2.13625 13.6673 2.66669V4.66669C13.6673 4.8435 13.5971 5.01307 13.4721 5.13809C13.347 5.26312 13.1775 5.33335 13.0007 5.33335C12.8238 5.33335 12.6543 5.40359 12.5292 5.52862C12.4042 5.65364 12.334 5.82321 12.334 6.00002C12.334 6.17683 12.4042 6.3464 12.5292 6.47142C12.6543 6.59645 12.8238 6.66669 13.0007 6.66669C13.3688 6.66669 13.6673 6.96516 13.6673 7.33335V9.33335C13.6673 9.86379 13.4566 10.3725 13.0815 10.7476C12.7065 11.1226 12.1978 11.3334 11.6673 11.3334H2.33398C1.80355 11.3334 1.29484 11.1226 0.919771 10.7476C0.544698 10.3725 0.333984 9.86379 0.333984 9.33335V7.33335C0.333984 6.96516 0.632461 6.66669 1.00065 6.66669C1.17746 6.66669 1.34703 6.59645 1.47206 6.47142C1.59708 6.3464 1.66732 6.17683 1.66732 6.00002C1.66732 5.82321 1.59708 5.65364 1.47206 5.52862C1.34703 5.40359 1.17746 5.33335 1.00065 5.33335C0.632461 5.33335 0.333984 5.03488 0.333984 4.66669V2.66669C0.333984 2.13625 0.544698 1.62755 0.919771 1.25247ZM9.66732 10V9.33335C9.66732 8.96516 9.36884 8.66669 9.00065 8.66669C8.63246 8.66669 8.33398 8.96516 8.33398 9.33335V10H2.33398C2.15717 10 1.9876 9.92978 1.86258 9.80476C1.73756 9.67973 1.66732 9.51016 1.66732 9.33335V7.88564C1.94592 7.78713 2.20193 7.62717 2.41486 7.41423C2.78994 7.03916 3.00065 6.53045 3.00065 6.00002C3.00065 5.46959 2.78994 4.96088 2.41486 4.58581C2.20193 4.37287 1.94592 4.21291 1.66732 4.1144V2.66669C1.66732 2.48988 1.73756 2.32031 1.86258 2.19528C1.9876 2.07026 2.15717 2.00002 2.33398 2.00002H8.33398V2.66669C8.33398 3.03488 8.63246 3.33335 9.00065 3.33335C9.36884 3.33335 9.66732 3.03488 9.66732 2.66669V2.00002H11.6673C11.8441 2.00002 12.0137 2.07026 12.1387 2.19528C12.2637 2.32031 12.334 2.48988 12.334 2.66669V4.1144C12.0554 4.21291 11.7994 4.37287 11.5864 4.58581C11.2114 4.96088 11.0007 5.46959 11.0007 6.00002C11.0007 6.53045 11.2114 7.03916 11.5864 7.41423C11.7994 7.62717 12.0554 7.78713 12.334 7.88564V9.33335C12.334 9.51016 12.2637 9.67973 12.1387 9.80476C12.0137 9.92978 11.8441 10 11.6673 10H9.66732ZM9.00065 4.66669C9.36884 4.66669 9.66732 4.96516 9.66732 5.33335V6.66669C9.66732 7.03488 9.36884 7.33335 9.00065 7.33335C8.63246 7.33335 8.33398 7.03488 8.33398 6.66669V5.33335C8.33398 4.96516 8.63246 4.66669 9.00065 4.66669Z" fill="currentColor"/>
</svg>
