<svg width="152" height="86" viewBox="0 0 152 86" fill="none" xmlns="http://www.w3.org/2000/svg">
<g clip-path="url(#clip0_3328_74800)">
<rect width="151.111" height="85" rx="4" transform="matrix(-1 0 0 1 151.559 0.568848)" fill="#E5E5E5"/>
<g clip-path="url(#clip1_3328_74800)">
<rect width="113.586" height="133.022" transform="matrix(-0.904226 0.427054 0.427054 0.904226 77.2656 -28.5676)" fill="#072B55"/>
<rect width="83.8194" height="85" transform="matrix(-1 0 0 1 84.2656 0.568604)" fill="#072B55"/>
</g>
<path d="M15.8242 40.7314L14.927 38.2995H11.6687L10.7714 40.7314H9.44922L12.6485 32.2669H13.9707L17.1582 40.7314H15.8242ZM13.7228 34.8169C13.6992 34.7303 13.6559 34.6004 13.593 34.4273C13.5379 34.2463 13.4828 34.0652 13.4277 33.8842C13.3726 33.6953 13.3293 33.5419 13.2978 33.4238C13.2585 33.5812 13.2113 33.7544 13.1562 33.9433C13.1089 34.1243 13.0617 34.2935 13.0145 34.4509C12.9673 34.6004 12.9279 34.7224 12.8964 34.8169L12.0464 37.1898H14.5728L13.7228 34.8169ZM20.7152 40.8495C20.1328 40.8495 19.6212 40.7354 19.1805 40.5071C18.7398 40.2789 18.3974 39.9247 18.1534 39.4446C17.9094 38.9567 17.7874 38.3389 17.7874 37.5912C17.7874 36.8041 17.9173 36.1666 18.177 35.6787C18.4446 35.1907 18.8027 34.8326 19.2513 34.6044C19.7078 34.3683 20.2273 34.2502 20.8097 34.2502C21.1638 34.2502 21.4944 34.2895 21.8013 34.3683C22.1161 34.4391 22.3759 34.5217 22.5805 34.6162L22.2027 35.6314C21.9824 35.5449 21.7462 35.4701 21.4944 35.4071C21.2504 35.3442 21.0182 35.3127 20.7979 35.3127C20.4043 35.3127 20.0777 35.3993 19.818 35.5724C19.5661 35.7377 19.3773 35.9895 19.2513 36.328C19.1333 36.6585 19.0743 37.0757 19.0743 37.5794C19.0743 38.0595 19.1372 38.4648 19.2631 38.7953C19.3891 39.1259 19.574 39.3777 19.818 39.5509C20.0699 39.7162 20.3807 39.7988 20.7506 39.7988C21.1048 39.7988 21.4157 39.7595 21.6833 39.6808C21.9509 39.602 22.2027 39.4997 22.4388 39.3738V40.4599C22.2106 40.5937 21.9627 40.6921 21.6951 40.7551C21.4275 40.818 21.1009 40.8495 20.7152 40.8495ZM26.2312 39.8342C26.3965 39.8342 26.5657 39.8185 26.7388 39.787C26.912 39.7555 27.0615 39.7201 27.1874 39.6808V40.6252C27.0536 40.6882 26.8726 40.7393 26.6444 40.7787C26.4161 40.8259 26.1879 40.8495 25.9597 40.8495C25.6134 40.8495 25.2946 40.7905 25.0034 40.6724C24.7201 40.5544 24.4918 40.3497 24.3187 40.0585C24.1455 39.7673 24.059 39.362 24.059 38.8426V35.3245H23.1735V34.7578L24.1062 34.2856L24.543 32.9398H25.3104V34.3683H27.1284V35.3245H25.3104V38.8189C25.3104 39.1652 25.393 39.421 25.5583 39.5863C25.7314 39.7516 25.9557 39.8342 26.2312 39.8342ZM29.7116 34.3683V40.7314H28.4602V34.3683H29.7116ZM29.0977 31.9481C29.2866 31.9481 29.4519 32.0032 29.5936 32.1134C29.7352 32.2236 29.8061 32.4085 29.8061 32.6683C29.8061 32.9201 29.7352 33.1051 29.5936 33.2231C29.4519 33.3333 29.2866 33.3884 29.0977 33.3884C28.8931 33.3884 28.7199 33.3333 28.5783 33.2231C28.4445 33.1051 28.3776 32.9201 28.3776 32.6683C28.3776 32.4085 28.4445 32.2236 28.5783 32.1134C28.7199 32.0032 28.8931 31.9481 29.0977 31.9481ZM37.2844 37.5439C37.2844 38.0713 37.2136 38.5395 37.0719 38.9488C36.9302 39.3581 36.7296 39.7044 36.4698 39.9877C36.2101 40.271 35.8953 40.4875 35.5254 40.637C35.1555 40.7787 34.7383 40.8495 34.274 40.8495C33.849 40.8495 33.4555 40.7787 33.0934 40.637C32.7314 40.4875 32.4166 40.271 32.149 39.9877C31.8893 39.7044 31.6846 39.3581 31.5351 38.9488C31.3856 38.5395 31.3108 38.0673 31.3108 37.5321C31.3108 36.8317 31.4289 36.2375 31.665 35.7495C31.9089 35.2615 32.2552 34.8916 32.7039 34.6398C33.1603 34.3801 33.6955 34.2502 34.3094 34.2502C34.8918 34.2502 35.4034 34.3801 35.8441 34.6398C36.2927 34.8916 36.643 35.2615 36.8948 35.7495C37.1546 36.2375 37.2844 36.8356 37.2844 37.5439ZM32.5976 37.5439C32.5976 38.0162 32.6566 38.4254 32.7747 38.7717C32.8927 39.1101 33.0777 39.3699 33.3296 39.5509C33.5814 39.7319 33.9041 39.8224 34.2976 39.8224C34.6911 39.8224 35.0138 39.7319 35.2657 39.5509C35.5175 39.3699 35.7025 39.1101 35.8205 38.7717C35.9386 38.4254 35.9976 38.0162 35.9976 37.5439C35.9976 37.056 35.9346 36.6467 35.8087 36.3162C35.6907 35.9856 35.5057 35.7338 35.2539 35.5606C35.0099 35.3796 34.6872 35.2891 34.2858 35.2891C33.6955 35.2891 33.2666 35.4858 32.999 35.8794C32.7314 36.2729 32.5976 36.8277 32.5976 37.5439ZM42.0937 34.2502C42.8335 34.2502 43.4002 34.4351 43.7937 34.8051C44.1872 35.175 44.384 35.7692 44.384 36.5877V40.7314H43.1444V36.7648C43.1444 36.2689 43.0381 35.899 42.8256 35.6551C42.621 35.4032 42.2905 35.2773 41.834 35.2773C41.1886 35.2773 40.74 35.4701 40.4881 35.8558C40.2442 36.2414 40.1222 36.7963 40.1222 37.5203V40.7314H38.8708V34.3683H39.8625L40.0395 35.2183H40.1104C40.252 34.9979 40.4252 34.8169 40.6298 34.6752C40.8344 34.5335 41.0627 34.4273 41.3145 34.3564C41.5664 34.2856 41.8261 34.2502 42.0937 34.2502ZM51.8764 32.3023C52.6004 32.3023 53.1946 32.3928 53.659 32.5738C54.1233 32.7548 54.4696 33.0264 54.6979 33.3884C54.9261 33.7426 55.0402 34.1912 55.0402 34.7342C55.0402 35.1671 54.9576 35.5331 54.7923 35.8321C54.6349 36.1233 54.4303 36.3634 54.1784 36.5523C53.9266 36.7333 53.6629 36.8789 53.3875 36.9891L55.7486 40.7314H54.2847L52.2541 37.3196H50.7902V40.7314H49.5152V32.3023H51.8764ZM51.7937 33.3884H50.7902V36.2571H51.8527C52.2856 36.2571 52.6398 36.202 52.9152 36.0919C53.1986 35.9817 53.4032 35.8164 53.5291 35.596C53.6629 35.3757 53.7298 35.1041 53.7298 34.7814C53.7298 34.443 53.659 34.1754 53.5173 33.9787C53.3835 33.774 53.171 33.6245 52.8798 33.5301C52.5965 33.4356 52.2345 33.3884 51.7937 33.3884ZM58.0957 34.3683V40.7314H56.8443V34.3683H58.0957ZM57.4818 31.9481C57.6707 31.9481 57.8359 32.0032 57.9776 32.1134C58.1193 32.2236 58.1901 32.4085 58.1901 32.6683C58.1901 32.9201 58.1193 33.1051 57.9776 33.2231C57.8359 33.3333 57.6707 33.3884 57.4818 33.3884C57.2771 33.3884 57.104 33.3333 56.9623 33.2231C56.8285 33.1051 56.7616 32.9201 56.7616 32.6683C56.7616 32.4085 56.8285 32.2236 56.9623 32.1134C57.104 32.0032 57.2771 31.9481 57.4818 31.9481ZM61.4893 40.7314L59.081 34.3683H60.4032L61.7254 38.087C61.7805 38.2444 61.8356 38.4215 61.8907 38.6183C61.9537 38.815 62.0087 39.0039 62.056 39.1849C62.1032 39.3659 62.1347 39.5233 62.1504 39.6571H62.1976C62.2212 39.5233 62.2567 39.3659 62.3039 39.1849C62.359 38.996 62.418 38.8071 62.481 38.6183C62.5439 38.4215 62.599 38.2444 62.6462 38.087L63.9685 34.3683H65.2907L62.8706 40.7314H61.4893ZM68.7777 34.2502C69.3365 34.2502 69.8166 34.3683 70.2179 34.6044C70.6193 34.8326 70.9263 35.1632 71.1388 35.596C71.3591 36.0289 71.4693 36.5405 71.4693 37.1308V37.8155H67.1957C67.2115 38.4687 67.3807 38.9685 67.7034 39.3148C68.0339 39.6611 68.4943 39.8342 69.0846 39.8342C69.4939 39.8342 69.8559 39.7988 70.1707 39.728C70.4934 39.6493 70.824 39.5351 71.1624 39.3856V40.4245C70.8476 40.5662 70.5249 40.6724 70.1943 40.7433C69.8716 40.8141 69.486 40.8495 69.0374 40.8495C68.4235 40.8495 67.8804 40.7275 67.4082 40.4835C66.936 40.2395 66.5661 39.8775 66.2985 39.3974C66.0388 38.9095 65.9089 38.3113 65.9089 37.603C65.9089 36.8868 66.027 36.2808 66.2631 35.7849C66.5071 35.2891 66.8416 34.9113 67.2666 34.6516C67.6994 34.384 68.2031 34.2502 68.7777 34.2502ZM68.7777 35.2183C68.3291 35.2183 67.967 35.3639 67.6916 35.6551C67.424 35.9463 67.2666 36.3595 67.2193 36.8946H70.2179C70.2179 36.5641 70.1668 36.2729 70.0645 36.021C69.9622 35.7692 69.8048 35.5724 69.5923 35.4308C69.3798 35.2891 69.1082 35.2183 68.7777 35.2183ZM76.1711 34.2502C76.2813 34.2502 76.4033 34.2581 76.5371 34.2738C76.6708 34.2817 76.781 34.2935 76.8676 34.3092L76.7377 35.478C76.6512 35.4544 76.5489 35.4347 76.4308 35.4189C76.3127 35.4032 76.2026 35.3953 76.1002 35.3953C75.8641 35.3953 75.6359 35.4426 75.4155 35.537C75.203 35.6236 75.0102 35.7534 74.8371 35.9266C74.6639 36.0919 74.5262 36.2965 74.4239 36.5405C74.3294 36.7845 74.2822 37.0639 74.2822 37.3787V40.7314H73.0308V34.3683H74.0225L74.1877 35.5016H74.235C74.3688 35.2733 74.5301 35.0648 74.719 34.8759C74.9079 34.687 75.1243 34.5375 75.3683 34.4273C75.6123 34.3092 75.8799 34.2502 76.1711 34.2502Z" fill="#FF7C66"/>
<path d="M12.0653 46.9881C12.5942 46.9881 13.0287 47.0605 13.3687 47.2053C13.715 47.3439 13.97 47.5548 14.1337 47.8381C14.3037 48.1214 14.3887 48.4772 14.3887 48.9053C14.3887 49.2642 14.3257 49.5633 14.1998 49.8026C14.0801 50.0418 13.9227 50.2339 13.7276 50.3787C13.5387 50.5172 13.3372 50.6274 13.1231 50.7092L14.8798 53.7314H13.8976L12.3676 50.9453H11.1492V53.7314H10.3087V46.9881H12.0653ZM12.0181 47.7248H11.1492V50.2276H12.0559C12.3959 50.2276 12.6729 50.1803 12.887 50.0859C13.1074 49.9851 13.2679 49.8403 13.3687 49.6514C13.4694 49.4626 13.5198 49.2264 13.5198 48.9431C13.5198 48.6472 13.4663 48.4111 13.3592 48.2348C13.2522 48.0585 13.0853 47.9294 12.8587 47.8476C12.6383 47.7657 12.3581 47.7248 12.0181 47.7248ZM17.5987 48.5748C18.008 48.5748 18.3606 48.6692 18.6565 48.8581C18.9524 49.047 19.1791 49.3146 19.3365 49.6609C19.5002 50.0009 19.5821 50.4007 19.5821 50.8603V51.3609H16.3332C16.3458 51.9339 16.4811 52.3714 16.7393 52.6737C16.9974 52.9696 17.3595 53.1176 17.8254 53.1176C18.1276 53.1176 18.3952 53.0892 18.6282 53.0326C18.8674 52.9696 19.113 52.8814 19.3649 52.7681V53.4953C19.1193 53.6087 18.8769 53.6905 18.6376 53.7409C18.4047 53.7976 18.1213 53.8259 17.7876 53.8259C17.3343 53.8259 16.9345 53.7283 16.5882 53.5331C16.2419 53.3379 15.9711 53.0483 15.776 52.6642C15.5808 52.2739 15.4832 51.7985 15.4832 51.2381C15.4832 50.684 15.5713 50.2087 15.7476 49.812C15.9239 49.4153 16.1695 49.11 16.4843 48.8959C16.8054 48.6818 17.1769 48.5748 17.5987 48.5748ZM17.5987 49.2548C17.2336 49.2548 16.9439 49.3839 16.7299 49.642C16.5158 49.8939 16.3899 50.2464 16.3521 50.6998H18.7321C18.7321 50.4101 18.6911 50.1583 18.6093 49.9442C18.5274 49.7301 18.4015 49.5633 18.2315 49.4437C18.0678 49.3177 17.8569 49.2548 17.5987 49.2548ZM21.6568 53.7314L19.8529 48.6692H20.7312L21.7323 51.6537C21.7827 51.7922 21.833 51.9464 21.8834 52.1164C21.9338 52.2864 21.9779 52.4501 22.0156 52.6076C22.0597 52.7587 22.088 52.8877 22.1006 52.9948H22.1384C22.1573 52.8877 22.1888 52.7555 22.2329 52.5981C22.2769 52.4407 22.3242 52.277 22.3745 52.107C22.4312 51.937 22.4816 51.7859 22.5256 51.6537L23.5268 48.6692H24.4051L22.5918 53.7314H21.6568ZM27.0063 48.5748C27.4156 48.5748 27.7681 48.6692 28.0641 48.8581C28.36 49.047 28.5867 49.3146 28.7441 49.6609C28.9078 50.0009 28.9896 50.4007 28.9896 50.8603V51.3609H25.7407C25.7533 51.9339 25.8887 52.3714 26.1468 52.6737C26.405 52.9696 26.767 53.1176 27.233 53.1176C27.5352 53.1176 27.8028 53.0892 28.0357 53.0326C28.275 52.9696 28.5206 52.8814 28.7724 52.7681V53.4953C28.5268 53.6087 28.2844 53.6905 28.0452 53.7409C27.8122 53.7976 27.5289 53.8259 27.1952 53.8259C26.7418 53.8259 26.342 53.7283 25.9957 53.5331C25.6494 53.3379 25.3787 53.0483 25.1835 52.6642C24.9883 52.2739 24.8907 51.7985 24.8907 51.2381C24.8907 50.684 24.9789 50.2087 25.1552 49.812C25.3315 49.4153 25.577 49.11 25.8918 48.8959C26.213 48.6818 26.5844 48.5748 27.0063 48.5748ZM27.0063 49.2548C26.6411 49.2548 26.3515 49.3839 26.1374 49.642C25.9233 49.8939 25.7974 50.2464 25.7596 50.6998H28.1396C28.1396 50.4101 28.0987 50.1583 28.0168 49.9442C27.935 49.7301 27.8091 49.5633 27.6391 49.4437C27.4754 49.3177 27.2644 49.2548 27.0063 49.2548ZM32.439 48.5748C32.5271 48.5748 32.6216 48.5811 32.7223 48.5937C32.8231 48.6 32.9112 48.6126 32.9868 48.6314L32.8923 49.3964C32.8168 49.3776 32.7318 49.3618 32.6373 49.3492C32.5492 49.3366 32.4642 49.3303 32.3823 49.3303C32.1997 49.3303 32.0266 49.3713 31.8629 49.4531C31.6992 49.535 31.5512 49.6514 31.419 49.8026C31.2931 49.9474 31.1923 50.1237 31.1168 50.3314C31.0412 50.5392 31.0034 50.7722 31.0034 51.0303V53.7314H30.1818V48.6692H30.8523L30.9468 49.5948H30.9845C31.0853 49.4059 31.2049 49.2359 31.3434 49.0848C31.4882 48.9274 31.6519 48.8046 31.8345 48.7164C32.0171 48.622 32.2186 48.5748 32.439 48.5748ZM36.9971 52.3337C36.9971 52.6611 36.9184 52.935 36.761 53.1553C36.6099 53.3757 36.3927 53.5426 36.1093 53.6559C35.826 53.7692 35.486 53.8259 35.0893 53.8259C34.7556 53.8259 34.466 53.7976 34.2204 53.7409C33.9812 53.6842 33.7703 53.6055 33.5877 53.5048V52.7492C33.7829 52.85 34.0158 52.9444 34.2866 53.0326C34.5573 53.1144 34.8312 53.1553 35.1082 53.1553C35.4923 53.1553 35.7693 53.0892 35.9393 52.957C36.1156 52.8185 36.2038 52.6359 36.2038 52.4092C36.2038 52.2833 36.1691 52.17 36.0999 52.0692C36.0369 51.9685 35.9204 51.8677 35.7504 51.767C35.5867 51.6663 35.3475 51.5529 35.0327 51.427C34.7304 51.3011 34.4691 51.1751 34.2488 51.0492C34.0347 50.9233 33.8679 50.7722 33.7482 50.5959C33.6349 50.4196 33.5782 50.1929 33.5782 49.9159C33.5782 49.4877 33.7419 49.1572 34.0693 48.9242C34.403 48.6913 34.8375 48.5748 35.3727 48.5748C35.6623 48.5748 35.933 48.6063 36.1849 48.6692C36.4367 48.7259 36.676 48.8077 36.9027 48.9148L36.6288 49.5759C36.4966 49.5129 36.358 49.4594 36.2132 49.4153C36.0684 49.365 35.9204 49.3272 35.7693 49.302C35.6245 49.2705 35.4766 49.2548 35.3254 49.2548C35.0169 49.2548 34.7808 49.3114 34.6171 49.4248C34.4534 49.5318 34.3716 49.6798 34.3716 49.8687C34.3716 50.0072 34.4093 50.1268 34.4849 50.2276C34.5604 50.3283 34.6832 50.4259 34.8532 50.5203C35.0295 50.6085 35.2688 50.7124 35.571 50.832C35.8732 50.9516 36.1314 51.0744 36.3454 51.2003C36.5595 51.3263 36.7201 51.4805 36.8271 51.6631C36.9404 51.8394 36.9971 52.0629 36.9971 52.3337ZM39.9924 48.5748C40.4017 48.5748 40.7543 48.6692 41.0502 48.8581C41.3461 49.047 41.5728 49.3146 41.7302 49.6609C41.8939 50.0009 41.9757 50.4007 41.9757 50.8603V51.3609H38.7268C38.7394 51.9339 38.8748 52.3714 39.133 52.6737C39.3911 52.9696 39.7531 53.1176 40.2191 53.1176C40.5213 53.1176 40.7889 53.0892 41.0218 53.0326C41.2611 52.9696 41.5067 52.8814 41.7585 52.7681V53.4953C41.513 53.6087 41.2705 53.6905 41.0313 53.7409C40.7983 53.7976 40.515 53.8259 40.1813 53.8259C39.728 53.8259 39.3281 53.7283 38.9818 53.5331C38.6356 53.3379 38.3648 53.0483 38.1696 52.6642C37.9744 52.2739 37.8768 51.7985 37.8768 51.2381C37.8768 50.684 37.965 50.2087 38.1413 49.812C38.3176 49.4153 38.5631 49.11 38.878 48.8959C39.1991 48.6818 39.5705 48.5748 39.9924 48.5748ZM39.9924 49.2548C39.6272 49.2548 39.3376 49.3839 39.1235 49.642C38.9094 49.8939 38.7835 50.2464 38.7457 50.6998H41.1257C41.1257 50.4101 41.0848 50.1583 41.003 49.9442C40.9211 49.7301 40.7952 49.5633 40.6252 49.4437C40.4615 49.3177 40.2506 49.2548 39.9924 49.2548ZM49.1381 53.7314H45.587V46.9881H49.1381V47.7342H46.4275V49.8403H48.9775V50.577H46.4275V52.9853H49.1381V53.7314ZM52.5706 53.7314H51.73V47.7342H49.7656V46.9881H54.5161V47.7342H52.5706V53.7314ZM55.4834 53.7314V46.9881H56.3239V52.9759H59.0817V53.7314H55.4834Z" fill="white"/>
<g filter="url(#filter0_dd_3328_74800)">
<rect x="88.7812" y="19.3662" width="54.3056" height="46.7303" rx="5.84129" fill="white"/>
<g clip-path="url(#clip2_3328_74800)">
<path d="M102.804 44.4229H115.329C115.617 44.4229 115.851 44.737 115.851 45.125V54.5593C115.851 54.9473 115.618 55.2614 115.329 55.2614H102.804C102.515 55.2614 102.281 54.9473 102.281 54.5593V45.125C102.281 44.737 102.515 44.4229 102.804 44.4229Z" fill="white"/>
<path d="M99.8428 44.4229H114.011C114.384 44.4229 114.686 44.737 114.686 45.125V54.5593C114.686 54.9473 114.384 55.2614 114.011 55.2614H99.8428C99.47 55.2614 99.168 54.9473 99.168 54.5593V45.125C99.168 44.737 99.47 44.4229 99.8428 44.4229Z" fill="white"/>
<path d="M98.5348 55.2624H99.8931C99.6433 55.2615 99.4409 54.9473 99.4403 54.5603V45.125C99.4409 44.7379 99.6433 44.4238 99.8931 44.4229H98.5348C98.285 44.4238 98.0826 44.7379 98.082 45.125V54.5593C98.0831 54.9464 98.285 55.2605 98.5348 55.2615V55.2624Z" fill="white"/>
<path d="M110.522 43.7619C110.695 43.7647 110.863 43.833 110.989 43.9536L111.067 44.0527C111.093 44.0891 111.112 44.1293 111.127 44.1714C111.146 44.2088 111.16 44.249 111.167 44.2902C111.174 44.3341 111.179 44.378 111.18 44.422C111.177 44.5968 111.109 44.7642 110.989 44.8913C110.727 45.1409 110.316 45.1409 110.054 44.8913C109.994 44.8277 109.947 44.7539 109.916 44.6735C109.882 44.594 109.864 44.5089 109.863 44.422C109.866 44.2471 109.934 44.0798 110.054 43.9526C110.18 43.832 110.348 43.7638 110.522 43.761V43.7619Z" fill="url(#paint0_linear_3328_74800)"/>
<path d="M98.8606 43.9265H107.737C108.011 43.9265 108.233 44.149 108.233 44.4229C108.233 44.6969 108.011 44.9194 107.737 44.9194H98.654V54.7651H115.64V44.9194H113.402C113.129 44.9194 112.907 44.6959 112.906 44.422C112.906 44.149 113.129 43.9265 113.403 43.9255H115.433C116.094 43.9265 116.633 44.465 116.633 45.126V54.5603C116.633 55.2204 116.094 55.7589 115.433 55.7598H98.8606C98.1996 55.7598 97.6621 55.2213 97.6611 54.5603V45.125C97.6611 44.4641 98.1996 43.9265 98.8606 43.9255V43.9265Z" fill="url(#paint1_linear_3328_74800)"/>
<path d="M102.804 30.3645H115.329C115.617 30.3645 115.851 30.6786 115.851 31.0666V40.501C115.851 40.889 115.618 41.2031 115.329 41.2031H102.804C102.515 41.2031 102.281 40.889 102.281 40.501V31.0666C102.281 30.6786 102.515 30.3645 102.804 30.3645Z" fill="white"/>
<path d="M99.8428 30.0925H114.011C114.384 30.0925 114.686 30.4145 114.686 30.8123V40.4833C114.686 40.881 114.384 41.203 114.011 41.203H99.8428C99.47 41.203 99.168 40.881 99.168 40.4833V30.8123C99.168 30.4145 99.47 30.0925 99.8428 30.0925Z" fill="white"/>
<path d="M98.5348 41.204H99.8931C99.6433 41.2031 99.4409 40.889 99.4403 40.5019V31.0666C99.4409 30.6796 99.6433 30.3654 99.8931 30.3645H98.5348C98.285 30.3654 98.0826 30.6796 98.082 31.0666V40.501C98.0831 40.888 98.285 41.2022 98.5348 41.2031V41.204Z" fill="white"/>
<path d="M103.771 41.7002C103.598 41.6974 103.43 41.6292 103.304 41.5086L103.225 41.4095C103.2 41.373 103.181 41.3328 103.166 41.2907C103.147 41.2533 103.133 41.2131 103.126 41.172C103.119 41.1281 103.114 41.0841 103.113 41.0402C103.116 40.8653 103.184 40.698 103.304 40.5708C103.566 40.3212 103.977 40.3212 104.239 40.5708C104.299 40.6344 104.346 40.7083 104.377 40.7887C104.411 40.8682 104.429 40.9532 104.43 41.0402C104.427 41.215 104.359 41.3824 104.239 41.5095C104.113 41.6301 103.945 41.6984 103.771 41.7012V41.7002Z" fill="url(#paint2_linear_3328_74800)"/>
<path d="M115.432 41.5357H106.556C106.282 41.5357 106.06 41.3132 106.06 41.0392C106.06 40.7653 106.282 40.5428 106.556 40.5428H115.639V30.6971H98.653V40.5428H100.891C101.164 40.5428 101.386 40.7662 101.387 41.0402C101.387 41.3132 101.164 41.5357 100.89 41.5366H98.8597C98.1987 41.5357 97.6602 40.9972 97.6602 40.3362V30.9018C97.6602 30.2418 98.1987 29.7033 98.8597 29.7023H115.432C116.093 29.7023 116.631 30.2408 116.632 30.9018V40.3371C116.632 40.9981 116.093 41.5357 115.432 41.5366V41.5357Z" fill="url(#paint3_linear_3328_74800)"/>
<path d="M130.747 37.3424C130.635 37.4135 130.502 37.4712 130.346 37.5154C130.19 37.5597 130.028 37.5818 129.859 37.5818C129.505 37.5818 129.236 37.4904 129.051 37.3078C128.869 37.1233 128.777 36.881 128.777 36.5811V34.9288H128.1V34.4587H128.777V33.7782L129.423 33.7003V34.4587H130.45L130.378 34.9288H129.423V36.5754C129.423 36.7388 129.464 36.8608 129.544 36.9416C129.627 37.0204 129.762 37.0598 129.948 37.0598C130.06 37.0598 130.162 37.0464 130.257 37.0194C130.351 36.9925 130.436 36.9579 130.513 36.9156L130.747 37.3424Z" fill="url(#paint4_linear_3328_74800)"/>
<path d="M125.282 36.1889C125.295 36.3965 125.339 36.5666 125.414 36.6993C125.489 36.83 125.587 36.9261 125.708 36.9877C125.831 37.0492 125.966 37.0799 126.112 37.0799C126.262 37.0799 126.4 37.0569 126.527 37.0107C126.654 36.9646 126.782 36.8992 126.911 36.8146L127.191 37.2011C127.048 37.3164 126.882 37.4087 126.692 37.4779C126.501 37.5471 126.298 37.5817 126.08 37.5817C125.765 37.5817 125.498 37.5144 125.279 37.3798C125.061 37.2453 124.896 37.0578 124.783 36.8175C124.669 36.5772 124.613 36.2994 124.613 35.9841C124.613 35.6785 124.668 35.4055 124.78 35.1652C124.891 34.9229 125.051 34.7317 125.259 34.5913C125.466 34.4491 125.714 34.3779 126.003 34.3779C126.274 34.3779 126.506 34.4394 126.7 34.5625C126.896 34.6855 127.047 34.8605 127.153 35.0873C127.261 35.3122 127.315 35.5833 127.315 35.9005C127.315 35.9524 127.313 36.0043 127.309 36.0562C127.307 36.1062 127.304 36.1504 127.3 36.1889H125.282ZM126.008 34.8566C125.806 34.8566 125.639 34.9287 125.507 35.0729C125.376 35.2171 125.3 35.442 125.279 35.7477H126.689C126.683 35.4612 126.622 35.2411 126.504 35.0873C126.389 34.9335 126.224 34.8566 126.008 34.8566Z" fill="url(#paint5_linear_3328_74800)"/>
<path d="M123.851 34.0723L124.024 34.6086C123.902 34.649 123.769 34.6759 123.623 34.6894C123.479 34.7028 123.317 34.7096 123.138 34.7096C123.321 34.7903 123.458 34.8941 123.551 35.021C123.643 35.146 123.689 35.2998 123.689 35.4824C123.689 35.6804 123.641 35.8573 123.545 36.013C123.449 36.1687 123.311 36.2908 123.133 36.3792C122.954 36.4677 122.739 36.5119 122.489 36.5119C122.401 36.5119 122.324 36.508 122.259 36.5003C122.195 36.4927 122.133 36.4802 122.071 36.4629C122.033 36.4898 122 36.5263 121.973 36.5724C121.948 36.6167 121.936 36.6638 121.936 36.7137C121.936 36.7753 121.961 36.8291 122.011 36.8752C122.063 36.9194 122.165 36.9415 122.316 36.9415H122.847C123.064 36.9415 123.256 36.979 123.421 37.054C123.588 37.1271 123.719 37.228 123.813 37.3568C123.909 37.4837 123.957 37.6279 123.957 37.7894C123.957 38.0931 123.827 38.3286 123.565 38.4959C123.304 38.6631 122.927 38.7467 122.435 38.7467C122.087 38.7467 121.814 38.7112 121.616 38.64C121.418 38.5689 121.278 38.4632 121.198 38.3228C121.117 38.1825 121.076 38.0104 121.076 37.8067H121.656C121.656 37.9124 121.676 37.9999 121.717 38.0691C121.759 38.1383 121.837 38.1902 121.95 38.2248C122.064 38.2594 122.227 38.2767 122.44 38.2767C122.654 38.2767 122.823 38.2584 122.948 38.2219C123.075 38.1873 123.166 38.1364 123.222 38.0691C123.28 38.0037 123.308 37.9249 123.308 37.8326C123.308 37.7096 123.255 37.6144 123.147 37.5471C123.039 37.4798 122.895 37.4462 122.714 37.4462H122.192C121.904 37.4462 121.693 37.3876 121.558 37.2703C121.425 37.153 121.359 37.0165 121.359 36.8608C121.359 36.757 121.388 36.657 121.446 36.5609C121.505 36.4648 121.59 36.3812 121.699 36.31C121.517 36.2139 121.383 36.0976 121.299 35.9611C121.216 35.8227 121.175 35.6554 121.175 35.4593C121.175 35.244 121.228 35.0556 121.336 34.8941C121.444 34.7326 121.593 34.6067 121.783 34.5164C121.975 34.426 122.196 34.3808 122.446 34.3808C122.69 34.3808 122.894 34.3683 123.058 34.3433C123.221 34.3164 123.363 34.2789 123.484 34.2309C123.607 34.1828 123.729 34.13 123.851 34.0723ZM122.452 34.8249C122.246 34.8249 122.092 34.8836 121.988 35.0008C121.884 35.1162 121.832 35.2671 121.832 35.4536C121.832 35.6458 121.885 35.8006 121.991 35.9178C122.098 36.0332 122.255 36.0909 122.461 36.0909C122.651 36.0909 122.796 36.0351 122.896 35.9236C122.998 35.8121 123.049 35.6535 123.049 35.4478C123.049 35.2402 122.999 35.0845 122.899 34.9806C122.799 34.8768 122.65 34.8249 122.452 34.8249Z" fill="url(#paint6_linear_3328_74800)"/>
<path d="M118.08 38.1181L117.566 37.8874L120.018 32.8208L120.525 33.0601L118.08 38.1181Z" fill="url(#paint7_linear_3328_74800)"/>
<path d="M134.205 51.401C134.094 51.4721 133.96 51.5298 133.804 51.574C133.649 51.6182 133.486 51.6404 133.317 51.6404C132.963 51.6404 132.694 51.549 132.509 51.3664C132.327 51.1818 132.236 50.9396 132.236 50.6397V48.9874H131.558V48.5173H132.236V47.8368L132.881 47.7589V48.5173H133.908L133.836 48.9874H132.881V50.6339C132.881 50.7974 132.922 50.9194 133.003 51.0002C133.085 51.079 133.22 51.1184 133.406 51.1184C133.518 51.1184 133.621 51.1049 133.715 51.078C133.809 51.0511 133.895 51.0165 133.971 50.9742L134.205 51.401Z" fill="url(#paint8_linear_3328_74800)"/>
<path d="M129.311 51.1443C129.513 51.1443 129.673 51.1087 129.792 51.0376C129.911 50.9646 129.971 50.8646 129.971 50.7377C129.971 50.655 129.954 50.5849 129.919 50.5272C129.885 50.4676 129.815 50.4138 129.712 50.3657C129.608 50.3157 129.45 50.2638 129.239 50.21C129.039 50.1581 128.863 50.0966 128.711 50.0254C128.561 49.9543 128.445 49.862 128.362 49.7486C128.279 49.6352 128.238 49.4891 128.238 49.3103C128.238 49.1353 128.287 48.9825 128.385 48.8518C128.483 48.721 128.623 48.6192 128.806 48.5461C128.991 48.473 129.207 48.4365 129.455 48.4365C129.711 48.4365 129.934 48.4702 130.124 48.5375C130.314 48.6047 130.477 48.6884 130.611 48.7883L130.34 49.1949C130.221 49.1161 130.09 49.0517 129.948 49.0017C129.808 48.9517 129.649 48.9267 129.472 48.9267C129.266 48.9267 129.118 48.9575 129.028 49.019C128.94 49.0805 128.895 49.1623 128.895 49.2641C128.895 49.3391 128.918 49.4026 128.962 49.4545C129.008 49.5044 129.087 49.5515 129.198 49.5958C129.31 49.6381 129.467 49.688 129.671 49.7457C129.869 49.7995 130.041 49.863 130.187 49.936C130.335 50.0091 130.45 50.1062 130.53 50.2273C130.613 50.3465 130.654 50.5022 130.654 50.6945C130.654 50.9136 130.591 51.0934 130.464 51.2337C130.339 51.3721 130.174 51.475 129.968 51.5423C129.764 51.6076 129.545 51.6403 129.311 51.6403C129.028 51.6403 128.784 51.5999 128.578 51.5192C128.373 51.4365 128.2 51.3337 128.059 51.2106L128.402 50.8184C128.522 50.9146 128.658 50.9934 128.812 51.0549C128.966 51.1145 129.132 51.1443 129.311 51.1443Z" fill="url(#paint9_linear_3328_74800)"/>
<path d="M125.965 48.4365C126.263 48.4365 126.514 48.5028 126.718 48.6355C126.921 48.7681 127.075 48.9537 127.179 49.192C127.285 49.4304 127.338 49.7111 127.338 50.0341C127.338 50.3551 127.284 50.6368 127.176 50.879C127.07 51.1193 126.915 51.3068 126.709 51.4413C126.505 51.574 126.256 51.6403 125.962 51.6403C125.668 51.6403 125.418 51.5759 125.212 51.4471C125.009 51.3164 124.853 51.1308 124.745 50.8905C124.639 50.6502 124.587 50.3667 124.587 50.0399C124.587 49.7226 124.639 49.4439 124.745 49.2036C124.853 48.9633 125.009 48.7758 125.215 48.6413C125.421 48.5048 125.671 48.4365 125.965 48.4365ZM125.965 48.9383C125.732 48.9383 125.557 49.0277 125.44 49.2065C125.323 49.3833 125.264 49.6611 125.264 50.0399C125.264 50.4167 125.322 50.6945 125.437 50.8732C125.555 51.052 125.729 51.1414 125.962 51.1414C126.195 51.1414 126.369 51.052 126.484 50.8732C126.601 50.6945 126.66 50.4147 126.66 50.0341C126.66 49.6592 126.602 49.3833 126.487 49.2065C126.372 49.0277 126.198 48.9383 125.965 48.9383Z" fill="url(#paint10_linear_3328_74800)"/>
<path d="M122.772 48.4365C123.041 48.4365 123.257 48.5028 123.418 48.6355C123.58 48.7662 123.697 48.9517 123.77 49.192C123.843 49.4304 123.879 49.7111 123.879 50.0341C123.879 50.3436 123.835 50.6195 123.747 50.8617C123.658 51.1039 123.527 51.2943 123.352 51.4327C123.179 51.5711 122.963 51.6403 122.706 51.6403C122.387 51.6403 122.129 51.5278 121.933 51.3029V52.7332L121.287 52.8053V48.5173H121.849L121.89 48.9094C122.005 48.7518 122.139 48.6336 122.291 48.5548C122.444 48.4759 122.605 48.4365 122.772 48.4365ZM122.593 48.9354C122.449 48.9354 122.322 48.9787 122.213 49.0652C122.103 49.1517 122.01 49.2536 121.933 49.3708V50.7954C122.006 50.905 122.093 50.9895 122.192 51.0491C122.294 51.1068 122.409 51.1357 122.536 51.1357C122.753 51.1357 122.918 51.0482 123.032 50.8732C123.145 50.6983 123.202 50.4195 123.202 50.037C123.202 49.7774 123.179 49.5669 123.133 49.4054C123.088 49.242 123.021 49.1228 122.931 49.0479C122.842 48.9729 122.73 48.9354 122.593 48.9354Z" fill="url(#paint11_linear_3328_74800)"/>
<path d="M118.08 52.1767L117.566 51.946L120.018 46.8794L120.525 47.1187L118.08 52.1767Z" fill="url(#paint12_linear_3328_74800)"/>
<path d="M104.982 37.1476V35.5508H103.394V36.1169H104.207V36.8857C104.176 36.9194 104.13 36.9542 104.072 36.9898C104.014 37.0255 103.936 37.0565 103.839 37.0828C103.743 37.1072 103.622 37.1194 103.475 37.1194C103.314 37.1194 103.169 37.0903 103.042 37.0321C102.916 36.972 102.81 36.8847 102.723 36.7702C102.639 36.6538 102.574 36.5111 102.529 36.3421C102.484 36.1713 102.461 35.9761 102.461 35.7564V35.4804C102.461 35.2626 102.481 35.0693 102.521 34.9003C102.562 34.7313 102.622 34.5896 102.701 34.4751C102.78 34.3605 102.877 34.2732 102.994 34.2132C103.11 34.1531 103.244 34.1231 103.396 34.1231C103.577 34.1231 103.723 34.154 103.836 34.216C103.95 34.2761 104.038 34.3605 104.1 34.4694C104.162 34.5764 104.204 34.7013 104.224 34.844H104.979C104.949 34.5849 104.874 34.3559 104.754 34.1569C104.634 33.956 104.461 33.7983 104.236 33.6837C104.012 33.5692 103.727 33.512 103.38 33.512C103.12 33.512 102.886 33.5561 102.675 33.6443C102.467 33.7326 102.288 33.8612 102.138 34.0301C101.989 34.1991 101.875 34.4056 101.794 34.6497C101.715 34.8937 101.676 35.1725 101.676 35.4861V35.7564C101.676 36.0699 101.718 36.3487 101.803 36.5928C101.887 36.8368 102.007 37.0434 102.163 37.2123C102.319 37.3813 102.505 37.5099 102.721 37.5981C102.936 37.6845 103.175 37.7277 103.436 37.7277C103.736 37.7277 103.99 37.6958 104.196 37.6319C104.403 37.5662 104.57 37.4883 104.697 37.3982C104.827 37.3081 104.922 37.2245 104.982 37.1476Z" fill="url(#paint13_linear_3328_74800)"/>
<path d="M108.489 37.063V37.6713H105.772V33.5711H108.481V34.1822H106.546V35.2635H108.205V35.8577H106.546V37.063H108.489Z" fill="url(#paint14_linear_3328_74800)"/>
<path d="M110.901 34.1822V37.6713H110.13V34.1822H108.871V33.5711H112.174V34.1822H110.901Z" fill="url(#paint15_linear_3328_74800)"/>
<path fill-rule="evenodd" clip-rule="evenodd" d="M106.969 49.7381V49.9493C106.969 50.2591 106.927 50.5379 106.845 50.7857C106.762 51.0316 106.645 51.2409 106.493 51.4137C106.341 51.5864 106.16 51.7187 105.949 51.8107C105.739 51.9027 105.505 51.9487 105.248 51.9487C104.995 51.9487 104.762 51.9027 104.55 51.8107C104.34 51.7187 104.157 51.5864 104.003 51.4137C103.849 51.2409 103.73 51.0316 103.646 50.7857C103.561 50.5379 103.519 50.2591 103.519 49.9493V49.7381C103.519 49.4264 103.561 49.1476 103.646 48.9017C103.73 48.6558 103.849 48.4464 104.001 48.2737C104.153 48.0991 104.334 47.9658 104.544 47.8738C104.756 47.7818 104.989 47.7358 105.243 47.7358C105.5 47.7358 105.733 47.7818 105.944 47.8738C106.154 47.9658 106.335 48.0991 106.487 48.2737C106.641 48.4464 106.759 48.6558 106.842 48.9017C106.927 49.1476 106.969 49.4264 106.969 49.7381ZM106.186 49.9493V49.7325C106.186 49.509 106.165 49.3129 106.124 49.1439C106.083 48.973 106.022 48.8294 105.941 48.713C105.86 48.5966 105.761 48.5093 105.642 48.4511C105.524 48.3911 105.391 48.361 105.243 48.361C105.092 48.361 104.959 48.3911 104.843 48.4511C104.728 48.5093 104.63 48.5966 104.55 48.713C104.469 48.8294 104.407 48.973 104.364 49.1439C104.323 49.3129 104.302 49.509 104.302 49.7325V49.9493C104.302 50.1708 104.323 50.367 104.364 50.5379C104.407 50.7087 104.469 50.8533 104.55 50.9715C104.632 51.0879 104.732 51.1762 104.848 51.2363C104.965 51.2963 105.098 51.3264 105.248 51.3264C105.398 51.3264 105.532 51.2963 105.648 51.2363C105.764 51.1762 105.862 51.0879 105.941 50.9715C106.022 50.8533 106.083 50.7087 106.124 50.5379C106.165 50.367 106.186 50.1708 106.186 49.9493Z" fill="url(#paint16_linear_3328_74800)"/>
<path d="M109.792 50.6167C109.816 50.6787 109.828 50.7491 109.828 50.8279C109.828 50.9293 109.802 51.0194 109.75 51.0983C109.699 51.1771 109.622 51.2391 109.519 51.2841C109.417 51.3273 109.288 51.3489 109.13 51.3489C109.008 51.3489 108.894 51.3358 108.789 51.3095C108.684 51.2832 108.592 51.2419 108.513 51.1856C108.436 51.1274 108.376 51.0532 108.333 50.9631C108.292 50.8711 108.271 50.7603 108.271 50.6308H107.494C107.494 50.8542 107.541 51.0495 107.635 51.2165C107.729 51.3818 107.854 51.5188 108.012 51.6277C108.17 51.7347 108.345 51.8154 108.539 51.8699C108.734 51.9224 108.931 51.9487 109.13 51.9487C109.354 51.9487 109.555 51.9234 109.736 51.8727C109.918 51.822 110.073 51.7478 110.203 51.6502C110.333 51.5526 110.432 51.4343 110.502 51.2954C110.571 51.1565 110.606 50.9988 110.606 50.8223C110.606 50.6552 110.577 50.5059 110.518 50.3745C110.462 50.2431 110.377 50.1248 110.262 50.0197C110.15 49.9146 110.008 49.8207 109.837 49.7381C109.668 49.6555 109.471 49.5804 109.246 49.5128C109.105 49.4696 108.981 49.4264 108.874 49.3833C108.769 49.3382 108.68 49.2903 108.609 49.2396C108.538 49.1871 108.484 49.1317 108.449 49.0735C108.413 49.0134 108.395 48.9458 108.395 48.8707C108.395 48.7712 108.42 48.6811 108.471 48.6004C108.524 48.5197 108.602 48.4558 108.705 48.4089C108.81 48.362 108.941 48.3385 109.099 48.3385C109.262 48.3385 109.398 48.3666 109.505 48.423C109.614 48.4793 109.694 48.5563 109.747 48.6539C109.801 48.7515 109.828 48.8642 109.828 48.9918H110.6C110.6 48.7553 110.539 48.5422 110.417 48.3526C110.295 48.1629 110.122 48.0128 109.899 47.902C109.677 47.7912 109.415 47.7358 109.11 47.7358C108.891 47.7358 108.69 47.7631 108.508 47.8175C108.328 47.872 108.171 47.9499 108.037 48.0512C107.904 48.1507 107.801 48.27 107.728 48.4089C107.656 48.5478 107.621 48.7018 107.621 48.8707C107.621 49.0435 107.655 49.1955 107.725 49.3269C107.794 49.4565 107.891 49.571 108.015 49.6705C108.141 49.77 108.286 49.8573 108.451 49.9324C108.617 50.0075 108.795 50.0751 108.986 50.1352C109.159 50.1896 109.3 50.2422 109.409 50.2929C109.52 50.3417 109.605 50.3924 109.665 50.4449C109.727 50.4956 109.769 50.5529 109.792 50.6167Z" fill="url(#paint17_linear_3328_74800)"/>
<path d="M113.021 51.8924V48.4033H114.293V47.7922H110.99V48.4033H112.249V51.8924H113.021Z" fill="url(#paint18_linear_3328_74800)"/>
<path fill-rule="evenodd" clip-rule="evenodd" d="M100.665 50.3971H101.468C101.787 50.3971 102.059 50.3454 102.284 50.2422C102.511 50.1389 102.684 49.9916 102.802 49.8001C102.923 49.6086 102.983 49.3805 102.983 49.1157C102.983 48.8604 102.923 48.6333 102.802 48.4343C102.684 48.2334 102.511 48.0766 102.284 47.964C102.059 47.8494 101.787 47.7922 101.468 47.7922H99.8906V51.8924H100.665V50.3971ZM101.468 49.7888H100.665V48.4033H101.468C101.64 48.4033 101.78 48.4371 101.887 48.5047C101.996 48.5722 102.076 48.6605 102.127 48.7694C102.177 48.8783 102.203 48.9956 102.203 49.1214C102.203 49.2509 102.177 49.3664 102.127 49.4678C102.076 49.5673 101.996 49.6461 101.887 49.7043C101.78 49.7606 101.64 49.7888 101.468 49.7888Z" fill="url(#paint19_linear_3328_74800)"/>
</g>
</g>
</g>
<defs>
<filter id="filter0_dd_3328_74800" x="85.9479" y="18.894" width="59.9714" height="52.3969" filterUnits="userSpaceOnUse" color-interpolation-filters="sRGB">
<feFlood flood-opacity="0" result="BackgroundImageFix"/>
<feColorMatrix in="SourceAlpha" type="matrix" values="0 0 0 0 0 0 0 0 0 0 0 0 0 0 0 0 0 0 127 0" result="hardAlpha"/>
<feOffset dy="0.944444"/>
<feGaussianBlur stdDeviation="0.708333"/>
<feColorMatrix type="matrix" values="0 0 0 0 0 0 0 0 0 0 0 0 0 0 0 0 0 0 0.25 0"/>
<feBlend mode="normal" in2="BackgroundImageFix" result="effect1_dropShadow_3328_74800"/>
<feColorMatrix in="SourceAlpha" type="matrix" values="0 0 0 0 0 0 0 0 0 0 0 0 0 0 0 0 0 0 127 0" result="hardAlpha"/>
<feMorphology radius="0.708333" operator="erode" in="SourceAlpha" result="effect2_dropShadow_3328_74800"/>
<feOffset dy="2.36111"/>
<feGaussianBlur stdDeviation="1.77083"/>
<feColorMatrix type="matrix" values="0 0 0 0 0 0 0 0 0 0 0 0 0 0 0 0 0 0 0.25 0"/>
<feBlend mode="normal" in2="effect1_dropShadow_3328_74800" result="effect2_dropShadow_3328_74800"/>
<feBlend mode="normal" in="SourceGraphic" in2="effect2_dropShadow_3328_74800" result="shape"/>
</filter>
<linearGradient id="paint0_linear_3328_74800" x1="111.18" y1="45.0785" x2="109.862" y2="43.7622" gradientUnits="userSpaceOnUse">
<stop stop-color="#A03291"/>
<stop offset="1" stop-color="#FF7C66"/>
</linearGradient>
<linearGradient id="paint1_linear_3328_74800" x1="116.633" y1="55.7598" x2="106.004" y2="38.7212" gradientUnits="userSpaceOnUse">
<stop stop-color="#A03291"/>
<stop offset="1" stop-color="#FF7C66"/>
</linearGradient>
<linearGradient id="paint2_linear_3328_74800" x1="103.113" y1="40.3836" x2="104.431" y2="41.7" gradientUnits="userSpaceOnUse">
<stop stop-color="#A03291"/>
<stop offset="1" stop-color="#FF7C66"/>
</linearGradient>
<linearGradient id="paint3_linear_3328_74800" x1="97.6602" y1="29.7023" x2="108.289" y2="46.741" gradientUnits="userSpaceOnUse">
<stop stop-color="#A03291"/>
<stop offset="1" stop-color="#FF7C66"/>
</linearGradient>
<linearGradient id="paint4_linear_3328_74800" x1="117.566" y1="38.7467" x2="121.999" y2="28.8878" gradientUnits="userSpaceOnUse">
<stop stop-color="#A03291"/>
<stop offset="1" stop-color="#FF7C66"/>
</linearGradient>
<linearGradient id="paint5_linear_3328_74800" x1="117.566" y1="38.7467" x2="121.999" y2="28.8878" gradientUnits="userSpaceOnUse">
<stop stop-color="#A03291"/>
<stop offset="1" stop-color="#FF7C66"/>
</linearGradient>
<linearGradient id="paint6_linear_3328_74800" x1="117.566" y1="38.7467" x2="121.999" y2="28.8878" gradientUnits="userSpaceOnUse">
<stop stop-color="#A03291"/>
<stop offset="1" stop-color="#FF7C66"/>
</linearGradient>
<linearGradient id="paint7_linear_3328_74800" x1="117.566" y1="38.7467" x2="121.999" y2="28.8878" gradientUnits="userSpaceOnUse">
<stop stop-color="#A03291"/>
<stop offset="1" stop-color="#FF7C66"/>
</linearGradient>
<linearGradient id="paint8_linear_3328_74800" x1="117.566" y1="52.8053" x2="121.312" y2="42.2876" gradientUnits="userSpaceOnUse">
<stop stop-color="#A03291"/>
<stop offset="1" stop-color="#FF7C66"/>
</linearGradient>
<linearGradient id="paint9_linear_3328_74800" x1="117.566" y1="52.8053" x2="121.312" y2="42.2876" gradientUnits="userSpaceOnUse">
<stop stop-color="#A03291"/>
<stop offset="1" stop-color="#FF7C66"/>
</linearGradient>
<linearGradient id="paint10_linear_3328_74800" x1="117.566" y1="52.8053" x2="121.312" y2="42.2876" gradientUnits="userSpaceOnUse">
<stop stop-color="#A03291"/>
<stop offset="1" stop-color="#FF7C66"/>
</linearGradient>
<linearGradient id="paint11_linear_3328_74800" x1="117.566" y1="52.8053" x2="121.312" y2="42.2876" gradientUnits="userSpaceOnUse">
<stop stop-color="#A03291"/>
<stop offset="1" stop-color="#FF7C66"/>
</linearGradient>
<linearGradient id="paint12_linear_3328_74800" x1="117.566" y1="52.8053" x2="121.312" y2="42.2876" gradientUnits="userSpaceOnUse">
<stop stop-color="#A03291"/>
<stop offset="1" stop-color="#FF7C66"/>
</linearGradient>
<linearGradient id="paint13_linear_3328_74800" x1="101.676" y1="37.7277" x2="104.591" y2="30.4671" gradientUnits="userSpaceOnUse">
<stop stop-color="#A03291"/>
<stop offset="1" stop-color="#FF7C66"/>
</linearGradient>
<linearGradient id="paint14_linear_3328_74800" x1="101.676" y1="37.7277" x2="104.591" y2="30.4671" gradientUnits="userSpaceOnUse">
<stop stop-color="#A03291"/>
<stop offset="1" stop-color="#FF7C66"/>
</linearGradient>
<linearGradient id="paint15_linear_3328_74800" x1="101.676" y1="37.7277" x2="104.591" y2="30.4671" gradientUnits="userSpaceOnUse">
<stop stop-color="#A03291"/>
<stop offset="1" stop-color="#FF7C66"/>
</linearGradient>
<linearGradient id="paint16_linear_3328_74800" x1="99.8906" y1="51.9487" x2="102.161" y2="44.187" gradientUnits="userSpaceOnUse">
<stop stop-color="#A03291"/>
<stop offset="1" stop-color="#FF7C66"/>
</linearGradient>
<linearGradient id="paint17_linear_3328_74800" x1="99.8906" y1="51.9487" x2="102.161" y2="44.187" gradientUnits="userSpaceOnUse">
<stop stop-color="#A03291"/>
<stop offset="1" stop-color="#FF7C66"/>
</linearGradient>
<linearGradient id="paint18_linear_3328_74800" x1="99.8906" y1="51.9487" x2="102.161" y2="44.187" gradientUnits="userSpaceOnUse">
<stop stop-color="#A03291"/>
<stop offset="1" stop-color="#FF7C66"/>
</linearGradient>
<linearGradient id="paint19_linear_3328_74800" x1="99.8906" y1="51.9487" x2="102.161" y2="44.187" gradientUnits="userSpaceOnUse">
<stop stop-color="#A03291"/>
<stop offset="1" stop-color="#FF7C66"/>
</linearGradient>
<clipPath id="clip0_3328_74800">
<rect width="151.111" height="85" rx="4" transform="matrix(-1 0 0 1 151.559 0.568848)" fill="white"/>
</clipPath>
<clipPath id="clip1_3328_74800">
<rect width="159.515" height="168.789" fill="white" transform="matrix(-1 0 0 1 134.07 -28.5676)"/>
</clipPath>
<clipPath id="clip2_3328_74800">
<rect width="50.9764" height="29.9861" fill="white" transform="translate(90.4453 27.7383)"/>
</clipPath>
</defs>
</svg>
