<svg width="124" height="107" viewBox="0 0 124 107" fill="none" xmlns="http://www.w3.org/2000/svg">
<rect x="0.238281" y="0.5" width="123.183" height="106" rx="13.25" fill="white"/>
<g clip-path="url(#clip0_3339_168026)">
<g clip-path="url(#clip1_3339_168026)">
<path d="M78.3936 37.5342H44.4697C42.0259 37.5342 40.0449 39.7439 40.0449 42.4696V50.6953C40.0449 53.4211 42.0261 55.6307 44.4697 55.6307H57.7443V53.163C57.6999 52.3022 58.3588 51.5673 59.2193 51.5178H63.6441C64.5046 51.5672 65.1636 52.3022 65.1191 53.163V55.6307H78.3937C80.8375 55.6307 82.8185 53.421 82.8185 50.6953V42.4696C82.8185 39.7439 80.8374 37.5342 78.3936 37.5342Z" fill="white"/>
<path d="M40.0438 50.6953V42.4696C40.0438 39.7438 42.025 37.5342 44.4687 37.5342H42.5116C39.7858 37.5342 37.5762 39.7439 37.5762 42.4696V50.6953C37.5762 53.4211 39.7859 55.6307 42.5116 55.6307H44.4688C42.025 55.6307 40.0438 53.4211 40.0438 50.6953Z" fill="white"/>
<path d="M80.3518 37.5342H78.3945C80.8384 37.5342 82.8194 39.7439 82.8194 42.4696V50.6953C82.8194 53.4211 80.8383 55.6307 78.3945 55.6307H80.3518C83.0776 55.6307 85.2872 53.421 85.2872 50.6953V42.4696C85.2872 39.7439 83.0775 37.5342 80.3518 37.5342Z" fill="white"/>
<path d="M81.1729 70.4371V54.3667C80.4078 55.1645 79.3535 55.6202 78.2481 55.6309H65.087V58.0987C65.1344 58.9558 64.4814 59.6905 63.6247 59.7439H59.2377C58.381 59.6905 57.7279 58.9558 57.7753 58.0987V55.6309H44.6142C43.5089 55.6203 42.4546 55.1646 41.6895 54.3667V70.4372H81.1729V70.4371Z" fill="white"/>
<path d="M39.2207 54.3667V70.4372H41.6885V55.5531C40.7701 55.3989 39.9144 54.9875 39.2207 54.3667Z" fill="white"/>
<path d="M81.1738 55.5531V70.4371H83.6416V54.3667C82.9476 54.9875 82.0921 55.3989 81.1738 55.5531Z" fill="white"/>
<path d="M46.0765 75.3722H76.7858C79.2087 75.3722 81.1728 73.1625 81.1728 70.4368H41.6895C41.6895 73.1625 43.6536 75.3722 46.0765 75.3722Z" fill="white"/>
<path d="M41.6885 70.4368H39.2207C39.2207 73.1626 41.4304 75.3722 44.1561 75.3722H46.0755C43.6526 75.3722 41.6885 73.1625 41.6885 70.4368Z" fill="white"/>
<path d="M81.1741 70.4368C81.1741 73.1626 79.2099 75.3722 76.7871 75.3722H78.7065C81.4323 75.3722 83.6419 73.1625 83.6419 70.4368H81.1741Z" fill="white"/>
<path d="M58.9636 51.5178H63.899C64.8076 51.5178 65.5442 52.2544 65.5442 53.163V58.0984C65.5442 59.0071 64.8076 59.7436 63.899 59.7436H58.9636C58.0549 59.7436 57.3184 59.0071 57.3184 58.0984V53.163C57.3185 52.2543 58.055 51.5178 58.9636 51.5178Z" fill="white"/>
<path d="M58.9655 51.5178H61.4333C62.3419 51.5178 63.0785 52.2544 63.0785 53.163V58.0984C63.0785 59.0071 62.3419 59.7436 61.4333 59.7436H58.9655C58.0569 59.7436 57.3203 59.0071 57.3203 58.0984V53.163C57.3204 52.2543 58.057 51.5178 58.9655 51.5178Z" fill="white"/>
<path d="M66.3669 34.2438C63.1634 33.176 59.6996 33.176 56.4961 34.2438V27.6633C59.6996 28.7312 63.1634 28.7312 66.3669 27.6633V34.2438Z" fill="white"/>
<path d="M51.5618 37.5341H48.2715C48.2767 32.9933 51.9563 29.3136 56.4972 29.3083V32.5987C53.7726 32.6016 51.5648 34.8096 51.5618 37.5341Z" fill="white"/>
<path d="M66.3672 32.5987V29.3083C70.9079 29.3136 74.5877 32.9932 74.5929 37.5341H71.3027C71.2996 34.8096 69.0917 32.6016 66.3672 32.5987Z" fill="white"/>
<path d="M66.3673 35.0666C66.2789 35.0668 66.1911 35.0524 66.1074 35.024C63.0712 34.0198 59.7925 34.0198 56.7564 35.024C56.5056 35.1079 56.2297 35.066 56.0152 34.9114C55.8006 34.7568 55.6736 34.5083 55.6738 34.2439V27.6634C55.6738 27.399 55.8009 27.1507 56.0152 26.9959C56.2293 26.8402 56.5056 26.7983 56.7563 26.8834C59.7925 27.8875 63.0712 27.8875 66.1074 26.8834C66.3581 26.7994 66.634 26.8413 66.8486 26.9959C67.0632 27.1504 67.1902 27.3989 67.1899 27.6633V34.2439C67.1901 34.4622 67.1036 34.6715 66.9492 34.8258C66.7948 34.9802 66.5855 35.0668 66.3673 35.0666ZM61.4319 32.6261C62.8191 32.6255 64.201 32.7996 65.5447 33.1442V28.7631C62.8463 29.454 60.0175 29.454 57.319 28.7631V33.1442C58.6627 32.7996 60.0445 32.6255 61.4319 32.6261Z" fill="url(#paint0_linear_3339_168026)"/>
<path d="M51.5622 38.3568H48.2719C48.0537 38.3569 47.8444 38.2703 47.6901 38.116C47.5358 37.9616 47.4492 37.7524 47.4492 37.5342C47.4549 32.5393 51.5026 28.4915 56.4976 28.4858C56.7157 28.4857 56.925 28.5724 57.0793 28.7267C57.2336 28.881 57.3202 29.0902 57.3202 29.3085V32.5987C57.3203 32.8168 57.2337 33.0261 57.0793 33.1804C56.9251 33.3347 56.7158 33.4213 56.4976 33.4213C54.2272 33.424 52.3874 35.2639 52.3847 37.5342C52.3848 37.7523 52.2982 37.9616 52.1438 38.116C51.9894 38.2704 51.7803 38.3569 51.5622 38.3568ZM49.1398 36.7116H50.7982C51.1668 34.1865 53.15 32.2035 55.675 31.8348V30.1768C52.2398 30.566 49.5291 33.2767 49.1398 36.7116Z" fill="url(#paint1_linear_3339_168026)"/>
<path d="M74.5933 38.3568H71.3031C71.0849 38.3568 70.8757 38.2702 70.7213 38.1159C70.567 37.9615 70.4804 37.7523 70.4804 37.5341C70.4777 35.2637 68.6379 33.4239 66.3676 33.4212C66.1494 33.4213 65.9402 33.3347 65.7858 33.1804C65.6316 33.0261 65.5449 32.8168 65.5449 32.5986V29.3085C65.5448 29.0903 65.6315 28.8811 65.7858 28.7267C65.9401 28.5725 66.1493 28.4858 66.3676 28.4858C71.3625 28.4915 75.4102 32.5392 75.4159 37.5342C75.416 37.7523 75.3294 37.9616 75.175 38.116C75.0207 38.2702 74.8114 38.3568 74.5933 38.3568ZM72.0669 36.7116H73.7253C73.336 33.2766 70.6253 30.5659 67.1901 30.1767V31.8348C69.7152 32.2035 71.6983 34.1866 72.0669 36.7116Z" fill="url(#paint2_linear_3339_168026)"/>
<path d="M63.8973 60.5662H58.9619C57.5996 60.5648 56.4956 59.4608 56.4941 58.0985V53.1631C56.4956 51.8008 57.5996 50.6968 58.9619 50.6953H63.8973C65.2596 50.6968 66.3636 51.8008 66.3651 53.1631V58.0985C66.3634 59.4608 65.2595 60.5648 63.8973 60.5662ZM58.9618 52.3405C58.5077 52.341 58.1396 52.7089 58.1392 53.1631V58.0985C58.1397 58.5526 58.5077 58.9206 58.9618 58.921H63.8972C64.3513 58.9205 64.7194 58.5526 64.7198 58.0985V53.1631C64.7193 52.7089 64.3513 52.3409 63.8972 52.3405H58.9618Z" fill="url(#paint3_linear_3339_168026)"/>
<path d="M78.7044 76.1951H44.1564C40.9779 76.1914 38.4021 73.6156 38.3984 70.4372C38.3983 70.219 38.485 70.0097 38.6393 69.8554C38.7936 69.7012 39.0028 69.6145 39.2211 69.6145H83.6399C83.8581 69.6144 84.0674 69.7011 84.2217 69.8554C84.3759 70.0096 84.4626 70.2189 84.4626 70.4372C84.4586 73.6155 81.8829 76.1913 78.7044 76.1951ZM40.1262 71.2597C40.5195 73.1733 42.2027 74.5474 44.1562 74.5499H78.7042C80.6577 74.5474 82.3408 73.1732 82.7342 71.2597H40.1262Z" fill="url(#paint4_linear_3339_168026)"/>
<path d="M80.3502 56.4533H65.5439C65.3258 56.4534 65.1165 56.3667 64.9621 56.2124C64.8078 56.0581 64.7212 55.8489 64.7212 55.6307V53.1629C64.7208 52.7088 64.3528 52.3407 63.8987 52.3403H58.9633C58.5092 52.3408 58.1411 52.7088 58.1407 53.1629V55.6307C58.1408 55.8488 58.0542 56.0581 57.8998 56.2124C57.7455 56.3667 57.5363 56.4533 57.3181 56.4533H42.5119C39.3334 56.4496 36.7576 53.8738 36.7539 50.6953V42.4696C36.7576 39.2911 39.3334 36.7153 42.5119 36.7117H80.3502C83.5287 36.7153 86.1045 39.2911 86.1082 42.4696V50.6953C86.1045 53.8738 83.5287 56.4495 80.3502 56.4533ZM66.3665 54.8081H80.3502C82.6206 54.8054 84.4604 52.9656 84.4631 50.6952V42.4695C84.4604 40.1991 82.6205 38.3594 80.3502 38.3567H42.512C40.2415 38.3594 38.4018 40.1992 38.3991 42.4695V50.6952C38.4018 52.9657 40.2416 54.8054 42.512 54.8081H56.4957V53.163C56.4972 51.8007 57.6012 50.6967 58.9635 50.6952H63.8989C65.2612 50.6967 66.3652 51.8007 66.3666 53.163L66.3665 54.8081Z" fill="url(#paint5_linear_3339_168026)"/>
<path d="M83.6399 71.2596H39.2211C39.0029 71.2597 38.7937 71.173 38.6393 71.0187C38.4851 70.8645 38.3984 70.6552 38.3984 70.437V54.3663C38.3984 54.0416 38.5894 53.7473 38.8859 53.6151C39.1824 53.4828 39.529 53.5373 39.7705 53.7542C40.5227 54.4318 41.499 54.8072 42.5114 54.8081H57.3177C57.5359 54.808 57.7451 54.8946 57.8995 55.049C58.0537 55.2032 58.1404 55.4125 58.1404 55.6307V58.0985C58.1408 58.5526 58.5088 58.9206 58.9629 58.921H63.8983C64.3524 58.9206 64.7205 58.5526 64.7209 58.0985V55.6307C64.7208 55.4126 64.8074 55.2033 64.9618 55.049C65.116 54.8947 65.3253 54.8081 65.5435 54.8081H80.3498C81.3623 54.8072 82.3385 54.4318 83.0907 53.7542C83.3323 53.5373 83.6788 53.4828 83.9753 53.6151C84.2718 53.7473 84.4628 54.0416 84.4628 54.3663V70.437C84.4629 70.6551 84.3762 70.8644 84.2219 71.0187C84.0673 71.1729 83.858 71.2596 83.6399 71.2596ZM40.0435 69.6144H82.8172V55.8941C82.0466 56.2622 81.2034 56.4533 80.3495 56.4532H66.3659V58.0984C66.3644 59.4607 65.2604 60.5647 63.8981 60.5661H58.9627C57.6004 60.5647 56.4964 59.4607 56.495 58.0984V56.4532H42.5113C41.6573 56.4533 40.8141 56.2622 40.0435 55.8941V69.6144Z" fill="url(#paint6_linear_3339_168026)"/>
</g>
</g>
<defs>
<linearGradient id="paint0_linear_3339_168026" x1="55.6738" y1="35.0666" x2="63.4558" y2="24.1727" gradientUnits="userSpaceOnUse">
<stop stop-color="#A03291"/>
<stop offset="1" stop-color="#FF7C66"/>
</linearGradient>
<linearGradient id="paint1_linear_3339_168026" x1="47.4492" y1="38.3568" x2="57.3202" y2="28.4858" gradientUnits="userSpaceOnUse">
<stop stop-color="#A03291"/>
<stop offset="1" stop-color="#FF7C66"/>
</linearGradient>
<linearGradient id="paint2_linear_3339_168026" x1="65.5449" y1="38.3568" x2="75.4158" y2="28.4857" gradientUnits="userSpaceOnUse">
<stop stop-color="#A03291"/>
<stop offset="1" stop-color="#FF7C66"/>
</linearGradient>
<linearGradient id="paint3_linear_3339_168026" x1="56.4941" y1="60.5662" x2="66.3651" y2="50.6953" gradientUnits="userSpaceOnUse">
<stop stop-color="#A03291"/>
<stop offset="1" stop-color="#FF7C66"/>
</linearGradient>
<linearGradient id="paint4_linear_3339_168026" x1="38.3984" y1="76.1951" x2="40.241" y2="63.2971" gradientUnits="userSpaceOnUse">
<stop stop-color="#A03291"/>
<stop offset="1" stop-color="#FF7C66"/>
</linearGradient>
<linearGradient id="paint5_linear_3339_168026" x1="36.7539" y1="56.4533" x2="50.3688" y2="22.416" gradientUnits="userSpaceOnUse">
<stop stop-color="#A03291"/>
<stop offset="1" stop-color="#FF7C66"/>
</linearGradient>
<linearGradient id="paint6_linear_3339_168026" x1="38.3984" y1="71.2596" x2="50.2693" y2="40.3932" gradientUnits="userSpaceOnUse">
<stop stop-color="#A03291"/>
<stop offset="1" stop-color="#FF7C66"/>
</linearGradient>
<clipPath id="clip0_3339_168026">
<rect width="115.631" height="68.0185" fill="white" transform="translate(4.01367 19.4907)"/>
</clipPath>
<clipPath id="clip1_3339_168026">
<rect width="49.3554" height="52.5392" fill="white" transform="translate(36.7559 26.8398)"/>
</clipPath>
</defs>
</svg>
