<svg xmlns="http://www.w3.org/2000/svg" width="20" height="20" viewBox="0 0 20 20" fill="currentColor">
    <defs>
        <filter id="1wvu9u6w1a">
            <feColorMatrix in="SourceGraphic" values="0 0 0 0 1.000000 0 0 0 0 1.000000 0 0 0 0 1.000000 0 0 0 1.000000 0"/>
        </filter>
    </defs>
    <g fill="inherit" fill-rule="evenodd">
        <path d="M16 2.054C15.014.684 13.948 0 12.8 0c-1.721 0-2.54 1.139-3.2 2.054-.64.89-.986 1.28-1.601 1.28s-.96-.39-1.6-1.28C5.739 1.139 4.92 0 3.199 0 2.052 0 .986.685 0 2.054l1.599.892c.657-.853 1.19-1.28 1.6-1.28.615 0 .96.39 1.6 1.28C5.46 3.861 6.28 5 8 5c1.721 0 2.54-1.139 3.2-2.054.64-.89.986-1.28 1.601-1.28.41 0 .944.427 1.601 1.28L16 2.054z" transform="translate(2 3) rotate(-180 8 2.5)"/>
        <path d="M16 7.054C15.014 5.684 13.948 5 12.8 5c-1.721 0-2.54 1.139-3.2 2.054-.64.89-.986 1.28-1.601 1.28s-.96-.39-1.6-1.28C5.739 6.139 4.92 5 3.199 5 2.052 5 .986 5.685 0 7.054l1.599.892c.657-.853 1.19-1.28 1.6-1.28.615 0 .96.39 1.6 1.28C5.46 8.861 6.28 10 8 10c1.721 0 2.54-1.139 3.2-2.054.64-.89.986-1.28 1.601-1.28.41 0 .944.427 1.601 1.28L16 7.054z" transform="translate(2 3) rotate(-180 8 7.5)"/>
        <path d="M16 12.054C15.014 10.684 13.948 10 12.8 10c-1.721 0-2.54 1.139-3.2 2.054-.64.89-.986 1.28-1.601 1.28s-.96-.39-1.6-1.28C5.739 11.139 4.92 10 3.199 10 2.052 10 .986 10.685 0 12.054l1.599.892c.657-.853 1.19-1.28 1.6-1.28.615 0 .96.39 1.6 1.28C5.46 13.861 6.28 15 8 15c1.721 0 2.54-1.139 3.2-2.054.64-.89.986-1.28 1.601-1.28.41 0 .944.427 1.601 1.28L16 12.054z" transform="translate(2 3) rotate(-180 8 12.5)"/>
    </g>
</svg>
