<svg width="24" height="24" viewBox="0 0 24 24" fill="currentColor" xmlns="http://www.w3.org/2000/svg">
    <path d="M17.6925 14.5575L19.5 16.5H15.75V18H19.5L17.6925 19.9425L18.75 21L22.5 17.25L18.75 13.5L17.6925 14.5575Z"/>
    <path d="M9.75 4.5C8.52787 4.50045 7.3288 4.83269 6.28072 5.46127C5.23264 6.08986 4.37488 6.9912 3.79896 8.06912C3.22304 9.14703 2.95058 10.3611 3.01064 11.5817C3.07071 12.8024 3.46104 13.9838 4.14 15L5.385 14.1675C4.73457 13.1944 4.42796 12.0319 4.51387 10.8646C4.59979 9.69733 5.07331 8.59223 5.85921 7.72487C6.64511 6.85752 7.69831 6.27766 8.85149 6.07741C10.0047 5.87716 11.1917 6.068 12.224 6.61963C13.2563 7.17126 14.0747 8.05202 14.5491 9.12201C15.0235 10.192 15.1268 11.3898 14.8425 12.5252C14.5582 13.6606 13.9026 14.6684 12.98 15.3886C12.0573 16.1088 10.9204 16.4999 9.75 16.5H1.5V18H9.75C11.5402 18 13.2571 17.2888 14.523 16.023C15.7888 14.7571 16.5 13.0402 16.5 11.25C16.5 9.45979 15.7888 7.7429 14.523 6.47703C13.2571 5.21116 11.5402 4.5 9.75 4.5Z"/>
</svg>
