<svg xmlns="http://www.w3.org/2000/svg" width="20" height="20" viewBox="0 0 20 20" fill="currentColor">
  <defs>
    <mask id="hollow-text" clip-rule="evenodd">
      <rect width="100%" height="100%" fill="white"/>
      <path fill="black" d="M3.94 4.146c0-.195-.07-.348-.208-.456-.138-.11-.38-.222-.728-.338-.346-.117-.63-.23-.85-.338-.717-.352-1.075-.836-1.075-1.451 0-.307.09-.577.268-.812.178-.234.431-.416.758-.546.326-.13.693-.196 1.101-.196.398 0 .754.07 1.07.213.314.142.56.344.734.606.175.26.262.56.262.898H3.943c0-.226-.069-.4-.207-.524-.138-.124-.325-.186-.56-.186-.238 0-.426.052-.565.157-.138.106-.207.239-.207.4 0 .143.077.27.228.386.152.116.42.235.802.358.382.123.696.255.942.396.597.345.896.82.896 1.425 0 .484-.182.863-.547 1.14-.365.275-.865.414-1.5.414-.449 0-.854-.081-1.218-.241-.363-.161-.636-.382-.82-.661-.184-.281-.275-.603-.275-.967H2.25c0 .296.076.514.23.655.153.14.401.21.746.21.22 0 .394-.047.522-.142.128-.094.192-.228.192-.4M9.291 2.732c0-.55-.092-.967-.275-1.252-.184-.284-.447-.427-.788-.427-.353 0-.617.14-.794.421-.178.282-.268.694-.27 1.235v.254c0 .544.09.962.27 1.252.18.29.446.436.801.436.34 0 .6-.144.781-.43.181-.287.273-.698.275-1.235v-.254zm1.356.231c0 .512-.085.958-.254 1.34-.17.38-.404.686-.703.917l.893.707-.825.7-1.189-.958c-.11.015-.223.022-.334.022-.47 0-.889-.109-1.254-.327-.364-.218-.648-.529-.852-.934-.204-.405-.31-.871-.317-1.397V2.74c0-.545.1-1.024.298-1.437.2-.411.482-.73.85-.956.37-.225.791-.338 1.268-.338.468 0 .886.112 1.253.334.367.222.653.54.856.952.204.411.308.883.31 1.414v.254zM12.66 4.59L14.981 4.59 14.981 5.615 11.327 5.615 11.327.085 12.66.085z" transform="translate(-1012 -198) translate(314 185) translate(698 13) translate(0 2) translate(2 5)"/>
    </mask>
  </defs>
  <g fill="inherit" fill-rule="evenodd" mask="url(#hollow-text)">
    <path fill="inherit" d="M2.947 16.001h13.999v-16H2.947v16zM4.503 1.63H15.39v12.741H4.503V1.63z" transform="translate(-1012 -198) translate(314 185) translate(698 13) translate(0 2)"/>
    <path fill="inherit" d="M0.061 12.863L19.831 12.863 19.831 3.137 0.061 3.137z" transform="translate(-1012 -198) translate(314 185) translate(698 13) translate(0 2)"/>
  </g>
</svg>
