<svg width="24" height="24" viewBox="0 0 24 24" fill="none" xmlns="http://www.w3.org/2000/svg" fill="currentColor">
<path fill-rule="evenodd" clip-rule="evenodd" d="M19.1923 6.7784L14.9666 9.21548L14.963 9.21173C14.6782 9.37775 14.3346 9.42299 14.0138 9.33671C13.6935 9.2511 13.4232 9.04269 13.2666 8.76056C13.1367 8.5353 13.0807 8.27745 13.1061 8.021V3.2334C13.0898 2.79812 13.3219 2.38901 13.7113 2.16671C14.1008 1.94443 14.5853 1.94443 14.9747 2.16671C15.3642 2.38901 15.5963 2.79812 15.5799 3.2334V5.99542L17.9514 4.63003C18.2371 4.46678 18.5798 4.42291 18.9 4.50857C19.2202 4.59423 19.4901 4.80199 19.6471 5.0837C19.9908 5.67453 19.7901 6.42128 19.1923 6.7784ZM9.03405 9.2186L4.80831 6.78153V6.7784C4.21057 6.42159 4.01013 5.67797 4.35351 5.08432C4.51009 4.80187 4.78037 4.59097 5.10068 4.50818C5.42166 4.42486 5.76402 4.46994 6.04991 4.63315L8.44963 6.01729V3.23777C8.43242 2.80196 8.66437 2.39199 9.05419 2.16921C9.44393 1.94643 9.92912 1.94643 10.3189 2.16921C10.7087 2.39199 10.9406 2.80196 10.9234 3.23777V8.12223C10.9253 8.46477 10.7812 8.7931 10.5248 9.03082C10.1338 9.4193 9.5159 9.49713 9.03405 9.2186ZM11.2054 11.9906C11.2096 11.9125 11.2405 11.8344 11.2938 11.7782L11.7875 11.2845C11.846 11.2322 11.9216 11.201 12.0013 11.1964H12.0198C12.0994 11.2009 12.1748 11.2321 12.2329 11.2845L12.7267 11.7782C12.7802 11.8375 12.8113 11.9125 12.8151 11.9909V12.0097C12.8112 12.0883 12.7801 12.1634 12.7267 12.2231L12.2329 12.7167C12.175 12.7696 12.0995 12.801 12.0198 12.8055H12.0013C11.9214 12.8011 11.8454 12.7695 11.7875 12.7167L11.2938 12.2231C11.2404 12.1634 11.2093 12.0883 11.2054 12.0097V11.9906ZM9.70976 12.2137V11.7907C9.71549 11.6836 9.75799 11.5814 9.8306 11.5001L11.5069 9.82318C11.586 9.75125 11.6889 9.70853 11.7976 9.70258H12.2238C12.3325 9.70853 12.4355 9.75125 12.5146 9.82318L14.1908 11.497C14.2637 11.5782 14.3062 11.6804 14.3117 11.7875V12.2137C14.3062 12.3208 14.2637 12.4231 14.1908 12.5043L12.5146 14.178C12.4355 14.25 12.3325 14.2927 12.2238 14.2986H11.7976C11.6889 14.2927 11.586 14.25 11.5069 14.178L9.8306 12.5043C9.75778 12.4231 9.71525 12.3208 9.70976 12.2137ZM2.62202 10.6315L5.01459 12.0115L2.62202 13.3904C2.02473 13.7482 1.82473 14.494 2.16754 15.0851C2.32438 15.3672 2.59432 15.5753 2.91471 15.6612C3.23502 15.7468 3.57807 15.7028 3.86395 15.5387L8.08969 13.1017C8.47952 12.8636 8.70692 12.4524 8.70692 12.0106C8.70686 11.5698 8.47449 11.159 8.08969 10.9196L3.86395 8.48248C3.57806 8.31927 3.23569 8.27419 2.91471 8.3575C2.59441 8.4403 2.32412 8.6512 2.16754 8.93365C1.82417 9.5273 2.02461 10.2703 2.62234 10.6277L2.62202 10.6315ZM15.9106 13.102C15.5185 12.871 15.2826 12.4578 15.2902 12.0156L15.2931 12.0194C15.282 11.5738 15.5184 11.1563 15.9136 10.9236L20.1367 8.48654C20.4219 8.3197 20.7647 8.27595 21.0853 8.36156C21.4059 8.44713 21.6759 8.65538 21.8325 8.93771C22.1758 9.52886 21.9754 10.2747 21.3777 10.6318L18.9851 12.0119L21.3747 13.391C21.9736 13.7477 22.1741 14.4948 21.8295 15.0857C21.6726 15.3678 21.4027 15.5759 21.0824 15.6615C20.7621 15.7471 20.4197 15.7028 20.1338 15.5391L15.9106 13.102ZM9.88258 14.6583C9.59093 14.6041 9.28877 14.6558 9.03438 14.8032L4.80863 17.2403C4.2109 17.5974 4.01078 18.3433 4.35383 18.9344C4.51074 19.2165 4.7807 19.4249 5.101 19.5102C5.42153 19.5958 5.76448 19.5515 6.05024 19.3878L8.44996 18.0036V20.7625C8.43202 21.1987 8.66371 21.6093 9.05371 21.8325C9.44372 22.0558 9.92947 22.0558 10.3195 21.8326C10.7095 21.6093 10.9411 21.1987 10.9231 20.7625V15.8743C10.9321 15.2779 10.492 14.7623 9.88193 14.6548L9.88258 14.6583ZM14.9666 14.8036L19.1923 17.2406L19.192 17.2441C19.7898 17.6009 19.9902 18.3445 19.6468 18.9382C19.4902 19.2206 19.22 19.4315 18.8996 19.5143C18.5787 19.5976 18.2363 19.5525 17.9504 19.3893L15.5832 18.0239V20.7622C15.6011 21.1984 15.3694 21.6091 14.9793 21.8323C14.5892 22.0555 14.1035 22.0555 13.7135 21.8322C13.3235 21.609 13.0918 21.1984 13.1097 20.7622V15.9974C13.0843 15.7407 13.1402 15.4825 13.2702 15.2569C13.4268 14.9747 13.6969 14.7666 14.0174 14.6811C14.3379 14.5956 14.6808 14.6398 14.9666 14.8036Z"/>
</svg>
