<svg width="24" height="24" viewBox="0 0 24 24" fill="none" xmlns="http://www.w3.org/2000/svg">
<g clip-path="url(#clip0_2331_17357)">
<path d="M19.2849 3.99995C19.1981 4.01016 19.1164 4.03826 19.0397 4.08168L3.34742 12.5817C3.12011 12.7068 2.98985 12.9571 3.01794 13.2151C3.04348 13.4731 3.22227 13.6902 3.47002 13.7668L7.63829 15.0132C7.73534 15.7845 8.16954 19.1227 8.25127 19.774C8.333 20.4227 8.7723 20.5351 9.2116 19.9374C9.50788 19.5339 11.2549 17.0769 11.2549 17.0769L14.9736 20.7956C15.1371 20.9591 15.3746 21.0229 15.5968 20.9642C15.8216 20.9054 15.9953 20.7318 16.0566 20.5096L19.9796 4.81725C20.0384 4.61037 19.9873 4.38817 19.8494 4.22471C19.7089 4.06124 19.4995 3.97696 19.2849 3.99995ZM18.345 5.92062L15.0554 19.0793L11.357 15.381L16.7308 7.92302L8.37386 13.8894L5.32939 12.9903L18.345 5.92062Z" fill="#485159"/>
</g>
<defs>
<clipPath id="clip0_2331_17357">
<rect width="17" height="17" fill="white" transform="translate(3 4)"/>
</clipPath>
</defs>
</svg>
