<svg width="24" height="24" viewBox="0 0 24 24" fill="none" xmlns="http://www.w3.org/2000/svg">
<path fill-rule="evenodd" clip-rule="evenodd" d="M13.8284 5.92894L11.2929 8.46447L9.87864 7.05025L12.4142 4.51472C14.3668 2.5621 17.5326 2.5621 19.4852 4.51472C21.4379 6.46734 21.4379 9.63317 19.4852 11.5858L16.9497 14.1213L15.5355 12.7071L18.071 10.1716C19.2426 9 19.2426 7.10051 18.071 5.92894C16.8995 4.75736 15 4.75736 13.8284 5.92894ZM7.05021 9.87868L8.46443 11.2929L7.34311 12.4142L5.9289 13.8284C4.75733 15 4.75732 16.8995 5.9289 18.0711C7.10047 19.2426 8.99997 19.2426 10.1715 18.0711L11.5858 16.6569L12.7071 15.5355L14.1213 16.9497L11.5858 19.4853C9.63313 21.4379 6.4673 21.4379 4.51468 19.4853C2.56206 17.5327 2.56206 14.3668 4.51468 12.4142L7.05021 9.87868ZM10.8786 14.5355C10.4881 14.9261 9.85496 14.9261 9.46443 14.5355C9.07391 14.145 9.07391 13.5118 9.46443 13.1213L13 9.58579C13.3905 9.19527 14.0237 9.19527 14.4142 9.58579C14.8047 9.97631 14.8047 10.6095 14.4142 11L10.8786 14.5355Z" fill="#485159"/>
</svg>
