<svg width="24" height="24" viewBox="0 0 24 24" fill="none" xmlns="http://www.w3.org/2000/svg">
<path d="M16.9344 15.0806C17.1884 15.2276 17.4782 15.3014 17.7716 15.2938C18.1613 15.2938 18.7376 15.1272 19.2773 14.291C19.3255 14.2168 19.3422 14.1265 19.3237 14.04C19.3053 13.9535 19.2533 13.8778 19.179 13.8297C19.1048 13.7815 19.0145 13.7648 18.928 13.7832C18.8415 13.8017 18.7658 13.8537 18.7177 13.9279C18.5111 14.2477 18.178 14.6275 17.7716 14.6275C17.5865 14.6382 17.4025 14.5932 17.2433 14.4981C17.0841 14.4031 16.9571 14.2625 16.8788 14.0945C16.6656 13.748 16.4324 13.4615 15.9993 13.4615C15.5662 13.4615 15.333 13.748 15.1198 14.0945C15.0415 14.2625 14.9145 14.4031 14.7553 14.4981C14.5961 14.5932 14.4121 14.6382 14.227 14.6275C13.8206 14.6275 13.4875 14.2611 13.2809 13.9279C13.2323 13.8537 13.1563 13.8018 13.0694 13.7837C12.9826 13.7656 12.8921 13.7827 12.8179 13.8313C12.7437 13.8799 12.6918 13.956 12.6737 14.0428C12.6556 14.1297 12.6727 14.2202 12.7213 14.2944C13.2609 15.1205 13.8373 15.2938 14.227 15.2938C14.5204 15.3014 14.8102 15.2276 15.0642 15.0806C15.3182 14.9336 15.5266 14.7191 15.6662 14.4609C15.8927 14.1278 15.9293 14.1278 15.9993 14.1278C16.0693 14.1278 16.1192 14.1278 16.3324 14.4609C16.472 14.7191 16.6803 14.9336 16.9344 15.0806Z" fill="#485159"/>
<path d="M17.7716 16.9594C17.4782 16.9671 17.1884 16.8933 16.9344 16.7463C16.6803 16.5993 16.472 16.3848 16.3324 16.1266C16.1192 15.7935 16.0693 15.7935 15.9993 15.7935C15.9293 15.7935 15.8927 15.7935 15.6662 16.1266C15.5266 16.3848 15.3182 16.5993 15.0642 16.7463C14.8102 16.8933 14.5204 16.9671 14.227 16.9594C13.8373 16.9594 13.2609 16.7862 12.7213 15.96C12.6727 15.8858 12.6556 15.7953 12.6737 15.7085C12.6918 15.6217 12.7437 15.5456 12.8179 15.497C12.8921 15.4484 12.9826 15.4313 13.0694 15.4494C13.1563 15.4675 13.2323 15.5194 13.2809 15.5936C13.4875 15.9267 13.8206 16.2932 14.227 16.2932C14.4121 16.3039 14.5961 16.2588 14.7553 16.1638C14.9145 16.0688 15.0415 15.9282 15.1198 15.7602C15.333 15.4137 15.5662 15.1272 15.9993 15.1272C16.4324 15.1272 16.6656 15.4137 16.8788 15.7602C16.9571 15.9282 17.0841 16.0688 17.2433 16.1638C17.4025 16.2588 17.5865 16.3039 17.7716 16.2932C18.178 16.2932 18.5111 15.9134 18.7177 15.5936C18.7658 15.5194 18.8415 15.4673 18.928 15.4489C19.0145 15.4305 19.1048 15.4472 19.179 15.4953C19.2533 15.5435 19.3053 15.6191 19.3237 15.7057C19.3422 15.7922 19.3255 15.8825 19.2773 15.9567C18.7376 16.7929 18.1613 16.9594 17.7716 16.9594Z" fill="#485159"/>
<path d="M17.7716 18.6251C17.4782 18.6327 17.1884 18.5589 16.9344 18.4119C16.6803 18.2649 16.472 18.0504 16.3324 17.7923C16.1192 17.4591 16.0693 17.4591 15.9993 17.4591C15.9293 17.4591 15.8927 17.4591 15.6662 17.7923C15.5266 18.0504 15.3182 18.2649 15.0642 18.4119C14.8102 18.5589 14.5204 18.6327 14.227 18.6251C13.8373 18.6251 13.2609 18.4519 12.7213 17.6257C12.6727 17.5515 12.6556 17.461 12.6737 17.3742C12.6918 17.2873 12.7437 17.2112 12.8179 17.1626C12.8921 17.1141 12.9826 17.0969 13.0694 17.115C13.1563 17.1332 13.2323 17.185 13.2809 17.2593C13.4875 17.5924 13.8206 17.9588 14.227 17.9588C14.4121 17.9695 14.5961 17.9245 14.7553 17.8294C14.9145 17.7344 15.0415 17.5938 15.1198 17.4258C15.333 17.0794 15.5662 16.7929 15.9993 16.7929C16.4324 16.7929 16.6656 17.0794 16.8788 17.4258C16.9571 17.5938 17.0841 17.7344 17.2433 17.8294C17.4025 17.9245 17.5865 17.9695 17.7716 17.9588C18.178 17.9588 18.5111 17.5791 18.7177 17.2593C18.7658 17.185 18.8415 17.133 18.928 17.1146C19.0145 17.0961 19.1048 17.1128 19.179 17.161C19.2533 17.2091 19.3053 17.2848 19.3237 17.3713C19.3422 17.4578 19.3255 17.5482 19.2773 17.6224C18.7376 18.4585 18.1613 18.6251 17.7716 18.6251Z" fill="#485159"/>
<path d="M16.9344 6.95232C17.1884 7.09932 17.4782 7.1731 17.7716 7.16548C18.1613 7.16548 18.7376 6.99891 19.2773 6.16275C19.3255 6.08854 19.3422 5.99823 19.3237 5.9117C19.3053 5.82518 19.2533 5.74951 19.179 5.70136C19.1048 5.65321 19.0145 5.63651 18.928 5.65494C18.8415 5.67337 18.7658 5.72542 18.7177 5.79964C18.5111 6.11944 18.178 6.49921 17.7716 6.49921C17.5865 6.50993 17.4025 6.46486 17.2433 6.36983C17.0841 6.27481 16.9571 6.1342 16.8788 5.9662C16.6656 5.61975 16.4324 5.33325 15.9993 5.33325C15.5662 5.33325 15.333 5.61975 15.1198 5.9662C15.0415 6.1342 14.9145 6.27481 14.7553 6.36983C14.5961 6.46486 14.4121 6.50993 14.227 6.49921C13.8206 6.49921 13.4875 6.13277 13.2809 5.79964C13.2323 5.72542 13.1563 5.67355 13.0694 5.65543C12.9826 5.63731 12.8921 5.65444 12.8179 5.70303C12.7437 5.75162 12.6918 5.82771 12.6737 5.91455C12.6556 6.00139 12.6727 6.09187 12.7213 6.16608C13.2609 6.99225 13.8373 7.16548 14.227 7.16548C14.5204 7.1731 14.8102 7.09932 15.0642 6.95232C15.3182 6.80531 15.5266 6.59083 15.6662 6.33265C15.8927 5.99952 15.9293 5.99952 15.9993 5.99952C16.0693 5.99952 16.1192 5.99952 16.3324 6.33265C16.472 6.59083 16.6803 6.80531 16.9344 6.95232Z" fill="#485159"/>
<path d="M17.7716 8.83114C17.4782 8.83876 17.1884 8.76498 16.9344 8.61798C16.6803 8.47097 16.472 8.25649 16.3324 7.99831C16.1192 7.66518 16.0693 7.66518 15.9993 7.66518C15.9293 7.66518 15.8927 7.66518 15.6662 7.99831C15.5266 8.25649 15.3182 8.47097 15.0642 8.61798C14.8102 8.76498 14.5204 8.83876 14.227 8.83114C13.8373 8.83114 13.2609 8.65791 12.7213 7.83174C12.6727 7.75753 12.6556 7.66705 12.6737 7.58021C12.6918 7.49337 12.7437 7.41728 12.8179 7.36869C12.8921 7.3201 12.9826 7.30297 13.0694 7.32109C13.1563 7.33921 13.2323 7.39108 13.2809 7.4653C13.4875 7.79843 13.8206 8.16488 14.227 8.16488C14.4121 8.17559 14.5961 8.13052 14.7553 8.03549C14.9145 7.94047 15.0415 7.79986 15.1198 7.63186C15.333 7.28541 15.5662 6.99891 15.9993 6.99891C16.4324 6.99891 16.6656 7.28541 16.8788 7.63186C16.9571 7.79986 17.0841 7.94047 17.2433 8.03549C17.4025 8.13052 17.5865 8.17559 17.7716 8.16488C18.178 8.16488 18.5111 7.78511 18.7177 7.4653C18.7658 7.39108 18.8415 7.33903 18.928 7.3206C19.0145 7.30217 19.1048 7.31887 19.179 7.36702C19.2533 7.41518 19.3053 7.49084 19.3237 7.57737C19.3422 7.66389 19.3255 7.7542 19.2773 7.82841C18.7376 8.66457 18.1613 8.83114 17.7716 8.83114Z" fill="#485159"/>
<path d="M17.7716 10.4968C17.4782 10.5044 17.1884 10.4306 16.9344 10.2836C16.6803 10.1366 16.472 9.92215 16.3324 9.66397C16.1192 9.33084 16.0693 9.33084 15.9993 9.33084C15.9293 9.33084 15.8927 9.33084 15.6662 9.66397C15.5266 9.92215 15.3182 10.1366 15.0642 10.2836C14.8102 10.4306 14.5204 10.5044 14.227 10.4968C13.8373 10.4968 13.2609 10.3236 12.7213 9.49741C12.6727 9.42319 12.6556 9.33271 12.6737 9.24587C12.6918 9.15903 12.7437 9.08294 12.8179 9.03435C12.8921 8.98576 12.9826 8.96864 13.0694 8.98675C13.1563 9.00487 13.2323 9.05674 13.2809 9.13096C13.4875 9.46409 13.8206 9.83054 14.227 9.83054C14.4121 9.84125 14.5961 9.79618 14.7553 9.70115C14.9145 9.60613 15.0415 9.46552 15.1198 9.29753C15.333 8.95107 15.5662 8.66457 15.9993 8.66457C16.4324 8.66457 16.6656 8.95107 16.8788 9.29753C16.9571 9.46552 17.0841 9.60613 17.2433 9.70115C17.4025 9.79618 17.5865 9.84125 17.7716 9.83054C18.178 9.83054 18.5111 9.45077 18.7177 9.13096C18.7658 9.05674 18.8415 9.0047 18.928 8.98627C19.0145 8.96784 19.1048 8.98453 19.179 9.03269C19.2533 9.08084 19.3053 9.1565 19.3237 9.24303C19.3422 9.32955 19.3255 9.41986 19.2773 9.49407C18.7376 10.3302 18.1613 10.4968 17.7716 10.4968Z" fill="#485159"/>
<path d="M8.93474 15.0807C9.18876 15.2277 9.47853 15.3015 9.77192 15.2939C10.1617 15.2939 10.738 15.1273 11.2777 14.2912C11.3258 14.217 11.3425 14.1266 11.3241 14.0401C11.3057 13.9536 11.2536 13.8779 11.1794 13.8298C11.1052 13.7816 11.0149 13.7649 10.9284 13.7834C10.8418 13.8018 10.7662 13.8538 10.718 13.9281C10.5115 14.2479 10.1783 14.6276 9.77192 14.6276C9.58686 14.6383 9.40283 14.5933 9.24366 14.4982C9.08449 14.4032 8.95751 14.2626 8.87913 14.0946C8.66593 13.7482 8.43273 13.4617 7.99966 13.4617C7.56659 13.4617 7.3334 13.7482 7.12019 14.0946C7.04182 14.2626 6.91483 14.4032 6.75566 14.4982C6.59649 14.5933 6.41247 14.6383 6.2274 14.6276C5.82098 14.6276 5.48785 14.2612 5.2813 13.9281C5.23271 13.8538 5.15662 13.802 5.06978 13.7838C4.98295 13.7657 4.89247 13.7829 4.81825 13.8314C4.74403 13.88 4.69216 13.9561 4.67404 14.043C4.65593 14.1298 4.67305 14.2203 4.72164 14.2945C5.26132 15.1207 5.83763 15.2939 6.2274 15.2939C6.52079 15.3015 6.81056 15.2277 7.06459 15.0807C7.31861 14.9337 7.52696 14.7192 7.66653 14.4611C7.89306 14.1279 7.9297 14.1279 7.99966 14.1279C8.06962 14.1279 8.11959 14.1279 8.33279 14.4611C8.47237 14.7192 8.68071 14.9337 8.93474 15.0807Z" fill="#485159"/>
<path d="M9.77192 16.9596C9.47853 16.9672 9.18876 16.8934 8.93474 16.7464C8.68071 16.5994 8.47237 16.3849 8.33279 16.1267C8.11959 15.7936 8.06962 15.7936 7.99966 15.7936C7.9297 15.7936 7.89306 15.7936 7.66653 16.1267C7.52696 16.3849 7.31861 16.5994 7.06459 16.7464C6.81056 16.8934 6.52079 16.9672 6.2274 16.9596C5.83763 16.9596 5.26132 16.7863 4.72164 15.9602C4.67305 15.8859 4.65593 15.7955 4.67404 15.7086C4.69216 15.6218 4.74403 15.5457 4.81825 15.4971C4.89247 15.4485 4.98295 15.4314 5.06978 15.4495C5.15662 15.4676 5.23271 15.5195 5.2813 15.5937C5.48785 15.9268 5.82098 16.2933 6.2274 16.2933C6.41247 16.304 6.59649 16.2589 6.75566 16.1639C6.91483 16.0689 7.04182 15.9283 7.12019 15.7603C7.3334 15.4138 7.56659 15.1273 7.99966 15.1273C8.43273 15.1273 8.66593 15.4138 8.87913 15.7603C8.95751 15.9283 9.08449 16.0689 9.24366 16.1639C9.40283 16.2589 9.58686 16.304 9.77192 16.2933C10.1783 16.2933 10.5115 15.9135 10.718 15.5937C10.7662 15.5195 10.8418 15.4675 10.9284 15.449C11.0149 15.4306 11.1052 15.4473 11.1794 15.4954C11.2536 15.5436 11.3057 15.6193 11.3241 15.7058C11.3425 15.7923 11.3258 15.8826 11.2777 15.9568C10.738 16.793 10.1617 16.9596 9.77192 16.9596Z" fill="#485159"/>
<path d="M9.77192 18.6252C9.47853 18.6328 9.18876 18.5591 8.93474 18.4121C8.68071 18.2651 8.47237 18.0506 8.33279 17.7924C8.11959 17.4593 8.06962 17.4593 7.99966 17.4593C7.9297 17.4593 7.89306 17.4593 7.66653 17.7924C7.52696 18.0506 7.31861 18.2651 7.06459 18.4121C6.81056 18.5591 6.52079 18.6328 6.2274 18.6252C5.83763 18.6252 5.26132 18.452 4.72164 17.6258C4.67305 17.5516 4.65593 17.4611 4.67404 17.3743C4.69216 17.2874 4.74403 17.2114 4.81825 17.1628C4.89247 17.1142 4.98295 17.0971 5.06978 17.1152C5.15662 17.1333 5.23271 17.1852 5.2813 17.2594C5.48785 17.5925 5.82098 17.959 6.2274 17.959C6.41247 17.9697 6.59649 17.9246 6.75566 17.8296C6.91483 17.7345 7.04182 17.5939 7.12019 17.4259C7.3334 17.0795 7.56659 16.793 7.99966 16.793C8.43273 16.793 8.66593 17.0795 8.87913 17.4259C8.95751 17.5939 9.08449 17.7345 9.24366 17.8296C9.40283 17.9246 9.58686 17.9697 9.77192 17.959C10.1783 17.959 10.5115 17.5792 10.718 17.2594C10.7662 17.1852 10.8418 17.1331 10.9284 17.1147C11.0149 17.0963 11.1052 17.113 11.1794 17.1611C11.2536 17.2093 11.3057 17.2849 11.3241 17.3714C11.3425 17.458 11.3258 17.5483 11.2777 17.6225C10.738 18.4587 10.1617 18.6252 9.77192 18.6252Z" fill="#485159"/>
<path d="M8.93474 6.9525C9.18876 7.09951 9.47853 7.17329 9.77192 7.16566C10.1617 7.16566 10.738 6.9991 11.2777 6.16293C11.3258 6.08872 11.3425 5.99841 11.3241 5.91189C11.3057 5.82536 11.2536 5.7497 11.1794 5.70155C11.1052 5.65339 11.0149 5.6367 10.9284 5.65513C10.8418 5.67356 10.7662 5.7256 10.718 5.79982C10.5115 6.11963 10.1783 6.4994 9.77192 6.4994C9.58686 6.51011 9.40283 6.46504 9.24366 6.37002C9.08449 6.27499 8.95751 6.13438 8.87913 5.96639C8.66593 5.61993 8.43273 5.33344 7.99966 5.33344C7.56659 5.33344 7.3334 5.61993 7.12019 5.96639C7.04182 6.13438 6.91483 6.27499 6.75566 6.37002C6.59649 6.46504 6.41247 6.51011 6.2274 6.4994C5.82098 6.4994 5.48785 6.13295 5.2813 5.79982C5.23271 5.7256 5.15662 5.67373 5.06978 5.65561C4.98295 5.6375 4.89247 5.65462 4.81825 5.70321C4.74403 5.75181 4.69216 5.82789 4.67404 5.91473C4.65593 6.00157 4.67305 6.09205 4.72164 6.16627C5.26132 6.99243 5.83763 7.16566 6.2274 7.16566C6.52079 7.17329 6.81056 7.09951 7.06459 6.9525C7.31861 6.8055 7.52696 6.59101 7.66653 6.33283C7.89306 5.9997 7.9297 5.9997 7.99966 5.9997C8.06962 5.9997 8.11959 5.9997 8.33279 6.33283C8.47237 6.59101 8.68071 6.8055 8.93474 6.9525Z" fill="#485159"/>
<path d="M9.77192 8.83132C9.47853 8.83895 9.18876 8.76517 8.93474 8.61816C8.68071 8.47116 8.47237 8.25668 8.33279 7.99849C8.11959 7.66536 8.06962 7.66536 7.99966 7.66536C7.9297 7.66536 7.89306 7.66536 7.66653 7.99849C7.52696 8.25668 7.31861 8.47116 7.06459 8.61816C6.81056 8.76517 6.52079 8.83895 6.2274 8.83132C5.83763 8.83132 5.26132 8.6581 4.72164 7.83193C4.67305 7.75771 4.65593 7.66723 4.67404 7.58039C4.69216 7.49355 4.74403 7.41747 4.81825 7.36887C4.89247 7.32028 4.98295 7.30316 5.06978 7.32128C5.15662 7.33939 5.23271 7.39127 5.2813 7.46548C5.48785 7.79861 5.82098 8.16506 6.2274 8.16506C6.41247 8.17577 6.59649 8.1307 6.75566 8.03568C6.91483 7.94065 7.04182 7.80004 7.12019 7.63205C7.3334 7.28559 7.56659 6.9991 7.99966 6.9991C8.43273 6.9991 8.66593 7.28559 8.87913 7.63205C8.95751 7.80004 9.08449 7.94065 9.24366 8.03568C9.40283 8.1307 9.58686 8.17577 9.77192 8.16506C10.1783 8.16506 10.5115 7.78529 10.718 7.46548C10.7662 7.39127 10.8418 7.33922 10.9284 7.32079C11.0149 7.30236 11.1052 7.31906 11.1794 7.36721C11.2536 7.41536 11.3057 7.49102 11.3241 7.57755C11.3425 7.66408 11.3258 7.75438 11.2777 7.8286C10.738 8.66476 10.1617 8.83132 9.77192 8.83132Z" fill="#485159"/>
<path d="M9.77192 10.497C9.47853 10.5046 9.18876 10.4308 8.93474 10.2838C8.68071 10.1368 8.47237 9.92234 8.33279 9.66416C8.11959 9.33102 8.06962 9.33102 7.99966 9.33102C7.9297 9.33102 7.89306 9.33102 7.66653 9.66416C7.52696 9.92234 7.31861 10.1368 7.06459 10.2838C6.81056 10.4308 6.52079 10.5046 6.2274 10.497C5.83763 10.497 5.26132 10.3238 4.72164 9.49759C4.67305 9.42337 4.65593 9.33289 4.67404 9.24605C4.69216 9.15921 4.74403 9.08313 4.81825 9.03454C4.89247 8.98594 4.98295 8.96882 5.06978 8.98694C5.15662 9.00505 5.23271 9.05693 5.2813 9.13114C5.48785 9.46428 5.82098 9.83072 6.2274 9.83072C6.41247 9.84144 6.59649 9.79636 6.75566 9.70134C6.91483 9.60631 7.04182 9.4657 7.12019 9.29771C7.3334 8.95125 7.56659 8.66476 7.99966 8.66476C8.43273 8.66476 8.66593 8.95125 8.87913 9.29771C8.95751 9.4657 9.08449 9.60631 9.24366 9.70134C9.40283 9.79636 9.58686 9.84144 9.77192 9.83072C10.1783 9.83072 10.5115 9.45095 10.718 9.13114C10.7662 9.05693 10.8418 9.00488 10.9284 8.98645C11.0149 8.96802 11.1052 8.98472 11.1794 9.03287C11.2536 9.08102 11.3057 9.15668 11.3241 9.24321C11.3425 9.32974 11.3258 9.42004 11.2777 9.49426C10.738 10.3304 10.1617 10.497 9.77192 10.497Z" fill="#485159"/>
<rect x="2.5" y="2.5" width="19" height="19" rx="1.91055" stroke="#485159"/>
</svg>
