<svg width="24" height="24" viewBox="0 0 24 24" fill="none" xmlns="http://www.w3.org/2000/svg">
<path d="M3 16.4442C4.10891 18.1481 5.39109 18.9999 6.68182 18.9999C8.61845 18.9999 9.45851 18.0828 10.2 16.9443C10.921 15.8373 11.3077 15.5 12 15.5C12.6918 15.5 13.0812 15.8368 13.8016 16.9443C14.5426 18.0828 15.3821 18.9999 17.3182 18.9999C18.6086 18.9999 19.8911 18.1479 21 16.4437" stroke="#485159" stroke-width="2" stroke-linecap="round"/>
<path d="M3 11.4442C4.10891 13.1481 5.39109 13.9999 6.68182 13.9999C8.61845 13.9999 9.45851 13.0828 10.2 11.9443C10.921 10.8373 11.3077 10.5 12 10.5C12.6918 10.5 13.0812 10.8368 13.8016 11.9443C14.5426 13.0828 15.3821 13.9999 17.3182 13.9999C18.6086 13.9999 19.8911 13.1479 21 11.4437" stroke="#485159" stroke-width="2" stroke-linecap="round"/>
<path d="M3 6.44425C4.10891 8.14808 5.39109 8.99994 6.68182 8.99994C8.61845 8.99994 9.45851 8.08277 10.2 6.94425C10.921 5.83729 11.3077 5.5 12 5.5C12.6918 5.5 13.0812 5.83676 13.8016 6.94425C14.5426 8.08277 15.3821 8.99994 17.3182 8.99994C18.6086 8.99994 19.8911 8.1479 21 6.44372" stroke="#485159" stroke-width="2" stroke-linecap="round"/>
</svg>
