<svg width="24" height="24" viewBox="0 0 24 24" fill="none" xmlns="http://www.w3.org/2000/svg">
<path fill-rule="evenodd" clip-rule="evenodd" d="M12 14C14.2091 14 16 12.2091 16 10C16 7.79086 14.2091 6 12 6C9.79086 6 8 7.79086 8 10C8 12.2091 9.79086 14 12 14ZM12 12C13.1046 12 14 11.1046 14 10C14 8.89543 13.1046 8 12 8C10.8954 8 10 8.89543 10 10C10 11.1046 10.8954 12 12 12Z" fill="currentColor"/>
<path fill-rule="evenodd" clip-rule="evenodd" d="M12 22C17.5228 22 22 17.5228 22 12C22 6.47715 17.5228 2 12 2C6.47715 2 2 6.47715 2 12C2 17.5228 6.47715 22 12 22ZM18.1291 17.1417C19.2967 15.7513 20 13.9578 20 12C20 7.58172 16.4183 4 12 4C7.58172 4 4 7.58172 4 12C4 16.4183 7.58172 20 12 20C13.7323 20 15.3359 19.4494 16.6456 18.5137C15.4413 17.5865 13.8407 17 12 17C10.1593 17 8.55876 17.5865 7.3545 18.5138C6.80393 18.1204 6.30532 17.659 5.87097 17.1417C7.47783 15.8128 9.63214 15 12 15C14.3679 15 16.5222 15.8128 18.1291 17.1417Z" fill="currentcolor"/>
</svg>
