<?xml version="1.0" encoding="UTF-8"?>
<svg width="73px" height="73px" viewBox="0 0 73 73" version="1.1" xmlns="http://www.w3.org/2000/svg" xmlns:xlink="http://www.w3.org/1999/xlink">
    <title>groups_icons/@candy</title>
    <defs>
        <filter id="filter-1">
            <feColorMatrix in="SourceGraphic" type="matrix" values="0 0 0 0 1.000000 0 0 0 0 1.000000 0 0 0 0 1.000000 0 0 0 1.000000 0"></feColorMatrix>
        </filter>
    </defs>
    <g id="groups_icons/@candy" stroke="none" stroke-width="1" fill="none" fill-rule="evenodd">
        <g filter="url(#filter-1)" id="candy">
            <g transform="translate(16.000000, 15.000000)">
                <path d="M39.744,6.336 L34.432,1.024 C33.792,0.32 32.768,0 31.744,0 C30.72,0.192 29.888,0.704 29.184,1.536 L25.92,6.656 C22.016,5.44 17.408,6.464 14.4,9.728 L9.6,14.528 C7.36,16.768 6.208,19.84 6.208,22.912 C6.208,24.128 6.4,25.152 6.72,26.176 L1.6,29.44 C0.768,29.952 0.256,30.976 0.064,32 C-0.128,33.024 0.256,34.048 1.088,34.752 L6.4,40.064 C6.912,40.768 7.744,41.088 8.64,41.088 C8.832,41.088 8.832,41.088 8.96,41.088 C9.984,40.896 10.816,40.384 11.52,39.552 L14.912,34.432 C15.936,34.752 16.96,34.944 18.176,34.944 C21.248,34.944 24.32,33.728 26.56,31.552 L28.288,29.824 L28.288,29.824 L28.288,29.824 L31.36,26.752 C33.6,24.512 34.752,21.44 34.752,18.368 C34.752,17.152 34.56,16.128 34.24,15.104 L39.36,11.84 C40.192,11.328 40.896,10.304 40.896,9.28 C40.768,8 40.448,6.976 39.744,6.336 Z M8.64,37.44 L3.328,32.128 L7.936,29.248 C8.448,29.952 8.96,30.592 9.664,31.104 L9.664,31.104 C10.368,31.808 11.008,32.32 11.712,32.832 L8.64,37.44 Z M12.032,28.8 C10.496,27.264 9.472,25.024 9.472,22.848 C9.472,20.672 10.304,18.432 12.032,16.896 L12.736,16.192 C13.44,16.512 14.08,16.704 14.592,16.896 C15.296,17.088 15.616,17.088 16.128,17.6 C16.64,18.112 16.64,18.432 16.832,19.136 C17.024,19.968 17.152,21.184 18.56,22.4 C19.776,23.616 20.928,23.936 21.824,24.128 C22.528,24.32 22.848,24.32 23.36,24.832 C23.872,25.344 23.872,25.664 24.064,26.368 C24.256,26.88 24.256,27.584 24.768,28.224 L24.064,28.928 C20.672,32.128 15.296,32.128 12.032,28.8 Z M28.736,24 L27.392,25.344 C27.2,24.512 27.072,23.488 25.664,22.08 C24.448,20.864 23.296,20.544 22.4,20.352 C21.696,20.16 21.376,20.16 20.864,19.648 C20.352,19.136 20.352,18.816 20.16,18.112 C19.968,17.28 19.84,16.064 18.432,14.848 C17.216,13.632 16.064,13.312 15.168,13.12 L16.512,11.776 C19.776,8.512 25.216,8.512 28.416,11.776 C29.952,13.312 30.976,15.552 30.976,17.728 C31.296,20.224 30.4,22.464 28.736,24 Z M32.832,11.52 C32.32,10.816 31.808,10.176 31.296,9.664 C30.592,8.96 29.952,8.448 29.248,7.936 L32.128,3.328 L37.44,8.64 L32.832,11.52 Z" id="Shape" fill="#000000" fill-rule="nonzero"></path>
            </g>
        </g>
    </g>
</svg>