<?xml version="1.0" encoding="UTF-8"?>
<svg width="73px" height="73px" viewBox="0 0 73 73" version="1.1" xmlns="http://www.w3.org/2000/svg" xmlns:xlink="http://www.w3.org/1999/xlink">
    <title>groups_icons/@bug</title>
    <defs>
        <filter id="filter-1">
            <feColorMatrix in="SourceGraphic" type="matrix" values="0 0 0 0 1.000000 0 0 0 0 1.000000 0 0 0 0 1.000000 0 0 0 1.000000 0"></feColorMatrix>
        </filter>
    </defs>
    <g id="groups_icons/@bug" stroke="none" stroke-width="1" fill="none" fill-rule="evenodd">
        <g filter="url(#filter-1)" id="bug">
            <g transform="translate(17.000000, 16.000000)">
                <path d="M36.352,25.344 L30.528,25.344 C30.528,23.488 30.208,21.76 29.824,20.224 L34.624,15.232 C35.328,14.528 35.328,13.504 34.624,12.864 C33.92,12.16 32.896,12.16 32.256,12.864 L28.48,16.832 C27.648,15.296 26.624,13.888 25.408,12.864 C25.92,12.544 26.432,12.352 26.752,11.84 C27.584,10.816 28.096,9.6 27.968,8.256 C27.456,3.584 23.808,0 19.2,0 C14.72,0 10.944,3.456 10.432,8.064 C10.24,9.408 10.752,10.816 11.648,11.648 C11.968,12.16 12.48,12.48 12.992,12.672 C11.776,13.696 10.752,14.912 9.92,16.448 L6.336,12.672 C5.632,11.968 4.608,11.968 3.968,12.672 C3.264,13.376 3.264,14.4 3.968,15.04 L8.576,19.84 C8.064,21.568 7.744,23.296 7.744,25.152 L2.048,25.152 C1.024,25.152 0.32,25.856 0.32,26.88 C0.32,27.904 1.024,28.608 2.048,28.608 L7.872,28.608 C8.064,29.632 8.192,30.464 8.576,31.552 L3.776,36.672 C3.072,37.376 3.072,38.4 3.776,39.04 C4.096,39.36 4.48,39.552 4.992,39.552 C5.504,39.552 5.824,39.36 6.208,39.04 L10.176,35.072 C12.16,38.592 15.424,40.96 19.008,40.96 C22.592,40.96 26.048,38.72 28.096,35.136 L32.064,39.232 C32.384,39.552 32.896,39.744 33.28,39.744 C33.792,39.744 34.112,39.552 34.496,39.232 C35.2,38.528 35.2,37.504 34.496,36.864 L29.504,31.744 C29.824,30.912 30.016,30.016 30.208,28.992 L36.352,28.992 C37.376,28.992 38.08,28.288 38.08,27.264 C38.08,26.24 37.376,25.344 36.352,25.344 Z M19.2,3.456 C21.952,3.456 24.192,5.696 24.512,8.448 C24.512,8.768 24.512,9.152 24.192,9.472 C23.872,9.792 23.488,9.984 23.36,9.984 L15.104,9.984 C14.784,9.984 14.4,9.792 14.272,9.664 C14.08,9.344 13.952,8.96 13.952,8.64 C14.08,5.632 16.448,3.456 19.2,3.456 Z M19.008,37.376 C14.528,37.376 10.944,32.064 10.944,25.728 C10.944,19.392 14.592,14.08 19.008,14.08 C23.424,14.08 27.072,19.392 27.072,25.728 C27.072,32.064 23.488,37.376 19.008,37.376 Z" id="Shape" fill="#000000" fill-rule="nonzero"></path>
            </g>
        </g>
    </g>
</svg>