<?xml version="1.0" encoding="UTF-8"?>
<svg width="73px" height="73px" viewBox="0 0 73 73" version="1.1" xmlns="http://www.w3.org/2000/svg" xmlns:xlink="http://www.w3.org/1999/xlink">
    <title>groups_icons/@candy cane</title>
    <defs>
        <filter id="filter-1">
            <feColorMatrix in="SourceGraphic" type="matrix" values="0 0 0 0 1.000000 0 0 0 0 1.000000 0 0 0 0 1.000000 0 0 0 1.000000 0"></feColorMatrix>
        </filter>
    </defs>
    <g id="groups_icons/@candy-cane" stroke="none" stroke-width="1" fill="none" fill-rule="evenodd">
        <g filter="url(#filter-1)" id="candy-cane">
            <g transform="translate(16.000000, 21.000000)">
                <path d="M37.184,4.416 C32,-0.576 23.744,-0.768 18.752,4.096 L1.536,20.736 C0.512,21.632 0,22.976 0,24.192 C0,25.6 0.512,26.944 1.536,27.968 C3.584,30.08 6.912,30.08 8.768,28.16 L25.792,11.456 C26.816,10.432 28.352,10.432 29.376,11.456 C29.888,11.968 30.4,12.672 30.4,13.376 C30.4,14.08 30.208,14.592 29.696,15.104 L22.016,22.656 C20.992,23.488 20.48,24.896 20.48,26.112 C20.48,27.52 20.992,28.864 22.016,29.888 C23.04,30.912 24.448,31.424 25.792,31.424 C27.2,31.424 28.352,30.912 29.376,30.016 L37.312,22.272 C39.744,19.84 41.088,16.768 40.896,13.312 C41.088,9.92 39.744,6.848 37.184,4.416 Z M6.528,25.728 C5.824,26.432 4.8,26.24 3.968,25.536 C3.648,25.216 3.456,24.832 3.456,24.32 C3.456,24 3.456,23.616 3.968,23.296 L5.504,21.888 L8.96,23.424 L6.528,25.728 Z M11.52,20.928 L8.064,19.392 L11.008,16.64 L14.464,18.176 L11.52,20.928 Z M17.024,15.424 L13.568,13.888 L16.32,11.328 L19.776,12.864 L17.024,15.424 Z M27.328,27.648 C26.624,28.352 25.6,28.16 24.768,27.456 C24.448,27.136 24.256,26.624 24.256,26.24 C24.256,25.856 24.256,25.536 24.768,25.216 L25.28,24.896 L28.736,26.432 L27.328,27.648 Z M31.296,23.68 L27.84,22.144 L30.592,19.584 L34.048,21.12 L31.296,23.68 Z M36.288,18.56 L32.832,17.024 C33.536,16 34.048,14.784 34.048,13.44 C34.048,11.712 33.216,9.984 31.808,8.96 C29.376,6.912 25.792,7.04 23.552,9.152 L22.336,10.24 L18.88,8.704 L21.312,6.464 C24.896,2.88 30.976,3.008 34.88,6.784 C36.8,8.704 37.824,10.944 37.824,13.504 C37.824,15.232 37.312,16.96 36.288,18.56 Z" id="Shape" fill="#000000" fill-rule="nonzero"></path>
            </g>
        </g>
    </g>
</svg>