<?xml version="1.0" encoding="UTF-8"?>
<svg width="73px" height="73px" viewBox="0 0 73 73" version="1.1" xmlns="http://www.w3.org/2000/svg" xmlns:xlink="http://www.w3.org/1999/xlink">
    <title>groups_icons/@leaf</title>
    <defs>
        <filter id="filter-1">
            <feColorMatrix in="SourceGraphic" type="matrix" values="0 0 0 0 1.000000 0 0 0 0 1.000000 0 0 0 0 1.000000 0 0 0 1.000000 0"></feColorMatrix>
        </filter>
    </defs>
    <g id="groups_icons/@leaf" stroke="none" stroke-width="1" fill="none" fill-rule="evenodd">
        <g filter="url(#filter-1)" id="leaf">
            <g transform="translate(16.000000, 15.000000)">
                <path d="M40.384,37.888 L31.808,29.312 C33.92,26.432 35.008,22.912 34.688,19.328 C34.304,14.848 32,10.432 28.096,6.464 C16.896,-4.608 3.328,1.856 2.816,2.048 L2.304,2.24 L2.048,2.816 C1.984,3.008 -4.672,16.896 6.592,28.16 C11.072,32.64 16.064,34.944 20.8,34.944 C23.808,34.944 26.88,33.856 29.376,31.936 L37.952,40.512 C38.336,40.896 38.848,41.024 39.232,41.024 C39.616,41.024 40.128,40.832 40.512,40.512 C41.088,39.616 41.088,38.592 40.384,37.888 Z M9.088,25.6 C0.704,17.216 4.096,7.424 4.992,4.928 C7.488,3.84 17.28,0.704 25.6,9.024 C28.992,12.416 30.784,16 31.104,19.52 C31.296,22.208 30.72,24.704 29.12,26.624 L24.512,22.016 L24.512,13.696 C24.512,12.608 23.808,11.904 22.72,11.904 C21.632,11.904 20.928,12.608 20.928,13.696 L20.928,18.496 L16,13.504 C15.296,12.8 14.208,12.8 13.504,13.504 C12.8,14.208 12.8,15.296 13.504,16 L16.896,19.392 L12.096,19.392 C11.008,19.392 10.304,20.096 10.304,21.184 C10.304,22.272 11.008,22.976 12.096,22.976 L20.48,22.976 L21.568,24.064 L21.568,24.064 L26.56,29.056 C21.824,32.896 14.976,31.424 9.088,25.6 Z" id="Shape" fill="#000000" fill-rule="nonzero"></path>
            </g>
        </g>
    </g>
</svg>