<?xml version="1.0" encoding="UTF-8"?>
<svg width="73px" height="73px" viewBox="0 0 73 73" version="1.1" xmlns="http://www.w3.org/2000/svg" xmlns:xlink="http://www.w3.org/1999/xlink">
    <title>groups_icons/@ballons</title>
    <defs>
        <filter id="filter-1">
            <feColorMatrix in="SourceGraphic" type="matrix" values="0 0 0 0 1.000000 0 0 0 0 1.000000 0 0 0 0 1.000000 0 0 0 1.000000 0"></feColorMatrix>
        </filter>
    </defs>
    <g id="groups_icons/@ballons" stroke="none" stroke-width="1" fill="none" fill-rule="evenodd">
        <g filter="url(#filter-1)" id="baloon">
            <g transform="translate(21.000000, 16.000000)">
                <path d="M21.568,0 C18.368,0 15.424,1.856 13.76,4.928 C12.544,4.416 11.392,4.096 10.048,4.096 C4.608,4.096 0.192,9.344 0.192,15.808 C0.192,21.44 3.776,27.712 8.512,28.864 C8.32,29.376 8.192,29.888 8,30.592 C7.488,32.32 8,33.792 8.32,35.2 C8.64,36.736 9.024,37.568 8.512,38.272 C8,39.104 8.192,40.128 9.024,40.64 C9.344,40.832 9.728,40.96 9.856,40.96 C10.368,40.96 10.88,40.64 11.2,40.128 C12.544,38.08 12.032,36.032 11.52,34.368 C11.2,33.344 11.008,32.32 11.2,31.68 C11.392,30.976 11.52,30.336 11.904,29.632 C11.904,29.44 12.096,29.12 12.096,28.928 C14.784,28.096 17.024,25.728 18.368,22.784 C18.56,22.976 18.88,22.976 19.072,23.104 C19.072,23.296 18.88,23.296 18.88,23.424 C18.688,24.128 18.368,24.768 18.176,25.664 C17.664,27.392 18.176,28.864 18.496,30.272 C18.816,31.808 19.2,32.64 18.688,33.344 C18.176,34.176 18.368,35.2 19.2,35.712 C19.52,35.904 19.904,36.032 20.032,36.032 C20.544,36.032 21.056,35.712 21.376,35.2 C22.72,33.152 22.208,31.104 21.696,29.44 C21.376,28.416 21.184,27.392 21.376,26.752 C21.568,26.048 21.696,25.408 22.08,24.704 C22.272,24.384 22.272,24 22.08,23.68 C22.4,23.68 22.912,23.488 23.296,23.488 C27.904,22.144 30.592,16 30.592,11.264 C30.72,4.928 26.688,0 21.568,0 Z M9.984,25.664 C6.784,25.664 3.52,20.736 3.52,15.808 C3.52,11.2 6.4,7.488 9.984,7.488 C13.568,7.488 16.448,11.2 16.448,15.808 C16.448,20.736 13.376,25.664 9.984,25.664 Z M22.4,19.904 C21.696,20.096 21.184,20.096 20.544,19.904 C20.224,19.712 19.84,19.584 19.52,19.392 C19.84,18.176 20.032,17.024 20.032,15.808 C20.032,12.224 18.688,9.152 16.64,6.976 C17.664,4.736 19.52,3.392 21.568,3.392 C24.768,3.392 27.328,6.784 27.328,10.88 C27.328,14.976 24.96,19.008 22.4,19.904 Z" id="Shape" fill="#000000" fill-rule="nonzero"></path>
            </g>
        </g>
    </g>
</svg>