<?xml version="1.0" encoding="UTF-8"?>
<svg width="73px" height="73px" viewBox="0 0 73 73" version="1.1" xmlns="http://www.w3.org/2000/svg" xmlns:xlink="http://www.w3.org/1999/xlink">
    <title>groups_icons/@coffee</title>
    <defs>
        <filter id="filter-1">
            <feColorMatrix in="SourceGraphic" type="matrix" values="0 0 0 0 1.000000 0 0 0 0 1.000000 0 0 0 0 1.000000 0 0 0 1.000000 0"></feColorMatrix>
        </filter>
    </defs>
    <g id="groups_icons/@coffee" stroke="none" stroke-width="1" fill="none" fill-rule="evenodd">
        <g filter="url(#filter-1)" id="coffee-cup">
            <g transform="translate(16.000000, 17.000000)">
                <path d="M35.968,15.68 C34.624,15.68 33.408,16.192 32.512,17.024 L32.512,14.464 C32.512,13.248 31.488,12.224 30.272,12.224 L3.968,12.224 C2.752,12.224 1.728,13.248 1.728,14.464 L1.728,22.144 C1.728,27.456 4.8,32.256 9.088,34.624 L1.728,34.624 C0.704,34.624 0,35.328 0,36.352 C0,37.376 0.704,38.08 1.728,38.08 L32.576,38.08 C33.6,38.08 34.304,37.376 34.304,36.352 C34.304,35.328 33.6,34.624 32.576,34.624 L25.344,34.624 C28.416,32.896 30.848,30.016 31.872,26.56 C32.704,27.776 34.24,28.608 35.84,28.608 C37.184,28.608 38.592,28.096 39.616,27.072 C40.448,26.048 40.96,24.832 40.96,23.488 L40.96,20.736 C41.152,17.92 38.912,15.68 35.968,15.68 Z M29.12,22.528 C29.12,28.16 24.512,32.832 18.688,32.832 L15.936,32.832 C9.92,32.832 5.12,28.032 5.12,22.016 L5.12,15.68 L29.12,15.68 L29.12,22.528 Z M37.376,24.448 C36.992,24.768 36.48,24.96 35.968,24.96 C35.136,24.96 34.24,24.128 34.24,23.232 L34.24,20.864 C34.24,20.032 35.072,19.136 35.968,19.136 C36.8,19.136 37.696,19.968 37.696,20.864 L37.696,23.424 C37.696,23.936 37.504,24.256 37.376,24.448 Z" id="Shape" fill="#000000" fill-rule="nonzero"></path>
                <path d="M8.576,8.832 C9.6,8.832 10.304,8.128 10.304,7.104 L10.304,1.984 C10.304,0.96 9.6,0.256 8.576,0.256 C7.552,0.256 6.848,0.96 6.848,1.984 L6.848,7.104 C6.848,8.128 7.552,8.832 8.576,8.832 Z" id="Path" fill="#000000" fill-rule="nonzero"></path>
                <path d="M17.152,8.832 C18.176,8.832 18.88,8.128 18.88,7.104 L18.88,1.984 C18.88,0.96 18.176,0.256 17.152,0.256 C16.128,0.256 15.424,0.96 15.424,1.984 L15.424,7.104 C15.424,8.128 16.128,8.832 17.152,8.832 Z" id="Path" fill="#000000" fill-rule="nonzero"></path>
                <path d="M25.728,8.832 C26.752,8.832 27.456,8.128 27.456,7.104 L27.456,1.984 C27.456,0.96 26.752,0.256 25.728,0.256 C24.704,0.256 24,0.96 24,1.984 L24,7.104 C24,8.128 24.704,8.832 25.728,8.832 Z" id="Path" fill="#000000" fill-rule="nonzero"></path>
            </g>
        </g>
    </g>
</svg>