<?xml version="1.0" encoding="UTF-8"?>
<svg width="73px" height="73px" viewBox="0 0 73 73" version="1.1" xmlns="http://www.w3.org/2000/svg" xmlns:xlink="http://www.w3.org/1999/xlink">
    <title>groups_icons/@crown</title>
    <defs>
        <filter id="filter-1">
            <feColorMatrix in="SourceGraphic" type="matrix" values="0 0 0 0 1.000000 0 0 0 0 1.000000 0 0 0 0 1.000000 0 0 0 1.000000 0"></feColorMatrix>
        </filter>
    </defs>
    <g id="groups_icons/@crown" stroke="none" stroke-width="1" fill="none" fill-rule="evenodd">
        <g filter="url(#filter-1)" id="crown">
            <g transform="translate(16.000000, 18.000000)">
                <path d="M39.872,0.576 C39.168,0.192 38.272,0.192 37.568,0.576 L29.12,6.336 L21.888,0.384 C21.184,-0.128 20.096,-0.128 19.2,0.384 L11.84,6.464 L3.456,0.896 C2.752,0.512 1.856,0.384 1.152,0.896 C0.448,1.28 -0.128,2.176 0.064,2.88 L2.944,33.216 C2.944,34.624 4.224,35.904 5.824,35.904 L35.264,35.904 C36.672,35.904 37.952,34.816 38.144,33.216 L41.024,2.752 C41.088,1.792 40.576,1.088 39.872,0.576 Z M34.624,32.32 L6.336,32.32 L5.568,25.088 L35.2,25.088 L34.624,32.32 Z M35.52,21.504 L5.248,21.504 L3.776,5.568 L12.032,11.136 L20.48,3.968 L28.736,10.752 L36.992,5.184 L35.52,21.504 Z" id="Shape" fill="#000000" fill-rule="nonzero"></path>
                <circle id="Oval" fill="#000000" fill-rule="nonzero" cx="13.312" cy="28.672" r="1.792"></circle>
                <circle id="Oval" fill="#000000" fill-rule="nonzero" cx="20.48" cy="28.672" r="1.792"></circle>
                <circle id="Oval" fill="#000000" fill-rule="nonzero" cx="27.648" cy="28.672" r="1.792"></circle>
            </g>
        </g>
    </g>
</svg>