<?xml version="1.0" encoding="UTF-8"?>
<svg width="73px" height="73px" viewBox="0 0 73 73" version="1.1" xmlns="http://www.w3.org/2000/svg" xmlns:xlink="http://www.w3.org/1999/xlink">
    <title>groups_icons/@sprout</title>
    <defs>
        <filter id="filter-1">
            <feColorMatrix in="SourceGraphic" type="matrix" values="0 0 0 0 1.000000 0 0 0 0 1.000000 0 0 0 0 1.000000 0 0 0 1.000000 0"></feColorMatrix>
        </filter>
    </defs>
    <g id="groups_icons/@sprout" stroke="none" stroke-width="1" fill="none" fill-rule="evenodd">
        <g filter="url(#filter-1)" id="sprout">
            <g transform="translate(16.000000, 16.000000)">
                <path d="M40.768,9.216 C40.576,7.488 39.424,6.144 37.696,6.144 C34.432,5.824 28.48,6.144 24.192,10.432 C23.36,11.264 22.656,12.288 21.952,13.504 C21.504,10.752 20.48,7.68 18.048,5.312 C14.144,0.832 7.296,0.192 3.584,0 C1.856,0 0.32,1.344 0.128,3.072 C-0.192,6.848 -3.32251587e-13,13.824 4.096,18.112 C7.488,21.504 12.608,22.208 16.384,22.208 C17.408,22.208 18.112,22.208 18.944,22.016 L18.944,39.232 C18.944,40.256 19.648,40.96 20.672,40.96 C21.696,40.96 22.4,40.256 22.4,39.232 L22.4,28.864 C22.592,28.864 22.72,28.864 22.912,28.864 C26.496,28.864 33.152,28.16 37.056,24.256 C41.28,19.776 41.088,12.096 40.768,9.216 Z M6.464,15.68 C3.072,12.288 3.2,5.952 3.392,3.392 C5.952,3.392 12.416,3.904 15.872,7.296 L15.872,7.296 C19.136,10.688 19.136,16 18.944,18.56 C15.68,18.944 9.536,18.752 6.464,15.68 Z M34.432,21.824 C31.168,25.216 25.024,25.408 22.336,25.408 C22.528,22.656 23.552,16 26.752,12.608 C29.952,9.216 35.264,9.216 37.312,9.344 C37.696,11.968 37.888,18.24 34.432,21.824 Z" id="Shape" fill="#000000" fill-rule="nonzero"></path>
            </g>
        </g>
    </g>
</svg>