<?xml version="1.0" encoding="UTF-8"?>
<svg width="73px" height="73px" viewBox="0 0 73 73" version="1.1" xmlns="http://www.w3.org/2000/svg" xmlns:xlink="http://www.w3.org/1999/xlink">
    <title>groups_icons/@juice</title>
    <defs>
        <filter id="filter-1">
            <feColorMatrix in="SourceGraphic" type="matrix" values="0 0 0 0 1.000000 0 0 0 0 1.000000 0 0 0 0 1.000000 0 0 0 1.000000 0"></feColorMatrix>
        </filter>
    </defs>
    <g id="groups_icons/@juice" stroke="none" stroke-width="1" fill="none" fill-rule="evenodd">
        <g filter="url(#filter-1)" id="juice">
            <g transform="translate(23.000000, 16.000000)">
                <path d="M26.752,9.664 C26.24,8.832 25.216,8.448 24.384,8.448 L16.576,8.448 L18.624,3.328 L24.256,3.328 L24.256,3.328 C25.28,3.328 25.984,2.624 25.984,1.6 C25.984,0.576 25.216,0 24.192,0 L18.048,0 C16.832,0 15.808,0.704 15.488,1.728 L12.8,8.512 L3.648,8.512 C2.816,8.512 1.792,8.832 1.28,9.728 C0.576,10.432 0.256,11.456 0.448,12.416 L3.328,37.888 C3.52,39.616 5.056,40.96 6.72,40.96 L21.504,40.96 C23.232,40.96 24.704,39.616 24.896,37.888 L27.776,12.416 C27.776,11.392 27.456,10.368 26.752,9.664 Z M24.384,11.904 L23.552,19.2 L23.232,19.008 C21.184,17.984 18.816,17.792 16.768,18.816 L15.872,19.2 C14.848,19.712 13.504,19.712 12.48,19.2 L12.16,19.008 C9.92,17.984 7.552,17.984 5.376,19.2 L4.48,19.52 L3.648,11.84 L24.384,11.84 L24.384,11.904 Z M21.504,37.376 L6.72,37.376 L5.184,23.104 L7.232,22.08 C8.448,21.376 9.792,21.376 10.816,22.08 L11.136,22.272 C13.184,23.296 15.36,23.296 17.408,22.272 L18.24,21.952 C19.456,21.44 20.608,21.44 21.824,22.144 L23.36,22.976 L21.504,37.376 L21.504,37.376" id="Shape" fill="#000000" fill-rule="nonzero"></path>
            </g>
        </g>
    </g>
</svg>