<?xml version="1.0" encoding="UTF-8"?>
<svg width="73px" height="73px" viewBox="0 0 73 73" version="1.1" xmlns="http://www.w3.org/2000/svg" xmlns:xlink="http://www.w3.org/1999/xlink">
    <title>groups_icons/@island</title>
    <defs>
        <filter id="filter-1">
            <feColorMatrix in="SourceGraphic" type="matrix" values="0 0 0 0 1.000000 0 0 0 0 1.000000 0 0 0 0 1.000000 0 0 0 1.000000 0"></feColorMatrix>
        </filter>
    </defs>
    <g id="groups_icons/@island" stroke="none" stroke-width="1" fill="none" fill-rule="evenodd">
        <g filter="url(#filter-1)" id="island">
            <g transform="translate(16.000000, 16.000000)">
                <path d="M34.112,13.888 C37.888,13.888 40.96,10.816 40.96,7.04 C40.96,3.264 37.888,0.192 34.112,0.192 C30.336,0.192 27.328,3.264 27.328,7.04 C27.328,10.816 30.4,13.888 34.112,13.888 Z M34.112,3.648 C35.968,3.648 37.504,5.184 37.504,7.04 C37.504,8.896 35.968,10.432 34.112,10.432 C32.256,10.432 30.72,8.896 30.72,7.04 C30.72,5.184 32.256,3.648 34.112,3.648 Z" id="Shape" fill="#000000" fill-rule="nonzero"></path>
                <path d="M39.232,36.032 C38.912,36.032 38.72,35.84 38.208,35.328 C37.504,34.624 36.48,33.472 34.624,33.472 C32.768,33.472 31.744,34.688 31.04,35.328 C30.528,36.032 30.336,36.032 30.016,36.032 C29.696,36.032 29.504,35.84 28.992,35.328 C28.288,34.624 27.264,33.472 25.408,33.472 C23.552,33.472 22.528,34.688 21.824,35.328 C20.992,35.84 20.8,36.032 20.48,36.032 C20.16,36.032 19.968,35.84 19.456,35.328 C18.752,34.624 17.728,33.472 15.872,33.472 C14.016,33.472 12.992,34.688 12.288,35.328 C12.096,35.52 12.096,35.52 11.968,35.648 C11.968,35.456 11.968,35.328 11.776,35.328 C11.776,35.328 9.408,30.528 10.24,26.304 C10.432,25.472 10.752,24.448 11.072,23.424 C11.392,22.4 11.776,21.184 12.096,20.16 C12.096,19.968 12.288,19.968 12.288,19.84 C13.504,20.544 14.848,22.08 15.168,23.616 C15.36,24.32 16,24.832 16.896,24.832 C17.088,24.832 17.216,24.832 17.408,24.832 C18.24,24.64 18.752,23.616 18.624,22.784 C18.112,20.544 16.064,18.176 14.016,16.96 C15.744,15.232 18.816,14.4 21.888,14.912 C22.72,15.104 23.744,14.4 23.936,13.568 C24.128,12.736 23.424,11.712 22.592,11.52 C18.496,10.816 14.592,11.84 12.032,14.08 C11.52,12.544 11.008,11.2 10.176,10.176 C8.96,8.32 7.808,7.296 6.4,7.104 C5.376,6.912 4.544,7.616 4.352,8.448 C4.16,9.472 4.864,10.304 5.696,10.496 C5.888,10.496 6.528,10.816 7.232,12.032 C7.744,12.736 8.064,13.568 8.448,14.4 C6.08,13.568 3.136,13.696 0.768,15.104 C0.064,15.616 -0.064,16.64 0.448,17.472 C0.96,18.304 1.984,18.496 2.816,17.984 C4.864,16.768 7.424,16.96 9.152,18.688 L9.152,18.88 C9.152,18.88 9.152,18.88 9.152,19.072 C8.96,20.096 8.448,21.12 8.128,22.336 C7.616,23.552 7.296,24.704 7.104,25.92 C6.592,28.8 7.104,31.744 7.808,33.92 C7.488,33.92 7.104,33.728 6.784,33.728 C4.928,33.728 3.904,34.944 3.2,35.584 C2.368,35.904 2.176,36.096 1.856,36.096 C0.704,36.032 0,36.736 0,37.76 C0,38.784 0.704,39.488 1.728,39.488 C3.584,39.488 4.608,38.272 5.312,37.632 C5.824,36.928 6.016,36.928 6.336,36.928 C6.656,36.928 6.848,37.12 7.36,37.632 C8.064,38.336 9.088,39.488 10.944,39.488 C12.8,39.488 13.824,38.272 14.528,37.632 C15.04,36.928 15.232,36.928 15.552,36.928 C15.872,36.928 16.064,37.12 16.576,37.632 C17.28,38.336 18.304,39.488 20.16,39.488 C22.016,39.488 23.04,38.272 23.744,37.632 C24.256,36.928 24.448,36.928 24.768,36.928 C25.088,36.928 25.28,37.12 25.792,37.632 C26.496,38.336 27.52,39.488 29.376,39.488 C31.232,39.488 32.256,38.272 32.96,37.632 C33.472,36.928 33.664,36.928 33.984,36.928 C34.304,36.928 34.496,37.12 35.008,37.632 C35.712,38.336 36.736,39.488 38.592,39.488 C39.616,39.488 40.32,38.784 40.32,37.76 C40.32,36.736 40.256,36.032 39.232,36.032 Z" id="Path" fill="#000000" fill-rule="nonzero"></path>
            </g>
        </g>
    </g>
</svg>