<?xml version="1.0" encoding="UTF-8"?>
<svg width="73px" height="73px" viewBox="0 0 73 73" version="1.1" xmlns="http://www.w3.org/2000/svg" xmlns:xlink="http://www.w3.org/1999/xlink">
    <title>groups_icons/@spray</title>
    <defs>
        <filter id="filter-1">
            <feColorMatrix in="SourceGraphic" type="matrix" values="0 0 0 0 1.000000 0 0 0 0 1.000000 0 0 0 0 1.000000 0 0 0 1.000000 0"></feColorMatrix>
        </filter>
    </defs>
    <g id="groups_icons/@spray" stroke="none" stroke-width="1" fill="none" fill-rule="evenodd">
        <g filter="url(#filter-1)" id="spray">
            <g transform="translate(17.000000, 13.000000)">
                <path d="M13.87,15.549 L13.87,13.578 C15.038,13.578 15.841,12.775 15.841,11.607 L15.841,9.636 C15.841,8.468 15.038,7.665 13.87,7.665 L10.001,7.665 C8.833,7.665 8.03,8.468 8.03,9.636 L8.03,11.68 C8.03,12.848 8.833,13.651 10.001,13.651 L10.001,15.622 C4.964,16.425 1.022,20.294 0.438,25.331 C0.219,25.915 0.219,26.28 0.219,26.718 L0.219,42.267 C0.219,44.822 2.19,46.72 4.672,46.72 L19.272,46.72 C21.608,46.72 23.725,44.749 23.725,42.413 L23.725,26.864 C23.725,26.499 23.725,25.915 23.506,25.477 C22.995,20.44 18.907,16.352 13.87,15.549 Z M11.899,19.272 C15.768,19.272 19.126,21.973 19.491,25.696 L4.161,25.696 C4.745,22.192 8.03,19.272 11.899,19.272 Z M19.126,42.851 L4.745,42.851 C4.38,42.851 4.161,42.632 4.161,42.486 L4.161,29.784 L19.71,29.784 L19.71,42.413 C19.71,42.632 19.491,42.851 19.126,42.851 Z" id="Shape" fill="#000000" fill-rule="nonzero"></path>
                <path d="M30.441,3.869 L28.47,3.869 C27.886,3.869 27.521,4.234 27.521,4.818 L27.521,6.789 C27.521,7.373 27.886,7.738 28.47,7.738 L30.441,7.738 C31.025,7.738 31.39,7.373 31.39,6.789 L31.39,4.891 C31.39,4.307 31.025,3.869 30.441,3.869 Z" id="Path" fill="#000000" fill-rule="nonzero"></path>
                <path d="M30.441,15.549 L28.47,15.549 C27.886,15.549 27.521,15.914 27.521,16.498 L27.521,18.469 C27.521,19.053 27.886,19.418 28.47,19.418 L30.441,19.418 C31.025,19.418 31.39,19.053 31.39,18.469 L31.39,16.498 C31.39,15.987 31.025,15.549 30.441,15.549 Z" id="Path" fill="#000000" fill-rule="nonzero"></path>
                <path d="M38.179,0 L36.208,0 C35.624,0 35.259,0.365 35.259,0.949 L35.259,2.92 C35.259,3.504 35.624,3.869 36.208,3.869 L38.179,3.869 C38.763,3.869 39.128,3.504 39.128,2.92 L39.128,0.949 C39.201,0.365 38.763,0 38.179,0 Z" id="Path" fill="#000000" fill-rule="nonzero"></path>
                <path d="M38.179,19.491 L36.208,19.491 C35.624,19.491 35.259,19.856 35.259,20.44 L35.259,22.411 C35.259,22.995 35.624,23.36 36.208,23.36 L38.179,23.36 C38.763,23.36 39.128,22.995 39.128,22.411 L39.128,20.44 C39.201,19.856 38.763,19.491 38.179,19.491 Z" id="Path" fill="#000000" fill-rule="nonzero"></path>
                <path d="M22.63,9.709 L20.659,9.709 C20.075,9.709 19.71,10.074 19.71,10.658 L19.71,12.629 C19.71,13.213 20.075,13.578 20.659,13.578 L22.63,13.578 C23.214,13.578 23.579,13.213 23.579,12.629 L23.579,10.658 C23.579,10.147 23.214,9.709 22.63,9.709 Z" id="Path" fill="#000000" fill-rule="nonzero"></path>
                <path d="M38.179,9.709 L36.208,9.709 C35.624,9.709 35.259,10.074 35.259,10.658 L35.259,12.629 C35.259,13.213 35.624,13.578 36.208,13.578 L38.179,13.578 C38.763,13.578 39.128,13.213 39.128,12.629 L39.128,10.658 C39.201,10.147 38.763,9.709 38.179,9.709 Z" id="Path" fill="#000000" fill-rule="nonzero"></path>
            </g>
        </g>
    </g>
</svg>