<?xml version="1.0" encoding="UTF-8"?>
<svg width="73px" height="73px" viewBox="0 0 73 73" version="1.1" xmlns="http://www.w3.org/2000/svg" xmlns:xlink="http://www.w3.org/1999/xlink">
    <title>groups_icons/@flower</title>
    <defs>
        <filter id="filter-1">
            <feColorMatrix in="SourceGraphic" type="matrix" values="0 0 0 0 1.000000 0 0 0 0 1.000000 0 0 0 0 1.000000 0 0 0 1.000000 0"></feColorMatrix>
        </filter>
    </defs>
    <g id="groups_icons/@flower" stroke="none" stroke-width="1" fill="none" fill-rule="evenodd">
        <g filter="url(#filter-1)" id="flower">
            <g transform="translate(16.000000, 16.000000)">
                <path d="M32.192,12.736 C30.976,12.736 29.248,13.056 26.88,14.144 C27.712,11.712 28.288,9.984 28.288,8.832 C28.224,3.968 24.768,0 20.48,0 C16.192,0 12.736,3.968 12.736,8.768 C12.736,9.984 13.056,11.712 14.144,14.08 C11.712,13.248 9.984,12.672 8.832,12.672 C3.968,12.736 0,16.192 0,20.48 C0,24.768 3.968,28.224 8.768,28.224 C9.984,28.224 11.712,27.904 14.08,26.816 C13.248,29.248 12.672,30.976 12.672,32.128 C12.736,36.992 16.192,40.96 20.48,40.96 C24.768,40.96 28.224,36.992 28.224,32.192 C28.224,30.976 27.904,29.248 26.816,26.88 C29.248,27.712 30.976,28.288 32.128,28.288 C36.992,28.224 40.96,24.768 40.96,20.48 C40.96,16.192 36.992,12.736 32.192,12.736 Z M16.896,20.48 C16.896,18.56 18.432,17.024 20.352,17.024 C22.272,17.024 23.808,18.56 23.808,20.48 C23.808,22.4 22.272,23.936 20.352,23.936 C18.432,23.936 16.896,22.4 16.896,20.48 Z M20.288,3.264 C22.72,3.264 24.576,5.696 24.576,8.576 C24.576,9.28 24.256,10.816 23.04,14.272 C22.208,13.952 21.312,13.76 20.288,13.76 C19.264,13.76 18.368,13.952 17.536,14.272 C16.128,10.816 16,9.28 16,8.576 C16,5.696 17.92,3.264 20.288,3.264 Z M3.072,20.48 C3.072,18.048 5.504,16.192 8.384,16.192 C9.088,16.192 10.624,16.512 14.08,17.728 C13.76,18.56 13.568,19.456 13.568,20.48 C13.568,21.504 13.76,22.4 14.08,23.232 C10.624,24.64 9.088,24.768 8.384,24.768 C5.504,24.768 3.072,22.912 3.072,20.48 Z M20.288,37.696 C17.856,37.696 16,35.264 16,32.384 C16,31.68 16.32,30.144 17.536,26.688 C18.368,27.008 19.264,27.2 20.288,27.2 C21.312,27.2 22.208,27.008 23.04,26.688 C24.448,30.144 24.576,31.68 24.576,32.384 C24.64,35.264 22.72,37.696 20.288,37.696 Z M32.192,24.768 C31.488,24.768 29.952,24.448 26.496,23.232 C26.816,22.4 27.008,21.504 27.008,20.48 C27.008,19.456 26.816,18.56 26.496,17.728 C29.952,16.32 31.488,16.192 32.192,16.192 C35.136,16.192 37.504,18.112 37.504,20.48 C37.504,22.848 35.136,24.768 32.192,24.768 Z" id="Shape" fill="#000000" fill-rule="nonzero"></path>
            </g>
        </g>
    </g>
</svg>