<?xml version="1.0" encoding="UTF-8"?>
<svg width="73px" height="73px" viewBox="0 0 73 73" version="1.1" xmlns="http://www.w3.org/2000/svg" xmlns:xlink="http://www.w3.org/1999/xlink">
    <title>groups_icons/@flags</title>
    <defs>
        <filter id="filter-1">
            <feColorMatrix in="SourceGraphic" type="matrix" values="0 0 0 0 1.000000 0 0 0 0 1.000000 0 0 0 0 1.000000 0 0 0 1.000000 0"></feColorMatrix>
        </filter>
    </defs>
    <g id="groups_icons/@flags" stroke="none" stroke-width="1" fill="none" fill-rule="evenodd">
        <g filter="url(#filter-1)" id="flags">
            <g transform="translate(13.000000, 29.000000)">
                <path d="M47.377,1.752 C47.012,0.803 45.99,0.219 45.041,0.365 C40.734,1.533 32.777,2.336 24.382,2.336 C15.622,2.336 7.446,1.533 3.358,0.219 C2.409,-0.146 1.241,0.438 0.803,1.606 C0.584,2.409 0.803,3.139 1.387,3.723 L4.891,13.067 C5.256,13.87 6.059,14.6 6.862,14.6 C7.081,14.6 7.081,14.6 7.227,14.6 C8.03,14.6 8.76,14.235 9.198,13.651 L14.673,6.059 C15.622,6.059 16.644,6.278 17.593,6.278 L21.827,14.6 C22.192,15.403 22.995,15.987 23.944,15.987 C24.893,15.987 25.696,15.403 26.061,14.6 L30.66,6.205 C31.609,6.205 32.631,5.986 33.58,5.986 L39.055,13.578 C39.42,14.235 40.15,14.6 40.953,14.6 C41.172,14.6 41.172,14.6 41.318,14.6 C42.267,14.381 42.851,13.797 43.289,13.067 L46.574,3.869 C47.231,3.285 47.596,2.555 47.377,1.752 Z M7.446,8.979 L5.84,4.891 C7.008,5.11 8.395,5.256 9.928,5.475 L7.446,8.979 Z M24.017,10.366 L21.9,6.497 C22.703,6.497 23.433,6.497 24.236,6.497 C24.82,6.497 25.404,6.497 25.988,6.497 L24.017,10.366 Z M40.588,8.979 L38.033,5.475 C39.42,5.256 40.734,5.11 41.902,4.891 L40.588,8.979 Z" id="Shape" fill="#000000" fill-rule="nonzero"></path>
            </g>
        </g>
    </g>
</svg>