<?xml version="1.0" encoding="UTF-8"?>
<svg width="73px" height="73px" viewBox="0 0 73 73" version="1.1" xmlns="http://www.w3.org/2000/svg" xmlns:xlink="http://www.w3.org/1999/xlink">
    <title>groups_icons/@camera</title>
    <defs>
        <filter id="filter-1">
            <feColorMatrix in="SourceGraphic" type="matrix" values="0 0 0 0 1.000000 0 0 0 0 1.000000 0 0 0 0 1.000000 0 0 0 1.000000 0"></feColorMatrix>
        </filter>
    </defs>
    <g id="groups_icons/@camera" stroke="none" stroke-width="1" fill="none" fill-rule="evenodd">
        <g filter="url(#filter-1)" id="video">
            <g transform="translate(16.000000, 19.000000)">
                <path d="M39.872,15.68 C39.04,14.976 38.144,14.848 37.12,14.976 L33.344,15.488 C33.024,12.928 30.976,10.88 28.224,10.88 L25.664,10.88 C26.496,9.664 27.008,8.32 27.008,6.912 C27.008,3.328 24.128,0.256 20.48,0.256 C18.432,0.256 16.512,1.28 15.36,3.008 C14.336,1.984 12.992,1.472 11.392,1.472 C8.128,1.472 5.376,4.224 5.376,7.616 C5.376,8.96 5.696,10.176 6.4,11.072 L5.12,11.072 C2.24,11.072 0,13.312 0,16.192 L0,29.184 C0,32.064 2.24,34.304 5.12,34.304 L28.224,34.304 C31.104,34.304 33.344,32.064 33.344,29.184 L33.344,28.992 L36.928,29.696 C37.12,29.696 37.248,29.696 37.44,29.696 C38.272,29.696 38.976,29.376 39.68,28.864 C40.512,28.16 40.896,27.328 40.896,26.304 L40.896,18.368 C41.088,17.216 40.576,16.192 39.872,15.68 Z M20.544,3.648 C22.272,3.648 23.616,4.992 23.616,6.912 C23.616,8.64 22.272,10.176 20.544,10.176 C18.816,10.176 17.472,8.832 17.472,6.912 C17.472,4.992 18.816,3.648 20.544,3.648 Z M11.328,4.672 C12.672,4.672 13.888,5.888 13.888,7.424 C13.888,8.96 12.672,10.176 11.328,10.176 C9.984,10.176 8.768,8.96 8.768,7.424 C8.768,5.888 9.92,4.672 11.328,4.672 Z M29.952,28.992 C29.952,30.016 29.248,30.72 28.224,30.72 L5.12,30.72 C4.096,30.72 3.392,30.016 3.392,28.992 L3.392,16 C3.392,14.976 4.096,14.272 5.12,14.272 L28.224,14.272 C29.248,14.272 29.952,14.976 29.952,16 L29.952,28.992 L29.952,28.992 Z M37.696,26.112 L33.408,25.408 L33.408,18.88 L37.696,18.176 L37.696,26.112 Z" id="Shape" fill="#000000" fill-rule="nonzero"></path>
            </g>
        </g>
    </g>
</svg>