<?xml version="1.0" encoding="UTF-8"?>
<svg width="73px" height="73px" viewBox="0 0 73 73" version="1.1" xmlns="http://www.w3.org/2000/svg" xmlns:xlink="http://www.w3.org/1999/xlink">
    <title>groups_icons/@smily</title>
    <defs>
        <filter id="filter-1">
            <feColorMatrix in="SourceGraphic" type="matrix" values="0 0 0 0 1.000000 0 0 0 0 1.000000 0 0 0 0 1.000000 0 0 0 1.000000 0"></feColorMatrix>
        </filter>
    </defs>
    <g id="groups_icons/@smily" stroke="none" stroke-width="1" fill="none" fill-rule="evenodd">
        <g filter="url(#filter-1)" id="emoji-happy">
            <g transform="translate(16.000000, 16.000000)">
                <path d="M20.48,0 C9.216,0 0,9.216 0,20.48 C0,31.744 9.216,40.96 20.48,40.96 C31.744,40.96 40.96,31.744 40.96,20.48 C40.96,9.216 31.744,0 20.48,0 Z M20.48,37.568 C11.072,37.568 3.392,29.888 3.392,20.48 C3.392,11.072 11.072,3.392 20.48,3.392 C29.888,3.392 37.568,11.072 37.568,20.48 C37.568,29.888 29.888,37.568 20.48,37.568 Z" id="Shape" fill="#000000" fill-rule="nonzero"></path>
                <circle id="Oval" fill="#000000" fill-rule="nonzero" cx="12.8" cy="14.528" r="2.56"></circle>
                <circle id="Oval" fill="#000000" fill-rule="nonzero" cx="28.16" cy="14.528" r="2.56"></circle>
                <path d="M29.376,22.208 L11.584,22.208 C10.88,22.208 10.24,22.528 9.728,23.04 C9.216,23.552 9.024,24.384 9.216,25.088 C10.24,30.528 15.04,34.304 20.48,34.304 C25.92,34.304 30.72,30.4 31.744,25.088 C31.936,24.384 31.744,23.744 31.232,23.04 C30.72,22.528 30.016,22.208 29.376,22.208 Z M20.48,30.912 C17.088,30.912 14.016,28.672 12.992,25.6 L28.16,25.6 C26.944,28.864 23.872,30.912 20.48,30.912 Z" id="Shape" fill="#000000" fill-rule="nonzero"></path>
            </g>
        </g>
    </g>
</svg>