<?xml version="1.0" encoding="UTF-8"?>
<svg width="73px" height="73px" viewBox="0 0 73 73" version="1.1" xmlns="http://www.w3.org/2000/svg" xmlns:xlink="http://www.w3.org/1999/xlink">
    <title>groups_icons/@star</title>
    <defs>
        <filter id="filter-1">
            <feColorMatrix in="SourceGraphic" type="matrix" values="0 0 0 0 1.000000 0 0 0 0 1.000000 0 0 0 0 1.000000 0 0 0 1.000000 0"></feColorMatrix>
        </filter>
    </defs>
    <g id="groups_icons/@star" stroke="none" stroke-width="1" fill="none" fill-rule="evenodd">
        <g filter="url(#filter-1)" id="star">
            <g transform="translate(16.000000, 16.000000)">
                <path d="M40.64,15.36 C40.32,14.144 39.296,13.312 38.08,13.12 L27.84,11.584 L23.232,1.856 C22.72,0.704 21.696,0 20.544,0 C19.328,0 18.176,0.704 17.664,1.856 L13.056,11.584 L2.816,13.312 C1.6,13.504 0.576,14.336 0.256,15.552 C-0.064,16.768 0.064,17.92 0.96,18.944 L8.448,26.624 L6.72,37.376 C6.528,38.592 7.04,39.936 8.064,40.64 C8.576,40.832 9.28,40.96 9.792,40.96 C10.304,40.96 10.816,40.768 11.328,40.64 L20.544,35.712 L29.76,40.64 C30.784,41.152 32.128,41.152 33.024,40.448 C34.048,39.744 34.56,38.592 34.368,37.184 L32.64,26.432 L40.128,18.752 C40.832,17.92 41.152,16.576 40.64,15.36 Z M29.76,24.384 C29.248,24.896 29.056,25.6 29.056,26.432 L30.912,37.376 L21.504,32.256 C21.184,32.064 20.8,31.936 20.48,31.936 C20.16,31.936 19.776,32.128 19.456,32.256 L10.24,37.376 L11.968,26.432 C12.16,25.728 11.776,24.896 11.264,24.384 L3.584,16.512 L14.144,14.784 C14.848,14.592 15.488,14.08 15.872,13.44 L20.48,3.712 L25.088,13.44 C25.408,14.144 26.112,14.656 26.816,14.784 L37.376,16.512 L29.76,24.384 Z" id="Shape" fill="#000000" fill-rule="nonzero"></path>
            </g>
        </g>
    </g>
</svg>