<?xml version="1.0" encoding="UTF-8"?>
<svg width="73px" height="73px" viewBox="0 0 73 73" version="1.1" xmlns="http://www.w3.org/2000/svg" xmlns:xlink="http://www.w3.org/1999/xlink">
    <title>groups_icons/@mashrom</title>
    <defs>
        <filter id="filter-1">
            <feColorMatrix in="SourceGraphic" type="matrix" values="0 0 0 0 1.000000 0 0 0 0 1.000000 0 0 0 0 1.000000 0 0 0 1.000000 0"></feColorMatrix>
        </filter>
    </defs>
    <g id="groups_icons/@mashrom" stroke="none" stroke-width="1" fill="none" fill-rule="evenodd">
        <g filter="url(#filter-1)" id="mashroom">
            <g transform="translate(19.000000, 16.000000)">
                <path d="M32.192,9.024 C29.312,3.392 23.488,0 17.216,0 C10.944,0 5.056,3.392 2.176,9.024 C0.96,11.392 0.32,13.824 0.32,16.192 L0.32,16.384 C0.32,16.576 0.32,16.896 0.512,17.088 C2.048,20.352 5.952,22.912 11.072,24.064 L9.856,34.112 C9.664,35.84 10.176,37.504 11.392,38.912 C12.608,40.256 14.272,40.96 16,40.96 L18.56,40.96 C20.288,40.96 21.952,40.256 23.168,38.912 C24.384,37.568 24.896,35.84 24.704,34.112 L23.68,24.256 C28.8,23.04 32.704,20.672 34.24,17.28 C34.24,17.088 34.24,16.768 34.24,16.576 C34.112,13.824 33.6,11.456 32.192,9.024 Z M21.312,34.496 C21.312,35.328 21.12,36.032 20.608,36.736 C20.096,37.248 19.392,37.568 18.56,37.568 L16,37.568 C15.168,37.568 14.464,37.248 13.952,36.736 C13.44,36.224 13.12,35.392 13.248,34.496 L14.272,24.768 C15.296,24.96 16.128,24.96 17.152,24.96 C18.176,24.96 19.2,24.96 20.224,24.768 L21.312,34.496 Z M17.216,21.504 C10.24,21.504 5.12,18.944 3.584,16.192 C3.776,14.336 4.096,12.608 5.12,10.752 C7.488,6.144 12.096,3.392 17.216,3.392 C22.336,3.392 26.944,6.144 29.312,10.752 C30.144,12.48 30.656,14.336 30.848,16.192 C29.312,18.752 24.192,21.504 17.216,21.504 Z" id="Shape" fill="#000000" fill-rule="nonzero"></path>
                <circle id="Oval" fill="#000000" fill-rule="nonzero" cx="10.368" cy="15.36" r="1.728"></circle>
                <circle id="Oval" fill="#000000" fill-rule="nonzero" cx="24" cy="15.36" r="1.728"></circle>
                <circle id="Oval" fill="#000000" fill-rule="nonzero" cx="17.216" cy="8.512" r="1.728"></circle>
            </g>
        </g>
    </g>
</svg>