<?xml version="1.0" encoding="UTF-8"?>
<svg width="73px" height="73px" viewBox="0 0 73 73" version="1.1" xmlns="http://www.w3.org/2000/svg" xmlns:xlink="http://www.w3.org/1999/xlink">
    <title>groups_icons/@tshirt</title>
    <defs>
        <filter id="filter-1">
            <feColorMatrix in="SourceGraphic" type="matrix" values="0 0 0 0 1.000000 0 0 0 0 1.000000 0 0 0 0 1.000000 0 0 0 1.000000 0"></feColorMatrix>
        </filter>
    </defs>
    <g id="groups_icons/@tshirt" stroke="none" stroke-width="1" fill="none" fill-rule="evenodd">
        <g filter="url(#filter-1)" id="tshirt">
            <g transform="translate(16.000000, 20.000000)">
                <path d="M38.0353846,0.315384615 L25.9246154,0.315384615 C24.6630769,0.315384615 23.6538462,1.19846154 23.6538462,2.46 C23.4646154,3.78461538 22.0138462,5.04615385 20.2476923,5.04615385 C18.4815385,5.04615385 17.0938462,3.78461538 16.9046154,2.39692308 L16.9046154,2.08153846 C16.5261538,1.00923077 15.6430769,0.315384615 14.6338462,0.315384615 L2.46,0.315384615 C1.07230769,0.315384615 0,1.32461538 0,2.77538462 L0.504615385,10.3446154 C0.504615385,11.6061538 1.57692308,12.6153846 2.77538462,12.6153846 L5.04615385,12.6153846 L6.11846154,31.4753846 C6.11846154,32.7369231 7.19076923,33.7461538 8.57846154,33.7461538 L31.2861538,33.7461538 C32.6738462,33.7461538 33.7461538,32.6738462 33.7461538,31.6015385 L35.0076923,12.5523077 L37.4676923,12.5523077 C38.7292308,12.5523077 39.7384615,11.48 39.7384615,10.4076923 L40.3692308,2.58615385 C40.4953846,1.32461538 39.4861538,0.315384615 38.0353846,0.315384615 Z M36.4584615,9.08307692 L33.9984615,9.08307692 C32.7369231,9.08307692 31.5384615,10.1553846 31.5384615,11.2276923 L30.4661538,30.2769231 L9.84,30.2769231 L8.57846154,11.4169231 C8.57846154,10.1553846 7.50615385,9.14615385 6.30769231,9.14615385 L4.03692308,9.14615385 L3.72153846,3.78461538 L13.7507692,3.78461538 C14.6338462,6.62307692 17.2830769,8.51538462 20.4369231,8.51538462 C23.5907692,8.51538462 26.24,6.62307692 27.1230769,3.78461538 L36.9630769,3.78461538 L36.4584615,9.08307692 Z" id="Shape" fill="#505050" fill-rule="nonzero"></path>
            </g>
        </g>
    </g>
</svg>