<svg width="24" height="24" viewBox="0 0 24 24" fill="none" xmlns="http://www.w3.org/2000/svg">
<path fill-rule="evenodd" clip-rule="evenodd" d="M12.4856 3.12584C12.1836 2.95805 11.8164 2.95805 11.5144 3.12584L2.51436 8.12584C2.2017 8.29954 2.00599 8.62674 2.00014 8.98353L1.97046 9.00002L2.00014 9.01651C2.006 9.37328 2.20171 9.70046 2.51436 9.87416L4.6155 11.0415C3.98139 13.0353 3.83363 15.1566 4.19054 17.2269C4.26707 17.6708 4.63095 18.0088 5.0793 18.0523C5.7324 18.1158 6.375 18.2374 7 18.4141V20C7 20.5523 7.44772 21 8 21C8.55228 21 9 20.5523 9 20V19.1986C9.83835 19.6265 10.623 20.1634 11.3324 20.7995C11.7123 21.1402 12.2877 21.1402 12.6676 20.7995C14.4061 19.2405 16.5974 18.2779 18.9216 18.0523C19.37 18.0088 19.734 17.6708 19.8105 17.2268C20.1672 15.1564 20.0193 13.035 19.3853 11.041L21.4856 9.87416C21.7983 9.70047 21.994 9.3733 21.9999 9.01653L22.0296 9.00002L21.9999 8.98351C21.994 8.62673 21.7983 8.29954 21.4856 8.12584L12.4856 3.12584ZM6.06108 16.1628C5.9154 14.7766 6.03279 13.3765 6.40569 12.036L7.00836 12.3708C7.00283 12.4133 7 12.4565 7 12.5V16.3484C6.69004 16.2751 6.37687 16.2132 6.06108 16.1628ZM9 16.9965V13.4773L11.5144 14.8742C11.8164 15.0419 12.1836 15.0419 12.4856 14.8742L17.5951 12.0357C17.968 13.3763 18.0854 14.7764 17.9398 16.1627C15.7723 16.5084 13.7282 17.3993 12 18.7511C11.0799 18.0314 10.0702 17.4423 9 16.9965ZM18.9409 9L12 12.856L10.7093 12.1389L12.4856 11.1522C12.9684 10.884 13.1424 10.2752 12.8742 9.79239C12.606 9.3096 11.9972 9.13563 11.5144 9.40382L8.65024 10.9949L6.32668 9.70386L6.30538 9.69236L5.05913 9L12 5.14396L18.9409 9Z" fill="currentColor"/>
</svg>
