<svg width="96" height="80" viewBox="0 0 96 80" fill="none" xmlns="http://www.w3.org/2000/svg">
<rect width="96" height="80" rx="40" fill="#F5F5F5"/>
<g clip-path="url(#clip0_4121_15964)">
<path d="M26.647 53.6566C27.0535 53.6566 27.383 53.3271 27.383 52.9206C27.383 52.5141 27.0535 52.1846 26.647 52.1846C26.2405 52.1846 25.911 52.5141 25.911 52.9206C25.911 53.3271 26.2405 53.6566 26.647 53.6566Z" fill="#072B55"/>
<path d="M68.6163 16.8421H67.1434C66.3297 16.8421 65.6705 17.5013 65.6705 18.315H30.3288C30.3288 17.5013 29.6696 16.8421 28.8559 16.8421H27.383C26.5702 16.8421 25.911 17.5013 25.911 18.315V49.9757C25.911 50.3821 26.2406 50.7117 26.647 50.7117C27.0534 50.7117 27.383 50.3821 27.383 49.9757V18.315H28.8559V44.0859C28.8559 45.3059 29.8448 46.2948 31.0648 46.2948H64.9345C66.1545 46.2948 67.1434 45.3059 67.1434 44.0859V18.315H68.6163V55.8664C68.6137 57.8984 66.9673 59.5456 64.9345 59.5482H31.0648C29.0328 59.5456 27.3856 57.8993 27.383 55.8664C27.383 55.46 27.0534 55.1304 26.647 55.1304C26.2406 55.1304 25.911 55.46 25.911 55.8664C25.9145 58.7112 28.22 61.0176 31.0648 61.0202H64.9345C67.7793 61.0168 70.0857 58.7112 70.0883 55.8664V18.315C70.0883 17.5013 69.4291 16.8421 68.6154 16.8421H68.6163ZM65.6713 19.787V21.2599H30.3288V19.787H65.6713ZM36.4956 36.3625C34.5413 35.5816 33.2634 33.6842 33.2746 31.5797C33.2746 29.8859 34.1021 28.2982 35.4904 27.3275L35.4835 29.9842C35.4499 31.5874 36.6812 32.9352 38.2818 33.0456C39.0894 33.0888 39.8798 32.7971 40.4656 32.2406C41.0515 31.6841 41.3837 30.9101 41.3829 30.1007V27.3249C42.7686 28.2974 43.5926 29.8841 43.5918 31.5762C43.6004 33.6833 42.3199 35.5816 40.363 36.3625C40.0851 36.4746 39.9031 36.7447 39.9031 37.0441L39.897 44.8227H36.9469L36.9564 37.0458C36.9564 36.7456 36.7743 36.4755 36.4965 36.3633L36.4956 36.3625ZM44.3183 34.6126C45.3002 32.7557 45.1276 30.2534 44.3304 28.5657C44.0232 27.916 43.3933 27.1834 43.3933 27.1834C42.9386 26.6588 42.4053 26.2092 41.8108 25.8503C41.4217 25.6216 40.9385 25.6199 40.5485 25.8468C40.1533 26.0738 39.9091 26.4949 39.9082 26.9513V30.1016C39.91 30.5071 39.7426 30.8954 39.4475 31.1732C39.155 31.4545 38.7589 31.5995 38.3542 31.5745C37.544 31.4925 36.934 30.7996 36.9564 29.986L36.9642 26.9565C36.9642 26.4957 36.7157 26.0712 36.3144 25.8451C35.921 25.6191 35.4361 25.6242 35.0478 25.8598C33.0356 27.0626 31.8026 29.2344 31.8026 31.5788C31.7896 34.1009 33.2202 36.4082 35.4844 37.5204L35.4749 44.8219H31.0666C30.6602 44.8219 30.3306 44.4923 30.3306 44.0859V22.7328H65.6731V44.0859C65.6731 44.4923 65.3435 44.8219 64.937 44.8219H58.3103V34.5134C59.5304 34.5134 60.5192 33.5245 60.5192 32.3044V30.2034C61.0024 30.3665 61.427 30.6676 61.7402 31.0706C62.1103 31.5218 62.7247 31.6892 63.2726 31.4891C63.8326 31.2923 64.2053 30.7617 64.201 30.1689V28.6227C64.201 26.9962 62.8826 25.6777 61.2561 25.6777H52.4205C51.8752 25.6795 51.3505 25.884 50.9476 26.2524C50.5455 25.8848 50.02 25.6803 49.4747 25.6777H48.7387C48.114 25.6795 47.2011 25.9392 46.8559 26.5432C46.5108 27.1472 46.5108 27.7512 46.5108 27.7512L46.5298 32.3044C46.5298 33.5245 47.5186 34.5134 48.7387 34.5134C48.7387 34.5134 49.7034 34.5677 50.1348 34.3951C50.3919 34.2925 50.7336 34.1302 50.9476 33.9361C51.3497 34.3045 51.8743 34.5108 52.4205 34.5134V44.8219L41.0748 44.8365L41.2474 37.416C41.2474 37.416 43.5383 36.0941 44.3209 34.6134L44.3183 34.6126ZM48.7361 41.8761L57.5717 33.0405H52.4179C52.0115 33.0405 51.6819 32.7109 51.6819 32.3044V27.8866C51.6819 27.4802 52.0115 27.1506 52.4179 27.1506H61.2535C62.0672 27.1506 62.7264 27.8098 62.7264 28.6235V29.9635C61.9861 29.1102 60.911 28.6209 59.7815 28.6235C59.3751 28.6235 59.0455 28.9531 59.0455 29.3595V32.3044C59.0455 32.7109 58.7159 33.0405 58.3095 33.0405H57.5735L48.7361 41.8761ZM50.209 32.3044C50.209 32.7109 49.8794 33.0405 49.473 33.0405H48.737C48.3306 33.0405 48.0009 32.7109 48.0009 32.3044V27.8866C48.0009 27.4802 48.3306 27.1506 48.737 27.1506H49.473C49.8794 27.1506 50.209 27.4802 50.209 27.8866V32.3044ZM53.8908 44.8219V34.5134H56.8357V44.8219H53.8908Z" fill="#072B55"/>
<path d="M43.2825 48.6368C42.9888 48.3432 42.5128 48.3432 42.2191 48.6368L38.4588 52.397C38.1653 52.6907 38.1653 53.1668 38.4588 53.4604L42.2191 57.2207C42.5142 57.5057 42.9833 57.5016 43.2733 57.2115C43.5634 56.9214 43.5675 56.4524 43.2825 56.1573L40.0539 52.9287L43.2825 49.7002C43.5761 49.4065 43.5761 48.9304 43.2825 48.6368Z" fill="#072B55"/>
<path d="M51.2437 57.2207C51.5374 57.5143 52.0135 57.5143 52.3071 57.2207L56.0674 53.4604C56.361 53.1668 56.361 52.6907 56.0674 52.397L52.3071 48.6368C52.0121 48.3518 51.543 48.3558 51.2529 48.6459C50.9628 48.936 50.9587 49.4051 51.2437 49.7002L54.4723 52.9287L51.2437 56.1573C50.9502 56.451 50.9502 56.927 51.2437 57.2207Z" fill="#072B55"/>
<path d="M45.759 57.441C46.0668 57.4412 46.3435 57.2538 46.4577 56.968L49.4659 49.4475C49.5656 49.1979 49.5245 48.914 49.3582 48.7029C49.1919 48.4918 48.9255 48.3854 48.6595 48.4239C48.3935 48.4624 48.1683 48.6398 48.0686 48.8894L45.0604 56.41C44.9678 56.6417 44.9962 56.9043 45.1362 57.1109C45.2761 57.3174 45.5095 57.4411 45.759 57.441Z" fill="#072B55"/>
</g>
<defs>
<clipPath id="clip0_4121_15964">
<rect width="44.1781" height="46.3158" fill="white" transform="translate(25.911 16.8421)"/>
</clipPath>
</defs>
</svg>
