<svg width="71" height="22" viewBox="0 0 71 22" fill="none" xmlns="http://www.w3.org/2000/svg">
    <rect x="1" y="0.5" width="69" height="21" rx="1.5" fill="#DB4CB2" fill-opacity="0.1"/>
    <path d="M12.835 12.245H10.11L9.56 14H8.705L10.945 7.115H12.055L14.295 14H13.385L12.835 12.245ZM10.335 11.525H12.61L11.48 7.845L10.335 11.525ZM19.1361 9.24C19.1361 8.88333 19.0661 8.60167 18.9261 8.395C18.7861 8.185 18.5944 8.035 18.3511 7.945C18.1078 7.85167 17.8294 7.805 17.5161 7.805H16.5211V10.745H17.4811C17.8044 10.745 18.0894 10.7017 18.3361 10.615C18.5828 10.525 18.7778 10.3717 18.9211 10.155C19.0644 9.935 19.1361 9.63 19.1361 9.24ZM20.0661 9.23C20.0661 9.76667 19.9511 10.1967 19.7211 10.52C19.4944 10.8433 19.1811 11.0783 18.7811 11.225C18.3811 11.3717 17.9211 11.445 17.4011 11.445H16.5211V14H15.6511V7.115H17.4111C18.2311 7.115 18.8778 7.28833 19.3511 7.635C19.8278 7.97833 20.0661 8.51 20.0661 9.23ZM25.4622 7.115V7.81H23.9322V13.305H25.4622V14H21.5222V13.305H23.0522V7.81H21.5222V7.115H25.4622ZM37.8594 9.045C37.8594 9.38833 37.7844 9.68833 37.6344 9.945C37.4877 10.2017 37.2877 10.4133 37.0344 10.58C36.781 10.7467 36.496 10.8683 36.1794 10.945L38.2194 14H37.1794L35.2994 11.045H34.3694V14H33.4994V7.115H35.2694C36.1194 7.115 36.7627 7.27833 37.1994 7.605C37.6394 7.92833 37.8594 8.40833 37.8594 9.045ZM36.9294 9.045C36.9294 8.60167 36.8027 8.285 36.5494 8.095C36.296 7.90167 35.9027 7.805 35.3694 7.805H34.3694V10.365H35.3694C35.8627 10.365 36.246 10.265 36.5194 10.065C36.7927 9.86167 36.9294 9.52167 36.9294 9.045ZM42.1505 8.735V13.335H43.6355V14H39.6855V13.335H41.3105V9.4H39.7355V8.735H42.1505ZM41.4805 6.27C41.6671 6.27 41.8155 6.32667 41.9255 6.44C42.0388 6.55333 42.0955 6.69167 42.0955 6.855C42.0955 7.025 42.0388 7.16833 41.9255 7.285C41.8155 7.39833 41.6671 7.455 41.4805 7.455C41.3038 7.455 41.1588 7.39833 41.0455 7.285C40.9321 7.16833 40.8755 7.025 40.8755 6.855C40.8755 6.69167 40.9321 6.55333 41.0455 6.44C41.1588 6.32667 41.3038 6.27 41.4805 6.27ZM49.8716 8.735L47.9566 14H46.9816L45.0816 8.735H45.9716L47.4966 13.235L49.0016 8.735H49.8716ZM52.1377 11.665C52.1543 12.0717 52.2327 12.405 52.3727 12.665C52.5127 12.9217 52.6977 13.1117 52.9277 13.235C53.1577 13.355 53.4077 13.415 53.6777 13.415C53.9477 13.415 54.191 13.375 54.4077 13.295C54.6277 13.215 54.8527 13.0967 55.0827 12.94L55.4777 13.495C55.231 13.6883 54.9493 13.84 54.6327 13.95C54.3193 14.06 53.9977 14.115 53.6677 14.115C53.1577 14.115 52.7227 14 52.3627 13.77C52.0027 13.54 51.7277 13.22 51.5377 12.81C51.351 12.3967 51.2577 11.9183 51.2577 11.375C51.2577 10.8417 51.3527 10.3683 51.5427 9.955C51.7327 9.54167 51.9993 9.21667 52.3427 8.98C52.686 8.74333 53.091 8.625 53.5577 8.625C54.001 8.625 54.3827 8.73 54.7027 8.94C55.0227 9.14667 55.2677 9.44333 55.4377 9.83C55.611 10.2133 55.6977 10.6717 55.6977 11.205C55.6977 11.295 55.696 11.38 55.6927 11.46C55.6893 11.5367 55.6843 11.605 55.6777 11.665H52.1377ZM53.5677 9.315C53.1777 9.315 52.851 9.45333 52.5877 9.73C52.3277 10.0067 52.1793 10.435 52.1427 11.015H54.8877C54.8777 10.4517 54.7543 10.0283 54.5177 9.745C54.281 9.45833 53.9643 9.315 53.5677 9.315ZM57.5238 14V13.355H58.3438V9.38H57.5238V8.735H58.9838L59.1388 9.98C59.3421 9.54667 59.5888 9.21167 59.8788 8.975C60.1688 8.73833 60.5521 8.62 61.0288 8.62C61.1754 8.62 61.3054 8.63167 61.4188 8.655C61.5354 8.675 61.6538 8.70167 61.7738 8.735L61.5288 9.485C61.4188 9.455 61.3188 9.43333 61.2288 9.42C61.1388 9.40333 61.0354 9.395 60.9188 9.395C60.5154 9.395 60.1688 9.53833 59.8788 9.825C59.5888 10.1117 59.3571 10.545 59.1838 11.125V13.355H60.2538V14H57.5238ZM60.9638 10.515V9.37L61.0488 8.735H61.7738L61.6538 10.515H60.9638Z" fill="#DB4CB2"/>
    <rect x="1" y="0.5" width="69" height="21" rx="1.5" stroke="#DB4CB2"/>
</svg>