<svg width="50" height="50" viewBox="0 0 50 50" fill="none" xmlns="http://www.w3.org/2000/svg">
<g clip-path="url(#clip0_1645_21737)">
<ellipse cx="25.5873" cy="42.8864" rx="18.8666" ry="2.16572" fill="#BCB7DE"/>
<ellipse cx="25.001" cy="43.5146" rx="9.45218" ry="0.456006" fill="#9087C8"/>
<path d="M41.2115 11.0918V29.2484C41.2115 29.4203 41.1431 29.5853 41.0215 29.7069C40.8999 29.8285 40.735 29.8968 40.563 29.8968H9.43751C9.26553 29.8968 9.1006 29.8285 8.97899 29.7069C8.85738 29.5853 8.78906 29.4203 8.78906 29.2484V11.0918C8.78906 10.9198 8.85738 10.7549 8.97899 10.6333C9.1006 10.5117 9.26553 10.4434 9.43751 10.4434H19.8127V14.334H18.5158C18.1721 14.3351 17.8429 14.472 17.5999 14.715C17.3569 14.958 17.2199 15.2873 17.2189 15.6309V26.0061C17.2199 26.3498 17.3569 26.679 17.5999 26.922C17.8429 27.165 18.1721 27.302 18.5158 27.303H31.4847C31.8284 27.302 32.1577 27.165 32.4007 26.922C32.6436 26.679 32.7806 26.3498 32.7816 26.0061V15.6309C32.7806 15.2873 32.6436 14.958 32.4007 14.715C32.1577 14.472 31.8284 14.3351 31.4847 14.334H30.1878V10.4434H40.563C40.735 10.4434 40.8999 10.5117 41.0215 10.6333C41.1431 10.7549 41.2115 10.9198 41.2115 11.0918Z" fill="#EFEDF7"/>
<path d="M40.5625 10.4434H38.6172C38.7892 10.4434 38.9541 10.5117 39.0757 10.6333C39.1973 10.7549 39.2656 10.9198 39.2656 11.0918V29.2484C39.2656 29.4203 39.1973 29.5853 39.0757 29.7069C38.9541 29.8285 38.7892 29.8968 38.6172 29.8968H40.5625C40.7345 29.8968 40.8994 29.8285 41.0211 29.7069C41.1427 29.5853 41.211 29.4203 41.211 29.2484V11.0918C41.211 10.9198 41.1427 10.7549 41.0211 10.6333C40.8994 10.5117 40.7345 10.4434 40.5625 10.4434Z" fill="#BDB7DE"/>
<path d="M43.8053 9.14651V33.7875C43.8043 34.1312 43.6673 34.4604 43.4243 34.7034C43.1813 34.9464 42.852 35.0834 42.5084 35.0844H7.49221C7.14857 35.0834 6.81929 34.9464 6.5763 34.7034C6.33331 34.4604 6.19634 34.1312 6.19531 33.7875V9.14651C6.19634 8.80286 6.33331 8.47359 6.5763 8.2306C6.81929 7.9876 7.14857 7.85064 7.49221 7.84961H20.513C20.0516 8.6359 19.8097 9.53169 19.8127 10.4434H9.43755C9.26557 10.4434 9.10064 10.5117 8.97903 10.6333C8.85742 10.7549 8.7891 10.9199 8.7891 11.0918V29.2484C8.7891 29.4204 8.85742 29.5853 8.97903 29.7069C9.10064 29.8285 9.26557 29.8968 9.43755 29.8968H40.5631C40.735 29.8968 40.9 29.8285 41.0216 29.7069C41.1432 29.5853 41.2115 29.4204 41.2115 29.2484V11.0918C41.2115 10.9199 41.1432 10.7549 41.0216 10.6333C40.9 10.5117 40.735 10.4434 40.5631 10.4434H30.1879C30.1909 9.53169 29.949 8.6359 29.4876 7.84961H42.5084C42.852 7.85064 43.1813 7.9876 43.4243 8.2306C43.6673 8.47359 43.8043 8.80286 43.8053 9.14651Z" fill="#EFEDF7"/>
<path d="M42.5078 7.84961H40.5625C40.9061 7.85064 41.2354 7.9876 41.4784 8.2306C41.7214 8.47359 41.8584 8.80286 41.8594 9.14651V33.7875C41.8584 34.1312 41.7214 34.4604 41.4784 34.7034C41.2354 34.9464 40.9061 35.0834 40.5625 35.0844H42.5078C42.8515 35.0834 43.1808 34.9464 43.4238 34.7034C43.6667 34.4604 43.8037 34.1312 43.8047 33.7875V9.14651C43.8037 8.80286 43.6667 8.47359 43.4238 8.2306C43.1808 7.9876 42.8515 7.85064 42.5078 7.84961Z" fill="#BDB7DE"/>
<path d="M20.4609 35.084H29.5392V37.6778H20.4609V35.084Z" fill="#7A6FBD"/>
<path d="M27.5938 35.084H29.5391V37.6778H27.5938V35.084Z" fill="#7A6FBD"/>
<path d="M32.7815 40.2715V41.5684C32.7805 41.912 32.6435 42.2413 32.4005 42.4843C32.1575 42.7273 31.8283 42.8643 31.4846 42.8653H18.5156C18.172 42.8643 17.8427 42.7273 17.5997 42.4843C17.3567 42.2413 17.2198 41.912 17.2188 41.5684V40.2715H32.7815Z" fill="#EFEDF7"/>
<path d="M30.836 40.2715V41.5684C30.8349 41.912 30.698 42.2413 30.455 42.4843C30.212 42.7273 29.8827 42.8643 29.5391 42.8653H31.4844C31.828 42.8643 32.1573 42.7273 32.4003 42.4843C32.6433 42.2413 32.7803 41.912 32.7813 41.5684V40.2715H30.836Z" fill="#BDB7DE"/>
<path d="M32.7815 40.2715H17.2188L20.461 37.6777H29.5393L32.7815 40.2715Z" fill="#BDB7DE"/>
<path d="M29.5391 37.6777H27.5938L30.836 40.2715H32.7813L29.5391 37.6777Z" fill="#7A6FBD"/>
<path d="M31.4846 16.9278H32.7815V15.6309C32.7805 15.2872 32.6435 14.958 32.4005 14.715C32.1575 14.472 31.8283 14.335 31.4846 14.334H18.5156C18.172 14.335 17.8427 14.472 17.5997 14.715C17.3567 14.958 17.2198 15.2872 17.2188 15.6309V16.9278H18.5156C18.8593 16.9288 19.1886 17.0658 19.4316 17.3088C19.6746 17.5518 19.8115 17.881 19.8125 18.2247V23.4123C19.8115 23.7559 19.6746 24.0852 19.4316 24.3282C19.1886 24.5712 18.8593 24.7081 18.5156 24.7092H17.2188V26.0061C17.2198 26.3497 17.3567 26.679 17.5997 26.922C17.8427 27.165 18.172 27.3019 18.5156 27.3029H31.4846C31.8283 27.3019 32.1575 27.165 32.4005 26.922C32.6435 26.679 32.7805 26.3497 32.7815 26.0061V24.7092H31.4846C31.141 24.7081 30.8117 24.5712 30.5687 24.3282C30.3257 24.0852 30.1887 23.7559 30.1877 23.4123V18.2247C30.1887 17.881 30.3257 17.5518 30.5687 17.3088C30.8117 17.0658 31.141 16.9288 31.4846 16.9278ZM25.0001 21.4669C24.7436 21.4669 24.4929 21.3909 24.2796 21.2483C24.0663 21.1058 23.9001 20.9033 23.802 20.6663C23.7038 20.4293 23.6781 20.1686 23.7282 19.917C23.7782 19.6654 23.9017 19.4343 24.0831 19.253C24.2645 19.0716 24.4955 18.9481 24.7471 18.898C24.9987 18.848 25.2595 18.8737 25.4964 18.9718C25.7334 19.07 25.936 19.2362 26.0785 19.4495C26.221 19.6628 26.297 19.9135 26.297 20.17C26.296 20.5137 26.159 20.8429 25.916 21.0859C25.673 21.3289 25.3438 21.4659 25.0001 21.4669Z" fill="#EFEDF7"/>
<path d="M19.8125 18.2246V23.4122C19.8115 23.7559 19.6746 24.0851 19.4316 24.3281C19.1886 24.5711 18.8593 24.7081 18.5156 24.7091H17.2188V16.9277H18.5156C18.8593 16.9288 19.1886 17.0657 19.4316 17.3087C19.6746 17.5517 19.8115 17.881 19.8125 18.2246Z" fill="#FFCE1F"/>
<path d="M32.7813 16.9277V24.7091H31.4844C31.1408 24.7081 30.8115 24.5711 30.5685 24.3281C30.3255 24.0851 30.1885 23.7559 30.1875 23.4122V18.2246C30.1885 17.881 30.3255 17.5517 30.5685 17.3087C30.8115 17.0657 31.1408 16.9288 31.4844 16.9277H32.7813Z" fill="#FFCE1F"/>
<path d="M30.1877 10.4433V14.334H27.5939V10.4433C27.5939 9.7554 27.3206 9.09566 26.8342 8.60923C26.3478 8.1228 25.688 7.84952 25.0001 7.84952C24.3122 7.84952 23.6525 8.1228 23.166 8.60923C22.6796 9.09566 22.4063 9.7554 22.4063 10.4433V14.334H19.8125V10.4433C19.8095 9.53161 20.0514 8.63581 20.5129 7.84952C20.967 7.06109 21.6209 6.40625 22.4087 5.95092C23.1964 5.49559 24.0902 5.25586 25.0001 5.25586C25.91 5.25586 26.8038 5.49559 27.5916 5.95092C28.3793 6.40625 29.0332 7.06109 29.4874 7.84952C29.9489 8.63581 30.1907 9.53161 30.1877 10.4433Z" fill="#FFCE1F"/>
<path d="M22.4062 10.4434H27.5938V14.334H22.4062V10.4434Z" fill="#EFEDF7"/>
<path d="M27.5938 10.4434H22.4062C22.4062 9.75549 22.6795 9.09574 23.166 8.60931C23.6524 8.12288 24.3121 7.84961 25 7.84961C25.688 7.84961 26.3477 8.12288 26.8341 8.60931C27.3206 9.09574 27.5938 9.75549 27.5938 10.4434Z" fill="#EFEDF7"/>
<path d="M25 21.4668C25.7163 21.4668 26.2969 20.8862 26.2969 20.1699C26.2969 19.4537 25.7163 18.873 25 18.873C24.2838 18.873 23.7031 19.4537 23.7031 20.1699C23.7031 20.8862 24.2838 21.4668 25 21.4668Z" fill="#6254B8"/>
<path d="M8.14066 33.7875V9.14651C8.14168 8.80286 8.27865 8.47359 8.52164 8.2306C8.76464 7.9876 9.09391 7.85064 9.43755 7.84961H7.49221C7.14857 7.85064 6.81929 7.9876 6.5763 8.2306C6.33331 8.47359 6.19634 8.80286 6.19531 9.14651V33.7875C6.19634 34.1312 6.33331 34.4604 6.5763 34.7034C6.81929 34.9464 7.14857 35.0834 7.49221 35.0844H9.43755C9.09391 35.0834 8.76464 34.9464 8.52164 34.7034C8.27865 34.4604 8.14168 34.1312 8.14066 33.7875Z" fill="#F9FAFB"/>
<path d="M5.54688 28.5996H6.84377V33.7872H5.54688V28.5996Z" fill="#F9FAFB"/>
<path d="M6.19532 31.8418C6.55345 31.8418 6.84377 31.5515 6.84377 31.1934C6.84377 30.8352 6.55345 30.5449 6.19532 30.5449C5.8372 30.5449 5.54688 30.8352 5.54688 31.1934C5.54688 31.5515 5.8372 31.8418 6.19532 31.8418Z" fill="#6254B8"/>
<path d="M42.5084 7.20125H29.8494C29.317 6.4033 28.5958 5.74908 27.7499 5.29662C26.9041 4.84415 25.9596 4.60742 25.0003 4.60742C24.041 4.60742 23.0966 4.84415 22.2507 5.29662C21.4048 5.74908 20.6837 6.4033 20.1512 7.20125H7.49222C6.97628 7.20125 6.48148 7.4062 6.11665 7.77102C5.75183 8.13585 5.54688 8.63065 5.54688 9.14659V28.6C5.54688 28.772 5.61519 28.9369 5.7368 29.0586C5.85841 29.1802 6.02334 29.2485 6.19532 29.2485C6.3673 29.2485 6.53224 29.1802 6.65385 29.0586C6.77545 28.9369 6.84377 28.772 6.84377 28.6V9.14659C6.84377 8.97461 6.91209 8.80968 7.0337 8.68807C7.1553 8.56646 7.32024 8.49814 7.49222 8.49814H19.5047C19.3541 8.91728 19.2527 9.3525 19.2025 9.79504H9.43756C9.09361 9.79504 8.76373 9.93167 8.52052 10.1749C8.2773 10.4181 8.14067 10.748 8.14067 11.0919V29.2485C8.14067 29.5924 8.2773 29.9223 8.52052 30.1655C8.76373 30.4087 9.09361 30.5454 9.43756 30.5454H40.5631C40.907 30.5454 41.2369 30.4087 41.4801 30.1655C41.7233 29.9223 41.86 29.5924 41.86 29.2485V11.0919C41.86 10.748 41.7233 10.4181 41.4801 10.1749C41.2369 9.93167 40.907 9.79504 40.5631 9.79504H30.7981C30.7479 9.3525 30.6465 8.91728 30.4959 8.49814H42.5084C42.6804 8.49814 42.8453 8.56646 42.9669 8.68807C43.0885 8.80968 43.1569 8.97461 43.1569 9.14659V33.7876C43.1569 33.9596 43.0885 34.1245 42.9669 34.2461C42.8453 34.3677 42.6804 34.4361 42.5084 34.4361H7.49222C7.32024 34.4361 7.1553 34.3677 7.0337 34.2461C6.91209 34.1245 6.84377 33.9596 6.84377 33.7876C6.84377 33.6156 6.77545 33.4507 6.65385 33.3291C6.53224 33.2075 6.3673 33.1392 6.19532 33.1392C6.02334 33.1392 5.85841 33.2075 5.7368 33.3291C5.61519 33.4507 5.54688 33.6156 5.54688 33.7876C5.54688 34.3036 5.75183 34.7984 6.11665 35.1632C6.48148 35.528 6.97628 35.733 7.49222 35.733H19.8127V37.3664L16.8137 39.7657C16.7377 39.8264 16.6765 39.9035 16.6344 39.9912C16.5923 40.0788 16.5705 40.1748 16.5705 40.2721V41.569C16.5705 42.0849 16.7754 42.5797 17.1403 42.9446C17.5051 43.3094 17.9999 43.5143 18.5158 43.5143H31.4848C32.0007 43.5143 32.4955 43.3094 32.8604 42.9446C33.2252 42.5797 33.4301 42.0849 33.4301 41.569V40.2721C33.4302 40.1748 33.4083 40.0788 33.3662 39.9912C33.3242 39.9035 33.2629 39.8264 33.187 39.7657L30.1879 37.3664V35.733H42.5084C43.0244 35.733 43.5192 35.528 43.884 35.1632C44.2488 34.7984 44.4538 34.3036 44.4538 33.7876V9.14659C44.4538 8.63065 44.2488 8.13585 43.884 7.77102C43.5192 7.4062 43.0244 7.20125 42.5084 7.20125ZM25.0003 5.90435C26.2037 5.90572 27.3575 6.38439 28.2085 7.23535C29.0594 8.0863 29.5381 9.24005 29.5395 10.4435V13.6857H28.2426V10.4435C28.2426 9.58359 27.901 8.75891 27.2929 8.15088C26.6849 7.54284 25.8602 7.20125 25.0003 7.20125C24.1404 7.20125 23.3157 7.54284 22.7077 8.15088C22.0997 8.75891 21.7581 9.58359 21.7581 10.4435V13.6857H20.4612V10.4435C20.4626 9.24005 20.9412 8.0863 21.7922 7.23535C22.6431 6.38439 23.7969 5.90572 25.0003 5.90435ZM32.1332 24.0609H31.4848C31.3128 24.0609 31.1479 23.9926 31.0263 23.871C30.9047 23.7494 30.8363 23.5844 30.8363 23.4124V18.2249C30.8363 18.0529 30.9047 17.8879 31.0263 17.7663C31.1479 17.6447 31.3128 17.5764 31.4848 17.5764H32.1332V24.0609ZM32.1332 16.2795H31.4848C30.9689 16.2795 30.4741 16.4845 30.1092 16.8493C29.7444 17.2141 29.5395 17.7089 29.5395 18.2249V23.4124C29.5395 23.9284 29.7444 24.4232 30.1092 24.788C30.4741 25.1528 30.9689 25.3578 31.4848 25.3578H32.1332V26.0062C32.1332 26.1782 32.0649 26.3432 31.9433 26.4648C31.8217 26.5864 31.6568 26.6547 31.4848 26.6547H18.5158C18.3439 26.6547 18.1789 26.5864 18.0573 26.4648C17.9357 26.3432 17.8674 26.1782 17.8674 26.0062V25.3578H18.5158C19.0318 25.3578 19.5266 25.1528 19.8914 24.788C20.2562 24.4232 20.4612 23.9284 20.4612 23.4124V18.2249C20.4612 17.7089 20.2562 17.2141 19.8914 16.8493C19.5266 16.4845 19.0318 16.2795 18.5158 16.2795H17.8674V15.6311C17.8674 15.4591 17.9357 15.2942 18.0573 15.1725C18.1789 15.0509 18.3439 14.9826 18.5158 14.9826H31.4848C31.6568 14.9826 31.8217 15.0509 31.9433 15.1725C32.0649 15.2942 32.1332 15.4591 32.1332 15.6311V16.2795ZM17.8674 17.5764H18.5158C18.6878 17.5764 18.8528 17.6447 18.9744 17.7663C19.096 17.8879 19.1643 18.0529 19.1643 18.2249V23.4124C19.1643 23.5844 19.096 23.7494 18.9744 23.871C18.8528 23.9926 18.6878 24.0609 18.5158 24.0609H17.8674V17.5764ZM23.055 11.0919H26.9457V13.6857H23.055V11.0919ZM23.1743 9.79504C23.3063 9.41599 23.5531 9.08743 23.8803 8.85494C24.2075 8.62244 24.5989 8.49753 25.0003 8.49753C25.4017 8.49753 25.7931 8.62244 26.1204 8.85494C26.4476 9.08743 26.6943 9.41599 26.8263 9.79504H23.1743ZM40.5631 29.2485H9.43756V11.0919H19.1643V13.6857H18.5158C17.9999 13.6857 17.5051 13.8907 17.1403 14.2555C16.7754 14.6203 16.5705 15.1151 16.5705 15.6311V26.0062C16.5705 26.5222 16.7754 27.017 17.1403 27.3818C17.5051 27.7466 17.9999 27.9516 18.5158 27.9516H31.4848C32.0007 27.9516 32.4955 27.7466 32.8604 27.3818C33.2252 27.017 33.4301 26.5222 33.4301 26.0062V15.6311C33.4301 15.1151 33.2252 14.6203 32.8604 14.2555C32.4955 13.8907 32.0007 13.6857 31.4848 13.6857H30.8363V11.0919H40.5631V29.2485ZM30.933 39.6236H19.0664L20.6875 38.3268H29.3118L30.933 39.6236ZM31.4848 42.2174H18.5158C18.3439 42.2174 18.1789 42.1491 18.0573 42.0275C17.9357 41.9059 17.8674 41.741 17.8674 41.569V40.9205H32.1332V41.569C32.1332 41.741 32.0649 41.9059 31.9433 42.0275C31.8217 42.1491 31.6568 42.2174 31.4848 42.2174ZM28.891 37.0299H21.1096V35.733H28.891V37.0299Z" fill="#6254B8"/>
<path d="M26.2969 33.1387C26.4689 33.1387 26.6338 33.0704 26.7555 32.9488C26.8771 32.8272 26.9454 32.6622 26.9454 32.4902C26.9454 32.3183 26.8771 32.1533 26.7555 32.0317C26.6338 31.9101 26.4689 31.8418 26.2969 31.8418H23.7031C23.5312 31.8418 23.3662 31.9101 23.2446 32.0317C23.123 32.1533 23.0547 32.3183 23.0547 32.4902C23.0547 32.6622 23.123 32.8272 23.2446 32.9488C23.3662 33.0704 23.5312 33.1387 23.7031 33.1387H26.2969Z" fill="#6254B8"/>
<path d="M25.0011 18.2246C24.5428 18.2237 24.0989 18.3851 23.7482 18.6801C23.3974 18.9752 23.1624 19.3848 23.0847 19.8365C23.007 20.2883 23.0918 20.7529 23.3238 21.1481C23.5559 21.5434 23.9204 21.8437 24.3527 21.996V23.4122C24.3527 23.5842 24.421 23.7491 24.5426 23.8707C24.6642 23.9923 24.8291 24.0606 25.0011 24.0606C25.1731 24.0606 25.338 23.9923 25.4596 23.8707C25.5813 23.7491 25.6496 23.5842 25.6496 23.4122V21.996C26.0819 21.8437 26.4464 21.5434 26.6784 21.1481C26.9105 20.7529 26.9952 20.2883 26.9175 19.8365C26.8399 19.3848 26.6048 18.9752 26.2541 18.6801C25.9033 18.3851 25.4595 18.2237 25.0011 18.2246ZM25.0011 20.8184C24.8729 20.8184 24.7475 20.7804 24.6409 20.7091C24.5342 20.6379 24.4511 20.5366 24.402 20.4181C24.353 20.2996 24.3401 20.1692 24.3651 20.0435C24.3902 19.9177 24.4519 19.8021 24.5426 19.7114C24.6333 19.6207 24.7488 19.559 24.8746 19.534C25.0004 19.5089 25.1308 19.5218 25.2493 19.5709C25.3678 19.6199 25.469 19.7031 25.5403 19.8097C25.6115 19.9163 25.6496 20.0417 25.6496 20.17C25.6496 20.3419 25.5813 20.5069 25.4596 20.6285C25.338 20.7501 25.1731 20.8184 25.0011 20.8184Z" fill="#FFCE1F"/>
<path d="M28.1792 33.0127C28.5025 33.0127 28.7646 32.7506 28.7646 32.4272C28.7646 32.1039 28.5025 31.8418 28.1792 31.8418C27.8559 31.8418 27.5938 32.1039 27.5938 32.4272C27.5938 32.7506 27.8559 33.0127 28.1792 33.0127Z" fill="#FFCE1F"/>
<path d="M21.8218 33.0127C22.1451 33.0127 22.4072 32.7506 22.4072 32.4272C22.4072 32.1039 22.1451 31.8418 21.8218 31.8418C21.4984 31.8418 21.2363 32.1039 21.2363 32.4272C21.2363 32.7506 21.4984 33.0127 21.8218 33.0127Z" fill="#FFCE1F"/>
</g>
<defs>
<clipPath id="clip0_1645_21737">
<rect width="38.9069" height="40.7895" fill="white" transform="translate(5.54688 4.60742)"/>
</clipPath>
</defs>
</svg>
