<svg width="76" height="76" viewBox="0 0 76 76" fill="none" xmlns="http://www.w3.org/2000/svg">
<g clip-path="url(#clip0_86_1045)">
<ellipse cx="38" cy="65.7484" rx="29.3004" ry="2.90144" fill="#BCB7DE"/>
<ellipse cx="38" cy="66.2045" rx="24.89" ry="1.05142" fill="#9087C8"/>
<path d="M66.584 8.97183V59.2395C66.584 62.506 63.9366 65.1534 60.6701 65.1534H15.3299C12.0634 65.1534 9.41602 62.506 9.41602 59.2395V8.97183C9.41602 8.4278 9.85724 7.98657 10.4013 7.98657H12.3729C12.917 7.98657 13.3582 8.4278 13.3582 8.97183V43.4696C13.3617 44.5565 14.2418 45.4379 15.3299 45.4413H60.669C61.7559 45.4379 62.6372 44.5577 62.6406 43.4696V8.97183C62.6406 8.4278 63.0819 7.98657 63.6259 7.98657H65.5976C66.1416 7.98657 66.5828 8.4278 66.5828 8.97183H66.584Z" fill="#EFEDF7"/>
<path d="M65.5975 7.98535H63.6259C63.4503 7.98997 63.2805 8.04195 63.1327 8.13666C63.433 8.30761 63.6213 8.62525 63.6259 8.97061V59.2383C63.6259 62.5048 60.9785 65.1521 57.712 65.1521H60.669C63.9354 65.1521 66.5828 62.5048 66.5828 59.2383V8.97176C66.5828 8.42773 66.1416 7.98651 65.5975 7.98651V7.98535Z" fill="#BDB7DE"/>
<path d="M13.3594 9.95703H62.6418V13.8992H13.3594V9.95703Z" fill="#9087C8"/>
<path d="M33.0818 26.7227C33.0864 28.0648 32.7434 29.3862 32.0862 30.5563C31.2083 32.1352 29.8165 33.3653 28.144 34.0457L28.1336 45.4402H22.2197L22.2301 34.0457C19.4499 32.9137 17.5499 30.3068 17.3246 27.3129C17.0994 24.319 18.5871 21.4568 21.1663 19.9206C21.3881 19.7912 21.6618 19.7901 21.8836 19.9183C22.1054 20.0465 22.2417 20.2844 22.2405 20.5408L22.2301 24.5916C22.1966 26.2087 23.4268 27.5728 25.0392 27.7068C25.85 27.7507 26.6436 27.4573 27.2326 26.8982C27.8217 26.3392 28.1544 25.5618 28.1532 24.7498V20.5316C28.1532 20.2775 28.2872 20.043 28.5067 19.9148C28.7261 19.7866 28.9964 19.7854 29.2182 19.9102C30.4183 20.6263 31.407 21.6462 32.0862 22.8671C32.7434 24.0453 33.0864 25.3724 33.0818 26.7215V26.7227Z" fill="#FFCE1F"/>
<path d="M32.0861 22.8693C31.407 21.6484 30.4171 20.6285 29.2181 19.9123C28.9975 19.7864 28.7261 19.7887 28.5066 19.917C28.2872 20.0452 28.1532 20.2796 28.1532 20.5338V21.5121C28.5251 21.929 28.852 22.3841 29.1292 22.8704C30.4564 25.2614 30.4564 28.1675 29.1292 30.5584C28.2514 32.1374 26.8595 33.3675 25.187 34.0478L25.1766 45.4424H28.1336L28.144 34.0478C29.8176 33.3675 31.2083 32.1374 32.0861 30.5584C33.4133 28.1675 33.4133 25.2614 32.0861 22.8704V22.8693Z" fill="#BDB7DE"/>
<path d="M41.9421 21.7847V27.6985C41.9387 28.7854 41.0585 29.6667 39.9705 29.6702H38.9852C37.8983 29.6667 37.017 28.7866 37.0135 27.6985V21.7847C37.0135 20.6954 37.896 19.813 38.9852 19.813H39.9705C41.0574 19.8165 41.9387 20.6966 41.9421 21.7847Z" fill="#FFCE1F"/>
<path d="M58.6985 22.7699V24.8398C58.7019 25.2094 58.4732 25.5409 58.1279 25.6714C57.7825 25.8019 57.3921 25.7014 57.1507 25.4219C56.3433 24.372 55.0947 23.7563 53.7699 23.7563V27.6985C53.7664 28.7854 52.8863 29.6667 51.7982 29.6702H43.9127C42.8258 29.6667 41.9445 28.7866 41.941 27.6985V21.7847C41.9445 20.6978 42.8247 19.8165 43.9127 19.813H55.7404C56.5247 19.813 57.2766 20.1249 57.831 20.6793C58.3855 21.2337 58.6973 21.9856 58.6973 22.7699H58.6985Z" fill="#FFCE1F"/>
<path d="M52.0951 23.9526C51.7948 23.8579 51.4667 23.9134 51.2126 24.1005C50.9597 24.2876 50.8107 24.5856 50.813 24.9009V27.6985C50.8095 28.7854 49.9294 29.6667 48.8413 29.6701H51.7982C52.8851 29.6667 53.7664 28.7865 53.7699 27.6985V24.9702C53.2975 24.5059 52.7234 24.1582 52.0939 23.9526H52.0951Z" fill="#BDB7DE"/>
<path d="M55.7416 19.8129H52.7847C54.4179 19.8129 55.7416 21.1366 55.7416 22.7698V24.2391C56.2833 24.5382 56.7627 24.9402 57.1507 25.4218C57.3922 25.7025 57.7826 25.8018 58.1279 25.6713C58.4733 25.5408 58.702 25.2082 58.6985 24.8385V22.7687C58.6985 21.1355 57.3748 19.8118 55.7416 19.8118V19.8129Z" fill="#BDB7DE"/>
<path d="M44.899 29.6702H50.8129V45.44H44.899V29.6702Z" fill="#FFCE1F"/>
<path d="M47.856 29.6702H50.8129V45.44H47.856V29.6702Z" fill="#BDB7DE"/>
<path d="M15.3299 65.1531H18.2868C15.0203 65.1531 12.3729 62.5058 12.3729 59.2393V8.97158C12.3776 8.62622 12.5647 8.30859 12.8661 8.13764C12.7195 8.04293 12.5485 7.98979 12.3729 7.98633H10.4013C9.85724 7.98633 9.41602 8.42756 9.41602 8.97158V59.2393C9.41602 62.5058 12.0634 65.1531 15.3299 65.1531Z" fill="#F9FAFB"/>
<path d="M8.43079 51.3538H10.4025V59.2393H8.43079V51.3538Z" fill="#F9FAFB"/>
<path d="M9.41604 56.2813C9.96018 56.2813 10.4013 55.8402 10.4013 55.296C10.4013 54.7519 9.96018 54.3108 9.41604 54.3108C8.8719 54.3108 8.43079 54.7519 8.43079 55.296C8.43079 55.8402 8.8719 56.2813 9.41604 56.2813Z" fill="#6254B8"/>
<path d="M65.5976 7H63.6259C62.5367 7 61.6542 7.88246 61.6542 8.97167H14.3446C14.3446 7.88246 13.4622 7 12.373 7H10.4013C9.31324 7 8.43079 7.88246 8.43079 8.97167V51.3538C8.43079 51.8979 8.87201 52.3391 9.41604 52.3391C9.96007 52.3391 10.4013 51.8979 10.4013 51.3538V8.97167H12.373V43.4695C12.373 45.1027 13.6967 46.4264 15.3299 46.4264H60.669C62.3022 46.4264 63.6259 45.1027 63.6259 43.4695V8.97167H65.5976V59.2394C65.5941 61.9595 63.3903 64.1645 60.669 64.1679H15.3299C12.6098 64.1645 10.4048 61.9607 10.4013 59.2394C10.4013 58.6953 9.96007 58.2541 9.41604 58.2541C8.87201 58.2541 8.43079 58.6953 8.43079 59.2394C8.43541 63.0476 11.5217 66.135 15.3299 66.1385H60.669C64.4772 66.1338 67.5646 63.0476 67.5681 59.2394V8.97167C67.5681 7.88246 66.6856 7 65.5964 7H65.5976ZM61.6554 10.9422V12.9138H14.3446V10.9422H61.6554ZM22.5998 33.1307C19.9836 32.0853 18.273 29.5454 18.288 26.7282C18.288 24.4609 19.3957 22.3356 21.2541 21.0361L21.2449 24.5925C21.1998 26.7386 22.8481 28.5428 24.9907 28.6906C26.0718 28.7484 27.1299 28.358 27.9141 27.613C28.6984 26.868 29.1431 25.8319 29.142 24.7485V21.0327C30.997 22.3344 32.1 24.4586 32.0989 26.7236C32.1104 29.5442 30.3963 32.0853 27.7767 33.1307C27.4048 33.2808 27.161 33.6423 27.161 34.0431L27.153 44.4559H23.2039L23.2166 34.0455C23.2166 33.6435 22.9728 33.282 22.6009 33.1318L22.5998 33.1307ZM33.0714 30.7882C34.3859 28.3026 34.1549 24.9529 33.0876 22.6936C32.6764 21.8239 31.8332 20.8433 31.8332 20.8433C31.2245 20.141 30.5107 19.5392 29.7149 19.0587C29.1939 18.7526 28.5471 18.7503 28.025 19.0541C27.496 19.3579 27.1691 19.9215 27.168 20.5325V24.7496C27.1703 25.2925 26.9462 25.8123 26.5512 26.1842C26.1596 26.5607 25.6295 26.7548 25.0877 26.7213C24.0031 26.6116 23.1865 25.6841 23.2166 24.5948L23.227 20.5395C23.227 19.9227 22.8943 19.3544 22.3572 19.0518C21.8305 18.7491 21.1814 18.7561 20.6616 19.0714C17.968 20.6815 16.3175 23.5888 16.3175 26.7271C16.3001 30.1033 18.2152 33.1919 21.246 34.6807L21.2333 44.4547H15.3322C14.7882 44.4547 14.3469 44.0135 14.3469 43.4695V14.8855H61.6577V43.4695C61.6577 44.0135 61.2165 44.4547 60.6725 44.4547H51.8017V30.6554C53.4349 30.6554 54.7586 29.3317 54.7586 27.6985V24.8859C55.4054 25.1042 55.9737 25.5073 56.393 26.0467C56.8885 26.6508 57.7109 26.8749 58.4444 26.6069C59.194 26.3436 59.693 25.6332 59.6872 24.8397V22.7699C59.6872 20.5926 57.9223 18.8277 55.745 18.8277H43.9173C43.1873 18.83 42.4851 19.1037 41.9457 19.597C41.4074 19.1049 40.704 18.8312 39.974 18.8277H38.9887C38.1525 18.83 36.9304 19.1777 36.4684 19.9862C36.0064 20.7947 36.0064 21.6033 36.0064 21.6033L36.0318 27.6985C36.0318 29.3317 37.3555 30.6554 38.9887 30.6554C38.9887 30.6554 40.2801 30.7282 40.8576 30.4971C41.2018 30.3597 41.6592 30.1425 41.9457 29.8827C42.4839 30.3759 43.1862 30.6519 43.9173 30.6554V44.4547L28.7296 44.4744L28.9606 34.541C28.9606 34.541 32.0273 32.7714 33.0749 30.7894L33.0714 30.7882ZM38.9853 40.5114L50.813 28.6837H43.9139C43.3698 28.6837 42.9286 28.2425 42.9286 27.6985V21.7846C42.9286 21.2406 43.3698 20.7994 43.9139 20.7994H55.7416C56.8308 20.7994 57.7132 21.6818 57.7132 22.771V24.5648C56.7222 23.4225 55.283 22.7676 53.771 22.771C53.227 22.771 52.7858 23.2123 52.7858 23.7563V27.6985C52.7858 28.2425 52.3446 28.6837 51.8005 28.6837H50.8153L38.9853 40.5114ZM40.9569 27.6985C40.9569 28.2425 40.5157 28.6837 39.9717 28.6837H38.9864C38.4424 28.6837 38.0012 28.2425 38.0012 27.6985V21.7846C38.0012 21.2406 38.4424 20.7994 38.9864 20.7994H39.9717C40.5157 20.7994 40.9569 21.2406 40.9569 21.7846V27.6985ZM45.8855 44.4547V30.6554H49.8277V44.4547H45.8855Z" fill="#6254B8"/>
<path d="M31.685 49.5614C31.2919 49.1684 30.6546 49.1684 30.2615 49.5614L25.2279 54.5951C24.8349 54.9882 24.8349 55.6255 25.2279 56.0186L30.2615 61.0522C30.6565 61.4337 31.2844 61.4283 31.6727 61.04C32.0611 60.6516 32.0665 60.0237 31.685 59.6287L27.3631 55.3068L31.685 50.985C32.078 50.5918 32.078 49.9546 31.685 49.5614Z" fill="#6254B8"/>
<path d="M42.3422 61.0522C42.7353 61.4452 43.3726 61.4452 43.7657 61.0522L48.7993 56.0186C49.1924 55.6255 49.1924 54.9882 48.7993 54.5951L43.7657 49.5614C43.3707 49.1799 42.7428 49.1854 42.3545 49.5737C41.9661 49.962 41.9607 50.5899 42.3422 50.985L46.6641 55.3068L42.3422 59.6287C41.9492 60.0218 41.9492 60.6591 42.3422 61.0522Z" fill="#6254B8"/>
<path d="M35.0002 61.3472C35.4121 61.3473 35.7826 61.0965 35.9354 60.714L39.9623 50.6467C40.0957 50.3126 40.0408 49.9326 39.8181 49.65C39.5955 49.3674 39.239 49.225 38.8829 49.2765C38.5268 49.328 38.2252 49.5656 38.0918 49.8997L34.0649 59.967C33.941 60.2772 33.979 60.6286 34.1664 60.9052C34.3538 61.1817 34.6661 61.3473 35.0002 61.3472Z" fill="#6254B8"/>
</g>
<defs>
<clipPath id="clip0_86_1045">
<rect width="59.1385" height="62" fill="white" transform="translate(8.43079 7)"/>
</clipPath>
</defs>
</svg>
