<svg width="175" height="75" viewBox="0 0 175 75" fill="none" xmlns="http://www.w3.org/2000/svg">
<rect width="175" height="75" rx="37.5" fill="#F5F5F5"/>
<path d="M93.4274 29.4617L92.4506 29.0227L97.1152 19.3806L98.0811 19.8361L93.4274 29.4617ZM104.41 21.7623L104.739 22.783C104.508 22.8599 104.254 22.9111 103.976 22.9367C103.702 22.9623 103.394 22.9751 103.054 22.9751C103.402 23.1288 103.663 23.3263 103.839 23.5678C104.015 23.8056 104.102 24.0983 104.102 24.4458C104.102 24.8227 104.011 25.1593 103.828 25.4556C103.645 25.7519 103.383 25.9843 103.043 26.1525C102.703 26.3208 102.295 26.405 101.819 26.405C101.651 26.405 101.505 26.3977 101.38 26.383C101.26 26.3684 101.141 26.3446 101.024 26.3117C100.951 26.3629 100.888 26.4324 100.837 26.5202C100.79 26.6044 100.766 26.694 100.766 26.7891C100.766 26.9062 100.813 27.0086 100.908 27.0964C101.007 27.1806 101.201 27.2227 101.49 27.2227H102.5C102.913 27.2227 103.277 27.294 103.592 27.4367C103.91 27.5757 104.159 27.7678 104.338 28.0129C104.521 28.2544 104.613 28.5288 104.613 28.8361C104.613 29.4141 104.364 29.8623 103.866 30.1806C103.369 30.4989 102.652 30.658 101.715 30.658C101.053 30.658 100.533 30.5903 100.157 30.455C99.7798 30.3196 99.5146 30.1184 99.3609 29.8513C99.2073 29.5842 99.1304 29.2568 99.1304 28.869H100.233C100.233 29.0702 100.272 29.2367 100.349 29.3684C100.429 29.5001 100.577 29.5989 100.793 29.6647C101.009 29.7306 101.32 29.7635 101.726 29.7635C102.132 29.7635 102.454 29.7288 102.692 29.6592C102.933 29.5934 103.107 29.4964 103.213 29.3684C103.323 29.244 103.378 29.094 103.378 28.9184C103.378 28.6842 103.276 28.5032 103.071 28.3751C102.866 28.2471 102.591 28.183 102.247 28.183H101.254C100.705 28.183 100.303 28.0714 100.047 27.8483C99.7944 27.6251 99.6682 27.3653 99.6682 27.069C99.6682 26.8714 99.7231 26.6812 99.8329 26.4983C99.9463 26.3154 100.107 26.1562 100.316 26.0208C99.9682 25.8379 99.714 25.6166 99.553 25.3568C99.3957 25.0934 99.317 24.7751 99.317 24.4019C99.317 23.9922 99.4194 23.6337 99.6243 23.3263C99.8292 23.019 100.113 22.7794 100.475 22.6074C100.841 22.4355 101.262 22.3495 101.737 22.3495C102.202 22.3495 102.59 22.3257 102.901 22.2782C103.212 22.2269 103.482 22.1556 103.713 22.0641C103.947 21.9727 104.179 21.8721 104.41 21.7623ZM101.748 23.1946C101.357 23.1946 101.062 23.3062 100.865 23.5294C100.667 23.7489 100.568 24.0361 100.568 24.391C100.568 24.7568 100.669 25.0513 100.87 25.2745C101.075 25.494 101.373 25.6038 101.765 25.6038C102.127 25.6038 102.403 25.4977 102.593 25.2855C102.787 25.0733 102.884 24.7715 102.884 24.38C102.884 23.9849 102.789 23.6885 102.599 23.491C102.408 23.2934 102.125 23.1946 101.748 23.1946ZM107.133 25.7904C107.158 26.1855 107.243 26.5093 107.385 26.7617C107.528 27.0105 107.715 27.1934 107.945 27.3105C108.179 27.4275 108.435 27.4861 108.713 27.4861C108.999 27.4861 109.262 27.4422 109.504 27.3544C109.745 27.2666 109.988 27.1422 110.233 26.9812L110.766 27.7166C110.495 27.9361 110.179 28.1117 109.816 28.2434C109.454 28.3751 109.066 28.441 108.653 28.441C108.053 28.441 107.544 28.3129 107.127 28.0568C106.714 27.8007 106.399 27.444 106.183 26.9867C105.968 26.5294 105.86 26.0007 105.86 25.4007C105.86 24.819 105.966 24.2995 106.178 23.8422C106.39 23.3812 106.694 23.0172 107.089 22.7501C107.484 22.4794 107.956 22.344 108.505 22.344C109.021 22.344 109.463 22.4611 109.833 22.6952C110.206 22.9294 110.493 23.2623 110.694 23.694C110.899 24.1221 111.002 24.6379 111.002 25.2416C111.002 25.3404 110.998 25.4391 110.991 25.5379C110.987 25.633 110.982 25.7172 110.974 25.7904H107.133ZM108.516 23.255C108.132 23.255 107.813 23.3922 107.561 23.6666C107.312 23.941 107.168 24.369 107.127 24.9507H109.811C109.8 24.4056 109.683 23.9867 109.46 23.694C109.24 23.4013 108.926 23.255 108.516 23.255ZM117.533 27.9855C117.321 28.1208 117.067 28.2306 116.771 28.3147C116.474 28.3989 116.165 28.441 115.843 28.441C115.17 28.441 114.658 28.2672 114.307 27.9196C113.959 27.5684 113.785 27.1074 113.785 26.5367V23.3922H112.496V22.4977H113.785V21.2026L115.014 21.0544V22.4977H116.968L116.831 23.3922H115.014V26.5257C115.014 26.8367 115.091 27.069 115.245 27.2227C115.402 27.3727 115.658 27.4477 116.013 27.4477C116.225 27.4477 116.421 27.4221 116.6 27.3708C116.78 27.3196 116.943 27.2538 117.089 27.1733L117.533 27.9855Z" fill="#072B55"/>
<path d="M93.4274 54.7055L92.4506 54.2665L97.1152 44.6244L98.0811 45.0799L93.4274 54.7055ZM102.357 47.5879C102.869 47.5879 103.279 47.7141 103.587 47.9665C103.894 48.2153 104.117 48.5683 104.256 49.0257C104.395 49.4793 104.465 50.0135 104.465 50.6281C104.465 51.2171 104.38 51.7421 104.212 52.2031C104.044 52.6641 103.793 53.0263 103.46 53.2897C103.131 53.5531 102.721 53.6848 102.231 53.6848C101.624 53.6848 101.133 53.4708 100.76 53.0427V55.7647L99.531 55.9019V47.7415H100.601L100.678 48.4879C100.897 48.1879 101.152 47.9629 101.441 47.8129C101.733 47.6629 102.039 47.5879 102.357 47.5879ZM102.017 48.5372C101.743 48.5372 101.501 48.6196 101.293 48.7842C101.084 48.9488 100.907 49.1427 100.76 49.3659V52.0769C100.899 52.2854 101.064 52.4464 101.254 52.5598C101.448 52.6696 101.666 52.7244 101.907 52.7244C102.321 52.7244 102.635 52.558 102.851 52.225C103.067 51.8921 103.175 51.3616 103.175 50.6336C103.175 50.1397 103.131 49.7391 103.043 49.4318C102.959 49.1208 102.831 48.8939 102.659 48.7513C102.491 48.6086 102.277 48.5372 102.017 48.5372ZM108.433 47.5879C109.001 47.5879 109.478 47.7141 109.866 47.9665C110.254 48.219 110.546 48.572 110.744 49.0257C110.945 49.4793 111.046 50.0135 111.046 50.6281C111.046 51.2391 110.943 51.775 110.738 52.236C110.537 52.6933 110.241 53.05 109.849 53.3061C109.461 53.5586 108.988 53.6848 108.428 53.6848C107.868 53.6848 107.393 53.5622 107.001 53.3171C106.613 53.0683 106.317 52.7153 106.112 52.258C105.911 51.8006 105.81 51.261 105.81 50.6391C105.81 50.0354 105.911 49.5049 106.112 49.0476C106.317 48.5903 106.615 48.2336 107.007 47.9775C107.398 47.7177 107.874 47.5879 108.433 47.5879ZM108.433 48.5427C107.991 48.5427 107.658 48.7129 107.435 49.0531C107.211 49.3897 107.1 49.9183 107.1 50.6391C107.1 51.3561 107.21 51.8848 107.429 52.225C107.652 52.5653 107.985 52.7354 108.428 52.7354C108.871 52.7354 109.202 52.5653 109.421 52.225C109.644 51.8848 109.756 51.3525 109.756 50.6281C109.756 49.9147 109.646 49.3897 109.427 49.0531C109.207 48.7129 108.876 48.5427 108.433 48.5427ZM114.8 52.7409C115.185 52.7409 115.49 52.6732 115.717 52.5378C115.944 52.3988 116.057 52.2086 116.057 51.9671C116.057 51.8098 116.024 51.6763 115.958 51.5665C115.893 51.4531 115.761 51.3507 115.563 51.2592C115.366 51.1641 115.066 51.0653 114.663 50.9628C114.283 50.8641 113.948 50.747 113.659 50.6116C113.374 50.4763 113.152 50.3007 112.995 50.0848C112.838 49.8689 112.759 49.5909 112.759 49.2507C112.759 48.9177 112.852 48.6269 113.039 48.3781C113.225 48.1293 113.493 47.9354 113.84 47.7964C114.191 47.6574 114.603 47.5879 115.075 47.5879C115.561 47.5879 115.986 47.6519 116.348 47.7799C116.71 47.908 117.019 48.0671 117.275 48.2574L116.76 49.0311C116.533 48.8811 116.284 48.7586 116.013 48.6635C115.746 48.5683 115.444 48.5208 115.108 48.5208C114.716 48.5208 114.435 48.5793 114.263 48.6964C114.094 48.8135 114.01 48.9689 114.01 49.1629C114.01 49.3055 114.052 49.4263 114.136 49.525C114.224 49.6202 114.374 49.7098 114.586 49.7939C114.799 49.8744 115.099 49.9696 115.486 50.0793C115.863 50.1818 116.191 50.3025 116.469 50.4415C116.75 50.5805 116.968 50.7653 117.122 50.9958C117.279 51.2226 117.358 51.5189 117.358 51.8848C117.358 52.3019 117.237 52.6439 116.996 52.911C116.758 53.1744 116.443 53.3702 116.052 53.4982C115.664 53.6226 115.247 53.6848 114.8 53.6848C114.263 53.6848 113.798 53.608 113.407 53.4543C113.015 53.297 112.686 53.1013 112.419 52.8671L113.072 52.1208C113.299 52.3037 113.558 52.4537 113.851 52.5708C114.144 52.6842 114.46 52.7409 114.8 52.7409ZM124.114 53.2293C123.902 53.3647 123.648 53.4744 123.352 53.5586C123.055 53.6427 122.746 53.6848 122.424 53.6848C121.751 53.6848 121.239 53.511 120.888 53.1635C120.54 52.8122 120.366 52.3513 120.366 51.7805V48.636H119.077V47.7415H120.366V46.4464L121.596 46.2982V47.7415H123.549L123.412 48.636H121.596V51.7696C121.596 52.0805 121.672 52.3128 121.826 52.4665C121.983 52.6165 122.239 52.6915 122.594 52.6915C122.807 52.6915 123.002 52.6659 123.182 52.6147C123.361 52.5635 123.524 52.4976 123.67 52.4171L124.114 53.2293Z" fill="#072B55"/>
<path d="M65.8793 26.0622V29.1009C65.765 29.2473 65.5846 29.4063 65.3381 29.5778C65.0951 29.7493 64.7771 29.8976 64.3841 30.0226C63.9911 30.1441 63.5088 30.2048 62.9371 30.2048C62.4405 30.2048 61.9868 30.1227 61.5759 29.9583C61.165 29.7904 60.8113 29.5457 60.5148 29.2241C60.2183 28.9026 59.9896 28.5096 59.8288 28.0451C59.6681 27.5806 59.5877 27.0501 59.5877 26.4534V25.9389C59.5877 25.3423 59.6627 24.8117 59.8127 24.3473C59.9664 23.8828 60.1843 23.4898 60.4666 23.1682C60.7524 22.8467 61.0936 22.602 61.4902 22.434C61.8903 22.2661 62.3369 22.1822 62.83 22.1822C63.4909 22.1822 64.034 22.2911 64.4591 22.5091C64.8879 22.727 65.2166 23.0271 65.4452 23.4094C65.6739 23.7881 65.8168 24.224 65.874 24.717H64.4377C64.3984 24.4455 64.3198 24.2079 64.2019 24.0043C64.084 23.7971 63.9161 23.6363 63.6981 23.522C63.4838 23.4041 63.2051 23.3451 62.8621 23.3451C62.5727 23.3451 62.3173 23.4023 62.0958 23.5166C61.8742 23.6309 61.6885 23.7971 61.5384 24.015C61.3883 24.2329 61.274 24.5027 61.1954 24.8242C61.1204 25.1458 61.0829 25.5138 61.0829 25.9282V26.4534C61.0829 26.8714 61.1257 27.243 61.2115 27.5681C61.2972 27.8897 61.4205 28.1612 61.5813 28.3827C61.7456 28.6007 61.9475 28.7668 62.1869 28.8811C62.4298 28.9919 62.7049 29.0473 63.0122 29.0473C63.2908 29.0473 63.5213 29.024 63.7035 28.9776C63.8893 28.9276 64.0376 28.8686 64.1483 28.8007C64.2591 28.7329 64.3448 28.6668 64.4056 28.6024V27.1394H62.8568V26.0622H65.8793ZM72.5541 28.9401V30.0977H68.4061V28.9401H72.5541ZM68.8562 22.2947V30.0977H67.3825V22.2947H68.8562ZM72.0128 25.5156V26.6464H68.4061V25.5156H72.0128ZM72.538 22.2947V23.4576H68.4061V22.2947H72.538ZM77.1441 22.2947V30.0977H75.6757V22.2947H77.1441ZM79.5664 22.2947V23.4576H73.2801V22.2947H79.5664Z" fill="#072B55"/>
<path d="M59.5 51.3982H57.4903V50.2407H59.5C59.8287 50.2407 60.0948 50.1871 60.2985 50.0799C60.5057 49.9691 60.6575 49.8191 60.754 49.6297C60.8505 49.4368 60.8987 49.2171 60.8987 48.9705C60.8987 48.7312 60.8505 48.5079 60.754 48.3006C60.6575 48.0934 60.5057 47.9255 60.2985 47.7969C60.0948 47.6683 59.8287 47.6039 59.5 47.6039H57.9726V54.244H56.4988V46.441H59.5C60.1073 46.441 60.6254 46.55 61.0541 46.7679C61.4864 46.9823 61.8151 47.2806 62.0402 47.6629C62.2689 48.0416 62.3832 48.4739 62.3832 48.9598C62.3832 49.4636 62.2689 49.8977 62.0402 50.2621C61.8151 50.6265 61.4864 50.907 61.0541 51.1035C60.6254 51.3 60.1073 51.3982 59.5 51.3982ZM69.969 50.1442V50.5461C69.969 51.1356 69.8904 51.6662 69.7332 52.1378C69.576 52.6058 69.3527 53.0042 69.0633 53.3329C68.7739 53.6616 68.4291 53.9135 68.029 54.0885C67.6288 54.2636 67.184 54.3511 66.6945 54.3511C66.2122 54.3511 65.7692 54.2636 65.3655 54.0885C64.9653 53.9135 64.6188 53.6616 64.3258 53.3329C64.0328 53.0042 63.806 52.6058 63.6452 52.1378C63.4844 51.6662 63.404 51.1356 63.404 50.5461V50.1442C63.404 49.5511 63.4844 49.0206 63.6452 48.5525C63.806 48.0845 64.031 47.6861 64.3204 47.3574C64.6098 47.0252 64.9546 46.7715 65.3548 46.5964C65.7585 46.4214 66.2015 46.3338 66.6838 46.3338C67.1733 46.3338 67.6181 46.4214 68.0183 46.5964C68.4184 46.7715 68.7632 47.0252 69.0526 47.3574C69.3455 47.6861 69.5706 48.0845 69.7278 48.5525C69.8886 49.0206 69.969 49.5511 69.969 50.1442ZM68.4791 50.5461V50.1335C68.4791 49.7083 68.4398 49.335 68.3612 49.0134C68.2826 48.6883 68.1665 48.415 68.0129 48.1935C67.8593 47.9719 67.6699 47.8058 67.4448 47.6951C67.2197 47.5807 66.9661 47.5236 66.6838 47.5236C66.398 47.5236 66.1443 47.5807 65.9228 47.6951C65.7049 47.8058 65.5191 47.9719 65.3655 48.1935C65.2118 48.415 65.0939 48.6883 65.0118 49.0134C64.9332 49.335 64.8939 49.7083 64.8939 50.1335V50.5461C64.8939 50.9677 64.9332 51.3411 65.0118 51.6662C65.0939 51.9913 65.2118 52.2664 65.3655 52.4915C65.5227 52.713 65.712 52.8809 65.9335 52.9953C66.1551 53.1096 66.4087 53.1668 66.6945 53.1668C66.9804 53.1668 67.234 53.1096 67.4555 52.9953C67.6771 52.8809 67.8628 52.713 68.0129 52.4915C68.1665 52.2664 68.2826 51.9913 68.3612 51.6662C68.4398 51.3411 68.4791 50.9677 68.4791 50.5461ZM75.4111 52.2182C75.4111 52.0681 75.3879 51.9342 75.3415 51.8163C75.2986 51.6948 75.2182 51.5858 75.1003 51.4893C74.986 51.3893 74.8234 51.2928 74.6126 51.1999C74.4054 51.1035 74.1374 51.0034 73.8087 50.8998C73.4443 50.7855 73.1049 50.6569 72.7905 50.514C72.4761 50.3711 72.1992 50.2049 71.9598 50.0156C71.724 49.8262 71.54 49.6083 71.4078 49.3618C71.2756 49.1117 71.2095 48.8223 71.2095 48.4936C71.2095 48.172 71.2774 47.879 71.4132 47.6147C71.5525 47.3503 71.749 47.1234 72.0027 46.934C72.2564 46.7411 72.5547 46.5928 72.8977 46.4892C73.2442 46.3856 73.6265 46.3338 74.0445 46.3338C74.6233 46.3338 75.1235 46.4392 75.5451 46.65C75.9703 46.8608 76.299 47.1466 76.5312 47.5075C76.7634 47.8683 76.8795 48.2738 76.8795 48.724H75.4111C75.4111 48.4811 75.3593 48.2667 75.2557 48.0809C75.1557 47.8951 75.002 47.7486 74.7948 47.6415C74.5912 47.5343 74.3339 47.4807 74.0231 47.4807C73.723 47.4807 73.4729 47.5253 73.2728 47.6147C73.0763 47.704 72.928 47.8255 72.828 47.9791C72.7315 48.1327 72.6833 48.3042 72.6833 48.4936C72.6833 48.6365 72.7173 48.7651 72.7851 48.8794C72.853 48.9902 72.9548 49.0956 73.0906 49.1956C73.2264 49.2921 73.3943 49.3832 73.5944 49.4689C73.798 49.5511 74.0338 49.6333 74.3018 49.7155C74.7305 49.8441 75.1057 49.987 75.4272 50.1442C75.7523 50.3014 76.0221 50.48 76.2364 50.6801C76.4544 50.8802 76.6169 51.1053 76.7241 51.3554C76.8349 51.6055 76.8903 51.8895 76.8903 52.2075C76.8903 52.5433 76.8242 52.8434 76.692 53.1078C76.5598 53.3722 76.3704 53.5973 76.1239 53.7831C75.8774 53.9689 75.5808 54.11 75.2343 54.2064C74.8913 54.3029 74.5072 54.3511 74.0821 54.3511C73.7033 54.3511 73.3282 54.3011 72.9566 54.2011C72.5886 54.0975 72.2546 53.9438 71.9545 53.7402C71.6544 53.533 71.415 53.2722 71.2363 52.9578C71.0577 52.6398 70.9684 52.2682 70.9684 51.843H72.4475C72.4475 52.0896 72.4868 52.3004 72.5654 52.4754C72.6476 52.6469 72.7619 52.788 72.9084 52.8988C73.0585 53.006 73.2335 53.0846 73.4336 53.1346C73.6337 53.1846 73.8498 53.2096 74.0821 53.2096C74.3822 53.2096 74.6287 53.1686 74.8216 53.0864C75.0181 53.0006 75.1646 52.8827 75.2611 52.7327C75.3611 52.5826 75.4111 52.4111 75.4111 52.2182ZM81.4856 46.441V54.244H80.0172V46.441H81.4856ZM83.908 46.441V47.6039H77.6217V46.441H83.908Z" fill="#072B55"/>
<path fill-rule="evenodd" clip-rule="evenodd" d="M50.1001 43.7027C50.1001 41.1855 52.1392 39.1464 54.6564 39.1464H83.7418C86.259 39.1464 88.298 41.1855 88.298 43.7027V54.7835C88.298 57.3007 86.259 59.3398 83.7418 59.3398H64.5345C64.1467 59.3398 63.8324 59.0255 63.8324 58.6378C63.8324 58.25 64.1467 57.9357 64.5345 57.9357H83.7418C85.4835 57.9357 86.8939 56.5253 86.8939 54.7835V43.7027C86.8939 41.9609 85.4835 40.5505 83.7418 40.5505H54.6564C52.9147 40.5505 51.5042 41.9609 51.5042 43.7027V54.7835C51.5042 56.5253 52.9147 57.9357 54.6564 57.9357H60.3482C60.7359 57.9357 61.0503 58.25 61.0503 58.6378C61.0503 59.0255 60.7359 59.3398 60.3482 59.3398H54.6564C52.1392 59.3398 50.1001 57.3007 50.1001 54.7835V43.7027Z" fill="#072B55"/>
<path fill-rule="evenodd" clip-rule="evenodd" d="M50.1001 30.6372C50.1001 33.1544 52.1392 35.1935 54.6564 35.1935H83.7418C86.259 35.1935 88.298 33.1544 88.298 30.6372V19.5563C88.298 17.0391 86.259 15 83.7418 15H78.8027C78.415 15 78.1007 15.3143 78.1007 15.7021C78.1007 16.0898 78.415 16.4042 78.8027 16.4042H83.7418C85.4835 16.4042 86.8939 17.8146 86.8939 19.5563V30.6372C86.8939 32.3789 85.4835 33.7893 83.7418 33.7893H54.6564C52.9147 33.7893 51.5042 32.3789 51.5042 30.6372V19.5563C51.5042 17.8146 52.9147 16.4042 54.6564 16.4042H74.6164C75.0042 16.4042 75.3185 16.0898 75.3185 15.7021C75.3185 15.3143 75.0042 15 74.6164 15H54.6564C52.1392 15 50.1001 17.0391 50.1001 19.5563V30.6372Z" fill="#072B55"/>
</svg>
