<svg width="175" height="75" viewBox="0 0 175 75" fill="none" xmlns="http://www.w3.org/2000/svg">
<rect width="175" height="75" rx="37.5" fill="#F5F5F5"/>
<g clip-path="url(#clip0_4036_37874)">
<path d="M110.154 14.4944V54.3335C110.154 56.9223 108.056 59.0204 105.467 59.0204H69.5331C66.9443 59.0204 64.8462 56.9223 64.8462 54.3335V14.4944C64.8462 14.0632 65.1959 13.7135 65.627 13.7135H67.1897C67.6208 13.7135 67.9705 14.0632 67.9705 14.4944V41.8352C67.9733 42.6966 68.6708 43.3951 69.5331 43.3979H105.466C106.328 43.3951 107.026 42.6976 107.029 41.8352V14.4944C107.029 14.0632 107.378 13.7135 107.81 13.7135H109.372C109.803 13.7135 110.153 14.0632 110.153 14.4944H110.154Z" fill="white"/>
<path d="M109.372 13.7125H107.81C107.67 13.7161 107.536 13.7573 107.419 13.8324C107.657 13.9679 107.806 14.2196 107.81 14.4933V54.3324C107.81 56.9213 105.711 59.0194 103.123 59.0194H105.466C108.055 59.0194 110.153 56.9213 110.153 54.3324V14.4942C110.153 14.0631 109.803 13.7134 109.372 13.7134V13.7125Z" fill="white"/>
<path d="M67.9717 15.2751H107.03V18.3994H67.9717V15.2751Z" fill="white"/>
<path d="M83.6026 28.562C83.6063 29.6257 83.3344 30.673 82.8135 31.6003C82.1178 32.8517 81.0147 33.8266 79.6892 34.3658L79.6809 43.3964H74.994L75.0022 34.3658C72.7988 33.4686 71.2929 31.4025 71.1144 29.0298C70.9359 26.657 72.115 24.3886 74.1591 23.1711C74.3349 23.0685 74.5518 23.0676 74.7276 23.1692C74.9034 23.2709 75.0114 23.4594 75.0105 23.6627L75.0022 26.873C74.9757 28.1546 75.9506 29.2357 77.2285 29.3419C77.8711 29.3767 78.5 29.1442 78.9669 28.7011C79.4338 28.2581 79.6974 27.642 79.6965 26.9985V23.6553C79.6965 23.4539 79.8027 23.2681 79.9766 23.1665C80.1505 23.0649 80.3648 23.064 80.5405 23.1628C81.4916 23.7304 82.2752 24.5387 82.8135 25.5063C83.3344 26.44 83.6063 27.4919 83.6026 28.5611V28.562Z" fill="white"/>
<path d="M82.813 25.5087C82.2747 24.5411 81.4902 23.7328 80.54 23.1653C80.3651 23.0655 80.15 23.0673 79.9761 23.1689C79.8021 23.2705 79.696 23.4564 79.696 23.6578V24.4331C79.9907 24.7636 80.2498 25.1243 80.4695 25.5097C81.5213 27.4046 81.5213 29.7078 80.4695 31.6027C79.7738 32.8541 78.6707 33.829 77.3452 34.3682L77.3369 43.3988H79.6804L79.6886 34.3682C81.0151 33.829 82.1172 32.8541 82.813 31.6027C83.8648 29.7078 83.8648 27.4046 82.813 25.5097V25.5087Z" fill="white"/>
<path d="M90.6244 24.649V29.3359C90.6216 30.1974 89.9241 30.8958 89.0617 30.8986H88.2809C87.4195 30.8958 86.721 30.1983 86.7183 29.3359V24.649C86.7183 23.7857 87.4176 23.0864 88.2809 23.0864H89.0617C89.9232 23.0891 90.6216 23.7867 90.6244 24.649Z" fill="white"/>
<path d="M103.904 25.4298V27.0703C103.907 27.3632 103.726 27.6259 103.452 27.7294C103.179 27.8328 102.869 27.7532 102.678 27.5317C102.038 26.6995 101.048 26.2116 99.9984 26.2116V29.3359C99.9956 30.1974 99.2981 30.8958 98.4357 30.8986H92.1862C91.3247 30.8958 90.6263 30.1983 90.6235 29.3359V24.649C90.6263 23.7876 91.3238 23.0891 92.1862 23.0864H101.56C102.182 23.0864 102.778 23.3335 103.217 23.7729C103.656 24.2123 103.904 24.8083 103.904 25.4298H103.904Z" fill="white"/>
<path d="M98.671 26.3676C98.433 26.2926 98.173 26.3365 97.9716 26.4848C97.7712 26.6331 97.6531 26.8693 97.6549 27.1192V29.3364C97.6522 30.1978 96.9546 30.8962 96.0923 30.899H98.4358C99.2972 30.8962 99.9956 30.1987 99.9984 29.3364V27.1741C99.624 26.8061 99.169 26.5306 98.6701 26.3676H98.671Z" fill="white"/>
<path d="M101.561 23.0862H99.2178C100.512 23.0862 101.561 24.1353 101.561 25.4297V26.5941C101.991 26.8312 102.37 27.1498 102.678 27.5315C102.869 27.754 103.179 27.8327 103.453 27.7293C103.726 27.6258 103.907 27.3622 103.905 27.0692V25.4288C103.905 24.1344 102.856 23.0853 101.561 23.0853V23.0862Z" fill="white"/>
<path d="M92.9678 30.8987H97.6547V43.3969H92.9678V30.8987Z" fill="white"/>
<path d="M95.3115 30.8987H97.655V43.3969H95.3115V30.8987Z" fill="white"/>
<path d="M69.5331 59.0194H71.8766C69.2878 59.0194 67.1897 56.9213 67.1897 54.3324V14.4933C67.1933 14.2196 67.3416 13.9679 67.5806 13.8324C67.4643 13.7573 67.3288 13.7152 67.1897 13.7125H65.627C65.1959 13.7125 64.8462 14.0622 64.8462 14.4933V54.3324C64.8462 56.9213 66.9443 59.0194 69.5331 59.0194Z" fill="white"/>
<path d="M64.0654 48.0829H65.6281V54.3325H64.0654V48.0829Z" fill="white"/>
<path d="M64.8463 51.9886C65.2775 51.9886 65.6271 51.639 65.6271 51.2078C65.6271 50.7765 65.2775 50.4269 64.8463 50.4269C64.415 50.4269 64.0654 50.7765 64.0654 51.2078C64.0654 51.639 64.415 51.9886 64.8463 51.9886Z" fill="url(#paint0_linear_4036_37874)"/>
<path d="M109.372 12.9313H107.81C106.947 12.9313 106.247 13.6307 106.247 14.4939H68.7524C68.7524 13.6307 68.053 12.9313 67.1898 12.9313H65.6271C64.7648 12.9313 64.0654 13.6307 64.0654 14.4939V48.0834C64.0654 48.5146 64.4151 48.8643 64.8463 48.8643C65.2774 48.8643 65.6271 48.5146 65.6271 48.0834V14.4939H67.1898V41.8348C67.1898 43.1292 68.2388 44.1783 69.5332 44.1783H105.466C106.761 44.1783 107.81 43.1292 107.81 41.8348V14.4939H109.372V54.333C109.37 56.4888 107.623 58.2364 105.466 58.2391H69.5332C67.3774 58.2364 65.6299 56.4898 65.6271 54.333C65.6271 53.9019 65.2774 53.5522 64.8463 53.5522C64.4151 53.5522 64.0654 53.9019 64.0654 54.333C64.0691 57.3512 66.5151 59.7981 69.5332 59.8008H105.466C108.484 59.7972 110.931 57.3512 110.934 54.333V14.4939C110.934 13.6307 110.235 12.9313 109.371 12.9313H109.372ZM106.248 16.0556V17.6182H68.7524V16.0556H106.248ZM75.2949 33.6408C73.2215 32.8124 71.8657 30.7994 71.8776 28.5667C71.8776 26.7697 72.7555 25.0853 74.2284 24.0555L74.2211 26.8741C74.1854 28.5749 75.4917 30.0048 77.1898 30.122C78.0467 30.1677 78.8852 29.8583 79.5068 29.2679C80.1283 28.6774 80.4808 27.8563 80.4798 26.9976V24.0527C81.95 25.0844 82.8242 26.7679 82.8233 28.563C82.8325 30.7985 81.474 32.8124 79.3978 33.6408C79.1031 33.7599 78.9099 34.0464 78.9099 34.364L78.9035 42.6166H75.7737L75.7837 34.3659C75.7837 34.0473 75.5906 33.7608 75.2958 33.6418L75.2949 33.6408ZM83.5941 31.7844C84.6359 29.8144 84.4528 27.1597 83.6069 25.3691C83.281 24.6798 82.6128 23.9026 82.6128 23.9026C82.1304 23.346 81.5646 22.8691 80.9339 22.4883C80.521 22.2457 80.0084 22.2439 79.5946 22.4846C79.1754 22.7254 78.9163 23.1721 78.9154 23.6563V26.9986C78.9172 27.4288 78.7396 27.8407 78.4266 28.1355C78.1162 28.4339 77.6961 28.5877 77.2667 28.5612C76.4071 28.4742 75.7599 27.7391 75.7837 26.8759L75.792 23.6618C75.792 23.173 75.5283 22.7226 75.1027 22.4828C74.6852 22.2429 74.1708 22.2484 73.7588 22.4983C71.6241 23.7744 70.3159 26.0786 70.3159 28.5658C70.3022 31.2415 71.82 33.6894 74.222 34.8693L74.212 42.6156H69.5351C69.1039 42.6156 68.7542 42.2659 68.7542 41.8348V19.1809H106.25V41.8348C106.25 42.2659 105.9 42.6156 105.469 42.6156H98.4386V31.6791C99.733 31.6791 100.782 30.63 100.782 29.3356V27.1066C101.295 27.2796 101.745 27.5991 102.077 28.0266C102.47 28.5053 103.122 28.6829 103.703 28.4705C104.297 28.2618 104.693 27.6988 104.688 27.07V25.4295C104.688 23.704 103.289 22.3052 101.564 22.3052H92.1899C91.6114 22.307 91.0548 22.524 90.6273 22.9149C90.2007 22.5249 89.6432 22.3079 89.0647 22.3052H88.2838C87.621 22.307 86.6525 22.5826 86.2864 23.2234C85.9202 23.8641 85.9202 24.5049 85.9202 24.5049L85.9403 29.3356C85.9403 30.63 86.9894 31.6791 88.2838 31.6791C88.2838 31.6791 89.3073 31.7368 89.765 31.5537C90.0378 31.4448 90.4003 31.2727 90.6273 31.0667C91.0539 31.4576 91.6105 31.6764 92.1899 31.6791V42.6156L80.153 42.6312L80.3361 34.7586C80.3361 34.7586 82.7666 33.3562 83.5969 31.7853L83.5941 31.7844ZM88.2811 39.4904L97.655 30.1165H92.1872C91.756 30.1165 91.4063 29.7668 91.4063 29.3356V24.6487C91.4063 24.2175 91.756 23.8678 92.1872 23.8678H101.561C102.424 23.8678 103.124 24.5672 103.124 25.4304V26.8521C102.338 25.9467 101.198 25.4277 99.9994 25.4304C99.5682 25.4304 99.2185 25.7801 99.2185 26.2113V29.3356C99.2185 29.7668 98.8688 30.1165 98.4377 30.1165H97.6568L88.2811 39.4904ZM89.8437 29.3356C89.8437 29.7668 89.494 30.1165 89.0628 30.1165H88.282C87.8508 30.1165 87.5011 29.7668 87.5011 29.3356V24.6487C87.5011 24.2175 87.8508 23.8678 88.282 23.8678H89.0628C89.494 23.8678 89.8437 24.2175 89.8437 24.6487V29.3356ZM93.7498 42.6156V31.6791H96.8741V42.6156H93.7498Z" fill="url(#paint1_linear_4036_37874)"/>
<path d="M82.4947 46.6625C82.1831 46.3511 81.6781 46.3511 81.3665 46.6625L77.3772 50.6519C77.0657 50.9634 77.0657 51.4685 77.3772 51.7801L81.3665 55.7694C81.6796 56.0718 82.1772 56.0675 82.485 55.7597C82.7927 55.4519 82.7971 54.9543 82.4947 54.6412L79.0694 51.216L82.4947 47.7907C82.8062 47.4792 82.8062 46.9741 82.4947 46.6625Z" fill="url(#paint2_linear_4036_37874)"/>
<path d="M90.9409 55.7694C91.2525 56.0809 91.7576 56.0809 92.0691 55.7694L96.0585 51.7801C96.37 51.4685 96.37 50.9634 96.0585 50.6519L92.0691 46.6625C91.7561 46.3602 91.2584 46.3645 90.9507 46.6722C90.6429 46.98 90.6386 47.4777 90.9409 47.7907L94.3662 51.216L90.9409 54.6412C90.6295 54.9528 90.6295 55.4579 90.9409 55.7694Z" fill="url(#paint3_linear_4036_37874)"/>
<path d="M85.1221 56.0032C85.4486 56.0033 85.7422 55.8045 85.8633 55.5013L89.0548 47.5226C89.1605 47.2578 89.117 46.9567 88.9405 46.7327C88.7641 46.5087 88.4815 46.3959 88.1993 46.4367C87.9171 46.4775 87.6781 46.6658 87.5723 46.9306L84.3809 54.9093C84.2826 55.1552 84.3128 55.4337 84.4613 55.6529C84.6098 55.8721 84.8573 56.0033 85.1221 56.0032Z" fill="url(#paint4_linear_4036_37874)"/>
</g>
<defs>
<linearGradient id="paint0_linear_4036_37874" x1="64.0654" y1="51.9886" x2="65.6271" y2="50.4269" gradientUnits="userSpaceOnUse">
<stop stop-color="#4B4FE2"/>
<stop offset="1" stop-color="#0EC38B"/>
</linearGradient>
<linearGradient id="paint1_linear_4036_37874" x1="64.0654" y1="59.8008" x2="110.935" y2="12.9322" gradientUnits="userSpaceOnUse">
<stop stop-color="#4B4FE2"/>
<stop offset="1" stop-color="#0EC38B"/>
</linearGradient>
<linearGradient id="paint2_linear_4036_37874" x1="77.1436" y1="56.0032" x2="84.8036" y2="40.6839" gradientUnits="userSpaceOnUse">
<stop stop-color="#4B4FE2"/>
<stop offset="1" stop-color="#0EC38B"/>
</linearGradient>
<linearGradient id="paint3_linear_4036_37874" x1="77.1436" y1="56.0032" x2="84.8036" y2="40.6839" gradientUnits="userSpaceOnUse">
<stop stop-color="#4B4FE2"/>
<stop offset="1" stop-color="#0EC38B"/>
</linearGradient>
<linearGradient id="paint4_linear_4036_37874" x1="77.1436" y1="56.0032" x2="84.8036" y2="40.6839" gradientUnits="userSpaceOnUse">
<stop stop-color="#4B4FE2"/>
<stop offset="1" stop-color="#0EC38B"/>
</linearGradient>
<clipPath id="clip0_4036_37874">
<rect width="46.8696" height="49.1374" fill="white" transform="translate(64.0654 12.9313)"/>
</clipPath>
</defs>
</svg>
