<svg width="175" height="75" viewBox="0 0 175 75" fill="none" xmlns="http://www.w3.org/2000/svg">
<rect width="175" height="75" rx="37.5" fill="#F5F5F5"/>
<g clip-path="url(#clip0_4036_37905)">
<path d="M82.222 45.8605C82.2639 46.5439 82.0089 47.2122 81.5224 47.694L80.3805 48.8439L76.9629 45.4263L78.1048 44.2764C79.0481 43.3392 80.571 43.3392 81.5143 44.2764L81.5224 44.2844C81.9459 44.7028 82.1958 45.2658 82.222 45.8605Z" fill="white"/>
<path d="M80.3799 48.8431L76.9542 52.2607L73.5366 48.8431L76.9623 45.4255L80.3799 48.8431Z" fill="white"/>
<path d="M76.9549 52.2608L73.5372 55.6864L70.1196 52.2688L73.5372 48.8431L76.9549 52.2608Z" fill="white"/>
<path d="M73.5371 55.6868L70.1115 59.1044L66.6938 55.6868L70.1195 52.2692L73.5371 55.6868Z" fill="white"/>
<path d="M70.1114 59.1044L68.9695 60.2463C68.5191 60.7017 67.9052 60.9579 67.2647 60.9579C66.6242 60.9579 66.0104 60.7017 65.5599 60.2463L65.5519 60.2383C65.0966 59.7879 64.8403 59.174 64.8403 58.5335C64.8403 57.893 65.0966 57.2791 65.5519 56.8287L66.6938 55.6868L70.1114 59.1044Z" fill="white"/>
<path d="M91.9921 36.0897L82.2218 45.86C82.1955 45.2653 81.9457 44.7023 81.5222 44.2839L81.5141 44.2759C81.0957 43.8523 80.5328 43.6025 79.938 43.5763L89.7083 33.8059L90.8985 34.1517C91.2598 34.2557 91.5423 34.5382 91.6463 34.8995L91.9921 36.0897Z" fill="white"/>
<path fill-rule="evenodd" clip-rule="evenodd" d="M76.963 45.4244L76.9565 45.418L76.963 45.4244Z" fill="white"/>
<path d="M70.1197 52.267L70.1133 52.2607L70.1197 52.267Z" fill="white"/>
<path d="M110.313 35.5426L101.918 35.6391C101.538 35.6444 101.183 35.8293 100.961 36.1377L95.959 43.1015C95.7142 43.4629 95.2842 43.6523 94.8524 43.5889C94.4205 43.5255 94.0631 43.2205 93.9326 42.804L91.9946 36.0894L91.6488 34.8993C91.5448 34.5379 91.2623 34.2555 90.9009 34.1514L89.7108 33.8056L82.9962 31.8677C82.5797 31.7371 82.2747 31.3797 82.2113 30.9478C82.1479 30.516 82.3373 30.086 82.6987 29.8412L89.6625 24.8394C89.9709 24.6174 90.1558 24.2624 90.1611 23.8825L90.2576 15.4872C90.2617 15.0509 90.5067 14.6525 90.8943 14.4519C91.2819 14.2514 91.7486 14.2816 92.1071 14.5303L98.6931 19.3793C98.9988 19.5986 99.393 19.6528 99.7465 19.5241L107.716 16.6533C108.124 16.4966 108.586 16.595 108.896 16.9044C109.205 17.2137 109.304 17.6761 109.147 18.0846L106.276 26.0537C106.147 26.4072 106.202 26.8015 106.421 27.1071L111.27 33.6931C111.519 34.0516 111.549 34.5183 111.348 34.9059C111.148 35.2935 110.749 35.5385 110.313 35.5426Z" fill="white"/>
<path d="M82.2344 29.1836L87.4581 25.4266L88.3973 26.7326L83.1736 30.4895L82.2344 29.1836Z" fill="white"/>
<path d="M64.9845 60.8186C66.2418 62.0722 68.2763 62.0722 69.5336 60.8186L82.0895 48.2627C82.639 47.7124 82.9677 46.9797 83.0134 46.2033L91.5921 37.6223L93.1529 43.0262C93.3527 43.7278 93.9387 44.2518 94.6583 44.3723C94.7703 44.3921 94.8838 44.4021 94.9976 44.402C95.6373 44.4008 96.2367 44.0897 96.6059 43.5673L101.611 36.6067C101.682 36.5076 101.795 36.448 101.917 36.4459L110.313 36.3469C111.062 36.3385 111.743 35.9098 112.074 35.238C112.404 34.5886 112.342 33.8084 111.913 33.2196L107.065 26.6313C107.003 26.5415 106.99 26.4267 107.029 26.3249L109.899 18.3574C110.16 17.6552 109.987 16.8656 109.458 16.336C108.928 15.8064 108.138 15.6339 107.436 15.8943L99.4694 18.7643C99.367 18.8038 99.2516 18.7899 99.1615 18.7273L92.5739 13.8832C91.9851 13.4537 91.2049 13.3915 90.5555 13.7224C89.8843 14.0527 89.4557 14.7322 89.4466 15.4802L89.3501 23.8771C89.3478 23.9986 89.2882 24.112 89.1893 24.1827L87.4515 25.4323C87.2118 25.5976 87.0801 25.8795 87.1073 26.1694C87.1344 26.4593 87.3162 26.7119 87.5825 26.8297C87.8487 26.9476 88.1579 26.9123 88.3908 26.7374L90.1277 25.4886C90.6423 25.1194 90.9514 24.528 90.9608 23.8948L91.0549 15.4987C91.0584 15.3533 91.1428 15.222 91.2736 15.1586C91.3836 15.0963 91.5198 15.1042 91.6218 15.1787L98.2118 20.0228C98.7334 20.4034 99.4104 20.499 100.017 20.2777L107.984 17.4077C108.099 17.3612 108.23 17.388 108.318 17.4756C108.406 17.5633 108.432 17.6949 108.386 17.8098L105.516 25.7757C105.293 26.3824 105.389 27.0604 105.771 27.5818L110.615 34.1758C110.689 34.278 110.697 34.4142 110.634 34.5239C110.572 34.656 110.441 34.741 110.295 34.7427L101.9 34.8384C101.266 34.8459 100.673 35.1539 100.303 35.6682L95.2975 42.6281C95.2185 42.7507 95.0737 42.8141 94.9301 42.7889C94.8166 42.7736 94.724 42.6908 94.696 42.5799L92.4131 34.6783C92.2328 34.0502 91.7417 33.5591 91.1136 33.3788L83.2113 31.0959C83.1006 31.0677 83.0182 30.9751 83.003 30.8619C82.9787 30.7183 83.0418 30.574 83.1638 30.4944C83.4994 30.2273 83.5663 29.744 83.316 29.3958C83.0657 29.0476 82.5862 28.9571 82.2262 29.1901C81.6045 29.6295 81.2914 30.3877 81.422 31.1377C81.5425 31.8573 82.0665 32.4432 82.7682 32.6431L88.172 34.2039L79.5556 42.8147C78.7949 42.8577 78.0752 43.1734 77.5284 43.7041L64.9749 56.2599C64.3716 56.8632 64.0327 57.6814 64.0327 58.5345C64.0327 59.3876 64.3716 60.2058 64.9749 60.809L64.9845 60.8186ZM75.8172 52.2609L73.5326 54.5455L71.248 52.2609L73.5326 49.9764L75.8172 52.2609ZM74.6696 48.8393L76.9542 46.5547L79.2388 48.8393L76.9542 51.1239L74.6696 48.8393ZM72.3987 55.6826L70.111 57.9671L67.8264 55.6826L70.111 53.3948L72.3987 55.6826ZM90.6689 34.9228C90.7668 34.9499 90.8432 35.0266 90.8699 35.1246L91.0822 35.858L82.5768 44.3634C82.4395 44.1236 82.2726 43.9021 82.0798 43.7041C81.8843 43.5142 81.6638 43.3519 81.4245 43.2216L89.9355 34.7113L90.6689 34.9228ZM79.8057 44.3699C80.4576 44.3702 81.0454 44.7624 81.2961 45.3641C81.5468 45.9659 81.4112 46.6594 80.9524 47.1225L80.3759 47.699L78.0913 45.4177L78.6678 44.8411C78.9689 44.5383 79.3787 44.3686 79.8057 44.3699ZM66.1119 57.397L66.6893 56.8196L68.9739 59.1042L68.3965 59.6816C68.0949 59.9833 67.6857 60.1529 67.2591 60.1529C66.8324 60.1529 66.4232 59.9833 66.1216 59.6816L65.5531 60.2501L66.1119 59.6719C65.8102 59.3703 65.6407 58.9611 65.6407 58.5345C65.6407 58.1078 65.8102 57.6986 66.1119 57.397Z" fill="#072B55"/>
<path d="M84.8373 27.3098C84.4782 27.57 84.3975 28.0718 84.6569 28.4315C84.9164 28.7911 85.4181 28.8728 85.7783 28.6141C86.1384 28.3553 86.2211 27.8538 85.9631 27.4931C85.8385 27.319 85.6497 27.2017 85.4383 27.1673C85.227 27.1329 85.0107 27.1842 84.8373 27.3098Z" fill="#072B55"/>
<path d="M98.6141 33.6127V23.1588C98.6141 22.7147 98.2541 22.3547 97.81 22.3547C97.3659 22.3547 97.0059 22.7147 97.0059 23.1588V33.6127C97.0059 34.0568 97.3659 34.4168 97.81 34.4168C98.2541 34.4168 98.6141 34.0568 98.6141 33.6127Z" fill="#072B55"/>
<path d="M95.3973 31.2V25.571C95.3973 25.1269 95.0373 24.7668 94.5932 24.7668C94.1491 24.7668 93.7891 25.1269 93.7891 25.571V31.2C93.7891 31.6441 94.1491 32.0041 94.5932 32.0041C95.0373 32.0041 95.3973 31.6441 95.3973 31.2Z" fill="#072B55"/>
<path d="M101.026 32.0041C101.47 32.0041 101.83 31.6441 101.83 31.2V25.571C101.83 25.1269 101.47 24.7668 101.026 24.7668C100.582 24.7668 100.222 25.1269 100.222 25.571V31.2C100.222 31.6441 100.582 32.0041 101.026 32.0041Z" fill="#072B55"/>
<path d="M81.7265 15.1172C81.2824 15.1172 80.9224 15.4772 80.9224 15.9213V17.5296C80.9224 17.9737 81.2824 18.3338 81.7265 18.3338C82.1706 18.3338 82.5307 17.9737 82.5307 17.5296V15.9213C82.5307 15.4772 82.1706 15.1172 81.7265 15.1172Z" fill="#072B55"/>
<path d="M80.9224 22.3539C80.9224 22.798 81.2824 23.158 81.7265 23.158C82.1706 23.158 82.5307 22.798 82.5307 22.3539V20.7456C82.5307 20.3015 82.1706 19.9415 81.7265 19.9415C81.2824 19.9415 80.9224 20.3015 80.9224 20.7456V22.3539Z" fill="#072B55"/>
<path d="M80.1185 18.3337H79.3144C78.8703 18.3337 78.5103 18.6938 78.5103 19.1379C78.5103 19.582 78.8703 19.942 79.3144 19.942H80.1185C80.5627 19.942 80.9227 19.582 80.9227 19.1379C80.9227 18.6938 80.5627 18.3337 80.1185 18.3337Z" fill="#072B55"/>
<path d="M84.139 18.3337H83.3349C82.8908 18.3337 82.5308 18.6938 82.5308 19.1379C82.5308 19.582 82.8908 19.942 83.3349 19.942H84.139C84.5832 19.942 84.9432 19.582 84.9432 19.1379C84.9432 18.6938 84.5832 18.3337 84.139 18.3337Z" fill="#072B55"/>
<path d="M76.9023 24.7668C76.4582 24.7668 76.0981 25.1269 76.0981 25.571V27.1793C76.0981 27.6234 76.4582 27.9834 76.9023 27.9834C77.3464 27.9834 77.7064 27.6234 77.7064 27.1793V25.571C77.7064 25.1269 77.3464 24.7668 76.9023 24.7668Z" fill="#072B55"/>
<path d="M76.9023 29.5922C76.4582 29.5922 76.0981 29.9522 76.0981 30.3963V32.0046C76.0981 32.4487 76.4582 32.8087 76.9023 32.8087C77.3464 32.8087 77.7064 32.4487 77.7064 32.0046V30.3963C77.7064 29.9522 77.3464 29.5922 76.9023 29.5922Z" fill="#072B55"/>
<path d="M74.4897 27.9833C74.0456 27.9833 73.6855 28.3434 73.6855 28.7875C73.6855 29.2316 74.0456 29.5916 74.4897 29.5916H75.2938C75.738 29.5916 76.098 29.2316 76.098 28.7875C76.098 28.3434 75.738 27.9833 75.2938 27.9833H74.4897Z" fill="#072B55"/>
<path d="M77.7061 28.7875C77.7061 29.2316 78.0661 29.5916 78.5102 29.5916H79.3143C79.7585 29.5916 80.1185 29.2316 80.1185 28.7875C80.1185 28.3434 79.7585 27.9833 79.3143 27.9833H78.5102C78.0661 27.9833 77.7061 28.3434 77.7061 28.7875Z" fill="#072B55"/>
<path d="M94.5932 46.479C94.5932 46.0349 94.2331 45.6749 93.789 45.6749C93.3449 45.6749 92.9849 46.0349 92.9849 46.479V48.0873C92.9849 48.5314 93.3449 48.8914 93.789 48.8914C94.2331 48.8914 94.5932 48.5314 94.5932 48.0873V46.479Z" fill="#072B55"/>
<path d="M93.789 53.7157C94.2331 53.7157 94.5932 53.3557 94.5932 52.9116V51.3033C94.5932 50.8592 94.2331 50.4991 93.789 50.4991C93.3449 50.4991 92.9849 50.8592 92.9849 51.3033V52.9116C92.9849 53.3557 93.3449 53.7157 93.789 53.7157Z" fill="#072B55"/>
<path d="M92.1806 48.8914H91.3764C90.9323 48.8914 90.5723 49.2514 90.5723 49.6956C90.5723 50.1397 90.9323 50.4997 91.3764 50.4997H92.1806C92.6247 50.4997 92.9847 50.1397 92.9847 49.6956C92.9847 49.2514 92.6247 48.8914 92.1806 48.8914Z" fill="#072B55"/>
<path d="M95.3974 50.4997H96.2015C96.6457 50.4997 97.0057 50.1397 97.0057 49.6956C97.0057 49.2514 96.6457 48.8914 96.2015 48.8914H95.3974C94.9533 48.8914 94.5933 49.2514 94.5933 49.6956C94.5933 50.1397 94.9533 50.4997 95.3974 50.4997Z" fill="#072B55"/>
<path d="M106.655 41.6537C106.655 41.2096 106.295 40.8495 105.851 40.8495C105.407 40.8495 105.047 41.2096 105.047 41.6537V43.262C105.047 43.7061 105.407 44.0661 105.851 44.0661C106.295 44.0661 106.655 43.7061 106.655 43.262V41.6537Z" fill="#072B55"/>
<path d="M105.851 48.8914C106.295 48.8914 106.655 48.5314 106.655 48.0873V46.479C106.655 46.0349 106.295 45.6749 105.851 45.6749C105.407 45.6749 105.047 46.0349 105.047 46.479V48.0873C105.047 48.5314 105.407 48.8914 105.851 48.8914Z" fill="#072B55"/>
<path d="M104.243 44.0661H103.439C102.995 44.0661 102.635 44.4261 102.635 44.8702C102.635 45.3144 102.995 45.6744 103.439 45.6744H104.243C104.687 45.6744 105.047 45.3144 105.047 44.8702C105.047 44.4261 104.687 44.0661 104.243 44.0661Z" fill="#072B55"/>
<path d="M107.459 45.6744H108.264C108.708 45.6744 109.068 45.3144 109.068 44.8702C109.068 44.4261 108.708 44.0661 108.264 44.0661H107.459C107.015 44.0661 106.655 44.4261 106.655 44.8702C106.655 45.3144 107.015 45.6744 107.459 45.6744Z" fill="#072B55"/>
<path d="M86.5517 23.1586C86.9958 23.1586 87.3558 22.7986 87.3558 22.3544C87.3558 21.9103 86.9958 21.5503 86.5517 21.5503C86.1076 21.5503 85.7476 21.9103 85.7476 22.3544C85.7476 22.7986 86.1076 23.1586 86.5517 23.1586Z" fill="#072B55"/>
<path d="M76.0976 15.9211C76.5417 15.9211 76.9017 15.5611 76.9017 15.1169C76.9017 14.6728 76.5417 14.3128 76.0976 14.3128C75.6535 14.3128 75.2935 14.6728 75.2935 15.1169C75.2935 15.5611 75.6535 15.9211 76.0976 15.9211Z" fill="#072B55"/>
<path d="M99.4184 15.9211C99.8625 15.9211 100.223 15.5611 100.223 15.1169C100.223 14.6728 99.8625 14.3128 99.4184 14.3128C98.9743 14.3128 98.6143 14.6728 98.6143 15.1169C98.6143 15.5611 98.9743 15.9211 99.4184 15.9211Z" fill="#072B55"/>
<path d="M109.872 26.3751C110.316 26.3751 110.676 26.0151 110.676 25.571C110.676 25.1269 110.316 24.7668 109.872 24.7668C109.428 24.7668 109.068 25.1269 109.068 25.571C109.068 26.0151 109.428 26.3751 109.872 26.3751Z" fill="#072B55"/>
<path d="M110.676 41.6535C111.12 41.6535 111.48 41.2934 111.48 40.8493C111.48 40.4052 111.12 40.0452 110.676 40.0452C110.232 40.0452 109.872 40.4052 109.872 40.8493C109.872 41.2934 110.232 41.6535 110.676 41.6535Z" fill="#072B55"/>
<path d="M99.4184 47.2832C99.8625 47.2832 100.223 46.9231 100.223 46.479C100.223 46.0349 99.8625 45.6749 99.4184 45.6749C98.9743 45.6749 98.6143 46.0349 98.6143 46.479C98.6143 46.9231 98.9743 47.2832 99.4184 47.2832Z" fill="#072B55"/>
</g>
<defs>
<clipPath id="clip0_4036_37905">
<rect width="50.1333" height="48.5167" fill="white" transform="translate(62.4331 13.2417)"/>
</clipPath>
</defs>
</svg>
