<svg width="374" height="288" viewBox="0 0 374 288" fill="none" xmlns="http://www.w3.org/2000/svg">
<g clip-path="url(#clip0_3036_128)">
<ellipse cx="186.987" cy="250.009" rx="109.495" ry="9.76368" fill="#E5E5E5"/>
<ellipse cx="187.896" cy="248.666" rx="84.63" ry="4.46152" fill="#CCCCCC"/>
<path d="M294.347 144.291V214.622C294.347 230.977 281.089 244.235 264.734 244.235H257.331V146.771C266.274 142.926 274.168 136.999 280.355 129.485C288.213 129.918 294.359 136.422 294.347 144.291Z" fill="white"/>
<path d="M257.331 146.772V244.236H109.266C92.9109 244.236 79.6527 230.977 79.6527 214.623V44.3475C79.6527 36.1701 86.2818 29.541 94.4592 29.541H233.27C208.486 29.5559 186.168 44.547 176.78 67.4851C167.393 90.4231 172.799 116.76 190.462 134.146C208.125 151.532 234.544 156.52 257.331 146.772Z" fill="white"/>
<path d="M280.355 129.485C279.467 130.558 278.467 131.558 277.505 132.594C281.122 135.397 283.24 139.715 283.242 144.291V214.622C283.242 230.977 269.984 244.235 253.629 244.235H264.734C281.089 244.235 294.347 230.977 294.347 214.622V144.291C294.359 136.422 288.213 129.918 280.355 129.485Z" fill="white"/>
<path d="M161.089 90.6179C161.089 124.35 188.434 151.695 222.165 151.695C223.942 151.695 225.867 151.695 227.385 151.399C195.003 148.199 170.815 120.173 172.385 87.6713C173.955 55.1693 200.731 29.6051 233.27 29.541H222.165C188.434 29.541 161.089 56.8861 161.089 90.6179Z" fill="white"/>
<path d="M157.387 99.8722C157.387 103.961 154.072 107.275 149.984 107.275H105.564C101.475 107.275 98.1609 103.961 98.1609 99.8722V59.1542C98.1609 55.0655 101.475 51.751 105.564 51.751H149.984C154.072 51.751 157.387 55.0655 157.387 59.1542V99.8722Z" fill="white"/>
<path d="M233.27 151.695C267.002 151.695 294.347 124.35 294.347 90.6179C294.347 56.8861 267.002 29.541 233.27 29.541C199.539 29.541 172.193 56.8861 172.193 90.6179C172.193 124.35 199.539 151.695 233.27 151.695Z" fill="white"/>
<path d="M233.27 29.541C231.416 29.5454 229.563 29.6443 227.718 29.8371C259.119 32.7397 283.14 59.0833 283.14 90.6179C283.14 122.153 259.119 148.496 227.718 151.399C229.563 151.592 231.416 151.69 233.27 151.695C267.002 151.695 294.347 124.35 294.347 90.6179C294.347 56.8861 267.002 29.541 233.27 29.541Z" fill="white"/>
<path d="M79.6527 214.623C79.6527 230.977 92.9109 244.236 109.266 244.236H120.371C104.016 244.236 90.7576 230.977 90.7576 214.623V44.3475C90.7576 36.1701 97.3867 29.541 105.564 29.541H94.4592C86.2818 29.541 79.6527 36.1701 79.6527 44.3475V214.623Z" fill="white"/>
<path d="M75.9511 185.009H83.3544V214.622H75.9511V185.009Z" fill="white"/>
<path d="M79.6527 203.518C81.6971 203.518 83.3544 201.86 83.3544 199.816C83.3544 197.772 81.6971 196.114 79.6527 196.114C77.6084 196.114 75.9511 197.772 75.9511 199.816C75.9511 201.86 77.6084 203.518 79.6527 203.518Z" fill="url(#paint0_linear_3036_128)"/>
<path d="M157.387 85.0656C159.431 85.0656 161.089 83.4083 161.089 81.364V59.1542C161.089 53.0211 156.117 48.0493 149.984 48.0493H105.564C99.4311 48.0493 94.4592 53.0211 94.4592 59.1542V99.8721C94.4592 106.005 99.4311 110.977 105.564 110.977H149.984C156.117 110.977 161.089 106.005 161.089 99.8721C161.089 97.8278 159.431 96.1705 157.387 96.1705C155.343 96.1705 153.685 97.8278 153.685 99.8721C153.685 101.916 152.028 103.574 149.984 103.574H105.564C103.52 103.574 101.862 101.916 101.862 99.8721V59.1542C101.862 57.1099 103.52 55.4526 105.564 55.4526H149.984C152.028 55.4526 153.685 57.1099 153.685 59.1542V81.364C153.685 83.4083 155.343 85.0656 157.387 85.0656Z" fill="url(#paint1_linear_3036_128)"/>
<path d="M261.033 225.727V214.623C261.033 212.578 259.375 210.921 257.331 210.921C255.287 210.921 253.629 212.578 253.629 214.623V225.727C253.629 227.772 255.287 229.429 257.331 229.429C259.375 229.429 261.033 227.772 261.033 225.727Z" fill="url(#paint2_linear_3036_128)"/>
<path d="M98.1609 136.888H105.564C107.608 136.888 109.266 135.231 109.266 133.186C109.266 131.142 107.608 129.485 105.564 129.485H98.1609C96.1165 129.485 94.4592 131.142 94.4592 133.186C94.4592 135.231 96.1165 136.888 98.1609 136.888Z" fill="url(#paint3_linear_3036_128)"/>
<path d="M157.387 129.485H124.072C122.028 129.485 120.371 131.142 120.371 133.186C120.371 135.231 122.028 136.888 124.072 136.888H157.387C159.431 136.888 161.089 135.231 161.089 133.186C161.089 131.142 159.431 129.485 157.387 129.485Z" fill="url(#paint4_linear_3036_128)"/>
<path d="M98.1609 173.905H105.564C107.608 173.905 109.266 172.247 109.266 170.203C109.266 168.159 107.608 166.501 105.564 166.501H98.1609C96.1165 166.501 94.4592 168.159 94.4592 170.203C94.4592 172.247 96.1165 173.905 98.1609 173.905Z" fill="url(#paint5_linear_3036_128)"/>
<path d="M157.387 166.501H124.072C122.028 166.501 120.371 168.159 120.371 170.203C120.371 172.247 122.028 173.905 124.072 173.905H157.387C159.431 173.905 161.089 172.247 161.089 170.203C161.089 168.159 159.431 166.501 157.387 166.501Z" fill="url(#paint6_linear_3036_128)"/>
<path d="M157.387 147.993H146.282C144.238 147.993 142.58 149.65 142.58 151.695C142.58 153.739 144.238 155.396 146.282 155.396H157.387C159.431 155.396 161.089 153.739 161.089 151.695C161.089 149.65 159.431 147.993 157.387 147.993Z" fill="url(#paint7_linear_3036_128)"/>
<path d="M98.1609 155.396H131.476C133.52 155.396 135.177 153.739 135.177 151.695C135.177 149.65 133.52 147.993 131.476 147.993H98.1609C96.1165 147.993 94.4592 149.65 94.4592 151.695C94.4592 153.739 96.1165 155.396 98.1609 155.396Z" fill="url(#paint8_linear_3036_128)"/>
<path d="M98.1609 222.026H105.564C107.608 222.026 109.266 220.369 109.266 218.324C109.266 216.28 107.608 214.623 105.564 214.623H98.1609C96.1165 214.623 94.4592 216.28 94.4592 218.324C94.4592 220.369 96.1165 222.026 98.1609 222.026Z" fill="url(#paint9_linear_3036_128)"/>
<path d="M157.387 214.623H124.072C122.028 214.623 120.371 216.28 120.371 218.324C120.371 220.369 122.028 222.026 124.072 222.026H157.387C159.431 222.026 161.089 220.369 161.089 218.324C161.089 216.28 159.431 214.623 157.387 214.623Z" fill="url(#paint10_linear_3036_128)"/>
<path d="M157.387 196.114H146.282C144.238 196.114 142.58 197.772 142.58 199.816C142.58 201.86 144.238 203.518 146.282 203.518H157.387C159.431 203.518 161.089 201.86 161.089 199.816C161.089 197.772 159.431 196.114 157.387 196.114Z" fill="url(#paint11_linear_3036_128)"/>
<path d="M98.1609 203.518H131.476C133.52 203.518 135.177 201.86 135.177 199.816C135.177 197.772 133.52 196.114 131.476 196.114H98.1609C96.1165 196.114 94.4592 197.772 94.4592 199.816C94.4592 201.86 96.1165 203.518 98.1609 203.518Z" fill="url(#paint12_linear_3036_128)"/>
<path d="M179.597 222.026H187C189.044 222.026 190.702 220.369 190.702 218.324C190.702 216.28 189.044 214.623 187 214.623H179.597C177.552 214.623 175.895 216.28 175.895 218.324C175.895 220.369 177.552 222.026 179.597 222.026Z" fill="url(#paint13_linear_3036_128)"/>
<path d="M201.807 218.324C201.807 220.369 203.464 222.026 205.508 222.026H238.823C240.867 222.026 242.524 220.369 242.524 218.324C242.524 216.28 240.867 214.623 238.823 214.623H205.508C203.464 214.623 201.807 216.28 201.807 218.324Z" fill="url(#paint14_linear_3036_128)"/>
<path d="M238.823 203.518C240.867 203.518 242.524 201.86 242.524 199.816C242.524 197.772 240.867 196.114 238.823 196.114H227.718C225.674 196.114 224.016 197.772 224.016 199.816C224.016 201.86 225.674 203.518 227.718 203.518H238.823Z" fill="url(#paint15_linear_3036_128)"/>
<path d="M212.911 196.114H179.597C177.552 196.114 175.895 197.772 175.895 199.816C175.895 201.86 177.552 203.518 179.597 203.518H212.911C214.956 203.518 216.613 201.86 216.613 199.816C216.613 197.772 214.956 196.114 212.911 196.114Z" fill="url(#paint16_linear_3036_128)"/>
<path d="M233.27 25.8394H94.4593C84.2375 25.8394 75.9511 34.1257 75.9511 44.3475V185.009C75.9511 187.054 77.6084 188.711 79.6527 188.711C81.6971 188.711 83.3544 187.054 83.3544 185.009V44.3475C83.3544 38.2145 88.3262 33.2426 94.4593 33.2426H203.287C176.83 47.031 163.222 77.1137 170.333 106.088C177.445 135.062 203.436 155.425 233.27 155.396C240.192 155.395 247.068 154.27 253.629 152.065V199.816C253.629 201.86 255.287 203.518 257.331 203.518C259.375 203.518 261.033 201.86 261.033 199.816V149.067C268.914 145.311 275.953 139.997 281.725 133.446C286.897 134.483 290.626 139.016 290.646 144.292V214.623C290.646 228.933 279.045 240.534 264.734 240.534H109.266C94.9553 240.534 83.3544 228.933 83.3544 214.623C83.3544 212.578 81.6971 210.921 79.6527 210.921C77.6084 210.921 75.9511 212.578 75.9511 214.623C75.9511 233.022 90.8666 247.937 109.266 247.937H264.734C283.133 247.937 298.049 233.022 298.049 214.623V144.292C298.024 136.838 293.53 130.126 286.648 127.264C300.274 107.448 301.794 81.7113 290.594 60.4295C279.393 39.1476 257.32 25.8277 233.27 25.8394ZM255.924 143.329C248.774 146.426 241.062 148.013 233.27 147.993C203.833 147.996 179.17 125.721 176.185 96.4355C173.201 67.1502 192.863 40.3573 221.695 34.4213C250.527 28.4852 279.174 45.3322 288 73.4147C296.827 101.497 282.968 131.703 255.924 143.329Z" fill="url(#paint17_linear_3036_128)"/>
<path d="M264.114 56.1187C262.858 55.9369 261.581 56.2617 260.564 57.0215C259.548 57.7814 258.875 58.914 258.694 60.1701L258.084 64.3985C247.911 53.9146 232.397 50.6463 218.859 56.1351C205.321 61.6238 196.464 74.7732 196.464 89.3815C196.464 92.0232 198.605 94.1647 201.247 94.1647C203.889 94.1647 206.03 92.0232 206.03 89.3815C206.034 78.6405 212.567 68.9805 222.534 64.9778C232.501 60.975 243.901 63.4334 251.333 71.1883L245.153 70.2986C243.443 70.0148 241.714 70.6778 240.632 72.0316C239.551 73.3853 239.286 75.2183 239.94 76.8229C240.594 78.4275 242.065 79.5529 243.785 79.7647L260.354 82.1564C260.58 82.1897 260.809 82.2065 261.038 82.2066C263.415 82.206 265.431 80.46 265.771 78.1073L268.163 61.5357C268.54 58.9219 266.727 56.497 264.114 56.1187Z" fill="url(#paint18_linear_3036_128)"/>
<path d="M200.563 125.668C203.178 126.045 205.603 124.231 205.98 121.617L206.59 117.388C216.763 127.874 232.278 131.143 245.817 125.654C259.356 120.165 268.214 107.015 268.213 92.4053C268.213 89.7636 266.071 87.6221 263.429 87.6221C260.788 87.6221 258.646 89.7636 258.646 92.4053C258.642 103.146 252.109 112.806 242.142 116.809C232.175 120.812 220.775 118.353 213.344 110.598L219.524 111.488C221.233 111.772 222.963 111.109 224.044 109.755C225.126 108.401 225.391 106.569 224.737 104.964C224.083 103.359 222.612 102.234 220.892 102.022L204.323 99.6304C204.096 99.5972 203.868 99.5804 203.639 99.5802C201.262 99.5808 199.246 101.327 198.906 103.679L196.514 120.251C196.137 122.865 197.949 125.29 200.563 125.668Z" fill="url(#paint19_linear_3036_128)"/>
</g>
<defs>
<linearGradient id="paint0_linear_3036_128" x1="75.9511" y1="203.518" x2="83.3544" y2="196.114" gradientUnits="userSpaceOnUse">
<stop stop-color="#A03291"/>
<stop offset="1" stop-color="#FF7C66"/>
</linearGradient>
<linearGradient id="paint1_linear_3036_128" x1="94.4592" y1="110.977" x2="157.284" y2="44.4564" gradientUnits="userSpaceOnUse">
<stop stop-color="#A03291"/>
<stop offset="1" stop-color="#FF7C66"/>
</linearGradient>
<linearGradient id="paint2_linear_3036_128" x1="253.629" y1="229.429" x2="266.394" y2="224.323" gradientUnits="userSpaceOnUse">
<stop stop-color="#A03291"/>
<stop offset="1" stop-color="#FF7C66"/>
</linearGradient>
<linearGradient id="paint3_linear_3036_128" x1="94.4592" y1="136.888" x2="100.382" y2="125.043" gradientUnits="userSpaceOnUse">
<stop stop-color="#A03291"/>
<stop offset="1" stop-color="#FF7C66"/>
</linearGradient>
<linearGradient id="paint4_linear_3036_128" x1="120.371" y1="136.888" x2="122.977" y2="122.555" gradientUnits="userSpaceOnUse">
<stop stop-color="#A03291"/>
<stop offset="1" stop-color="#FF7C66"/>
</linearGradient>
<linearGradient id="paint5_linear_3036_128" x1="94.4592" y1="173.905" x2="100.382" y2="162.06" gradientUnits="userSpaceOnUse">
<stop stop-color="#A03291"/>
<stop offset="1" stop-color="#FF7C66"/>
</linearGradient>
<linearGradient id="paint6_linear_3036_128" x1="120.371" y1="173.905" x2="122.977" y2="159.572" gradientUnits="userSpaceOnUse">
<stop stop-color="#A03291"/>
<stop offset="1" stop-color="#FF7C66"/>
</linearGradient>
<linearGradient id="paint7_linear_3036_128" x1="142.58" y1="155.396" x2="147.686" y2="142.632" gradientUnits="userSpaceOnUse">
<stop stop-color="#A03291"/>
<stop offset="1" stop-color="#FF7C66"/>
</linearGradient>
<linearGradient id="paint8_linear_3036_128" x1="94.4592" y1="155.396" x2="97.0652" y2="141.064" gradientUnits="userSpaceOnUse">
<stop stop-color="#A03291"/>
<stop offset="1" stop-color="#FF7C66"/>
</linearGradient>
<linearGradient id="paint9_linear_3036_128" x1="94.4592" y1="222.026" x2="100.382" y2="210.181" gradientUnits="userSpaceOnUse">
<stop stop-color="#A03291"/>
<stop offset="1" stop-color="#FF7C66"/>
</linearGradient>
<linearGradient id="paint10_linear_3036_128" x1="120.371" y1="222.026" x2="122.977" y2="207.693" gradientUnits="userSpaceOnUse">
<stop stop-color="#A03291"/>
<stop offset="1" stop-color="#FF7C66"/>
</linearGradient>
<linearGradient id="paint11_linear_3036_128" x1="142.58" y1="203.518" x2="147.686" y2="190.753" gradientUnits="userSpaceOnUse">
<stop stop-color="#A03291"/>
<stop offset="1" stop-color="#FF7C66"/>
</linearGradient>
<linearGradient id="paint12_linear_3036_128" x1="94.4592" y1="203.518" x2="97.0652" y2="189.185" gradientUnits="userSpaceOnUse">
<stop stop-color="#A03291"/>
<stop offset="1" stop-color="#FF7C66"/>
</linearGradient>
<linearGradient id="paint13_linear_3036_128" x1="175.895" y1="222.026" x2="181.818" y2="210.181" gradientUnits="userSpaceOnUse">
<stop stop-color="#A03291"/>
<stop offset="1" stop-color="#FF7C66"/>
</linearGradient>
<linearGradient id="paint14_linear_3036_128" x1="201.807" y1="222.026" x2="204.412" y2="207.693" gradientUnits="userSpaceOnUse">
<stop stop-color="#A03291"/>
<stop offset="1" stop-color="#FF7C66"/>
</linearGradient>
<linearGradient id="paint15_linear_3036_128" x1="224.016" y1="203.518" x2="229.122" y2="190.753" gradientUnits="userSpaceOnUse">
<stop stop-color="#A03291"/>
<stop offset="1" stop-color="#FF7C66"/>
</linearGradient>
<linearGradient id="paint16_linear_3036_128" x1="175.895" y1="203.518" x2="178.501" y2="189.185" gradientUnits="userSpaceOnUse">
<stop stop-color="#A03291"/>
<stop offset="1" stop-color="#FF7C66"/>
</linearGradient>
<linearGradient id="paint17_linear_3036_128" x1="75.9511" y1="247.937" x2="298.049" y2="25.8394" gradientUnits="userSpaceOnUse">
<stop stop-color="#A03291"/>
<stop offset="1" stop-color="#FF7C66"/>
</linearGradient>
<linearGradient id="paint18_linear_3036_128" x1="196.464" y1="94.1647" x2="231.345" y2="32.6129" gradientUnits="userSpaceOnUse">
<stop stop-color="#A03291"/>
<stop offset="1" stop-color="#FF7C66"/>
</linearGradient>
<linearGradient id="paint19_linear_3036_128" x1="196.464" y1="128.284" x2="231.349" y2="66.7302" gradientUnits="userSpaceOnUse">
<stop stop-color="#A03291"/>
<stop offset="1" stop-color="#FF7C66"/>
</linearGradient>
<clipPath id="clip0_3036_128">
<rect width="222.098" height="236.427" fill="white" transform="translate(75.9511 25.8394)"/>
</clipPath>
</defs>
</svg>
