<svg width="25" height="24" viewBox="0 0 25 24" fill="none" xmlns="http://www.w3.org/2000/svg">
<path d="M12.4105 2C6.80684 2 2.24786 6.486 2.24786 12C2.24786 17.514 6.80684 22 12.4105 22C18.0142 22 22.5732 17.514 22.5732 12C22.5732 6.486 18.0142 2 12.4105 2ZM16.7607 10.2805L11.6793 15.2805C11.5304 15.427 11.3353 15.5 11.1402 15.5C10.9451 15.5 10.75 15.427 10.6011 15.2805L8.0604 12.7805C7.76264 12.4875 7.76264 12.013 8.0604 11.72C8.35817 11.427 8.84039 11.427 9.13815 11.72L11.1397 13.6895L15.6819 9.22C15.9797 8.927 16.4619 8.927 16.7596 9.22C17.0574 9.513 17.0579 9.9875 16.7607 10.2805Z" fill="currentColor"/>
</svg>
