<svg width="26" height="24" viewBox="0 0 26 24" fill="none" xmlns="http://www.w3.org/2000/svg">
<path d="M13.0202 2C7.40737 2 2.85754 6.477 2.85754 12C2.85754 17.523 7.40737 22 13.0202 22C18.6331 22 23.1829 17.523 23.1829 12C23.1829 6.477 18.6331 2 13.0202 2ZM16.8622 14.7195C17.16 15.0125 17.16 15.487 16.8622 15.78C16.7133 15.927 16.5182 16 16.3231 16C16.128 16 15.9328 15.927 15.784 15.7805L13.0202 13.0605L10.2565 15.78C10.1076 15.927 9.91247 16 9.71735 16C9.52222 16 9.3271 15.927 9.17822 15.7805C8.88045 15.4875 8.88045 15.013 9.17822 14.72L11.9425 12L9.17873 9.2805C8.88096 8.9875 8.88096 8.513 9.17873 8.22C9.47649 7.927 9.95871 7.927 10.2565 8.22L13.0202 10.9395L15.784 8.22C16.0817 7.927 16.5639 7.927 16.8617 8.22C17.1595 8.513 17.1595 8.9875 16.8617 9.2805L14.098 12L16.8622 14.7195Z" fill="currentColor"/>
</svg>
