<svg width="24" height="24" viewBox="0 0 24 24" fill="none" xmlns="http://www.w3.org/2000/svg">
    <path fill="currentColor" fill-rule="evenodd" fill="currentColor" clip-rule="evenodd" d="M7.75749 6.34306C7.36697 5.95254 6.7338 5.95254 6.34328 6.34306C5.95275 6.73359 5.95275 7.36675 6.34328 7.75728L10.5858 11.9998L6.34294 16.2426C5.95242 16.6331 5.95242 17.2663 6.34294 17.6568C6.73347 18.0473 7.36663 18.0473 7.75716 17.6568L12 13.414L16.2428 17.6568C16.6333 18.0473 17.2665 18.0473 17.657 17.6568C18.0475 17.2662 18.0475 16.6331 17.657 16.2426L13.4142 11.9998L17.6567 7.75729C18.0472 7.36677 18.0472 6.7336 17.6567 6.34308C17.2661 5.95255 16.633 5.95255 16.2424 6.34308L12 10.5855L7.75749 6.34306Z"/>
</svg>
