<svg width="24" height="24" viewBox="0 0 24 24" fill="none" xmlns="http://www.w3.org/2000/svg">
<path d="M5.46948 9.53062L2.46948 6.53062C2.39974 6.46096 2.34442 6.37824 2.30668 6.28719C2.26894 6.19615 2.24951 6.09855 2.24951 5.99999C2.24951 5.90143 2.26894 5.80383 2.30668 5.71278C2.34442 5.62174 2.39974 5.53902 2.46948 5.46936L5.46948 2.46936C5.61021 2.32863 5.80108 2.24957 6.0001 2.24957C6.19912 2.24957 6.39 2.32863 6.53073 2.46936C6.67146 2.6101 6.75052 2.80097 6.75052 2.99999C6.75052 3.19901 6.67146 3.38988 6.53073 3.53061L4.06041 5.99999L6.53073 8.46936C6.67146 8.61009 6.75052 8.80097 6.75052 8.99999C6.75052 9.19901 6.67146 9.38988 6.53073 9.53061C6.39 9.67134 6.19912 9.75041 6.0001 9.75041C5.80108 9.75041 5.61021 9.67135 5.46948 9.53062ZM9.21948 9.53062C9.28913 9.60035 9.37185 9.65567 9.4629 9.69341C9.55395 9.73115 9.65154 9.75058 9.7501 9.75058C9.84866 9.75058 9.94626 9.73115 10.0373 9.69341C10.1284 9.65567 10.2111 9.60035 10.2807 9.53062L13.2807 6.53062C13.3505 6.46096 13.4058 6.37824 13.4435 6.28719C13.4813 6.19615 13.5007 6.09855 13.5007 5.99999C13.5007 5.90143 13.4813 5.80383 13.4435 5.71278C13.4058 5.62174 13.3505 5.53902 13.2807 5.46936L10.2807 2.46936C10.14 2.32863 9.94912 2.24957 9.7501 2.24957C9.55108 2.24957 9.36021 2.32863 9.21948 2.46936C9.07875 2.6101 8.99968 2.80097 8.99968 2.99999C8.99968 3.19901 9.07875 3.38988 9.21948 3.53061L11.6898 5.99999L9.21948 8.46936C9.14974 8.53902 9.09443 8.62174 9.05668 8.71278C9.01894 8.80383 8.99951 8.90143 8.99951 8.99999C8.99951 9.09855 9.01894 9.19615 9.05668 9.28719C9.09443 9.37824 9.14974 9.46096 9.21948 9.53062ZM18.7501 3.74999H16.5001C16.3012 3.74999 16.1104 3.82901 15.9698 3.96966C15.8291 4.11031 15.7501 4.30108 15.7501 4.49999C15.7501 4.6989 15.8291 4.88967 15.9698 5.03032C16.1104 5.17097 16.3012 5.24999 16.5001 5.24999H18.7501V18.75H5.2501V12.75C5.2501 12.5511 5.17108 12.3603 5.03043 12.2197C4.88978 12.079 4.69901 12 4.5001 12C4.30119 12 4.11042 12.079 3.96977 12.2197C3.82912 12.3603 3.7501 12.5511 3.7501 12.75V18.75C3.7501 19.1478 3.90814 19.5293 4.18944 19.8106C4.47075 20.092 4.85228 20.25 5.2501 20.25H18.7501C19.1479 20.25 19.5295 20.092 19.8108 19.8106C20.0921 19.5293 20.2501 19.1478 20.2501 18.75V5.24999C20.2501 4.85216 20.0921 4.47063 19.8108 4.18933C19.5295 3.90802 19.1479 3.74999 18.7501 3.74999Z" fill="#1F1F1F"/>
</svg>
