<svg width="50" height="50" viewBox="0 0 50 50" fill="none" xmlns="http://www.w3.org/2000/svg">
<g clip-path="url(#clip0_1750_22064)">
<ellipse cx="25.7556" cy="43.2064" rx="17.9958" ry="2.06576" fill="#BCB7DE"/>
<ellipse cx="15.0065" cy="43.2064" rx="5.96154" ry="0.43496" fill="#9087C8"/>
<ellipse cx="35.1979" cy="43.2064" rx="5.96154" ry="0.43496" fill="#9087C8"/>
<path d="M14.3141 28.5284H13.676C9.79908 28.5284 6.65625 25.3856 6.65625 21.5087C6.65625 17.6318 9.79908 14.489 13.676 14.489C14.0739 14.487 14.4712 14.5212 14.8629 14.5911C15.7737 12.6558 17.6844 11.3869 19.8214 11.2982C21.0772 7.41265 24.9738 5.01874 29.0074 5.6547C33.041 6.29067 36.0121 9.76738 36.0114 13.8508C36.0241 14.074 36.0241 14.2977 36.0114 14.5209C36.2284 14.5209 36.4581 14.489 36.6495 14.489C40.5264 14.489 43.6693 17.6318 43.6693 21.5087C43.6693 25.3856 40.5264 28.5284 36.6495 28.5284H14.3141Z" fill="#EFEDF7"/>
<path d="M36.6487 14.4889C36.4253 14.4889 36.1956 14.4889 36.0105 14.5208C36.0233 14.2976 36.0233 14.0739 36.0105 13.8507C36.0105 11.6505 35.1365 9.54034 33.5807 7.98453C32.0249 6.42873 29.9148 5.55469 27.7145 5.55469C27.3968 5.55754 27.0794 5.57671 26.7637 5.61212C30.9437 6.10095 34.0954 9.64221 34.0961 13.8507C34.1088 14.0739 34.1088 14.2976 34.0961 14.5208C34.313 14.5208 34.5428 14.4889 34.7342 14.4889C38.3541 14.5005 41.3715 17.2628 41.702 20.8675C42.0326 24.4722 39.5679 27.7372 36.0105 28.407V28.5283H36.6487C40.5256 28.5283 43.6684 25.3854 43.6684 21.5086C43.6684 17.6317 40.5256 14.4889 36.6487 14.4889Z" fill="#FFCE1F"/>
<path d="M32.0729 10.7552C31.8864 10.7553 31.7092 10.6737 31.5879 10.5319C30.6194 9.39952 29.2044 8.74683 27.7143 8.74506C27.3619 8.74506 27.0762 8.45935 27.0762 8.10691C27.0762 7.75446 27.3619 7.46875 27.7143 7.46875C29.5765 7.46889 31.3457 8.2824 32.5579 9.69591C32.6679 9.82454 32.7224 9.9916 32.7092 10.1604C32.696 10.3291 32.6164 10.4857 32.4877 10.5957C32.373 10.6969 32.2258 10.7535 32.0729 10.7552Z" fill="#F9FAFB"/>
<path d="M23.8864 34.2715V34.9096C23.8864 36.3194 22.7436 37.4623 21.3338 37.4623H9.20887C7.7991 37.4623 6.65625 36.3194 6.65625 34.9096V34.2715H23.8864Z" fill="#EFEDF7"/>
<path d="M21.9706 34.2715V34.9096C21.9706 36.3194 20.8277 37.4623 19.418 37.4623H21.3324C22.7422 37.4623 23.8851 36.3194 23.8851 34.9096V34.2715H21.9706Z" fill="#BDB7DE"/>
<path d="M20.6943 41.2919C20.6943 41.9968 20.1229 42.5682 19.418 42.5682H11.122C10.4171 42.5682 9.8457 41.9968 9.8457 41.2919C9.8457 40.587 10.4171 40.0156 11.122 40.0156H19.418C20.1229 40.0156 20.6943 40.587 20.6943 41.2919Z" fill="#EFEDF7"/>
<path d="M20.3182 40.3921C20.0799 40.1525 19.7563 40.017 19.4184 40.0156H17.5039C18.2088 40.0156 18.7802 40.587 18.7802 41.2919C18.7802 41.9968 18.2088 42.5682 17.5039 42.5682H19.4184C20.1233 42.5682 20.6947 41.9968 20.6947 41.2919C20.6933 40.954 20.5579 40.6304 20.3182 40.3921Z" fill="#BDB7DE"/>
<path d="M18.7814 40.0155H11.7617L13.038 37.4629H17.5051L18.7814 40.0155Z" fill="#BDB7DE"/>
<path d="M17.5043 37.4629H15.5898L16.8662 40.0155H18.7806L17.5043 37.4629Z" fill="#7A6FBD"/>
<path d="M25.1625 18.9559C26.2198 18.9559 27.077 18.0987 27.077 17.0414C27.077 15.9841 26.2198 15.127 25.1625 15.127C24.1052 15.127 23.248 15.9841 23.248 17.0414C23.248 18.0987 24.1052 18.9559 25.1625 18.9559Z" fill="#EFEDF7"/>
<path d="M21.3338 23.4219H9.20887C7.7991 23.4219 6.65625 24.5647 6.65625 25.9745V34.2705H23.8864V25.9745C23.8864 24.5647 22.7436 23.4219 21.3338 23.4219Z" fill="#FFCE1F"/>
<path d="M43.6696 34.2715V34.9096C43.6696 36.3194 42.5268 37.4623 41.117 37.4623H28.9921C27.5823 37.4623 26.4395 36.3194 26.4395 34.9096V34.2715H43.6696Z" fill="#EFEDF7"/>
<path d="M41.7538 34.2715V34.9096C41.7538 36.3194 40.6109 37.4623 39.2012 37.4623H41.1156C42.5254 37.4623 43.6683 36.3194 43.6683 34.9096V34.2715H41.7538Z" fill="#BDB7DE"/>
<path d="M40.4775 41.2919C40.4775 41.9968 39.9061 42.5682 39.2012 42.5682H30.9052C30.2003 42.5682 29.6289 41.9968 29.6289 41.2919C29.6289 40.587 30.2003 40.0156 30.9052 40.0156H39.2012C39.9061 40.0156 40.4775 40.587 40.4775 41.2919Z" fill="#EFEDF7"/>
<path d="M40.1014 40.3921C39.8631 40.1525 39.5395 40.017 39.2016 40.0156H37.2871C37.992 40.0156 38.5634 40.587 38.5634 41.2919C38.5634 41.9968 37.992 42.5682 37.2871 42.5682H39.2016C39.9065 42.5682 40.4779 41.9968 40.4779 41.2919C40.4765 40.954 40.3411 40.6304 40.1014 40.3921Z" fill="#BDB7DE"/>
<path d="M38.5627 40.0155H31.543L32.8193 37.4629H37.2864L38.5627 40.0155Z" fill="#BDB7DE"/>
<path d="M37.2875 37.4629H35.373L36.6494 40.0155H38.5638L37.2875 37.4629Z" fill="#7A6FBD"/>
<path d="M41.117 23.4219H28.9921C27.5823 23.4219 26.4395 24.5647 26.4395 25.9745V34.2705H43.6696V25.9745C43.6696 24.5647 42.5268 23.4219 41.117 23.4219Z" fill="#FFCE1F"/>
<path d="M8.57081 34.909V25.9749C8.57143 25.3784 8.78405 24.8017 9.17067 24.3476C8.2905 22.3392 8.39468 20.0357 9.45256 18.115C10.5104 16.1943 12.4016 14.875 14.5695 14.5455C12.0565 14.223 9.56477 15.2797 8.04971 17.3104C6.53465 19.341 6.23139 22.0305 7.25621 24.3476C6.86958 24.8017 6.65697 25.3784 6.65634 25.9749V34.909C6.65634 36.3188 7.79919 37.4616 9.20896 37.4616H11.1234C9.71366 37.4616 8.57081 36.3188 8.57081 34.909Z" fill="#F9FAFB"/>
<path d="M7.93209 16.4023L8.88933 17.2511C7.85774 18.4288 7.29058 19.942 7.29394 21.5076H6.01763C6.0108 19.6291 6.6918 17.8131 7.93209 16.4023Z" fill="#F9FAFB"/>
<path d="M31.5879 10.5319C31.7092 10.6737 31.8864 10.7553 32.0729 10.7552C32.2258 10.7535 32.373 10.6969 32.4877 10.5957C32.6164 10.4857 32.696 10.3291 32.7092 10.1604C32.7224 9.9916 32.6679 9.82454 32.5579 9.69591C31.3457 8.2824 29.5765 7.46889 27.7143 7.46875C27.3619 7.46875 27.0762 7.75446 27.0762 8.10691C27.0762 8.45935 27.3619 8.74506 27.7143 8.74506C29.2044 8.74683 30.6194 9.39952 31.5879 10.5319Z" fill="#6254B8"/>
<path d="M7.12253 19.6376C7.47497 19.6376 7.76069 19.3519 7.76069 18.9995C7.76069 18.647 7.47497 18.3613 7.12253 18.3613C6.77009 18.3613 6.48438 18.647 6.48438 18.9995C6.48438 19.3519 6.77009 19.6376 7.12253 19.6376Z" fill="#6254B8"/>
<path d="M36.649 13.8504C36.6402 9.53744 33.5515 5.84648 29.3076 5.07757C25.0638 4.30866 20.8764 6.68134 19.355 10.7171C17.3223 10.9379 15.521 12.1261 14.5178 13.9078C14.2383 13.8728 13.9571 13.8536 13.6754 13.8504C11.4839 13.8402 9.39306 14.7695 7.93205 16.403C7.81668 16.5334 7.75961 16.7053 7.77407 16.8789C7.78853 17.0524 7.87326 17.2124 8.00862 17.322C8.27903 17.52 8.65365 17.4901 8.88928 17.2518C10.1072 15.8913 11.8495 15.1177 13.6754 15.1267C14.9346 15.1227 16.166 15.4961 17.2108 16.1988C17.3165 16.2698 17.4409 16.3076 17.5682 16.3073C17.7805 16.3076 17.979 16.2024 18.0979 16.0265C18.197 15.8852 18.2346 15.7097 18.2021 15.5402C18.1696 15.3706 18.0699 15.2215 17.9256 15.1267C17.2859 14.6971 16.5844 14.3678 15.8452 14.1503C16.7606 12.8157 18.2546 11.9941 19.8719 11.9359H20.0123C21.1329 11.9219 22.2263 12.2811 23.1201 12.957C23.4021 13.1685 23.8021 13.1113 24.0136 12.8294C24.225 12.5474 24.1679 12.1474 23.8859 11.9359C22.969 11.2454 21.8814 10.8174 20.7398 10.6979C22.2277 7.4147 25.8039 5.61361 29.3277 6.37277C32.8514 7.13193 35.3687 10.2458 35.3727 13.8504V13.9589C34.3094 14.1312 33.2953 14.5294 32.3989 15.1267C32.1064 15.3241 32.0292 15.7212 32.2266 16.0138C32.424 16.3063 32.8211 16.3834 33.1137 16.1861C34.1599 15.4879 35.3912 15.1189 36.649 15.1267C38.6513 15.1276 40.5371 16.0682 41.7423 17.6672C42.9475 19.2662 43.3323 21.3381 42.7817 23.2632C42.2821 22.9512 41.7051 22.7854 41.1161 22.7846H33.4583V22.1464C33.4583 21.0891 32.6011 20.232 31.5438 20.232H25.8004V19.5045C27.045 19.1831 27.8565 17.9864 27.6945 16.7113C27.5325 15.4361 26.4477 14.4803 25.1622 14.4803C23.8768 14.4803 22.7919 15.4361 22.63 16.7113C22.468 17.9864 23.2795 19.1831 24.5241 19.5045V20.232H18.7807C17.7234 20.232 16.8662 21.0891 16.8662 22.1464V22.7846H9.20836C8.61935 22.7854 8.04235 22.9512 7.54277 23.2632C7.37858 22.6926 7.29481 22.102 7.29389 21.5083C7.29389 21.1558 7.00818 20.8701 6.65574 20.8701C6.30329 20.8701 6.01758 21.1558 6.01758 21.5083C6.01685 22.4472 6.19218 23.378 6.53449 24.2523C6.19713 24.7636 6.01739 25.3628 6.01758 25.9754V34.9095C6.01758 36.6717 7.44614 38.1003 9.20836 38.1003H12.0035L11.3653 39.3766H11.1228C10.0655 39.3766 9.20836 40.2337 9.20836 41.2911C9.20836 42.3484 10.0655 43.2055 11.1228 43.2055H19.4188C20.4762 43.2055 21.3333 42.3484 21.3333 41.2911C21.3333 40.2337 20.4762 39.3766 19.4188 39.3766H19.1763L18.5382 38.1003H21.3333C23.0955 38.1003 24.5241 36.6717 24.5241 34.9095V29.1661H25.8004V34.9095C25.8004 36.6717 27.229 38.1003 28.9912 38.1003H31.7863L31.1481 39.3766H30.9056C29.8483 39.3766 28.9912 40.2337 28.9912 41.2911C28.9912 42.3484 29.8483 43.2055 30.9056 43.2055H39.2017C40.259 43.2055 41.1161 42.3484 41.1161 41.2911C41.1161 40.2337 40.259 39.3766 39.2017 39.3766H38.9592L38.321 38.1003H41.1161C42.8783 38.1003 44.3069 36.6717 44.3069 34.9095V25.9754C44.3071 25.3628 44.1273 24.7636 43.79 24.2523C44.1323 23.378 44.3076 22.4472 44.3069 21.5083C44.3069 17.2789 40.8784 13.8504 36.649 13.8504ZM23.8859 17.0412C23.8859 16.3363 24.4574 15.7649 25.1622 15.7649C25.8671 15.7649 26.4385 16.3363 26.4385 17.0412C26.4385 17.7461 25.8671 18.3175 25.1622 18.3175C24.4574 18.3175 23.8859 17.7461 23.8859 17.0412ZM20.057 41.2911C20.057 41.6435 19.7713 41.9292 19.4188 41.9292H11.1228C10.7704 41.9292 10.4847 41.6435 10.4847 41.2911C10.4847 40.9386 10.7704 40.6529 11.1228 40.6529H19.4188C19.7713 40.6529 20.057 40.9386 20.057 41.2911ZM17.7469 39.3766H12.7948L13.4329 38.1003H17.1087L17.7469 39.3766ZM21.3333 36.824H9.20836C8.15103 36.824 7.29389 35.9669 7.29389 34.9095H17.5044C17.8568 34.9095 18.1425 34.6238 18.1425 34.2714C18.1425 33.9189 17.8568 33.6332 17.5044 33.6332H7.29389V25.9754C7.29389 24.918 8.15103 24.0609 9.20836 24.0609H21.3333C22.3906 24.0609 23.2478 24.918 23.2478 25.9754V33.6332H20.057C19.7046 33.6332 19.4188 33.9189 19.4188 34.2714C19.4188 34.6238 19.7046 34.9095 20.057 34.9095H23.2478C23.2478 35.9669 22.3906 36.824 21.3333 36.824ZM24.5241 27.8898V25.9754C24.5241 24.2131 23.0955 22.7846 21.3333 22.7846H18.1425V22.1464C18.1425 21.794 18.4282 21.5083 18.7807 21.5083H31.5438C31.8962 21.5083 32.1819 21.794 32.1819 22.1464V22.7846H28.9912C27.229 22.7846 25.8004 24.2131 25.8004 25.9754V27.8898H24.5241ZM39.8398 41.2911C39.8398 41.6435 39.5541 41.9292 39.2017 41.9292H30.9056C30.5532 41.9292 30.2675 41.6435 30.2675 41.2911C30.2675 40.9386 30.5532 40.6529 30.9056 40.6529H39.2017C39.5541 40.6529 39.8398 40.9386 39.8398 41.2911ZM37.5297 39.3766H32.5776L33.2158 38.1003H36.8915L37.5297 39.3766ZM41.1161 36.824H28.9912C27.9338 36.824 27.0767 35.9669 27.0767 34.9095H37.2872C37.6396 34.9095 37.9253 34.6238 37.9253 34.2714C37.9253 33.9189 37.6396 33.6332 37.2872 33.6332H27.0767V25.9754C27.0767 24.918 27.9338 24.0609 28.9912 24.0609H41.1161C42.1735 24.0609 43.0306 24.918 43.0306 25.9754V33.6332H39.8398C39.4874 33.6332 39.2017 33.9189 39.2017 34.2714C39.2017 34.6238 39.4874 34.9095 39.8398 34.9095H43.0306C43.0306 35.9669 42.1735 36.824 41.1161 36.824Z" fill="#6254B8"/>
</g>
<defs>
<clipPath id="clip0_1750_22064">
<rect width="38.9069" height="40.7895" fill="white" transform="translate(5.54688 4.60742)"/>
</clipPath>
</defs>
</svg>
