<svg width="24" height="24" viewBox="0 0 24 24" fill="none" xmlns="http://www.w3.org/2000/svg">
<path fill-rule="evenodd" clip-rule="evenodd" d="M14 3C14 2.44772 13.5523 2 13 2H5C3.9 2 3 2.9 3 4V15C3 15.5523 3.44772 16 4 16C4.55228 16 5 15.5523 5 15V4H13C13.5523 4 14 3.55228 14 3ZM8.86667 6H18.1333C19.16 6 20 6.85 20 7.88889V20.1111C20 21.15 19.16 22 18.1333 22H8.86667C7.84 22 7 21.15 7 20.1111V7.88889C7 6.85 7.84 6 8.86667 6ZM9 8V20H18V8H9ZM13.5 12C12.9477 12 12.5 12.4477 12.5 13V17C12.5 17.5523 12.9477 18 13.5 18C14.0523 18 14.5 17.5523 14.5 17V13C14.5 12.4477 14.0523 12 13.5 12Z" fill="currentColor"/>
<path d="M11 13L13.5 10L16 13H11Z" fill="currentColor"/>
</svg>
