<svg width="16" height="16" viewBox="0 0 16 16" fill="none" xmlns="http://www.w3.org/2000/svg">
    <path fill-rule="evenodd" clip-rule="evenodd" d="M6.66667 2.66732C6.48986 2.66732 6.32029 2.73756 6.19526 2.86258C6.07024 2.9876 6 3.15717 6 3.33398V10.0007C6 10.1775 6.07024 10.347 6.19526 10.4721C6.32029 10.5971 6.48986 10.6673 6.66667 10.6673H12C12.1768 10.6673 12.3464 10.5971 12.4714 10.4721C12.5964 10.347 12.6667 10.1775 12.6667 10.0007V5.61013L9.72393 2.66739L6.66667 2.66732ZM5.25245 1.91977C5.62753 1.5447 6.13623 1.33398 6.66667 1.33398H9.724C10.0776 1.33406 10.4168 1.47456 10.6667 1.72458M10.6667 1.72458L13.6093 4.66718C13.6094 4.6672 13.6093 4.66715 13.6093 4.66718C13.8594 4.91716 13.9999 5.25628 14 5.60984V10.0007C14 10.5311 13.7893 11.0398 13.4142 11.4149C13.0391 11.7899 12.5304 12.0007 12 12.0007H11.3333V12.6673C11.3333 13.1978 11.1226 13.7065 10.7475 14.0815C10.3725 14.4566 9.86377 14.6673 9.33333 14.6673H4C3.46957 14.6673 2.96086 14.4566 2.58579 14.0815C2.21071 13.7065 2 13.1978 2 12.6673V6.00065C2 5.47022 2.21071 4.96151 2.58579 4.58644C2.96086 4.21136 3.46957 4.00065 4 4.00065H4.66667V3.33398C4.66667 2.80355 4.87738 2.29484 5.25245 1.91977M4.66667 5.33398H4C3.82319 5.33398 3.65362 5.40422 3.5286 5.52925C3.40357 5.65427 3.33333 5.82384 3.33333 6.00065V12.6673C3.33333 12.8441 3.40357 13.0137 3.5286 13.1387C3.65362 13.2637 3.82319 13.334 4 13.334H9.33333C9.51014 13.334 9.67971 13.2637 9.80474 13.1387C9.92976 13.0137 10 12.8441 10 12.6673V12.0007H6.66667C6.13623 12.0007 5.62753 11.7899 5.25245 11.4149C4.87738 11.0398 4.66667 10.5311 4.66667 10.0007V5.33398Z" fill="currentColor"/>
</svg>
