<svg width="444" height="241" viewBox="0 0 444 241" fill="none" xmlns="http://www.w3.org/2000/svg">
<rect x="0.0996094" y="233.781" width="443.072" height="7.07029" rx="3.53515" fill="#D9D9D9"/>
<path d="M337.071 49.8373C261.103 27.2257 222.976 -34.113 101.602 27.1668C-8.38492 82.6962 1.00754 202.205 48.7072 233.944C172.478 233.944 375.066 233.851 375.066 233.851C414.617 222.142 480.532 92.5401 337.071 49.8373Z" fill="#FFCE1F" fill-opacity="0.2"/>
<g clip-path="url(#clip0_7839_87179)">
<path d="M185.985 115.115L167.164 133.937L136.645 103.418C134.168 100.933 132.777 97.5684 132.777 94.0603C132.777 90.5522 134.168 87.1872 136.645 84.7026L136.804 84.5431C139.289 82.0665 142.654 80.6758 146.162 80.6758C149.67 80.6758 153.035 82.0665 155.52 84.5431L185.985 115.115Z" fill="#FFC493"/>
<path d="M158.535 87.6821L169.513 98.6602L150.677 117.496L139.699 106.518L158.535 87.6821Z" fill="#26114D"/>
<path d="M193.375 122.508C195.871 125.004 197.273 128.389 197.273 131.919C197.273 135.448 195.871 138.833 193.375 141.329C190.879 143.825 187.494 145.228 183.964 145.228C180.435 145.228 177.05 143.825 174.554 141.329L167.163 133.939L185.985 115.117L193.375 122.508Z" fill="#E5E7EB"/>
<path d="M163.336 228.628C163.334 226.247 163.802 223.889 164.713 221.689C165.624 219.488 166.959 217.489 168.643 215.805C170.327 214.121 172.326 212.786 174.526 211.875C176.727 210.964 179.085 210.496 181.466 210.498L186.836 201.672H227.563L214.324 233.467H163.389L163.336 228.628Z" fill="#26114D"/>
<path d="M306.465 228.628C306.466 226.247 305.998 223.889 305.088 221.689C304.177 219.488 302.841 217.489 301.158 215.805C299.474 214.121 297.475 212.786 295.274 211.875C293.074 210.964 290.716 210.496 288.334 210.498L282.964 201.672H242.29L255.529 233.467H306.465V228.628Z" fill="#26114D"/>
<path d="M183.751 121.441H286.846V145.261H183.751V121.441Z" fill="#E5E7EB"/>
<path d="M187.368 169.08C187.368 147.281 208.796 129.629 235.22 129.629C261.645 129.629 283.072 147.281 283.072 169.08V184.18H187.368V169.08Z" fill="#FFCE1F"/>
<path d="M282.965 201.677H186.9V184.078H282.965V201.677Z" fill="#26114D"/>
<path d="M222.19 148.825L186.886 184.129L203.687 184.182L239.204 148.719L222.19 148.825Z" fill="#514171"/>
<path d="M238.727 132.29L186.888 184.129L203.689 184.183L255.741 132.184L238.727 132.29Z" fill="#514171"/>
<path d="M226.021 75.452C201.298 75.452 181.307 55.301 181.307 30.5244V20.8477L184.763 20.954C184.75 29.2359 188.023 37.1846 193.864 43.0557C199.706 48.9269 207.638 52.2408 215.919 52.2704H226.021" fill="#E5E7EB"/>
<path d="M203.159 96.4023H267.121V113.629H203.159V96.4023Z" fill="#FFC493"/>
<path d="M207.356 111.764C204.889 111.764 202.89 109.765 202.89 107.298C202.89 104.832 204.889 102.832 207.356 102.832C209.823 102.832 211.822 104.832 211.822 107.298C211.822 109.765 209.823 111.764 207.356 111.764Z" fill="#FFE1C9"/>
<path d="M216.344 100.919C216.344 99.7348 215.873 98.5988 215.036 97.7612C214.198 96.9237 213.062 96.4531 211.878 96.4531C210.693 96.4531 209.557 96.9237 208.72 97.7612C207.882 98.5988 207.411 99.7348 207.411 100.919H216.344Z" fill="#26114D"/>
<path d="M241.599 100.919C241.599 99.7348 241.128 98.5988 240.291 97.7612C239.453 96.9237 238.317 96.4531 237.132 96.4531C235.948 96.4531 234.812 96.9237 233.974 97.7612C233.137 98.5988 232.666 99.7348 232.666 100.919H241.599Z" fill="#26114D"/>
<path d="M269.192 82.4165C269.208 73.3581 265.627 64.664 259.237 58.2439C252.847 51.8237 244.169 48.2025 235.111 48.1758C216.343 48.1758 201.03 63.5415 201.03 82.4165H269.192Z" fill="#26114D"/>
<path d="M217.512 82.418H231.442V106.663H217.512V82.418Z" fill="#E5E7EB"/>
<path d="M238.301 113.627C238.301 111.794 237.573 110.036 236.276 108.739C234.98 107.443 233.222 106.715 231.389 106.715C229.556 106.715 227.798 107.443 226.501 108.739C225.205 110.036 224.477 111.794 224.477 113.627H238.301Z" fill="#26114D"/>
<path d="M224.531 113.627C224.531 111.794 223.803 110.036 222.507 108.739C221.211 107.443 219.452 106.715 217.619 106.715C215.786 106.715 214.028 107.443 212.732 108.739C211.436 110.036 210.707 111.794 210.707 113.627H224.531Z" fill="#26114D"/>
<path d="M241.597 111.764C239.131 111.764 237.131 109.765 237.131 107.298C237.131 104.832 239.131 102.832 241.597 102.832C244.064 102.832 246.063 104.832 246.063 107.298C246.063 109.765 244.064 111.764 241.597 111.764Z" fill="#FFE1C9"/>
<path d="M196.458 149.14V95.6523H203.264V132.817L196.458 149.14Z" fill="#26114D"/>
<path d="M200.98 113.094C200.98 141.911 222.567 156.001 222.567 156.001C222.567 156.001 244.153 143.719 244.153 113.094H200.98Z" fill="#26114D"/>
<path d="M259.463 99.3768V89.5938H272.648V113.094C272.648 138.775 254.518 149.036 254.518 149.036C254.518 149.036 236.387 137.233 236.387 113.094H245.745C247.548 113.099 249.334 112.748 251 112.06C252.667 111.373 254.181 110.362 255.456 109.088C256.731 107.813 257.741 106.299 258.428 104.632C259.116 102.966 259.468 101.18 259.463 99.3768Z" fill="#26114D"/>
<path d="M214.547 113.094C214.547 138.774 196.416 149.036 196.416 149.036V113.094H214.547Z" fill="#26114D"/>
<path d="M266.694 113.305C266.694 113.305 267.014 128.139 255.104 140.049" stroke="#514171" stroke-width="2.19055" stroke-miterlimit="10"/>
<path d="M216.343 113.625C216.343 115.782 217.2 117.852 218.725 119.377C220.251 120.903 222.32 121.76 224.477 121.76C226.635 121.76 228.704 120.903 230.23 119.377C231.755 117.852 232.612 115.782 232.612 113.625H216.343Z" fill="white"/>
<path d="M194.121 82.418H276.107V96.4014H194.121V82.418Z" fill="#E5E7EB"/>
<path d="M228.573 88H245.853V90.8179H228.573V88Z" fill="#26114D"/>
<path d="M203.264 88H220.544V90.8179H203.264V88Z" fill="#26114D"/>
<path d="M250.373 52.2704H260.688C264.79 52.2599 268.85 51.4416 272.636 49.8622C276.421 48.2827 279.859 45.973 282.752 43.065C285.645 40.157 287.938 36.7076 289.498 32.9138C291.058 29.12 291.855 25.0561 291.845 20.954L295.301 20.8477V30.5244C295.301 55.3542 275.256 75.452 250.586 75.452V75.3988H250.373C247.306 75.3988 244.365 74.1804 242.196 72.0117C240.027 69.843 238.809 66.9016 238.809 63.8346C238.809 60.7676 240.027 57.8262 242.196 55.6575C244.365 53.4888 247.306 52.2704 250.373 52.2704Z" fill="#E5E7EB"/>
<path fill-rule="evenodd" clip-rule="evenodd" d="M276.084 58.0234C268.455 65.4447 258.834 69.5167 248.987 69.5167H238.672V71.7073H248.987C259.451 71.7073 269.609 67.3787 277.611 59.5936L276.084 58.0234Z" fill="#514171"/>
<g filter="url(#filter0_d_7839_87179)">
<path d="M262.6 163.953L279.079 184.778L275.642 187.566C274.273 188.64 272.706 189.433 271.03 189.9C269.354 190.366 267.602 190.497 265.875 190.285C264.149 190.072 262.481 189.521 260.968 188.662C259.455 187.803 258.127 186.654 257.059 185.28L256.928 185.112C254.776 182.356 253.807 178.857 254.234 175.386C254.661 171.916 256.449 168.756 259.206 166.604L262.6 163.953Z" fill="#FFC493"/>
<path d="M262.688 163.887L274.925 154.332L291.348 175.364L279.112 184.919L262.688 163.887Z" fill="#26114D"/>
<path d="M291.305 175.316L274.804 154.334C274.804 154.334 273.579 146.346 273.579 144.733C273.579 143.12 300.071 145.087 300.071 145.087C300.071 145.087 303.817 153.987 302.973 160.482C301.978 168.146 295.741 170.51 291.305 175.316Z" fill="#FFC493"/>
</g>
<path d="M273.5 134.787C273.5 131.247 274.906 127.853 277.408 125.35C279.911 122.847 283.306 121.441 286.845 121.441C290.384 121.441 293.779 122.847 296.282 125.35C298.784 127.853 300.19 131.247 300.19 134.787V145.261H273.564L273.51 134.787H273.5Z" fill="#E5E7EB"/>
<path d="M82.1482 102.477H205.684C207.77 102.477 209.467 104.074 209.467 106.038L209.467 177.699C209.467 180.207 207.306 182.241 204.643 182.241H81.9337C79.9642 182.241 78.3652 180.735 78.3652 178.881L78.3653 106.038C78.3653 104.074 80.0618 102.477 82.1482 102.477Z" fill="#6254B8"/>
<path d="M113.431 109.102H100.951V111.454H113.431V109.102Z" fill="#BDB7DE" fill-opacity="0.4"/>
<path d="M107.189 119.645H100.951V121.997H107.189V119.645Z" fill="#7A6FBD"/>
<path d="M152.342 162.168H100.423V164.521H152.342V162.168Z" fill="#BDB7DE" fill-opacity="0.4"/>
<path d="M141.147 114.09H100.951V116.443H141.147V114.09Z" fill="#BDB7DE" fill-opacity="0.4"/>
<path d="M163.945 114.09H143.521V116.443H163.945V114.09Z" fill="#BDB7DE" fill-opacity="0.4"/>
<path d="M124.57 109.102H115.382V111.454H124.57V109.102Z" fill="#7A6FBD"/>
<path d="M91.4267 109.32H88.7891V111.673H91.4267V109.32Z" fill="#BDB7DE" fill-opacity="0.4"/>
<path d="M91.4267 114.801H88.7891V117.154H91.4267V114.801Z" fill="#BDB7DE" fill-opacity="0.4"/>
<path d="M91.4267 120.281H88.7891V122.634H91.4267V120.281Z" fill="#BDB7DE" fill-opacity="0.4"/>
<path d="M91.4267 125.762H88.7891V128.115H91.4267V125.762Z" fill="#BDB7DE" fill-opacity="0.4"/>
<path d="M91.4267 131.242H88.7891V133.595H91.4267V131.242Z" fill="#BDB7DE" fill-opacity="0.4"/>
<path d="M91.4267 136.723H88.7891V139.075H91.4267V136.723Z" fill="#BDB7DE" fill-opacity="0.4"/>
<path d="M91.4267 142.203H88.7891V144.556H91.4267V142.203Z" fill="#BDB7DE" fill-opacity="0.4"/>
<path d="M91.4267 147.684H88.7891V150.036H91.4267V147.684Z" fill="#BDB7DE" fill-opacity="0.4"/>
<path d="M91.4267 153.164H88.7891V155.517H91.4267V153.164Z" fill="#BDB7DE" fill-opacity="0.4"/>
<path d="M91.4267 158.645H88.7891V160.997H91.4267V158.645Z" fill="#BDB7DE" fill-opacity="0.4"/>
<path d="M91.4267 164.125H88.7891V166.478H91.4267V164.125Z" fill="#BDB7DE" fill-opacity="0.4"/>
<path d="M91.4267 169.605H88.7891V171.958H91.4267V169.605Z" fill="#BDB7DE" fill-opacity="0.4"/>
<path d="M112.942 167.59H100.423V169.943H112.942V167.59Z" fill="#BDB7DE" fill-opacity="0.4"/>
<path d="M143.672 167.59H115.355V169.943H143.672V167.59Z" fill="#BDB7DE" fill-opacity="0.4"/>
<path d="M96.0812 104.852C96.1343 104.852 96.1799 120.626 96.1799 140.077C96.1799 159.528 96.1343 175.305 96.0812 175.305C96.028 175.305 95.9824 159.535 95.9824 140.077C95.9824 120.619 96.028 104.852 96.0812 104.852Z" fill="#6B7280"/>
<path d="M107.667 127.258L108.44 129.377C107.602 129.676 107.032 130.205 106.728 130.966C106.424 131.718 106.273 132.587 106.273 133.574V136.345C106.273 137.26 106.065 138.088 105.651 138.831C105.246 139.573 104.602 140.166 103.719 140.61C102.835 141.045 101.68 141.262 100.254 141.262V139.197C101.128 139.197 101.754 138.939 102.131 138.423C102.518 137.907 102.711 137.214 102.711 136.345V133.574C102.711 132.623 102.858 131.736 103.153 130.912C103.456 130.079 103.967 129.35 104.685 128.725C105.412 128.091 106.406 127.602 107.667 127.258ZM108.44 151.735L107.667 153.867C106.406 153.514 105.412 153.021 104.685 152.387C103.967 151.762 103.456 151.033 103.153 150.2C102.858 149.376 102.711 148.488 102.711 147.538V144.767C102.711 144.187 102.624 143.684 102.449 143.259C102.283 142.833 102.021 142.507 101.662 142.281C101.303 142.045 100.834 141.928 100.254 141.928V139.849C101.68 139.849 102.835 140.071 103.719 140.515C104.602 140.95 105.246 141.538 105.651 142.281C106.065 143.023 106.273 143.852 106.273 144.767V147.538C106.273 148.199 106.337 148.81 106.466 149.371C106.604 149.933 106.825 150.417 107.128 150.825C107.441 151.232 107.878 151.536 108.44 151.735Z" fill="white"/>
<path d="M116.496 131.998H122.92C124.238 131.998 125.37 132.192 126.316 132.581C127.271 132.969 128.004 133.543 128.517 134.304C129.03 135.064 129.286 136 129.286 137.11C129.286 138.018 129.128 138.798 128.813 139.45C128.505 140.094 128.067 140.633 127.499 141.068C126.939 141.495 126.281 141.837 125.523 142.093L124.399 142.675H118.815L118.791 139.95H122.944C123.567 139.95 124.084 139.842 124.494 139.624C124.904 139.407 125.212 139.104 125.417 138.716C125.63 138.328 125.736 137.878 125.736 137.366C125.736 136.822 125.634 136.353 125.429 135.957C125.224 135.561 124.912 135.258 124.494 135.049C124.076 134.839 123.551 134.734 122.92 134.734H120.045V148.95H116.496V131.998ZM126.127 148.95L122.199 141.394L125.949 141.371L129.925 148.787V148.95H126.127Z" fill="white"/>
<path d="M144.387 146.226V148.95H135.217V146.226H144.387ZM136.377 131.998V148.95H132.827V131.998H136.377ZM143.192 138.903V141.557H135.217V138.903H143.192ZM144.375 131.998V134.734H135.217V131.998H144.375Z" fill="white"/>
<path d="M156.234 144.514C156.234 144.212 156.187 143.94 156.092 143.699C156.006 143.451 155.84 143.226 155.595 143.024C155.351 142.815 155.008 142.609 154.566 142.407C154.124 142.205 153.552 141.996 152.85 141.778C152.069 141.53 151.328 141.25 150.626 140.94C149.932 140.63 149.316 140.269 148.78 139.857C148.251 139.438 147.833 138.953 147.526 138.402C147.226 137.851 147.076 137.21 147.076 136.481C147.076 135.775 147.234 135.134 147.549 134.56C147.865 133.978 148.307 133.481 148.875 133.069C149.443 132.65 150.113 132.328 150.886 132.103C151.667 131.878 152.523 131.766 153.454 131.766C154.724 131.766 155.832 131.991 156.779 132.441C157.725 132.891 158.459 133.508 158.979 134.292C159.508 135.076 159.772 135.972 159.772 136.981H156.246C156.246 136.485 156.14 136.05 155.927 135.677C155.722 135.297 155.406 134.998 154.98 134.781C154.562 134.564 154.033 134.455 153.395 134.455C152.779 134.455 152.267 134.548 151.856 134.734C151.446 134.913 151.139 135.157 150.933 135.468C150.728 135.771 150.626 136.112 150.626 136.492C150.626 136.78 150.697 137.04 150.839 137.273C150.989 137.505 151.21 137.723 151.501 137.925C151.793 138.126 152.152 138.317 152.578 138.495C153.004 138.674 153.497 138.848 154.057 139.019C154.996 139.298 155.82 139.613 156.53 139.962C157.248 140.311 157.847 140.703 158.329 141.138C158.81 141.573 159.173 142.065 159.417 142.617C159.662 143.168 159.784 143.792 159.784 144.491C159.784 145.228 159.638 145.888 159.346 146.47C159.054 147.052 158.632 147.545 158.08 147.949C157.528 148.353 156.869 148.659 156.104 148.869C155.339 149.078 154.483 149.183 153.537 149.183C152.685 149.183 151.845 149.074 151.016 148.857C150.188 148.632 149.435 148.294 148.756 147.844C148.086 147.394 147.549 146.82 147.147 146.121C146.745 145.422 146.544 144.596 146.544 143.641H150.105C150.105 144.169 150.188 144.615 150.354 144.98C150.519 145.345 150.752 145.64 151.052 145.865C151.359 146.09 151.722 146.253 152.14 146.354C152.566 146.455 153.032 146.505 153.537 146.505C154.152 146.505 154.657 146.42 155.051 146.249C155.453 146.078 155.749 145.842 155.938 145.539C156.136 145.236 156.234 144.895 156.234 144.514Z" fill="white"/>
<path d="M170.708 131.998V148.95H167.17V131.998H170.708ZM176.009 131.998V134.734H161.952V131.998H176.009Z" fill="white"/>
<path d="M182.459 129.377L183.232 127.258C184.502 127.602 185.496 128.091 186.214 128.725C186.932 129.35 187.438 130.079 187.733 130.912C188.036 131.736 188.188 132.623 188.188 133.574V136.345C188.188 136.925 188.271 137.427 188.437 137.853C188.602 138.278 188.865 138.609 189.223 138.844C189.592 139.08 190.065 139.197 190.645 139.197V141.208C189.219 141.208 188.064 140.995 187.18 140.569C186.297 140.144 185.648 139.564 185.234 138.831C184.82 138.088 184.613 137.26 184.613 136.345V133.574C184.613 132.913 184.548 132.302 184.42 131.74C184.3 131.179 184.084 130.694 183.771 130.287C183.458 129.879 183.021 129.576 182.459 129.377ZM183.232 153.867L182.459 151.735C183.021 151.536 183.458 151.232 183.771 150.825C184.084 150.417 184.3 149.933 184.42 149.371C184.548 148.81 184.613 148.199 184.613 147.538V144.767C184.613 143.852 184.82 143.028 185.234 142.294C185.648 141.561 186.297 140.981 187.18 140.556C188.064 140.121 189.219 139.904 190.645 139.904V141.928C189.78 141.928 189.154 142.186 188.768 142.702C188.381 143.218 188.188 143.906 188.188 144.767V147.538C188.188 148.488 188.036 149.376 187.733 150.2C187.438 151.033 186.932 151.762 186.214 152.387C185.496 153.021 184.502 153.514 183.232 153.867Z" fill="white"/>
<path d="M220.157 158.82H168.672C165.421 158.82 162.786 161.456 162.786 164.706V194.761C162.786 198.012 165.421 200.647 168.672 200.647H220.157C223.407 200.647 226.043 198.012 226.043 194.761V164.706C226.043 161.456 223.407 158.82 220.157 158.82Z" fill="#6B7280"/>
<path d="M215.913 158.82H164.429C161.178 158.82 158.543 161.456 158.543 164.706V194.761C158.543 198.012 161.178 200.647 164.429 200.647H215.913C219.164 200.647 221.799 198.012 221.799 194.761V164.706C221.799 161.456 219.164 158.82 215.913 158.82Z" fill="#D1D5DB"/>
<path d="M193.687 175.033L193.107 174.773L195.874 169.054L196.447 169.324L193.687 175.033ZM200.201 170.466L200.396 171.072C200.259 171.117 200.109 171.148 199.944 171.163C199.781 171.178 199.599 171.186 199.397 171.186C199.603 171.277 199.758 171.394 199.862 171.537C199.966 171.678 200.019 171.852 200.019 172.058C200.019 172.282 199.964 172.481 199.856 172.657C199.747 172.833 199.592 172.971 199.39 173.07C199.188 173.17 198.947 173.22 198.664 173.22C198.565 173.22 198.478 173.216 198.404 173.207C198.332 173.198 198.262 173.184 198.192 173.165C198.149 173.195 198.112 173.236 198.082 173.288C198.054 173.338 198.039 173.392 198.039 173.448C198.039 173.517 198.068 173.578 198.124 173.63C198.183 173.68 198.298 173.705 198.469 173.705H199.068C199.313 173.705 199.529 173.747 199.716 173.832C199.905 173.915 200.052 174.028 200.158 174.174C200.267 174.317 200.321 174.48 200.321 174.662C200.321 175.005 200.174 175.271 199.879 175.46C199.583 175.648 199.158 175.743 198.603 175.743C198.21 175.743 197.902 175.703 197.678 175.622C197.455 175.542 197.297 175.423 197.206 175.264C197.115 175.106 197.069 174.912 197.069 174.682H197.724C197.724 174.801 197.747 174.9 197.792 174.978C197.84 175.056 197.928 175.115 198.056 175.154C198.184 175.193 198.368 175.212 198.609 175.212C198.85 175.212 199.041 175.192 199.182 175.15C199.325 175.111 199.428 175.054 199.491 174.978C199.556 174.904 199.589 174.815 199.589 174.711C199.589 174.572 199.528 174.465 199.407 174.389C199.285 174.313 199.122 174.275 198.918 174.275H198.329C198.004 174.275 197.765 174.209 197.613 174.076C197.463 173.944 197.388 173.79 197.388 173.614C197.388 173.497 197.421 173.384 197.486 173.275C197.553 173.167 197.649 173.073 197.773 172.992C197.566 172.884 197.416 172.752 197.32 172.598C197.227 172.442 197.18 172.253 197.18 172.032C197.18 171.789 197.241 171.576 197.362 171.394C197.484 171.212 197.652 171.07 197.867 170.968C198.084 170.866 198.333 170.815 198.616 170.815C198.891 170.815 199.121 170.801 199.306 170.772C199.49 170.742 199.651 170.7 199.787 170.645C199.926 170.591 200.064 170.531 200.201 170.466ZM198.622 171.316C198.39 171.316 198.215 171.382 198.098 171.514C197.981 171.645 197.922 171.815 197.922 172.026C197.922 172.243 197.982 172.417 198.101 172.55C198.223 172.68 198.4 172.745 198.632 172.745C198.847 172.745 199.011 172.682 199.123 172.556C199.238 172.43 199.296 172.251 199.296 172.019C199.296 171.785 199.239 171.609 199.127 171.492C199.014 171.375 198.846 171.316 198.622 171.316ZM201.816 172.856C201.831 173.09 201.881 173.282 201.966 173.432C202.05 173.579 202.161 173.688 202.298 173.757C202.437 173.827 202.589 173.861 202.753 173.861C202.923 173.861 203.079 173.835 203.222 173.783C203.365 173.731 203.51 173.657 203.655 173.562L203.971 173.998C203.81 174.128 203.623 174.232 203.408 174.311C203.193 174.389 202.963 174.428 202.718 174.428C202.362 174.428 202.06 174.352 201.813 174.2C201.568 174.048 201.381 173.836 201.253 173.565C201.125 173.294 201.061 172.98 201.061 172.624C201.061 172.279 201.124 171.971 201.25 171.7C201.375 171.427 201.556 171.211 201.79 171.052C202.024 170.892 202.304 170.811 202.63 170.811C202.936 170.811 203.198 170.881 203.417 171.02C203.639 171.159 203.809 171.356 203.928 171.612C204.05 171.866 204.111 172.172 204.111 172.53C204.111 172.589 204.109 172.647 204.104 172.706C204.102 172.762 204.099 172.812 204.094 172.856H201.816ZM202.636 171.352C202.408 171.352 202.22 171.433 202.07 171.596C201.922 171.759 201.837 172.013 201.813 172.358H203.404C203.398 172.034 203.328 171.786 203.196 171.612C203.066 171.439 202.879 171.352 202.636 171.352ZM207.985 174.158C207.859 174.238 207.708 174.303 207.532 174.353C207.357 174.403 207.173 174.428 206.982 174.428C206.583 174.428 206.279 174.325 206.071 174.119C205.865 173.91 205.762 173.637 205.762 173.298V171.433H204.997V170.903H205.762V170.134L206.491 170.046V170.903H207.65L207.568 171.433H206.491V173.292C206.491 173.476 206.536 173.614 206.628 173.705C206.721 173.794 206.873 173.839 207.083 173.839C207.209 173.839 207.325 173.823 207.432 173.793C207.538 173.763 207.634 173.724 207.721 173.676L207.985 174.158Z" fill="#485159"/>
<path d="M193.687 190.006L193.107 189.745L195.874 184.026L196.447 184.297L193.687 190.006ZM198.983 185.784C199.287 185.784 199.53 185.859 199.713 186.009C199.895 186.156 200.027 186.366 200.11 186.637C200.192 186.906 200.233 187.223 200.233 187.587C200.233 187.937 200.183 188.248 200.084 188.522C199.984 188.795 199.835 189.01 199.638 189.166C199.442 189.322 199.199 189.4 198.909 189.4C198.548 189.4 198.258 189.273 198.036 189.02V190.634L197.307 190.715V185.875H197.942L197.987 186.318C198.118 186.14 198.268 186.006 198.44 185.918C198.613 185.829 198.795 185.784 198.983 185.784ZM198.782 186.347C198.619 186.347 198.476 186.396 198.352 186.494C198.228 186.591 198.123 186.706 198.036 186.839V188.447C198.119 188.57 198.216 188.666 198.329 188.733C198.444 188.798 198.573 188.831 198.717 188.831C198.962 188.831 199.148 188.732 199.276 188.535C199.404 188.337 199.468 188.022 199.468 187.591C199.468 187.298 199.442 187.06 199.39 186.878C199.34 186.693 199.264 186.559 199.162 186.474C199.063 186.389 198.936 186.347 198.782 186.347ZM202.587 185.784C202.924 185.784 203.207 185.859 203.437 186.009C203.667 186.158 203.841 186.368 203.958 186.637C204.077 186.906 204.137 187.223 204.137 187.587C204.137 187.95 204.076 188.268 203.955 188.541C203.835 188.812 203.659 189.024 203.427 189.176C203.197 189.326 202.916 189.4 202.584 189.4C202.252 189.4 201.97 189.328 201.738 189.182C201.508 189.035 201.332 188.825 201.211 188.554C201.091 188.283 201.032 187.963 201.032 187.594C201.032 187.236 201.091 186.921 201.211 186.65C201.332 186.379 201.509 186.167 201.741 186.015C201.973 185.861 202.255 185.784 202.587 185.784ZM202.587 186.35C202.325 186.35 202.127 186.451 201.995 186.653C201.863 186.853 201.796 187.166 201.796 187.594C201.796 188.019 201.862 188.333 201.992 188.535C202.124 188.736 202.322 188.837 202.584 188.837C202.847 188.837 203.043 188.736 203.173 188.535C203.306 188.333 203.372 188.017 203.372 187.587C203.372 187.164 203.307 186.853 203.177 186.653C203.046 186.451 202.85 186.35 202.587 186.35ZM206.364 188.841C206.592 188.841 206.773 188.8 206.908 188.72C207.042 188.638 207.109 188.525 207.109 188.382C207.109 188.288 207.09 188.209 207.051 188.144C207.012 188.077 206.934 188.016 206.816 187.962C206.699 187.905 206.521 187.847 206.283 187.786C206.057 187.727 205.858 187.658 205.687 187.578C205.518 187.497 205.386 187.393 205.293 187.265C205.2 187.137 205.153 186.972 205.153 186.77C205.153 186.573 205.208 186.4 205.319 186.253C205.43 186.105 205.588 185.99 205.794 185.908C206.003 185.825 206.247 185.784 206.527 185.784C206.815 185.784 207.067 185.822 207.282 185.898C207.497 185.974 207.68 186.068 207.832 186.181L207.526 186.64C207.391 186.551 207.244 186.478 207.083 186.422C206.925 186.366 206.746 186.337 206.546 186.337C206.314 186.337 206.147 186.372 206.045 186.442C205.945 186.511 205.895 186.603 205.895 186.718C205.895 186.803 205.92 186.874 205.97 186.933C206.022 186.99 206.111 187.043 206.237 187.093C206.363 187.14 206.541 187.197 206.771 187.262C206.994 187.323 207.189 187.394 207.353 187.477C207.521 187.559 207.65 187.669 207.741 187.805C207.834 187.94 207.881 188.116 207.881 188.333C207.881 188.58 207.809 188.783 207.666 188.941C207.525 189.098 207.338 189.214 207.106 189.29C206.876 189.363 206.629 189.4 206.364 189.4C206.045 189.4 205.769 189.355 205.537 189.264C205.305 189.17 205.11 189.054 204.951 188.915L205.339 188.473C205.473 188.581 205.627 188.67 205.801 188.74C205.974 188.807 206.162 188.841 206.364 188.841ZM211.888 189.13C211.763 189.211 211.612 189.276 211.436 189.326C211.26 189.375 211.077 189.4 210.886 189.4C210.487 189.4 210.183 189.297 209.974 189.091C209.768 188.883 209.665 188.609 209.665 188.271V186.406H208.9V185.875H209.665V185.107L210.394 185.019V185.875H211.553L211.472 186.406H210.394V188.264C210.394 188.449 210.44 188.587 210.531 188.678C210.624 188.767 210.776 188.811 210.987 188.811C211.113 188.811 211.229 188.796 211.335 188.766C211.441 188.735 211.538 188.696 211.625 188.648L211.888 189.13Z" fill="#485159"/>
<path d="M177.348 172.645V174.448C177.28 174.535 177.173 174.629 177.027 174.731C176.883 174.832 176.694 174.92 176.461 174.995C176.228 175.067 175.942 175.103 175.603 175.103C175.308 175.103 175.039 175.054 174.795 174.956C174.552 174.857 174.342 174.712 174.166 174.521C173.99 174.33 173.854 174.097 173.759 173.822C173.664 173.546 173.616 173.231 173.616 172.878V172.572C173.616 172.218 173.66 171.904 173.749 171.628C173.841 171.353 173.97 171.12 174.137 170.929C174.307 170.738 174.509 170.593 174.744 170.493C174.982 170.394 175.247 170.344 175.539 170.344C175.931 170.344 176.253 170.409 176.505 170.538C176.76 170.667 176.955 170.845 177.09 171.072C177.226 171.297 177.311 171.555 177.345 171.848H176.493C176.469 171.687 176.423 171.546 176.353 171.425C176.283 171.302 176.183 171.207 176.054 171.139C175.927 171.069 175.762 171.034 175.558 171.034C175.387 171.034 175.235 171.068 175.104 171.136C174.972 171.203 174.862 171.302 174.773 171.431C174.684 171.56 174.616 171.72 174.57 171.911C174.525 172.102 174.503 172.32 174.503 172.566V172.878C174.503 173.125 174.528 173.346 174.579 173.539C174.63 173.729 174.703 173.89 174.798 174.022C174.896 174.151 175.016 174.25 175.158 174.317C175.302 174.383 175.465 174.416 175.647 174.416C175.812 174.416 175.949 174.402 176.057 174.375C176.167 174.345 176.255 174.31 176.321 174.27C176.387 174.23 176.438 174.19 176.474 174.152V173.284H175.555V172.645H177.348ZM181.307 174.352V175.039H178.846V174.352H181.307ZM179.114 170.411V175.039H178.239V170.411H179.114ZM180.986 172.321V172.992H178.846V172.321H180.986ZM181.297 170.411V171.101H178.846V170.411H181.297ZM184.029 170.411V175.039H183.158V170.411H184.029ZM185.466 170.411V171.101H181.737V170.411H185.466Z" fill="#485159"/>
<path d="M173.564 187.671H172.372V186.985H173.564C173.759 186.985 173.917 186.953 174.037 186.89C174.16 186.824 174.25 186.735 174.308 186.622C174.365 186.508 174.393 186.378 174.393 186.232C174.393 186.09 174.365 185.957 174.308 185.834C174.25 185.711 174.16 185.612 174.037 185.535C173.917 185.459 173.759 185.421 173.564 185.421H172.658V189.359H171.784V184.731H173.564C173.924 184.731 174.231 184.796 174.486 184.925C174.742 185.052 174.937 185.229 175.07 185.456C175.206 185.681 175.274 185.937 175.274 186.225C175.274 186.524 175.206 186.781 175.07 186.998C174.937 187.214 174.742 187.38 174.486 187.497C174.231 187.613 173.924 187.671 173.564 187.671ZM179.773 186.928V187.166C179.773 187.516 179.727 187.83 179.633 188.11C179.54 188.388 179.408 188.624 179.236 188.819C179.064 189.014 178.86 189.163 178.623 189.267C178.385 189.371 178.121 189.423 177.831 189.423C177.545 189.423 177.282 189.371 177.043 189.267C176.805 189.163 176.6 189.014 176.426 188.819C176.252 188.624 176.118 188.388 176.022 188.11C175.927 187.83 175.879 187.516 175.879 187.166V186.928C175.879 186.576 175.927 186.261 176.022 185.984C176.118 185.706 176.251 185.47 176.423 185.275C176.595 185.078 176.799 184.927 177.036 184.823C177.276 184.72 177.539 184.668 177.825 184.668C178.115 184.668 178.379 184.72 178.616 184.823C178.854 184.927 179.058 185.078 179.23 185.275C179.404 185.47 179.537 185.706 179.63 185.984C179.726 186.261 179.773 186.576 179.773 186.928ZM178.89 187.166V186.921C178.89 186.669 178.866 186.448 178.82 186.257C178.773 186.064 178.704 185.902 178.613 185.771C178.522 185.639 178.41 185.541 178.276 185.475C178.143 185.407 177.992 185.373 177.825 185.373C177.655 185.373 177.505 185.407 177.373 185.475C177.244 185.541 177.134 185.639 177.043 185.771C176.952 185.902 176.882 186.064 176.833 186.257C176.786 186.448 176.763 186.669 176.763 186.921V187.166C176.763 187.416 176.786 187.638 176.833 187.83C176.882 188.023 176.952 188.186 177.043 188.32C177.136 188.451 177.248 188.551 177.38 188.619C177.511 188.687 177.662 188.72 177.831 188.72C178.001 188.72 178.151 188.687 178.282 188.619C178.414 188.551 178.524 188.451 178.613 188.32C178.704 188.186 178.773 188.023 178.82 187.83C178.866 187.638 178.89 187.416 178.89 187.166ZM183.001 188.158C183.001 188.069 182.987 187.989 182.96 187.919C182.934 187.847 182.887 187.783 182.817 187.726C182.749 187.666 182.653 187.609 182.528 187.554C182.405 187.497 182.246 187.437 182.051 187.376C181.835 187.308 181.633 187.232 181.447 187.147C181.26 187.062 181.096 186.964 180.954 186.851C180.814 186.739 180.705 186.61 180.627 186.464C180.548 186.315 180.509 186.144 180.509 185.949C180.509 185.758 180.549 185.584 180.63 185.427C180.713 185.27 180.829 185.136 180.98 185.024C181.13 184.909 181.307 184.821 181.51 184.76C181.716 184.698 181.943 184.668 182.191 184.668C182.534 184.668 182.831 184.73 183.081 184.855C183.333 184.98 183.528 185.15 183.666 185.364C183.803 185.578 183.872 185.818 183.872 186.085H183.001C183.001 185.941 182.97 185.814 182.909 185.704C182.85 185.594 182.759 185.507 182.636 185.443C182.515 185.38 182.362 185.348 182.178 185.348C182 185.348 181.852 185.374 181.733 185.427C181.616 185.48 181.528 185.552 181.469 185.643C181.412 185.735 181.383 185.836 181.383 185.949C181.383 186.033 181.403 186.11 181.444 186.177C181.484 186.243 181.544 186.306 181.625 186.365C181.705 186.422 181.805 186.476 181.924 186.527C182.044 186.576 182.184 186.625 182.343 186.673C182.598 186.75 182.82 186.834 183.011 186.928C183.204 187.021 183.364 187.127 183.491 187.246C183.62 187.364 183.716 187.498 183.78 187.646C183.846 187.794 183.879 187.963 183.879 188.151C183.879 188.351 183.839 188.529 183.761 188.685C183.683 188.842 183.57 188.976 183.424 189.086C183.278 189.196 183.102 189.28 182.896 189.337C182.693 189.394 182.465 189.423 182.213 189.423C181.988 189.423 181.766 189.393 181.545 189.334C181.327 189.272 181.129 189.181 180.951 189.061C180.773 188.938 180.631 188.783 180.525 188.596C180.419 188.408 180.366 188.187 180.366 187.935H181.243C181.243 188.082 181.267 188.207 181.313 188.31C181.362 188.412 181.43 188.496 181.517 188.562C181.606 188.625 181.71 188.672 181.828 188.701C181.947 188.731 182.075 188.746 182.213 188.746C182.391 188.746 182.537 188.722 182.652 188.673C182.768 188.622 182.855 188.552 182.912 188.463C182.972 188.374 183.001 188.272 183.001 188.158ZM186.604 184.731V189.359H185.733V184.731H186.604ZM188.041 184.731V185.421H184.312V184.731H188.041Z" fill="#485159"/>
<path fill-rule="evenodd" clip-rule="evenodd" d="M167.989 183.409C167.989 181.916 169.199 180.707 170.692 180.707H187.943C189.436 180.707 190.645 181.916 190.645 183.409V189.982C190.645 191.475 189.436 192.684 187.943 192.684H176.551C176.321 192.684 176.134 192.498 176.134 192.268C176.134 192.038 176.321 191.851 176.551 191.851H187.943C188.976 191.851 189.812 191.015 189.812 189.982V183.409C189.812 182.376 188.976 181.54 187.943 181.54H170.692C169.659 181.54 168.822 182.376 168.822 183.409V189.982C168.822 191.015 169.659 191.851 170.692 191.851H174.068C174.298 191.851 174.484 192.038 174.484 192.268C174.484 192.498 174.298 192.684 174.068 192.684H170.692C169.199 192.684 167.989 191.475 167.989 189.982V183.409Z" fill="#485159"/>
<path fill-rule="evenodd" clip-rule="evenodd" d="M167.989 175.661C167.989 177.154 169.199 178.363 170.692 178.363H187.943C189.436 178.363 190.645 177.154 190.645 175.661V169.089C190.645 167.596 189.436 166.386 187.943 166.386H185.013C184.783 166.386 184.597 166.573 184.597 166.803C184.597 167.033 184.783 167.219 185.013 167.219H187.943C188.976 167.219 189.812 168.056 189.812 169.089V175.661C189.812 176.694 188.976 177.53 187.943 177.53H170.692C169.659 177.53 168.822 176.694 168.822 175.661V169.089C168.822 168.056 169.659 167.219 170.692 167.219H182.53C182.76 167.219 182.947 167.033 182.947 166.803C182.947 166.573 182.76 166.386 182.53 166.386H170.692C169.199 166.386 167.989 167.596 167.989 169.089V175.661Z" fill="#485159"/>
<g filter="url(#filter1_d_7839_87179)">
<path d="M146.524 108.217C150.176 108.217 153.679 106.766 156.262 104.184C158.844 101.601 160.295 98.0987 160.295 94.4465C160.295 90.7943 158.844 87.2916 156.262 84.7091C153.679 82.1266 150.176 80.6758 146.524 80.6758V108.217Z" fill="#FFC493"/>
</g>
<path d="M146.521 80.6758C142.876 80.6758 139.38 82.1238 136.803 84.7013C134.225 87.2789 132.777 90.7747 132.777 94.4199C132.777 98.0651 134.225 101.561 136.803 104.138C139.38 106.716 142.876 108.164 146.521 108.164V80.6758Z" fill="#FFC493"/>
</g>
<defs>
<filter id="filter0_d_7839_87179" x="246.867" y="135.371" width="67.9911" height="62.1601" filterUnits="userSpaceOnUse" color-interpolation-filters="sRGB">
<feFlood flood-opacity="0" result="BackgroundImageFix"/>
<feColorMatrix in="SourceAlpha" type="matrix" values="0 0 0 0 0 0 0 0 0 0 0 0 0 0 0 0 0 0 127 0" result="hardAlpha"/>
<feOffset/>
<feGaussianBlur stdDeviation="1.10544"/>
<feComposite in2="hardAlpha" operator="out"/>
<feColorMatrix type="matrix" values="0 0 0 0 0 0 0 0 0 0 0 0 0 0 0 0 0 0 0.21 0"/>
<feBlend mode="normal" in2="BackgroundImageFix" result="effect1_dropShadow_7839_87179"/>
<feBlend mode="normal" in="SourceGraphic" in2="effect1_dropShadow_7839_87179" result="shape"/>
</filter>
<filter id="filter1_d_7839_87179" x="146.524" y="80.6758" width="15.9814" height="29.7539" filterUnits="userSpaceOnUse" color-interpolation-filters="sRGB">
<feFlood flood-opacity="0" result="BackgroundImageFix"/>
<feColorMatrix in="SourceAlpha" type="matrix" values="0 0 0 0 0 0 0 0 0 0 0 0 0 0 0 0 0 0 127 0" result="hardAlpha"/>
<feOffset dx="1.10544" dy="1.10544"/>
<feGaussianBlur stdDeviation="0.552722"/>
<feComposite in2="hardAlpha" operator="out"/>
<feColorMatrix type="matrix" values="0 0 0 0 0 0 0 0 0 0 0 0 0 0 0 0 0 0 0.18 0"/>
<feBlend mode="normal" in2="BackgroundImageFix" result="effect1_dropShadow_7839_87179"/>
<feBlend mode="normal" in="SourceGraphic" in2="effect1_dropShadow_7839_87179" result="shape"/>
</filter>
<clipPath id="clip0_7839_87179">
<rect width="246.916" height="214" fill="white" transform="matrix(-1 0 0 1 324.916 20.1523)"/>
</clipPath>
</defs>
</svg>
