<svg width="16" height="16" viewBox="0 0 16 16" fill="none" xmlns="http://www.w3.org/2000/svg">
<path fill-rule="evenodd" clip-rule="evenodd" d="M9.49437 2.02006C9.85157 2.10936 10.0687 2.47132 9.97944 2.82851L7.31278 13.4952C7.22348 13.8524 6.86152 14.0696 6.50432 13.9803C6.14713 13.891 5.92995 13.529 6.01925 13.1718L8.68592 2.50513C8.77522 2.14794 9.13718 1.93076 9.49437 2.02006ZM4.47075 4.86209C4.7311 5.12244 4.7311 5.54455 4.47075 5.8049L2.27549 8.00016L4.47075 10.1954C4.7311 10.4558 4.7311 10.8779 4.47075 11.1382C4.2104 11.3986 3.78829 11.3986 3.52794 11.1382L0.861278 8.47156C0.600928 8.21121 0.600928 7.7891 0.861278 7.52875L3.52794 4.86209C3.78829 4.60174 4.2104 4.60174 4.47075 4.86209ZM11.5279 4.86209C11.7883 4.60174 12.2104 4.60174 12.4708 4.86209L15.1374 7.52875C15.3978 7.7891 15.3978 8.21121 15.1374 8.47156L12.4708 11.1382C12.2104 11.3986 11.7883 11.3986 11.5279 11.1382C11.2676 10.8779 11.2676 10.4558 11.5279 10.1954L13.7232 8.00016L11.5279 5.8049C11.2676 5.54455 11.2676 5.12244 11.5279 4.86209Z" fill="currentColor"/>
</svg>
