<svg width="24" height="24" viewBox="0 0 24 24" fill="currentColor" xmlns="http://www.w3.org/2000/svg">
<path fill-rule="evenodd" clip-rule="evenodd" d="M2.25 8.5C2.25 7.5335 3.0335 6.75 4 6.75H15.5C16.4665 6.75 17.25 7.5335 17.25 8.5V20C17.25 20.9665 16.4665 21.75 15.5 21.75H4C3.0335 21.75 2.25 20.9665 2.25 20V8.5ZM4 8.25C3.86193 8.25 3.75 8.36193 3.75 8.5V20C3.75 20.1381 3.86193 20.25 4 20.25H15.5C15.6381 20.25 15.75 20.1381 15.75 20V8.5C15.75 8.36193 15.6381 8.25 15.5 8.25H4Z" fill="#545454"/>
<path fill-rule="evenodd" clip-rule="evenodd" d="M9 3.75C8.86193 3.75 8.75 3.86193 8.75 4V7.5C8.75 7.91421 8.41421 8.25 8 8.25C7.58579 8.25 7.25 7.91421 7.25 7.5V4C7.25 3.0335 8.0335 2.25 9 2.25H20C20.9665 2.25 21.75 3.0335 21.75 4V15C21.75 15.9665 20.9665 16.75 20 16.75H16.9375C16.5233 16.75 16.1875 16.4142 16.1875 16C16.1875 15.5858 16.5233 15.25 16.9375 15.25H20C20.1381 15.25 20.25 15.1381 20.25 15V4C20.25 3.86193 20.1381 3.75 20 3.75H9Z" fill="#545454"/>
</svg>
