<svg width="96" height="80" viewBox="0 0 96 80" fill="none" xmlns="http://www.w3.org/2000/svg">
<rect width="96" height="80" rx="40" fill="#F5F5F5"/>
<g clip-path="url(#clip0_4121_16000)">
<path d="M59.428 30.3628H36.5726C34.9262 30.3628 33.5916 31.8515 33.5916 33.6879V39.2298C33.5916 41.0662 34.9263 42.5549 36.5726 42.5549H45.5161V40.8923C45.4861 40.3124 45.9301 39.8173 46.5098 39.7839H49.4909C50.0706 39.8172 50.5146 40.3124 50.4846 40.8923V42.5549H59.4281C61.0745 42.5549 62.4091 41.0661 62.4091 39.2298V33.6879C62.4091 31.8515 61.0745 30.3628 59.428 30.3628Z" fill="#F9FAFB"/>
<path d="M33.5915 39.2298V33.6879C33.5915 31.8515 34.9262 30.3628 36.5726 30.3628H35.2541C33.4176 30.3628 31.929 31.8515 31.929 33.6879V39.2298C31.929 41.0662 33.4177 42.5549 35.2541 42.5549H36.5727C34.9262 42.5549 33.5915 41.0662 33.5915 39.2298Z" fill="#F9FAFB"/>
<path d="M60.7465 30.3628H59.4279C61.0743 30.3628 62.409 31.8515 62.409 33.6879V39.2298C62.409 41.0662 61.0743 42.5549 59.4279 42.5549H60.7465C62.5829 42.5549 64.0716 41.0661 64.0716 39.2298V33.6879C64.0716 31.8515 62.5829 30.3628 60.7465 30.3628Z" fill="#F9FAFB"/>
<path d="M61.3008 52.5302V41.7032C60.7853 42.2407 60.075 42.5478 59.3303 42.555H50.4633V44.2176C50.4953 44.795 50.0553 45.29 49.4781 45.326H46.5225C45.9453 45.29 45.5053 44.795 45.5373 44.2176V42.555H36.6703C35.9257 42.5479 35.2153 42.2408 34.6998 41.7032V52.5303H61.3008V52.5302Z" fill="#F9FAFB"/>
<path d="M33.0372 41.7032V52.5303H34.6998V42.5025C34.0811 42.3987 33.5046 42.1215 33.0372 41.7032Z" fill="#F9FAFB"/>
<path d="M61.3008 42.5025V52.5302H62.9634V41.7032C62.4958 42.1215 61.9194 42.3987 61.3008 42.5025Z" fill="#F9FAFB"/>
<path d="M37.6555 55.8554H58.3451C59.9775 55.8554 61.3007 54.3666 61.3007 52.5303H34.6998C34.6998 54.3666 36.0231 55.8554 37.6555 55.8554Z" fill="#F9FAFB"/>
<path d="M34.6997 52.5303H33.0371C33.0371 54.3667 34.5258 55.8554 36.3622 55.8554H37.6553C36.023 55.8554 34.6997 54.3666 34.6997 52.5303Z" fill="#F9FAFB"/>
<path d="M61.3009 52.5304C61.3009 54.3668 59.9775 55.8555 58.3452 55.8555H59.6383C61.4748 55.8555 62.9634 54.3668 62.9634 52.5304H61.3009Z" fill="#F9FAFB"/>
<path d="M46.3378 39.7841H49.6629C50.2751 39.7841 50.7713 40.2803 50.7713 40.8925V44.2176C50.7713 44.8297 50.2751 45.326 49.6629 45.326H46.3378C45.7256 45.326 45.2294 44.8297 45.2294 44.2176V40.8925C45.2294 40.2802 45.7257 39.7841 46.3378 39.7841Z" fill="#F9FAFB"/>
<path d="M46.3377 39.7841H48.0002C48.6124 39.7841 49.1087 40.2803 49.1087 40.8925V44.2176C49.1087 44.8297 48.6124 45.326 48.0002 45.326H46.3377C45.7255 45.326 45.2292 44.8297 45.2292 44.2176V40.8925C45.2293 40.2802 45.7256 39.7841 46.3377 39.7841Z" fill="#F9FAFB"/>
<path d="M51.3254 28.146C49.1671 27.4265 46.8335 27.4265 44.6752 28.146V23.7125C46.8335 24.432 49.1671 24.432 51.3254 23.7125V28.146Z" fill="#F9FAFB"/>
<path d="M41.3501 30.3628H39.1333C39.1368 27.3036 41.6159 24.8244 44.6752 24.8209V27.0377C42.8396 27.0397 41.3521 28.5273 41.3501 30.3628Z" fill="#F9FAFB"/>
<path d="M51.3254 27.0377V24.8209C54.3847 24.8244 56.8638 27.3035 56.8673 30.3628H54.6506C54.6485 28.5273 53.161 27.0397 51.3254 27.0377Z" fill="#F9FAFB"/>
<path d="M51.3257 28.7002C51.2661 28.7003 51.2069 28.6907 51.1506 28.6715C49.105 27.995 46.896 27.995 44.8505 28.6715C44.6816 28.7281 44.4958 28.6998 44.3512 28.5957C44.2066 28.4915 44.1211 28.3241 44.1212 28.146V23.7125C44.1212 23.5344 44.2068 23.3671 44.3512 23.2628C44.4954 23.1579 44.6816 23.1297 44.8505 23.187C46.896 23.8635 49.105 23.8635 51.1506 23.187C51.3195 23.1304 51.5054 23.1587 51.6499 23.2628C51.7945 23.3669 51.8801 23.5343 51.8799 23.7125V28.146C51.88 28.293 51.8217 28.4341 51.7177 28.538C51.6137 28.642 51.4727 28.7003 51.3257 28.7002ZM48.0006 27.056C48.9352 27.0556 49.8662 27.1729 50.7715 27.4051V24.4534C48.9535 24.9189 47.0476 24.9189 45.2296 24.4534V27.4051C46.1349 27.1729 47.0659 27.0556 48.0006 27.056Z" fill="#072B55"/>
<path d="M41.3503 30.9169H39.1336C38.9866 30.917 38.8456 30.8586 38.7416 30.7546C38.6377 30.6507 38.5793 30.5097 38.5793 30.3627C38.5832 26.9975 41.3102 24.2704 44.6754 24.2666C44.8224 24.2665 44.9634 24.3249 45.0674 24.4289C45.1713 24.5328 45.2297 24.6738 45.2297 24.8208V27.0375C45.2297 27.1845 45.1714 27.3255 45.0674 27.4295C44.9635 27.5334 44.8225 27.5918 44.6754 27.5918C43.1458 27.5936 41.9063 28.8331 41.9045 30.3627C41.9046 30.5097 41.8462 30.6507 41.7422 30.7546C41.6382 30.8587 41.4973 30.917 41.3503 30.9169ZM39.7183 29.8085H40.8357C41.084 28.1073 42.4201 26.7713 44.1213 26.5229V25.4059C41.8069 25.668 39.9806 27.4943 39.7183 29.8085Z" fill="#072B55"/>
<path d="M56.8676 30.917H54.6509C54.5039 30.9171 54.3629 30.8587 54.259 30.7547C54.155 30.6507 54.0967 30.5098 54.0967 30.3628C54.0948 28.8331 52.8553 27.5936 51.3257 27.5918C51.1788 27.5919 51.0378 27.5335 50.9338 27.4295C50.8299 27.3256 50.7715 27.1846 50.7715 27.0376V24.821C50.7714 24.674 50.8298 24.533 50.9338 24.429C51.0377 24.3251 51.1787 24.2667 51.3257 24.2667C54.6909 24.2706 57.418 26.9976 57.4218 30.3628C57.4219 30.5098 57.3635 30.6508 57.2595 30.7548C57.1556 30.8587 57.0146 30.9171 56.8676 30.917ZM55.1655 29.8086H56.2828C56.0205 27.4943 54.1943 25.6681 51.8799 25.4059V26.523C53.5811 26.7714 54.9172 28.1075 55.1655 29.8086Z" fill="#072B55"/>
<path d="M49.6631 45.88H46.338C45.4202 45.879 44.6764 45.1352 44.6754 44.2174V40.8923C44.6764 39.9745 45.4202 39.2307 46.338 39.2297H49.6631C50.5809 39.2307 51.3247 39.9745 51.3257 40.8923V44.2174C51.3246 45.1352 50.5808 45.879 49.6631 45.88ZM46.3379 40.3381C46.032 40.3385 45.784 40.5864 45.7838 40.8923V44.2174C45.7841 44.5234 46.032 44.7713 46.3379 44.7716H49.663C49.969 44.7713 50.217 44.5234 50.2172 44.2174V40.8923C50.2169 40.5864 49.969 40.3384 49.663 40.3381H46.3379Z" fill="#072B55"/>
<path d="M59.6384 56.4096H36.3626C34.2211 56.4071 32.4857 54.6717 32.4833 52.5303C32.4832 52.3833 32.5416 52.2423 32.6456 52.1384C32.7495 52.0345 32.8905 51.9761 33.0375 51.9761H62.9636C63.1106 51.976 63.2516 52.0344 63.3555 52.1384C63.4594 52.2423 63.5178 52.3833 63.5178 52.5303C63.5152 54.6717 61.7798 56.4071 59.6384 56.4096ZM33.6473 53.0845C33.9123 54.3737 35.0463 55.2995 36.3624 55.3012H59.6382C60.9544 55.2995 62.0883 54.3736 62.3534 53.0845H33.6473Z" fill="#072B55"/>
<path d="M60.7468 43.1091H50.7714C50.6244 43.1092 50.4834 43.0508 50.3795 42.9468C50.2755 42.8429 50.2172 42.7019 50.2172 42.5549V40.8923C50.2168 40.5864 49.9689 40.3384 49.663 40.3381H46.3379C46.0319 40.3385 45.784 40.5864 45.7837 40.8923V42.5549C45.7838 42.7019 45.7254 42.8429 45.6214 42.9468C45.5174 43.0508 45.3765 43.1091 45.2295 43.1091H35.2542C33.1127 43.1067 31.3773 41.3713 31.3749 39.2299V33.688C31.3773 31.5466 33.1127 29.8112 35.2542 29.8087H60.7468C62.8882 29.8112 64.6236 31.5466 64.6261 33.688V39.2299C64.6236 41.3713 62.8882 43.1066 60.7468 43.1091ZM51.3256 42.0007H60.7468C62.2764 41.9989 63.5159 40.7594 63.5177 39.2298V33.6879C63.5159 32.1583 62.2764 30.9188 60.7468 30.917H35.2542C33.7246 30.9188 32.4851 32.1584 32.4833 33.6879V39.2298C32.4851 40.7594 33.7246 41.9989 35.2542 42.0007H44.6754V40.8924C44.6764 39.9746 45.4202 39.2308 46.338 39.2298H49.6631C50.5809 39.2308 51.3247 39.9746 51.3257 40.8924L51.3256 42.0007Z" fill="#072B55"/>
<path d="M62.9635 53.0846H33.0375C32.8905 53.0846 32.7495 53.0262 32.6456 52.9223C32.5417 52.8184 32.4833 52.6774 32.4833 52.5303V41.7031C32.4833 41.4844 32.6119 41.2861 32.8117 41.197C33.0115 41.1079 33.2449 41.1446 33.4077 41.2907C33.9145 41.7473 34.5722 42.0002 35.2543 42.0008H45.2297C45.3766 42.0007 45.5176 42.0591 45.6216 42.1631C45.7255 42.267 45.7839 42.408 45.7839 42.555V44.2176C45.7842 44.5235 46.0321 44.7715 46.3381 44.7718H49.6632C49.9691 44.7714 50.2171 44.5235 50.2173 44.2176V42.555C50.2173 42.408 50.2757 42.267 50.3796 42.1631C50.4835 42.0592 50.6245 42.0008 50.7716 42.0008H60.747C61.4291 42.0002 62.0868 41.7473 62.5935 41.2907C62.7563 41.1446 62.9898 41.1079 63.1895 41.197C63.3893 41.2861 63.518 41.4844 63.518 41.7031V52.5303C63.518 52.6773 63.4596 52.8183 63.3557 52.9223C63.2515 53.0262 63.1105 53.0846 62.9635 53.0846ZM33.5916 51.9761H62.4093V42.7324C61.8901 42.9805 61.322 43.1092 60.7467 43.1091H51.3256V44.2175C51.3247 45.1353 50.5808 45.8791 49.663 45.8801H46.3379C45.4201 45.8791 44.6763 45.1353 44.6753 44.2175V43.1091H35.2542C34.6789 43.1092 34.1108 42.9805 33.5916 42.7324V51.9761Z" fill="#072B55"/>
</g>
<defs>
<clipPath id="clip0_4121_16000">
<rect width="34.2551" height="33.6842" fill="white" transform="translate(30.8726 23.1578)"/>
</clipPath>
</defs>
</svg>
