<svg width="101" height="100" viewBox="0 0 101 100" fill="none" xmlns="http://www.w3.org/2000/svg">
<g clip-path="url(#clip0_3116_7437)">
<ellipse cx="47.7408" cy="86.9101" rx="32.7538" ry="2.95243" fill="#E5E5E5"/>
<ellipse cx="34.3513" cy="86.9258" rx="11.7006" ry="0.791725" fill="#CCCCCC"/>
<path d="M81.192 15.7246C83.1767 17.4501 84.7855 19.5652 85.9185 21.9385C87.0515 24.3119 87.6845 26.8928 87.7782 29.521C87.8718 32.1493 87.4242 34.7687 86.463 37.2167C85.5018 39.6646 84.0477 41.8889 82.1908 43.7513L73.2808 52.6652C72.925 53.021 72.5025 53.3033 72.0376 53.4959C71.5727 53.6885 71.0743 53.7877 70.5711 53.7877C70.0679 53.7877 69.5695 53.6885 69.1046 53.4959C68.6397 53.3033 68.2172 53.021 67.8614 52.6652C67.1431 51.9466 66.7395 50.9722 66.7395 49.9561C66.7395 48.9401 67.1431 47.9656 67.8614 47.2471L76.7715 38.3357C78.9141 36.1871 80.1217 33.2795 80.1317 30.2452C80.1418 27.2109 78.9534 24.2953 76.8251 22.1326C74.5754 19.9939 71.5775 18.8216 68.4738 18.8667C65.3701 18.9118 62.4075 20.1708 60.2209 22.374L51.6046 30.9903C51.2488 31.3462 50.8264 31.6285 50.3614 31.8211C49.8965 32.0137 49.3982 32.1128 48.8949 32.1128C48.3917 32.1128 47.8934 32.0137 47.4284 31.8211C46.9635 31.6285 46.5411 31.3462 46.1853 30.9903C45.8294 30.6345 45.5471 30.212 45.3545 29.7471C45.1619 29.2822 45.0627 28.7838 45.0627 28.2806C45.0627 27.7774 45.1619 27.279 45.3545 26.8141C45.5471 26.3492 45.8294 25.9267 46.1853 25.5709L54.7428 17.0134C58.179 13.5074 62.8117 11.4271 67.715 11.1882C72.6183 10.9492 77.4312 12.5693 81.192 15.7246Z" fill="white"/>
<path d="M81.192 15.7246C79.2471 14.0469 76.9789 12.7859 74.5274 12.0194C72.076 11.2529 69.4934 10.9973 66.9392 11.2683C70.7925 11.6312 74.436 13.1892 77.3603 15.7246C79.345 17.4501 80.9538 19.5652 82.0868 21.9385C83.2197 24.3119 83.8527 26.8928 83.9464 29.521C84.04 32.1493 83.5924 34.7687 82.6312 37.2167C81.6701 39.6646 80.2159 41.8889 78.3591 43.7513L69.449 52.6652C69.2113 52.8967 68.9442 53.0959 68.6546 53.2578C69.383 53.6833 70.2317 53.8559 71.0685 53.7487C71.9053 53.6415 72.6831 53.2605 73.2807 52.6652L82.1908 43.7551C84.0477 41.8927 85.5018 39.6685 86.463 37.2205C87.4241 34.7725 87.8718 32.1531 87.7781 29.5249C87.6845 26.8966 87.0515 24.3157 85.9185 21.9424C84.7855 19.569 83.1767 17.454 81.192 15.7285V15.7246Z" fill="white"/>
<path d="M21.3734 66.1848C21.3651 69.2077 22.554 72.1109 24.6802 74.2596C26.9296 76.3985 29.9273 77.5714 33.031 77.5267C36.1347 77.4821 39.0975 76.2235 41.2844 74.0207L49.9007 65.4031C50.2565 65.0473 50.679 64.765 51.1439 64.5724C51.6088 64.3798 52.1071 64.2806 52.6104 64.2806C53.1136 64.2806 53.6119 64.3798 54.0769 64.5724C54.5418 64.765 54.9642 65.0473 55.3201 65.4031C55.6759 65.759 55.9582 66.1814 56.1508 66.6463C56.3435 67.1113 56.4426 67.6096 56.4426 68.1128C56.4426 68.6161 56.3435 69.1144 56.1508 69.5793C55.9582 70.0442 55.6759 70.4667 55.3201 70.8225L46.7625 79.3801C43.3263 82.8873 38.693 84.9685 33.7887 85.2077C28.8845 85.4469 24.0707 83.8263 20.3095 80.6701C18.3248 78.9446 16.716 76.8295 15.583 74.4562C14.45 72.0828 13.817 69.5019 13.7234 66.8737C13.6297 64.2455 14.0773 61.626 15.0385 59.1781C15.9997 56.7301 17.4538 54.5058 19.3107 52.6435L28.2195 43.7244C28.5753 43.3686 28.9977 43.0863 29.4626 42.8937C29.9276 42.7011 30.4259 42.6019 30.9291 42.6019C31.4324 42.6019 31.9307 42.7011 32.3956 42.8937C32.8606 43.0863 33.283 43.3686 33.6388 43.7244C34.3572 44.443 34.7607 45.4174 34.7607 46.4335C34.7607 47.4495 34.3572 48.424 33.6388 49.1425L24.7287 58.0577C23.6608 59.1239 22.8144 60.3909 22.2386 61.7858C21.6627 63.1807 21.3686 64.6758 21.3734 66.1848Z" fill="white"/>
<path d="M55.3149 65.4031C54.7172 64.8077 53.9394 64.4268 53.1026 64.3196C52.2659 64.2124 51.4171 64.385 50.6887 64.8105C50.9784 64.9724 51.2455 65.1716 51.4831 65.4031C51.839 65.7589 52.1213 66.1814 52.3139 66.6463C52.5065 67.1112 52.6057 67.6096 52.6057 68.1128C52.6057 68.6161 52.5065 69.1144 52.3139 69.5793C52.1213 70.0442 51.839 70.4667 51.4831 70.8225L42.9256 79.38C39.6474 82.6513 35.3351 84.6828 30.7253 85.1276C33.6562 85.4125 36.6137 85.0448 39.3857 84.051C42.1576 83.0573 44.675 81.4621 46.7573 79.38L55.3149 70.8225C55.6708 70.4667 55.9531 70.0442 56.1457 69.5793C56.3383 69.1144 56.4374 68.6161 56.4374 68.1128C56.4374 67.6096 56.3383 67.1112 56.1457 66.6463C55.9531 66.1814 55.6708 65.7589 55.3149 65.4031Z" fill="white"/>
<path d="M64.2979 40.0664L57.9755 46.3888C57.7383 46.6261 57.4567 46.8144 57.1467 46.9428C56.8367 47.0713 56.5044 47.1374 56.1689 47.1374C55.8333 47.1374 55.5011 47.0713 55.1911 46.9428C54.8811 46.8144 54.5994 46.6261 54.3622 46.3888L52.5562 44.5828C52.3189 44.3456 52.1306 44.0639 52.0022 43.7539C51.8737 43.4439 51.8076 43.1117 51.8076 42.7761C51.8076 42.4406 51.8737 42.1083 52.0022 41.7983C52.1306 41.4883 52.3189 41.2067 52.5562 40.9694L58.7253 34.8003C59.4148 34.0831 60.3479 33.6501 61.3408 33.5865C62.3336 33.5229 63.3143 33.8334 64.0897 34.4568C64.4876 34.8015 64.8104 35.2245 65.0378 35.6993C65.2653 36.1742 65.3926 36.6907 65.4119 37.2169C65.4312 37.7431 65.342 38.2676 65.1499 38.7578C64.9578 39.248 64.667 39.6934 64.2953 40.0664H64.2979Z" fill="white"/>
<path d="M64.0923 34.4567C63.4876 33.9587 62.7459 33.6561 61.9653 33.589C61.1848 33.522 60.4023 33.6936 59.7216 34.0812C59.9125 34.1893 60.093 34.315 60.2606 34.4567C60.6585 34.8015 60.9812 35.2244 61.2087 35.6993C61.4361 36.1741 61.5635 36.6907 61.5827 37.2168C61.602 37.743 61.5129 38.2675 61.3208 38.7577C61.1287 39.2479 60.8378 39.6934 60.4662 40.0664L54.2537 46.2789L54.3622 46.3887C54.5994 46.626 54.8811 46.8143 55.1911 46.9427C55.5011 47.0712 55.8333 47.1373 56.1689 47.1373C56.5044 47.1373 56.8367 47.0712 57.1467 46.9427C57.4567 46.8143 57.7383 46.626 57.9756 46.3887L64.2979 40.0664C64.6695 39.6934 64.9604 39.2479 65.1525 38.7577C65.3446 38.2675 65.4338 37.743 65.4145 37.2168C65.3952 36.6907 65.2679 36.1741 65.0404 35.6993C64.8129 35.2244 64.4902 34.8015 64.0923 34.4567Z" fill="white"/>
<path d="M48.944 55.4202L42.7749 61.5893C42.0854 62.3065 41.1523 62.7396 40.1594 62.8032C39.1666 62.8668 38.1859 62.5563 37.4105 61.9329C37.0125 61.5881 36.6898 61.1652 36.4624 60.6903C36.2349 60.2155 36.1076 59.6989 36.0883 59.1728C36.069 58.6466 36.1582 58.1221 36.3502 57.6319C36.5423 57.1417 36.8332 56.6962 37.2048 56.3232L43.5272 50.0009C43.7644 49.7636 44.0461 49.5753 44.3561 49.4469C44.6661 49.3184 44.9983 49.2523 45.3339 49.2523C45.6694 49.2523 46.0017 49.3184 46.3117 49.4469C46.6217 49.5753 46.9033 49.7636 47.1405 50.0009L48.9466 51.8069C49.1837 52.0443 49.3718 52.3261 49.5 52.6362C49.6282 52.9462 49.6941 53.2786 49.6938 53.6141C49.6936 53.9496 49.6273 54.2819 49.4986 54.5918C49.3699 54.9017 49.1815 55.1832 48.944 55.4202Z" fill="white"/>
<path d="M48.9441 51.8068L47.1381 50.0008C46.9009 49.7634 46.6192 49.5752 46.3092 49.4467C45.9992 49.3183 45.667 49.2522 45.3314 49.2522C44.9959 49.2522 44.6636 49.3183 44.3536 49.4467C44.0436 49.5752 43.762 49.7634 43.5248 50.0008L43.4149 50.1106L45.1124 51.8068C45.3497 52.044 45.5379 52.3257 45.6664 52.6356C45.7948 52.9456 45.8609 53.2779 45.8609 53.6134C45.8609 53.949 45.7948 54.2813 45.6664 54.5912C45.5379 54.9012 45.3497 55.1829 45.1124 55.4201L38.9433 61.5892C38.6486 61.8769 38.3128 62.1192 37.947 62.3083C38.7199 62.7319 39.6102 62.8908 40.482 62.761C41.3537 62.6312 42.1591 62.2196 42.775 61.5892L48.9441 55.4201C49.1814 55.1829 49.3697 54.9012 49.4981 54.5912C49.6266 54.2813 49.6927 53.949 49.6927 53.6134C49.6927 53.2779 49.6266 52.9456 49.4981 52.6356C49.3697 52.3257 49.1814 52.044 48.9441 51.8068Z" fill="white"/>
<path d="M34.5531 85.1072C18.7638 83.5502 11.7479 64.0326 23.1409 52.6383C32.8403 42.9389 32.1608 43.5328 32.848 43.1356C32.1195 42.7101 31.2708 42.5374 30.434 42.6446C29.5973 42.7518 28.8195 43.1328 28.2218 43.7282L19.3092 52.6383C6.68487 65.2639 16.6729 86.8046 34.5531 85.1072Z" fill="white"/>
<path d="M13.4824 72.6757L15.9092 71.8685C16.9263 74.8989 18.7341 77.6027 21.1459 79.7006L19.4702 81.628C16.7122 79.2307 14.645 76.14 13.4824 72.6757Z" fill="white"/>
<path d="M82.0299 14.7615C78.0256 11.3912 72.8961 9.6576 67.6682 9.90793C62.4403 10.1583 57.4999 12.374 53.836 16.1116L45.2784 24.6691C44.3203 25.6273 43.782 26.9268 43.782 28.2818C43.782 29.6369 44.3203 30.9364 45.2784 31.8945C46.2366 32.8527 47.5361 33.391 48.8911 33.391C50.2461 33.391 51.5456 32.8527 52.5038 31.8945L61.1214 23.2769C63.1637 21.264 65.9173 20.1374 68.7848 20.1413H68.8181C70.1333 20.128 71.4379 20.3769 72.6559 20.8734C73.8739 21.3699 74.9808 22.104 75.9119 23.033C77.8035 24.9554 78.8596 27.5469 78.8508 30.2438C78.8419 32.9408 77.7688 35.5253 75.8646 37.4352L66.9584 46.3402C66.4617 46.8094 66.0641 47.3736 65.7893 47.9992C65.5145 48.6248 65.368 49.2992 65.3584 49.9825C65.3489 50.6658 65.4765 51.344 65.7337 51.9771C65.9909 52.6101 66.3725 53.1852 66.8559 53.6681C67.3393 54.1511 67.9147 54.5322 68.548 54.7888C69.1813 55.0455 69.8596 55.1725 70.5429 55.1623C71.2261 55.1522 71.9004 55.0051 72.5258 54.7297C73.1512 54.4543 73.7149 54.0563 74.1838 53.5592L83.0938 44.6504C85.0736 42.6642 86.624 40.2922 87.6488 37.6818C88.6736 35.0714 89.151 32.2782 89.0512 29.4756C88.9514 26.673 88.2767 23.9208 87.0689 21.3899C85.861 18.8589 84.1459 16.6032 82.0299 14.7628V14.7615ZM81.2878 42.8482L72.3777 51.7583C71.8911 52.2231 71.244 52.4824 70.5711 52.4824C69.8981 52.4824 69.2511 52.2231 68.7644 51.7583C68.2855 51.2792 68.0165 50.6296 68.0165 49.9522C68.0165 49.2749 68.2855 48.6252 68.7644 48.1462L77.6745 39.2349C80.0556 36.8482 81.3979 33.6178 81.4091 30.2465C81.4204 26.8751 80.0997 23.6358 77.7345 21.2334C76.5675 20.064 75.1792 19.1389 73.6507 18.5122C72.1222 17.8854 70.4841 17.5695 68.8321 17.583H68.79C65.2444 17.5805 61.8409 18.9761 59.3179 21.4671L50.7016 30.0834C50.4643 30.3206 50.1827 30.5089 49.8727 30.6373C49.5627 30.7657 49.2305 30.8317 48.8949 30.8317C48.2173 30.8317 47.5674 30.5626 47.0883 30.0834C46.851 29.8461 46.6628 29.5645 46.5344 29.2545C46.406 28.9445 46.3399 28.6123 46.3399 28.2767C46.3399 27.5991 46.6091 26.9492 47.0883 26.4701L55.6458 17.9125C58.8508 14.629 63.1781 12.6778 67.7608 12.4499C72.3436 12.2221 76.8431 13.7344 80.358 16.6838C82.2104 18.2943 83.712 20.2684 84.7695 22.4836C85.827 24.6987 86.4179 27.1076 86.5055 29.5607C86.593 32.0138 86.1754 34.4587 85.2785 36.7436C84.3816 39.0285 83.0245 41.1046 81.2916 42.8431L81.2878 42.8482Z" fill="url(#paint0_linear_3116_7437)"/>
<path d="M16.9541 78.1373C16.6153 78.1389 16.2898 78.006 16.049 77.7677C15.8083 77.5293 15.6721 77.2051 15.6704 76.8664C15.6687 76.5276 15.8017 76.2021 16.04 75.9614C16.2783 75.7206 16.6025 75.5845 16.9413 75.5828H16.9541C17.2928 75.5828 17.6177 75.7173 17.8572 75.9569C18.0967 76.1964 18.2313 76.5213 18.2313 76.86C18.2313 77.1988 18.0967 77.5236 17.8572 77.7632C17.6177 78.0027 17.2928 78.1373 16.9541 78.1373Z" fill="url(#paint1_linear_3116_7437)"/>
<path d="M12.4326 66.1886C12.4342 68.3932 12.7887 70.5832 13.4825 72.6758C13.5326 72.8415 13.6168 72.995 13.7296 73.1264C13.8424 73.2577 13.9814 73.3641 14.1376 73.4388C14.2939 73.5134 14.464 73.5547 14.6371 73.5599C14.8102 73.565 14.9824 73.5341 15.1429 73.4689C15.4473 73.3459 15.6947 73.1135 15.8365 72.8174C15.9783 72.5213 16.0042 72.1828 15.9092 71.8685C15.3009 70.0361 14.9896 68.1181 14.9871 66.1874C14.976 63.8385 15.4323 61.5109 16.3294 59.3401C17.2265 57.1692 18.5464 55.1985 20.2123 53.5426L29.1223 44.6325C29.609 44.1678 30.2561 43.9084 30.929 43.9084C31.602 43.9084 32.249 44.1678 32.7357 44.6325C33.2146 45.1116 33.4836 45.7612 33.4836 46.4386C33.4836 47.1159 33.2146 47.7656 32.7357 48.2446L23.8256 57.1547C21.4444 59.5413 20.1022 62.7717 20.091 66.1431C20.0797 69.5144 21.4004 72.7537 23.7656 75.1562C24.9324 76.3251 26.3203 77.25 27.8483 77.877C29.3763 78.5039 31.0138 78.8203 32.6654 78.8078H32.7101C36.2556 78.8103 39.6591 77.4147 42.1822 74.9237L50.7985 66.3061C51.0357 66.0689 51.3174 65.8807 51.6274 65.7523C51.9374 65.6239 52.2696 65.5578 52.6052 65.5578C52.9407 65.5578 53.2729 65.6239 53.5829 65.7523C53.8929 65.8807 54.1746 66.0689 54.4118 66.3061C54.6491 66.5434 54.8373 66.8251 54.9657 67.135C55.0941 67.445 55.1602 67.7773 55.1602 68.1128C55.1602 68.4483 55.0941 68.7806 54.9657 69.0906C54.8373 69.4006 54.6491 69.6822 54.4118 69.9195L45.8543 78.477C42.6489 81.7593 38.3221 83.7097 33.74 83.9378C29.1579 84.1659 24.6588 82.6548 21.1434 79.707C21.0198 79.5821 20.8718 79.4841 20.7086 79.419C20.5454 79.354 20.3705 79.3233 20.1949 79.3288C20.0193 79.3344 19.8468 79.3762 19.688 79.4515C19.5293 79.5268 19.3878 79.6341 19.2724 79.7665C19.157 79.899 19.0702 80.0539 19.0174 80.2215C18.9646 80.389 18.9469 80.5657 18.9654 80.7404C18.984 80.9151 19.0384 81.0841 19.1253 81.2368C19.2121 81.3895 19.3295 81.5227 19.4702 81.628C23.1356 84.801 27.8277 86.5364 32.6756 86.5122C35.4612 86.5082 38.2187 85.9553 40.7905 84.8851C43.3622 83.815 45.698 82.2486 47.6641 80.2754L56.2217 71.7178C56.6961 71.2434 57.0724 70.6802 57.3292 70.0603C57.5859 69.4404 57.7181 68.7761 57.7181 68.1051C57.7181 67.4342 57.5859 66.7698 57.3292 66.15C57.0724 65.5301 56.6961 64.9669 56.2217 64.4924C55.7473 64.018 55.184 63.6417 54.5642 63.3849C53.9443 63.1282 53.2799 62.996 52.609 62.996C51.938 62.996 51.2737 63.1282 50.6538 63.3849C50.0339 63.6417 49.4707 64.018 48.9963 64.4924L40.3787 73.11C38.3366 75.1233 35.5829 76.25 32.7152 76.2457H32.6795C31.3653 76.2596 30.0616 76.0119 28.8441 75.517C27.6266 75.0221 26.5199 74.2898 25.5882 73.3629C23.6971 71.4402 22.6414 68.8487 22.6505 66.1518C22.6595 63.455 23.7327 60.8707 25.6367 58.9607L34.5468 50.0493C35.5046 49.0913 36.0426 47.792 36.0426 46.4373C36.0426 45.0826 35.5046 43.7833 34.5468 42.8252C33.573 41.8972 32.2793 41.3795 30.9341 41.3795C29.5889 41.3795 28.2953 41.8972 27.3214 42.8252L18.4062 51.734C16.5026 53.6264 14.9941 55.8784 13.9686 58.359C12.9431 60.8396 12.4209 63.4993 12.4326 66.1835V66.1886Z" fill="url(#paint2_linear_3116_7437)"/>
<path d="M64.9273 33.4898C63.9088 32.6517 62.6118 32.2283 61.295 32.3038C59.9781 32.3793 58.7381 32.9482 57.822 33.8972L51.6516 40.0663C50.9344 40.7858 50.5317 41.7602 50.5317 42.776C50.5317 43.7919 50.9344 44.7663 51.6516 45.4857L53.4576 47.2917C53.8135 47.6476 54.2359 47.9299 54.7008 48.1225C55.1658 48.3151 55.6641 48.4142 56.1673 48.4142C56.6706 48.4142 57.1689 48.3151 57.6338 48.1225C58.0987 47.9299 58.5212 47.6476 58.877 47.2917L65.1981 40.9694C65.6738 40.4961 66.0508 39.9331 66.3073 39.3131C66.5639 38.6931 66.6948 38.0283 66.6925 37.3573C66.6923 36.6239 66.5347 35.899 66.2301 35.2318C65.9256 34.5645 65.4813 33.9705 64.9273 33.4898ZM63.3946 39.1633L57.0723 45.4857C56.8296 45.7187 56.5063 45.8488 56.1699 45.8488C55.8335 45.8488 55.5101 45.7187 55.2675 45.4857L53.4615 43.6797C53.3427 43.561 53.2485 43.4202 53.1842 43.2651C53.12 43.1101 53.0869 42.9439 53.0869 42.776C53.0869 42.6082 53.12 42.442 53.1842 42.2869C53.2485 42.1319 53.3427 41.991 53.4615 41.8724L59.6319 35.7033C60.1718 35.1625 60.9036 34.8571 61.6678 34.8539C62.2482 34.8459 62.812 35.0477 63.2554 35.4223C63.5329 35.6628 63.7554 35.9602 63.9079 36.2943C64.0604 36.6284 64.1393 36.9913 64.1393 37.3586C64.1406 37.6937 64.0754 38.0257 63.9476 38.3355C63.8198 38.6453 63.6319 38.9266 63.3946 39.1633Z" fill="url(#paint3_linear_3116_7437)"/>
<path d="M48.041 49.0977C47.3109 48.401 46.3405 48.0123 45.3313 48.0123C44.3221 48.0123 43.3517 48.401 42.6216 49.0977L36.3005 55.4201C35.8039 55.9166 35.4149 56.5101 35.1579 57.1635C34.9009 57.817 34.7814 58.5165 34.8068 59.2182C34.8322 59.92 35.002 60.609 35.3056 61.2422C35.6092 61.8754 36.0401 62.4392 36.5713 62.8984C37.4804 63.6792 38.6414 64.1048 39.8398 64.0964C41.2811 64.091 42.6614 63.5141 43.6779 62.4922L49.847 56.3231C50.5642 55.6037 50.9669 54.6293 50.9669 53.6135C50.9669 52.5976 50.5642 51.6232 49.847 50.9038L48.041 49.0977ZM48.041 54.5171L41.8731 60.6862C41.4099 61.1726 40.783 61.4704 40.1133 61.5223C39.4436 61.5741 38.7784 61.3764 38.2458 60.9672C37.9797 60.7377 37.7638 60.4559 37.6116 60.1392C37.4594 59.8225 37.3741 59.4779 37.3612 59.1267C37.3482 58.7756 37.4079 58.4256 37.5363 58.0986C37.6648 57.7716 37.8593 57.4746 38.1078 57.2261L44.4302 50.9038C44.6697 50.6647 44.9942 50.5304 45.3326 50.5304C45.6709 50.5304 45.9955 50.6647 46.2349 50.9038L48.041 52.7098C48.1596 52.8285 48.2537 52.9694 48.3179 53.1245C48.3821 53.2796 48.415 53.4459 48.4149 53.6137C48.4148 53.7816 48.3816 53.9477 48.3172 54.1028C48.2528 54.2578 48.1598 54.3986 48.041 54.5171Z" fill="url(#paint4_linear_3116_7437)"/>
<path d="M32.8685 31.5906C33.1211 31.5905 33.368 31.5156 33.5779 31.3752C33.7879 31.2349 33.9516 31.0354 34.0483 30.8021C34.1449 30.5687 34.1702 30.3119 34.1209 30.0642C34.0717 29.8165 33.9501 29.5889 33.7715 29.4103L20.999 16.6378C20.7581 16.4052 20.4355 16.2764 20.1006 16.2793C19.7657 16.2823 19.4454 16.4166 19.2086 16.6534C18.9718 16.8902 18.8374 17.2106 18.8345 17.5454C18.8316 17.8803 18.9604 18.203 19.193 18.4439L31.9655 31.2163C32.205 31.4559 32.5298 31.5905 32.8685 31.5906Z" fill="url(#paint5_linear_3116_7437)"/>
<path d="M36.7003 12.4319C36.3616 12.4319 36.0367 12.5665 35.7972 12.806C35.5577 13.0455 35.4231 13.3704 35.4231 13.7091V26.4816C35.4231 26.8203 35.5577 27.1452 35.7972 27.3847C36.0367 27.6243 36.3616 27.7588 36.7003 27.7588C37.0391 27.7588 37.364 27.6243 37.6035 27.3847C37.843 27.1452 37.9776 26.8203 37.9776 26.4816V13.7091C37.9776 13.3704 37.843 13.0455 37.6035 12.806C37.364 12.5665 37.0391 12.4319 36.7003 12.4319Z" fill="url(#paint6_linear_3116_7437)"/>
<path d="M14.9871 34.145C14.9871 34.4838 15.1216 34.8087 15.3612 35.0482C15.6007 35.2877 15.9256 35.4223 16.2643 35.4223H29.0368C29.3755 35.4223 29.7004 35.2877 29.9399 35.0482C30.1795 34.8087 30.314 34.4838 30.314 34.145C30.314 33.8063 30.1795 33.4814 29.9399 33.2419C29.7004 33.0024 29.3755 32.8678 29.0368 32.8678H16.2643C15.9256 32.8678 15.6007 33.0024 15.3612 33.2419C15.1216 33.4814 14.9871 33.8063 14.9871 34.145Z" fill="url(#paint7_linear_3116_7437)"/>
<path d="M67.7285 65.1732C67.489 65.4127 67.3545 65.7375 67.3545 66.0762C67.3545 66.4148 67.489 66.7397 67.7285 66.9792L80.5009 79.7516C80.7418 79.9843 81.0644 80.113 81.3993 80.1101C81.7342 80.1072 82.0546 79.9729 82.2914 79.7361C82.5282 79.4993 82.6625 79.1789 82.6654 78.844C82.6683 78.5091 82.5396 78.1865 82.3069 77.9456L69.5345 65.1732C69.295 64.9337 68.9701 64.7992 68.6315 64.7992C68.2928 64.7992 67.968 64.9337 67.7285 65.1732Z" fill="url(#paint8_linear_3116_7437)"/>
<path d="M64.7997 68.6306C64.461 68.6306 64.1361 68.7652 63.8966 69.0047C63.657 69.2442 63.5225 69.5691 63.5225 69.9079V82.6803C63.5225 83.0191 63.657 83.3439 63.8966 83.5835C64.1361 83.823 64.461 83.9576 64.7997 83.9576C65.1385 83.9576 65.4633 83.823 65.7029 83.5835C65.9424 83.3439 66.077 83.0191 66.077 82.6803V69.9079C66.077 69.5691 65.9424 69.2442 65.7029 69.0047C65.4633 68.7652 65.1385 68.6306 64.7997 68.6306Z" fill="url(#paint9_linear_3116_7437)"/>
<path d="M85.2355 63.5218C85.5742 63.5218 85.8991 63.3872 86.1386 63.1477C86.3782 62.9082 86.5127 62.5833 86.5127 62.2445C86.5127 61.9058 86.3782 61.5809 86.1386 61.3414C85.8991 61.1019 85.5742 60.9673 85.2355 60.9673H72.463C72.1243 60.9673 71.7994 61.1019 71.5599 61.3414C71.3204 61.5809 71.1858 61.9058 71.1858 62.2445C71.1858 62.5833 71.3204 62.9082 71.5599 63.1477C71.7994 63.3872 72.1243 63.5218 72.463 63.5218H85.2355Z" fill="url(#paint10_linear_3116_7437)"/>
</g>
<defs>
<linearGradient id="paint0_linear_3116_7437" x1="43.782" y1="55.1629" x2="89.0607" y2="9.88074" gradientUnits="userSpaceOnUse">
<stop stop-color="#A03291"/>
<stop offset="1" stop-color="#FF7C66"/>
</linearGradient>
<linearGradient id="paint1_linear_3116_7437" x1="15.6704" y1="78.1373" x2="18.2249" y2="75.5764" gradientUnits="userSpaceOnUse">
<stop stop-color="#A03291"/>
<stop offset="1" stop-color="#FF7C66"/>
</linearGradient>
<linearGradient id="paint2_linear_3116_7437" x1="12.4324" y1="86.5124" x2="57.565" y2="41.227" gradientUnits="userSpaceOnUse">
<stop stop-color="#A03291"/>
<stop offset="1" stop-color="#FF7C66"/>
</linearGradient>
<linearGradient id="paint3_linear_3116_7437" x1="50.5317" y1="48.4142" x2="66.6508" y2="32.2535" gradientUnits="userSpaceOnUse">
<stop stop-color="#A03291"/>
<stop offset="1" stop-color="#FF7C66"/>
</linearGradient>
<linearGradient id="paint4_linear_3116_7437" x1="34.8035" y1="64.0966" x2="50.8875" y2="47.9334" gradientUnits="userSpaceOnUse">
<stop stop-color="#A03291"/>
<stop offset="1" stop-color="#FF7C66"/>
</linearGradient>
<linearGradient id="paint5_linear_3116_7437" x1="18.8345" y1="31.5906" x2="34.1457" y2="16.2796" gradientUnits="userSpaceOnUse">
<stop stop-color="#A03291"/>
<stop offset="1" stop-color="#FF7C66"/>
</linearGradient>
<linearGradient id="paint6_linear_3116_7437" x1="35.4231" y1="27.7588" x2="40.394" y2="26.9304" gradientUnits="userSpaceOnUse">
<stop stop-color="#A03291"/>
<stop offset="1" stop-color="#FF7C66"/>
</linearGradient>
<linearGradient id="paint7_linear_3116_7437" x1="14.9871" y1="35.4223" x2="15.8155" y2="30.4514" gradientUnits="userSpaceOnUse">
<stop stop-color="#A03291"/>
<stop offset="1" stop-color="#FF7C66"/>
</linearGradient>
<linearGradient id="paint8_linear_3116_7437" x1="67.3545" y1="80.1102" x2="82.6655" y2="64.7992" gradientUnits="userSpaceOnUse">
<stop stop-color="#A03291"/>
<stop offset="1" stop-color="#FF7C66"/>
</linearGradient>
<linearGradient id="paint9_linear_3116_7437" x1="63.5225" y1="83.9576" x2="68.4934" y2="83.1291" gradientUnits="userSpaceOnUse">
<stop stop-color="#A03291"/>
<stop offset="1" stop-color="#FF7C66"/>
</linearGradient>
<linearGradient id="paint10_linear_3116_7437" x1="71.1858" y1="63.5218" x2="72.0143" y2="58.5509" gradientUnits="userSpaceOnUse">
<stop stop-color="#A03291"/>
<stop offset="1" stop-color="#FF7C66"/>
</linearGradient>
<clipPath id="clip0_3116_7437">
<rect width="76.6349" height="81.5789" fill="white" transform="translate(12.4324 9.21057)"/>
</clipPath>
</defs>
</svg>
