<svg width="18" height="18" viewBox="0 0 18 18" fill="none" xmlns="http://www.w3.org/2000/svg">
    <g clip-path="url(#clip0_394_13512)">
        <path d="M9 1.5C4.8645 1.5 1.5 4.8645 1.5 9C1.5 13.1355 4.8645 16.5 9 16.5C13.1355 16.5 16.5 13.1355 16.5 9C16.5 4.8645 13.1355 1.5 9 1.5ZM9.5625 12.5625C9.5625 12.873 9.3105 13.125 9 13.125C8.6895 13.125 8.4375 12.873 8.4375 12.5625V8.4375C8.4375 8.127 8.6895 7.875 9 7.875C9.3105 7.875 9.5625 8.127 9.5625 8.4375V12.5625ZM9 6.75C8.58562 6.75 8.25 6.41438 8.25 6C8.25 5.58562 8.58562 5.25 9 5.25C9.41438 5.25 9.75 5.58562 9.75 6C9.75 6.41438 9.41438 6.75 9 6.75Z" fill="currentColor"/>
    </g>
    <defs>
        <clipPath id="clip0_394_13512">
            <rect width="15" height="15" fill="white" transform="translate(1.5 1.5)"/>
        </clipPath>
    </defs>
</svg>
