<svg width="24" height="24" viewBox="0 0 24 24" fill="none" xmlns="http://www.w3.org/2000/svg">
<path d="M11.75 7.24997H11.7501L11.7499 7.2428C11.749 7.17654 11.7744 7.11261 11.8205 7.06505C11.8667 7.01749 11.9298 6.9902 11.9961 6.98917C12.0296 6.98864 12.0628 6.99484 12.0938 7.0074C12.1248 7.01996 12.153 7.03861 12.1767 7.06227C12.2004 7.08592 12.2191 7.11409 12.2317 7.1451C12.2443 7.17611 12.2505 7.20933 12.2501 7.2428L12.25 7.2428V7.24997V13.25H12.25L12.25 13.257C12.2505 13.2902 12.2444 13.3231 12.232 13.3538C12.2197 13.3846 12.2013 13.4126 12.1781 13.4362L12.5341 13.7872L12.1781 13.4362C12.1548 13.4597 12.1271 13.4785 12.0965 13.4913C12.0659 13.5041 12.0331 13.5107 12 13.5107C11.9669 13.5107 11.9341 13.5041 11.9035 13.4913C11.8729 13.4785 11.8452 13.4597 11.8219 13.4362L11.4659 13.7872L11.8219 13.4362C11.7987 13.4126 11.7803 13.3846 11.768 13.3538C11.7556 13.3231 11.7495 13.2902 11.75 13.257L11.75 13.257V13.25V7.24997ZM8.74719 19.853L8.93853 19.391L8.74719 19.853C9.77846 20.2801 10.8838 20.5 12 20.5C13.1162 20.5 14.2215 20.2801 15.2528 19.853C16.2841 19.4258 17.2211 18.7997 18.0104 18.0104C18.7997 17.2211 19.4258 16.2841 19.853 15.2528C20.2801 14.2215 20.5 13.1162 20.5 12C20.5 9.74566 19.6045 7.58365 18.0104 5.98959C16.4163 4.39553 14.2543 3.5 12 3.5C9.74566 3.5 7.58365 4.39553 5.98959 5.98959C4.39553 7.58365 3.5 9.74566 3.5 12C3.5 13.1162 3.71986 14.2215 4.14702 15.2528C4.57419 16.2841 5.20029 17.2211 5.98959 18.0104C6.77889 18.7997 7.71592 19.4258 8.74719 19.853ZM11.5 16.5C11.5 16.3674 11.5527 16.2402 11.6464 16.1464C11.7402 16.0526 11.8674 16 12 16C12.1326 16 12.2598 16.0526 12.3536 16.1464C12.4473 16.2402 12.5 16.3674 12.5 16.5C12.5 16.6326 12.4473 16.7598 12.3536 16.8535C12.2598 16.9473 12.1326 17 12 17C11.8674 17 11.7402 16.9473 11.6464 16.8535C11.5527 16.7598 11.5 16.6326 11.5 16.5ZM5.28249 5.28249C7.06408 3.50089 9.48044 2.5 12 2.5C14.5196 2.5 16.9359 3.50089 18.7175 5.28249C20.4991 7.06408 21.5 9.48044 21.5 12C21.5 13.2476 21.2543 14.4829 20.7769 15.6355C20.2994 16.7881 19.5997 17.8354 18.7175 18.7175C17.8354 19.5997 16.7881 20.2994 15.6355 20.7769C14.4829 21.2543 13.2476 21.5 12 21.5C10.7524 21.5 9.5171 21.2543 8.36451 20.7769C7.21191 20.2994 6.16464 19.5997 5.28249 18.7175C4.40033 17.8354 3.70056 16.7881 3.22314 15.6355C2.74572 14.4829 2.5 13.2476 2.5 12C2.5 9.48044 3.50089 7.06408 5.28249 5.28249Z" fill="currentColor" stroke="currentColor"/>
</svg>
