<svg width="24" height="24" viewBox="0 0 24 24" fill="none" xmlns="http://www.w3.org/2000/svg">
<path fill-rule="evenodd" clip-rule="evenodd" d="M2.87868 4.87868C3.44129 4.31607 4.20435 4 5 4H11C11.2652 4 11.5196 4.10536 11.7071 4.29289L13.4142 6H19C19.7957 6 20.5587 6.31607 21.1213 6.87868C21.6839 7.44129 22 8.20435 22 9V17C22 17.7957 21.6839 18.5587 21.1213 19.1213C20.5587 19.6839 19.7957 20 19 20H5C4.20435 20 3.44129 19.6839 2.87868 19.1213C2.31607 18.5587 2 17.7956 2 17V7C2 6.20435 2.31607 5.44129 2.87868 4.87868ZM5 6C4.73478 6 4.48043 6.10536 4.29289 6.29289C4.10536 6.48043 4 6.73478 4 7V17C4 17.2652 4.10536 17.5196 4.29289 17.7071C4.48043 17.8946 4.73478 18 5 18H19C19.2652 18 19.5196 17.8946 19.7071 17.7071C19.8946 17.5196 20 17.2652 20 17V9C20 8.73478 19.8946 8.48043 19.7071 8.29289C19.5196 8.10536 19.2652 8 19 8H13C12.7348 8 12.4804 7.89464 12.2929 7.70711L10.5858 6H5Z" fill="currentColor"/>
</svg>
