<svg width="77" height="77" viewBox="0 0 77 77" fill="none" xmlns="http://www.w3.org/2000/svg">
<g clip-path="url(#clip0_10_170)">
<ellipse cx="43.0055" cy="65.4656" rx="24.2603" ry="2.85748" fill="#BCB7DE"/>
<ellipse cx="39.8286" cy="64.7099" rx="10.6102" ry="1.42172" fill="#9087C8"/>
<path d="M58.4663 12.1008V15.9761H10.0255V12.1008C10.0255 11.0731 10.4338 10.0874 11.1605 9.36062C11.8873 8.63387 12.873 8.22559 13.9008 8.22559H54.591C55.6188 8.22559 56.6045 8.63387 57.3312 9.36062C58.058 10.0874 58.4663 11.0731 58.4663 12.1008Z" fill="#DEDBEF"/>
<path d="M54.591 8.22559H51.6846C52.7124 8.22559 53.698 8.63387 54.4248 9.36062C55.1515 10.0874 55.5598 11.0731 55.5598 12.1008V15.9761H58.4663V12.1008C58.4663 11.0731 58.058 10.0874 57.3312 9.36062C56.6045 8.63387 55.6188 8.22559 54.591 8.22559Z" fill="#BDB7DE"/>
<path d="M58.4663 15.9761V30.7699C57.2416 28.2407 55.4815 26.0081 53.3079 24.227C51.1344 22.4459 48.5994 21.1588 45.8789 20.4551C43.1583 19.7514 40.3172 19.6479 37.5526 20.1518C34.7881 20.6556 32.1662 21.7548 29.8688 23.373C27.5714 24.9912 25.6534 27.0898 24.248 29.5232C22.8425 31.9566 21.9832 34.6665 21.7295 37.4652C21.4759 40.2638 21.834 43.0841 22.7791 45.7305C23.7242 48.377 25.2336 50.7862 27.2026 52.791H13.9008C12.873 52.791 11.8873 52.3828 11.1605 51.656C10.4338 50.9293 10.0255 49.9436 10.0255 48.9158V15.9761H58.4663Z" fill="#DEDBEF"/>
<path d="M55.5598 15.9761V26.4141C56.7212 27.7293 57.6989 29.1959 58.4663 30.7738V15.9761H55.5598Z" fill="#9087C8"/>
<path d="M39.6916 19.9191C39.1733 19.8775 38.6501 19.8513 38.1211 19.8513C34.3046 19.8497 30.5727 20.9757 27.3939 23.0879C24.2152 25.2002 21.7314 28.2045 20.2544 31.7236C18.7774 35.2427 18.373 39.1198 19.0921 42.868C19.8112 46.6162 21.6217 50.0683 24.2962 52.791H27.2026C24.6079 50.1513 22.8246 46.8228 22.0644 43.2003C21.3041 39.5777 21.5988 35.8132 22.9134 32.353C24.228 28.8929 26.5074 25.8824 29.4813 23.6785C32.4551 21.4747 35.9987 20.17 39.6916 19.9191Z" fill="#9087C8"/>
<path d="M60.4039 39.2276C60.4001 43.9844 58.6453 48.5733 55.4742 52.1189C52.3032 55.6645 47.9378 57.9187 43.211 58.4513C38.4841 58.9839 33.7266 57.7577 29.846 55.0067C25.9654 52.2557 23.2334 48.1724 22.1712 43.5357C21.109 38.899 21.7908 34.0336 24.0867 29.8676C26.3826 25.7015 30.1319 22.5265 34.6192 20.9482C39.1065 19.3699 44.0178 19.4988 48.4161 21.3103C52.8145 23.1218 56.392 26.4891 58.4662 30.7699C59.7449 33.4058 60.4075 36.2979 60.4039 39.2276Z" fill="#DEDBEF"/>
<path d="M58.4662 30.7699C56.8779 27.4961 54.3999 24.7357 51.3158 22.8048C48.2317 20.8738 44.6663 19.8502 41.0275 19.8513C40.5761 19.8513 40.1353 19.8881 39.6916 19.9191C43.2138 20.2046 46.5909 21.4482 49.4571 23.5152C52.3233 25.5822 54.5695 28.3939 55.9524 31.6459C57.3353 34.8979 57.8022 38.4662 57.3027 41.9645C56.8032 45.4628 55.3562 48.7579 53.1184 51.4928C51.4679 53.5112 49.4268 55.1754 47.1174 56.3856C44.808 57.5957 42.2779 58.3268 39.679 58.5351C40.1265 58.5661 40.5722 58.6039 41.0275 58.6039C44.3103 58.6023 47.5388 57.767 50.4105 56.1765C53.2822 54.586 55.703 52.2923 57.4458 49.5105C59.1887 46.7286 60.1967 43.5497 60.3751 40.2719C60.5536 36.994 59.8968 33.7245 58.4662 30.7699Z" fill="#BDB7DE"/>
<path d="M41.0275 54.7286C49.5885 54.7286 56.5286 47.7886 56.5286 39.2276C56.5286 30.6666 49.5885 23.7266 41.0275 23.7266C32.4665 23.7266 25.5265 30.6666 25.5265 39.2276C25.5265 47.7886 32.4665 54.7286 41.0275 54.7286Z" fill="#FFCE1F"/>
<path d="M41.0276 23.7266C40.5373 23.7266 40.0529 23.7556 39.5743 23.8002C43.4163 24.1608 46.9855 25.9421 49.5835 28.7954C52.1816 31.6487 53.6214 35.3687 53.6214 39.2276C53.6214 43.0865 52.1816 46.8065 49.5835 49.6598C46.9855 52.5131 43.4163 54.2944 39.5743 54.655C40.0529 54.6996 40.5373 54.7286 41.0276 54.7286C45.1387 54.7286 49.0814 53.0955 51.9885 50.1885C54.8955 47.2815 56.5286 43.3387 56.5286 39.2276C56.5286 35.1165 54.8955 31.1737 51.9885 28.2667C49.0814 25.3597 45.1387 23.7266 41.0276 23.7266Z" fill="#9087C8"/>
<path d="M65.3642 63.5643C65.0948 63.8345 64.7747 64.0489 64.4222 64.1952C64.0698 64.3414 63.6919 64.4167 63.3104 64.4167C62.9288 64.4167 62.5509 64.3414 62.1985 64.1952C61.846 64.0489 61.5259 63.8345 61.2565 63.5643L57.3812 59.6891C57.0913 59.4002 56.8662 59.053 56.7209 58.6705C56.5756 58.288 56.5134 57.8789 56.5383 57.4705C56.5832 56.7022 56.9276 55.9822 57.4975 55.465C57.9868 55.0254 58.6133 54.7687 59.2704 54.7384C59.6788 54.7134 60.0879 54.7757 60.4704 54.921C60.853 55.0663 61.2002 55.2914 61.489 55.5813L65.3642 59.4565C65.9085 60.0015 66.2142 60.7402 66.2142 61.5104C66.2142 62.2806 65.9085 63.0194 65.3642 63.5643Z" fill="#DEDBEF"/>
<path d="M59.2703 54.7384C58.6132 54.7687 57.9868 55.0255 57.4974 55.4651C56.9275 55.9822 56.5831 56.7022 56.5383 57.4705L53.2927 54.225C54.2931 53.4087 55.2085 52.4933 56.0248 51.4929L59.2703 54.7384Z" fill="#BDB7DE"/>
<path d="M13.9008 52.7911H16.8072C15.7794 52.7911 14.7937 52.3828 14.067 51.656C13.3402 50.9293 12.932 49.9436 12.932 48.9158V12.1008C12.932 11.0731 13.3402 10.0874 14.067 9.36062C14.7937 8.63387 15.7794 8.22559 16.8072 8.22559H13.9008C12.873 8.22559 11.8873 8.63387 11.1605 9.36062C10.4338 10.0874 10.0255 11.0731 10.0255 12.1008V48.9158C10.0255 49.9436 10.4338 50.9293 11.1605 51.656C11.8873 52.3828 12.873 52.7911 13.9008 52.7911Z" fill="white"/>
<path d="M9.05664 41.1653H10.9943V48.9158H9.05664V41.1653Z" fill="white"/>
<path d="M10.0255 46.0093C10.5605 46.0093 10.9943 45.5755 10.9943 45.0405C10.9943 44.5054 10.5605 44.0717 10.0255 44.0717C9.49039 44.0717 9.05664 44.5054 9.05664 45.0405C9.05664 45.5755 9.49039 46.0093 10.0255 46.0093Z" fill="#6254B8"/>
<path d="M14.8696 13.0696C15.4046 13.0696 15.8384 12.6358 15.8384 12.1008C15.8384 11.5657 15.4046 11.132 14.8696 11.132C14.3345 11.132 13.9008 11.5657 13.9008 12.1008C13.9008 12.6358 14.3345 13.0696 14.8696 13.0696Z" fill="#6254B8"/>
<path d="M18.7448 13.0696C19.2799 13.0696 19.7136 12.6358 19.7136 12.1008C19.7136 11.5657 19.2799 11.132 18.7448 11.132C18.2098 11.132 17.776 11.5657 17.776 12.1008C17.776 12.6358 18.2098 13.0696 18.7448 13.0696Z" fill="#6254B8"/>
<path d="M22.6201 13.0696C23.1551 13.0696 23.5889 12.6358 23.5889 12.1008C23.5889 11.5657 23.1551 11.132 22.6201 11.132C22.085 11.132 21.6512 11.5657 21.6512 12.1008C21.6512 12.6358 22.085 13.0696 22.6201 13.0696Z" fill="#6254B8"/>
<path d="M37.1523 11.132H31.3394C31.0825 11.132 30.8361 11.234 30.6544 11.4157C30.4727 11.5974 30.3706 11.8438 30.3706 12.1008C30.3706 12.3577 30.4727 12.6041 30.6544 12.7858C30.8361 12.9675 31.0825 13.0696 31.3394 13.0696H37.1523C37.4093 13.0696 37.6557 12.9675 37.8374 12.7858C38.0191 12.6041 38.1211 12.3577 38.1211 12.1008C38.1211 11.8438 38.0191 11.5974 37.8374 11.4157C37.6557 11.234 37.4093 11.132 37.1523 11.132Z" fill="#6254B8"/>
<path d="M41.0275 22.7578C37.7701 22.7578 34.5858 23.7238 31.8773 25.5335C29.1689 27.3432 27.0579 29.9155 25.8113 32.9249C24.5648 35.9344 24.2386 39.2459 24.8741 42.4408C25.5096 45.6356 27.0782 48.5703 29.3815 50.8736C31.6849 53.177 34.6195 54.7456 37.8144 55.3811C41.0092 56.0166 44.3207 55.6904 47.3302 54.4438C50.3397 53.1973 52.9119 51.0863 54.7217 48.3778C56.5314 45.6694 57.4973 42.4851 57.4973 39.2277C57.4925 34.8611 55.7557 30.6747 52.668 27.5871C49.5804 24.4995 45.3941 22.7627 41.0275 22.7578ZM41.0275 53.7599C38.1533 53.7599 35.3436 52.9076 32.9538 51.3108C30.564 49.714 28.7014 47.4443 27.6015 44.7889C26.5015 42.1335 26.2138 39.2115 26.7745 36.3926C27.3352 33.5736 28.7193 30.9842 30.7516 28.9518C32.784 26.9195 35.3734 25.5354 38.1924 24.9747C41.0114 24.4139 43.9333 24.7017 46.5887 25.8016C49.2441 26.9016 51.5138 28.7642 53.1106 31.154C54.7074 33.5438 55.5597 36.3535 55.5597 39.2277C55.5553 43.0805 54.0229 46.7743 51.2985 49.4987C48.5741 52.2231 44.8803 53.7555 41.0275 53.7599Z" fill="#6254B8"/>
<path d="M62.1729 54.8943C61.5062 54.231 60.6199 53.8344 59.6811 53.7792L57.2959 51.393C59.5162 48.4561 60.8895 44.967 61.2666 41.3046C61.6437 37.6422 61.0103 33.9465 59.435 30.6187V12.1008C59.4335 10.8165 58.9226 9.58532 58.0145 8.67721C57.1064 7.7691 55.8752 7.25825 54.5909 7.25671L13.9007 7.25671C12.6165 7.25825 11.3852 7.7691 10.4771 8.67721C9.56903 9.58532 9.05818 10.8165 9.05664 12.1008V41.1652C9.05664 41.4222 9.15871 41.6686 9.3404 41.8503C9.52209 42.032 9.76851 42.134 10.0255 42.134C10.2824 42.134 10.5288 42.032 10.7105 41.8503C10.8922 41.6686 10.9943 41.4222 10.9943 41.1652V16.9449H57.4974V27.3315C55.9158 25.1327 53.9106 23.2722 51.5997 21.8595C49.2887 20.4467 46.7186 19.5103 44.0405 19.1052C41.3624 18.7001 38.6303 18.8344 36.0049 19.5004C33.3795 20.1664 30.9137 21.3506 28.7526 22.9833C26.5914 24.616 24.7785 26.6643 23.4204 29.0078C22.0622 31.3512 21.1863 33.9426 20.8442 36.6295C20.502 39.3163 20.7004 42.0445 21.4278 44.6536C22.1552 47.2626 23.3969 49.6999 25.0799 51.8222H13.9007C13.1299 51.8222 12.3906 51.516 11.8455 50.9709C11.3005 50.4259 10.9943 49.6866 10.9943 48.9158C10.9943 48.6588 10.8922 48.4124 10.7105 48.2307C10.5288 48.049 10.2824 47.9469 10.0255 47.9469C9.76851 47.9469 9.52209 48.049 9.3404 48.2307C9.15871 48.4124 9.05664 48.6588 9.05664 48.9158C9.05818 50.2 9.56903 51.4312 10.4771 52.3393C11.3852 53.2474 12.6165 53.7583 13.9007 53.7598H26.816C30.2747 57.1629 34.8407 59.2102 39.6824 59.5289C44.524 59.8475 49.319 58.4163 53.1939 55.4959L55.5879 57.8909C55.6402 58.8255 56.0339 59.7084 56.6942 60.372L60.5695 64.2472C60.9249 64.6246 61.3523 64.9268 61.8265 65.136C62.3007 65.3452 62.8121 65.4571 63.3303 65.4652C63.8486 65.4732 64.3632 65.3773 64.8437 65.1829C65.3241 64.9886 65.7608 64.6998 66.1277 64.3338C66.4946 63.9677 66.7844 63.5317 66.9798 63.0517C67.1753 62.5716 67.2724 62.0573 67.2655 61.539C67.2587 61.0207 67.1479 60.5091 66.9398 60.0344C66.7317 59.5597 66.4305 59.1316 66.054 58.7754L62.1729 54.8943ZM10.9943 15.0072V12.1008C10.9943 11.33 11.3005 10.5907 11.8455 10.0456C12.3906 9.50056 13.1299 9.19434 13.9007 9.19434H54.5909C55.3618 9.19434 56.101 9.50056 56.6461 10.0456C57.1912 10.5907 57.4974 11.33 57.4974 12.1008V15.0072H10.9943ZM22.62 39.2276C22.62 35.5869 23.6996 32.028 25.7223 29.001C27.7449 25.9739 30.6198 23.6145 33.9833 22.2213C37.3468 20.8281 41.048 20.4636 44.6187 21.1738C48.1894 21.8841 51.4693 23.6372 54.0436 26.2115C56.6179 28.7859 58.3711 32.0658 59.0813 35.6365C59.7916 39.2072 59.427 42.9083 58.0338 46.2718C56.6406 49.6354 54.2813 52.5102 51.2542 54.5329C48.2271 56.5555 44.6682 57.6351 41.0275 57.6351C36.1472 57.6297 31.4683 55.6886 28.0174 52.2377C24.5665 48.7868 22.6254 44.1079 22.62 39.2276ZM56.0558 52.8937L57.4615 54.2995C56.8967 54.6289 56.4314 55.1049 56.1149 55.6771L54.6936 54.2559C55.1696 53.8231 55.6237 53.3691 56.0558 52.8937ZM64.6782 62.8851C64.3097 63.2364 63.8197 63.4318 63.3106 63.4307C62.8014 63.4296 62.3123 63.2321 61.9452 62.8793L58.07 59.004C57.8845 58.8176 57.7389 58.5954 57.6421 58.3509C57.5452 58.1064 57.4992 57.8448 57.5067 57.582C57.5142 57.3191 57.5752 57.0606 57.6858 56.822C57.7965 56.5835 57.9545 56.37 58.1504 56.1945C58.5195 55.8655 59.0004 55.6901 59.4946 55.7041C59.9888 55.7182 60.459 55.9206 60.8088 56.27L64.6841 60.1453C64.8641 60.3257 65.0068 60.5398 65.104 60.7754C65.2012 61.011 65.2509 61.2635 65.2504 61.5183C65.2499 61.7732 65.199 62.0255 65.1009 62.2607C65.0027 62.4958 64.8591 62.7094 64.6782 62.889V62.8851Z" fill="#6254B8"/>
<path d="M41.073 49.138C42.3528 49.138 43.3902 48.1006 43.3902 46.8208C43.3902 45.5411 42.3528 44.5037 41.073 44.5037C39.7933 44.5037 38.7559 45.5411 38.7559 46.8208C38.7559 48.1006 39.7933 49.138 41.073 49.138Z" fill="#BDB7DE"/>
<path d="M43.9704 46.8209C43.9704 46.248 43.8005 45.688 43.4823 45.2117C43.164 44.7354 42.7116 44.3641 42.1824 44.1449C41.6531 43.9257 41.0707 43.8683 40.5089 43.9801C39.947 44.0919 39.4309 44.3677 39.0258 44.7728C38.6208 45.1779 38.3449 45.694 38.2331 46.2558C38.1214 46.8177 38.1787 47.4001 38.398 47.9293C38.6172 48.4586 38.9884 48.911 39.4648 49.2292C39.9411 49.5475 40.5011 49.7174 41.074 49.7174C41.8419 49.7164 42.5781 49.411 43.121 48.868C43.664 48.325 43.9695 47.5888 43.9704 46.8209ZM39.3361 46.8209C39.3361 46.4772 39.438 46.1412 39.629 45.8554C39.8199 45.5696 40.0913 45.3469 40.4089 45.2153C40.7265 45.0838 41.0759 45.0494 41.413 45.1164C41.7501 45.1835 42.0598 45.349 42.3028 45.592C42.5459 45.8351 42.7114 46.1447 42.7784 46.4819C42.8455 46.819 42.8111 47.1684 42.6795 47.486C42.548 47.8035 42.3253 48.0749 42.0395 48.2659C41.7537 48.4569 41.4177 48.5588 41.074 48.5588C40.613 48.5588 40.171 48.3757 39.8451 48.0498C39.5192 47.7239 39.3361 47.2818 39.3361 46.8209Z" fill="#6254B8"/>
<path d="M43.3902 31.7593C43.3902 33.039 42.3527 42.1866 41.073 42.1866C39.7934 42.1866 38.7559 33.039 38.7559 31.7593C38.7559 31.1448 39 30.5554 39.4345 30.1208C39.8691 29.6863 40.4585 29.4421 41.073 29.4421C41.6876 29.4421 42.277 29.6863 42.7115 30.1208C43.1461 30.5554 43.3902 31.1448 43.3902 31.7593Z" fill="#BDB7DE"/>
<path d="M41.0743 42.7658C41.7115 42.7658 42.4594 42.3603 43.2837 37.5522C43.6223 35.6358 43.8517 33.7017 43.9708 31.7593C43.9708 30.9911 43.6656 30.2543 43.1224 29.7111C42.5792 29.168 41.8425 28.8628 41.0743 28.8628C40.3061 28.8628 39.5694 29.168 39.0262 29.7111C38.483 30.2543 38.1779 30.9911 38.1779 31.7593C38.297 33.7017 38.5263 35.6358 38.8649 37.5522C39.6892 42.3603 40.4371 42.7658 41.0743 42.7658ZM41.0743 30.0214C41.5352 30.0214 41.9773 30.2045 42.3032 30.5304C42.6291 30.8563 42.8122 31.2983 42.8122 31.7593C42.8122 33.3077 41.8952 40.1503 41.0743 41.4728C40.2535 40.1503 39.3364 33.3048 39.3364 31.7593C39.3364 31.2983 39.5195 30.8563 39.8455 30.5304C40.1714 30.2045 40.6134 30.0214 41.0743 30.0214Z" fill="#6254B8"/>
</g>
<defs>
<clipPath id="clip0_10_170">
<rect width="58.2424" height="62" fill="white" transform="translate(9.05664 7.25671)"/>
</clipPath>
</defs>
</svg>
