<svg width="100" height="100" viewBox="0 0 100 100" fill="none" xmlns="http://www.w3.org/2000/svg">
<path d="M50.6396 23.1394C50.8715 23.0499 51.1285 23.0498 51.3604 23.1394L70.5859 30.5671C71.4381 30.8968 71.438 32.1026 70.5859 32.4324L61.4541 35.9597L81.5312 43.5652C82.3918 43.8915 82.3919 45.1091 81.5312 45.4353L68.8672 50.2312L90.71 59.073C91.5426 59.4103 91.5426 60.5891 90.71 60.9265L51.375 76.8484C51.1345 76.9457 50.8655 76.9456 50.625 76.8484L11.29 60.9265C10.457 60.5893 10.457 59.4102 11.29 59.073L33.1318 50.2322L20.4688 45.4353C19.6077 45.1092 19.6077 43.8913 20.4688 43.5652L40.5449 35.9597L31.4141 32.4324C30.5614 32.1028 30.5613 30.8966 31.4141 30.5671L50.6396 23.1394Z" fill="white"/>
<path d="M50.6248 43.1519C50.8655 43.0545 51.1345 43.0545 51.3752 43.1519L90.7099 59.0731C91.543 59.4103 91.543 60.5897 90.7099 60.9269L51.3752 76.8481C51.1345 76.9455 50.8655 76.9455 50.6248 76.8481L11.2901 60.9269C10.457 60.5897 10.457 59.4103 11.2901 59.0731L50.6248 43.1519Z" fill="url(#paint0_linear_4115_8869)"/>
<g style="mix-blend-mode:hard-light">
<path d="M50.6458 32.1342C50.874 32.0477 51.126 32.0477 51.3542 32.1342L81.5312 43.5648C82.3922 43.891 82.3922 45.109 81.5312 45.4352L51.3542 56.8658C51.126 56.9523 50.874 56.9523 50.6458 56.8658L20.4688 45.4352C19.6078 45.109 19.6078 43.891 20.4688 43.5648L50.6458 32.1342Z" fill="url(#paint1_linear_4115_8869)"/>
</g>
<g style="mix-blend-mode:multiply">
<path d="M50.6396 23.1392C50.8715 23.0496 51.1285 23.0496 51.3604 23.1392L70.5857 30.5672C71.4385 30.8967 71.4385 32.1033 70.5857 32.4328L51.3604 39.8608C51.1285 39.9504 50.8715 39.9504 50.6396 39.8608L31.4143 32.4328C30.5615 32.1033 30.5615 30.8967 31.4143 30.5672L50.6396 23.1392Z" fill="url(#paint2_linear_4115_8869)"/>
</g>
<defs>
<linearGradient id="paint0_linear_4115_8869" x1="9" y1="77" x2="93" y2="43" gradientUnits="userSpaceOnUse">
<stop stop-color="#4B4FE2"/>
<stop offset="0.728157" stop-color="#0EC38B"/>
</linearGradient>
<linearGradient id="paint1_linear_4115_8869" x1="0.52941" y1="54.0833" x2="97.1315" y2="30.6895" gradientUnits="userSpaceOnUse">
<stop offset="0.0896746" stop-color="#0085F0"/>
<stop offset="0.962798" stop-color="#072B55"/>
</linearGradient>
<linearGradient id="paint2_linear_4115_8869" x1="29" y1="40" x2="73" y2="23" gradientUnits="userSpaceOnUse">
<stop offset="0.448969" stop-color="#FF7C66"/>
<stop offset="0.916838" stop-color="#A03291"/>
</linearGradient>
</defs>
</svg>
