<svg width="135" height="136" viewBox="0 0 135 136" fill="none" xmlns="http://www.w3.org/2000/svg">
<g clip-path="url(#clip0_5005_10073)">
<ellipse cx="76.0763" cy="116.332" rx="43.0939" ry="5.07578" fill="#E5E5E5"/>
<ellipse cx="70.4331" cy="114.988" rx="18.8471" ry="2.52543" fill="#CCCCCC"/>
<path d="M103.538 21.538V28.4217H17.4922V21.538C17.4922 19.7123 18.2174 17.9614 19.5084 16.6705C20.7993 15.3795 22.5502 14.6543 24.3759 14.6543H96.6546C98.4802 14.6543 100.231 15.3795 101.522 16.6705C102.813 17.9614 103.538 19.7123 103.538 21.538Z" fill="white"/>
<path d="M96.655 14.6543H91.4922C93.3179 14.6543 95.0687 15.3795 96.3597 16.6705C97.6506 17.9614 98.3759 19.7123 98.3759 21.538V28.4217H103.539V21.538C103.539 19.7123 102.813 17.9614 101.522 16.6705C100.232 15.3795 98.4806 14.6543 96.655 14.6543Z" fill="white"/>
<path d="M103.538 28.4219V54.7003C101.363 50.2077 98.2363 46.2419 94.3754 43.0781C90.5145 39.9143 86.0116 37.6281 81.179 36.3781C76.3464 35.1281 71.2998 34.9443 66.3891 35.8392C61.4783 36.7342 56.821 38.6867 52.7401 41.5611C48.6592 44.4356 45.2523 48.1633 42.7558 52.4858C40.2593 56.8083 38.7328 61.622 38.2822 66.5933C37.8317 71.5646 38.4679 76.5743 40.1466 81.2752C41.8253 85.9761 44.5065 90.2556 48.0041 93.8169H24.3759C22.5502 93.8169 20.7993 93.0916 19.5084 91.8007C18.2174 90.5098 17.4922 88.7589 17.4922 86.9332V28.4219H103.538Z" fill="white"/>
<path d="M98.375 28.4219V46.9631C100.438 49.2993 102.175 51.9044 103.538 54.7072V28.4219H98.375Z" fill="white"/>
<path d="M70.1878 35.4252C69.2671 35.3512 68.3378 35.3047 67.3982 35.3047C60.6188 35.3018 53.9897 37.3019 48.3433 41.0539C42.6969 44.8059 38.2848 50.1425 35.6612 56.3936C33.0376 62.6447 32.3193 69.5317 33.5966 76.1896C34.874 82.8475 38.0899 88.9797 42.8407 93.816H48.0034C43.3943 89.1271 40.2267 83.2146 38.8763 76.7798C37.5259 70.345 38.0493 63.658 40.3844 57.5117C42.7196 51.3654 46.7685 46.0177 52.051 42.103C57.3335 38.1883 63.628 35.8707 70.1878 35.4252Z" fill="white"/>
<path d="M106.981 69.7229C106.974 78.1724 103.857 86.3238 98.2245 92.6219C92.5917 98.92 84.8374 102.924 76.441 103.87C68.0446 104.816 59.5937 102.638 52.7006 97.7516C45.8075 92.8649 40.9546 85.6116 39.0677 77.3754C37.1809 69.1392 38.3921 60.4967 42.4704 53.0965C46.5486 45.6963 53.2084 40.0565 61.1793 37.2529C69.1502 34.4494 77.8742 34.6783 85.6871 37.8961C93.4999 41.1139 99.8547 47.0953 103.539 54.6992C105.81 59.3815 106.987 64.5188 106.981 69.7229Z" fill="white"/>
<path d="M103.538 54.6995C100.717 48.8842 96.315 43.9809 90.8367 40.5509C85.3585 37.1209 79.025 35.3028 72.5615 35.3047C71.7596 35.3047 70.9766 35.3701 70.1884 35.4252C76.445 35.9322 82.4437 38.1412 87.535 41.8129C92.6264 45.4846 96.6162 50.4791 99.0727 56.2556C101.529 62.0321 102.359 68.3706 101.471 74.5847C100.584 80.7988 98.0137 86.6518 94.0386 91.51C91.107 95.0953 87.4812 98.0514 83.379 100.201C79.2767 102.351 74.7825 103.649 70.166 104.019C70.9611 104.074 71.7527 104.142 72.5615 104.142C78.3927 104.139 84.1276 102.655 89.2286 99.8297C94.3297 97.0045 98.6297 92.9301 101.726 87.9887C104.822 83.0473 106.612 77.4006 106.929 71.578C107.246 65.7555 106.079 59.9478 103.538 54.6995Z" fill="white"/>
<path d="M72.5621 97.2589C87.7691 97.2589 100.097 84.9312 100.097 69.7242C100.097 54.5172 87.7691 42.1895 72.5621 42.1895C57.3551 42.1895 45.0273 54.5172 45.0273 69.7242C45.0273 84.9312 57.3551 97.2589 72.5621 97.2589Z" fill="white"/>
<path d="M72.5619 42.1895C71.6911 42.1895 70.8306 42.2411 69.9805 42.3202C76.8051 42.9609 83.1451 46.1249 87.76 51.1933C92.3749 56.2616 94.9325 62.8696 94.9325 69.7242C94.9325 76.5788 92.3749 83.1868 87.76 88.2551C83.1451 93.3235 76.8051 96.4875 69.9805 97.1281C70.8306 97.2073 71.6911 97.2589 72.5619 97.2589C79.8645 97.2589 86.8681 94.358 92.0319 89.1942C97.1956 84.0304 100.097 77.0269 100.097 69.7242C100.097 62.4215 97.1956 55.418 92.0319 50.2542C86.8681 45.0904 79.8645 42.1895 72.5619 42.1895Z" fill="white"/>
<path d="M115.791 112.953C115.312 113.433 114.743 113.814 114.117 114.073C113.491 114.333 112.82 114.467 112.142 114.467C111.464 114.467 110.793 114.333 110.167 114.073C109.541 113.814 108.973 113.433 108.494 112.953L101.61 106.069C101.095 105.556 100.696 104.939 100.437 104.26C100.179 103.58 100.069 102.854 100.113 102.128C100.193 100.764 100.804 99.4845 101.817 98.5659C102.686 97.785 103.799 97.329 104.966 97.2752C105.692 97.2308 106.418 97.3413 107.098 97.5995C107.777 97.8576 108.394 98.2575 108.907 98.7724L115.791 105.656C116.757 106.624 117.301 107.936 117.301 109.304C117.301 110.673 116.757 111.985 115.791 112.953Z" fill="white"/>
<path d="M104.966 97.2748C103.798 97.3286 102.686 97.7847 101.816 98.5655C100.804 99.4842 100.192 100.763 100.113 102.128L94.3477 96.3628C96.1247 94.9127 97.7506 93.2868 99.2007 91.5098L104.966 97.2748Z" fill="white"/>
<path d="M24.3759 93.8167H29.5386C27.713 93.8167 25.9621 93.0914 24.6711 91.8005C23.3802 90.5096 22.655 88.7587 22.655 86.933V21.538C22.655 19.7123 23.3802 17.9614 24.6711 16.6705C25.9621 15.3795 27.713 14.6543 29.5386 14.6543H24.3759C22.5502 14.6543 20.7993 15.3795 19.5084 16.6705C18.2174 17.9614 17.4922 19.7123 17.4922 21.538V86.933C17.4922 88.7587 18.2174 90.5096 19.5084 91.8005C20.7993 93.0914 22.5502 93.8167 24.3759 93.8167Z" fill="white"/>
<path d="M15.7715 73.166H19.2133V86.9334H15.7715V73.166Z" fill="white"/>
<path d="M17.4924 81.77C18.4428 81.77 19.2133 80.9995 19.2133 80.049C19.2133 79.0986 18.4428 78.3281 17.4924 78.3281C16.542 78.3281 15.7715 79.0986 15.7715 80.049C15.7715 80.9995 16.542 81.77 17.4924 81.77Z" fill="url(#paint0_linear_5005_10073)"/>
<path d="M26.0979 23.2582C27.0483 23.2582 27.8188 22.4878 27.8188 21.5373C27.8188 20.5869 27.0483 19.8164 26.0979 19.8164C25.1474 19.8164 24.377 20.5869 24.377 21.5373C24.377 22.4878 25.1474 23.2582 26.0979 23.2582Z" fill="url(#paint1_linear_5005_10073)"/>
<path d="M32.9807 23.2582C33.9311 23.2582 34.7016 22.4878 34.7016 21.5373C34.7016 20.5869 33.9311 19.8164 32.9807 19.8164C32.0302 19.8164 31.2598 20.5869 31.2598 21.5373C31.2598 22.4878 32.0302 23.2582 32.9807 23.2582Z" fill="url(#paint2_linear_5005_10073)"/>
<path d="M39.8635 23.2582C40.8139 23.2582 41.5844 22.4878 41.5844 21.5373C41.5844 20.5869 40.8139 19.8164 39.8635 19.8164C38.9131 19.8164 38.1426 20.5869 38.1426 21.5373C38.1426 22.4878 38.9131 23.2582 39.8635 23.2582Z" fill="url(#paint3_linear_5005_10073)"/>
<path d="M65.6773 19.8164H55.3518C54.8954 19.8164 54.4576 19.9977 54.1349 20.3205C53.8122 20.6432 53.6309 21.0809 53.6309 21.5373C53.6309 21.9937 53.8122 22.4315 54.1349 22.7542C54.4576 23.0769 54.8954 23.2582 55.3518 23.2582H65.6773C66.1337 23.2582 66.5715 23.0769 66.8942 22.7542C67.2169 22.4315 67.3982 21.9937 67.3982 21.5373C67.3982 21.0809 67.2169 20.6432 66.8942 20.3205C66.5715 19.9977 66.1337 19.8164 65.6773 19.8164Z" fill="url(#paint4_linear_5005_10073)"/>
<path d="M72.5623 40.4688C66.7761 40.4688 61.1198 42.1846 56.3087 45.3992C51.4977 48.6139 47.7479 53.183 45.5336 58.5288C43.3193 63.8745 42.74 69.7569 43.8688 75.4319C44.9976 81.107 47.784 86.3198 51.8754 90.4113C55.9669 94.5028 61.1798 97.2891 66.8548 98.4179C72.5299 99.5468 78.4122 98.9674 83.758 96.7531C89.1038 94.5388 93.6729 90.7891 96.8875 85.978C100.102 81.1669 101.818 75.5106 101.818 69.7244C101.809 61.968 98.7243 54.5317 93.2396 49.0471C87.755 43.5625 80.3187 40.4774 72.5623 40.4688ZM72.5623 95.5382C67.4568 95.5382 62.466 94.0243 58.2209 91.1878C53.9759 88.3514 50.6672 84.3198 48.7135 79.6029C46.7597 74.8861 46.2485 69.6958 47.2445 64.6884C48.2405 59.681 50.6991 55.0814 54.3092 51.4713C57.9193 47.8612 62.5189 45.4026 67.5263 44.4066C72.5337 43.4106 77.724 43.9218 82.4408 45.8756C87.1577 47.8293 91.1893 51.138 94.0257 55.383C96.8622 59.6281 98.3761 64.6189 98.3761 69.7244C98.3684 76.5683 95.6462 83.1296 90.8069 87.969C85.9675 92.8083 79.4062 95.5305 72.5623 95.5382Z" fill="url(#paint5_linear_5005_10073)"/>
<path d="M110.123 97.553C108.938 96.3748 107.364 95.6703 105.697 95.5722L101.46 91.3336C105.404 86.1167 107.843 79.919 108.513 73.4134C109.183 66.9078 108.058 60.343 105.259 54.4319V21.5382C105.257 19.257 104.349 17.0699 102.736 15.4568C101.123 13.8438 98.936 12.9363 96.6548 12.9336L24.3761 12.9336C22.0948 12.9363 19.9078 13.8438 18.2947 15.4568C16.6816 17.0699 15.7742 19.257 15.7715 21.5382L15.7715 73.1658C15.7715 73.6222 15.9528 74.06 16.2755 74.3827C16.5983 74.7054 17.036 74.8868 17.4924 74.8868C17.9488 74.8868 18.3865 74.7054 18.7093 74.3827C19.032 74.06 19.2133 73.6222 19.2133 73.1658V30.1428H101.818V48.5928C99.0082 44.6869 95.4463 41.3821 91.3413 38.8727C87.2363 36.3632 82.671 34.6998 77.9139 33.9802C73.1567 33.2606 68.3037 33.4993 63.6402 34.6823C58.9766 35.8653 54.5966 37.9688 50.7577 40.869C46.9188 43.7692 43.6985 47.4076 41.286 51.5704C38.8736 55.7331 37.3177 60.3361 36.7099 65.1089C36.102 69.8816 36.4545 74.7277 37.7466 79.3622C39.0387 83.9967 41.2443 88.3262 44.2338 92.096H24.3761C23.0068 92.096 21.6937 91.552 20.7255 90.5838C19.7573 89.6156 19.2133 88.3025 19.2133 86.9332C19.2133 86.4768 19.032 86.0391 18.7093 85.7163C18.3865 85.3936 17.9488 85.2123 17.4924 85.2123C17.036 85.2123 16.5983 85.3936 16.2755 85.7163C15.9528 86.0391 15.7715 86.4768 15.7715 86.9332C15.7742 89.2144 16.6816 91.4015 18.2947 93.0146C19.9078 94.6276 22.0948 95.5351 24.3761 95.5378H47.3177C53.4614 101.583 61.5722 105.219 70.1725 105.785C78.7728 106.352 87.2902 103.809 94.1732 98.6217L98.4256 102.876C98.5186 104.536 99.2179 106.104 100.391 107.283L107.275 114.167C107.906 114.837 108.665 115.374 109.507 115.745C110.35 116.117 111.258 116.316 112.179 116.33C113.099 116.345 114.013 116.174 114.867 115.829C115.72 115.484 116.496 114.971 117.148 114.32C117.799 113.67 118.314 112.896 118.661 112.043C119.009 111.19 119.181 110.277 119.169 109.356C119.157 108.435 118.96 107.527 118.59 106.683C118.221 105.84 117.686 105.08 117.017 104.447L110.123 97.553ZM19.2133 26.701V21.5382C19.2133 20.1689 19.7573 18.8558 20.7255 17.8876C21.6937 16.9194 23.0068 16.3754 24.3761 16.3754H96.6548C98.024 16.3754 99.3372 16.9194 100.305 17.8876C101.274 18.8558 101.818 20.1689 101.818 21.5382V26.701H19.2133ZM39.8644 69.724C39.8644 63.257 41.7821 56.9353 45.3749 51.5582C48.9678 46.1812 54.0744 41.9902 60.0491 39.5154C66.0238 37.0406 72.5982 36.3931 78.9408 37.6548C85.2835 38.9164 91.1097 42.0305 95.6825 46.6034C100.255 51.1762 103.369 57.0023 104.631 63.345C105.893 69.6877 105.245 76.2621 102.77 82.2368C100.296 88.2115 96.1047 93.3181 90.7276 96.911C85.3506 100.504 79.0288 102.421 72.5619 102.421C63.8929 102.412 55.5817 98.964 49.4518 92.8341C43.3219 86.7042 39.8739 78.393 39.8644 69.724ZM99.2568 93.9993L101.754 96.4964C100.75 97.0815 99.9239 97.927 99.3618 98.9435L96.8372 96.4189C97.6827 95.6502 98.4893 94.8437 99.2568 93.9993ZM114.573 111.747C113.918 112.371 113.048 112.718 112.144 112.716C111.239 112.714 110.37 112.364 109.718 111.737L102.835 104.853C102.505 104.522 102.247 104.127 102.075 103.693C101.903 103.259 101.821 102.794 101.834 102.327C101.847 101.86 101.956 101.401 102.152 100.977C102.349 100.554 102.63 100.174 102.977 99.8625C103.633 99.2782 104.487 98.9666 105.365 98.9915C106.243 99.0165 107.078 99.3761 107.7 99.9967L114.583 106.88C114.903 107.201 115.157 107.581 115.329 108C115.502 108.418 115.59 108.867 115.589 109.319C115.588 109.772 115.498 110.22 115.324 110.638C115.149 111.056 114.894 111.435 114.573 111.754V111.747Z" fill="url(#paint6_linear_5005_10073)"/>
<path d="M72.6434 87.3278C74.9166 87.3278 76.7594 85.485 76.7594 83.2117C76.7594 80.9385 74.9166 79.0957 72.6434 79.0957C70.3702 79.0957 68.5273 80.9385 68.5273 83.2117C68.5273 85.485 70.3702 87.3278 72.6434 87.3278Z" fill="white"/>
<path d="M77.7901 83.2114C77.7901 82.1939 77.4883 81.1991 76.923 80.353C76.3576 79.5069 75.5541 78.8475 74.614 78.4581C73.6738 78.0686 72.6393 77.9667 71.6413 78.1653C70.6433 78.3638 69.7265 78.8538 69.0069 79.5734C68.2874 80.2929 67.7974 81.2097 67.5989 82.2077C67.4003 83.2057 67.5022 84.2402 67.8916 85.1804C68.2811 86.1205 68.9405 86.924 69.7866 87.4894C70.6327 88.0547 71.6274 88.3565 72.645 88.3565C74.0091 88.3548 75.3168 87.8123 76.2813 86.8477C77.2458 85.8832 77.7884 84.5755 77.7901 83.2114ZM69.558 83.2114C69.558 82.6009 69.7391 82.004 70.0783 81.4964C70.4175 80.9887 70.8996 80.5931 71.4637 80.3594C72.0278 80.1258 72.6485 80.0646 73.2473 80.1837C73.8461 80.3029 74.3962 80.5969 74.8279 81.0286C75.2596 81.4603 75.5536 82.0104 75.6727 82.6092C75.7919 83.208 75.7307 83.8287 75.4971 84.3928C75.2634 84.9569 74.8678 85.439 74.3601 85.7782C73.8524 86.1174 73.2556 86.2985 72.645 86.2985C71.8263 86.2985 71.0411 85.9732 70.4622 85.3943C69.8833 84.8154 69.558 84.0302 69.558 83.2114Z" fill="url(#paint7_linear_5005_10073)"/>
<path d="M76.7594 56.4578C76.7594 58.7309 74.9164 74.9799 72.6434 74.9799C70.3703 74.9799 68.5273 58.7309 68.5273 56.4578C68.5273 55.3662 68.961 54.3193 69.7329 53.5474C70.5048 52.7754 71.5517 52.3418 72.6434 52.3418C73.735 52.3418 74.7819 52.7754 75.5538 53.5474C76.3257 54.3193 76.7594 55.3662 76.7594 56.4578Z" fill="white"/>
<path d="M72.645 76.0087C73.7769 76.0087 75.1054 75.2884 76.5697 66.7476C77.1711 63.3435 77.5785 59.9079 77.7901 56.4575C77.7901 55.093 77.248 53.7843 76.2831 52.8194C75.3182 51.8546 74.0096 51.3125 72.645 51.3125C71.2805 51.3125 69.9718 51.8546 69.0069 52.8194C68.0421 53.7843 67.5 55.093 67.5 56.4575C67.7116 59.9079 68.119 63.3435 68.7204 66.7476C70.1847 75.2884 71.5131 76.0087 72.645 76.0087ZM72.645 53.3705C73.4638 53.3705 74.249 53.6958 74.8279 54.2747C75.4068 54.8536 75.7321 55.6388 75.7321 56.4575C75.7321 59.2081 74.1031 71.3627 72.645 73.7119C71.1869 71.3627 69.558 59.2029 69.558 56.4575C69.558 55.6388 69.8833 54.8536 70.4622 54.2747C71.0411 53.6958 71.8263 53.3705 72.645 53.3705Z" fill="url(#paint8_linear_5005_10073)"/>
</g>
<defs>
<linearGradient id="paint0_linear_5005_10073" x1="15.7715" y1="81.77" x2="19.2133" y2="78.3281" gradientUnits="userSpaceOnUse">
<stop stop-color="#A03291"/>
<stop offset="1" stop-color="#FF7C66"/>
</linearGradient>
<linearGradient id="paint1_linear_5005_10073" x1="24.377" y1="23.2582" x2="27.8188" y2="19.8164" gradientUnits="userSpaceOnUse">
<stop stop-color="#A03291"/>
<stop offset="1" stop-color="#FF7C66"/>
</linearGradient>
<linearGradient id="paint2_linear_5005_10073" x1="31.2598" y1="23.2582" x2="34.7016" y2="19.8164" gradientUnits="userSpaceOnUse">
<stop stop-color="#A03291"/>
<stop offset="1" stop-color="#FF7C66"/>
</linearGradient>
<linearGradient id="paint3_linear_5005_10073" x1="38.1426" y1="23.2582" x2="41.5844" y2="19.8164" gradientUnits="userSpaceOnUse">
<stop stop-color="#A03291"/>
<stop offset="1" stop-color="#FF7C66"/>
</linearGradient>
<linearGradient id="paint4_linear_5005_10073" x1="53.6309" y1="23.2582" x2="55.2506" y2="16.7795" gradientUnits="userSpaceOnUse">
<stop stop-color="#A03291"/>
<stop offset="1" stop-color="#FF7C66"/>
</linearGradient>
<linearGradient id="paint5_linear_5005_10073" x1="43.3066" y1="98.9801" x2="101.818" y2="40.4687" gradientUnits="userSpaceOnUse">
<stop stop-color="#A03291"/>
<stop offset="1" stop-color="#FF7C66"/>
</linearGradient>
<linearGradient id="paint6_linear_5005_10073" x1="15.7715" y1="116.331" x2="119.169" y2="12.933" gradientUnits="userSpaceOnUse">
<stop stop-color="#A03291"/>
<stop offset="1" stop-color="#FF7C66"/>
</linearGradient>
<linearGradient id="paint7_linear_5005_10073" x1="67.5" y1="88.3565" x2="77.7901" y2="78.0664" gradientUnits="userSpaceOnUse">
<stop stop-color="#A03291"/>
<stop offset="1" stop-color="#FF7C66"/>
</linearGradient>
<linearGradient id="paint8_linear_5005_10073" x1="67.5" y1="76.0087" x2="85.0357" y2="68.7021" gradientUnits="userSpaceOnUse">
<stop stop-color="#A03291"/>
<stop offset="1" stop-color="#FF7C66"/>
</linearGradient>
<clipPath id="clip0_5005_10073">
<rect width="103.457" height="110.132" fill="white" transform="translate(15.7715 12.9336)"/>
</clipPath>
</defs>
</svg>
