<svg width="18" height="21" viewBox="0 0 18 21" fill="none" xmlns="http://www.w3.org/2000/svg">
    <path fill-rule="evenodd" clip-rule="evenodd" d="M8.30434 0.757143C8.3345 0.75274 8.36493 0.750354 8.39541 0.75C8.55334 0.750379 8.7063 0.805255 8.82845 0.905359C8.84262 0.917007 8.85632 0.929219 8.86952 0.941966L8.88023 0.950895L14.8303 6.90096C14.844 6.91468 14.8571 6.92898 14.8696 6.94382C14.9336 7.01757 14.9812 7.10416 15.009 7.19778C15.0369 7.29141 15.0445 7.3899 15.0312 7.48668V9.10403C15.0038 9.09183 14.9762 9.08007 14.9483 9.06876C14.6098 8.93128 14.2471 8.86308 13.8818 8.8682L13.8807 8.86822C13.8067 8.8693 13.7329 8.87339 13.6597 8.88041V8.07151H9.77399C8.64598 8.07151 7.71683 7.14235 7.71683 6.01434V2.12859H2.45963C2.07266 2.12859 1.77391 2.42733 1.77391 2.81431V16.9859C1.77391 17.3729 2.07266 17.6716 2.45963 17.6716H11.188V19.0431H2.45963C1.33162 19.0431 0.402466 18.1139 0.402466 16.9859V2.81431C0.402466 1.6863 1.33162 0.757143 2.45963 0.757143H8.30434ZM12.6901 6.70006L9.08827 3.09824V6.01434C9.08827 6.40132 9.38702 6.70006 9.77399 6.70006H12.6901Z" fill="currentColor"/>
    <path d="M8.56835 13.5752C8.5015 13.8095 8.46615 14.0523 8.46366 14.297C8.46153 14.5066 8.48352 14.7152 8.52887 14.9188C8.48726 14.926 8.44498 14.9293 8.40255 14.9287H4.28822C4.19736 14.93 4.10714 14.9132 4.02282 14.8793C3.9385 14.8455 3.86175 14.7951 3.79704 14.7313C3.73233 14.6675 3.68094 14.5915 3.64587 14.5077C3.61079 14.4238 3.59273 14.3339 3.59273 14.243C3.59273 14.1521 3.61079 14.0622 3.64587 13.9783C3.68094 13.8945 3.73233 13.8185 3.79704 13.7547C3.86175 13.6909 3.9385 13.6405 4.02282 13.6067C4.10714 13.5728 4.19736 13.556 4.28822 13.5573H8.40255C8.45847 13.5565 8.51414 13.5625 8.56835 13.5752Z" fill="currentColor"/>
    <path d="M4.28822 12.1858H9.47092L10.8424 10.8144H4.28822C4.19736 10.8131 4.10714 10.8299 4.02282 10.8638C3.9385 10.8977 3.86175 10.948 3.79704 11.0118C3.73233 11.0756 3.68094 11.1516 3.64587 11.2354C3.61079 11.3193 3.59273 11.4092 3.59273 11.5001C3.59273 11.591 3.61079 11.681 3.64587 11.7648C3.68094 11.8486 3.73233 11.9247 3.79704 11.9885C3.86175 12.0523 3.9385 12.1026 4.02282 12.1364C4.10714 12.1703 4.19736 12.1871 4.28822 12.1858Z" fill="currentColor"/>
    <path d="M13.3956 11.3614C13.5619 11.1951 13.7865 11.1001 14.0217 11.0966C14.1425 11.0949 14.2625 11.1175 14.3745 11.163C14.4865 11.2085 14.5882 11.2759 14.6737 11.3614L17.385 14.0728C17.4718 14.1561 17.541 14.2558 17.5887 14.3662C17.6364 14.4766 17.6616 14.5954 17.6629 14.7156C17.6641 14.8359 17.6413 14.9551 17.5959 15.0665C17.5504 15.1778 17.4832 15.2789 17.3982 15.364C17.3131 15.449 17.212 15.5162 17.1007 15.5616C16.9894 15.6071 16.8701 15.6299 16.7498 15.6287C16.6296 15.6274 16.5108 15.6022 16.4004 15.5545C16.29 15.5068 16.1903 15.4376 16.107 15.3508L14.9384 14.1822V19.8333C14.9401 19.9531 14.918 20.072 14.8733 20.1831C14.8287 20.2943 14.7624 20.3954 14.6783 20.4807C14.5942 20.566 14.494 20.6337 14.3835 20.68C14.273 20.7262 14.1544 20.75 14.0346 20.75C13.9149 20.75 13.7963 20.7262 13.6858 20.68C13.5753 20.6337 13.4751 20.566 13.391 20.4807C13.3069 20.3954 13.2406 20.2943 13.1959 20.1831C13.1513 20.072 13.1291 19.9531 13.1308 19.8333V14.1822L11.9623 15.3508C11.879 15.4376 11.7792 15.5068 11.6689 15.5545C11.5585 15.6022 11.4397 15.6274 11.3194 15.6287C11.1992 15.6299 11.0799 15.6071 10.9686 15.5616C10.8573 15.5162 10.7561 15.449 10.6711 15.364C10.5861 15.2789 10.5189 15.1778 10.4734 15.0665C10.428 14.9551 10.4052 14.8359 10.4064 14.7156C10.4076 14.5954 10.4328 14.4766 10.4805 14.3662C10.5282 14.2558 10.5975 14.1561 10.6842 14.0728L13.3956 11.3614Z" fill="currentColor"/>
</svg>
