<svg width="13" height="13" viewBox="0 0 13 13" fill="none" xmlns="http://www.w3.org/2000/svg">
    <path d="M6.67986 3.32773C5.71857 3.32773 4.92986 4.11643 4.92986 5.07773V5.22356C4.92904 5.28154 4.93975 5.33909 4.96137 5.39289C4.98299 5.44669 5.01509 5.49566 5.05579 5.53694C5.0965 5.57823 5.14501 5.61102 5.19849 5.63339C5.25198 5.65577 5.30938 5.66729 5.36736 5.66729C5.42534 5.66729 5.48275 5.65577 5.53623 5.63339C5.58972 5.61102 5.63823 5.57823 5.67893 5.53694C5.71964 5.49566 5.75174 5.44669 5.77335 5.39289C5.79497 5.33909 5.80568 5.28154 5.80486 5.22356V5.07773C5.80486 4.58944 6.19157 4.20273 6.67986 4.20273C7.16815 4.20273 7.55486 4.58944 7.55486 5.07773C7.55486 5.71245 7.40145 5.83105 7.1298 6.04106C7.1093 6.05691 7.08793 6.07343 7.06609 6.09059C7.04531 6.10692 7.02366 6.12358 7.00134 6.14077C6.85656 6.25222 6.68331 6.3856 6.53232 6.59132C6.35801 6.82881 6.24236 7.15986 6.24236 7.5569C6.24154 7.61487 6.25225 7.67243 6.27387 7.72623C6.29549 7.78003 6.32759 7.82899 6.36829 7.87028C6.409 7.91156 6.45751 7.94435 6.51099 7.96673C6.56448 7.9891 6.62188 8.00063 6.67986 8.00063C6.73784 8.00063 6.79525 7.9891 6.84873 7.96673C6.90222 7.94435 6.95073 7.91156 6.99143 7.87028C7.03214 7.82899 7.06424 7.78003 7.08585 7.72623C7.10747 7.67243 7.11818 7.61487 7.11736 7.5569C7.11736 7.30803 7.16578 7.20695 7.23756 7.10914C7.30837 7.01267 7.43025 6.91692 7.5991 6.78427L7.60613 6.77874C7.95113 6.50768 8.42986 5.99913 8.42986 5.07773C8.42986 4.11643 7.64116 3.32773 6.67986 3.32773Z"  fill="currentColor"/>
    <path d="M6.67986 8.8694C6.52515 8.8694 6.37678 8.93085 6.26739 9.04025C6.15799 9.14965 6.09653 9.29802 6.09653 9.45273C6.09653 9.60744 6.15799 9.75581 6.26739 9.86521C6.37678 9.9746 6.52515 10.0361 6.67986 10.0361C6.83457 10.0361 6.98295 9.9746 7.09234 9.86521C7.20174 9.75581 7.2632 9.60744 7.2632 9.45273C7.2632 9.29802 7.20174 9.14965 7.09234 9.04025C6.98295 8.93085 6.83457 8.8694 6.67986 8.8694Z"  fill="currentColor"/>
    <path fill-rule="evenodd" clip-rule="evenodd" d="M6.67989 0.702728C5.13279 0.702728 3.64906 1.31731 2.5551 2.41127C1.46114 3.50523 0.846558 4.98897 0.846558 6.53606C0.846558 7.30211 0.997441 8.06065 1.29059 8.76838C1.58375 9.47612 2.01343 10.1192 2.5551 10.6609C3.09678 11.2025 3.73984 11.6322 4.44757 11.9254C5.1553 12.2185 5.91385 12.3694 6.67989 12.3694C7.44594 12.3694 8.20448 12.2185 8.91221 11.9254C9.61994 11.6322 10.263 11.2025 10.8047 10.6609C11.3464 10.1192 11.776 9.47612 12.0692 8.76838C12.3623 8.06065 12.5132 7.30211 12.5132 6.53606C12.5132 4.98897 11.8986 3.50523 10.8047 2.41127C9.71072 1.31731 8.22699 0.702728 6.67989 0.702728ZM3.38006 3.23623C4.25523 2.36106 5.44221 1.8694 6.67989 1.8694C7.91757 1.8694 9.10455 2.36106 9.97972 3.23623C10.8549 4.1114 11.3466 5.29839 11.3466 6.53606C11.3466 7.1489 11.2259 7.75573 10.9913 8.32192C10.7568 8.8881 10.4131 9.40255 9.97972 9.83589C9.54638 10.2692 9.03193 10.613 8.46575 10.8475C7.89956 11.082 7.29273 11.2027 6.67989 11.2027C6.06706 11.2027 5.46022 11.082 4.89403 10.8475C4.32785 10.613 3.8134 10.2692 3.38006 9.83589C2.94672 9.40255 2.60298 8.8881 2.36845 8.32192C2.13393 7.75573 2.01322 7.1489 2.01322 6.53606C2.01322 5.29839 2.50489 4.1114 3.38006 3.23623Z"  fill="currentColor"/>
</svg>