<svg width="26" height="23" viewBox="0 0 26 23" fill="none" xmlns="http://www.w3.org/2000/svg">
<g clip-path="url(#clip0_2153_57411)">
<path d="M23.563 4.16657H17.4921V2.40947C17.4921 2.05013 17.3216 1.70553 17.0358 1.48756C16.9651 1.4337 16.5784 1.15122 15.9013 0.879092C15.615 0.764029 15.3117 0.665494 14.9998 0.586307C14.8044 0.536577 14.6055 0.654848 14.5558 0.850411C14.5062 1.04593 14.6244 1.2447 14.82 1.29438C15.1005 1.36564 15.3726 1.45402 15.6289 1.55697C16.2415 1.80314 16.5788 2.05781 16.5928 2.06851C16.6985 2.14911 16.7616 2.27652 16.7616 2.40942V4.16657H15.9042V2.85912C15.9042 2.72184 15.8273 2.59613 15.705 2.53372C15.2622 2.30782 14.3221 1.9288 13 1.9288C11.6779 1.9288 10.7379 2.30777 10.2951 2.53372C10.1727 2.59613 10.0958 2.72179 10.0958 2.85912V4.16661H9.23839V2.40947C9.23839 2.27661 9.30144 2.14916 9.40722 2.06856C9.42127 2.05781 9.75839 1.80324 10.3711 1.55697C11.1616 1.2393 12.0707 1.0714 13 1.0714C13.1552 1.0714 13.3125 1.07616 13.4676 1.08564C13.669 1.09794 13.8422 0.944571 13.8544 0.743223C13.8667 0.541876 13.7134 0.368674 13.512 0.356376C13.3422 0.34607 13.17 0.34082 13 0.34082C11.9782 0.34082 10.9749 0.526952 10.0986 0.879092C9.42132 1.15131 9.03476 1.43374 8.96413 1.48761C8.67839 1.70548 8.50782 2.05009 8.50782 2.40942V4.16657H2.43721C1.3997 4.16657 0.555664 5.0106 0.555664 6.04806V11.1607C0.555664 11.6989 0.782532 12.204 1.18071 12.5609V20.3201C1.18071 21.3576 2.02474 22.2016 3.0622 22.2016H17.4954C17.6972 22.2016 17.8607 22.038 17.8607 21.8363C17.8607 21.6345 17.6972 21.471 17.4954 21.471H3.06225C2.42763 21.471 1.91133 20.9547 1.91133 20.3201V13.1041C2.44076 13.4545 3.16142 13.8561 4.10578 14.2354C4.29284 14.3105 4.50571 14.2199 4.58096 14.0326C4.65616 13.8454 4.56531 13.6327 4.37815 13.5575C3.04023 13.0201 2.18919 12.4431 1.71086 12.0536C1.44102 11.834 1.28629 11.5086 1.28629 11.1608V6.04806C1.28629 5.41344 1.80259 4.89714 2.43721 4.89714H23.5631C24.1977 4.89714 24.714 5.41344 24.714 6.04806V11.1607C24.714 11.5085 24.5593 11.834 24.2894 12.0536C23.7432 12.4983 22.7609 13.1493 21.1832 13.7257C19.3695 14.3881 17.2184 14.7887 14.7855 14.9186V14.0845C14.7855 13.6044 14.3949 13.2138 13.9148 13.2138H12.0851C11.605 13.2138 11.2144 13.6044 11.2144 14.0845V14.9192C9.24748 14.8139 7.45548 14.5298 5.88286 14.0735C5.68929 14.0175 5.48649 14.1288 5.43024 14.3226C5.374 14.5163 5.48551 14.7189 5.67928 14.7752C7.31577 15.25 9.17651 15.544 11.2144 15.6505V15.8223C11.2144 16.8069 12.0154 17.6078 13 17.6078C13.9845 17.6078 14.7855 16.8069 14.7855 15.8223V15.6507C19.7253 15.3934 22.5843 14.106 24.0889 13.1055V20.3201C24.0889 20.9547 23.5726 21.471 22.938 21.471H18.9566C18.7548 21.471 18.5913 21.6346 18.5913 21.8363C18.5913 22.0381 18.7548 22.2016 18.9566 22.2016H22.938C23.9754 22.2016 24.8195 21.3576 24.8195 20.3201V12.5609C25.2177 12.204 25.4445 11.6989 25.4445 11.1608V6.04806C25.4446 5.0106 24.6005 4.16657 23.563 4.16657ZM10.8264 3.09002C11.262 2.89806 12.004 2.65938 13 2.65938C13.9959 2.65938 14.738 2.89806 15.1736 3.09002V4.16657H10.8263V3.09002H10.8264ZM14.0549 15.8224C14.0549 16.4041 13.5817 16.8773 13 16.8773C12.4182 16.8773 11.945 16.4041 11.945 15.8224V14.0845C11.945 14.0072 12.0079 13.9444 12.0851 13.9444H13.9148C13.9921 13.9444 14.0549 14.0072 14.0549 14.0845V15.8224Z" fill="currentColor"/>
</g>
<defs>
<clipPath id="clip0_2153_57411">
<rect width="25" height="22.093" fill="white" transform="translate(0.5 0.183594)"/>
</clipPath>
</defs>
</svg>
