<svg width="51" height="47" viewBox="0 0 51 47" fill="none" xmlns="http://www.w3.org/2000/svg">
<path d="M29.4192 16.2961C29.4659 16.3459 29.5224 16.3856 29.585 16.4127C29.6477 16.4399 29.7153 16.4539 29.7836 16.4539C29.8518 16.4539 29.9194 16.4399 29.9821 16.4127C30.0447 16.3856 30.1012 16.3459 30.1479 16.2961C30.1977 16.2494 30.2374 16.193 30.2645 16.1303C30.2917 16.0676 30.3056 16.0001 30.3056 15.9318C30.3056 15.8635 30.2917 15.7959 30.2645 15.7333C30.2374 15.6706 30.1977 15.6142 30.1479 15.5674L28.9612 14.3703H34.2599C34.5912 14.3703 34.909 14.5019 35.1433 14.7361C35.3775 14.9704 35.5091 15.2882 35.5091 15.6195V20.0958C35.5091 20.2339 35.564 20.3663 35.6616 20.4639C35.7592 20.5615 35.8916 20.6164 36.0297 20.6164C36.1677 20.6164 36.3001 20.5615 36.3977 20.4639C36.4953 20.3663 36.5502 20.2339 36.5502 20.0958V15.6195C36.5474 15.0129 36.3052 14.432 35.8763 14.0031C35.4474 13.5742 34.8665 13.332 34.2599 13.3292H28.9612L30.1479 12.1321C30.1958 12.0842 30.2337 12.0274 30.2596 11.9649C30.2855 11.9024 30.2988 11.8354 30.2988 11.7677C30.2988 11.7001 30.2855 11.633 30.2596 11.5705C30.2337 11.508 30.1958 11.4512 30.1479 11.4034C30.1001 11.3555 30.0433 11.3176 29.9807 11.2917C29.9182 11.2658 29.8512 11.2524 29.7836 11.2524C29.7159 11.2524 29.6489 11.2658 29.5864 11.2917C29.5239 11.3176 29.4671 11.3555 29.4192 11.4034L27.3372 13.4854C27.2874 13.5321 27.2477 13.5886 27.2206 13.6512C27.1934 13.7139 27.1794 13.7815 27.1794 13.8498C27.1794 13.918 27.1934 13.9856 27.2206 14.0483C27.2477 14.1109 27.2874 14.1674 27.3372 14.2141L29.4192 16.2961Z" fill="currentColor"/>
<path d="M21.0862 31.9171C21.0384 31.8693 20.9816 31.8313 20.9191 31.8054C20.8565 31.7795 20.7895 31.7662 20.7219 31.7662C20.6542 31.7662 20.5872 31.7795 20.5247 31.8054C20.4622 31.8313 20.4054 31.8693 20.3575 31.9171C20.3097 31.965 20.2717 32.0218 20.2458 32.0843C20.2199 32.1468 20.2066 32.2138 20.2066 32.2815C20.2066 32.3492 20.2199 32.4162 20.2458 32.4787C20.2717 32.5412 20.3097 32.598 20.3575 32.6458L21.5443 33.843H16.2455C15.9142 33.843 15.5964 33.7114 15.3622 33.4771C15.1279 33.2429 14.9963 32.9251 14.9963 32.5938V28.1174C14.9963 27.9794 14.9414 27.847 14.8438 27.7494C14.7462 27.6518 14.6138 27.5969 14.4758 27.5969C14.3377 27.5969 14.2053 27.6518 14.1077 27.7494C14.0101 27.847 13.9553 27.9794 13.9553 28.1174V32.5938C13.958 33.2004 14.2002 33.7813 14.6291 34.2102C15.058 34.6391 15.6389 34.8813 16.2455 34.884H21.5443L20.3575 36.0812C20.3077 36.1279 20.268 36.1844 20.2409 36.247C20.2138 36.3097 20.1998 36.3773 20.1998 36.4456C20.1998 36.5138 20.2138 36.5814 20.2409 36.6441C20.268 36.7067 20.3077 36.7632 20.3575 36.8099C20.4042 36.8597 20.4607 36.8994 20.5234 36.9265C20.586 36.9536 20.6536 36.9676 20.7219 36.9676C20.7902 36.9676 20.8577 36.9536 20.9204 36.9265C20.9831 36.8994 21.0395 36.8597 21.0862 36.8099L23.1683 34.7279C23.2181 34.6812 23.2577 34.6247 23.2849 34.562C23.312 34.4994 23.326 34.4318 23.326 34.3635C23.326 34.2952 23.312 34.2277 23.2849 34.165C23.2577 34.1023 23.2181 34.0459 23.1683 33.9992L21.0862 31.9171Z" fill="currentColor"/>
<path d="M24.6264 18.1658C24.6437 18.0773 24.653 17.9867 24.653 17.8946V14.3166C24.653 14.028 24.4191 13.7939 24.1304 13.7939C23.8416 13.7939 23.6077 14.028 23.6077 14.3166V17.8946C23.6077 18.0266 23.5367 18.1496 23.4224 18.2155L14.8494 23.1651V13.1473C14.9129 13.1379 14.9758 13.1172 15.0346 13.0832L23.6077 8.13365V11.8776C23.6077 12.1663 23.8417 12.4002 24.1304 12.4002C24.4191 12.4002 24.653 12.1663 24.653 11.8776C24.653 7.24492 24.7139 7.3454 24.4703 6.91243C24.3912 6.76481 24.2622 6.60909 24.1027 6.48574C23.9763 6.38797 15.0045 1.20779 14.8494 1.14636C14.8494 1.14636 14.3325 0.817101 13.8041 1.14629C13.6584 1.20402 14.2354 0.87934 4.7085 6.37974C4.28439 6.62464 4.00059 7.08843 4.00059 7.60592C4.00059 18.639 3.99682 17.9203 4.00839 18.0351C4.00839 18.7217 4.368 18.8805 4.48955 18.9644C4.61109 19.0483 3.99667 18.71 13.6187 24.2653C14.0575 24.5189 14.5984 24.5175 15.0346 24.2654C24.5928 18.747 23.9677 19.112 24.06 19.046C24.6264 18.796 24.6264 18.1658 24.6264 18.1658ZM14.4285 12.2377C14.3955 12.2312 14.3615 12.2276 14.3266 12.2276C14.2616 12.2276 14.1976 12.2105 14.1414 12.1779L11.1895 10.4736C10.9393 10.3293 10.6198 10.4149 10.4755 10.6649C10.3311 10.9148 10.4168 11.2345 10.6668 11.3788L13.6185 13.0831C13.6782 13.1175 13.7401 13.1475 13.8039 13.1728V23.1651L5.23093 18.2155C5.11671 18.1496 5.04579 18.0266 5.04579 17.8946V8.13372L8.55304 10.1586C8.8031 10.3028 9.12275 10.2173 9.26703 9.96733C9.41137 9.71734 9.32567 9.39769 9.07575 9.25334L5.44885 7.15928L14.1414 2.1406C14.2556 2.07477 14.3976 2.0747 14.5118 2.14067L23.2045 7.15935L14.5118 12.178C14.4814 12.1955 14.4538 12.2156 14.4285 12.2377Z" fill="currentColor"/>
<path d="M25.2813 39.7108C25.2639 39.6223 25.2547 39.5317 25.2547 39.4396V35.8616C25.2547 35.573 25.4886 35.3389 25.7773 35.3389C26.0661 35.3389 26.3 35.573 26.3 35.8616V39.4396C26.3 39.5716 26.371 39.6945 26.4852 39.7605L35.0583 44.7101V34.6922C34.9948 34.6829 34.9319 34.6622 34.8731 34.6282L26.3 29.6786V33.4226C26.3 33.7113 26.066 33.9452 25.7773 33.9452C25.4886 33.9452 25.2547 33.7113 25.2547 33.4226C25.2547 28.7899 25.1938 28.8904 25.4374 28.4574C25.5165 28.3098 25.6455 28.1541 25.8049 28.0307C25.9314 27.933 34.9032 22.7528 35.0583 22.6914C35.0583 22.6914 35.5751 22.3621 36.1035 22.6913C36.2493 22.749 35.6722 22.4243 45.1992 27.9247C45.6233 28.1696 45.9071 28.6334 45.9071 29.1509C45.9071 40.184 45.9109 39.4653 45.8993 39.5801C45.8993 40.2667 45.5397 40.4255 45.4181 40.5094C45.2966 40.5933 45.911 40.255 36.289 45.8103C35.8502 46.0639 35.3093 46.0625 34.8731 45.8104C25.3149 40.292 25.9399 40.657 25.8477 40.591C25.2813 40.341 25.2813 39.7108 25.2813 39.7108ZM35.4792 33.7827C35.5122 33.7762 35.5462 33.7726 35.5811 33.7726C35.646 33.7726 35.7101 33.7555 35.7663 33.7229L38.7182 32.0186C38.9683 31.8743 39.2879 31.9599 39.4322 32.2099C39.5765 32.4598 39.4908 32.7795 39.2409 32.9238L36.2892 34.6281C36.2295 34.6625 36.1676 34.6925 36.1038 34.7178V44.7101L44.6767 39.7605C44.791 39.6945 44.8619 39.5716 44.8619 39.4396V29.6787L41.3546 31.7036C41.1046 31.8478 40.7849 31.7623 40.6407 31.5123C40.4963 31.2623 40.582 30.9427 40.8319 30.7983L44.4588 28.7043L35.7663 23.6856C35.652 23.6198 35.5101 23.6197 35.3958 23.6857L26.7032 28.7043L35.3958 33.723C35.4262 33.7405 35.4539 33.7606 35.4792 33.7827Z" fill="currentColor"/>
<path d="M29.4192 16.2961C29.4659 16.3459 29.5224 16.3856 29.585 16.4127C29.6477 16.4399 29.7153 16.4539 29.7836 16.4539C29.8518 16.4539 29.9194 16.4399 29.9821 16.4127C30.0447 16.3856 30.1012 16.3459 30.1479 16.2961C30.1977 16.2494 30.2374 16.193 30.2645 16.1303C30.2917 16.0676 30.3056 16.0001 30.3056 15.9318C30.3056 15.8635 30.2917 15.7959 30.2645 15.7333C30.2374 15.6706 30.1977 15.6142 30.1479 15.5674L28.9612 14.3703H34.2599C34.5912 14.3703 34.909 14.5019 35.1433 14.7361C35.3775 14.9704 35.5091 15.2882 35.5091 15.6195V20.0958C35.5091 20.2339 35.564 20.3663 35.6616 20.4639C35.7592 20.5615 35.8916 20.6164 36.0297 20.6164C36.1677 20.6164 36.3001 20.5615 36.3977 20.4639C36.4953 20.3663 36.5502 20.2339 36.5502 20.0958V15.6195C36.5474 15.0129 36.3052 14.432 35.8763 14.0031C35.4474 13.5742 34.8665 13.332 34.2599 13.3292H28.9612L30.1479 12.1321C30.1958 12.0842 30.2337 12.0274 30.2596 11.9649C30.2855 11.9024 30.2988 11.8354 30.2988 11.7677C30.2988 11.7001 30.2855 11.633 30.2596 11.5705C30.2337 11.508 30.1958 11.4512 30.1479 11.4034C30.1001 11.3555 30.0433 11.3176 29.9807 11.2917C29.9182 11.2658 29.8512 11.2524 29.7836 11.2524C29.7159 11.2524 29.6489 11.2658 29.5864 11.2917C29.5239 11.3176 29.4671 11.3555 29.4192 11.4034L27.3372 13.4854C27.2874 13.5321 27.2477 13.5886 27.2206 13.6512C27.1934 13.7139 27.1794 13.7815 27.1794 13.8498C27.1794 13.918 27.1934 13.9856 27.2206 14.0483C27.2477 14.1109 27.2874 14.1674 27.3372 14.2141L29.4192 16.2961Z" stroke="currentColor" stroke-width="0.5"/>
<path d="M21.0862 31.9171C21.0384 31.8693 20.9816 31.8313 20.9191 31.8054C20.8565 31.7795 20.7895 31.7662 20.7219 31.7662C20.6542 31.7662 20.5872 31.7795 20.5247 31.8054C20.4622 31.8313 20.4054 31.8693 20.3575 31.9171C20.3097 31.965 20.2717 32.0218 20.2458 32.0843C20.2199 32.1468 20.2066 32.2138 20.2066 32.2815C20.2066 32.3492 20.2199 32.4162 20.2458 32.4787C20.2717 32.5412 20.3097 32.598 20.3575 32.6458L21.5443 33.843H16.2455C15.9142 33.843 15.5964 33.7114 15.3622 33.4771C15.1279 33.2429 14.9963 32.9251 14.9963 32.5938V28.1174C14.9963 27.9794 14.9414 27.847 14.8438 27.7494C14.7462 27.6518 14.6138 27.5969 14.4758 27.5969C14.3377 27.5969 14.2053 27.6518 14.1077 27.7494C14.0101 27.847 13.9553 27.9794 13.9553 28.1174V32.5938C13.958 33.2004 14.2002 33.7813 14.6291 34.2102C15.058 34.6391 15.6389 34.8813 16.2455 34.884H21.5443L20.3575 36.0812C20.3077 36.1279 20.268 36.1844 20.2409 36.247C20.2138 36.3097 20.1998 36.3773 20.1998 36.4456C20.1998 36.5138 20.2138 36.5814 20.2409 36.6441C20.268 36.7067 20.3077 36.7632 20.3575 36.8099C20.4042 36.8597 20.4607 36.8994 20.5234 36.9265C20.586 36.9536 20.6536 36.9676 20.7219 36.9676C20.7902 36.9676 20.8577 36.9536 20.9204 36.9265C20.9831 36.8994 21.0395 36.8597 21.0862 36.8099L23.1683 34.7279C23.2181 34.6812 23.2577 34.6247 23.2849 34.562C23.312 34.4994 23.326 34.4318 23.326 34.3635C23.326 34.2952 23.312 34.2277 23.2849 34.165C23.2577 34.1023 23.2181 34.0459 23.1683 33.9992L21.0862 31.9171Z" stroke="currentColor" stroke-width="0.5"/>
<path d="M24.6264 18.1658C24.6437 18.0773 24.653 17.9867 24.653 17.8946V14.3166C24.653 14.028 24.4191 13.7939 24.1304 13.7939C23.8416 13.7939 23.6077 14.028 23.6077 14.3166V17.8946C23.6077 18.0266 23.5367 18.1496 23.4224 18.2155L14.8494 23.1651V13.1473C14.9129 13.1379 14.9758 13.1172 15.0346 13.0832L23.6077 8.13365V11.8776C23.6077 12.1663 23.8417 12.4002 24.1304 12.4002C24.4191 12.4002 24.653 12.1663 24.653 11.8776C24.653 7.24492 24.7139 7.3454 24.4703 6.91243C24.3912 6.76481 24.2622 6.60909 24.1027 6.48574C23.9763 6.38797 15.0045 1.20779 14.8494 1.14636C14.8494 1.14636 14.3325 0.817101 13.8041 1.14629C13.6584 1.20402 14.2354 0.87934 4.7085 6.37974C4.28439 6.62464 4.00059 7.08843 4.00059 7.60592C4.00059 18.639 3.99682 17.9203 4.00839 18.0351C4.00839 18.7217 4.368 18.8805 4.48955 18.9644C4.61109 19.0483 3.99667 18.71 13.6187 24.2653C14.0575 24.5189 14.5984 24.5175 15.0346 24.2654C24.5928 18.747 23.9677 19.112 24.06 19.046C24.6264 18.796 24.6264 18.1658 24.6264 18.1658ZM14.4285 12.2377C14.3955 12.2312 14.3615 12.2276 14.3266 12.2276C14.2616 12.2276 14.1976 12.2105 14.1414 12.1779L11.1895 10.4736C10.9393 10.3293 10.6198 10.4149 10.4755 10.6649C10.3311 10.9148 10.4168 11.2345 10.6668 11.3788L13.6185 13.0831C13.6782 13.1175 13.7401 13.1475 13.8039 13.1728V23.1651L5.23093 18.2155C5.11671 18.1496 5.04579 18.0266 5.04579 17.8946V8.13372L8.55304 10.1586C8.8031 10.3028 9.12275 10.2173 9.26703 9.96733C9.41137 9.71734 9.32567 9.39769 9.07575 9.25334L5.44885 7.15928L14.1414 2.1406C14.2556 2.07477 14.3976 2.0747 14.5118 2.14067L23.2045 7.15935L14.5118 12.178C14.4814 12.1955 14.4538 12.2156 14.4285 12.2377Z" stroke="currentColor" stroke-width="0.5"/>
<path d="M25.2813 39.7108C25.2639 39.6223 25.2547 39.5317 25.2547 39.4396V35.8616C25.2547 35.573 25.4886 35.3389 25.7773 35.3389C26.0661 35.3389 26.3 35.573 26.3 35.8616V39.4396C26.3 39.5716 26.371 39.6945 26.4852 39.7605L35.0583 44.7101V34.6922C34.9948 34.6829 34.9319 34.6622 34.8731 34.6282L26.3 29.6786V33.4226C26.3 33.7113 26.066 33.9452 25.7773 33.9452C25.4886 33.9452 25.2547 33.7113 25.2547 33.4226C25.2547 28.7899 25.1938 28.8904 25.4374 28.4574C25.5165 28.3098 25.6455 28.1541 25.8049 28.0307C25.9314 27.933 34.9032 22.7528 35.0583 22.6914C35.0583 22.6914 35.5751 22.3621 36.1035 22.6913C36.2493 22.749 35.6722 22.4243 45.1992 27.9247C45.6233 28.1696 45.9071 28.6334 45.9071 29.1509C45.9071 40.184 45.9109 39.4653 45.8993 39.5801C45.8993 40.2667 45.5397 40.4255 45.4181 40.5094C45.2966 40.5933 45.911 40.255 36.289 45.8103C35.8502 46.0639 35.3093 46.0625 34.8731 45.8104C25.3149 40.292 25.9399 40.657 25.8477 40.591C25.2813 40.341 25.2813 39.7108 25.2813 39.7108ZM35.4792 33.7827C35.5122 33.7762 35.5462 33.7726 35.5811 33.7726C35.646 33.7726 35.7101 33.7555 35.7663 33.7229L38.7182 32.0186C38.9683 31.8743 39.2879 31.9599 39.4322 32.2099C39.5765 32.4598 39.4908 32.7795 39.2409 32.9238L36.2892 34.6281C36.2295 34.6625 36.1676 34.6925 36.1038 34.7178V44.7101L44.6767 39.7605C44.791 39.6945 44.8619 39.5716 44.8619 39.4396V29.6787L41.3546 31.7036C41.1046 31.8478 40.7849 31.7623 40.6407 31.5123C40.4963 31.2623 40.582 30.9427 40.8319 30.7983L44.4588 28.7043L35.7663 23.6856C35.652 23.6198 35.5101 23.6197 35.3958 23.6857L26.7032 28.7043L35.3958 33.723C35.4262 33.7405 35.4539 33.7606 35.4792 33.7827Z" stroke="currentColor" stroke-width="0.5"/>
</svg>
