<svg width="96" height="80" viewBox="0 0 96 80" fill="none" xmlns="http://www.w3.org/2000/svg">
<rect width="96" height="80" rx="40" fill="#F5F5F5"/>
<g clip-path="url(#clip0_4121_15928)">
<path d="M38.739 17.7786H62.6262C63.1759 17.7786 63.6223 18.2237 63.6223 18.7734V32.1403C63.6223 32.69 63.1772 33.1351 62.6262 33.1351H38.739C38.1893 33.1351 37.7429 32.69 37.7429 32.1403V18.7734C37.7429 18.2237 38.188 17.7786 38.739 17.7786Z" fill="#F9FAFB"/>
<path d="M35.638 17.7786H59.4986C60.1265 17.7786 60.6352 18.2237 60.6352 18.7734V32.1403C60.6352 32.69 60.1265 33.1351 59.4986 33.1351H35.638C35.0101 33.1351 34.5015 32.69 34.5015 32.1403V18.7734C34.5015 18.2237 35.0101 17.7786 35.638 17.7786Z" fill="#F9FAFB"/>
<path d="M33.7252 33.1364H37.0673C36.4526 33.1351 35.9546 32.69 35.9533 32.1416V18.7734C35.9546 18.225 36.4526 17.78 37.0673 17.7786H33.7252C33.1106 17.78 32.6125 18.225 32.6112 18.7734V32.1403C32.6139 32.6887 33.1106 33.1338 33.7252 33.1351V33.1364Z" fill="#F9FAFB"/>
<path d="M41.9195 16.8421C41.6731 16.8461 41.436 16.9428 41.2572 17.1136L41.1459 17.254C41.1101 17.3057 41.0823 17.3627 41.0611 17.4223C41.0346 17.4753 41.0148 17.5322 41.0055 17.5905C40.9949 17.6528 40.9883 17.715 40.9869 17.7773C40.9909 18.025 41.0876 18.2621 41.2572 18.4422C41.6281 18.7959 42.2109 18.7959 42.5818 18.4422C42.6666 18.3522 42.7328 18.2475 42.7778 18.1336C42.8255 18.021 42.8507 17.9005 42.852 17.7773C42.848 17.5296 42.7513 17.2925 42.5818 17.1123C42.403 16.9414 42.1659 16.8447 41.9195 16.8408V16.8421Z" fill="#072B55"/>
<path d="M62.6262 17.0752H46.4842C46.0961 17.0752 45.7808 17.3905 45.7808 17.7786C45.7808 18.1667 46.0961 18.482 46.4842 18.482H62.9189V32.4317H33.0816V18.482H37.3548C37.7416 18.482 38.0569 18.1654 38.0582 17.7773C38.0582 17.3905 37.7416 17.0752 37.3535 17.0739H33.3743C32.4378 17.0752 31.6748 17.8382 31.6748 18.7747V32.1416C31.6748 33.0768 32.4378 33.8398 33.3743 33.8411H62.6262C63.5627 33.8411 64.3244 33.0781 64.3257 32.1416V18.7734C64.3257 17.8369 63.5627 17.0752 62.6262 17.0739V17.0752Z" fill="#072B55"/>
<path d="M38.8145 22.8136H44.8442C45.235 22.8136 45.5542 22.4454 45.5542 21.9937C45.5542 21.542 45.2363 21.1737 44.8442 21.1737H38.8145C38.4237 21.1737 38.1045 21.542 38.1045 21.9937C38.1045 22.4454 38.4224 22.8136 38.8145 22.8136Z" fill="#072B55"/>
<path d="M54.3211 24.9211H38.815C38.4242 24.9211 38.105 25.2893 38.105 25.741C38.105 26.1927 38.4229 26.561 38.815 26.561H54.3211C54.7119 26.561 55.0311 26.1927 55.0311 25.741C55.0311 25.2893 54.7132 24.9211 54.3211 24.9211Z" fill="#072B55"/>
<path d="M50.8758 28.6684H38.815C38.4242 28.6684 38.105 29.0366 38.105 29.4883C38.105 29.94 38.4229 30.3083 38.815 30.3083H50.8744C51.2652 30.3083 51.5844 29.94 51.5844 29.4883C51.5844 29.0366 51.2665 28.6684 50.8744 28.6684H50.8758Z" fill="#072B55"/>
<path d="M38.7394 37.9568H62.6265C63.1762 37.9568 63.6226 38.4019 63.6226 38.9516V52.3185C63.6226 52.8682 63.1776 53.3133 62.6265 53.3133H38.7394C38.1897 53.3133 37.7433 52.8682 37.7433 52.3185V38.9516C37.7433 38.4019 38.1884 37.9568 38.7394 37.9568Z" fill="#F9FAFB"/>
<path d="M35.6384 37.9568H59.499C60.1269 37.9568 60.6355 38.4019 60.6355 38.9516V52.3185C60.6355 52.8682 60.1269 53.3133 59.499 53.3133H35.6384C35.0105 53.3133 34.5018 52.8682 34.5018 52.3185V38.9516C34.5018 38.4019 35.0105 37.9568 35.6384 37.9568Z" fill="#F9FAFB"/>
<path d="M54.081 37.0203C54.3274 37.0243 54.5645 37.121 54.7433 37.2919L54.8546 37.4323C54.8903 37.4839 54.9181 37.5409 54.9393 37.6005C54.9658 37.6535 54.9857 37.7104 54.995 37.7687C55.0056 37.831 55.0122 37.8932 55.0135 37.9555C55.0095 38.2032 54.9128 38.4403 54.7433 38.6205C54.3724 38.9741 53.7896 38.9741 53.4187 38.6205C53.3339 38.5304 53.2677 38.4257 53.2226 38.3118C53.1749 38.1992 53.1498 38.0787 53.1484 37.9555C53.1524 37.7078 53.2491 37.4707 53.4187 37.2905C53.5975 37.1197 53.8346 37.023 54.081 37.019V37.0203Z" fill="#072B55"/>
<path d="M33.3744 37.2535H49.5164C49.9045 37.2535 50.2198 37.5687 50.2198 37.9568C50.2198 38.345 49.9045 38.6602 49.5164 38.6602H33.0817V52.6099H62.9177V38.6602H58.6445C58.2577 38.6602 57.9424 38.3436 57.9411 37.9555C57.9411 37.5687 58.2577 37.2535 58.6458 37.2521H62.6263C63.5628 37.2521 64.3245 38.0151 64.3258 38.9516V52.3185C64.3258 53.2537 63.5628 54.0167 62.6263 54.018H33.3744C32.4379 54.018 31.6763 53.255 31.6749 52.3185V38.9516C31.6749 38.0151 32.4379 37.2535 33.3744 37.2521V37.2535Z" fill="#072B55"/>
<path d="M38.8152 42.9919H44.845C45.2357 42.9919 45.555 42.6236 45.555 42.1719C45.555 41.7202 45.237 41.352 44.845 41.352H38.8152C38.4245 41.352 38.1052 41.7202 38.1052 42.1719C38.1052 42.6236 38.4231 42.9919 38.8152 42.9919Z" fill="#072B55"/>
<path d="M54.3216 45.0994H38.8155C38.4247 45.0994 38.1055 45.4676 38.1055 45.9193C38.1055 46.371 38.4234 46.7393 38.8155 46.7393H54.3216C54.7124 46.7393 55.0316 46.371 55.0316 45.9193C55.0316 45.4676 54.7137 45.0994 54.3216 45.0994Z" fill="#072B55"/>
<path d="M50.8763 48.8468H38.8155C38.4247 48.8468 38.1055 49.2151 38.1055 49.6667C38.1055 50.1184 38.4234 50.4867 38.8155 50.4867H50.8749C51.2657 50.4867 51.5849 50.1184 51.5849 49.6667C51.5849 49.2151 51.267 48.8468 50.8749 48.8468H50.8763Z" fill="#072B55"/>
<path d="M47.3372 63.1579C45.4469 63.1579 43.9143 61.6253 43.9143 59.7351C43.9143 57.8448 45.4469 56.3109 47.3372 56.3109C49.2274 56.3109 50.76 57.8435 50.76 59.7351C50.7574 61.6253 49.2261 63.1566 47.3372 63.1579ZM47.3372 57.4527C46.0761 57.4527 45.0548 58.474 45.0548 59.7351C45.0548 60.9961 46.0761 62.0174 47.3372 62.0174C48.5982 62.0174 49.6195 60.9961 49.6195 59.7351C49.6195 58.4754 48.5969 57.4541 47.3372 57.4527Z" fill="#072B55"/>
<path d="M47.3027 38.0296C46.9001 38.0296 46.5729 37.8084 46.5729 37.5368V33.098C46.5729 32.8251 46.9001 32.6052 47.3027 32.6052C47.7054 32.6052 48.0326 32.8264 48.0326 33.098V37.5368C48.0326 37.8097 47.7054 38.0296 47.3027 38.0296Z" fill="#072B55"/>
<path d="M47.3027 56.9322C46.9001 56.9322 46.5729 56.7878 46.5729 56.6116V53.7226C46.5729 53.5451 46.9001 53.402 47.3027 53.402C47.7054 53.402 48.0326 53.5451 48.0326 53.7226V56.6116C48.0326 56.7891 47.7054 56.9322 47.3027 56.9322Z" fill="#072B55"/>
</g>
<defs>
<clipPath id="clip0_4121_15928">
<rect width="32.6509" height="46.3158" fill="white" transform="translate(31.6746 16.8421)"/>
</clipPath>
</defs>
</svg>
