<svg width="76" height="77" viewBox="0 0 76 77" fill="none" xmlns="http://www.w3.org/2000/svg">
<g clip-path="url(#clip0_1_7)">
<ellipse cx="35.7132" cy="66.591" rx="24.8929" ry="2.24385" fill="#BCB7DE"/>
<ellipse cx="25.537" cy="66.6029" rx="8.89248" ry="0.601711" fill="#9087C8"/>
<path d="M61.1359 12.4902C62.6442 13.8016 63.8669 15.409 64.728 17.2128C65.5891 19.0165 66.0701 20.978 66.1413 22.9754C66.2125 24.9729 65.8723 26.9637 65.1418 28.8241C64.4113 30.6846 63.3062 32.375 61.895 33.7904L55.1233 40.565C54.8529 40.8355 54.5318 41.05 54.1785 41.1964C53.8251 41.3428 53.4464 41.4181 53.064 41.4181C52.6815 41.4181 52.3028 41.3428 51.9494 41.1964C51.5961 41.05 51.275 40.8355 51.0046 40.565C50.4587 40.0189 50.152 39.2783 50.152 38.5061C50.152 37.7339 50.4587 36.9933 51.0046 36.4472L57.7763 29.6746C59.4046 28.0417 60.3224 25.8319 60.33 23.5258C60.3377 21.2197 59.4345 19.0039 57.817 17.3602C56.1072 15.7349 53.8288 14.8439 51.47 14.8782C49.1112 14.9125 46.8596 15.8693 45.1978 17.5437L38.6494 24.0921C38.379 24.3626 38.058 24.5771 37.7046 24.7235C37.3513 24.8699 36.9726 24.9452 36.5901 24.9452C36.2076 24.9452 35.8289 24.8699 35.4755 24.7235C35.1222 24.5771 34.8012 24.3626 34.5307 24.0921C34.2603 23.8217 34.0457 23.5006 33.8993 23.1473C33.753 22.7939 33.6776 22.4152 33.6776 22.0327C33.6776 21.6503 33.753 21.2715 33.8993 20.9182C34.0457 20.5648 34.2603 20.2438 34.5307 19.9734L41.0345 13.4696C43.646 10.8051 47.1668 9.22405 50.8933 9.04247C54.6198 8.86089 58.2777 10.0921 61.1359 12.4902Z" fill="#DEDBEF"/>
<path d="M61.1358 12.4902C59.6577 11.2151 57.9339 10.2567 56.0708 9.67421C54.2076 9.09168 52.2449 8.89741 50.3037 9.10339C53.2322 9.37915 56.0013 10.5633 58.2237 12.4902C59.7321 13.8016 60.9548 15.409 61.8158 17.2128C62.6769 19.0165 63.158 20.978 63.2292 22.9754C63.3003 24.9729 62.9601 26.9637 62.2296 28.8241C61.4992 30.6846 60.394 32.375 58.9828 33.7904L52.2112 40.565C52.0305 40.7409 51.8275 40.8924 51.6074 41.0154C52.161 41.3388 52.806 41.47 53.442 41.3885C54.0779 41.307 54.6691 41.0175 55.1233 40.565L61.8949 33.7933C63.3061 32.3779 64.4113 30.6875 65.1418 28.827C65.8723 26.9666 66.2125 24.9758 66.1413 22.9784C66.0701 20.9809 65.589 19.0194 64.728 17.2157C63.8669 15.4119 62.6442 13.8045 61.1358 12.4931V12.4902Z" fill="#F9FAFB"/>
<path d="M15.6738 50.8399C15.6674 53.1372 16.571 55.3437 18.1869 56.9767C19.8965 58.6023 22.1747 59.4936 24.5335 59.4597C26.8924 59.4258 29.144 58.4693 30.8061 56.7952L37.3545 50.2458C37.6249 49.9753 37.946 49.7608 38.2993 49.6144C38.6527 49.468 39.0314 49.3927 39.4139 49.3927C39.7963 49.3927 40.175 49.468 40.5284 49.6144C40.8817 49.7608 41.2028 49.9753 41.4732 50.2458C41.7437 50.5162 41.9582 50.8373 42.1046 51.1906C42.251 51.544 42.3263 51.9227 42.3263 52.3052C42.3263 52.6876 42.251 53.0663 42.1046 53.4197C41.9582 53.773 41.7437 54.0941 41.4732 54.3645L34.9695 60.8682C32.3579 63.5338 28.8366 65.1155 25.1094 65.2973C21.3822 65.479 17.7237 64.2474 14.8652 61.8487C13.3568 60.5373 12.1341 58.9298 11.273 57.1261C10.412 55.3224 9.9309 53.3609 9.85972 51.3634C9.78853 49.3659 10.1287 47.3752 10.8592 45.5147C11.5897 43.6543 12.6949 41.9639 14.1061 40.5484L20.8768 33.77C21.1472 33.4995 21.4682 33.285 21.8216 33.1386C22.1749 32.9922 22.5536 32.9169 22.9361 32.9169C23.3186 32.9169 23.6973 32.9922 24.0506 33.1386C24.404 33.285 24.725 33.4995 24.9955 33.77C25.5414 34.3161 25.8481 35.0567 25.8481 35.8289C25.8481 36.601 25.5414 37.3416 24.9955 37.8877L18.2238 44.6633C17.4121 45.4736 16.7689 46.4365 16.3313 47.4966C15.8936 48.5567 15.6701 49.693 15.6738 50.8399Z" fill="#DEDBEF"/>
<path d="M41.4693 50.2459C41.0151 49.7934 40.4239 49.5038 39.788 49.4224C39.1521 49.3409 38.507 49.4721 37.9534 49.7955C38.1735 49.9185 38.3765 50.0699 38.5572 50.2459C38.8276 50.5163 39.0422 50.8373 39.1886 51.1907C39.335 51.544 39.4103 51.9228 39.4103 52.3052C39.4103 52.6877 39.335 53.0664 39.1886 53.4198C39.0422 53.7731 38.8276 54.0942 38.5572 54.3646L32.0534 60.8683C29.562 63.3545 26.2847 64.8984 22.7812 65.2365C25.0087 65.453 27.2564 65.1735 29.3631 64.4183C31.4697 63.663 33.383 62.4507 34.9656 60.8683L41.4693 54.3646C41.7398 54.0942 41.9543 53.7731 42.1007 53.4198C42.2471 53.0664 42.3224 52.6877 42.3224 52.3052C42.3224 51.9228 42.2471 51.544 42.1007 51.1907C41.9543 50.8373 41.7398 50.5163 41.4693 50.2459Z" fill="#F9FAFB"/>
<path d="M48.2963 30.9899L43.4913 35.7949C43.311 35.9753 43.097 36.1183 42.8614 36.2159C42.6258 36.3136 42.3733 36.3638 42.1183 36.3638C41.8632 36.3638 41.6107 36.3136 41.3751 36.2159C41.1395 36.1183 40.9255 35.9753 40.7452 35.7949L39.3726 34.4223C39.1923 34.242 39.0492 34.028 38.9516 33.7924C38.854 33.5568 38.8037 33.3043 38.8037 33.0492C38.8037 32.7942 38.854 32.5417 38.9516 32.3061C39.0492 32.0705 39.1923 31.8565 39.3726 31.6762L44.0611 26.9877C44.5852 26.4426 45.2943 26.1135 46.0489 26.0652C46.8035 26.0168 47.5488 26.2528 48.1381 26.7265C48.4405 26.9886 48.6858 27.31 48.8587 27.6709C49.0315 28.0318 49.1283 28.4244 49.143 28.8242C49.1576 29.2241 49.0899 29.6227 48.9439 29.9953C48.7979 30.3679 48.5768 30.7064 48.2944 30.9899H48.2963Z" fill="#FFCE1F"/>
<path d="M48.1401 26.7266C47.6805 26.3481 47.1168 26.1181 46.5236 26.0672C45.9304 26.0162 45.3357 26.1467 44.8183 26.4412C44.9635 26.5234 45.1006 26.6189 45.228 26.7266C45.5304 26.9886 45.7756 27.3101 45.9485 27.671C46.1214 28.0319 46.2182 28.4244 46.2328 28.8243C46.2475 29.2242 46.1797 29.6228 46.0337 29.9954C45.8877 30.3679 45.6667 30.7065 45.3842 30.99L40.6627 35.7115L40.7452 35.795C40.9255 35.9753 41.1396 36.1184 41.3752 36.216C41.6108 36.3136 41.8633 36.3639 42.1183 36.3639C42.3733 36.3639 42.6258 36.3136 42.8614 36.216C43.097 36.1184 43.3111 35.9753 43.4914 35.795L48.2964 30.99C48.5788 30.7065 48.7999 30.3679 48.9458 29.9954C49.0918 29.6228 49.1596 29.2242 49.1449 28.8243C49.1303 28.4244 49.0335 28.0319 48.8606 27.671C48.6878 27.3101 48.4425 26.9886 48.1401 26.7266Z" fill="#7A6FBD"/>
<path d="M36.6274 42.6588L31.9389 47.3473C31.4149 47.8924 30.7057 48.2215 29.9511 48.2698C29.1966 48.3182 28.4512 48.0822 27.8619 47.6084C27.5595 47.3464 27.3142 47.025 27.1414 46.6641C26.9685 46.3032 26.8717 45.9106 26.8571 45.5107C26.8424 45.1109 26.9102 44.7122 27.0562 44.3397C27.2021 43.9671 27.4232 43.6286 27.7056 43.3451L32.5106 38.5401C32.6909 38.3597 32.905 38.2167 33.1406 38.119C33.3762 38.0214 33.6287 37.9712 33.8837 37.9712C34.1387 37.9712 34.3912 38.0214 34.6268 38.119C34.8624 38.2167 35.0765 38.3597 35.2568 38.5401L36.6294 39.9127C36.8096 40.0931 36.9525 40.3072 37.05 40.5429C37.1474 40.7786 37.1975 41.0311 37.1973 41.2861C37.1971 41.5412 37.1467 41.7936 37.0489 42.0292C36.9511 42.2647 36.8079 42.4786 36.6274 42.6588Z" fill="#FFCE1F"/>
<path d="M36.6274 39.9127L35.2549 38.5401C35.0746 38.3597 34.8605 38.2167 34.6249 38.119C34.3893 38.0214 34.1368 37.9712 33.8818 37.9712C33.6268 37.9712 33.3743 38.0214 33.1387 38.119C32.9031 38.2167 32.689 38.3597 32.5087 38.5401L32.4253 38.6236L33.7153 39.9127C33.8957 40.093 34.0388 40.307 34.1364 40.5426C34.234 40.7782 34.2842 41.0307 34.2842 41.2857C34.2842 41.5408 34.234 41.7933 34.1364 42.0289C34.0388 42.2645 33.8957 42.4785 33.7153 42.6588L29.0268 47.3473C28.8028 47.5659 28.5477 47.7501 28.2697 47.8938C28.8571 48.2157 29.5337 48.3366 30.1962 48.2379C30.8588 48.1392 31.4708 47.8264 31.9389 47.3473L36.6274 42.6588C36.8078 42.4785 36.9509 42.2645 37.0485 42.0289C37.1461 41.7933 37.1963 41.5408 37.1963 41.2857C37.1963 41.0307 37.1461 40.7782 37.0485 40.5426C36.9509 40.307 36.8078 40.093 36.6274 39.9127Z" fill="#7A6FBD"/>
<path d="M25.6905 65.2208C13.6906 64.0376 8.35848 49.2042 17.0172 40.5445C24.3887 33.1729 23.8723 33.6243 24.3946 33.3224C23.841 32.999 23.1959 32.8679 22.56 32.9493C21.924 33.0308 21.3329 33.3203 20.8787 33.7728L14.1051 40.5445C4.5106 50.1399 12.1015 66.5109 25.6905 65.2208Z" fill="white"/>
<path d="M9.67676 55.7729L11.5211 55.1594C12.2941 57.4625 13.668 59.5174 15.501 61.1118L14.2274 62.5766C12.1314 60.7547 10.5603 58.4058 9.67676 55.7729Z" fill="white"/>
<path d="M61.7726 11.7581C58.7294 9.19659 54.8309 7.87909 50.8577 8.06934C46.8845 8.2596 43.1298 9.94357 40.3452 12.7841L33.8415 19.2879C33.1133 20.0161 32.7042 21.0037 32.7042 22.0335C32.7042 23.0633 33.1133 24.051 33.8415 24.7792C34.5697 25.5073 35.5573 25.9164 36.5872 25.9164C37.617 25.9164 38.6046 25.5073 39.3328 24.7792L45.8822 18.2298C47.4344 16.7 49.527 15.8437 51.7064 15.8467H51.7316C52.7312 15.8366 53.7228 16.0258 54.6484 16.4031C55.5741 16.7804 56.4153 17.3384 57.1229 18.0444C58.5605 19.5054 59.3632 21.4749 59.3565 23.5246C59.3498 25.5743 58.5342 27.5385 57.087 28.9901L50.3183 35.7579C49.9408 36.1145 49.6387 36.5432 49.4298 37.0187C49.2209 37.4942 49.1096 38.0067 49.1023 38.526C49.0951 39.0453 49.192 39.5607 49.3875 40.0419C49.583 40.523 49.873 40.96 50.2404 41.3271C50.6078 41.6941 51.0451 41.9838 51.5264 42.1788C52.0077 42.3739 52.5232 42.4704 53.0425 42.4627C53.5618 42.455 54.0742 42.3432 54.5495 42.1339C55.0248 41.9246 55.4533 41.6221 55.8096 41.2443L62.5812 34.4736C64.0859 32.9641 65.2642 31.1614 66.043 29.1775C66.8219 27.1936 67.1847 25.0707 67.1088 22.9408C67.033 20.8108 66.5202 18.7191 65.6022 16.7956C64.6843 14.8721 63.3808 13.1578 61.7726 11.7591V11.7581ZM61.2087 33.1039L54.437 39.8756C54.0671 40.2288 53.5754 40.4259 53.0639 40.4259C52.5525 40.4259 52.0607 40.2288 51.6909 39.8756C51.3269 39.5115 51.1224 39.0178 51.1224 38.503C51.1224 37.9882 51.3269 37.4945 51.6909 37.1304L58.4625 30.3578C60.2722 28.544 61.2923 26.0888 61.3008 23.5266C61.3094 20.9644 60.3057 18.5025 58.5081 16.6767C57.6212 15.788 56.5661 15.0849 55.4045 14.6086C54.2428 14.1322 52.9978 13.8921 51.7423 13.9024H51.7103C49.0157 13.9005 46.429 14.9612 44.5115 16.8543L37.9631 23.4027C37.7828 23.583 37.5688 23.726 37.3332 23.8236C37.0976 23.9212 36.8451 23.9714 36.5901 23.9714C36.0751 23.9714 35.5812 23.7668 35.217 23.4027C35.0367 23.2224 34.8937 23.0083 34.7961 22.7727C34.6985 22.5371 34.6483 22.2846 34.6483 22.0296C34.6483 21.5146 34.8528 21.0207 35.217 20.6566L41.7207 14.1528C44.1565 11.6573 47.4453 10.1744 50.9282 10.0013C54.411 9.8281 57.8307 10.9774 60.502 13.219C61.9098 14.443 63.051 15.9433 63.8547 17.6268C64.6585 19.3103 65.1075 21.1411 65.1741 23.0054C65.2406 24.8698 64.9232 26.7279 64.2416 28.4644C63.5599 30.2009 62.5286 31.7788 61.2116 33.1001L61.2087 33.1039Z" fill="#6254B8"/>
<path d="M12.3151 59.9236C12.0576 59.9249 11.8102 59.8238 11.6272 59.6427C11.4443 59.4616 11.3408 59.2152 11.3395 58.9577C11.3382 58.7003 11.4392 58.4529 11.6204 58.2699C11.8015 58.087 12.0479 57.9835 12.3053 57.9822H12.3151C12.5725 57.9822 12.8194 58.0844 13.0014 58.2665C13.1835 58.4485 13.2858 58.6954 13.2858 58.9529C13.2858 59.2103 13.1835 59.4572 13.0014 59.6393C12.8194 59.8213 12.5725 59.9236 12.3151 59.9236Z" fill="#6254B8"/>
<path d="M8.87881 50.8426C8.88008 52.518 9.14946 54.1825 9.67673 55.7728C9.71484 55.8988 9.77881 56.0154 9.86455 56.1153C9.95028 56.2151 10.0559 56.296 10.1747 56.3527C10.2934 56.4094 10.4227 56.4408 10.5542 56.4447C10.6858 56.4487 10.8167 56.4251 10.9386 56.3756C11.17 56.2821 11.358 56.1055 11.4658 55.8804C11.5736 55.6554 11.5933 55.3982 11.5211 55.1593C11.0588 53.7667 10.8222 52.309 10.8202 50.8416C10.8118 49.0565 11.1586 47.2875 11.8404 45.6377C12.5222 43.9879 13.5253 42.4901 14.7914 41.2316L21.563 34.46C21.9329 34.1067 22.4247 33.9096 22.9361 33.9096C23.4475 33.9096 23.9393 34.1067 24.3092 34.46C24.6731 34.824 24.8776 35.3178 24.8776 35.8325C24.8776 36.3473 24.6731 36.8411 24.3092 37.2051L17.5375 43.9768C15.7278 45.7906 14.7077 48.2458 14.6992 50.808C14.6906 53.3702 15.6944 55.8321 17.4919 57.6579C18.3787 58.5463 19.4335 59.2492 20.5948 59.7257C21.756 60.2022 23.0006 60.4427 24.2558 60.4332H24.2898C26.9843 60.4351 29.571 59.3744 31.4885 57.4813L38.0369 50.9319C38.2172 50.7516 38.4313 50.6086 38.6669 50.511C38.9025 50.4134 39.155 50.3632 39.41 50.3632C39.665 50.3632 39.9175 50.4134 40.1531 50.511C40.3887 50.6086 40.6027 50.7516 40.783 50.9319C40.9634 51.1122 41.1064 51.3263 41.204 51.5619C41.3016 51.7975 41.3518 52.05 41.3518 52.305C41.3518 52.56 41.3016 52.8125 41.204 53.0481C41.1064 53.2837 40.9634 53.4977 40.783 53.678L34.2793 60.1818C31.8433 62.6763 28.5549 64.1586 25.0725 64.332C21.5901 64.5053 18.1708 63.3568 15.499 61.1166C15.4051 61.0217 15.2926 60.9471 15.1686 60.8977C15.0446 60.8482 14.9117 60.8249 14.7782 60.8292C14.6447 60.8334 14.5136 60.8651 14.393 60.9224C14.2723 60.9796 14.1648 61.0611 14.0771 61.1618C13.9894 61.2625 13.9234 61.3802 13.8833 61.5075C13.8431 61.6349 13.8297 61.7692 13.8438 61.9019C13.8579 62.0347 13.8993 62.1631 13.9653 62.2792C14.0313 62.3953 14.1205 62.4965 14.2274 62.5765C17.0131 64.988 20.5791 66.3069 24.2635 66.2885C26.3806 66.2854 28.4762 65.8652 30.4308 65.0519C32.3854 64.2386 34.1605 63.0482 35.6548 61.5485L42.1585 55.0448C42.5191 54.6842 42.8051 54.2562 43.0002 53.7851C43.1954 53.314 43.2958 52.8091 43.2958 52.2991C43.2958 51.7892 43.1954 51.2843 43.0002 50.8132C42.8051 50.3421 42.5191 49.9141 42.1585 49.5535C41.798 49.1929 41.3699 48.9069 40.8988 48.7118C40.4277 48.5166 39.9228 48.4162 39.4129 48.4162C38.903 48.4162 38.3981 48.5166 37.927 48.7118C37.4559 48.9069 37.0278 49.1929 36.6672 49.5535L30.1179 56.1029C28.5659 57.6329 26.4731 58.4892 24.2936 58.4859H24.2665C23.2677 58.4966 22.2768 58.3083 21.3516 57.9322C20.4263 57.556 19.5851 56.9995 18.8771 56.2951C17.4399 54.8338 16.6375 52.8642 16.6444 50.8146C16.6513 48.765 17.4669 46.8009 18.914 45.3494L25.6856 38.5767C26.4135 37.8486 26.8225 36.8612 26.8225 35.8316C26.8225 34.802 26.4135 33.8146 25.6856 33.0864C24.9455 32.3811 23.9624 31.9877 22.94 31.9877C21.9176 31.9877 20.9345 32.3811 20.1943 33.0864L13.4188 39.8571C11.972 41.2953 10.8256 43.0068 10.0462 44.8921C9.2668 46.7773 8.86998 48.7987 8.87881 50.8387V50.8426Z" fill="#6254B8"/>
<path d="M48.7749 25.9915C48.0008 25.3546 47.0151 25.0328 46.0143 25.0902C45.0135 25.1475 44.071 25.58 43.3748 26.3012L38.6853 30.9897C38.1403 31.5365 37.8342 32.277 37.8342 33.0491C37.8342 33.8211 38.1403 34.5616 38.6853 35.1084L40.0579 36.481C40.3283 36.7515 40.6494 36.966 41.0027 37.1124C41.3561 37.2588 41.7348 37.3341 42.1173 37.3341C42.4997 37.3341 42.8785 37.2588 43.2318 37.1124C43.5852 36.966 43.9062 36.7515 44.1766 36.481L48.9807 31.676C49.3422 31.3163 49.6287 30.8885 49.8237 30.4173C50.0186 29.946 50.1181 29.4408 50.1164 28.9308C50.1163 28.3734 49.9964 27.8225 49.765 27.3154C49.5336 26.8083 49.1959 26.3568 48.7749 25.9915ZM47.61 30.3034L42.805 35.1084C42.6206 35.2855 42.3749 35.3844 42.1192 35.3844C41.8636 35.3844 41.6178 35.2855 41.4334 35.1084L40.0608 33.7358C39.9706 33.6457 39.899 33.5386 39.8501 33.4208C39.8013 33.3029 39.7761 33.1766 39.7761 33.0491C39.7761 32.9215 39.8013 32.7952 39.8501 32.6773C39.899 32.5595 39.9706 32.4524 40.0608 32.3623L44.7503 27.6738C45.1606 27.2628 45.7169 27.0307 46.2976 27.0283C46.7387 27.0222 47.1672 27.1756 47.5042 27.4602C47.7151 27.643 47.8842 27.8691 48.0001 28.123C48.116 28.3769 48.176 28.6527 48.1759 28.9318C48.1769 29.1865 48.1274 29.4388 48.0303 29.6743C47.9332 29.9097 47.7903 30.1235 47.61 30.3034Z" fill="#6254B8"/>
<path d="M35.9411 37.8536C35.3862 37.3241 34.6487 37.0287 33.8818 37.0287C33.1148 37.0287 32.3773 37.3241 31.8224 37.8536L27.0184 42.6586C26.6409 43.0359 26.3453 43.487 26.15 43.9836C25.9547 44.4803 25.8638 45.0119 25.8832 45.5452C25.9025 46.0785 26.0315 46.6021 26.2622 47.0834C26.493 47.5646 26.8204 47.9931 27.2242 48.3421C27.9151 48.9355 28.7974 49.259 29.7082 49.2526C30.8036 49.2485 31.8527 48.81 32.6252 48.0334L37.3137 43.3449C37.8587 42.7981 38.1648 42.0576 38.1648 41.2855C38.1648 40.5135 37.8587 39.773 37.3137 39.2262L35.9411 37.8536ZM35.9411 41.9723L31.2536 46.6608C30.9015 47.0305 30.4251 47.2568 29.9161 47.2962C29.4071 47.3357 28.9016 47.1854 28.4968 46.8744C28.2945 46.7 28.1305 46.4858 28.0148 46.2451C27.8991 46.0044 27.8343 45.7425 27.8245 45.4756C27.8146 45.2088 27.86 44.9428 27.9576 44.6942C28.0552 44.4457 28.2031 44.22 28.3919 44.0312L33.1969 39.2262C33.3789 39.0445 33.6256 38.9425 33.8827 38.9425C34.1399 38.9425 34.3865 39.0445 34.5685 39.2262L35.9411 40.5988C36.0313 40.689 36.1028 40.7961 36.1516 40.914C36.2004 41.0318 36.2254 41.1582 36.2253 41.2857C36.2252 41.4133 36.2 41.5396 36.1511 41.6574C36.1021 41.7752 36.0314 41.8822 35.9411 41.9723Z" fill="#6254B8"/>
<path d="M24.4101 24.5482C24.6021 24.5481 24.7897 24.4912 24.9493 24.3845C25.1089 24.2779 25.2333 24.1263 25.3067 23.9489C25.3802 23.7716 25.3994 23.5764 25.362 23.3882C25.3245 23.1999 25.2321 23.0269 25.0964 22.8912L15.3893 13.1841C15.2063 13.0073 14.9611 12.9094 14.7065 12.9117C14.452 12.9139 14.2086 13.016 14.0286 13.1959C13.8486 13.3759 13.7465 13.6194 13.7443 13.8739C13.7421 14.1284 13.8399 14.3736 14.0168 14.5567L23.7238 24.2638C23.9058 24.4458 24.1527 24.5481 24.4101 24.5482Z" fill="#FFCE1F"/>
<path d="M27.3223 9.98755C27.0648 9.98755 26.8179 10.0898 26.6359 10.2719C26.4538 10.4539 26.3516 10.7008 26.3516 10.9583V20.6653C26.3516 20.9228 26.4538 21.1697 26.6359 21.3517C26.8179 21.5338 27.0648 21.636 27.3223 21.636C27.5797 21.636 27.8266 21.5338 28.0087 21.3517C28.1907 21.1697 28.293 20.9228 28.293 20.6653V10.9583C28.293 10.7008 28.1907 10.4539 28.0087 10.2719C27.8266 10.0898 27.5797 9.98755 27.3223 9.98755Z" fill="#FFCE1F"/>
<path d="M10.8203 26.4895C10.8203 26.747 10.9226 26.9939 11.1046 27.1759C11.2867 27.3579 11.5336 27.4602 11.791 27.4602H21.4981C21.7555 27.4602 22.0024 27.3579 22.1845 27.1759C22.3665 26.9939 22.4688 26.747 22.4688 26.4895C22.4688 26.2321 22.3665 25.9852 22.1845 25.8031C22.0024 25.6211 21.7555 25.5188 21.4981 25.5188H11.791C11.5336 25.5188 11.2867 25.6211 11.1046 25.8031C10.9226 25.9852 10.8203 26.2321 10.8203 26.4895Z" fill="#FFCE1F"/>
<path d="M50.9036 50.071C50.7216 50.253 50.6194 50.4998 50.6194 50.7572C50.6194 51.0146 50.7216 51.2615 50.9036 51.4435L60.6107 61.1506C60.7937 61.3274 61.0389 61.4253 61.2935 61.4231C61.548 61.4208 61.7914 61.3188 61.9714 61.1388C62.1514 60.9588 62.2535 60.7153 62.2557 60.4608C62.2579 60.2063 62.1601 59.9611 61.9832 59.778L52.2762 50.071C52.0941 49.889 51.8473 49.7867 51.5899 49.7867C51.3325 49.7867 51.0856 49.889 50.9036 50.071Z" fill="#FFCE1F"/>
<path d="M48.6779 52.6986C48.4204 52.6986 48.1735 52.8009 47.9915 52.9829C47.8094 53.165 47.7072 53.4119 47.7072 53.6693V63.3764C47.7072 63.6338 47.8094 63.8807 47.9915 64.0628C48.1735 64.2448 48.4204 64.3471 48.6779 64.3471C48.9353 64.3471 49.1822 64.2448 49.3643 64.0628C49.5463 63.8807 49.6486 63.6338 49.6486 63.3764V53.6693C49.6486 53.4119 49.5463 53.165 49.3643 52.9829C49.1822 52.8009 48.9353 52.6986 48.6779 52.6986Z" fill="#FFCE1F"/>
<path d="M64.209 48.8158C64.4665 48.8158 64.7134 48.7135 64.8954 48.5315C65.0775 48.3494 65.1797 48.1025 65.1797 47.8451C65.1797 47.5876 65.0775 47.3407 64.8954 47.1587C64.7134 46.9767 64.4665 46.8744 64.209 46.8744H54.502C54.2445 46.8744 53.9976 46.9767 53.8156 47.1587C53.6335 47.3407 53.5312 47.5876 53.5312 47.8451C53.5312 48.1025 53.6335 48.3494 53.8156 48.5315C53.9976 48.7135 54.2445 48.8158 54.502 48.8158H64.209Z" fill="#FFCE1F"/>
</g>
<defs>
<clipPath id="clip0_1_7">
<rect width="58.2425" height="62" fill="white" transform="translate(8.87866 7.53943)"/>
</clipPath>
</defs>
</svg>
