<svg width="37" height="37" viewBox="0 0 37 37" fill="none" xmlns="http://www.w3.org/2000/svg">
<path d="M31.8428 30.7899H9.62059C8.63831 30.7899 7.69626 30.3997 7.00168 29.7051C6.3071 29.0105 5.91689 28.0685 5.91689 27.0862V4.86396C5.91689 4.53653 5.78682 4.22252 5.55529 3.99099C5.32377 3.75946 5.00975 3.62939 4.68232 3.62939C4.35489 3.62939 4.04088 3.75946 3.80935 3.99099C3.57782 4.22252 3.44775 4.53653 3.44775 4.86396V27.0862C3.44971 28.7227 4.10069 30.2917 5.2579 31.4489C6.41511 32.6061 7.98406 33.2571 9.62059 33.259H31.8428C32.1702 33.259 32.4843 33.129 32.7158 32.8974C32.9473 32.6659 33.0774 32.3519 33.0774 32.0245C33.0774 31.697 32.9473 31.383 32.7158 31.1515C32.4843 30.92 32.1702 30.7899 31.8428 30.7899Z" fill="currentColor"/>
<path d="M10.8553 28.3207C11.1828 28.3207 11.4968 28.1906 11.7283 27.9591C11.9598 27.7275 12.0899 27.4135 12.0899 27.0861V18.4441C12.0899 18.1167 11.9598 17.8027 11.7283 17.5711C11.4968 17.3396 11.1828 17.2096 10.8553 17.2096C10.5279 17.2096 10.2139 17.3396 9.98238 17.5711C9.75085 17.8027 9.62078 18.1167 9.62078 18.4441V27.0861C9.62078 27.4135 9.75085 27.7275 9.98238 27.9591C10.2139 28.1906 10.5279 28.3207 10.8553 28.3207Z" fill="currentColor"/>
<path d="M15.7932 15.9751V27.0862C15.7932 27.4136 15.9233 27.7276 16.1548 27.9591C16.3864 28.1907 16.7004 28.3207 17.0278 28.3207C17.3552 28.3207 17.6693 28.1907 17.9008 27.9591C18.1323 27.7276 18.2624 27.4136 18.2624 27.0862V15.9751C18.2624 15.6476 18.1323 15.3336 17.9008 15.1021C17.6693 14.8706 17.3552 14.7405 17.0278 14.7405C16.7004 14.7405 16.3864 14.8706 16.1548 15.1021C15.9233 15.3336 15.7932 15.6476 15.7932 15.9751Z" fill="currentColor"/>
<path d="M21.9663 19.6788V27.0862C21.9663 27.4136 22.0963 27.7276 22.3279 27.9591C22.5594 28.1907 22.8734 28.3207 23.2008 28.3207C23.5283 28.3207 23.8423 28.1907 24.0738 27.9591C24.3054 27.7276 24.4354 27.4136 24.4354 27.0862V19.6788C24.4354 19.3513 24.3054 19.0373 24.0738 18.8058C23.8423 18.5743 23.5283 18.4442 23.2008 18.4442C22.8734 18.4442 22.5594 18.5743 22.3279 18.8058C22.0963 19.0373 21.9663 19.3513 21.9663 19.6788Z" fill="currentColor"/>
<path d="M28.1393 14.7404V27.0861C28.1393 27.4135 28.2694 27.7275 28.5009 27.9591C28.7325 28.1906 29.0465 28.3206 29.3739 28.3206C29.7013 28.3206 30.0154 28.1906 30.2469 27.9591C30.4784 27.7275 30.6085 27.4135 30.6085 27.0861V14.7404C30.6085 14.413 30.4784 14.099 30.2469 13.8674C30.0154 13.6359 29.7013 13.5058 29.3739 13.5058C29.0465 13.5058 28.7325 13.6359 28.5009 13.8674C28.2694 14.099 28.1393 14.413 28.1393 14.7404Z" fill="currentColor"/>
<path d="M10.855 14.7404C11.1824 14.7404 11.4963 14.6102 11.7278 14.3787L16.155 9.95154C16.3903 9.72737 16.7028 9.60233 17.0278 9.60233C17.3528 9.60233 17.6653 9.72737 17.9006 9.95154L20.5821 12.633C21.2767 13.3274 22.2185 13.7174 23.2006 13.7174C24.1827 13.7174 25.1246 13.3274 25.8192 12.633L32.7155 5.73672C32.9403 5.50388 33.0648 5.19203 33.062 4.86833C33.0591 4.54463 32.9293 4.23498 32.7004 4.00608C32.4715 3.77718 32.1619 3.64735 31.8382 3.64453C31.5145 3.64172 31.2026 3.76616 30.9698 3.99104L24.0735 10.8861C23.842 11.1176 23.528 11.2476 23.2006 11.2476C22.8733 11.2476 22.5593 11.1176 22.3278 10.8861L19.6463 8.20586C18.9518 7.51152 18.0099 7.12146 17.0278 7.12146C16.0457 7.12146 15.1038 7.51152 14.4093 8.20586L9.98212 12.633C9.80951 12.8057 9.69197 13.0256 9.64436 13.2651C9.59674 13.5045 9.62119 13.7527 9.71461 13.9783C9.80803 14.2038 9.96623 14.3966 10.1692 14.5323C10.3722 14.6679 10.6108 14.7404 10.855 14.7404Z" fill="currentColor"/>
</svg>
