<svg width="76" height="77" viewBox="0 0 76 77" fill="none" xmlns="http://www.w3.org/2000/svg">
<g clip-path="url(#clip0_202_387)">
<ellipse cx="38.125" cy="60.4625" rx="30.4375" ry="2.66656" fill="#BCB7DE"/>
<ellipse cx="37.9848" cy="59.9534" rx="26.8536" ry="0.863159" fill="#9087C8"/>
<path d="M12.1643 15.3169H63.8055C66.0872 15.3169 67.9367 17.1665 67.9367 19.4481V54.5643C67.9367 56.846 66.0872 58.6955 63.8055 58.6955H12.1643C9.88264 58.6955 8.03308 56.846 8.03308 54.5643V19.4481C8.03308 17.1665 9.88264 15.3169 12.1643 15.3169Z" fill="#BDB7DE"/>
<path d="M12.1643 15.3169H60.7073C62.989 15.3169 64.8385 17.1665 64.8385 19.4481V54.5643C64.8385 56.846 62.989 58.6955 60.7073 58.6955H12.1643C9.88264 58.6955 8.03308 56.846 8.03308 54.5643V19.4481C8.03308 17.1665 9.88264 15.3169 12.1643 15.3169Z" fill="#EFEDF7"/>
<path d="M27.6567 44.2356H48.313V58.6955H27.6567V44.2356Z" fill="#EFEDF7"/>
<path d="M27.6567 15.3169H48.313V29.7763H27.6567V15.3169Z" fill="#EFEDF7"/>
<path d="M8.03308 29.7761H27.6568V44.2355H8.03308V29.7761Z" fill="#EFEDF7"/>
<path d="M48.313 29.7761H67.9367V44.2355H48.313V29.7761Z" fill="#BDB7DE"/>
<path d="M48.313 29.7761H64.8385V44.2355H48.313V29.7761Z" fill="#EFEDF7"/>
<path d="M27.6567 29.7761H48.313V44.2355H27.6567V29.7761Z" fill="#BDB7DE"/>
<path d="M12.1643 58.6955H15.2625C12.9808 58.6955 11.1313 56.846 11.1313 54.5643V19.4481C11.1313 17.1665 12.9808 15.3169 15.2625 15.3169H12.1643C9.88264 15.3169 8.03308 17.1665 8.03308 19.4481V54.5643C8.03308 56.846 9.88264 58.6955 12.1643 58.6955Z" fill="#F9FAFB"/>
<path d="M63.8054 16.3493H12.1642V14.2837H63.8054V16.3493Z" fill="#F9FAFB"/>
<path d="M56.2763 16.0502L56.4001 15.8952C56.4394 15.8375 56.4706 15.7751 56.4933 15.7093C56.5231 15.6507 56.5439 15.5878 56.5552 15.5231C56.5666 15.455 56.5737 15.386 56.576 15.3169C56.5718 15.0432 56.4649 14.7813 56.2763 14.5836C56.1775 14.49 56.0621 14.4163 55.9354 14.3666C55.5501 14.2106 55.1094 14.2957 54.8097 14.5836C54.7165 14.682 54.6428 14.7978 54.5927 14.924C54.5397 15.0484 54.5118 15.1817 54.5104 15.3169C54.5076 15.7363 54.7596 16.1155 55.1468 16.2767C55.5345 16.4374 55.9808 16.3481 56.2763 16.0502Z" fill="#6254B8"/>
<path d="M63.8054 14.2837H59.6742C59.104 14.2837 58.6416 14.7461 58.6416 15.3167C58.6416 15.8869 59.104 16.3493 59.6742 16.3493H63.8054C65.5169 16.3493 66.9041 17.7365 66.9041 19.448V28.7431H49.3461V16.3493H51.4117C51.9819 16.3493 52.4443 15.8869 52.4443 15.3167C52.4443 14.7461 51.9819 14.2837 51.4117 14.2837H12.1643C9.31337 14.287 7.00331 16.5971 7 19.448V54.5641C7.00331 57.4146 9.31337 59.7246 12.1643 59.7279H63.8054C66.6564 59.7246 68.9664 57.4146 68.9697 54.5641V19.448C68.9664 16.5971 66.6564 14.287 63.8054 14.2837ZM66.9041 30.8092V43.2029H49.3461V30.8092H66.9041ZM28.6893 43.2029V30.8092H47.2804V43.2029H28.6893ZM47.2804 45.2686V57.6623H28.6893V45.2686H47.2804ZM9.06563 30.8092H26.6237V43.2029H9.06563V30.8092ZM47.2804 28.7431H28.6893V16.3493H47.2804V28.7431ZM12.1643 16.3493H26.6237V28.7431H9.06563V19.448C9.06563 17.7365 10.4528 16.3493 12.1643 16.3493ZM9.06563 54.5641V45.2686H26.6237V57.6623H12.1643C10.4528 57.6623 9.06563 56.2752 9.06563 54.5641ZM63.8054 57.6623H49.3461V45.2686H66.9041V54.5641C66.9041 56.2752 65.5169 57.6623 63.8054 57.6623Z" fill="#6254B8"/>
<path d="M12.1643 26.6774C12.7345 26.6774 13.1969 26.215 13.1969 25.6448V19.448C13.1969 18.8773 12.7345 18.4149 12.1643 18.4149C11.5937 18.4149 11.1313 18.8773 11.1313 19.448V25.6448C11.1313 26.215 11.5937 26.6774 12.1643 26.6774Z" fill="#FFCE1F"/>
<path d="M17.3282 26.6774C17.8988 26.6774 18.3612 26.215 18.3612 25.6448V19.448C18.3612 18.8773 17.8988 18.4149 17.3282 18.4149C16.758 18.4149 16.2956 18.8773 16.2956 19.448V25.6448C16.2956 26.215 16.758 26.6774 17.3282 26.6774Z" fill="#FFCE1F"/>
<path d="M22.4925 26.6774C23.0626 26.6774 23.5255 26.215 23.5255 25.6448V19.448C23.5255 18.8773 23.0626 18.4149 22.4925 18.4149C21.9223 18.4149 21.4594 18.8773 21.4594 19.448V25.6448C21.4594 26.215 21.9223 26.6774 22.4925 26.6774Z" fill="#FFCE1F"/>
<path d="M53.4773 26.6774C54.0475 26.6774 54.5104 26.215 54.5104 25.6448V19.448C54.5104 18.8773 54.0475 18.4149 53.4773 18.4149C52.9071 18.4149 52.4443 18.8773 52.4443 19.448V25.6448C52.4443 26.215 52.9071 26.6774 53.4773 26.6774Z" fill="#FFCE1F"/>
<path d="M59.6742 25.6448V19.448C59.6742 18.8773 59.2118 18.4149 58.6416 18.4149C58.071 18.4149 57.6086 18.8773 57.6086 19.448V25.6448C57.6086 26.215 58.071 26.6774 58.6416 26.6774C59.2118 26.6774 59.6742 26.215 59.6742 25.6448Z" fill="#FFCE1F"/>
<path d="M64.8385 25.6448V19.448C64.8385 18.8773 64.3761 18.4149 63.8055 18.4149C63.2353 18.4149 62.7729 18.8773 62.7729 19.448V25.6448C62.7729 26.215 63.2353 26.6774 63.8055 26.6774C64.3761 26.6774 64.8385 26.215 64.8385 25.6448Z" fill="#FFCE1F"/>
<path d="M12.1643 47.3342C11.5937 47.3342 11.1313 47.7966 11.1313 48.3673V54.5642C11.1313 55.1343 11.5937 55.5967 12.1643 55.5967C12.7345 55.5967 13.1969 55.1343 13.1969 54.5642V48.3673C13.1969 47.7966 12.7345 47.3342 12.1643 47.3342Z" fill="#FFCE1F"/>
<path d="M17.3282 47.3342C16.758 47.3342 16.2956 47.7966 16.2956 48.3673V54.5642C16.2956 55.1343 16.758 55.5967 17.3282 55.5967C17.8988 55.5967 18.3612 55.1343 18.3612 54.5642V48.3673C18.3612 47.7966 17.8988 47.3342 17.3282 47.3342Z" fill="#FFCE1F"/>
<path d="M22.4925 47.3342C21.9223 47.3342 21.4594 47.7966 21.4594 48.3673V54.5642C21.4594 55.1343 21.9223 55.5967 22.4925 55.5967C23.0626 55.5967 23.5255 55.1343 23.5255 54.5642V48.3673C23.5255 47.7966 23.0626 47.3342 22.4925 47.3342Z" fill="#FFCE1F"/>
<path d="M32.8205 32.8748C32.2504 32.8748 31.788 33.3371 31.788 33.9073V40.1042C31.788 40.6749 32.2504 41.1373 32.8205 41.1373C33.3912 41.1373 33.8536 40.6749 33.8536 40.1042V33.9073C33.8536 33.3371 33.3912 32.8748 32.8205 32.8748Z" fill="#FFCE1F"/>
<path d="M37.9848 32.8748C37.4146 32.8748 36.9518 33.3371 36.9518 33.9073V40.1042C36.9518 40.6749 37.4146 41.1373 37.9848 41.1373C38.555 41.1373 39.0179 40.6749 39.0179 40.1042V33.9073C39.0179 33.3371 38.555 32.8748 37.9848 32.8748Z" fill="#FFCE1F"/>
<path d="M43.1492 32.8748C42.5785 32.8748 42.1161 33.3371 42.1161 33.9073V40.1042C42.1161 40.6749 42.5785 41.1373 43.1492 41.1373C43.7194 41.1373 44.1818 40.6749 44.1818 40.1042V33.9073C44.1818 33.3371 43.7194 32.8748 43.1492 32.8748Z" fill="#FFCE1F"/>
<path d="M53.4773 47.3342C52.9071 47.3342 52.4443 47.7966 52.4443 48.3673V54.5642C52.4443 55.1343 52.9071 55.5967 53.4773 55.5967C54.0475 55.5967 54.5104 55.1343 54.5104 54.5642V48.3673C54.5104 47.7966 54.0475 47.3342 53.4773 47.3342Z" fill="#FFCE1F"/>
<path d="M58.6416 47.3342C58.071 47.3342 57.6086 47.7966 57.6086 48.3673V54.5642C57.6086 55.1343 58.071 55.5967 58.6416 55.5967C59.2118 55.5967 59.6742 55.1343 59.6742 54.5642V48.3673C59.6742 47.7966 59.2118 47.3342 58.6416 47.3342Z" fill="#FFCE1F"/>
<path d="M63.8055 47.3342C63.2353 47.3342 62.7729 47.7966 62.7729 48.3673V54.5642C62.7729 55.1343 63.2353 55.5967 63.8055 55.5967C64.3761 55.5967 64.8385 55.1343 64.8385 54.5642V48.3673C64.8385 47.7966 64.3761 47.3342 63.8055 47.3342Z" fill="#FFCE1F"/>
</g>
<defs>
<clipPath id="clip0_202_387">
<rect width="62" height="50" fill="white" transform="translate(7 13.504)"/>
</clipPath>
</defs>
</svg>
