<svg width="77" height="77" viewBox="0 0 77 77" fill="none" xmlns="http://www.w3.org/2000/svg">
<g clip-path="url(#clip0_202_339)">
<ellipse cx="38.3637" cy="54.3337" rx="35.8835" ry="3.04183" fill="#BCB7DE"/>
<ellipse cx="38.3636" cy="53.8724" rx="33.3125" ry="1.03619" fill="#9087C8"/>
<path d="M46.6594 29.8V32.1703C46.6614 33.6148 46.285 35.0346 45.5677 36.2884C44.8503 37.5421 43.8171 38.5862 42.5708 39.3165C42.2688 39.4972 41.9561 39.6594 41.6346 39.8024C40.5997 40.2404 39.4874 40.4661 38.3637 40.4661C37.2399 40.4661 36.1276 40.2404 35.0928 39.8024C34.7712 39.6594 34.4585 39.4972 34.1565 39.3165C32.9096 38.5869 31.8758 37.543 31.1584 36.2891C30.441 35.0351 30.065 33.6149 30.0679 32.1703V29.8C30.0679 27.5999 30.9419 25.4898 32.4977 23.934C34.0534 22.3783 36.1635 21.5043 38.3637 21.5043C40.5638 21.5043 42.6739 22.3783 44.2297 23.934C45.7854 25.4898 46.6594 27.5999 46.6594 29.8Z" fill="#EFEDF7"/>
<path d="M44.2299 23.9335C43.4612 23.161 42.5469 22.5485 41.54 22.1315C40.533 21.7145 39.4535 21.5013 38.3636 21.5041C37.7658 21.505 37.1698 21.5702 36.5859 21.6984C38.4331 22.1036 40.0863 23.1278 41.2718 24.6012C42.4572 26.0746 43.1037 27.9088 43.104 29.7998V32.1701C43.106 33.6145 42.7296 35.0344 42.0123 36.2881C41.2949 37.5419 40.2617 38.586 39.0154 39.3163C38.7134 39.4969 38.4008 39.6592 38.0792 39.8022C37.5973 40.0063 37.0973 40.165 36.5859 40.2762C38.2773 40.6453 40.0415 40.4796 41.6345 39.8022C41.9561 39.6592 42.2687 39.4969 42.5707 39.3163C43.817 38.586 44.8503 37.5419 45.5676 36.2881C46.2849 35.0344 46.6614 33.6145 46.6594 32.1701V29.7998C46.6622 28.71 46.4489 27.6304 46.0319 26.6235C45.6149 25.6165 45.0024 24.7023 44.2299 23.9335Z" fill="#BDB7DE"/>
<path d="M35.9935 45.2064L34.9625 52.3171H28.8829C28.5451 52.317 28.2114 52.2439 27.9045 52.1028C27.5977 51.9616 27.325 51.7558 27.1052 51.4993C26.7195 51.0747 26.508 50.5204 26.5126 49.9469V47.5766C26.5192 45.4922 27.3086 43.4863 28.7244 41.9564C30.1401 40.4265 32.0789 39.4843 34.1566 39.3164C34.4586 39.4971 34.7713 39.6593 35.0929 39.8023L35.9935 45.2064Z" fill="#EFEDF7"/>
<path d="M41.7649 52.3171H34.9624L35.9934 45.2064H40.7339L41.7649 52.3171Z" fill="#FFCE1F"/>
<path d="M50.2148 47.5766V49.9469C50.2195 50.5204 50.0079 51.0747 49.6222 51.4993C49.4024 51.7558 49.1297 51.9616 48.8229 52.1028C48.516 52.2439 48.1823 52.317 47.8446 52.3171H41.7649L40.7339 45.2064L41.6346 39.8023C41.9561 39.6593 42.2688 39.4971 42.5708 39.3164C44.6485 39.4843 46.5873 40.4265 48.003 41.9564C49.4188 43.4863 50.2082 45.4922 50.2148 47.5766Z" fill="#EFEDF7"/>
<path d="M49.8474 45.159C49.3668 43.564 48.4142 42.1521 47.1153 41.1091C45.8164 40.0662 44.232 39.4412 42.5709 39.3164C42.2689 39.4971 41.9562 39.6593 41.6346 39.8023L41.6097 39.9552C43.1039 40.5935 44.3784 41.6554 45.2758 43.0098C46.1732 44.3643 46.6542 45.9519 46.6595 47.5766V49.9469C46.6642 50.5204 46.4526 51.0747 46.0669 51.4993C45.8471 51.7558 45.5745 51.9616 45.2676 52.1028C44.9608 52.2439 44.627 52.317 44.2893 52.3171H47.8446C48.1824 52.317 48.5161 52.2439 48.8229 52.1028C49.1298 51.9616 49.4025 51.7558 49.6223 51.4993C50.0079 51.0747 50.2195 50.5204 50.2148 49.9469V47.5766C50.2142 46.7569 50.0904 45.9419 49.8474 45.159Z" fill="#BDB7DE"/>
<path d="M41.6346 39.8024L40.7339 45.2065H35.9935L35.0928 39.8024C36.1276 40.2404 37.2399 40.4661 38.3637 40.4661C39.4874 40.4661 40.5997 40.2404 41.6346 39.8024Z" fill="#FFCE1F"/>
<path d="M24.1424 30.985V33.3552C24.1443 34.7997 23.7679 36.2195 23.0506 37.4733C22.3332 38.7271 21.3 39.7711 20.0537 40.5014C19.7517 40.6821 19.4391 40.8444 19.1175 40.9873C18.0826 41.4253 16.9703 41.651 15.8466 41.651C14.7228 41.651 13.6105 41.4253 12.5757 40.9873C12.2541 40.8444 11.9414 40.6821 11.6394 40.5014C10.3925 39.7718 9.35875 38.728 8.64132 37.474C7.92388 36.2201 7.54787 34.7999 7.5508 33.3552V30.985C7.5508 29.8956 7.76537 28.8168 8.18228 27.8103C8.59918 26.8038 9.21024 25.8893 9.98057 25.119C10.7509 24.3486 11.6654 23.7376 12.6719 23.3207C13.6784 22.9038 14.7572 22.6892 15.8466 22.6892C16.936 22.6892 18.0147 22.9038 19.0212 23.3207C20.0277 23.7376 20.9422 24.3486 21.7126 25.119C22.4829 25.8893 23.094 26.8038 23.5109 27.8103C23.9278 28.8168 24.1424 29.8956 24.1424 30.985Z" fill="#EFEDF7"/>
<path d="M21.7128 25.1187C20.9441 24.3462 20.0298 23.7337 19.0229 23.3167C18.016 22.8997 16.9364 22.6864 15.8465 22.6892C15.2487 22.6902 14.6527 22.7554 14.0688 22.8836C15.916 23.2888 17.5692 24.313 18.7547 25.7864C19.9401 27.2598 20.5866 29.0939 20.587 30.985V33.3552C20.5889 34.7997 20.2125 36.2195 19.4952 37.4733C18.7778 38.7271 17.7446 39.7711 16.4983 40.5015C16.1963 40.6821 15.8837 40.8444 15.5621 40.9873C15.0802 41.1915 14.5803 41.3502 14.0688 41.4614C15.7602 41.8304 17.5244 41.6648 19.1174 40.9873C19.439 40.8444 19.7516 40.6821 20.0537 40.5015C21.2999 39.7711 22.3332 38.7271 23.0505 37.4733C23.7678 36.2195 24.1443 34.7997 24.1423 33.3552V30.985C24.1451 29.8952 23.9318 28.8156 23.5148 27.8086C23.0978 26.8017 22.4853 25.8875 21.7128 25.1187Z" fill="#BDB7DE"/>
<path d="M13.4764 46.3915L12.4453 52.317H6.36572C5.73767 52.3151 5.13589 52.0648 4.69179 51.6207C4.24769 51.1766 3.99737 50.5748 3.9955 49.9468V48.7617C3.9919 46.6743 4.77784 44.6628 6.1956 43.1307C7.61335 41.5986 9.55804 40.6594 11.6395 40.5015C11.9415 40.6821 12.2541 40.8444 12.5757 40.9874L13.4764 46.3915Z" fill="#EFEDF7"/>
<path d="M19.2478 52.3172H12.4453L13.4764 46.3916H18.2168L19.2478 52.3172Z" fill="#FFCE1F"/>
<path d="M27.1051 51.4993C26.8853 51.7557 26.6126 51.9616 26.3058 52.1027C25.999 52.2439 25.6652 52.317 25.3275 52.317H19.2478L18.2168 46.3915L19.1175 40.9874C19.4391 40.8444 19.7517 40.6821 20.0537 40.5015C21.4999 40.6117 22.8916 41.0999 24.0897 41.9173C25.2877 42.7347 26.2499 43.8526 26.88 45.159C26.637 45.9419 26.5132 46.7568 26.5126 47.5766V49.9468C26.5079 50.5204 26.7195 51.0747 27.1051 51.4993Z" fill="#EFEDF7"/>
<path d="M26.5125 49.9468V47.5766C26.5131 46.7568 26.6369 45.9419 26.8799 45.159C26.2498 43.8526 25.2876 42.7347 24.0896 41.9173C22.8915 41.0999 21.4998 40.6117 20.0536 40.5015C19.7516 40.6821 19.439 40.8444 19.1174 40.9874L19.0913 41.1474C20.9414 41.9281 22.4455 43.3535 23.3245 45.159C23.0816 45.9419 22.9577 46.7568 22.9571 47.5766V49.9468C22.9525 50.5204 23.164 51.0747 23.5497 51.4993C23.3299 51.7557 23.0572 51.9616 22.7504 52.1027C22.4435 52.2439 22.1098 52.317 21.772 52.317H25.3274C25.6651 52.317 25.9989 52.2439 26.3057 52.1027C26.6125 51.9616 26.8852 51.7557 27.105 51.4993C26.7194 51.0747 26.5078 50.5204 26.5125 49.9468Z" fill="#BDB7DE"/>
<path d="M19.1175 40.9874L18.2168 46.3915H13.4764L12.5757 40.9874C13.6105 41.4254 14.7228 41.6511 15.8466 41.6511C16.9703 41.6511 18.0826 41.4254 19.1175 40.9874Z" fill="#FFCE1F"/>
<path d="M69.1767 30.985V33.3552C69.1786 34.7997 68.8022 36.2195 68.0849 37.4733C67.3675 38.7271 66.3343 39.7711 65.088 40.5014C64.786 40.6821 64.4734 40.8444 64.1518 40.9873C63.1169 41.4253 62.0046 41.651 60.8809 41.651C59.7571 41.651 58.6448 41.4253 57.61 40.9873C57.2884 40.8444 56.9757 40.6821 56.6737 40.5014C55.4268 39.7718 54.3931 38.728 53.6756 37.474C52.9582 36.2201 52.5822 34.7999 52.5851 33.3552V30.985C52.5851 28.7848 53.4591 26.6747 55.0149 25.119C56.5706 23.5632 58.6807 22.6892 60.8809 22.6892C63.0811 22.6892 65.1911 23.5632 66.7469 25.119C68.3026 26.6747 69.1767 28.7848 69.1767 30.985Z" fill="#EFEDF7"/>
<path d="M66.7471 25.1187C65.9784 24.3462 65.0641 23.7337 64.0572 23.3167C63.0503 22.8997 61.9707 22.6864 60.8808 22.6892C60.283 22.6902 59.687 22.7554 59.1031 22.8836C60.9503 23.2888 62.6035 24.313 63.789 25.7864C64.9744 27.2598 65.6209 29.0939 65.6213 30.985V33.3552C65.6232 34.7997 65.2468 36.2195 64.5295 37.4733C63.8121 38.7271 62.7789 39.7711 61.5326 40.5015C61.2306 40.6821 60.918 40.8444 60.5964 40.9873C60.1145 41.1915 59.6146 41.3502 59.1031 41.4614C60.7945 41.8304 62.5587 41.6648 64.1517 40.9873C64.4733 40.8444 64.7859 40.6821 65.088 40.5015C66.3342 39.7711 67.3675 38.7271 68.0848 37.4733C68.8021 36.2195 69.1786 34.7997 69.1766 33.3552V30.985C69.1794 29.8952 68.9661 28.8156 68.5491 27.8086C68.1321 26.8017 67.5196 25.8875 66.7471 25.1187Z" fill="#BDB7DE"/>
<path d="M58.5105 46.3915L57.4795 52.317H51.3999C51.0621 52.317 50.7284 52.2439 50.4215 52.1027C50.1147 51.9616 49.842 51.7557 49.6222 51.4993C50.0079 51.0747 50.2194 50.5204 50.2147 49.9468V47.5766C50.2142 46.7568 50.0903 45.9419 49.8474 45.159C50.4774 43.8526 51.4396 42.7347 52.6376 41.9173C53.8357 41.0999 55.2275 40.6117 56.6736 40.5015C56.9756 40.6821 57.2883 40.8444 57.6098 40.9874L58.5105 46.3915Z" fill="#EFEDF7"/>
<path d="M64.282 52.3172H57.4795L58.5105 46.3916H63.251L64.282 52.3172Z" fill="#FFCE1F"/>
<path d="M72.7319 48.7617V49.9468C72.73 50.5748 72.4797 51.1766 72.0356 51.6207C71.5915 52.0648 70.9897 52.3151 70.3616 52.317H64.282L63.251 46.3915L64.1517 40.9874C64.4732 40.8444 64.7859 40.6821 65.0879 40.5015C67.1693 40.6594 69.114 41.5986 70.5318 43.1307C71.9495 44.6628 72.7355 46.6743 72.7319 48.7617Z" fill="#EFEDF7"/>
<path d="M65.0878 40.5015C64.7858 40.6821 64.4732 40.8444 64.1516 40.9874L64.1267 41.1379C65.625 41.7711 66.9032 42.8321 67.8014 44.1882C68.6996 45.5442 69.1779 47.1351 69.1765 48.7617V49.9468C69.1746 50.5748 68.9243 51.1766 68.4802 51.6207C68.0361 52.0648 67.4343 52.3151 66.8062 52.317H70.3616C70.9896 52.3151 71.5914 52.0648 72.0355 51.6207C72.4796 51.1766 72.7299 50.5748 72.7318 49.9468V48.7617C72.7354 46.6743 71.9495 44.6628 70.5317 43.1307C69.1139 41.5986 67.1693 40.6594 65.0878 40.5015Z" fill="#BDB7DE"/>
<path d="M64.1517 40.9874L63.251 46.3915H58.5105L57.6099 40.9874C58.6447 41.4254 59.757 41.6511 60.8808 41.6511C62.0045 41.6511 63.1168 41.4254 64.1517 40.9874Z" fill="#FFCE1F"/>
<path d="M6.36572 52.317H9.92105C9.29301 52.3152 8.69122 52.0648 8.24712 51.6207C7.80303 51.1766 7.5527 50.5749 7.55083 49.9468V48.7617C7.54724 46.6743 8.33317 44.6628 9.75093 43.1307C11.1687 41.5987 13.1134 40.6594 15.1948 40.5015C13.9479 39.7719 12.9141 38.728 12.1967 37.4741C11.4792 36.2201 11.1032 34.7999 11.1062 33.3553V30.985C11.1065 29.094 11.753 27.2598 12.9384 25.7864C14.1239 24.313 15.7771 23.2889 17.6243 22.8836C16.4129 22.6179 15.1573 22.6271 13.9499 22.9107C12.7425 23.1942 11.6141 23.7449 10.6476 24.5222C9.68114 25.2994 8.90125 26.2835 8.36533 27.4019C7.8294 28.5204 7.55108 29.7448 7.55083 30.985V33.3553C7.5479 34.7999 7.92391 36.2201 8.64135 37.4741C9.35878 38.728 10.3925 39.7719 11.6395 40.5015C9.55804 40.6594 7.61336 41.5987 6.1956 43.1307C4.77784 44.6628 3.9919 46.6743 3.9955 48.7617V49.9468C3.99737 50.5749 4.24769 51.1766 4.69179 51.6207C5.13589 52.0648 5.73767 52.3152 6.36572 52.317Z" fill="white"/>
<path d="M9.64374 23.8212L11.1962 25.6119C10.1659 26.5039 9.41323 27.6729 9.02748 28.98C8.84331 29.6328 8.7453 30.3069 8.73594 30.9852V33.3554H6.36572V30.9852C6.37501 30.0815 6.50494 29.1832 6.75207 28.3139C7.26673 26.5707 8.27024 25.0116 9.64374 23.8212Z" fill="white"/>
<path d="M7.90638 29.8094C7.75075 29.8102 7.59649 29.7803 7.45241 29.7215C7.30833 29.6626 7.17725 29.576 7.06665 29.4665C6.95605 29.357 6.8681 29.2268 6.80783 29.0833C6.74755 28.9398 6.71613 28.7859 6.71535 28.6302C6.71457 28.4746 6.74445 28.3204 6.80329 28.1763C6.86213 28.0322 6.94877 27.9011 7.05827 27.7905C7.27941 27.5671 7.58022 27.4408 7.89453 27.4392H7.90638C8.22069 27.4392 8.52213 27.5641 8.74438 27.7863C8.96663 28.0086 9.09149 28.31 9.09149 28.6243C9.09149 28.9386 8.96663 29.2401 8.74438 29.4623C8.52213 29.6846 8.22069 29.8094 7.90638 29.8094Z" fill="#6254B8"/>
<path d="M67.7425 39.8853C69.427 38.1291 70.3657 35.7887 70.3616 33.3553V30.9851C70.3616 28.4706 69.3627 26.0591 67.5847 24.2811C65.8067 22.5031 63.3952 21.5042 60.8807 21.5042C58.3662 21.5042 55.9547 22.5031 54.1767 24.2811C52.3987 26.0591 51.3998 28.4706 51.3998 30.9851V33.3553C51.4 35.7902 52.3414 38.1308 54.0272 39.8876C52.4732 40.467 51.0976 41.4426 50.037 42.7177C48.9312 40.8758 47.2357 39.4614 45.2254 38.7037C46.9107 36.9466 47.8495 34.6048 47.8445 32.1702V29.8C47.8445 27.2855 46.8456 24.874 45.0676 23.096C43.2896 21.318 40.8781 20.3191 38.3636 20.3191C35.8491 20.3191 33.4376 21.318 31.6596 23.096C29.8816 24.874 28.8827 27.2855 28.8827 29.8V32.1702C28.8832 34.6033 29.8232 36.9422 31.5066 38.699C29.4934 39.4563 27.7959 40.8727 26.6903 42.7177C25.6303 41.4454 24.2565 40.472 22.7048 39.8936C24.3924 38.1358 25.3325 35.7921 25.3274 33.3553V30.9851C25.3274 28.4706 24.3285 26.0591 22.5505 24.2811C20.7725 22.5031 18.361 21.5042 15.8465 21.5042C13.5689 21.5129 11.3692 22.3345 9.64365 23.8211C9.51304 23.9225 9.4063 24.0514 9.33096 24.1986C9.25562 24.3458 9.21352 24.5077 9.20764 24.673C9.20176 24.8383 9.23225 25.0028 9.29694 25.155C9.36163 25.3072 9.45895 25.4433 9.58203 25.5537C9.80281 25.7487 10.0844 25.861 10.3787 25.8716C10.673 25.8822 10.9619 25.7904 11.1961 25.6118C12.4904 24.4981 14.1391 23.8821 15.8465 23.8744C17.7324 23.8744 19.541 24.6236 20.8745 25.9571C22.208 27.2906 22.9572 29.0992 22.9572 30.9851V33.3553C22.9572 35.2412 22.208 37.0498 20.8745 38.3833C19.541 39.7168 17.7324 40.466 15.8465 40.466C13.9607 40.466 12.152 39.7168 10.8185 38.3833C9.48501 37.0498 8.73586 35.2412 8.73586 33.3553C8.73586 33.041 8.611 32.7396 8.38875 32.5173C8.16649 32.2951 7.86506 32.1702 7.55075 32.1702C7.23643 32.1702 6.935 32.2951 6.71275 32.5173C6.49049 32.7396 6.36564 33.041 6.36564 33.3553C6.36614 35.7884 7.30612 38.1273 8.98947 39.8841C7.17987 40.5613 5.61938 41.7735 4.51557 43.3594C3.41176 44.9452 2.81696 46.8296 2.8103 48.7618L2.8103 49.9469C2.8103 50.8898 3.18488 51.7941 3.85164 52.4609C4.51839 53.1276 5.4227 53.5022 6.36564 53.5022H25.3274C25.9511 53.4962 26.5619 53.324 27.0968 53.0033C27.6367 53.3265 28.2535 53.4988 28.8827 53.5022H47.8445C48.4738 53.499 49.0906 53.3267 49.6305 53.0033C50.1654 53.324 50.7762 53.4962 51.3998 53.5022H70.3616C71.3046 53.5022 72.2089 53.1276 72.8756 52.4609C73.5424 51.7941 73.917 50.8898 73.917 49.9469V48.7618C73.9102 46.8304 73.316 44.9468 72.2131 43.3613C71.1102 41.7757 69.5509 40.5634 67.7425 39.8853ZM59.5072 47.5766H62.2543L62.8729 51.132H58.8886L59.5072 47.5766ZM62.2472 45.2064H59.5143L59.09 42.6608C59.6799 42.7764 60.2796 42.8352 60.8807 42.8362C61.4813 42.8352 62.0804 42.7781 62.6702 42.6655L62.2472 45.2064ZM53.7701 30.9851C53.7701 29.0992 54.5192 27.2906 55.8527 25.9571C57.1862 24.6236 58.9949 23.8744 60.8807 23.8744C62.7666 23.8744 64.5752 24.6236 65.9087 25.9571C67.2422 27.2906 67.9914 29.0992 67.9914 30.9851V33.3553C67.9914 35.2412 67.2422 37.0498 65.9087 38.3833C64.5752 39.7168 62.7666 40.466 60.8807 40.466C58.9949 40.466 57.1862 39.7168 55.8527 38.3833C54.5192 37.0498 53.7701 35.2412 53.7701 33.3553V30.9851ZM37.0185 46.3915H39.7087L40.3961 51.132H36.3312L37.0185 46.3915ZM39.7301 44.0213H36.9972L36.5729 41.4757C37.1628 41.5913 37.7625 41.6501 38.3636 41.6511C38.9641 41.6501 39.5633 41.593 40.1531 41.4804L39.7301 44.0213ZM31.253 29.8C31.253 27.9141 32.0021 26.1055 33.3356 24.772C34.6691 23.4385 36.4778 22.6893 38.3636 22.6893C40.2495 22.6893 42.0581 23.4385 43.3916 24.772C44.7251 26.1055 45.4743 27.9141 45.4743 29.8V32.1702C45.4743 34.0561 44.7251 35.8647 43.3916 37.1982C42.0581 38.5317 40.2495 39.2809 38.3636 39.2809C36.4778 39.2809 34.6691 38.5317 33.3356 37.1982C32.0021 35.8647 31.253 34.0561 31.253 32.1702V29.8ZM14.473 47.5766H17.2201L17.8387 51.132H13.8544L14.473 47.5766ZM17.636 42.6655L17.213 45.2064H14.4801L14.0558 42.6608C14.6457 42.7764 15.2454 42.8352 15.8465 42.8362C16.447 42.8352 17.0462 42.7781 17.636 42.6655ZM5.18052 49.9469V48.7618C5.18479 47.0331 5.81867 45.3651 6.96359 44.0699C8.10851 42.7747 9.68606 41.9409 11.4012 41.7246C11.4355 41.7423 11.4711 41.7566 11.5055 41.7743L12.2746 46.3915L11.4486 51.132H6.36564C6.05132 51.132 5.74989 51.0071 5.52764 50.7849C5.30538 50.5626 5.18052 50.2612 5.18052 49.9469ZM20.2445 51.132L19.4184 46.3915L20.1864 41.7897C20.2231 41.7708 20.2611 41.7566 20.2978 41.7364C21.4031 41.8752 22.4602 42.2724 23.3835 42.8959C24.3067 43.5193 25.0701 44.3515 25.6118 45.3249C25.4263 46.0612 25.3308 46.8173 25.3274 47.5766V49.9469C25.332 50.3356 25.4013 50.7209 25.5324 51.0869C25.4656 51.1083 25.397 51.1233 25.3274 51.132H20.2445ZM27.6976 49.9469V47.5766C27.7019 45.8479 28.3358 44.18 29.4807 42.8848C30.6256 41.5896 32.2032 40.7558 33.9183 40.5395C33.9526 40.5572 33.9882 40.5715 34.0226 40.5892L34.7941 45.2195L33.9372 51.132H28.8827C28.5684 51.132 28.267 51.0071 28.0447 50.7849C27.8225 50.5626 27.6976 50.2612 27.6976 49.9469ZM47.8445 51.132H42.79L41.9332 45.2195L42.7035 40.5975C42.7426 40.5762 42.7853 40.5608 42.822 40.5395C44.5348 40.7587 46.1092 41.5938 47.2515 42.8887C48.3937 44.1836 49.0258 45.8499 49.0296 47.5766V49.9469C49.0296 50.2612 48.9048 50.5626 48.6825 50.7849C48.4603 51.0071 48.1588 51.132 47.8445 51.132ZM51.1948 51.0869C51.326 50.7209 51.3953 50.3356 51.3998 49.9469V47.5766C51.3964 46.8173 51.3009 46.0612 51.1154 45.3249C51.6586 44.3482 52.4247 43.5136 53.3514 42.889C54.2782 42.2644 55.3393 41.8675 56.4484 41.7305C56.4792 41.7471 56.5124 41.7601 56.5432 41.7767L57.3088 46.3915L56.4828 51.132H51.3998C51.3303 51.1233 51.2616 51.1083 51.1948 51.0869ZM71.5467 49.9469C71.5467 50.2612 71.4219 50.5626 71.1996 50.7849C70.9774 51.0071 70.6759 51.132 70.3616 51.132H65.2787L64.4527 46.3915L65.2206 41.7897C65.2597 41.7684 65.3024 41.753 65.3391 41.7317C67.0507 41.9508 68.6241 42.7848 69.7662 44.0782C70.9083 45.3717 71.5411 47.0363 71.5467 48.7618V49.9469Z" fill="#6254B8"/>
</g>
<defs>
<clipPath id="clip0_202_339">
<rect width="72" height="38" fill="white" transform="translate(2.48022 19.9061)"/>
</clipPath>
</defs>
</svg>
