<svg width="76" height="76" viewBox="0 0 76 76" fill="none" xmlns="http://www.w3.org/2000/svg">
<ellipse cx="38.0002" cy="69" rx="29.4492" ry="3.04183" fill="#BCB7DE"/>
<ellipse cx="38.2068" cy="69" rx="25.4306" ry="0.808838" fill="#9087C8"/>
<path d="M59.3083 20.4341H16.693C13.623 20.4341 11.1345 23.2099 11.1345 26.634V36.9671C11.1345 40.3913 13.6232 43.167 16.693 43.167H33.3685V40.067C33.3127 38.9858 34.1405 38.0625 35.2214 38.0003H40.78C41.8608 38.0624 42.6886 38.9858 42.6328 40.067V43.167H59.3084C62.3784 43.167 64.8668 40.3912 64.8668 36.9671V26.634C64.8668 23.2099 62.3782 20.4341 59.3083 20.4341Z" fill="#DEDBEF"/>
<path d="M11.1343 36.9671V26.634C11.1343 23.2098 13.623 20.4341 16.6929 20.4341H14.2343C10.8101 20.4341 8.03442 23.2099 8.03442 26.634V36.9671C8.03442 40.3913 10.8103 43.167 14.2343 43.167H16.693C13.623 43.167 11.1343 40.3913 11.1343 36.9671Z" fill="#F9FAFB"/>
<path d="M61.7668 20.4341H59.3081C62.3781 20.4341 64.8667 23.2099 64.8667 26.634V36.9671C64.8667 40.3913 62.378 43.167 59.3081 43.167H61.7668C65.191 43.167 67.9667 40.3912 67.9667 36.9671V26.634C67.9667 23.2099 65.1908 20.4341 61.7668 20.4341Z" fill="#BDB7DE"/>
<path d="M62.8002 61.7668V41.5791C61.8391 42.5813 60.5147 43.1538 59.1261 43.1672H42.593V46.2672C42.6526 47.3439 41.8322 48.2669 40.7561 48.334H35.2451C34.1689 48.2669 33.3485 47.3439 33.4081 46.2672V43.1672H16.875C15.4866 43.1539 14.162 42.5814 13.2009 41.5791V61.7669H62.8002V61.7668Z" fill="#DEDBEF"/>
<path d="M10.1011 41.5791V61.7669H13.2011V43.0694C12.0474 42.8758 10.9725 42.3589 10.1011 41.5791Z" fill="#F9FAFB"/>
<path d="M62.8003 43.0694V61.7668H65.9003V41.5791C65.0285 42.3589 63.9538 42.8758 62.8003 43.0694Z" fill="#BDB7DE"/>
<path d="M18.7119 67.9666H57.2891C60.3328 67.9666 62.8001 65.1908 62.8001 61.7667H13.2009C13.2009 65.1908 15.6683 67.9666 18.7119 67.9666Z" fill="#7A6FBD"/>
<path d="M13.201 61.7667H10.101C10.101 65.1909 12.8768 67.9666 16.3008 67.9666H18.7119C15.6684 67.9666 13.201 65.1908 13.201 61.7667Z" fill="#F9FAFB"/>
<path d="M62.8007 61.7667C62.8007 65.1909 60.3332 67.9666 57.2897 67.9666H59.7008C63.1249 67.9666 65.9007 65.1908 65.9007 61.7667H62.8007Z" fill="#BDB7DE"/>
<path d="M34.9011 38.0005H41.1009C42.2424 38.0005 43.1676 38.9258 43.1676 40.0672V46.2671C43.1676 47.4085 42.2424 48.3338 41.1009 48.3338H34.9011C33.7596 48.3338 32.8344 47.4085 32.8344 46.2671V40.0672C32.8345 38.9256 33.7597 38.0005 34.9011 38.0005Z" fill="#BDB7DE"/>
<path d="M34.9006 38.0005H38.0006C39.142 38.0005 40.0673 38.9258 40.0673 40.0672V46.2671C40.0673 47.4085 39.142 48.3338 38.0006 48.3338H34.9006C33.7591 48.3338 32.8339 47.4085 32.8339 46.2671V40.0672C32.834 38.9256 33.7593 38.0005 34.9006 38.0005Z" fill="#FFCE1F"/>
<path d="M44.2004 16.3008C40.1761 14.9593 35.825 14.9593 31.8007 16.3008V8.0343C35.825 9.37578 40.1761 9.37578 44.2004 8.0343V16.3008Z" fill="#FFCE1F"/>
<path d="M25.6008 20.434H21.4675C21.4741 14.7299 26.0965 10.1074 31.8007 10.1008V14.2341C28.3781 14.2379 25.6046 17.0115 25.6008 20.434Z" fill="#FFCE1F"/>
<path d="M44.2006 14.2341V10.1008C49.9047 10.1074 54.5272 14.7298 54.5337 20.434H50.4006C50.3967 17.0115 47.6232 14.2379 44.2006 14.2341Z" fill="#FFCE1F"/>
<path d="M44.2009 17.3341C44.0898 17.3344 43.9795 17.3163 43.8744 17.2806C40.0603 16.0192 35.9416 16.0192 32.1276 17.2806C31.8126 17.3861 31.466 17.3334 31.1965 17.1392C30.9269 16.9449 30.7675 16.6329 30.7677 16.3007V8.03426C30.7677 7.7021 30.9273 7.39016 31.1965 7.19569C31.4654 7.00012 31.8126 6.94745 32.1275 7.05437C35.9416 8.31581 40.0603 8.31581 43.8744 7.05437C44.1894 6.9489 44.5359 7.00157 44.8055 7.19569C45.075 7.3898 45.2346 7.70198 45.2343 8.03414V16.3007C45.2345 16.5749 45.1258 16.8379 44.9319 17.0316C44.7379 17.2256 44.475 17.3344 44.2009 17.3341ZM38.001 14.2684C39.7437 14.2677 41.4795 14.4864 43.1676 14.9193V9.4157C39.7778 10.2836 36.2242 10.2836 32.8344 9.4157V14.9193C34.5223 14.4864 36.2582 14.2677 38.001 14.2684Z" fill="#6254B8"/>
<path d="M25.6013 21.4673H21.468C21.1939 21.4674 20.9311 21.3585 20.7372 21.1646C20.5433 20.9708 20.4346 20.708 20.4346 20.4338C20.4417 14.1593 25.5264 9.07441 31.8012 9.06726C32.0752 9.06714 32.3381 9.176 32.532 9.36987C32.7257 9.56362 32.8346 9.82652 32.8346 10.1007V14.2338C32.8347 14.5079 32.7258 14.7708 32.532 14.9646C32.3382 15.1584 32.0753 15.2673 31.8012 15.2673C28.949 15.2707 26.638 17.5818 26.6346 20.4338C26.6347 20.7079 26.5258 20.9708 26.332 21.1646C26.138 21.3586 25.8753 21.4674 25.6013 21.4673ZM22.5583 19.4006H24.6416C25.1047 16.2285 27.5959 13.7374 30.7679 13.2743V11.1915C26.4526 11.6803 23.0473 15.0855 22.5583 19.4006Z" fill="#6254B8"/>
<path d="M54.5342 21.4673H50.401C50.127 21.4674 49.8641 21.3585 49.6702 21.1646C49.4763 20.9708 49.3676 20.708 49.3676 20.4338C49.3642 17.5817 47.053 15.2707 44.201 15.2673C43.927 15.2674 43.6641 15.1585 43.4702 14.9646C43.2765 14.7709 43.1676 14.508 43.1676 14.2338V10.1008C43.1675 9.82676 43.2763 9.56387 43.4702 9.37C43.664 9.17625 43.9269 9.06738 44.201 9.06738C50.4756 9.07453 55.5605 14.1593 55.5676 20.434C55.5677 20.708 55.4589 20.9709 55.265 21.1648C55.0711 21.3585 54.8082 21.4674 54.5342 21.4673ZM51.3606 19.4006H53.4439C52.9548 15.0855 49.5496 11.6803 45.2343 11.1915V13.2743C48.4064 13.7375 50.8975 16.2287 51.3606 19.4006Z" fill="#6254B8"/>
<path d="M41.101 49.3669H34.9011C33.1898 49.3651 31.803 47.9782 31.8011 46.2669V40.067C31.803 38.3557 33.1898 36.9689 34.9011 36.967H41.101C42.8123 36.9689 44.1992 38.3557 44.201 40.067V46.2669C44.199 47.9782 42.8122 49.3651 41.101 49.3669ZM34.901 39.0337C34.3306 39.0344 33.8682 39.4966 33.8677 40.067V46.2669C33.8683 46.8374 34.3306 47.2997 34.901 47.3002H41.1009C41.6714 47.2996 42.1337 46.8374 42.1342 46.2669V40.067C42.1336 39.4966 41.6714 39.0342 41.1009 39.0337H34.901Z" fill="#6254B8"/>
<path d="M59.7008 69H16.3015C12.3087 68.9954 9.07296 65.7596 9.06836 61.7668C9.06824 61.4928 9.1771 61.2299 9.37097 61.036C9.56472 60.8423 9.82762 60.7334 10.1018 60.7334H65.9009C66.175 60.7333 66.4379 60.8421 66.6317 61.036C66.8255 61.2298 66.9343 61.4927 66.9343 61.7668C66.9294 65.7595 63.6938 68.9953 59.7008 69ZM11.2387 62.8001C11.7329 65.2039 13.8473 66.9301 16.3013 66.9333H59.7006C62.1547 66.9301 64.2689 65.2038 64.7631 62.8001H11.2387Z" fill="#6254B8"/>
<path d="M61.7673 44.2004H43.1676C42.8935 44.2005 42.6306 44.0917 42.4368 43.8978C42.2429 43.7039 42.1342 43.4411 42.1342 43.167V40.067C42.1335 39.4965 41.6713 39.0342 41.1009 39.0337H34.901C34.3305 39.0343 33.8682 39.4965 33.8677 40.067V43.167C33.8678 43.441 33.7589 43.7039 33.5651 43.8978C33.3712 44.0917 33.1084 44.2004 32.8343 44.2004H14.2346C10.2418 44.1958 7.00607 40.96 7.00146 36.9672V26.6341C7.00607 22.6412 10.2418 19.4055 14.2346 19.4009H61.7673C65.7602 19.4055 68.9959 22.6412 69.0005 26.6341V36.9672C68.9959 40.96 65.7602 44.1957 61.7673 44.2004ZM44.201 42.1337H61.7673C64.6194 42.1303 66.9305 39.8191 66.9339 36.9671V26.6339C66.9305 23.7818 64.6193 21.4707 61.7673 21.4673H14.2348C11.3826 21.4707 9.07156 23.7819 9.06817 26.6339V36.9671C9.07156 39.8192 11.3828 42.1303 14.2348 42.1337H31.8012V40.0671C31.803 38.3558 33.1899 36.9689 34.9012 36.9671H41.1011C42.8124 36.9689 44.1993 38.3558 44.2011 40.0671L44.201 42.1337Z" fill="#6254B8"/>
<path d="M65.9007 62.8001H10.1017C9.82762 62.8002 9.56472 62.6913 9.37085 62.4975C9.1771 62.3037 9.06824 62.0408 9.06824 61.7667V41.5786C9.06824 41.1708 9.30812 40.8011 9.68061 40.635C10.0531 40.4688 10.4884 40.5372 10.7919 40.8097C11.7368 41.661 12.9632 42.1325 14.2349 42.1336H32.8347C33.1087 42.1335 33.3716 42.2424 33.5655 42.4362C33.7593 42.63 33.8681 42.8929 33.8681 43.167V46.267C33.8687 46.8375 34.3309 47.2998 34.9014 47.3003H41.1013C41.6718 47.2997 42.1341 46.8375 42.1346 46.267V43.167C42.1345 42.893 42.2433 42.6301 42.4372 42.4362C42.6309 42.2425 42.8938 42.1336 43.168 42.1336H61.7677C63.0396 42.1325 64.2659 41.661 65.2108 40.8097C65.5143 40.5372 65.9496 40.4688 66.3221 40.635C66.6946 40.8011 66.9345 41.1708 66.9345 41.5786V61.7667C66.9346 62.0407 66.8257 62.3036 66.6318 62.4975C66.4376 62.6912 66.1747 62.8001 65.9007 62.8001ZM11.1348 60.7334H64.8673V43.4979C63.8992 43.9603 62.84 44.2003 61.7673 44.2002H44.201V46.2669C44.1992 47.9782 42.8123 49.3651 41.101 49.3669H34.9012C33.1899 49.3651 31.803 47.9782 31.8012 46.2669V44.2002H14.2348C13.1621 44.2003 12.1028 43.9603 11.1348 43.4979V60.7334Z" fill="#6254B8"/>
</svg>
