<svg width="135" height="135" viewBox="0 0 135 135" fill="none" xmlns="http://www.w3.org/2000/svg">
<g clip-path="url(#clip0_5005_9819)">
<ellipse cx="82.757" cy="117.615" rx="39.5636" ry="4.51303" fill="#E5E5E5"/>
<ellipse cx="80.4798" cy="117.346" rx="14.7669" ry="1.94172" fill="#CCCCCC"/>
<path d="M56.8869 83.5594C56.886 88.0756 57.9594 92.5272 60.0186 96.5467C62.0777 100.566 65.0636 104.038 68.7295 106.676H15.9891C15.5175 106.676 15.0652 106.488 14.7318 106.155C14.3983 105.821 14.2109 105.369 14.2109 104.897V28.4363L28.4363 14.2109H83.5594C84.031 14.2109 84.4833 14.3983 84.8168 14.7318C85.1502 15.0652 85.3376 15.5175 85.3376 15.9891V55.1088C77.792 55.1088 70.5555 58.1062 65.2199 63.4418C59.8844 68.7773 56.8869 76.0138 56.8869 83.5594Z" fill="white"/>
<path d="M85.3379 55.1088V15.9891C85.3379 15.5175 85.1505 15.0652 84.8171 14.7318C84.4836 14.3983 84.0313 14.2109 83.5597 14.2109H78.2252C78.6968 14.2109 79.1491 14.3983 79.4826 14.7318C79.816 15.0652 80.0034 15.5175 80.0034 15.9891V55.1088C73.9822 55.111 68.1169 57.0228 63.2509 60.5691C58.3849 64.1155 54.769 69.1137 52.9231 74.8449C51.0773 80.5762 51.0966 86.7452 52.9783 92.4648C54.86 98.1843 58.5072 103.16 63.3953 106.676H68.7298C63.8417 103.16 60.1945 98.1843 58.3128 92.4648C56.4311 86.7452 56.4118 80.5762 58.2576 74.8449C60.1035 69.1137 63.7194 64.1155 68.5854 60.5691C73.4514 57.0228 79.3167 55.111 85.3379 55.1088Z" fill="white"/>
<path d="M28.4363 14.2109V26.6581C28.4363 27.1297 28.2489 27.582 27.9155 27.9155C27.582 28.2489 27.1297 28.4363 26.6581 28.4363H14.2109L28.4363 14.2109Z" fill="white"/>
<path d="M113.788 83.5589C113.788 89.186 112.119 94.6866 108.993 99.3653C105.867 104.044 101.424 107.691 96.225 109.844C91.0263 111.997 85.3058 112.561 79.7869 111.463C74.2681 110.365 69.1986 107.655 65.2197 103.677C61.2408 99.6977 58.5312 94.6283 57.4334 89.1094C56.3356 83.5905 56.899 77.87 59.0524 72.6714C61.2058 67.4727 64.8524 63.0293 69.5311 59.9031C74.2097 56.7769 79.7104 55.1083 85.3374 55.1083C89.0818 55.0789 92.7946 55.7948 96.2596 57.2142C99.7247 58.6335 102.873 60.7281 105.52 63.3758C108.168 66.0236 110.263 69.1717 111.682 72.6367C113.102 76.1018 113.817 79.8146 113.788 83.5589Z" fill="white"/>
<path d="M85.3375 55.1094C84.4378 55.1094 83.5487 55.1627 82.6703 55.2445C89.7297 55.8972 96.2907 59.1635 101.067 64.4029C105.843 69.6424 108.489 76.4769 108.487 83.5664C108.485 90.656 105.835 97.489 101.056 102.726C96.2769 107.962 89.7141 111.225 82.6543 111.874C83.5434 111.956 84.4325 112.011 85.3375 112.011C92.8831 112.011 100.12 109.013 105.455 103.678C110.791 98.3422 113.788 91.1056 113.788 83.56C113.788 76.0145 110.791 68.7779 105.455 63.4424C100.12 58.1068 92.8831 55.1094 85.3375 55.1094Z" fill="white"/>
<path d="M85.338 104.897C97.1226 104.897 106.676 95.3433 106.676 83.5587C106.676 71.774 97.1226 62.2207 85.338 62.2207C73.5533 62.2207 64 71.774 64 83.5587C64 95.3433 73.5533 104.897 85.338 104.897Z" fill="white"/>
<path d="M85.3372 62.2215C84.4452 62.2249 83.5544 62.2843 82.6699 62.3993C87.8246 63.0451 92.5662 65.551 96.0037 69.446C99.4412 73.3411 101.338 78.3573 101.338 83.5524C101.338 88.7474 99.4412 93.7636 96.0037 97.6587C92.5662 101.554 87.8246 104.06 82.6699 104.705C85.5739 105.097 88.5273 104.886 91.3462 104.086C94.165 103.286 96.7889 101.914 99.0543 100.055C101.32 98.197 103.178 95.8918 104.513 93.2836C105.849 90.6754 106.633 87.8202 106.816 84.8957C107 81.9713 106.579 79.0404 105.581 76.2856C104.582 73.5309 103.026 71.0114 101.011 68.8842C98.9962 66.7569 96.5645 65.0675 93.8678 63.9212C91.1711 62.7749 88.2673 62.1963 85.3372 62.2215Z" fill="white"/>
<path d="M115.833 115.833C115.331 116.333 114.732 116.726 114.072 116.985C113.412 117.245 112.706 117.366 111.997 117.341C111.288 117.316 110.592 117.145 109.952 116.84C109.312 116.535 108.742 116.101 108.276 115.566L101.039 107.297C103.522 105.649 105.73 103.621 107.583 101.287L115.567 108.275C116.102 108.741 116.535 109.311 116.84 109.951C117.145 110.591 117.316 111.287 117.341 111.996C117.366 112.705 117.245 113.411 116.986 114.071C116.726 114.731 116.334 115.33 115.833 115.833Z" fill="white"/>
<path d="M115.566 108.275L107.582 101.287C106.846 102.201 106.056 103.068 105.215 103.885L110.231 108.275C110.766 108.741 111.199 109.311 111.505 109.951C111.81 110.591 111.98 111.287 112.005 111.996C112.03 112.705 111.909 113.411 111.65 114.071C111.391 114.731 110.999 115.33 110.498 115.833C110.202 116.117 109.875 116.367 109.522 116.576C110.318 117.069 111.233 117.334 112.169 117.344C113.223 117.347 114.253 117.027 115.12 116.427C115.987 115.828 116.65 114.977 117.019 113.99C117.389 113.003 117.448 111.926 117.188 110.905C116.928 109.883 116.362 108.966 115.566 108.275Z" fill="white"/>
<path d="M15.9891 106.677H21.3236C20.852 106.677 20.3997 106.489 20.0662 106.156C19.7328 105.823 19.5454 105.37 19.5454 104.899V28.4375H14.2109V104.899C14.2109 105.37 14.3983 105.823 14.7318 106.156C15.0652 106.489 15.5175 106.677 15.9891 106.677Z" fill="white"/>
<path d="M12.4336 90.6738H15.9899V104.899H12.4336V90.6738Z" fill="white"/>
<path d="M14.2118 99.5641C15.1938 99.5641 15.9899 98.768 15.9899 97.786C15.9899 96.8039 15.1938 96.0078 14.2118 96.0078C13.2297 96.0078 12.4336 96.8039 12.4336 97.786C12.4336 98.768 13.2297 99.5641 14.2118 99.5641Z" fill="url(#paint0_linear_5005_9819)"/>
<path d="M15.9899 108.455H68.2289C72.9605 111.728 78.5329 113.574 84.2831 113.771C90.0333 113.969 95.7192 112.51 100.664 109.569L106.941 116.741C107.568 117.457 108.334 118.037 109.194 118.444C110.054 118.852 110.988 119.078 111.938 119.11C112.889 119.142 113.836 118.978 114.721 118.628C115.606 118.279 116.409 117.751 117.082 117.078C117.754 116.405 118.282 115.602 118.631 114.717C118.98 113.832 119.143 112.884 119.111 111.934C119.079 110.983 118.852 110.049 118.444 109.189C118.036 108.33 117.455 107.564 116.739 106.938L109.982 101.016C113.111 96.6243 115.005 91.4732 115.466 86.1002C115.926 80.7271 114.938 75.3288 112.602 70.4679C110.267 65.6069 106.671 61.4614 102.188 58.4633C97.7056 55.4652 92.5009 53.7243 87.1166 53.4221V15.9899C87.1166 15.0467 86.7419 14.1422 86.075 13.4752C85.408 12.8083 84.5034 12.4336 83.5602 12.4336H28.4371C27.9655 12.4337 27.5133 12.6211 27.1799 12.9546L12.9546 27.1799C12.6211 27.5133 12.4337 27.9655 12.4336 28.4371V90.6729C12.4336 91.1445 12.6209 91.5968 12.9544 91.9303C13.2879 92.2637 13.7402 92.4511 14.2118 92.4511C14.6834 92.4511 15.1356 92.2637 15.4691 91.9303C15.8026 91.5968 15.9899 91.1445 15.9899 90.6729V30.2153H26.6589C27.1259 30.2153 27.5884 30.1233 28.0199 29.9445C28.4513 29.7658 28.8434 29.5039 29.1736 29.1736C29.5039 28.8434 29.7658 28.4513 29.9445 28.0199C30.1233 27.5884 30.2153 27.1259 30.2153 26.6589V15.9899H83.5602V53.4221C77.7479 53.7566 72.1563 55.7649 67.4593 59.2049C62.7623 62.6449 59.1604 67.3699 57.0877 72.8104C55.015 78.2509 54.5599 84.1748 55.7772 89.8681C56.9946 95.5614 59.8325 100.781 63.9488 104.898H15.9899C15.9899 104.427 15.8026 103.974 15.4691 103.641C15.1356 103.307 14.6834 103.12 14.2118 103.12C13.7402 103.12 13.2879 103.307 12.9544 103.641C12.6209 103.974 12.4336 104.427 12.4336 104.898C12.4336 105.841 12.8083 106.746 13.4752 107.413C14.1422 108.08 15.0467 108.455 15.9899 108.455ZM18.5043 26.6589L26.6589 18.5043V26.6589H18.5043ZM114.404 109.621C114.756 109.922 115.04 110.293 115.241 110.711C115.441 111.128 115.552 111.582 115.567 112.045C115.587 112.51 115.51 112.973 115.342 113.407C115.174 113.841 114.919 114.236 114.591 114.566C114.256 114.887 113.859 115.138 113.425 115.303C112.991 115.469 112.528 115.545 112.064 115.529C111.6 115.512 111.144 115.403 110.723 115.207C110.301 115.011 109.924 114.733 109.612 114.388L103.638 107.565C105.119 106.434 106.493 105.169 107.743 103.787L114.404 109.621ZM85.3384 56.8877C90.6137 56.8877 95.7706 58.4521 100.157 61.3829C104.543 64.3137 107.962 68.4794 109.981 73.3531C111.999 78.2269 112.528 83.5898 111.498 88.7638C110.469 93.9377 107.929 98.6903 104.199 102.421C100.468 106.151 95.7159 108.691 90.5419 109.72C85.368 110.749 80.0051 110.221 75.1313 108.202C70.2575 106.184 66.0919 102.765 63.161 98.3787C60.2302 93.9924 58.6659 88.8356 58.6659 83.5602C58.6739 76.4887 61.4866 69.7091 66.4869 64.7088C71.4873 59.7084 78.2669 56.8957 85.3384 56.8877Z" fill="url(#paint1_linear_5005_9819)"/>
<path d="M21.3242 60.4442C21.3242 60.9158 21.5116 61.3681 21.845 61.7015C22.1785 62.035 22.6308 62.2224 23.1024 62.2224H26.6587C27.1303 62.2224 27.5826 62.035 27.9161 61.7015C28.2495 61.3681 28.4369 60.9158 28.4369 60.4442C28.4369 59.9726 28.2495 59.5203 27.9161 59.1868C27.5826 58.8534 27.1303 58.666 26.6587 58.666H23.1024C22.6308 58.666 22.1785 58.8534 21.845 59.1868C21.5116 59.5203 21.3242 59.9726 21.3242 60.4442Z" fill="url(#paint2_linear_5005_9819)"/>
<path d="M21.3242 50.3485C21.3242 50.8201 21.5116 51.2724 21.845 51.6058C22.1785 51.9393 22.6308 52.1266 23.1024 52.1266H26.6587C27.1303 52.1266 27.5826 51.9393 27.9161 51.6058C28.2495 51.2724 28.4369 50.8201 28.4369 50.3485C28.4369 49.8769 28.2495 49.4246 27.9161 49.0911C27.5826 48.7577 27.1303 48.5703 26.6587 48.5703H23.1024C22.6308 48.5703 22.1785 48.7577 21.845 49.0911C21.5116 49.4246 21.3242 49.8769 21.3242 50.3485Z" fill="url(#paint3_linear_5005_9819)"/>
<path d="M21.3242 40.0243C21.3242 40.4959 21.5116 40.9481 21.845 41.2816C22.1785 41.6151 22.6308 41.8024 23.1024 41.8024H26.6587C27.1303 41.8024 27.5826 41.6151 27.9161 41.2816C28.2495 40.9481 28.4369 40.4959 28.4369 40.0243C28.4369 39.5527 28.2495 39.1004 27.9161 38.7669C27.5826 38.4334 27.1303 38.2461 26.6587 38.2461H23.1024C22.6308 38.2461 22.1785 38.4334 21.845 38.7669C21.5116 39.1004 21.3242 39.5527 21.3242 40.0243Z" fill="url(#paint4_linear_5005_9819)"/>
<path d="M31.9941 60.4442C31.9941 60.9158 32.1815 61.3681 32.515 61.7015C32.8484 62.035 33.3007 62.2224 33.7723 62.2224H58.6666C59.1382 62.2224 59.5905 62.035 59.924 61.7015C60.2575 61.3681 60.4448 60.9158 60.4448 60.4442C60.4448 59.9726 60.2575 59.5203 59.924 59.1868C59.5905 58.8534 59.1382 58.666 58.6666 58.666H33.7723C33.3007 58.666 32.8484 58.8534 32.515 59.1868C32.1815 59.5203 31.9941 59.9726 31.9941 60.4442Z" fill="url(#paint5_linear_5005_9819)"/>
<path d="M31.3633 50.2911C31.3633 50.7475 31.6126 51.1852 32.0563 51.5079C32.5 51.8306 33.1019 52.0119 33.7294 52.0119H66.8549C67.4824 52.0119 68.0843 51.8306 68.528 51.5079C68.9717 51.1852 69.221 50.7475 69.221 50.2911C69.221 49.8347 68.9717 49.397 68.528 49.0743C68.0843 48.7516 67.4824 48.5703 66.8549 48.5703H33.7294C33.1019 48.5703 32.5 48.7516 32.0563 49.0743C31.6126 49.397 31.3633 49.8347 31.3633 50.2911Z" fill="url(#paint6_linear_5005_9819)"/>
<path d="M31.3633 39.9669C31.3633 40.4233 31.6579 40.861 32.1823 41.1837C32.7067 41.5064 33.418 41.6877 34.1596 41.6877H73.3079C74.0495 41.6877 74.7608 41.5064 75.2852 41.1837C75.8096 40.861 76.1042 40.4233 76.1042 39.9669C76.1042 39.5105 75.8096 39.0728 75.2852 38.7501C74.7608 38.4274 74.0495 38.2461 73.3079 38.2461H34.1596C33.418 38.2461 32.7067 38.4274 32.1823 38.7501C31.6579 39.0728 31.3633 39.5105 31.3633 39.9669Z" fill="url(#paint7_linear_5005_9819)"/>
<path d="M23.1024 72.8903H26.6587C27.1303 72.8903 27.5826 72.703 27.9161 72.3695C28.2495 72.036 28.4369 71.5837 28.4369 71.1122C28.4369 70.6406 28.2495 70.1883 27.9161 69.8548C27.5826 69.5213 27.1303 69.334 26.6587 69.334H23.1024C22.6308 69.334 22.1785 69.5213 21.845 69.8548C21.5116 70.1883 21.3242 70.6406 21.3242 71.1122C21.3242 71.5837 21.5116 72.036 21.845 72.3695C22.1785 72.703 22.6308 72.8903 23.1024 72.8903Z" fill="url(#paint8_linear_5005_9819)"/>
<path d="M51.554 69.334H33.7723C33.3007 69.334 32.8484 69.5213 32.515 69.8548C32.1815 70.1883 31.9941 70.6406 31.9941 71.1122C31.9941 71.5837 32.1815 72.036 32.515 72.3695C32.8484 72.703 33.3007 72.8903 33.7723 72.8903H51.554C52.0256 72.8903 52.4779 72.703 52.8113 72.3695C53.1448 72.036 53.3321 71.5837 53.3321 71.1122C53.3321 70.6406 53.1448 70.1883 52.8113 69.8548C52.4779 69.5213 52.0256 69.334 51.554 69.334Z" fill="url(#paint9_linear_5005_9819)"/>
<path d="M23.1024 83.5602H26.6587C27.1303 83.5602 27.5826 83.3729 27.9161 83.0394C28.2495 82.706 28.4369 82.2537 28.4369 81.7821C28.4369 81.3105 28.2495 80.8582 27.9161 80.5247C27.5826 80.1912 27.1303 80.0039 26.6587 80.0039H23.1024C22.6308 80.0039 22.1785 80.1912 21.845 80.5247C21.5116 80.8582 21.3242 81.3105 21.3242 81.7821C21.3242 82.2537 21.5116 82.706 21.845 83.0394C22.1785 83.3729 22.6308 83.5602 23.1024 83.5602Z" fill="url(#paint10_linear_5005_9819)"/>
<path d="M33.7723 83.5602H49.7758C50.2474 83.5602 50.6997 83.3729 51.0332 83.0394C51.3666 82.706 51.554 82.2537 51.554 81.7821C51.554 81.3105 51.3666 80.8582 51.0332 80.5247C50.6997 80.1912 50.2474 80.0039 49.7758 80.0039H33.7723C33.3007 80.0039 32.8484 80.1912 32.515 80.5247C32.1815 80.8582 31.9941 81.3105 31.9941 81.7821C31.9941 82.2537 32.1815 82.706 32.515 83.0394C32.8484 83.3729 33.3007 83.5602 33.7723 83.5602Z" fill="url(#paint11_linear_5005_9819)"/>
<path d="M23.1024 94.2302H26.6587C27.1303 94.2302 27.5826 94.0428 27.9161 93.7093C28.2495 93.3759 28.4369 92.9236 28.4369 92.452C28.4369 91.9804 28.2495 91.5281 27.9161 91.1946C27.5826 90.8612 27.1303 90.6738 26.6587 90.6738H23.1024C22.6308 90.6738 22.1785 90.8612 21.845 91.1946C21.5116 91.5281 21.3242 91.9804 21.3242 92.452C21.3242 92.9236 21.5116 93.3759 21.845 93.7093C22.1785 94.0428 22.6308 94.2302 23.1024 94.2302Z" fill="url(#paint12_linear_5005_9819)"/>
<path d="M33.7723 94.2302H51.554C52.0256 94.2302 52.4779 94.0428 52.8113 93.7093C53.1448 93.3759 53.3321 92.9236 53.3321 92.452C53.3321 91.9804 53.1448 91.5281 52.8113 91.1946C52.4779 90.8612 52.0256 90.6738 51.554 90.6738H33.7723C33.3007 90.6738 32.8484 90.8612 32.515 91.1946C32.1815 91.5281 31.9941 91.9804 31.9941 92.452C31.9941 92.9236 32.1815 93.3759 32.515 93.7093C32.8484 94.0428 33.3007 94.2302 33.7723 94.2302Z" fill="url(#paint13_linear_5005_9819)"/>
<path d="M85.3388 106.676C89.9108 106.676 94.38 105.32 98.1815 102.78C101.983 100.24 104.946 96.6296 106.695 92.4057C108.445 88.1818 108.903 83.5339 108.011 79.0498C107.119 74.5657 104.917 70.4468 101.684 67.2139C98.4516 63.9811 94.3327 61.7795 89.8486 60.8875C85.3645 59.9956 80.7166 60.4534 76.4926 62.203C72.2687 63.9526 68.6585 66.9154 66.1184 70.7169C63.5784 74.5183 62.2227 78.9876 62.2227 83.5595C62.2297 89.6882 64.6674 95.5637 69.001 99.8973C73.3346 104.231 79.2102 106.669 85.3388 106.676ZM85.3388 63.9997C89.2074 63.9997 92.9891 65.1469 96.2057 67.2961C99.4223 69.4454 101.929 72.5002 103.41 76.0743C104.89 79.6484 105.278 83.5812 104.523 87.3755C103.768 91.1697 101.905 94.6549 99.1697 97.3904C96.4342 100.126 92.949 101.989 89.1547 102.744C85.3605 103.498 81.4277 103.111 77.8536 101.63C74.2795 100.15 71.2247 97.643 69.0754 94.4264C66.9262 91.2098 65.779 87.4281 65.779 83.5595C65.7851 78.3738 67.8478 73.4023 71.5147 69.7354C75.1815 66.0685 80.1531 64.0058 85.3388 63.9997Z" fill="url(#paint14_linear_5005_9819)"/>
</g>
<defs>
<linearGradient id="paint0_linear_5005_9819" x1="12.4336" y1="99.5641" x2="15.9899" y2="96.0078" gradientUnits="userSpaceOnUse">
<stop stop-color="#A03291"/>
<stop offset="1" stop-color="#FF7C66"/>
</linearGradient>
<linearGradient id="paint1_linear_5005_9819" x1="12.4336" y1="119.114" x2="119.114" y2="12.4325" gradientUnits="userSpaceOnUse">
<stop stop-color="#A03291"/>
<stop offset="1" stop-color="#FF7C66"/>
</linearGradient>
<linearGradient id="paint2_linear_5005_9819" x1="21.3242" y1="62.2224" x2="24.1693" y2="56.5322" gradientUnits="userSpaceOnUse">
<stop stop-color="#A03291"/>
<stop offset="1" stop-color="#FF7C66"/>
</linearGradient>
<linearGradient id="paint3_linear_5005_9819" x1="21.3242" y1="52.1266" x2="24.1693" y2="46.4365" gradientUnits="userSpaceOnUse">
<stop stop-color="#A03291"/>
<stop offset="1" stop-color="#FF7C66"/>
</linearGradient>
<linearGradient id="paint4_linear_5005_9819" x1="21.3242" y1="41.8024" x2="24.1693" y2="36.1123" gradientUnits="userSpaceOnUse">
<stop stop-color="#A03291"/>
<stop offset="1" stop-color="#FF7C66"/>
</linearGradient>
<linearGradient id="paint5_linear_5005_9819" x1="31.9941" y1="62.2224" x2="32.8695" y2="55.2191" gradientUnits="userSpaceOnUse">
<stop stop-color="#A03291"/>
<stop offset="1" stop-color="#FF7C66"/>
</linearGradient>
<linearGradient id="paint6_linear_5005_9819" x1="31.3633" y1="52.0119" x2="31.9839" y2="45.1851" gradientUnits="userSpaceOnUse">
<stop stop-color="#A03291"/>
<stop offset="1" stop-color="#FF7C66"/>
</linearGradient>
<linearGradient id="paint7_linear_5005_9819" x1="31.3633" y1="41.6877" x2="31.8896" y2="34.845" gradientUnits="userSpaceOnUse">
<stop stop-color="#A03291"/>
<stop offset="1" stop-color="#FF7C66"/>
</linearGradient>
<linearGradient id="paint8_linear_5005_9819" x1="21.3242" y1="72.8903" x2="24.1693" y2="67.2002" gradientUnits="userSpaceOnUse">
<stop stop-color="#A03291"/>
<stop offset="1" stop-color="#FF7C66"/>
</linearGradient>
<linearGradient id="paint9_linear_5005_9819" x1="31.9941" y1="72.8903" x2="33.1475" y2="65.9699" gradientUnits="userSpaceOnUse">
<stop stop-color="#A03291"/>
<stop offset="1" stop-color="#FF7C66"/>
</linearGradient>
<linearGradient id="paint10_linear_5005_9819" x1="21.3242" y1="83.5602" x2="24.1693" y2="77.8701" gradientUnits="userSpaceOnUse">
<stop stop-color="#A03291"/>
<stop offset="1" stop-color="#FF7C66"/>
</linearGradient>
<linearGradient id="paint11_linear_5005_9819" x1="31.9941" y1="83.5602" x2="33.246" y2="76.6752" gradientUnits="userSpaceOnUse">
<stop stop-color="#A03291"/>
<stop offset="1" stop-color="#FF7C66"/>
</linearGradient>
<linearGradient id="paint12_linear_5005_9819" x1="21.3242" y1="94.2302" x2="24.1693" y2="88.54" gradientUnits="userSpaceOnUse">
<stop stop-color="#A03291"/>
<stop offset="1" stop-color="#FF7C66"/>
</linearGradient>
<linearGradient id="paint13_linear_5005_9819" x1="31.9941" y1="94.2302" x2="33.1475" y2="87.3097" gradientUnits="userSpaceOnUse">
<stop stop-color="#A03291"/>
<stop offset="1" stop-color="#FF7C66"/>
</linearGradient>
<linearGradient id="paint14_linear_5005_9819" x1="62.2227" y1="106.676" x2="108.455" y2="60.4434" gradientUnits="userSpaceOnUse">
<stop stop-color="#A03291"/>
<stop offset="1" stop-color="#FF7C66"/>
</linearGradient>
<clipPath id="clip0_5005_9819">
<rect width="110.132" height="110.132" fill="white" transform="translate(12.4336 12.4336)"/>
</clipPath>
</defs>
</svg>
