<svg width="76" height="77" viewBox="0 0 76 77" fill="none" xmlns="http://www.w3.org/2000/svg">
<g clip-path="url(#clip0_73_499)">
<path d="M67.7294 53.8237V65.8711C67.7286 66.1371 67.6199 66.392 67.4271 66.5801C67.2342 66.7682 66.9729 66.8742 66.7001 66.875H9.05861C8.78586 66.8742 8.52451 66.7682 8.33165 66.5801C8.13878 66.392 8.03008 66.1371 8.0293 65.8711V47.8001H10.5511C11.3212 47.8005 12.0759 47.5899 12.7292 47.1923C13.3826 46.7947 13.9082 46.2261 14.2463 45.5512C17.4372 39.2264 27.473 21.6975 40.9673 21.6975C50.2311 21.6975 51.2604 25.7133 51.2604 27.7212C51.2604 29.7291 49.2018 32.7409 46.1139 32.7409C45.6339 33.3638 45.0122 33.8693 44.2977 34.2178C43.5832 34.5662 42.7955 34.748 41.9966 34.7488C41.9073 34.7505 41.8179 34.7471 41.729 34.7387C37.8794 36.7567 34.7914 39.5376 34.7914 43.7843C34.7614 44.7151 34.9273 45.642 35.2788 46.5079C35.6302 47.3737 36.1599 48.1602 36.835 48.8187C37.5102 49.4772 38.3165 49.9938 39.2042 50.3366C40.0919 50.6794 41.0423 50.8412 41.9966 50.8119C49.7267 50.8119 48.5019 37.4092 60.1331 40.8929C60.3249 40.951 60.4949 41.063 60.6219 41.2148C60.7488 41.3667 60.8271 41.5516 60.8469 41.7466C60.8666 41.9416 60.827 42.1379 60.733 42.311C60.639 42.4842 60.4948 42.6265 60.3184 42.7201C58.198 43.8445 55.3777 46.0331 55.3777 49.8079C55.3777 57.8395 67.7294 53.8237 67.7294 53.8237Z" fill="#EFEDF7"/>
<path d="M12.1465 66.5H9.05861C8.78586 66.4993 8.52451 66.399 8.33165 66.221C8.13878 66.0431 8.03008 65.802 8.0293 65.5503V48.4564H10.5511C10.7406 48.4583 10.93 48.4456 11.1172 48.4185V65.5503C11.118 65.802 11.2267 66.0431 11.4196 66.221C11.6124 66.399 11.8738 66.4993 12.1465 66.5Z" fill="#F9FAFB"/>
<path d="M42.7274 21.7593C29.9022 22.8709 20.4222 39.8855 17.3343 46.154C16.9962 46.8459 16.4705 47.4289 15.8172 47.8365C15.1639 48.2442 14.4091 48.4601 13.6391 48.4596H11.1172V48.4185C11.7839 48.3248 12.4176 48.0695 12.963 47.6748C13.5084 47.2801 13.949 46.758 14.2464 46.154C17.4372 39.6693 27.473 21.6975 40.9673 21.6975C41.5849 21.6975 42.1716 21.7181 42.7274 21.7593Z" fill="#F9FAFB"/>
<path d="M57.0452 41.3779C57.237 41.4375 57.4071 41.5523 57.534 41.7079C57.661 41.8636 57.7392 42.0533 57.759 42.2531C57.7787 42.453 57.7392 42.6543 57.6452 42.8318C57.5512 43.0094 57.4069 43.1552 57.2305 43.2512C55.1101 44.4041 52.2898 46.648 52.2898 50.5182C52.2898 55.3742 56.5846 55.9338 60.1094 55.5763C57.5717 55.2604 55.3777 53.9876 55.3777 50.5182C55.3777 46.648 58.198 44.4041 60.3184 43.2512C60.4949 43.1552 60.6391 43.0094 60.7331 42.8318C60.8271 42.6543 60.8667 42.453 60.8469 42.2531C60.8271 42.0533 60.7489 41.8636 60.6219 41.7079C60.495 41.5523 60.325 41.4375 60.1332 41.3779C58.5301 40.819 56.8139 40.6645 55.1369 40.928C55.7826 41.034 56.4202 41.1843 57.0452 41.3779Z" fill="#BDB7DE"/>
<path d="M48.1725 27.8734C48.085 29.1042 47.5937 30.2717 46.7748 31.1948C45.9559 32.1178 44.8552 32.7447 43.6436 32.9782C43.2397 33.0408 42.8679 33.2353 42.5861 33.5313C42.1069 34.0209 41.5348 34.4099 40.9034 34.6756C40.2719 34.9413 39.5938 35.0783 38.9087 35.0786C38.8194 35.0803 38.73 35.0768 38.6411 35.0683C34.7915 37.1372 31.7035 39.9884 31.7035 44.3424C31.6735 45.2967 31.8394 46.2471 32.1909 47.1348C32.5423 48.0225 33.072 48.8288 33.7471 49.504C34.4223 50.1791 35.2286 50.7088 36.1163 51.0603C37.004 51.4117 37.9544 51.5776 38.9087 51.5476C39.4012 51.5485 39.8917 51.4857 40.3681 51.361C38.7491 51.0589 37.2936 50.1826 36.269 48.8931C35.2445 47.6037 34.7198 45.9877 34.7915 44.3424C34.7915 39.9884 37.8794 37.1372 41.729 35.0683C41.818 35.0768 41.9073 35.0803 41.9967 35.0786C42.7955 35.0778 43.5832 34.8914 44.2977 34.5342C45.0122 34.1769 45.634 33.6585 46.1139 33.0199C49.2018 33.0199 51.2605 29.932 51.2605 27.8734C51.2605 25.8148 50.2312 21.6975 40.9673 21.6975C40.5258 21.6975 40.0883 21.719 39.6541 21.7565C47.2714 22.2533 48.1725 25.9552 48.1725 27.8734Z" fill="#BDB7DE"/>
<path d="M64.6415 55.2931V65.5873C64.6407 65.8292 64.532 66.0609 64.3391 66.2319C64.1463 66.4029 63.8849 66.4993 63.6122 66.5H66.7001C66.9729 66.4993 67.2342 66.4029 67.4271 66.2319C67.6199 66.0609 67.7286 65.8292 67.7294 65.5873V54.6355C66.718 54.9161 65.6863 55.1358 64.6415 55.2931Z" fill="#BDB7DE"/>
<path d="M17.3897 38.4229L19.1316 39.5199C17.689 41.813 16.3669 44.1798 15.1709 46.6107L13.323 45.7035C14.5509 43.2075 15.9084 40.7773 17.3897 38.4229Z" fill="#F9FAFB"/>
<path d="M15.2612 42.0103C15.1943 42.1287 15.1517 42.2592 15.1359 42.3942C15.12 42.5291 15.1311 42.666 15.1687 42.7966C15.2062 42.9273 15.2693 43.0491 15.3544 43.1551C15.4395 43.2611 15.5449 43.3491 15.6643 43.414C15.8425 43.5119 16.0457 43.5548 16.2482 43.5374C16.4508 43.52 16.6436 43.4429 16.8025 43.3161C16.9613 43.1892 17.079 43.0181 17.1407 42.8244C17.2025 42.6307 17.2054 42.4231 17.1493 42.2277C17.0932 42.0323 16.9805 41.8579 16.8254 41.7265C16.6703 41.5951 16.4797 41.5126 16.2777 41.4893C16.0758 41.466 15.8715 41.5031 15.6906 41.5958C15.5096 41.6886 15.3602 41.8328 15.2612 42.0103Z" fill="#6254B8"/>
<path d="M8.02931 49.4889H10.5518C11.5147 49.4929 12.4592 49.2248 13.2764 48.7156C14.0936 48.2064 14.7504 47.4767 15.1712 46.6106C15.2307 46.4892 15.2658 46.3573 15.2743 46.2224C15.2829 46.0874 15.2648 45.9522 15.221 45.8242C15.1773 45.6963 15.1088 45.5783 15.0194 45.4768C14.9301 45.3754 14.8216 45.2925 14.7002 45.233C14.5789 45.1735 14.4469 45.1384 14.312 45.1299C14.1771 45.1213 14.0418 45.1394 13.9139 45.1832C13.786 45.2269 13.6679 45.2954 13.5665 45.3847C13.465 45.4741 13.3822 45.5826 13.3227 45.7039C13.0703 46.2235 12.6764 46.6612 12.1862 46.9666C11.696 47.2721 11.1294 47.4328 10.5518 47.4303H8.02931C7.75632 47.4303 7.49451 47.5388 7.30148 47.7318C7.10845 47.9248 7 48.1866 7 48.4596C7 48.7326 7.10845 48.9944 7.30148 49.1875C7.49451 49.3805 7.75632 49.4889 8.02931 49.4889Z" fill="#6254B8"/>
<path d="M67.4048 53.659C65.5563 54.2712 60.2258 55.4753 57.7741 53.7068C57.2984 53.3314 56.9242 52.8431 56.6854 52.2862C56.4467 51.7293 56.351 51.1216 56.407 50.5183C56.407 47.2384 58.8014 45.2482 60.8022 44.16C61.1582 43.9684 61.4497 43.6759 61.6399 43.3191C61.8302 42.9624 61.9108 42.5574 61.8716 42.155C61.8324 41.7526 61.6752 41.3708 61.4196 41.0575C61.1641 40.7442 60.8217 40.5134 60.4354 40.3941C53.0243 38.1177 50.1473 42.4295 47.8323 45.8929C46.1732 48.3747 44.7403 50.5183 41.9967 50.5183C41.1773 50.5493 40.3603 50.4109 39.597 50.1115C38.8337 49.8121 38.1404 49.3583 37.5606 48.7785C36.9808 48.1987 36.527 47.5054 36.2276 46.7421C35.9282 45.9787 35.7897 45.1618 35.8208 44.3424C35.8208 41.0403 37.7924 38.4198 41.9904 36.1079H41.9967C42.8705 36.1074 43.7343 35.9209 44.5305 35.5607C45.3267 35.2006 46.0371 34.675 46.6145 34.019C48.126 33.8109 49.5184 33.0843 50.5535 31.9633C51.5887 30.8424 52.2024 29.3967 52.2898 27.8734C52.2898 25.1825 50.8187 20.6682 40.9674 20.6682C39.6472 20.6859 38.3327 20.8446 37.0463 21.1417C35.7785 21.465 34.543 21.9042 33.3556 22.4537C31.0398 23.5838 28.8923 25.0304 26.975 26.7521C23.2478 30.173 20.021 34.1019 17.3897 38.4228C17.3163 38.5374 17.2666 38.6654 17.2433 38.7994C17.2201 38.9335 17.2239 39.0708 17.2544 39.2033C17.285 39.3359 17.3417 39.461 17.4213 39.5713C17.5008 39.6817 17.6016 39.775 17.7178 39.8459C17.9493 39.9871 18.2269 40.0321 18.4911 39.9712C18.7554 39.9103 18.9853 39.7483 19.1316 39.52C21.6583 35.3668 24.7562 31.5893 28.3343 28.2983C30.1064 26.7049 32.091 25.365 34.2314 24.317C35.2928 23.8269 36.3965 23.4341 37.5289 23.1436C38.6573 22.8845 39.8098 22.7448 40.9674 22.7268C45.1937 22.7268 50.2312 23.62 50.2312 27.8734C50.1591 28.6068 49.9174 29.3134 49.5252 29.9372C49.1329 30.5611 48.601 31.0852 47.9713 31.4681C48.1029 30.9666 48.1705 30.4505 48.1725 29.932C48.1732 29.107 48.0099 28.29 47.6921 27.5286C47.64 27.4038 47.5639 27.2904 47.4681 27.195C47.3722 27.0996 47.2585 27.0241 47.1335 26.9726C47.0084 26.9212 46.8745 26.8948 46.7392 26.8951C46.604 26.8955 46.4702 26.9224 46.3454 26.9745C46.2205 27.0265 46.1072 27.1026 46.0118 27.1984C45.9164 27.2943 45.8408 27.408 45.7894 27.533C45.7379 27.6581 45.7116 27.7921 45.7119 27.9273C45.7122 28.0625 45.7392 28.1963 45.7912 28.3212C46.0047 28.8314 46.1144 29.379 46.1139 29.932C46.1127 31.0236 45.6785 32.0701 44.9066 32.842C44.1348 33.6139 43.0883 34.0481 41.9967 34.0493C40.9265 34.0521 39.8983 33.6329 39.1352 32.8826C39.6992 32.3214 40.0826 31.6043 40.2361 30.8236C40.3895 30.0429 40.306 29.2341 39.9963 28.5012C39.8898 28.2498 39.6879 28.051 39.4348 27.9485C39.1818 27.846 38.8984 27.8483 38.647 27.9547C38.3956 28.0612 38.1968 28.2632 38.0943 28.5162C37.9918 28.7693 37.994 29.0526 38.1005 29.304C38.2245 29.5982 38.2737 29.9184 38.2439 30.2362C38.2141 30.554 38.1062 30.8595 37.9297 31.1255C37.7532 31.3914 37.5137 31.6096 37.2325 31.7606C36.9512 31.9115 36.637 31.9906 36.3178 31.9907C35.9807 31.9898 35.6497 31.9012 35.3571 31.7337C35.0646 31.5662 34.8206 31.3255 34.6492 31.0352C34.5107 30.8 34.2845 30.6294 34.0202 30.5609C33.7559 30.4925 33.4753 30.5319 33.24 30.6704C33.0047 30.8088 32.8341 31.0351 32.7657 31.2994C32.6973 31.5637 32.7366 31.8443 32.8751 32.0796C33.229 32.6781 33.7325 33.1744 34.336 33.5197C34.9396 33.865 35.6225 34.0475 36.3178 34.0493C36.6456 34.0453 36.9715 34.0006 37.2882 33.9162C37.8085 34.5366 38.4474 35.0469 39.1676 35.4171C35.54 37.8801 33.7622 40.8151 33.7622 44.3424C33.7302 45.4325 33.9213 46.5176 34.3237 47.5311C34.7262 48.5446 35.3316 49.4652 36.1027 50.2363C36.8739 51.0075 37.7944 51.6128 38.808 52.0153C39.8215 52.4178 40.9066 52.6089 41.9967 52.5769C45.8405 52.5769 47.7232 49.7604 49.5436 47.0368C51.8747 43.5488 53.886 40.5362 59.8264 42.3471C57.3272 43.7061 54.3484 46.2272 54.3484 50.5183C54.2864 51.4493 54.4572 52.3811 54.8454 53.2295C55.2337 54.0779 55.8272 54.8163 56.5723 55.3779C58.0662 56.3197 59.8145 56.7771 61.5782 56.6877C63.7774 56.64 65.9585 56.2778 68.0552 55.612C68.3108 55.5231 68.5211 55.3372 68.6406 55.0943C68.7601 54.8515 68.7792 54.5714 68.6937 54.3147C68.6082 54.0579 68.425 53.8451 68.1838 53.7224C67.9425 53.5997 67.6627 53.5769 67.4048 53.659Z" fill="#6254B8"/>
<path d="M60.4791 59.988C59.6809 60.5241 58.7411 60.8104 57.7796 60.8104C56.8181 60.8104 55.8783 60.5241 55.0801 59.988C53.9268 59.1815 52.5534 58.7489 51.1461 58.7489C49.7387 58.7489 48.3654 59.1815 47.2121 59.988C46.4139 60.5241 45.4742 60.8104 44.5126 60.8104C43.5511 60.8104 42.6114 60.5241 41.8132 59.988C40.66 59.1812 39.2867 58.7485 37.8794 58.7485C36.472 58.7485 35.0987 59.1812 33.9456 59.988C33.1474 60.5241 32.2077 60.8104 31.2461 60.8104C30.2846 60.8104 29.3449 60.5241 28.5467 59.988C27.3934 59.1815 26.02 58.7489 24.6127 58.7489C23.2053 58.7489 21.832 59.1815 20.6786 59.988C19.8805 60.5241 18.9407 60.8104 17.9792 60.8104C17.0176 60.8104 16.0779 60.5241 15.2797 59.988C14.1266 59.1809 12.7532 58.748 11.3457 58.748C9.93824 58.748 8.56483 59.1809 7.41173 59.988C7.30359 60.0691 7.21248 60.1707 7.14362 60.287C7.07475 60.4033 7.02946 60.532 7.01035 60.6658C6.99123 60.7997 6.99866 60.9359 7.0322 61.0669C7.06575 61.1978 7.12476 61.3209 7.20586 61.429C7.28697 61.5371 7.38857 61.6282 7.50488 61.6971C7.6212 61.766 7.74993 61.8113 7.88375 61.8304C8.01756 61.8495 8.15383 61.8421 8.28477 61.8085C8.41571 61.775 8.53876 61.716 8.6469 61.6349C9.44506 61.0987 10.3848 60.8124 11.3463 60.8124C12.3078 60.8124 13.2476 61.0987 14.0457 61.6349C15.1988 62.4418 16.5722 62.8746 17.9796 62.8746C19.387 62.8746 20.7603 62.4418 21.9134 61.6349C22.7117 61.0987 23.6515 60.8124 24.6131 60.8124C25.5747 60.8124 26.5145 61.0987 27.3128 61.6349C28.4659 62.4416 29.8392 62.8743 31.2465 62.8743C32.6539 62.8743 34.0272 62.4416 35.1803 61.6349C35.9785 61.0987 36.9183 60.8124 37.8798 60.8124C38.8413 60.8124 39.7811 61.0987 40.5793 61.6349C41.7323 62.4419 43.1056 62.8748 44.513 62.8748C45.9204 62.8748 47.2938 62.4419 48.4468 61.6349C49.2451 61.0987 50.1849 60.8124 51.1465 60.8124C52.1081 60.8124 53.0479 61.0987 53.8462 61.6349C54.9994 62.4416 56.3727 62.8742 57.78 62.8742C59.1873 62.8742 60.5607 62.4416 61.7138 61.6349C62.512 61.0987 63.4517 60.8124 64.4133 60.8124C65.3748 60.8124 66.3145 61.0987 67.1127 61.6349C67.3315 61.7915 67.6029 61.8562 67.8689 61.8152C68.1348 61.7741 68.3741 61.6305 68.5355 61.4152C68.6968 61.1999 68.7675 60.9299 68.7323 60.6632C68.6971 60.3964 68.5588 60.154 68.347 59.988C67.1937 59.1814 65.8204 58.7488 64.4131 58.7488C63.0057 58.7488 61.6324 59.1814 60.4791 59.988Z" fill="#6254B8"/>
<path d="M60.4791 66.1637C59.6809 66.6999 58.7411 66.9862 57.7796 66.9862C56.8181 66.9862 55.8783 66.6999 55.0801 66.1637C53.9268 65.3572 52.5534 64.9247 51.1461 64.9247C49.7387 64.9247 48.3654 65.3572 47.2121 66.1637C46.4139 66.6999 45.4742 66.9862 44.5126 66.9862C43.5511 66.9862 42.6114 66.6999 41.8132 66.1637C40.66 65.357 39.2867 64.9243 37.8794 64.9243C36.472 64.9243 35.0987 65.357 33.9456 66.1637C33.1474 66.6999 32.2077 66.9862 31.2461 66.9862C30.2846 66.9862 29.3449 66.6999 28.5467 66.1637C27.3934 65.3572 26.02 64.9247 24.6127 64.9247C23.2053 64.9247 21.832 65.3572 20.6786 66.1637C19.8805 66.6999 18.9407 66.9862 17.9792 66.9862C17.0176 66.9862 16.0779 66.6999 15.2797 66.1637C14.1266 65.3567 12.7532 64.9238 11.3457 64.9238C9.93824 64.9238 8.56483 65.3567 7.41173 66.1637C7.19334 66.3275 7.04896 66.5714 7.01035 66.8416C6.97174 67.1119 7.04207 67.3864 7.20587 67.6048C7.36966 67.8232 7.6135 67.9676 7.88375 68.0062C8.154 68.0448 8.42851 67.9744 8.6469 67.8106C9.44507 67.2745 10.3848 66.9882 11.3463 66.9882C12.3078 66.9882 13.2476 67.2745 14.0458 67.8106C15.1988 68.6176 16.5722 69.0504 17.9796 69.0504C19.387 69.0504 20.7603 68.6176 21.9134 67.8106C22.7117 67.2745 23.6515 66.9882 24.6131 66.9882C25.5747 66.9882 26.5145 67.2745 27.3128 67.8106C28.4659 68.6174 29.8392 69.0501 31.2465 69.0501C32.6539 69.0501 34.0272 68.6174 35.1803 67.8106C35.9785 67.2745 36.9183 66.9882 37.8798 66.9882C38.8413 66.9882 39.7811 67.2745 40.5793 67.8106C41.7323 68.6177 43.1056 69.0506 44.5131 69.0506C45.9205 69.0506 47.2938 68.6177 48.4468 67.8106C49.2451 67.2745 50.1849 66.9882 51.1465 66.9882C52.1081 66.9882 53.0479 67.2745 53.8462 67.8106C54.9994 68.6174 56.3727 69.0501 57.78 69.0501C59.1874 69.0501 60.5607 68.6174 61.7138 67.8106C62.512 67.2745 63.4517 66.9882 64.4133 66.9882C65.3748 66.9882 66.3145 67.2745 67.1127 67.8106C67.3315 67.9673 67.6029 68.032 67.8689 67.9909C68.1348 67.9499 68.3741 67.8063 68.5355 67.591C68.6969 67.3757 68.7675 67.1057 68.7323 66.839C68.6971 66.5722 68.5588 66.3298 68.347 66.1637C67.1938 65.3572 65.8204 64.9246 64.4131 64.9246C63.0057 64.9246 61.6324 65.3572 60.4791 66.1637Z" fill="#6254B8"/>
<path d="M14.2052 19.6389H24.4983C25.1658 19.6389 25.8232 19.4767 26.414 19.1662C27.0048 18.8557 27.5112 18.4062 27.8897 17.8565C28.2682 17.3067 28.5074 16.6732 28.5866 16.0105C28.6659 15.3478 28.5828 14.6758 28.3446 14.0523C28.1064 13.4288 27.7202 12.8726 27.2193 12.4315C26.7184 11.9905 26.1177 11.6778 25.4691 11.5205C24.8205 11.3631 24.1434 11.3658 23.496 11.5283C22.8487 11.6908 22.2506 12.0083 21.7532 12.4533C21.5527 12.6361 21.4325 12.8908 21.4188 13.1618C21.4051 13.4327 21.499 13.6982 21.68 13.9003C21.8609 14.1025 22.1144 14.225 22.3853 14.2412C22.6561 14.2575 22.9224 14.1661 23.1263 13.987C23.375 13.7646 23.6741 13.606 23.9978 13.5248C24.3214 13.4437 24.66 13.4424 24.9842 13.5212C25.3085 13.6 25.6087 13.7563 25.8591 13.9769C26.1095 14.1975 26.3025 14.4756 26.4215 14.7873C26.5406 15.099 26.582 15.435 26.5424 15.7663C26.5027 16.0977 26.3831 16.4144 26.1939 16.6892C26.0046 16.964 25.7514 17.1887 25.4561 17.344C25.1607 17.4992 24.832 17.5803 24.4983 17.5803H14.2052C13.9322 17.5803 13.6704 17.6887 13.4774 17.8818C13.2843 18.0748 13.1759 18.3366 13.1759 18.6096C13.1759 18.8826 13.2843 19.1444 13.4774 19.3374C13.6704 19.5305 13.9322 19.6389 14.2052 19.6389Z" fill="#FFCE1F"/>
<path d="M20.0871 11.1993C20.7997 10.472 21.6812 9.93215 22.653 9.62788C23.6247 9.32361 24.6567 9.26435 25.6569 9.45538C26.6571 9.6464 27.5946 10.0818 28.3858 10.7228C29.1771 11.3637 29.7975 12.1904 30.192 13.1292C30.5865 14.068 30.7427 15.0897 30.6467 16.1035C30.5508 17.1173 30.2057 18.0916 29.6421 18.9397C29.0785 19.7878 28.314 20.4834 27.4165 20.9646C26.5191 21.4457 25.5166 21.6975 24.4983 21.6975H9.05861C8.78562 21.6975 8.52381 21.8059 8.33078 21.999C8.13774 22.192 8.0293 22.4538 8.0293 22.7268C8.0293 22.9998 8.13774 23.2616 8.33078 23.4546C8.52381 23.6477 8.78562 23.7561 9.05861 23.7561H24.4983C25.856 23.7561 27.1927 23.4204 28.3893 22.7789C29.586 22.1373 30.6054 21.2098 31.3568 20.079C32.1082 18.9481 32.5684 17.649 32.6963 16.2973C32.8242 14.9456 32.6159 13.5832 32.0899 12.3315C31.5639 11.0798 30.7365 9.97757 29.6815 9.12296C28.6265 8.26835 27.3765 7.68788 26.0428 7.43323C24.7092 7.17859 23.3332 7.25766 22.0375 7.66343C20.7418 8.06919 19.5666 8.78904 18.6164 9.7589C18.4277 9.95438 18.3239 10.2165 18.3277 10.4882C18.3316 10.7599 18.4426 11.019 18.6367 11.2091C18.8308 11.3993 19.0922 11.5049 19.3639 11.5031C19.6356 11.5012 19.8956 11.392 20.0871 11.1993Z" fill="#FFCE1F"/>
<path d="M8.02931 19.6388H10.0879C10.3609 19.6388 10.6227 19.5304 10.8158 19.3373C11.0088 19.1443 11.1173 18.8825 11.1173 18.6095C11.1173 18.3365 11.0088 18.0747 10.8158 17.8817C10.6227 17.6886 10.3609 17.5802 10.0879 17.5802H8.02931C7.75632 17.5802 7.49451 17.6886 7.30148 17.8817C7.10845 18.0747 7 18.3365 7 18.6095C7 18.8825 7.10845 19.1443 7.30148 19.3373C7.49451 19.5304 7.75632 19.6388 8.02931 19.6388Z" fill="#FFCE1F"/>
<path d="M57.4363 11.4043H61.5535C61.8265 11.4043 62.0883 11.2959 62.2814 11.1028C62.4744 10.9098 62.5829 10.648 62.5829 10.375C62.5829 10.102 62.4744 9.84022 62.2814 9.64718C62.0883 9.45415 61.8265 9.3457 61.5535 9.3457H57.4363C57.1633 9.3457 56.9015 9.45415 56.7085 9.64718C56.5154 9.84022 56.407 10.102 56.407 10.375C56.407 10.648 56.5154 10.9098 56.7085 11.1028C56.9015 11.2959 57.1633 11.4043 57.4363 11.4043Z" fill="#6254B8"/>
<path d="M67.7294 9.3457H65.6708C65.3978 9.3457 65.136 9.45415 64.943 9.64718C64.7499 9.84022 64.6415 10.102 64.6415 10.375C64.6415 10.648 64.7499 10.9098 64.943 11.1028C65.136 11.2959 65.3978 11.4043 65.6708 11.4043H67.7294C68.0024 11.4043 68.2642 11.2959 68.4573 11.1028C68.6503 10.9098 68.7587 10.648 68.7587 10.375C68.7587 10.102 68.6503 9.84022 68.4573 9.64718C68.2642 9.45415 68.0024 9.3457 67.7294 9.3457Z" fill="#6254B8"/>
<path d="M67.7295 13.463H55.3777C55.1047 13.463 54.8429 13.5715 54.6499 13.7645C54.4568 13.9575 54.3484 14.2193 54.3484 14.4923C54.3484 14.7653 54.4568 15.0271 54.6499 15.2202C54.8429 15.4132 55.1047 15.5216 55.3777 15.5216H67.7295C68.0024 15.5216 68.2643 15.4132 68.4573 15.2202C68.6503 15.0271 68.7588 14.7653 68.7588 14.4923C68.7588 14.2193 68.6503 13.9575 68.4573 13.7645C68.2643 13.5715 68.0024 13.463 67.7295 13.463Z" fill="#6254B8"/>
<path d="M61.5536 22.7268C59.885 22.7285 58.2685 23.3086 56.9795 24.3683C56.8752 24.4542 56.7888 24.5598 56.7253 24.6791C56.6617 24.7985 56.6223 24.9291 56.6093 25.0637C56.5963 25.1982 56.6099 25.334 56.6493 25.4633C56.6888 25.5926 56.7533 25.7129 56.8393 25.8172C57.0128 26.028 57.2629 26.1611 57.5347 26.1875C57.6692 26.2005 57.805 26.1869 57.9343 26.1474C58.0636 26.108 58.1839 26.0434 58.2882 25.9575C58.9256 25.4338 59.6796 25.071 60.4867 24.8998C61.2937 24.7285 62.13 24.7538 62.9252 24.9736C63.7204 25.1933 64.4511 25.601 65.0556 26.1623C65.6602 26.7237 66.121 27.4221 66.399 28.1988C66.6771 28.9755 66.7643 29.8077 66.6534 30.6252C66.5424 31.4427 66.2365 32.2215 65.7615 32.896C65.2864 33.5705 64.6562 34.1208 63.9238 34.5007C63.1915 34.8805 62.3786 35.0787 61.5536 35.0786H53.3191C53.0461 35.0786 52.7843 35.187 52.5913 35.38C52.3982 35.5731 52.2898 35.8349 52.2898 36.1079C52.2898 36.3809 52.3982 36.6427 52.5913 36.8357C52.7843 37.0287 53.0461 37.1372 53.3191 37.1372H61.5536C63.4645 37.1372 65.2972 36.3781 66.6484 35.0268C67.9997 33.6756 68.7588 31.8429 68.7588 29.932C68.7588 28.0211 67.9997 26.1884 66.6484 24.8372C65.2972 23.4859 63.4645 22.7268 61.5536 22.7268Z" fill="#FFCE1F"/>
<path d="M61.5536 30.9612H55.3777C55.1047 30.9612 54.8429 31.0697 54.6499 31.2627C54.4568 31.4558 54.3484 31.7176 54.3484 31.9906C54.3484 32.2635 54.4568 32.5254 54.6499 32.7184C54.8429 32.9114 55.1047 33.0199 55.3777 33.0199H61.5536C62.0213 33.0197 62.483 32.9133 62.9036 32.7086C63.3242 32.5039 63.6928 32.2064 63.9816 31.8384C64.2704 31.4704 64.4718 31.0416 64.5707 30.5844C64.6695 30.1272 64.6632 29.6535 64.5522 29.1991C64.4412 28.7447 64.2284 28.3215 63.9299 27.9613C63.6314 27.6012 63.255 27.3136 62.829 27.1202C62.4031 26.9268 61.9388 26.8328 61.4712 26.8451C61.0036 26.8574 60.5449 26.9758 60.1297 27.1913C59.8875 27.3173 59.7053 27.5343 59.6231 27.7946C59.5409 28.055 59.5655 28.3373 59.6915 28.5795C59.8175 28.8217 60.0345 29.0039 60.2948 29.0861C60.5552 29.1683 60.8375 29.1437 61.0797 29.0177C61.226 28.9414 61.3886 28.9019 61.5536 28.9026C61.8266 28.9026 62.0884 29.0111 62.2814 29.2041C62.4744 29.3971 62.5829 29.6589 62.5829 29.9319C62.5829 30.2049 62.4744 30.4667 62.2814 30.6598C62.0884 30.8528 61.8266 30.9612 61.5536 30.9612Z" fill="#FFCE1F"/>
</g>
<defs>
<clipPath id="clip0_73_499">
<rect width="62" height="62" fill="white" transform="translate(7 7.28711)"/>
</clipPath>
</defs>
</svg>
