<svg width="135" height="136" viewBox="0 0 135 136" fill="none" xmlns="http://www.w3.org/2000/svg">
<ellipse cx="69.5706" cy="115.738" rx="40.9241" ry="6.34679" fill="#E5E5E5"/>
<ellipse cx="18.246" cy="1.97372" rx="18.246" ry="1.97372" transform="matrix(-0.967974 0.251052 0.251052 0.967974 101.729 110.084)" fill="#CCCCCC"/>
<ellipse cx="51.3377" cy="116.905" rx="18.246" ry="1.97372" transform="rotate(12.7438 51.3377 116.905)" fill="#CCCCCC"/>
<path d="M100.372 88.4662V108.568C100.4 109.945 99.5079 111.172 98.1892 111.569L67.882 120.21C67.7579 120.246 67.6293 120.265 67.5 120.265V80.4619L77.5054 93.287C78.0489 93.9871 78.9619 94.289 79.8157 94.051L100.372 88.4662Z" fill="white"/>
<path d="M67.4998 80.4619V120.265C67.3705 120.265 67.2419 120.246 67.1177 120.21L36.8106 111.569C35.4918 111.172 34.5993 109.945 34.6276 108.568V88.4662L55.1841 94.051C56.0379 94.289 56.9508 93.9871 57.4944 93.287L67.4998 80.4619Z" fill="white"/>
<path d="M102.21 71.1477L67.5005 80.2435L32.791 71.1477L59.3689 63.8711H59.9146C59.9328 63.9802 59.951 64.0894 59.9692 64.1804C60.1114 65.0535 60.8673 65.6937 61.752 65.6902H62.043V69.3286C62.049 71.3355 63.6745 72.9609 65.6814 72.9669H69.3197C71.3266 72.9609 72.952 71.3355 72.958 69.3286V65.6902H73.2491C74.1337 65.6937 74.8896 65.0535 75.0318 64.1804C75.05 64.0894 75.0682 63.9802 75.0864 63.8711H75.6321L102.21 71.1477Z" fill="white"/>
<path d="M109.541 85.9746L100.372 88.4668L79.8157 94.0516C78.9619 94.2896 78.0489 93.9877 77.5054 93.2876L67.5 80.4625V80.2442L102.21 71.1484L110.687 82.5545C111.139 83.1249 111.272 83.8851 111.041 84.5752C110.81 85.2653 110.245 85.7918 109.541 85.9746Z" fill="white"/>
<path d="M110.687 82.5545L102.21 71.1484L97.642 72.3454L105.23 82.5545C105.682 83.1249 105.815 83.8851 105.584 84.5752C105.353 85.2653 104.788 85.7918 104.084 85.9746L94.9151 88.4668L77.4512 93.213L77.5094 93.2876C78.053 93.9877 78.9659 94.2896 79.8197 94.0516L100.376 88.4668L109.545 85.9746C110.249 85.7909 110.812 85.264 111.043 84.5741C111.273 83.8841 111.139 83.1244 110.687 82.5545Z" fill="white"/>
<path d="M67.5001 80.2442V80.4625L57.4947 93.2876C56.9511 93.9877 56.0382 94.2896 55.1844 94.0516L34.6279 88.4668L25.4594 85.9746C24.7549 85.7918 24.1905 85.2653 23.9592 84.5752C23.7279 83.8851 23.8612 83.1249 24.3133 82.5545L32.7906 71.1484L67.5001 80.2442Z" fill="white"/>
<path d="M32.79 71.1484L31.9004 72.3454L62.042 80.2442V80.4625L52.0948 93.213L55.1874 94.0516C56.0412 94.2896 56.9542 93.9877 57.4977 93.2876L67.4995 80.4625V80.2442L32.79 71.1484Z" fill="white"/>
<path d="M78.4148 32.9454C78.3014 38.8548 77.8458 44.7527 77.0505 50.6094C76.341 56.3033 75.5224 61.3242 75.0858 63.871C75.0676 63.9802 75.0494 64.0893 75.0312 64.1803C74.889 65.0535 74.1331 65.6937 73.2484 65.6902H61.7514C60.8667 65.6937 60.1108 65.0535 59.9686 64.1803C59.9504 64.0893 59.9322 63.9802 59.914 63.871C59.4774 61.3242 58.6588 56.3033 57.9493 50.6094C57.154 44.7527 56.6984 38.8548 56.585 32.9454C56.5613 29.8724 56.9654 26.8112 57.7856 23.8496H77.2142C78.0344 26.8112 78.4385 29.8724 78.4148 32.9454Z" fill="white"/>
<path d="M77.2142 23.8496H71.7568C72.577 26.8112 72.9811 29.8724 72.9574 32.9454C72.844 38.8548 72.3884 44.7527 71.5931 50.6094C70.8836 56.3033 70.065 61.3242 69.6284 63.871C69.6102 63.9802 69.592 64.0893 69.5738 64.1803C69.4316 65.0535 68.6757 65.6937 67.791 65.6902L73.2485 65.6902C74.1331 65.6937 74.889 65.0535 75.0313 64.1803C75.0494 64.0893 75.0676 63.9802 75.0858 63.871C75.5224 61.3242 76.341 56.3033 77.0505 50.6094C77.8459 44.7527 78.3014 38.8548 78.4149 32.9454C78.4385 29.8724 78.0344 26.8112 77.2142 23.8496Z" fill="white"/>
<path d="M77.2137 23.85H57.7852C58.8403 20.1753 60.7322 16.919 63.8611 15.5C65.0079 14.9983 66.2477 14.7441 67.4995 14.7542C72.9023 14.7542 75.7948 18.9383 77.2137 23.85Z" fill="white"/>
<path d="M67.5002 14.7539C66.5726 14.7613 65.6518 14.9142 64.7715 15.2069C68.4425 16.3748 70.6019 19.8475 71.757 23.8497H77.2145C75.7956 18.938 72.9031 14.7539 67.5002 14.7539Z" fill="white"/>
<path d="M67.4996 40.2219C69.509 40.2219 71.138 38.593 71.138 36.5836C71.138 34.5742 69.509 32.9453 67.4996 32.9453C65.4903 32.9453 63.8613 34.5742 63.8613 36.5836C63.8613 38.593 65.4903 40.2219 67.4996 40.2219Z" fill="white"/>
<path d="M59.9151 63.871H49.3094C48.3047 63.871 47.4902 63.0566 47.4902 62.0519V57.6495C47.4877 56.997 47.8347 56.3931 48.3998 56.0668L57.9504 50.6094C58.6599 56.3033 59.4785 61.3242 59.9151 63.871Z" fill="white"/>
<path d="M87.5108 57.6495V62.0519C87.5108 63.0566 86.6963 63.871 85.6916 63.871H75.0859C75.5225 61.3242 76.3412 56.3033 77.0506 50.6094L86.6012 56.0668C87.1663 56.3931 87.5134 56.997 87.5108 57.6495Z" fill="white"/>
<path d="M72.9579 65.6904V69.3287C72.9579 71.3381 71.329 72.9671 69.3196 72.9671H65.6813C63.6719 72.9671 62.043 71.3381 62.043 69.3287V65.6904H72.9579Z" fill="white"/>
<path d="M67.501 14.7539C66.9829 14.7563 66.4663 14.8087 65.9583 14.9104C65.557 14.9806 65.1612 15.0797 64.774 15.2069C64.4659 15.2884 64.1623 15.3862 63.8645 15.4998C60.7355 16.9187 58.8436 20.175 57.7885 23.8497C56.9677 26.8112 56.563 29.8724 56.586 32.9455C56.6995 38.8549 57.155 44.7527 57.9504 50.6095L48.3998 56.0669C47.8347 56.3932 47.4877 56.9971 47.4902 57.6496V62.052C47.4902 63.0567 48.3047 63.8711 49.3094 63.8711H54.7669C53.7622 63.8711 52.9477 63.0567 52.9477 62.052V57.6496C52.9451 56.9971 53.2922 56.3932 53.8573 56.0669L61.3158 51.8065C62.5815 51.0913 63.2976 49.6892 63.135 48.2446C62.494 43.1684 62.1297 38.0612 62.0435 32.9455C62.0199 29.8725 62.424 26.8112 63.2441 23.8497C64.2993 20.175 66.1912 16.9187 69.3201 15.4998C69.6179 15.3862 69.9216 15.2884 70.2297 15.2069C69.3496 14.9132 68.4287 14.7604 67.501 14.7539Z" fill="white"/>
<path d="M36.8109 111.569L67.1181 120.21C67.3675 120.283 67.6326 120.283 67.8821 120.21L70.2288 119.537L42.2684 111.569C40.9496 111.172 40.057 109.945 40.0854 108.568V88.4661L30.9168 85.9738C30.2123 85.7911 29.6479 85.2646 29.4167 84.5745C29.1854 83.8844 29.3186 83.1242 29.7708 82.5538L37.3585 72.3447L38.248 71.1477L64.8259 63.8711H59.9142H59.3684L32.7906 71.1477L31.901 72.3447L24.3133 82.5538C23.8612 83.1242 23.7279 83.8844 23.9592 84.5745C24.1905 85.2646 24.7549 85.7911 25.4594 85.9738L34.6279 88.4661V108.568C34.5996 109.945 35.4921 111.172 36.8109 111.569Z" fill="white"/>
<path d="M32.8027 88.4658H36.441V103.019H32.8027V88.4658Z" fill="white"/>
<path d="M34.6219 97.5621C35.6266 97.5621 36.441 96.7477 36.441 95.743C36.441 94.7383 35.6266 93.9238 34.6219 93.9238C33.6172 93.9238 32.8027 94.7383 32.8027 95.743C32.8027 96.7477 33.6172 97.5621 34.6219 97.5621Z" fill="url(#paint0_linear_5005_5223)"/>
<path d="M31.3366 70.0561L22.8794 81.4203C22.05 82.4732 21.806 83.8726 22.2299 85.144C22.6538 86.4155 23.6889 87.3884 24.9841 87.7328L54.6964 95.8062C56.2584 96.244 57.93 95.6933 58.9259 94.4128L65.6823 85.7536V117.911L37.3035 109.817C36.7662 109.644 36.412 109.132 36.4394 108.568V103.019C36.4394 102.014 35.6249 101.2 34.6202 101.2C33.6155 101.2 32.8011 102.014 32.8011 103.019V108.568C32.7815 110.757 34.2135 112.695 36.312 113.319L66.6228 121.962C67.1971 122.126 67.8058 122.126 68.3801 121.962L98.6763 113.323C100.778 112.701 102.214 110.761 102.195 108.569V89.8576L110.006 87.7364C111.295 87.3965 112.329 86.434 112.76 85.1721C113.192 83.9102 112.963 82.5164 112.151 81.4585L103.666 70.0561C103.424 69.7305 103.079 69.4955 102.688 69.3884L87.4467 65.2153C88.6016 64.58 89.3225 63.3698 89.3313 62.0518V57.6494C89.33 56.3471 88.6374 55.1434 87.5122 54.4877L79.0113 49.6306C79.7339 44.0964 80.1427 38.5257 80.2355 32.9453C80.2355 23.271 76.8901 12.9346 67.5015 12.9346C58.1128 12.9346 54.7674 23.271 54.7674 32.9453C54.8627 38.5258 55.2738 44.0965 55.9989 49.6306L47.4907 54.4932C46.3669 55.1476 45.6745 56.349 45.6716 57.6494V62.0518C45.6784 63.3718 46.3997 64.5845 47.5562 65.2208L32.3153 69.3939C31.9245 69.4996 31.5801 69.7326 31.3366 70.0561ZM56.0571 92.1715C55.9624 92.2896 55.806 92.3392 55.6606 92.2971L25.9301 84.22C25.8118 84.1922 25.7166 84.1046 25.6791 83.989C25.6366 83.8606 25.6713 83.7194 25.7682 83.6252L33.5214 73.2105L64.5108 81.3348L56.0571 92.1715ZM58.8459 27.4878H76.157C76.4397 29.2934 76.5868 31.1177 76.5972 32.9453C76.5972 43.4837 74.034 59.2867 73.25 63.8709H69.3206V52.956C69.3206 51.9513 68.5061 51.1368 67.5015 51.1368C66.4968 51.1368 65.6823 51.9513 65.6823 52.956V63.8709H62.044C62.0294 63.8709 62.0185 63.8709 62.0058 63.8709H61.7547C60.9689 59.2867 58.4057 43.4837 58.4057 32.9453C58.4161 31.1177 58.5632 29.2934 58.8459 27.4878ZM63.8631 67.5092H71.1398V69.3284C71.1398 70.3331 70.3253 71.1476 69.3206 71.1476H65.6823C64.6776 71.1476 63.8631 70.3331 63.8631 69.3284V67.5092ZM60.2248 67.1618V69.3284C60.2248 72.3425 62.6682 74.7859 65.6823 74.7859H69.3206C72.3347 74.7859 74.7781 72.3425 74.7781 69.3284V67.1618C75.3647 66.8864 75.8671 66.4594 76.2334 65.9248L95.169 71.1094L67.5015 78.3623L39.8248 71.1094L58.7695 65.9248C59.1358 66.4594 59.6382 66.8864 60.2248 67.1618ZM98.5599 108.568C98.5867 109.134 98.2293 109.649 97.6885 109.821L69.3206 117.911V85.7536L76.0788 94.4146C77.0744 95.6886 78.7388 96.2384 80.2974 95.808L98.5599 90.8472V108.568ZM109.266 83.6706C109.34 83.7587 109.363 83.8801 109.324 83.989C109.283 84.1066 109.185 84.1951 109.064 84.2237L79.326 92.3007C79.1836 92.3376 79.0327 92.2878 78.9403 92.1734L70.4921 81.3348L101.481 73.2123L109.266 83.6706ZM85.693 57.6494V62.0518H77.2394C77.6032 59.8688 78.0526 56.8908 78.5128 53.5363L85.693 57.6494ZM67.5015 16.5729C71.8674 16.5729 74.1468 20.0529 75.3238 23.8495H59.6791C60.8561 20.0529 63.1355 16.5729 67.5015 16.5729ZM56.4974 53.5345C56.9503 56.8908 57.407 59.8688 57.7708 62.0518H49.3099V57.6458L56.4974 53.5345Z" fill="url(#paint1_linear_5005_5223)"/>
<path d="M67.5004 42.0409C70.5145 42.0409 72.9579 39.5975 72.9579 36.5834C72.9579 33.5694 70.5145 31.126 67.5004 31.126C64.4864 31.126 62.043 33.5694 62.043 36.5834C62.043 39.5975 64.4864 42.0409 67.5004 42.0409ZM67.5004 34.7643C68.5051 34.7643 69.3196 35.5788 69.3196 36.5834C69.3196 37.5881 68.5051 38.4026 67.5004 38.4026C66.4957 38.4026 65.6813 37.5881 65.6813 36.5834C65.6813 35.5788 66.4957 34.7643 67.5004 34.7643Z" fill="url(#paint2_linear_5005_5223)"/>
<defs>
<linearGradient id="paint0_linear_5005_5223" x1="32.8027" y1="97.5621" x2="36.441" y2="93.9238" gradientUnits="userSpaceOnUse">
<stop stop-color="#A03291"/>
<stop offset="1" stop-color="#FF7C66"/>
</linearGradient>
<linearGradient id="paint1_linear_5005_5223" x1="22.0254" y1="122.085" x2="129.384" y2="32.6285" gradientUnits="userSpaceOnUse">
<stop stop-color="#A03291"/>
<stop offset="1" stop-color="#FF7C66"/>
</linearGradient>
<linearGradient id="paint2_linear_5005_5223" x1="62.043" y1="42.0409" x2="72.9579" y2="31.126" gradientUnits="userSpaceOnUse">
<stop stop-color="#A03291"/>
<stop offset="1" stop-color="#FF7C66"/>
</linearGradient>
</defs>
</svg>
