<svg width="77" height="77" viewBox="0 0 77 77" fill="none" xmlns="http://www.w3.org/2000/svg">
<g clip-path="url(#clip0_10_148)">
<ellipse cx="46.7671" cy="66.4693" rx="22.2729" ry="2.54067" fill="#BCB7DE"/>
<ellipse cx="45.4857" cy="66.3182" rx="8.31324" ry="1.09311" fill="#9087C8"/>
<path d="M32.204 47.2984C32.2034 49.8409 32.8077 52.347 33.967 54.6098C35.1262 56.8726 36.8071 58.8271 38.8709 60.312H9.18C8.9145 60.312 8.65989 60.2065 8.47215 60.0188C8.28442 59.8311 8.17896 59.5764 8.17896 59.3109V16.2661L16.1873 8.25781H47.2196C47.4851 8.25781 47.7397 8.36328 47.9274 8.55101C48.1152 8.73874 48.2206 8.99336 48.2206 9.25885V31.2818C43.9727 31.2818 39.8988 32.9692 36.8951 35.9729C33.8914 38.9767 32.204 43.0506 32.204 47.2984Z" fill="#DEDBEF"/>
<path d="M48.2206 31.2818V9.25885C48.2206 8.99336 48.1151 8.73874 47.9274 8.55101C47.7397 8.36328 47.485 8.25781 47.2195 8.25781H44.2164C44.4819 8.25781 44.7365 8.36328 44.9243 8.55101C45.112 8.73874 45.2175 8.99336 45.2175 9.25885V31.2818C41.8278 31.283 38.5258 32.3593 35.7864 34.3558C33.0471 36.3522 31.0114 39.166 29.9723 42.3925C28.9331 45.619 28.944 49.0919 30.0034 52.3118C31.0627 55.5317 33.1159 58.3327 35.8677 60.312H38.8709C36.119 58.3327 34.0658 55.5317 33.0065 52.3118C31.9471 49.0919 31.9363 45.619 32.9754 42.3925C34.0146 39.166 36.0502 36.3522 38.7896 34.3558C41.5289 32.3593 44.8309 31.283 48.2206 31.2818Z" fill="#9087C8"/>
<path d="M16.1873 8.25781V15.2651C16.1873 15.5306 16.0818 15.7852 15.8941 15.9729C15.7064 16.1607 15.4517 16.2661 15.1862 16.2661H8.17896L16.1873 8.25781Z" fill="#BDB7DE"/>
<path d="M64.2373 47.2984C64.2373 50.4662 63.298 53.5629 61.538 56.1968C59.7781 58.8307 57.2766 60.8836 54.35 62.0959C51.4233 63.3081 48.2029 63.6253 45.096 63.0073C41.989 62.3893 39.1351 60.8639 36.8952 58.6239C34.6552 56.3839 33.1297 53.53 32.5117 50.4231C31.8937 47.3162 32.2109 44.0958 33.4232 41.1691C34.6354 38.2424 36.6883 35.741 39.3223 33.981C41.9562 32.2211 45.0529 31.2817 48.2207 31.2817C50.3286 31.2652 52.4188 31.6682 54.3695 32.4673C56.3202 33.2663 58.0924 34.4455 59.583 35.9361C61.0736 37.4267 62.2527 39.1989 63.0518 41.1496C63.8509 43.1003 64.2539 45.1905 64.2373 47.2984Z" fill="#DEDBEF"/>
<path d="M48.2207 31.2817C47.7141 31.2817 47.2136 31.3118 46.7191 31.3578C50.6933 31.7253 54.3869 33.5641 57.0756 36.5137C59.7643 39.4633 61.2541 43.3109 61.253 47.302C61.2519 51.2932 59.7598 55.1399 57.0695 58.088C54.3791 61.0361 50.6845 62.8728 46.7101 63.238C47.2106 63.284 47.7111 63.3151 48.2207 63.3151C52.4685 63.3151 56.5424 61.6276 59.5461 58.6239C62.5499 55.6202 64.2373 51.5463 64.2373 47.2984C64.2373 43.0505 62.5499 38.9766 59.5461 35.9729C56.5424 32.9692 52.4685 31.2817 48.2207 31.2817Z" fill="#BDB7DE"/>
<path d="M48.2206 59.3109C54.855 59.3109 60.2331 53.9327 60.2331 47.2984C60.2331 40.6641 54.855 35.2859 48.2206 35.2859C41.5863 35.2859 36.2081 40.6641 36.2081 47.2984C36.2081 53.9327 41.5863 59.3109 48.2206 59.3109Z" fill="#FFCE1F"/>
<path d="M48.2207 35.286C47.7186 35.2879 47.217 35.3213 46.7191 35.3861C49.621 35.7496 52.2903 37.1603 54.2255 39.3531C56.1607 41.5459 57.2286 44.3699 57.2286 47.2945C57.2286 50.2191 56.1607 53.043 54.2255 55.2358C52.2903 57.4286 49.621 58.8393 46.7191 59.2029C48.3539 59.4232 50.0166 59.3045 51.6035 58.8541C53.1904 58.4038 54.6676 57.6314 55.9429 56.5851C57.2183 55.5388 58.2644 54.2411 59.0162 52.7728C59.768 51.3045 60.2094 49.6971 60.3127 48.0507C60.4161 46.4044 60.1793 44.7544 59.617 43.2036C59.0548 41.6528 58.1791 40.2344 57.0446 39.0368C55.9102 37.8392 54.5412 36.8882 53.0231 36.2428C51.505 35.5975 49.8702 35.2718 48.2207 35.286Z" fill="#BDB7DE"/>
<path d="M65.3885 65.4673C65.1059 65.7494 64.7684 65.9703 64.3968 66.1163C64.0252 66.2624 63.6276 66.3305 63.2286 66.3164C62.8297 66.3024 62.4378 66.2064 62.0775 66.0345C61.7172 65.8626 61.396 65.6184 61.1341 65.3172L57.0598 60.6623C58.4574 59.7344 59.7005 58.5926 60.7436 57.2788L65.2383 61.2129C65.5394 61.475 65.7835 61.7961 65.9553 62.1565C66.1271 62.5168 66.223 62.9086 66.2371 63.3075C66.2512 63.7065 66.1831 64.104 66.0371 64.4756C65.8912 64.8471 65.6704 65.1847 65.3885 65.4673Z" fill="#DEDBEF"/>
<path d="M65.2383 61.2129L60.7436 57.2788C60.3298 57.793 59.8848 58.2815 59.4113 58.7413L62.2352 61.2129C62.5363 61.475 62.7804 61.7961 62.9522 62.1565C63.124 62.5168 63.2199 62.9086 63.234 63.3075C63.2481 63.7065 63.18 64.104 63.034 64.4756C62.888 64.8471 62.6672 65.1847 62.3854 65.4673C62.219 65.6276 62.0345 65.768 61.8358 65.8858C62.2839 66.1632 62.7993 66.3128 63.3263 66.3182C63.9197 66.3197 64.4994 66.1396 64.9874 65.802C65.4755 65.4645 65.8486 64.9858 66.0568 64.4301C66.2649 63.8744 66.298 63.2683 66.1517 62.6932C66.0054 62.1182 65.6867 61.6016 65.2383 61.2129Z" fill="#9087C8"/>
<path d="M9.18 60.3119H12.1831C11.9176 60.3119 11.663 60.2065 11.4753 60.0187C11.2875 59.831 11.1821 59.5764 11.1821 59.3109V16.2661H8.17896V59.3109C8.17896 59.5764 8.28442 59.831 8.47215 60.0187C8.65989 60.2065 8.9145 60.3119 9.18 60.3119Z" fill="#F9FAFB"/>
<path d="M7.17786 51.3025H9.17994V59.3108H7.17786V51.3025Z" fill="#F9FAFB"/>
<path d="M8.1789 56.3077C8.73176 56.3077 9.17994 55.8596 9.17994 55.3067C9.17994 54.7538 8.73176 54.3057 8.1789 54.3057C7.62604 54.3057 7.17786 54.7538 7.17786 55.3067C7.17786 55.8596 7.62604 56.3077 8.1789 56.3077Z" fill="#6254B8"/>
<path d="M9.17994 61.313H38.5885C41.2522 63.1559 44.3893 64.1948 47.6264 64.306C50.8636 64.4173 54.0646 63.5963 56.8485 61.9406L60.3822 65.9778C60.7348 66.3809 61.1664 66.7073 61.6503 66.9368C62.1343 67.1662 62.6601 67.2938 63.1954 67.3116C63.7307 67.3294 64.2639 67.2371 64.762 67.0403C65.2601 66.8435 65.7124 66.5466 66.091 66.1678C66.4696 65.789 66.7663 65.3364 66.9628 64.8382C67.1593 64.34 67.2514 63.8068 67.2333 63.2715C67.2152 62.7363 67.0873 62.2105 66.8576 61.7267C66.6279 61.2429 66.3013 60.8114 65.898 60.4591L62.094 57.1256C63.8555 54.653 64.9216 51.7531 65.181 48.7283C65.4405 45.7034 64.8839 42.6644 63.5692 39.9279C62.2545 37.1913 60.2299 34.8575 57.7063 33.1697C55.1828 31.4819 52.2528 30.5019 49.2216 30.3317V9.2588C49.2216 8.72781 49.0107 8.21857 48.6352 7.84311C48.2597 7.46765 47.7505 7.25671 47.2195 7.25671H16.1872C15.9218 7.25677 15.6672 7.36227 15.4795 7.55002L7.47116 15.5584C7.28342 15.746 7.17791 16.0006 7.17786 16.2661V51.3025C7.17786 51.568 7.28332 51.8227 7.47105 52.0104C7.65879 52.1981 7.91341 52.3036 8.1789 52.3036C8.44439 52.3036 8.69901 52.1981 8.88674 52.0104C9.07447 51.8227 9.17994 51.568 9.17994 51.3025V17.2671H15.1862C15.4491 17.2671 15.7094 17.2153 15.9524 17.1147C16.1953 17.0141 16.416 16.8666 16.6019 16.6807C16.7878 16.4948 16.9353 16.2741 17.0359 16.0312C17.1365 15.7883 17.1883 15.528 17.1883 15.265V9.2588H47.2195V30.3317C43.9474 30.52 40.7995 31.6506 38.1553 33.5872C35.5111 35.5238 33.4833 38.1838 32.3165 41.2466C31.1496 44.3094 30.8934 47.6444 31.5787 50.8495C32.264 54.0546 33.8617 56.9931 36.179 59.3109H9.17994C9.17994 59.0454 9.07447 58.7908 8.88674 58.603C8.69901 58.4153 8.44439 58.3098 8.1789 58.3098C7.91341 58.3098 7.65879 58.4153 7.47105 58.603C7.28332 58.7908 7.17786 59.0454 7.17786 59.3109C7.17786 59.8419 7.38879 60.3511 7.76425 60.7266C8.13972 61.102 8.64895 61.313 9.17994 61.313ZM10.5954 15.265L15.1862 10.6743V15.265H10.5954ZM64.5836 61.9696C64.7813 62.1393 64.9417 62.3481 65.0544 62.583C65.1671 62.8179 65.2297 63.0737 65.2383 63.3341C65.2493 63.5958 65.2062 63.8569 65.1117 64.1012C65.0171 64.3454 64.8731 64.5675 64.6887 64.7535C64.4998 64.9344 64.2766 65.0755 64.0323 65.1686C63.7879 65.2617 63.5274 65.3049 63.2661 65.2955C63.0048 65.2862 62.748 65.2246 62.5109 65.1143C62.2738 65.004 62.0613 64.8473 61.8858 64.6534L58.5223 60.8124C59.3562 60.1756 60.1299 59.4635 60.8337 58.6852L64.5836 61.9696ZM48.2206 32.2828C51.1904 32.2828 54.0935 33.1634 56.5628 34.8133C59.0321 36.4633 60.9567 38.8084 62.0932 41.5522C63.2297 44.2959 63.5271 47.315 62.9477 50.2278C62.3683 53.1405 60.9382 55.8161 58.8382 57.916C56.7382 60.016 54.0627 61.4461 51.15 62.0255C48.2372 62.6049 45.2181 62.3075 42.4743 61.171C39.7306 60.0345 37.3855 58.1099 35.7355 55.6406C34.0856 53.1713 33.2049 50.2682 33.2049 47.2984C33.2094 43.3174 34.7929 39.5007 37.6079 36.6857C40.4229 33.8707 44.2396 32.2873 48.2206 32.2828Z" fill="#6254B8"/>
<path d="M12.183 34.2849C12.183 34.5503 12.2885 34.805 12.4762 34.9927C12.6639 35.1804 12.9185 35.2859 13.184 35.2859H15.1861C15.4516 35.2859 15.7062 35.1804 15.894 34.9927C16.0817 34.805 16.1872 34.5503 16.1872 34.2849C16.1872 34.0194 16.0817 33.7647 15.894 33.577C15.7062 33.3893 15.4516 33.2838 15.1861 33.2838H13.184C12.9185 33.2838 12.6639 33.3893 12.4762 33.577C12.2885 33.7647 12.183 34.0194 12.183 34.2849Z" fill="#FFCE1F"/>
<path d="M12.183 28.6015C12.183 28.867 12.2885 29.1216 12.4762 29.3093C12.6639 29.4971 12.9185 29.6025 13.184 29.6025H15.1861C15.4516 29.6025 15.7062 29.4971 15.894 29.3093C16.0817 29.1216 16.1872 28.867 16.1872 28.6015C16.1872 28.336 16.0817 28.0814 15.894 27.8937C15.7062 27.7059 15.4516 27.6005 15.1861 27.6005H13.184C12.9185 27.6005 12.6639 27.7059 12.4762 27.8937C12.2885 28.0814 12.183 28.336 12.183 28.6015Z" fill="#FFCE1F"/>
<path d="M12.183 22.789C12.183 23.0545 12.2885 23.3091 12.4762 23.4968C12.6639 23.6846 12.9185 23.79 13.184 23.79H15.1861C15.4516 23.79 15.7062 23.6846 15.894 23.4968C16.0817 23.3091 16.1872 23.0545 16.1872 22.789C16.1872 22.5235 16.0817 22.2689 15.894 22.0812C15.7062 21.8934 15.4516 21.788 15.1861 21.788H13.184C12.9185 21.788 12.6639 21.8934 12.4762 22.0812C12.2885 22.2689 12.183 22.5235 12.183 22.789Z" fill="#FFCE1F"/>
<path d="M18.1893 34.2849C18.1893 34.5503 18.2948 34.805 18.4825 34.9927C18.6703 35.1804 18.9249 35.2859 19.1904 35.2859H33.205C33.4705 35.2859 33.7251 35.1804 33.9128 34.9927C34.1005 34.805 34.206 34.5503 34.206 34.2849C34.206 34.0194 34.1005 33.7647 33.9128 33.577C33.7251 33.3893 33.4705 33.2838 33.205 33.2838H19.1904C18.9249 33.2838 18.6703 33.3893 18.4825 33.577C18.2948 33.7647 18.1893 34.0194 18.1893 34.2849Z" fill="#FFCE1F"/>
<path d="M17.8341 28.5692C17.8341 28.8261 17.9744 29.0725 18.2242 29.2542C18.4741 29.4359 18.8129 29.538 19.1661 29.538H37.8146C38.1679 29.538 38.5067 29.4359 38.7565 29.2542C39.0063 29.0725 39.1466 28.8261 39.1466 28.5692C39.1466 28.3123 39.0063 28.0659 38.7565 27.8842C38.5067 27.7025 38.1679 27.6005 37.8146 27.6005H19.1661C18.8129 27.6005 18.4741 27.7025 18.2242 27.8842C17.9744 28.0659 17.8341 28.3123 17.8341 28.5692Z" fill="#FFCE1F"/>
<path d="M17.8341 22.7567C17.8341 23.0136 18 23.26 18.2952 23.4417C18.5904 23.6234 18.9908 23.7255 19.4083 23.7255H41.4474C41.8649 23.7255 42.2653 23.6234 42.5605 23.4417C42.8558 23.26 43.0216 23.0136 43.0216 22.7567C43.0216 22.4998 42.8558 22.2534 42.5605 22.0717C42.2653 21.89 41.8649 21.788 41.4474 21.788H19.4083C18.9908 21.788 18.5904 21.89 18.2952 22.0717C18 22.2534 17.8341 22.4998 17.8341 22.7567Z" fill="#FFCE1F"/>
<path d="M13.1841 41.2921H15.1862C15.4517 41.2921 15.7063 41.1867 15.8941 40.9989C16.0818 40.8112 16.1873 40.5566 16.1873 40.2911C16.1873 40.0256 16.0818 39.771 15.8941 39.5832C15.7063 39.3955 15.4517 39.29 15.1862 39.29H13.1841C12.9187 39.29 12.664 39.3955 12.4763 39.5832C12.2886 39.771 12.1831 40.0256 12.1831 40.2911C12.1831 40.5566 12.2886 40.8112 12.4763 40.9989C12.664 41.1867 12.9187 41.2921 13.1841 41.2921Z" fill="#FFCE1F"/>
<path d="M29.2008 39.29H19.1904C18.9249 39.29 18.6703 39.3955 18.4825 39.5832C18.2948 39.771 18.1893 40.0256 18.1893 40.2911C18.1893 40.5566 18.2948 40.8112 18.4825 40.9989C18.6703 41.1867 18.9249 41.2921 19.1904 41.2921H29.2008C29.4663 41.2921 29.7209 41.1867 29.9086 40.9989C30.0964 40.8112 30.2018 40.5566 30.2018 40.2911C30.2018 40.0256 30.0964 39.771 29.9086 39.5832C29.7209 39.3955 29.4663 39.29 29.2008 39.29Z" fill="#FFCE1F"/>
<path d="M13.1841 47.2983H15.1862C15.4517 47.2983 15.7063 47.1929 15.8941 47.0052C16.0818 46.8174 16.1873 46.5628 16.1873 46.2973C16.1873 46.0318 16.0818 45.7772 15.8941 45.5895C15.7063 45.4017 15.4517 45.2963 15.1862 45.2963H13.1841C12.9187 45.2963 12.664 45.4017 12.4763 45.5895C12.2886 45.7772 12.1831 46.0318 12.1831 46.2973C12.1831 46.5628 12.2886 46.8174 12.4763 47.0052C12.664 47.1929 12.9187 47.2983 13.1841 47.2983Z" fill="#FFCE1F"/>
<path d="M19.1904 47.2983H28.1997C28.4652 47.2983 28.7199 47.1929 28.9076 47.0052C29.0953 46.8174 29.2008 46.5628 29.2008 46.2973C29.2008 46.0318 29.0953 45.7772 28.9076 45.5895C28.7199 45.4017 28.4652 45.2963 28.1997 45.2963H19.1904C18.9249 45.2963 18.6703 45.4017 18.4825 45.5895C18.2948 45.7772 18.1893 46.0318 18.1893 46.2973C18.1893 46.5628 18.2948 46.8174 18.4825 47.0052C18.6703 47.1929 18.9249 47.2983 19.1904 47.2983Z" fill="#FFCE1F"/>
<path d="M13.1841 53.3046H15.1862C15.4517 53.3046 15.7063 53.1991 15.8941 53.0114C16.0818 52.8236 16.1873 52.569 16.1873 52.3035C16.1873 52.038 16.0818 51.7834 15.8941 51.5957C15.7063 51.408 15.4517 51.3025 15.1862 51.3025H13.1841C12.9187 51.3025 12.664 51.408 12.4763 51.5957C12.2886 51.7834 12.1831 52.038 12.1831 52.3035C12.1831 52.569 12.2886 52.8236 12.4763 53.0114C12.664 53.1991 12.9187 53.3046 13.1841 53.3046Z" fill="#FFCE1F"/>
<path d="M19.1904 53.3046H29.2008C29.4663 53.3046 29.7209 53.1991 29.9086 53.0114C30.0964 52.8236 30.2018 52.569 30.2018 52.3035C30.2018 52.038 30.0964 51.7834 29.9086 51.5957C29.7209 51.408 29.4663 51.3025 29.2008 51.3025H19.1904C18.9249 51.3025 18.6703 51.408 18.4825 51.5957C18.2948 51.7834 18.1893 52.038 18.1893 52.3035C18.1893 52.569 18.2948 52.8236 18.4825 53.0114C18.6703 53.1991 18.9249 53.3046 19.1904 53.3046Z" fill="#FFCE1F"/>
<path d="M48.2206 60.3119C50.7944 60.3119 53.3104 59.5486 55.4505 58.1187C57.5906 56.6888 59.2586 54.6563 60.2435 52.2784C61.2285 49.9005 61.4862 47.2839 60.9841 44.7595C60.4819 42.2351 59.2425 39.9163 57.4225 38.0964C55.6026 36.2764 53.2838 35.037 50.7594 34.5348C48.235 34.0327 45.6184 34.2904 43.2405 35.2754C40.8626 36.2604 38.8302 37.9283 37.4002 40.0684C35.9703 42.2085 35.207 44.7245 35.207 47.2983C35.211 50.7485 36.5833 54.0563 39.023 56.4959C41.4626 58.9356 44.7704 60.3079 48.2206 60.3119ZM48.2206 36.2869C50.3984 36.2869 52.5274 36.9327 54.3382 38.1426C56.149 39.3526 57.5604 41.0724 58.3938 43.0844C59.2273 45.0965 59.4453 47.3106 59.0205 49.4466C58.5956 51.5826 57.5468 53.5446 56.0068 55.0846C54.4669 56.6246 52.5048 57.6733 50.3688 58.0982C48.2328 58.5231 46.0188 58.305 44.0067 57.4716C41.9946 56.6382 40.2748 55.2268 39.0649 53.416C37.8549 51.6051 37.2091 49.4762 37.2091 47.2983C37.2126 44.379 38.3738 41.5802 40.4381 39.5159C42.5024 37.4516 45.3012 36.2903 48.2206 36.2869Z" fill="#6254B8"/>
</g>
<defs>
<clipPath id="clip0_10_148">
<rect width="62" height="62" fill="white" transform="translate(7.17786 7.25671)"/>
</clipPath>
</defs>
</svg>
