<svg width="91" height="90" viewBox="0 0 91 90" fill="none" xmlns="http://www.w3.org/2000/svg">
<g clip-path="url(#clip0_3529_52980)">
<path d="M80.4605 62.9624V77.1299C80.4595 77.4427 80.3317 77.7425 80.1049 77.9637C79.8781 78.1849 79.5708 78.3096 79.25 78.3105H11.4644C11.1436 78.3096 10.8363 78.1849 10.6095 77.9637C10.3827 77.7425 10.2548 77.4427 10.2539 77.1299V55.8786H13.2195C14.1251 55.8791 15.0127 55.6315 15.781 55.1639C16.5493 54.6963 17.1675 54.0276 17.5651 53.234C21.3175 45.7961 33.1195 25.1824 48.9886 25.1824C59.8827 25.1824 61.0931 29.9049 61.0931 32.2661C61.0931 34.6274 58.6722 38.1693 55.0409 38.1693C54.4765 38.9017 53.7453 39.4963 52.9051 39.906C52.0648 40.3158 51.1384 40.5296 50.199 40.5305C50.094 40.5325 49.9889 40.5285 49.8843 40.5187C45.3572 42.8918 41.7258 46.1621 41.7258 51.1561C41.6905 52.2507 41.8856 53.3408 42.2989 54.359C42.7122 55.3773 43.3351 56.3021 44.129 57.0765C44.923 57.8509 45.8712 58.4584 46.9152 58.8615C47.9592 59.2647 49.0768 59.4549 50.199 59.4205C59.2896 59.4205 57.8491 43.6592 71.5273 47.7559C71.7529 47.8243 71.9528 47.9559 72.1021 48.1345C72.2514 48.313 72.3434 48.5306 72.3667 48.7598C72.3899 48.9891 72.3433 49.22 72.2328 49.4236C72.1223 49.6272 71.9527 49.7945 71.7452 49.9047C69.2516 51.227 65.935 53.8007 65.935 58.2399C65.935 67.6849 80.4605 62.9624 80.4605 62.9624Z" fill="white"/>
<path d="M15.0957 77.8694H11.4644C11.1436 77.8685 10.8363 77.7506 10.6095 77.5413C10.3827 77.3321 10.2548 77.0485 10.2539 76.7526V56.6504H13.2195C13.4424 56.6526 13.6651 56.6376 13.8853 56.6057V76.7526C13.8862 77.0485 14.014 77.3321 14.2408 77.5413C14.4676 77.7506 14.775 77.8685 15.0957 77.8694Z" fill="white"/>
<path d="M51.0584 25.255C35.9761 26.5623 24.8278 46.5712 21.1964 53.9429C20.7988 54.7565 20.1806 55.4421 19.4123 55.9215C18.644 56.4009 17.7565 56.6548 16.8509 56.6543H13.8853V56.6059C14.6693 56.4957 15.4145 56.1955 16.0559 55.7314C16.6973 55.2672 17.2154 54.6532 17.565 53.9429C21.3175 46.317 33.1194 25.1824 48.9885 25.1824C49.7148 25.1824 50.4048 25.2066 51.0584 25.255Z" fill="white"/>
<path d="M67.895 48.3262C68.1206 48.3963 68.3206 48.5313 68.4699 48.7144C68.6191 48.8974 68.7112 49.1205 68.7344 49.3555C68.7577 49.5906 68.7111 49.8273 68.6006 50.0361C68.49 50.2448 68.3204 50.4164 68.1129 50.5293C65.6194 51.885 62.3027 54.5238 62.3027 59.0751C62.3027 64.7857 67.3534 65.4438 71.4985 65.0234C68.5142 64.6519 65.9341 63.1551 65.9341 59.0751C65.9341 54.5238 69.2508 51.885 71.7443 50.5293C71.9518 50.4164 72.1214 50.2448 72.2319 50.0361C72.3425 49.8273 72.389 49.5906 72.3658 49.3555C72.3425 49.1205 72.2505 48.8974 72.1012 48.7144C71.9519 48.5313 71.752 48.3963 71.5264 48.3262C69.6413 47.669 67.6231 47.4873 65.6509 47.7972C66.4102 47.9218 67.16 48.0986 67.895 48.3262Z" fill="white"/>
<path d="M57.4607 32.4451C57.3579 33.8926 56.7801 35.2656 55.817 36.351C54.854 37.4365 53.5596 38.1737 52.1347 38.4483C51.6598 38.5219 51.2226 38.7506 50.8912 39.0988C50.3277 39.6745 49.6549 40.132 48.9123 40.4444C48.1697 40.7568 47.3723 40.918 46.5666 40.9183C46.4616 40.9203 46.3565 40.9163 46.2519 40.9062C41.7248 43.3392 38.0934 46.6922 38.0934 51.8125C38.0581 52.9347 38.2532 54.0523 38.6665 55.0963C39.0798 56.1403 39.7027 57.0885 40.4966 57.8824C41.2906 58.6764 42.2388 59.2992 43.2828 59.7126C44.3268 60.1259 45.4444 60.3209 46.5666 60.2857C47.1457 60.2867 47.7226 60.2129 48.2828 60.0662C46.3789 59.7109 44.6672 58.6804 43.4624 57.164C42.2576 55.6477 41.6406 53.7474 41.7248 51.8125C41.7248 46.6922 45.3562 43.3392 49.8833 40.9062C49.9879 40.9163 50.0929 40.9203 50.198 40.9183C51.1374 40.9174 52.0638 40.6982 52.904 40.2781C53.7443 39.858 54.4754 39.2484 55.0398 38.4974C58.6712 38.4974 61.0921 34.866 61.0921 32.4451C61.0921 30.0242 59.8817 25.1824 48.9875 25.1824C48.4683 25.1824 47.9538 25.2077 47.4432 25.2517C56.401 25.836 57.4607 30.1893 57.4607 32.4451Z" fill="white"/>
<path d="M76.8281 64.6898V76.7957C76.8272 77.0801 76.6994 77.3526 76.4726 77.5537C76.2458 77.7548 75.9384 77.8682 75.6177 77.869H79.249C79.5698 77.8682 79.8771 77.7548 80.1039 77.5537C80.3308 77.3526 80.4586 77.0801 80.4595 76.7957V63.9165C79.2701 64.2465 78.0568 64.5048 76.8281 64.6898Z" fill="white"/>
<path d="M21.2607 44.8528L23.3091 46.1429C21.6126 48.8396 20.0579 51.6229 18.6514 54.4816L16.4783 53.4147C17.9223 50.4795 19.5186 47.6216 21.2607 44.8528Z" fill="white"/>
<path d="M18.7586 49.0701C18.68 49.2093 18.63 49.3627 18.6113 49.5215C18.5926 49.6803 18.6057 49.8411 18.6498 49.9948C18.694 50.1484 18.7682 50.2917 18.8683 50.4164C18.9684 50.541 19.0923 50.6445 19.2328 50.7208C19.4423 50.8359 19.6812 50.8864 19.9194 50.8659C20.1576 50.8454 20.3844 50.7549 20.5712 50.6057C20.758 50.4564 20.8964 50.2553 20.969 50.0275C21.0416 49.7997 21.0451 49.5555 20.9791 49.3257C20.9131 49.096 20.7805 48.8909 20.5981 48.7363C20.4157 48.5818 20.1916 48.4848 19.9541 48.4574C19.7166 48.4301 19.4763 48.4737 19.2636 48.5827C19.0508 48.6917 18.8751 48.8613 18.7586 49.0701Z" fill="url(#paint0_linear_3529_52980)"/>
<path d="M10.2539 57.8642H13.2204C14.3527 57.8689 15.4634 57.5536 16.4244 56.9548C17.3855 56.3559 18.1579 55.4978 18.6527 54.4793C18.7227 54.3366 18.7639 54.1814 18.7739 54.0228C18.784 53.8641 18.7627 53.705 18.7113 53.5546C18.6598 53.4042 18.5793 53.2653 18.4742 53.146C18.3691 53.0267 18.2416 52.9293 18.0988 52.8593C17.9561 52.7893 17.801 52.7481 17.6423 52.738C17.4836 52.728 17.3246 52.7493 17.1741 52.8007C17.0237 52.8521 16.8849 52.9327 16.7656 53.0378C16.6463 53.1428 16.5488 53.2704 16.4788 53.4131C16.1821 54.0241 15.7188 54.5389 15.1423 54.898C14.5658 55.2572 13.8996 55.4462 13.2204 55.4433H10.2539C9.93288 55.4433 9.625 55.5708 9.39799 55.7978C9.17099 56.0248 9.04346 56.3327 9.04346 56.6538C9.04346 56.9748 9.17099 57.2827 9.39799 57.5097C9.625 57.7367 9.93288 57.8642 10.2539 57.8642Z" fill="url(#paint1_linear_3529_52980)"/>
<path d="M80.0789 62.7687C77.9051 63.4885 71.6365 64.9047 68.7533 62.8248C68.1939 62.3834 67.7538 61.8092 67.4731 61.1543C67.1923 60.4994 67.0797 59.7847 67.1457 59.0752C67.1457 55.2181 69.9614 52.8777 72.3143 51.598C72.733 51.3726 73.0757 51.0286 73.2995 50.6091C73.5232 50.1896 73.618 49.7133 73.5719 49.2401C73.5258 48.7669 73.3409 48.3179 73.0404 47.9494C72.7399 47.581 72.3372 47.3096 71.8829 47.1693C63.1676 44.4923 59.7843 49.5629 57.0618 53.6358C55.1108 56.5544 53.4257 59.0752 50.1993 59.0752C49.2357 59.1117 48.275 58.9489 47.3773 58.5968C46.4796 58.2448 45.6643 57.7111 44.9825 57.0293C44.3006 56.3474 43.767 55.5321 43.4149 54.6344C43.0628 53.7367 42.9 52.776 42.9365 51.8125C42.9365 47.9292 45.2551 44.8476 50.1919 42.1288H50.1993C51.2269 42.1282 52.2427 41.9089 53.179 41.4853C54.1153 41.0618 54.9508 40.4437 55.6297 39.6723C57.4073 39.4275 59.0447 38.573 60.262 37.2548C61.4794 35.9366 62.2011 34.2365 62.3038 32.4451C62.3038 29.2806 60.5738 23.9719 48.9888 23.9719C47.4363 23.9927 45.8905 24.1794 44.3777 24.5287C42.8867 24.9089 41.4339 25.4254 40.0375 26.0716C37.3141 27.4006 34.7887 29.1018 32.5339 31.1265C28.1508 35.1494 24.3562 39.7697 21.2618 44.8511C21.1755 44.9858 21.117 45.1364 21.0897 45.294C21.0623 45.4516 21.0668 45.6131 21.1027 45.769C21.1387 45.9249 21.2054 46.072 21.2989 46.2017C21.3925 46.3315 21.511 46.4413 21.6476 46.5246C21.9198 46.6907 22.2463 46.7436 22.5571 46.672C22.8678 46.6003 23.1382 46.4099 23.3103 46.1413C26.2816 41.2572 29.9247 36.8149 34.1325 32.9448C36.2165 31.0709 38.5504 29.4953 41.0674 28.2629C42.3156 27.6865 43.6136 27.2246 44.9453 26.883C46.2722 26.5783 47.6275 26.414 48.9888 26.3928C53.9589 26.3928 59.8829 27.4432 59.8829 32.4451C59.7981 33.3076 59.5139 34.1385 59.0527 34.8722C58.5914 35.6059 57.9658 36.2222 57.2254 36.6724C57.3801 36.0827 57.4596 35.4757 57.462 34.866C57.4628 33.8958 57.2707 32.935 56.897 32.0396C56.8358 31.8929 56.7463 31.7596 56.6335 31.6474C56.5208 31.5352 56.3871 31.4463 56.2401 31.3858C56.093 31.3253 55.9355 31.2943 55.7764 31.2947C55.6174 31.2951 55.46 31.3268 55.3133 31.388C55.1665 31.4492 55.0332 31.5387 54.921 31.6514C54.8088 31.7641 54.72 31.8978 54.6594 32.0449C54.5989 32.1919 54.568 32.3495 54.5683 32.5085C54.5687 32.6675 54.6004 32.8249 54.6616 32.9717C54.9127 33.5717 55.0417 34.2157 55.0411 34.866C55.0396 36.1497 54.5291 37.3804 53.6214 38.2881C52.7136 39.1959 51.4829 39.7064 50.1993 39.7079C48.9407 39.7112 47.7316 39.2182 46.8342 38.3358C47.4975 37.6759 47.9484 36.8327 48.1288 35.9145C48.3093 34.9964 48.2111 34.0453 47.8468 33.1834C47.7216 32.8877 47.4841 32.654 47.1865 32.5334C46.889 32.4129 46.5557 32.4156 46.2601 32.5408C45.9644 32.666 45.7306 32.9035 45.6101 33.2011C45.4896 33.4986 45.4922 33.8319 45.6174 34.1275C45.7632 34.4734 45.8211 34.85 45.7861 35.2238C45.7511 35.5975 45.6241 35.9567 45.4166 36.2695C45.209 36.5823 44.9274 36.8389 44.5966 37.0164C44.2659 37.1939 43.8964 37.2869 43.521 37.287C43.1246 37.2859 42.7353 37.1818 42.3912 36.9848C42.0472 36.7878 41.7603 36.5048 41.5588 36.1634C41.3959 35.8868 41.1298 35.6861 40.819 35.6056C40.5082 35.5252 40.1782 35.5714 39.9015 35.7343C39.6249 35.8972 39.4242 36.1633 39.3437 36.4741C39.2633 36.7848 39.3096 37.1149 39.4724 37.3915C39.8886 38.0954 40.4807 38.679 41.1904 39.0851C41.9002 39.4912 42.7033 39.7058 43.521 39.7079C43.9064 39.7032 44.2897 39.6506 44.6621 39.5514C45.274 40.281 46.0254 40.8811 46.8723 41.3165C42.6063 44.2128 40.5156 47.6643 40.5156 51.8125C40.4779 53.0944 40.7027 54.3704 41.176 55.5623C41.6493 56.7542 42.3613 57.8368 43.2681 58.7436C44.1749 59.6505 45.2575 60.3624 46.4494 60.8357C47.6413 61.309 48.9174 61.5338 50.1993 61.4961C54.7196 61.4961 56.9336 58.1839 59.0743 54.9811C61.8157 50.8792 64.181 47.3364 71.1668 49.466C68.2278 51.0642 64.7248 54.0289 64.7248 59.0752C64.6518 60.17 64.8526 61.2658 65.3093 62.2636C65.7659 63.2613 66.4638 64.1296 67.3401 64.79C69.0968 65.8975 71.1528 66.4355 73.2269 66.3303C75.8132 66.2742 78.3781 65.8483 80.8437 65.0654C81.1443 64.9609 81.3916 64.7421 81.5322 64.4566C81.6727 64.1711 81.6951 63.8416 81.5946 63.5397C81.494 63.2377 81.2786 62.9875 80.9949 62.8432C80.7113 62.6989 80.3822 62.6721 80.0789 62.7687Z" fill="url(#paint2_linear_3529_52980)"/>
<path d="M71.9341 70.2118C70.9955 70.8423 69.8903 71.179 68.7596 71.179C67.6288 71.179 66.5237 70.8423 65.585 70.2118C64.2287 69.2634 62.6137 68.7547 60.9587 68.7547C59.3037 68.7547 57.6886 69.2634 56.3323 70.2118C55.3937 70.8423 54.2886 71.179 53.1578 71.179C52.0271 71.179 50.922 70.8423 49.9833 70.2118C48.6272 69.2631 47.0122 68.7542 45.3572 68.7542C43.7022 68.7542 42.0872 69.2631 40.7311 70.2118C39.7924 70.8423 38.6873 71.179 37.5566 71.179C36.4258 71.179 35.3207 70.8423 34.3821 70.2118C33.0258 69.2634 31.4108 68.7547 29.7557 68.7547C28.1007 68.7547 26.4857 69.2634 25.1294 70.2118C24.1907 70.8423 23.0856 71.179 21.9548 71.179C20.8241 71.179 19.7189 70.8423 18.7803 70.2118C17.4242 69.2627 15.8091 68.7537 14.154 68.7537C12.4988 68.7537 10.8837 69.2627 9.52764 70.2118C9.40047 70.3072 9.29334 70.4267 9.21235 70.5634C9.13136 70.7002 9.0781 70.8516 9.05562 71.009C9.03314 71.1663 9.04188 71.3266 9.08133 71.4806C9.12078 71.6346 9.19017 71.7793 9.28555 71.9064C9.38092 72.0336 9.50041 72.1407 9.63719 72.2217C9.77398 72.3027 9.92537 72.356 10.0827 72.3784C10.2401 72.4009 10.4003 72.3922 10.5543 72.3527C10.7083 72.3133 10.853 72.2439 10.9802 72.1485C11.9188 71.518 13.0239 71.1813 14.1547 71.1813C15.2854 71.1813 16.3905 71.518 17.3292 72.1485C18.6852 73.0974 20.3002 73.6064 21.9553 73.6064C23.6104 73.6064 25.2254 73.0974 26.5814 72.1485C27.5202 71.518 28.6254 71.1813 29.7562 71.1813C30.887 71.1813 31.9923 71.518 32.931 72.1485C34.2871 73.0972 35.9021 73.606 37.5571 73.606C39.2121 73.606 40.827 73.0972 42.1831 72.1485C43.1218 71.518 44.2269 71.1813 45.3577 71.1813C46.4884 71.1813 47.5936 71.518 48.5322 72.1485C49.8882 73.0976 51.5032 73.6066 53.1583 73.6066C54.8134 73.6066 56.4284 73.0976 57.7844 72.1485C58.7231 71.518 59.8283 71.1813 60.9592 71.1813C62.09 71.1813 63.1952 71.518 64.1339 72.1485C65.4901 73.0972 67.1051 73.606 68.7601 73.606C70.4151 73.606 72.0301 73.0972 73.3862 72.1485C74.3248 71.518 75.43 71.1813 76.5607 71.1813C77.6914 71.1813 78.7966 71.518 79.7352 72.1485C79.9925 72.3327 80.3117 72.4088 80.6244 72.3605C80.9372 72.3123 81.2186 72.1434 81.4084 71.8902C81.5981 71.637 81.6812 71.3195 81.6398 71.0058C81.5984 70.6921 81.4358 70.4071 81.1868 70.2118C79.8305 69.2633 78.2155 68.7545 76.5605 68.7545C74.9054 68.7545 73.2904 69.2633 71.9341 70.2118Z" fill="url(#paint3_linear_3529_52980)"/>
<path d="M71.9341 77.4745C70.9955 78.105 69.8903 78.4417 68.7596 78.4417C67.6288 78.4417 66.5237 78.105 65.585 77.4745C64.2287 76.526 62.6137 76.0174 60.9587 76.0174C59.3037 76.0174 57.6886 76.526 56.3323 77.4745C55.3937 78.105 54.2886 78.4417 53.1578 78.4417C52.0271 78.4417 50.922 78.105 49.9833 77.4745C48.6272 76.5258 47.0122 76.0169 45.3572 76.0169C43.7022 76.0169 42.0872 76.5258 40.7311 77.4745C39.7924 78.105 38.6873 78.4417 37.5566 78.4417C36.4259 78.4417 35.3207 78.105 34.3821 77.4745C33.0258 76.526 31.4108 76.0174 29.7557 76.0174C28.1007 76.0174 26.4857 76.526 25.1294 77.4745C24.1907 78.105 23.0856 78.4417 21.9548 78.4417C20.8241 78.4417 19.7189 78.105 18.7803 77.4745C17.4242 76.5254 15.8091 76.0164 14.154 76.0164C12.4988 76.0164 10.8837 76.5254 9.52765 77.4745C9.27082 77.6671 9.10103 77.9539 9.05563 78.2717C9.01023 78.5895 9.09293 78.9123 9.28555 79.1691C9.47817 79.426 9.76493 79.5957 10.0827 79.6411C10.4005 79.6865 10.7234 79.6038 10.9802 79.4112C11.9188 78.7807 13.0239 78.444 14.1547 78.444C15.2854 78.444 16.3905 78.7807 17.3292 79.4112C18.6852 80.3602 20.3002 80.8692 21.9553 80.8692C23.6104 80.8692 25.2254 80.3602 26.5814 79.4112C27.5202 78.7807 28.6254 78.444 29.7562 78.444C30.887 78.444 31.9923 78.7807 32.931 79.4112C34.2871 80.3599 35.9021 80.8688 37.5571 80.8688C39.2121 80.8688 40.827 80.3599 42.1831 79.4112C43.1218 78.7807 44.2269 78.444 45.3577 78.444C46.4884 78.444 47.5936 78.7807 48.5322 79.4112C49.8882 80.3603 51.5032 80.8693 53.1583 80.8693C54.8134 80.8693 56.4284 80.3603 57.7844 79.4112C58.7231 78.7807 59.8283 78.444 60.9592 78.444C62.09 78.444 63.1952 78.7807 64.1339 79.4112C65.4901 80.3599 67.1051 80.8688 68.7601 80.8688C70.4151 80.8688 72.0301 80.3599 73.3862 79.4112C74.3248 78.7807 75.43 78.444 76.5607 78.444C77.6914 78.444 78.7965 78.7807 79.7352 79.4112C79.9925 79.5954 80.3117 79.6715 80.6244 79.6232C80.9372 79.575 81.2186 79.4061 81.4083 79.1529C81.5981 78.8997 81.6812 78.5822 81.6398 78.2685C81.5984 77.9548 81.4358 77.6698 81.1868 77.4745C79.8305 76.526 78.2155 76.0172 76.5604 76.0172C74.9054 76.0172 73.2904 76.526 71.9341 77.4745Z" fill="url(#paint4_linear_3529_52980)"/>
<path d="M17.5166 22.7618H29.6212C30.4061 22.7618 31.1792 22.571 31.874 22.2059C32.5687 21.8407 33.1643 21.3121 33.6094 20.6656C34.0545 20.0192 34.3358 19.2742 34.4289 18.4948C34.5221 17.7155 34.4245 16.9252 34.1444 16.192C33.8643 15.4588 33.4101 14.8047 32.821 14.286C32.2319 13.7673 31.5256 13.3996 30.7628 13.2146C30.0001 13.0296 29.2038 13.0327 28.4425 13.2238C27.6812 13.4149 26.9778 13.7882 26.3929 14.3116C26.1572 14.5266 26.0158 14.826 25.9997 15.1447C25.9836 15.4634 26.094 15.7756 26.3068 16.0133C26.5196 16.251 26.8178 16.3951 27.1363 16.4142C27.4548 16.4333 27.768 16.3258 28.0077 16.1152C28.3002 15.8536 28.6519 15.6671 29.0325 15.5717C29.4132 15.4763 29.8113 15.4748 30.1926 15.5674C30.5739 15.66 30.927 15.844 31.2214 16.1033C31.5159 16.3627 31.7429 16.6898 31.8829 17.0564C32.0228 17.423 32.0716 17.8181 32.025 18.2077C31.9783 18.5973 31.8377 18.9698 31.6151 19.2929C31.3926 19.6161 31.0948 19.8804 30.7475 20.0629C30.4001 20.2455 30.0136 20.3409 29.6212 20.3409H17.5166C17.1956 20.3409 16.8877 20.4684 16.6607 20.6954C16.4337 20.9224 16.3062 21.2303 16.3062 21.5513C16.3062 21.8724 16.4337 22.1802 16.6607 22.4073C16.8877 22.6343 17.1956 22.7618 17.5166 22.7618Z" fill="url(#paint5_linear_3529_52980)"/>
<path d="M24.4337 12.837C25.2718 11.9817 26.3084 11.3469 27.4512 10.989C28.5939 10.6312 29.8075 10.5615 30.9837 10.7862C32.16 11.0108 33.2624 11.5228 34.1929 12.2766C35.1234 13.0304 35.8531 14.0025 36.317 15.1065C36.7808 16.2105 36.9646 17.4121 36.8517 18.6043C36.7389 19.7965 36.333 20.9422 35.6703 21.9396C35.0075 22.937 34.1084 23.755 33.053 24.3208C31.9977 24.8867 30.8187 25.1828 29.6212 25.1827H11.4644C11.1433 25.1827 10.8354 25.3103 10.6084 25.5373C10.3814 25.7643 10.2539 26.0722 10.2539 26.3932C10.2539 26.7142 10.3814 27.0221 10.6084 27.2491C10.8354 27.4761 11.1433 27.6037 11.4644 27.6037H29.6212C31.2179 27.6037 32.7898 27.2089 34.197 26.4544C35.6042 25.7 36.8031 24.6093 37.6867 23.2794C38.5704 21.9495 39.1116 20.4218 39.262 18.8322C39.4124 17.2426 39.1674 15.6405 38.5488 14.1685C37.9303 12.6965 36.9573 11.4003 35.7166 10.3953C34.4759 9.39025 33.0059 8.70763 31.4376 8.40817C29.8692 8.10871 28.2511 8.2017 26.7274 8.67887C25.2037 9.15604 23.8216 10.0026 22.7042 11.1431C22.4823 11.373 22.3603 11.6813 22.3647 12.0008C22.3692 12.3203 22.4998 12.625 22.7281 12.8486C22.9564 13.0722 23.2638 13.1964 23.5833 13.1942C23.9028 13.1921 24.2085 13.0637 24.4337 12.837Z" fill="url(#paint6_linear_3529_52980)"/>
<path d="M10.2539 22.7617H12.6748C12.9959 22.7617 13.3037 22.6342 13.5308 22.4072C13.7578 22.1802 13.8853 21.8723 13.8853 21.5513C13.8853 21.2302 13.7578 20.9224 13.5308 20.6954C13.3037 20.4684 12.9959 20.3408 12.6748 20.3408H10.2539C9.93288 20.3408 9.625 20.4684 9.39799 20.6954C9.17099 20.9224 9.04346 21.2302 9.04346 21.5513C9.04346 21.8723 9.17099 22.1802 9.39799 22.4072C9.625 22.6342 9.93288 22.7617 10.2539 22.7617Z" fill="url(#paint7_linear_3529_52980)"/>
<path d="M68.355 13.0781H73.1968C73.5179 13.0781 73.8257 12.9506 74.0527 12.7236C74.2798 12.4966 74.4073 12.1887 74.4073 11.8677C74.4073 11.5467 74.2798 11.2388 74.0527 11.0118C73.8257 10.7848 73.5179 10.6572 73.1968 10.6572H68.355C68.034 10.6572 67.7261 10.7848 67.4991 11.0118C67.2721 11.2388 67.1445 11.5467 67.1445 11.8677C67.1445 12.1887 67.2721 12.4966 67.4991 12.7236C67.7261 12.9506 68.034 13.0781 68.355 13.0781Z" fill="url(#paint8_linear_3529_52980)"/>
<path d="M80.4595 10.6572H78.0386C77.7175 10.6572 77.4097 10.7848 77.1827 11.0118C76.9557 11.2388 76.8281 11.5467 76.8281 11.8677C76.8281 12.1887 76.9557 12.4966 77.1827 12.7236C77.4097 12.9506 77.7175 13.0781 78.0386 13.0781H80.4595C80.7805 13.0781 81.0884 12.9506 81.3154 12.7236C81.5424 12.4966 81.67 12.1887 81.67 11.8677C81.67 11.5467 81.5424 11.2388 81.3154 11.0118C81.0884 10.7848 80.7805 10.6572 80.4595 10.6572Z" fill="url(#paint9_linear_3529_52980)"/>
<path d="M80.4596 15.499H65.9341C65.6131 15.499 65.3052 15.6266 65.0782 15.8536C64.8512 16.0806 64.7236 16.3884 64.7236 16.7095C64.7236 17.0305 64.8512 17.3384 65.0782 17.5654C65.3052 17.7924 65.6131 17.9199 65.9341 17.9199H80.4596C80.7806 17.9199 81.0885 17.7924 81.3155 17.5654C81.5425 17.3384 81.67 17.0305 81.67 16.7095C81.67 16.3884 81.5425 16.0806 81.3155 15.8536C81.0885 15.6266 80.7806 15.499 80.4596 15.499Z" fill="url(#paint10_linear_3529_52980)"/>
<path d="M73.1969 26.3928C71.2346 26.3948 69.3336 27.077 67.8178 28.3231C67.6951 28.4242 67.5935 28.5484 67.5188 28.6887C67.4441 28.8291 67.3977 28.9827 67.3824 29.141C67.3671 29.2992 67.3831 29.4589 67.4295 29.6109C67.4759 29.763 67.5518 29.9044 67.6528 30.0271C67.8569 30.2749 68.1511 30.4316 68.4706 30.4625C68.6289 30.4778 68.7886 30.4618 68.9406 30.4154C69.0927 30.369 69.2341 30.2931 69.3568 30.1921C70.1064 29.5762 70.9931 29.1496 71.9421 28.9482C72.8912 28.7468 73.8747 28.7766 74.8098 29.035C75.745 29.2934 76.6042 29.7729 77.3152 30.433C78.0262 31.0931 78.568 31.9144 78.895 32.8278C79.222 33.7412 79.3246 34.7199 79.1941 35.6812C79.0636 36.6426 78.7039 37.5585 78.1453 38.3516C77.5866 39.1448 76.8454 39.7921 75.9842 40.2388C75.123 40.6855 74.167 40.9185 73.1969 40.9183H63.5132C63.1922 40.9183 62.8843 41.0458 62.6573 41.2729C62.4303 41.4999 62.3027 41.8077 62.3027 42.1288C62.3027 42.4498 62.4303 42.7577 62.6573 42.9847C62.8843 43.2117 63.1922 43.3392 63.5132 43.3392H73.1969C75.4441 43.3392 77.5993 42.4465 79.1883 40.8575C80.7774 39.2685 81.6701 37.1133 81.6701 34.866C81.6701 32.6188 80.7774 30.4636 79.1883 28.8746C77.5993 27.2855 75.4441 26.3928 73.1969 26.3928Z" fill="url(#paint11_linear_3529_52980)"/>
<path d="M73.1968 36.0765H65.9341C65.6131 36.0765 65.3052 36.204 65.0782 36.431C64.8512 36.658 64.7236 36.9659 64.7236 37.2869C64.7236 37.6079 64.8512 37.9158 65.0782 38.1428C65.3052 38.3698 65.6131 38.4974 65.9341 38.4974H73.1968C73.7469 38.4972 74.2898 38.372 74.7844 38.1313C75.2791 37.8906 75.7126 37.5407 76.0522 37.108C76.3918 36.6752 76.6287 36.171 76.7449 35.6333C76.8612 35.0957 76.8537 34.5386 76.7232 34.0042C76.5926 33.4699 76.3424 32.9721 75.9914 32.5486C75.6403 32.1251 75.1976 31.7869 74.6968 31.5594C74.1959 31.332 73.6499 31.2214 73.1 31.2359C72.5501 31.2504 72.0106 31.3896 71.5224 31.643C71.2376 31.7912 71.0233 32.0464 70.9266 32.3525C70.83 32.6587 70.8589 32.9907 71.0071 33.2755C71.1552 33.5603 71.4104 33.7746 71.7166 33.8713C72.0227 33.9679 72.3547 33.939 72.6395 33.7909C72.8116 33.7012 73.0028 33.6547 73.1968 33.6555C73.5179 33.6555 73.8258 33.7831 74.0528 34.0101C74.2798 34.2371 74.4073 34.545 74.4073 34.866C74.4073 35.187 74.2798 35.4949 74.0528 35.7219C73.8258 35.9489 73.5179 36.0765 73.1968 36.0765Z" fill="url(#paint12_linear_3529_52980)"/>
</g>
<defs>
<linearGradient id="paint0_linear_3529_52980" x1="18.603" y1="50.8704" x2="21.0239" y2="48.4473" gradientUnits="userSpaceOnUse">
<stop stop-color="#A03291"/>
<stop offset="1" stop-color="#FF7C66"/>
</linearGradient>
<linearGradient id="paint1_linear_3529_52980" x1="9.04346" y1="57.8643" x2="13.2738" y2="49.8361" gradientUnits="userSpaceOnUse">
<stop stop-color="#A03291"/>
<stop offset="1" stop-color="#FF7C66"/>
</linearGradient>
<linearGradient id="paint2_linear_3529_52980" x1="21.072" y1="66.3433" x2="60.8719" y2="9.43561" gradientUnits="userSpaceOnUse">
<stop stop-color="#A03291"/>
<stop offset="1" stop-color="#FF7C66"/>
</linearGradient>
<linearGradient id="paint3_linear_3529_52980" x1="9.04346" y1="73.6066" x2="9.68931" y2="63.9439" gradientUnits="userSpaceOnUse">
<stop stop-color="#A03291"/>
<stop offset="1" stop-color="#FF7C66"/>
</linearGradient>
<linearGradient id="paint4_linear_3529_52980" x1="9.04346" y1="80.8693" x2="9.68931" y2="71.2065" gradientUnits="userSpaceOnUse">
<stop stop-color="#A03291"/>
<stop offset="1" stop-color="#FF7C66"/>
</linearGradient>
<linearGradient id="paint5_linear_3529_52980" x1="16.3062" y1="22.7618" x2="24.3479" y2="7.68336" gradientUnits="userSpaceOnUse">
<stop stop-color="#A03291"/>
<stop offset="1" stop-color="#FF7C66"/>
</linearGradient>
<linearGradient id="paint6_linear_3529_52980" x1="10.2539" y1="27.6037" x2="28.1314" y2="0.787274" gradientUnits="userSpaceOnUse">
<stop stop-color="#A03291"/>
<stop offset="1" stop-color="#FF7C66"/>
</linearGradient>
<linearGradient id="paint7_linear_3529_52980" x1="9.04346" y1="22.7617" x2="10.9802" y2="18.8883" gradientUnits="userSpaceOnUse">
<stop stop-color="#A03291"/>
<stop offset="1" stop-color="#FF7C66"/>
</linearGradient>
<linearGradient id="paint8_linear_3529_52980" x1="67.1445" y1="13.0781" x2="68.5971" y2="8.72049" gradientUnits="userSpaceOnUse">
<stop stop-color="#A03291"/>
<stop offset="1" stop-color="#FF7C66"/>
</linearGradient>
<linearGradient id="paint9_linear_3529_52980" x1="76.8281" y1="13.0781" x2="78.7649" y2="9.20468" gradientUnits="userSpaceOnUse">
<stop stop-color="#A03291"/>
<stop offset="1" stop-color="#FF7C66"/>
</linearGradient>
<linearGradient id="paint10_linear_3529_52980" x1="64.7236" y1="17.9199" x2="65.4015" y2="13.1749" gradientUnits="userSpaceOnUse">
<stop stop-color="#A03291"/>
<stop offset="1" stop-color="#FF7C66"/>
</linearGradient>
<linearGradient id="paint11_linear_3529_52980" x1="62.3027" y1="43.3392" x2="79.0992" y2="24.1433" gradientUnits="userSpaceOnUse">
<stop stop-color="#A03291"/>
<stop offset="1" stop-color="#FF7C66"/>
</linearGradient>
<linearGradient id="paint12_linear_3529_52980" x1="64.7236" y1="38.4974" x2="71.1323" y2="27.8175" gradientUnits="userSpaceOnUse">
<stop stop-color="#A03291"/>
<stop offset="1" stop-color="#FF7C66"/>
</linearGradient>
<clipPath id="clip0_3529_52980">
<rect width="72.9112" height="72.9112" fill="white" transform="translate(9.04443 8.2373)"/>
</clipPath>
</defs>
</svg>
