<svg width="26" height="24" viewBox="0 0 26 24" fill="none" xmlns="http://www.w3.org/2000/svg">
<path d="M16.912 8.42512C16.714 8.43079 16.5261 8.51205 16.388 8.65168L11.8455 13.1214L9.84375 11.1517C9.77352 11.0797 9.68939 11.0222 9.59631 10.9826C9.50322 10.9431 9.40305 10.9221 9.30164 10.9211C9.20024 10.9201 9.09965 10.939 9.00577 10.9767C8.91188 11.0145 8.82659 11.0702 8.75488 11.1408C8.68318 11.2113 8.6265 11.2953 8.58817 11.3877C8.54984 11.48 8.53062 11.579 8.53166 11.6788C8.53269 11.7786 8.55394 11.8771 8.59417 11.9687C8.6344 12.0603 8.6928 12.1431 8.76595 12.2122L11.3066 14.7122C11.4496 14.8528 11.6434 14.9318 11.8455 14.9318C12.0476 14.9318 12.2415 14.8528 12.3844 14.7122L17.4658 9.71222C17.5757 9.60685 17.6508 9.47126 17.6811 9.32321C17.7115 9.17515 17.6957 9.02153 17.6359 8.88245C17.576 8.74337 17.4749 8.6253 17.3457 8.5437C17.2166 8.4621 17.0654 8.42077 16.912 8.42512Z" fill="currentColor"/>
<path d="M13.114 2C7.5103 2 2.95129 6.48604 2.95129 12C2.95129 17.514 7.5103 22 13.114 22C18.7176 22 23.2766 17.514 23.2766 12C23.2766 6.48604 18.7176 2 13.114 2ZM13.114 3.5C17.8938 3.5 21.7522 7.2967 21.7522 12C21.7522 16.7033 17.8938 20.5 13.114 20.5C8.33415 20.5 4.47569 16.7033 4.47569 12C4.47569 7.2967 8.33415 3.5 13.114 3.5Z" fill="currentColor"/>
</svg>
