<svg width="24" height="24" viewBox="0 0 24 24" fill="none" xmlns="http://www.w3.org/2000/svg">
<g clip-path="url(#clip0_1101_4238)">
<path fill-rule="evenodd" clip-rule="evenodd" d="M11.9233 23.3827C14.9621 23.3827 17.879 22.1738 20.0269 20.0259C22.1748 17.878 23.3837 14.9612 23.3837 11.9223C23.3837 8.88345 22.1748 5.9666 20.0269 3.8187C17.8753 1.6708 14.9621 0.461914 11.9233 0.461914C8.88443 0.461914 5.96757 1.6708 3.81968 3.8187C1.67178 5.9666 0.462891 8.88345 0.462891 11.9223C0.462891 14.9612 1.67178 17.878 3.81968 20.0259C5.96757 22.1738 8.88443 23.3827 11.9233 23.3827Z" fill="black"/>
<path fill-rule="evenodd" clip-rule="evenodd" d="M11.3093 7.86278C11.0949 7.7186 10.8435 7.63727 10.5847 7.62248C10.3259 7.61139 10.0672 7.66684 9.83794 7.78884C9.60874 7.91084 9.4165 8.09199 9.28341 8.3175C9.15032 8.53931 9.08008 8.7944 9.08008 9.05318L9.08008 14.7834C9.08008 15.0422 9.15032 15.2972 9.28341 15.5191C9.4165 15.7409 9.60874 15.922 9.83794 16.0477C10.0672 16.1697 10.3259 16.2289 10.5847 16.2141C10.8435 16.203 11.0949 16.118 11.3093 15.9738L15.6051 13.1087C15.801 12.9793 15.9637 12.8018 16.0746 12.5911C16.1855 12.3841 16.2447 12.1512 16.2447 11.9146C16.2447 11.678 16.1855 11.4451 16.0746 11.238C15.9637 11.031 15.801 10.8536 15.6051 10.7205L11.3093 7.85538L11.3093 7.86278Z" fill="white"/>
</g>
<defs>
<clipPath id="clip0_1101_4238">
<rect width="23.0769" height="23.0769" fill="white" transform="translate(0.462891 0.461914)"/>
</clipPath>
</defs>
</svg>
