<svg width="50" height="50" viewBox="0 0 50 50" fill="none" xmlns="http://www.w3.org/2000/svg">
<g clip-path="url(#clip0_1645_21770)">
<ellipse cx="25.871" cy="43.386" rx="17.4335" ry="2.0012" fill="#BCB7DE"/>
<path d="M42.09 23.4062V25.2469C42.087 25.8628 41.6586 26.3945 41.0582 26.5288L39.1781 26.9494L38.5275 27.0938C38.1702 28.8194 37.4872 30.461 36.5163 31.9312L37.9101 34.1269C38.2428 34.6463 38.1694 35.3278 37.7326 35.7638L36.4376 37.0589C36.0015 37.4949 35.3201 37.569 34.8007 37.2364L34.485 37.0388L32.605 35.8426C32.2762 36.0594 31.9343 36.2632 31.5862 36.4476C30.3915 37.1067 29.1042 37.5806 27.7675 37.8546L27.2018 40.3852C27.0675 40.9864 26.5357 41.4148 25.9199 41.4171H24.08C24.0576 41.4186 24.0352 41.4155 24.0144 41.4101C23.424 41.3831 22.9254 40.9625 22.7988 40.3844L22.2331 37.8538C20.5074 37.4965 18.8659 36.8142 17.3956 35.8426L16.4425 36.4476L15.2007 37.2364C14.6813 37.569 13.9998 37.4949 13.5638 37.0589L13.5445 37.0388L12.2695 35.7638C11.8327 35.3278 11.7594 34.6463 12.092 34.1269L13.4858 31.9312C12.5142 30.461 11.8319 28.8194 11.4746 27.0938L9.59457 26.6731L8.94397 26.5288C8.34276 26.3945 7.91442 25.8628 7.91211 25.2469V23.4062C7.9152 22.7904 8.34353 22.2586 8.94397 22.1243L11.4746 21.5586C11.8319 19.8329 12.515 18.1914 13.4858 16.7211L12.092 14.5255C11.7594 14.006 11.8327 13.3246 12.2695 12.8885L13.5646 11.5935C14.0006 11.1567 14.6821 11.0833 15.2015 11.416L16.4433 12.2047L17.3964 12.809C18.8666 11.8374 20.5082 11.1551 22.2339 10.7978L22.7996 8.26715C22.9262 7.68987 23.4247 7.26925 24.0151 7.24147C24.0367 7.23606 24.0591 7.23375 24.0807 7.23452H25.9206C26.5365 7.23761 27.0683 7.66594 27.2026 8.26638L27.7683 10.797C29.105 11.0702 30.3923 11.5449 31.587 12.204C31.9351 12.3876 32.277 12.5914 32.6057 12.8083L34.4858 11.612L34.8014 11.4152C35.3208 11.0826 36.0023 11.1559 36.4384 11.5927L37.7334 12.8878C38.1702 13.3238 38.2435 14.0053 37.9109 14.5247L36.5171 16.7204C37.4887 18.1906 38.171 19.8322 38.5283 21.5578L41.059 22.1235C41.6602 22.2578 42.0877 22.7896 42.0908 23.4055L42.09 23.4062Z" fill="#EFEDF7"/>
<path d="M40.1182 23.4054V25.2461C40.1151 25.862 39.6875 26.3937 39.0863 26.528L36.5557 27.0929C36.1983 28.8186 35.5161 30.4602 34.5444 31.9304L35.9382 34.1261C36.2709 34.6455 36.1968 35.327 35.7607 35.763L34.4858 37.038L32.6057 35.8417C32.277 36.0586 31.9351 36.2624 31.587 36.4468L30.6339 35.8417C29.1636 36.8134 27.5221 37.4957 25.7964 37.853L25.2315 40.3836C25.1296 40.9763 24.6163 41.4093 24.0151 41.4093C23.4139 41.4093 22.9007 40.9763 22.7996 40.3836L22.2339 37.853C20.5082 37.4957 18.8666 36.8134 17.3964 35.8417L16.4433 36.4468C16.0952 36.2624 15.7533 36.0586 15.4245 35.8417L13.5445 37.038L12.2695 35.763C11.8327 35.327 11.7594 34.6455 12.092 34.1261L13.4858 31.9304C12.5142 30.4602 11.8319 28.8186 11.4746 27.0929L9.59457 26.6723L8.94397 26.528C8.34276 26.3937 7.91442 25.862 7.91211 25.2461V23.4054C7.9152 22.7895 8.34353 22.2578 8.94397 22.1235L11.4746 21.5578C11.8319 19.8321 12.515 18.1905 13.4858 16.7203L12.092 14.5246C11.7594 14.0052 11.8327 13.3238 12.2695 12.8877L13.5445 11.6127L15.4245 12.809C15.7533 12.5921 16.0952 12.3884 16.4433 12.2047L17.3964 12.809C18.8666 11.8373 20.5082 11.1551 22.2339 10.7977L22.7996 8.2671C22.9007 7.67515 23.4147 7.24219 24.0151 7.24219C24.6156 7.24219 25.1296 7.67515 25.2315 8.2671L25.7964 10.7977C27.5221 11.1551 29.1636 11.8373 30.6339 12.809L31.587 12.2047C31.9351 12.3884 32.277 12.5921 32.6057 12.809L34.4858 11.6127L35.7607 12.8877C36.1968 13.3238 36.2709 14.0052 35.9382 14.5246L34.5444 16.7203C35.5161 18.1905 36.1983 19.8321 36.5557 21.5578L39.0863 22.1235C39.6875 22.2578 40.1151 22.7895 40.1182 23.4054Z" fill="#E8EDFC"/>
<path d="M36.1759 24.3257C36.1782 27.2901 35.0012 30.1333 32.9051 32.2302C30.8089 34.3263 27.9657 35.5025 25.0014 35.5002C24.6718 35.5017 24.343 35.4863 24.015 35.4539C23.0025 35.3705 22.0069 35.1452 21.0576 34.7832C16.18 32.9433 13.2226 27.9754 13.9303 22.8107C14.638 17.646 18.8226 13.6567 24.0158 13.1967C24.3438 13.1651 24.6726 13.1496 25.0021 13.1504C27.9657 13.1504 30.8082 14.3274 32.9043 16.4227C34.9997 18.5181 36.1774 21.3613 36.1766 24.3249L36.1759 24.3257Z" fill="#9087C8"/>
<path d="M34.588 24.3254C34.5903 28.9769 31.71 33.1429 27.358 34.7837C26.4087 35.1449 25.4124 35.3711 24.3998 35.4544C23.3872 35.3711 22.3917 35.1457 21.4424 34.7837C16.5648 32.9438 13.6073 27.9759 14.3151 22.8112C15.0228 17.6465 19.2073 13.6572 24.4006 13.1973C30.1688 13.7028 34.5934 18.5348 34.5887 24.3254H34.588Z" fill="#BDB7DE"/>
<path d="M8.94279 26.5273L9.59339 26.6716L11.4734 27.0922C11.8308 28.8179 12.5138 30.4595 13.4847 31.9297L12.0908 34.1254C11.7582 34.6448 11.8315 35.3263 12.2684 35.7623L13.5433 37.0373L13.5626 37.0574C13.9987 37.4934 14.6801 37.5675 15.1995 37.2349L15.5129 37.0358L14.2395 35.7623C13.8034 35.3263 13.7293 34.6448 14.062 34.1254L15.4558 31.9297C14.4841 30.4595 13.8019 28.8179 13.4445 27.0922L11.5645 26.6716L10.9139 26.5273C10.3127 26.393 9.88512 25.8613 9.88203 25.2454V23.4047C9.88512 22.7888 10.3127 22.2571 10.9139 22.1228L13.4445 21.5571C13.8019 19.8314 14.4841 18.1899 15.4558 16.7196L14.062 14.5239C13.7293 14.0045 13.8034 13.3231 14.2395 12.887L15.5129 11.6136L15.1995 11.4145C14.6801 11.0818 13.9987 11.1552 13.5626 11.592L12.2676 12.887C11.8308 13.3231 11.7574 14.0045 12.0901 14.5239L13.4839 16.7196C12.5122 18.1899 11.83 19.8314 11.4727 21.5571L8.94202 22.1228C8.34081 22.2571 7.91247 22.7888 7.91016 23.4047V25.2454C7.91324 25.8613 8.34158 26.393 8.94202 26.5273H8.94279Z" fill="#F9FAFB"/>
<path d="M6.3328 14.1664C7.68032 11.5308 9.60589 9.23479 11.966 7.44814C13.0758 6.6208 14.2666 5.90922 15.5215 5.32422L16.0733 6.51738C14.9033 7.06302 13.792 7.72752 12.7563 8.49852C10.5552 10.1648 8.75926 12.3072 7.50281 14.7653L6.33203 14.1656L6.3328 14.1664Z" fill="#F9FAFB"/>
<path d="M7.25198 23.4094V25.2439C7.24735 26.17 7.89178 26.9726 8.79629 27.1687L10.921 27.641C11.2775 29.1591 11.8803 30.6077 12.7038 31.9313L11.5322 33.7743C11.0306 34.553 11.1433 35.5756 11.8016 36.227L13.0989 37.5243C13.7503 38.1826 14.7729 38.2953 15.5516 37.7937L17.3946 36.6213C18.7182 37.4456 20.1668 38.0476 21.6849 38.4049L22.1572 40.5296C22.354 41.4341 23.1567 42.0778 24.082 42.0739H25.9165C26.8426 42.0778 27.6453 41.4341 27.8413 40.5288L28.3136 38.4041C29.8309 38.0476 31.2803 37.4448 32.6039 36.6213L34.4461 37.7937C35.2249 38.2953 36.2482 38.1826 36.8988 37.5243L38.1962 36.227C38.8545 35.5756 38.9664 34.553 38.4655 33.7743L37.2932 31.9313C38.1175 30.6077 38.7194 29.1591 39.076 27.641L41.2015 27.1687C42.106 26.9719 42.7496 26.1692 42.745 25.2439V23.4094C42.7496 22.4832 42.106 21.6814 41.2015 21.4846L39.0768 21.0122C38.7202 19.4942 38.1175 18.0455 37.294 16.722L38.4655 14.8797C38.9672 14.101 38.8545 13.0777 38.1962 12.4263L36.8988 11.1289C36.2475 10.4706 35.2249 10.3587 34.4461 10.8596L32.6032 12.0319C31.2796 11.2076 29.8302 10.6057 28.3129 10.2491L27.8405 8.12365C27.6437 7.21913 26.8411 6.57547 25.9157 6.5801H24.0812C23.1559 6.57547 22.3532 7.21913 22.1564 8.12442L21.6841 10.2491C20.166 10.6057 18.7174 11.2084 17.3938 12.0319L15.5516 10.8604C14.7729 10.3587 13.7495 10.4706 13.0982 11.1297L11.8008 12.427C11.1425 13.0784 11.0306 14.101 11.5315 14.8797L12.7038 16.7227C11.8795 18.0463 11.2775 19.4957 10.921 21.013L8.79552 21.4853C7.89101 21.6821 7.24735 22.4848 7.25198 23.4101V23.4094ZM11.6164 22.2039C11.8695 22.1475 12.0663 21.9476 12.118 21.6929C12.453 20.0483 13.1036 18.4831 14.0328 17.0847C14.1763 16.8686 14.1786 16.5884 14.0397 16.3693L12.642 14.172C12.4753 13.9127 12.5124 13.5716 12.7323 13.3547L14.0297 12.0574C14.2466 11.8382 14.5877 11.8011 14.847 11.9678L17.0435 13.3655C17.2619 13.5044 17.542 13.5014 17.7589 13.3586C19.1573 12.4294 20.7217 11.7788 22.3671 11.4438C22.6218 11.3921 22.8217 11.1953 22.8781 10.9422L23.4407 8.40766C23.5063 8.10667 23.7741 7.89212 24.0828 7.89289H25.9173C26.226 7.89134 26.4938 8.1059 26.5594 8.40766L27.1228 10.9422C27.1791 11.1953 27.379 11.3921 27.6337 11.4438C29.2791 11.7788 30.8435 12.4294 32.242 13.3586C32.4581 13.5014 32.7382 13.5037 32.9574 13.3655L35.1539 11.9678C35.4132 11.8011 35.7543 11.839 35.9712 12.0574L37.2685 13.3547C37.4877 13.5716 37.5255 13.9127 37.358 14.1728L35.9604 16.3693C35.8207 16.5877 35.8238 16.8686 35.9665 17.0847C36.8958 18.4831 37.5464 20.0475 37.8813 21.6929C37.933 21.9469 38.1298 22.1475 38.383 22.2039L40.9175 22.7673C41.2192 22.8329 41.4338 23.1007 41.4322 23.4094V25.2439C41.4338 25.5526 41.2192 25.8204 40.9175 25.886L38.383 26.4494C38.1298 26.5057 37.933 26.7056 37.8813 26.9603C37.5464 28.6057 36.8958 30.1709 35.9665 31.5685C35.823 31.7846 35.8207 32.0656 35.9596 32.284L37.3573 34.4804C37.524 34.7398 37.4862 35.0809 37.267 35.2977L35.9696 36.5951C35.7528 36.815 35.4109 36.8529 35.1523 36.6846L32.9559 35.2869C32.7374 35.1472 32.4565 35.1503 32.2404 35.2939C30.842 36.2231 29.2776 36.8737 27.6322 37.2087C27.3775 37.2604 27.1776 37.4572 27.1213 37.7103L26.5579 40.2448C26.4923 40.5466 26.2245 40.7611 25.9157 40.7596H24.0812C23.7725 40.7611 23.5047 40.5466 23.4391 40.2448L22.8757 37.7103C22.8194 37.4572 22.6195 37.2604 22.3648 37.2087C20.7194 36.8737 19.155 36.2231 17.7566 35.2939C17.5405 35.1511 17.2603 35.148 17.0411 35.2877L14.8447 36.6854C14.5854 36.8529 14.2442 36.815 14.0274 36.5951L12.73 35.2977C12.5108 35.0809 12.473 34.739 12.6405 34.4797L14.0382 32.2832C14.1779 32.064 14.1748 31.7839 14.0312 31.5678C13.102 30.1693 12.4522 28.6049 12.1165 26.9595C12.0647 26.7056 11.8679 26.5049 11.6148 26.4486L9.08031 25.8852C8.77854 25.8196 8.56399 25.5518 8.56553 25.2431V23.4086C8.56399 23.0999 8.77854 22.8321 9.08031 22.7665L11.6148 22.2031L11.6164 22.2039Z" fill="#6254B8"/>
<path d="M20.7481 35.3535C20.796 35.3782 20.8461 35.3967 20.8978 35.4083C23.5419 36.4062 26.4584 36.4062 29.1025 35.4083C29.1542 35.3959 29.2044 35.3782 29.2523 35.3535C34.5721 33.3052 37.6746 27.7546 36.6327 22.15C35.5908 16.5454 30.7009 12.4805 25.0006 12.4805C19.3003 12.4805 14.4103 16.5454 13.3684 22.15C12.3265 27.7546 15.4291 33.3052 20.7489 35.3535H20.7481ZM28.286 34.3085C26.1528 35.0193 23.846 35.0193 21.7128 34.3085H28.286ZM20.3985 33.7675C15.994 31.6274 13.6509 26.7274 14.7514 21.9555C15.8512 17.1829 20.1029 13.8033 24.9998 13.8079C29.8975 13.8041 34.1484 17.1829 35.2482 21.9555C36.3479 26.7274 34.0056 31.6274 29.6011 33.7675H20.3985Z" fill="#6254B8"/>
<path d="M33.9262 6.51665C37.4347 8.13119 40.3335 10.827 42.1965 14.2104L40.2486 13.8207C39.8943 13.7536 39.5516 13.9835 39.4806 14.337C39.4096 14.6905 39.6373 15.0355 39.99 15.1096L43.277 15.7671C43.3194 15.7756 43.3627 15.7795 43.4051 15.7795H43.4059C43.4923 15.7779 43.578 15.7594 43.6567 15.7247C43.6652 15.7216 43.6737 15.7231 43.6814 15.7193C43.6984 15.7077 43.7154 15.6961 43.7316 15.6822C43.7763 15.6567 43.8188 15.6259 43.8566 15.5904C43.8797 15.568 43.9006 15.5441 43.9199 15.5178C43.9685 15.453 44.0063 15.3797 44.0295 15.3017C44.0349 15.284 44.0457 15.2693 44.0495 15.2508L44.7063 11.9638C44.7742 11.6096 44.5435 11.2669 44.19 11.1959C43.8365 11.1249 43.4915 11.3526 43.4182 11.7053L43.1242 13.1732C41.1191 9.72953 38.1007 6.98897 34.4803 5.32349C34.1508 5.1699 33.7603 5.31268 33.6067 5.64146C33.4531 5.97023 33.5959 6.36152 33.9247 6.5151H33.9254L33.9262 6.51665Z" fill="#6254B8"/>
<path d="M5.80963 37.4595C5.85207 37.468 5.89607 37.4727 5.93929 37.4727C6.25185 37.4727 6.52197 37.2512 6.58371 36.944L6.87776 35.4761C8.88282 38.919 11.9012 41.6603 15.5216 43.3258C15.7346 43.4253 15.9839 43.4037 16.1768 43.2687C16.369 43.1344 16.4747 42.9067 16.4547 42.6729C16.4346 42.439 16.2911 42.2337 16.0781 42.1342C12.5696 40.5204 9.6708 37.8238 7.80697 34.4411L9.75493 34.8301C9.98569 34.8787 10.2257 34.7992 10.3824 34.6225C10.539 34.4458 10.5884 34.198 10.512 33.9742C10.4356 33.7504 10.245 33.5853 10.0135 33.5413L6.72649 32.8845C6.7018 32.8829 6.6771 32.8829 6.65163 32.8845C6.56211 32.8744 6.47104 32.8853 6.38614 32.9169C6.36453 32.9208 6.34215 32.9262 6.32131 32.9323C6.30665 32.9393 6.29816 32.9516 6.2835 32.9593C6.24259 32.9833 6.20323 33.0111 6.1685 33.0435C6.13917 33.0682 6.11216 33.0952 6.08747 33.1237C6.0373 33.194 5.99871 33.2711 5.9717 33.3529C5.96707 33.3692 5.95549 33.3815 5.95241 33.3993L5.29408 36.6862C5.22308 37.042 5.45384 37.3885 5.80963 37.4595Z" fill="#6254B8"/>
<path d="M44.0001 33.8066C44.0996 33.5936 44.0772 33.3443 43.943 33.1514C43.8079 32.9592 43.581 32.8534 43.3471 32.8735C43.1133 32.8944 42.908 33.0379 42.8085 33.2509C41.1947 36.7594 38.4981 39.6582 35.1154 41.5212L35.5044 39.5733C35.5538 39.3417 35.4751 39.1009 35.2983 38.9435C35.1208 38.7861 34.8731 38.7367 34.6485 38.8138C34.4247 38.891 34.2588 39.0824 34.2155 39.3155L33.5588 42.6017C33.5572 42.6256 33.5572 42.6496 33.5588 42.6735C33.548 42.7622 33.5588 42.8518 33.5896 42.9359C33.5919 42.9822 33.6105 43.0262 33.6421 43.0609C33.6846 43.135 33.7417 43.1991 33.8096 43.2508C33.8212 43.2593 33.8304 43.2701 33.842 43.2785C33.9068 43.3202 33.9786 43.3503 34.0535 43.3673C34.0604 43.3688 34.0658 43.3735 34.0735 43.3758L37.3605 44.0333C37.403 44.0418 37.447 44.0465 37.4902 44.0465C37.8274 44.0449 38.1091 43.7895 38.1423 43.4537C38.1755 43.118 37.9494 42.8116 37.6191 42.7445L36.1511 42.4504C39.5948 40.4454 42.3361 37.427 44.0008 33.8066H44.0001Z" fill="#6254B8"/>
<path d="M12.2563 8.88928L12.7556 8.49876C13.4332 7.9948 14.1448 7.53791 14.8849 7.13041L14.4952 9.07837C14.4242 9.43415 14.6549 9.78068 15.0107 9.85168C15.0532 9.86017 15.0972 9.8648 15.1404 9.8648C15.453 9.8648 15.7223 9.6433 15.784 9.33614L16.4408 6.04916C16.5118 5.69337 16.2811 5.34685 15.9253 5.27584L12.6391 4.61907C12.2848 4.55192 11.9422 4.78191 11.8712 5.13538C11.8002 5.48885 12.0278 5.83383 12.3805 5.90793L13.8531 6.20274C13.2009 6.58168 12.5704 6.99767 11.9653 7.44838L11.4297 7.86745C11.2916 7.97782 11.2036 8.13912 11.1866 8.31585C11.1696 8.49182 11.2252 8.66701 11.3402 8.80207C11.5733 9.07142 11.9769 9.10924 12.2563 8.88928Z" fill="#6254B8"/>
<path d="M9.32848 10.456C9.34469 10.4954 9.36553 10.5316 9.39254 10.564C9.42032 10.598 9.45119 10.6296 9.48283 10.6597C9.61635 10.7701 9.7846 10.8295 9.95825 10.8257C10.0431 10.8203 10.1265 10.7987 10.2029 10.7624C10.4337 10.6505 10.5795 10.4166 10.5788 10.1604C10.5749 10.0747 10.5541 9.99062 10.5201 9.9119C10.4367 9.70507 10.2531 9.55534 10.0339 9.51753C9.81392 9.47894 9.59088 9.55689 9.4427 9.72359C9.32385 9.85633 9.25825 10.0284 9.25979 10.2075L9.27986 10.3325C9.28989 10.3757 9.30687 10.4174 9.32925 10.4552L9.32848 10.456Z" fill="#6254B8"/>
<path d="M6.31659 15.7189C6.47481 15.793 6.6554 15.8007 6.81902 15.7413C6.98263 15.6818 7.11615 15.5599 7.19024 15.4017C7.2898 15.1871 7.39399 14.9757 7.50126 14.7665V14.765C7.89024 14.0133 8.32783 13.287 8.81173 12.5924C9.00854 12.2961 8.94062 11.8978 8.65738 11.6833C8.51537 11.5776 8.33632 11.5343 8.1619 11.5637C7.98748 11.593 7.83235 11.6933 7.73357 11.84C7.21571 12.5839 6.74724 13.3611 6.33126 14.1669C6.21626 14.3907 6.1059 14.6168 5.9994 14.846C5.92531 15.0042 5.91759 15.1848 5.97701 15.3484C6.03721 15.5121 6.15915 15.6463 6.31737 15.7197L6.31659 15.7189Z" fill="#6254B8"/>
<path d="M30.7439 32.1696C30.5224 31.6617 29.2884 31.7103 27.9879 32.2784C27.2432 32.6033 26.6389 33.0278 26.2993 33.4268C25.9798 33.0077 25.215 32.5801 24.2672 32.337C23.3025 32.0893 22.4111 32.1001 21.9349 32.3247C20.7626 32.1047 19.7809 32.2791 19.6574 32.7615C19.52 33.2979 20.4963 34.0125 21.8384 34.3575C22.8032 34.6053 23.6938 34.5945 24.1707 34.3699C24.9626 34.5181 25.6664 34.4864 26.0786 34.302C26.388 34.7264 27.5588 34.6547 28.7898 34.1175C30.0902 33.5495 30.9647 32.6782 30.7432 32.1703L30.7439 32.1696Z" fill="#BDB7DE"/>
<path d="M24.9977 26.7571C25.8745 26.7571 26.5852 26.0463 26.5852 25.1696C26.5852 24.2928 25.8745 23.582 24.9977 23.582C24.1209 23.582 23.4102 24.2928 23.4102 25.1696C23.4102 26.0463 24.1209 26.7571 24.9977 26.7571Z" fill="#FFCE1F"/>
<path fill-rule="evenodd" clip-rule="evenodd" d="M24.9977 23.5828C24.8356 23.5851 24.6751 23.6121 24.5215 23.6631C25.1821 23.8676 25.6321 24.4781 25.6321 25.1696C25.6321 25.8611 25.1813 26.4716 24.5215 26.6761C25.1173 26.8652 25.7679 26.6869 26.1831 26.22C26.5991 25.7538 26.7017 25.0862 26.4455 24.5167C26.1893 23.9471 25.622 23.5805 24.9977 23.582V23.5828Z" fill="#EFEDF7"/>
<path d="M24.9977 19.4563C25.8745 19.4563 26.5852 18.7456 26.5852 17.8688C26.5852 16.992 25.8745 16.2812 24.9977 16.2812C24.1209 16.2812 23.4102 16.992 23.4102 17.8688C23.4102 18.7456 24.1209 19.4563 24.9977 19.4563Z" fill="#FFCE1F"/>
<path fill-rule="evenodd" clip-rule="evenodd" d="M24.9977 16.282C24.8356 16.2843 24.6751 16.3114 24.5215 16.3623C25.1821 16.5668 25.6321 17.1773 25.6321 17.8688C25.6321 18.5603 25.1813 19.1708 24.5215 19.3753C25.1173 19.5644 25.7679 19.3861 26.1831 18.9192C26.5991 18.453 26.7017 17.7854 26.4455 17.2159C26.1893 16.6463 25.622 16.2797 24.9977 16.2813V16.282Z" fill="#EFEDF7"/>
<path fill-rule="evenodd" clip-rule="evenodd" d="M26.5849 22.3122C26.9352 22.3122 27.22 22.0282 27.22 21.677V21.3598C27.22 20.3079 26.3672 19.4551 25.3153 19.4551H24.6801C23.6282 19.4551 22.7754 20.3079 22.7754 21.3598V21.677C22.7754 22.0274 23.0594 22.3122 23.4106 22.3122H26.5849Z" fill="#FFCE1F"/>
<path fill-rule="evenodd" clip-rule="evenodd" d="M25.3156 19.457H24.6805C24.6264 19.457 24.574 19.4609 24.5215 19.4647C25.5078 19.5473 26.2665 20.3716 26.2672 21.3618V21.679C26.2672 22.0293 25.9832 22.3141 25.6321 22.3141H26.5844C26.9348 22.3141 27.2196 22.0301 27.2196 21.679V21.3618C27.2196 20.3098 26.3668 19.457 25.3149 19.457H25.3156Z" fill="#EFEDF7"/>
<path fill-rule="evenodd" clip-rule="evenodd" d="M26.5849 29.6149C26.9352 29.6149 27.22 29.3309 27.22 28.9797V28.6625C27.22 27.6106 26.3672 26.7578 25.3153 26.7578H24.6801C23.6282 26.7578 22.7754 27.6106 22.7754 28.6625V28.9797C22.7754 29.3301 23.0594 29.6149 23.4106 29.6149H26.5849Z" fill="#FFCE1F"/>
<path fill-rule="evenodd" clip-rule="evenodd" d="M25.3156 26.7578H24.6805C24.6264 26.7578 24.574 26.7617 24.5215 26.7655C25.5078 26.8481 26.2665 27.6724 26.2672 28.6625V28.9797C26.2672 29.3301 25.9832 29.6149 25.6321 29.6149H26.5844C26.9348 29.6149 27.2196 29.3309 27.2196 28.9797V28.6625C27.2196 27.6106 26.3668 26.7578 25.3149 26.7578H25.3156Z" fill="#EFEDF7"/>
<path fill-rule="evenodd" clip-rule="evenodd" d="M32.2997 29.6149C32.6501 29.6149 32.9349 29.3309 32.9349 28.9797V28.6625C32.9349 27.6106 32.0821 26.7578 31.0301 26.7578H30.395C29.343 26.7578 28.4902 27.6106 28.4902 28.6625V28.9797C28.4902 29.3301 28.7742 29.6149 29.1254 29.6149H32.2997Z" fill="#FFCE1F"/>
<path fill-rule="evenodd" clip-rule="evenodd" d="M31.0305 26.7578H30.3953C30.3413 26.7578 30.2888 26.7617 30.2363 26.7655C31.2227 26.8481 31.9813 27.6724 31.9821 28.6625V28.9797C31.9821 29.3301 31.6981 29.6149 31.3469 29.6149H32.2993C32.6497 29.6149 32.9344 29.3309 32.9344 28.9797V28.6625C32.9344 27.6106 32.0816 26.7578 31.0297 26.7578H31.0305Z" fill="#EFEDF7"/>
<path fill-rule="evenodd" clip-rule="evenodd" d="M20.872 29.6149C21.2224 29.6149 21.5071 29.3309 21.5071 28.9797V28.6625C21.5071 27.6106 20.6543 26.7578 19.6024 26.7578H18.9672C17.9153 26.7578 17.0625 27.6106 17.0625 28.6625V28.9797C17.0625 29.3301 17.3465 29.6149 17.6977 29.6149H20.872Z" fill="#FFCE1F"/>
<path fill-rule="evenodd" clip-rule="evenodd" d="M19.6027 26.7578H18.9676C18.9136 26.7578 18.8611 26.7617 18.8086 26.7655C19.7949 26.8481 20.5536 27.6724 20.5543 28.6625V28.9797C20.5543 29.3301 20.2703 29.6149 19.9192 29.6149H20.8715C21.2219 29.6149 21.5067 29.3309 21.5067 28.9797V28.6625C21.5067 27.6106 20.6539 26.7578 19.602 26.7578H19.6027Z" fill="#EFEDF7"/>
<path d="M19.2848 26.7571C20.1616 26.7571 20.8723 26.0463 20.8723 25.1696C20.8723 24.2928 20.1616 23.582 19.2848 23.582C18.408 23.582 17.6973 24.2928 17.6973 25.1696C17.6973 26.0463 18.408 26.7571 19.2848 26.7571Z" fill="#FFCE1F"/>
<path fill-rule="evenodd" clip-rule="evenodd" d="M19.2848 23.5828C19.1227 23.5851 18.9622 23.6121 18.8086 23.6631C19.4692 23.8676 19.9192 24.4781 19.9192 25.1696C19.9192 25.8611 19.4685 26.4716 18.8086 26.6761C19.4044 26.8652 20.055 26.6869 20.4702 26.22C20.8862 25.7538 20.9888 25.0862 20.7326 24.5167C20.4764 23.9471 19.9091 23.5805 19.2848 23.582V23.5828Z" fill="#EFEDF7"/>
<path d="M30.7125 26.7571C31.5893 26.7571 32.3001 26.0463 32.3001 25.1696C32.3001 24.2928 31.5893 23.582 30.7125 23.582C29.8358 23.582 29.125 24.2928 29.125 25.1696C29.125 26.0463 29.8358 26.7571 30.7125 26.7571Z" fill="#FFCE1F"/>
<path fill-rule="evenodd" clip-rule="evenodd" d="M30.7125 23.5828C30.5504 23.5851 30.3899 23.6121 30.2363 23.6631C30.897 23.8676 31.3469 24.4781 31.3469 25.1696C31.3469 25.8611 30.8962 26.4716 30.2363 26.6761C30.8321 26.8652 31.4827 26.6869 31.898 26.22C32.3139 25.7538 32.4166 25.0862 32.1604 24.5167C31.9041 23.9471 31.3369 23.5805 30.7125 23.582V23.5828Z" fill="#EFEDF7"/>
<path d="M33.0038 27.6456C32.7715 27.1956 32.3934 26.8375 31.9303 26.6315C32.4644 26.197 32.7221 25.5078 32.6048 24.8294C32.4875 24.151 32.0121 23.5891 31.363 23.3599C30.714 23.1307 29.9916 23.2704 29.4745 23.7242L27.4633 22.0464C27.5127 21.9298 27.5381 21.804 27.5381 21.6767V21.3595C27.5366 20.4812 27.0195 19.6863 26.2169 19.3297C26.8335 18.8165 27.0627 17.9722 26.7895 17.2182C26.5171 16.4641 25.8009 15.9609 24.9982 15.9609C24.1956 15.9609 23.4802 16.4634 23.207 17.2182C22.9345 17.9722 23.163 18.8165 23.7796 19.3297C22.977 19.6863 22.4599 20.4812 22.4583 21.3595V21.6767C22.4583 21.8033 22.4838 21.9291 22.5332 22.0464L20.522 23.7242C20.0041 23.2735 19.2833 23.1369 18.6365 23.3661C17.9898 23.5953 17.5167 24.1556 17.3978 24.8317C17.2798 25.5078 17.5344 26.1954 18.0654 26.6307C17.6024 26.8375 17.2412 27.2828 16.9919 27.6463C16.7997 27.945 16.7843 28.2445 16.7843 28.2445C16.7843 28.2445 16.7441 28.5208 16.7441 28.6597V28.9769C16.7441 29.5025 17.1702 29.9292 17.6965 29.9292H20.8708C21.3964 29.9292 21.8232 29.5032 21.8232 28.9769V28.6597C21.8224 28.5532 21.8139 28.4474 21.7977 28.3425H22.483C22.4668 28.4474 22.4583 28.5539 22.4576 28.6597V28.9769C22.4576 29.5025 22.8836 29.9292 23.4099 29.9292H26.5842C27.1098 29.9292 27.5366 29.5032 27.5366 28.9769V28.6597C27.5358 28.5532 27.5273 28.4474 27.5111 28.3425H28.1965C28.1803 28.4474 28.1718 28.5539 28.171 28.6597V28.9769C28.171 29.5025 28.597 29.9292 29.1234 29.9292H32.2977C32.8232 29.9292 33.25 29.5032 33.25 28.9769V28.6597C33.25 28.52 33.2678 28.2383 33.0023 27.644L33.0038 27.6456ZM30.7124 23.9002C31.414 23.9002 31.982 24.469 31.982 25.1697C31.982 25.8705 31.4132 26.4393 30.7124 26.4393C30.0117 26.4393 29.4429 25.8705 29.4429 25.1697C29.4429 24.469 30.0117 23.9002 30.7124 23.9002ZM24.9982 16.5992C25.6998 16.5992 26.2678 17.168 26.2678 17.8688C26.2678 18.5695 25.699 19.1383 24.9982 19.1383C24.2975 19.1383 23.7287 18.5695 23.7287 17.8688C23.7287 17.168 24.2975 16.5992 24.9982 16.5992ZM23.0935 21.3603C23.0943 20.4843 23.8043 19.7743 24.681 19.7727H25.3162C26.1922 19.7735 26.9022 20.4835 26.9037 21.3603V21.6775C26.9037 21.8526 26.7617 21.9947 26.5866 21.9947H26.2694V21.3595C26.2694 21.1843 26.1273 21.0423 25.9522 21.0423C25.777 21.0423 25.635 21.1843 25.635 21.3595V21.9947H24.3654V21.3595C24.3654 21.1843 24.2234 21.0423 24.0482 21.0423C23.873 21.0423 23.731 21.1843 23.731 21.3595V21.9947H23.4138C23.2386 21.9947 23.0966 21.8526 23.0966 21.6775V21.3603H23.0935ZM24.9982 26.4393C24.2967 26.4393 23.7287 25.8705 23.7287 25.1697C23.7287 24.469 24.2975 23.9002 24.9982 23.9002C25.699 23.9002 26.2678 24.469 26.2678 25.1697C26.2678 25.8705 25.699 26.4393 24.9982 26.4393ZM19.284 23.9002C19.9856 23.9002 20.5536 24.469 20.5536 25.1697C20.5536 25.8705 19.9848 26.4393 19.284 26.4393C18.5833 26.4393 18.0145 25.8705 18.0145 25.1697C18.0145 24.469 18.5833 23.9002 19.284 23.9002ZM21.1888 28.9792C21.1888 29.1544 21.0468 29.2964 20.8716 29.2964H20.5544V28.6612C20.5544 28.486 20.4124 28.344 20.2372 28.344C20.062 28.344 19.92 28.486 19.92 28.6612V29.2964H18.6504V28.6612C18.6504 28.486 18.5084 28.344 18.3332 28.344C18.158 28.344 18.016 28.486 18.016 28.6612V29.2964H17.6988C17.5236 29.2964 17.3816 29.1544 17.3816 28.9792V28.662C17.3824 27.786 18.0924 27.076 18.9692 27.0745H19.6043C20.4803 27.0752 21.1903 27.7853 21.1919 28.662V28.9792H21.1888ZM21.6063 27.7096C21.3779 27.2311 20.9866 26.8491 20.5027 26.6322C21.2181 26.0387 21.3987 25.0146 20.9287 24.2127L22.9669 22.5141C23.1035 22.5889 23.2556 22.629 23.4115 22.6306H24.681V23.2943C23.9479 23.4178 23.3536 23.9565 23.1599 24.6742C22.9662 25.392 23.2085 26.1568 23.7804 26.6322C23.2965 26.8491 22.9052 27.2304 22.6768 27.7096H21.6071H21.6063ZM26.903 28.9792C26.903 29.1544 26.761 29.2964 26.5858 29.2964H26.2686V28.6612C26.2686 28.486 26.1266 28.344 25.9514 28.344C25.7762 28.344 25.6342 28.486 25.6342 28.6612V29.2964H24.3646V28.6612C24.3646 28.486 24.2226 28.344 24.0474 28.344C23.8722 28.344 23.7302 28.486 23.7302 28.6612V29.2964H23.413C23.2378 29.2964 23.0958 29.1544 23.0958 28.9792V28.662C23.0966 27.786 23.8066 27.076 24.6834 27.0745H25.3185C26.1945 27.0752 26.9045 27.7853 26.9061 28.662V28.9792H26.903ZM27.3205 27.7096C27.0921 27.2311 26.7008 26.8491 26.2169 26.6322C26.7888 26.1568 27.0311 25.392 26.8374 24.6742C26.6437 23.9565 26.0494 23.417 25.3162 23.2943V22.6306H26.5858C26.7417 22.6298 26.8953 22.5897 27.0319 22.5141L29.0686 24.2127C28.5986 25.0146 28.7784 26.0387 29.4946 26.6322C29.0107 26.8491 28.6194 27.2304 28.391 27.7096H27.3213H27.3205ZM32.6172 28.9792C32.6172 29.1544 32.4752 29.2964 32.3 29.2964H31.9828V28.6612C31.9828 28.486 31.8408 28.344 31.6656 28.344C31.4904 28.344 31.3484 28.486 31.3484 28.6612V29.2964H30.0788V28.6612C30.0788 28.486 29.9368 28.344 29.7616 28.344C29.5864 28.344 29.4444 28.486 29.4444 28.6612V29.2964H29.1272C28.952 29.2964 28.81 29.1544 28.81 28.9792V28.662C28.8108 27.786 29.5208 27.076 30.3976 27.0745H31.0327C31.9087 27.0752 32.6187 27.7853 32.6203 28.662V28.9792H32.6172Z" fill="#6254B8"/>
<ellipse cx="25.059" cy="42.9663" rx="5.17616" ry="0.421402" fill="#9087C8"/>
</g>
<defs>
<clipPath id="clip0_1645_21770">
<rect width="39.5148" height="40.7895" fill="white" transform="translate(5.24219 4.60742)"/>
</clipPath>
</defs>
</svg>
