<svg width="375" height="288" viewBox="0 0 375 288" fill="none" xmlns="http://www.w3.org/2000/svg">
<ellipse cx="193.158" cy="247.54" rx="75.1595" ry="9.92873" fill="#E5E5E5"/>
<ellipse cx="190.524" cy="248.074" rx="61.5282" ry="3.43887" fill="#CCCCCC"/>
<g clip-path="url(#clip0_873_105485)">
<path d="M226.401 39.2987V130.691C226.401 135.081 222.843 138.639 218.454 138.639H146.938C142.549 138.639 138.992 135.081 138.992 130.691V57.1799H156.871C161.259 57.1799 164.817 53.6218 164.817 49.2327V31.3516H218.454C222.843 31.3516 226.401 34.9096 226.401 39.2987Z" fill="white"/>
<path d="M218.455 31.3516H212.495C216.883 31.3516 220.441 34.9096 220.441 39.2987V130.691C220.441 135.081 216.883 138.639 212.495 138.639H218.455C222.843 138.639 226.401 135.081 226.401 130.691V39.2987C226.401 34.9096 222.843 31.3516 218.455 31.3516Z" fill="white"/>
<path d="M234.347 47.246V138.639C234.347 143.028 230.79 146.586 226.401 146.586H154.885C150.496 146.586 146.938 143.028 146.938 138.639H218.455C222.844 138.639 226.401 135.081 226.401 130.691V39.2988C230.79 39.2988 234.347 42.8569 234.347 47.246Z" fill="white"/>
<path d="M214.482 81.0175V92.9383C214.482 97.3274 210.924 100.885 206.535 100.885H196.602V110.819C196.602 115.209 193.045 118.767 188.656 118.767H176.737C172.348 118.767 168.791 115.209 168.791 110.819V94.9251C168.791 90.536 172.348 86.9779 176.737 86.9779H188.656C193.045 86.9779 196.602 83.4198 196.602 79.0307V73.0703H206.535C210.924 73.0703 214.482 76.6284 214.482 81.0175Z" fill="white"/>
<path d="M190.643 110.823C190.643 115.212 187.085 118.77 182.696 118.77H188.656C193.045 118.77 196.602 115.212 196.602 110.823V100.889H190.643V110.823Z" fill="white"/>
<path d="M206.535 73.0703H200.576C204.964 73.0703 208.522 76.6284 208.522 81.0175V92.9383C208.522 97.3274 204.964 100.885 200.576 100.885H206.535C210.924 100.885 214.482 97.3274 214.482 92.9383V81.0175C214.482 76.6284 210.924 73.0703 206.535 73.0703Z" fill="white"/>
<path d="M196.602 63.1405V79.0349C196.602 83.424 193.045 86.9821 188.656 86.9821H176.737C172.348 86.9821 168.79 90.5402 168.79 94.9293V100.89H158.857C154.469 100.89 150.911 97.3316 150.911 92.9425V81.0217C150.911 76.6326 154.469 73.0745 158.857 73.0745H168.79V63.1405C168.79 58.7514 172.348 55.1934 176.737 55.1934H188.656C193.045 55.1934 196.602 58.7514 196.602 63.1405Z" fill="white"/>
<path d="M188.656 55.1934H182.696C187.085 55.1934 190.643 58.7514 190.643 63.1405V79.0349C190.643 83.424 187.085 86.9821 182.696 86.9821H188.656C193.045 86.9821 196.602 83.424 196.602 79.0349V63.1405C196.602 58.7514 193.045 55.1934 188.656 55.1934Z" fill="white"/>
<path d="M162.83 94.9277V100.888H168.79V94.9277C168.79 90.5385 172.348 86.9805 176.736 86.9805H170.777C166.388 86.9805 162.83 90.5385 162.83 94.9277Z" fill="white"/>
<path d="M164.817 31.3516V49.2327C164.817 53.6218 161.259 57.1799 156.871 57.1799H138.992L164.817 31.3516Z" fill="white"/>
<path d="M138.992 130.691C138.992 135.081 142.549 138.639 146.938 138.639C146.938 143.028 150.496 146.586 154.884 146.586H160.844C156.455 146.586 152.898 143.028 152.898 138.639C148.509 138.639 144.951 135.081 144.951 130.691V57.1799L170.777 31.3516H164.817L138.992 57.1799V130.691Z" fill="white"/>
<path d="M137.005 114.797H140.978V130.691H137.005V114.797Z" fill="white"/>
<path d="M138.992 124.731C140.089 124.731 140.978 123.842 140.978 122.745C140.978 121.647 140.089 120.758 138.992 120.758C137.895 120.758 137.005 121.647 137.005 122.745C137.005 123.842 137.895 124.731 138.992 124.731Z" fill="url(#paint0_linear_873_105485)"/>
<path d="M145.134 140.445C146.003 145.149 150.101 148.567 154.884 148.575H226.401C231.884 148.568 236.327 144.125 236.334 138.641V47.2484C236.325 42.4644 232.908 38.3659 228.205 37.4972C227.336 32.7927 223.238 29.3757 218.454 29.3672H164.817C164.29 29.3673 163.785 29.5767 163.413 29.9493L137.587 55.7777C137.215 56.1502 137.005 56.6555 137.005 57.1823V114.799C137.005 115.897 137.895 116.786 138.992 116.786C140.089 116.786 140.978 115.897 140.978 114.799V59.1691H156.871C162.354 59.1626 166.797 54.7188 166.804 49.2352V33.3408H218.454C221.746 33.3408 224.414 36.0093 224.414 39.3012V130.694C224.414 133.986 221.746 136.654 218.454 136.654H146.938C143.647 136.654 140.978 133.986 140.978 130.694C140.978 129.597 140.089 128.707 138.992 128.707C137.895 128.707 137.005 129.597 137.005 130.694C137.014 135.478 140.43 139.576 145.134 140.445ZM156.871 55.1955H143.787L162.831 36.1501V49.2352C162.831 52.527 160.162 55.1955 156.871 55.1955ZM228.387 130.694V41.6535C230.76 42.4925 232.35 44.7315 232.36 47.2484V138.641C232.36 141.933 229.692 144.601 226.401 144.601H154.884C152.368 144.591 150.129 143.001 149.29 140.628H218.454C223.937 140.621 228.381 136.177 228.387 130.694Z" fill="url(#paint1_linear_873_105485)"/>
<path d="M206.535 41.288C207.632 41.288 208.521 40.3985 208.521 39.3013C208.521 38.204 207.632 37.3145 206.535 37.3145H194.615C193.518 37.3145 192.629 38.204 192.629 39.3013C192.629 40.3985 193.518 41.288 194.615 41.288H206.535Z" fill="url(#paint2_linear_873_105485)"/>
<path d="M220.441 39.3013C220.441 38.204 219.552 37.3145 218.455 37.3145H214.481C213.384 37.3145 212.495 38.204 212.495 39.3013C212.495 40.3985 213.384 41.288 214.481 41.288H218.455C219.552 41.288 220.441 40.3985 220.441 39.3013Z" fill="url(#paint3_linear_873_105485)"/>
<path d="M146.938 128.708C146.938 129.805 147.828 130.694 148.925 130.694H150.912C152.009 130.694 152.898 129.805 152.898 128.708C152.898 127.61 152.009 126.721 150.912 126.721H148.925C147.828 126.721 146.938 127.61 146.938 128.708Z" fill="url(#paint4_linear_873_105485)"/>
<path d="M198.589 126.721C197.492 126.721 196.602 127.61 196.602 128.708C196.602 129.805 197.492 130.694 198.589 130.694H216.468C217.565 130.694 218.455 129.805 218.455 128.708C218.455 127.61 217.565 126.721 216.468 126.721H198.589Z" fill="url(#paint5_linear_873_105485)"/>
<path d="M158.858 126.721C157.761 126.721 156.871 127.61 156.871 128.708C156.871 129.805 157.761 130.694 158.858 130.694H188.656C189.753 130.694 190.643 129.805 190.643 128.708C190.643 127.61 189.753 126.721 188.656 126.721H158.858Z" fill="url(#paint6_linear_873_105485)"/>
<path d="M176.736 53.207C171.253 53.2136 166.81 57.6574 166.803 63.141V71.0882H158.857C153.374 71.0948 148.931 75.5385 148.924 81.0222V92.943C148.931 98.4266 153.374 102.87 158.857 102.877H166.803V110.824C166.81 116.308 171.253 120.752 176.736 120.758H188.656C194.139 120.752 198.582 116.308 198.589 110.824V102.877H206.535C212.018 102.87 216.461 98.4266 216.468 92.943V81.0222C216.461 75.5385 212.018 71.0948 206.535 71.0882H198.589V63.141C198.582 57.6574 194.139 53.2136 188.656 53.207H176.736ZM206.535 75.0618C209.826 75.0618 212.494 77.7304 212.494 81.0222V92.943C212.494 96.2348 209.826 98.9034 206.535 98.9034H182.696C181.599 98.9034 180.709 99.7929 180.709 100.89C180.709 101.987 181.599 102.877 182.696 102.877H194.615V110.824C194.615 114.116 191.947 116.785 188.656 116.785H176.736C173.445 116.785 170.777 114.116 170.777 110.824V94.9298C170.777 91.6379 173.445 88.9694 176.736 88.9694H188.656C194.139 88.9628 198.582 84.5191 198.589 79.0354V75.0618H206.535ZM194.615 63.141V79.0354C194.615 82.3272 191.947 84.9958 188.656 84.9958H176.736C171.253 85.0024 166.81 89.4461 166.803 94.9298V98.9034H158.857C155.566 98.9034 152.897 96.2348 152.897 92.943V81.0222C152.897 77.7304 155.566 75.0618 158.857 75.0618H182.696C183.793 75.0618 184.683 74.1723 184.683 73.075C184.683 71.9777 183.793 71.0882 182.696 71.0882H170.777V63.141C170.777 59.8492 173.445 57.1806 176.736 57.1806H188.656C191.947 57.1806 194.615 59.8492 194.615 63.141Z" fill="url(#paint7_linear_873_105485)"/>
<path d="M178.723 67.1123C179.82 67.1123 180.709 66.2227 180.709 65.1255C180.709 64.0282 179.82 63.1387 178.723 63.1387C177.626 63.1387 176.736 64.0282 176.736 65.1255C176.736 66.2227 177.626 67.1123 178.723 67.1123Z" fill="url(#paint8_linear_873_105485)"/>
<path d="M186.67 110.823C187.767 110.823 188.656 109.934 188.656 108.836C188.656 107.739 187.767 106.85 186.67 106.85C185.573 106.85 184.683 107.739 184.683 108.836C184.683 109.934 185.573 110.823 186.67 110.823Z" fill="url(#paint9_linear_873_105485)"/>
</g>
<g clip-path="url(#clip1_873_105485)">
<path d="M261.567 161.293H119.479C116.572 161.293 114.216 163.65 114.216 166.557V171.818C114.216 174.726 116.572 177.083 119.479 177.083H261.567C264.474 177.083 266.83 174.726 266.83 171.818V166.557C266.83 163.65 264.474 161.293 261.567 161.293Z" fill="white"/>
<path d="M261.57 161.293H253.676C256.578 161.302 258.93 163.652 258.94 166.557V171.821C258.93 174.723 256.581 177.076 253.676 177.086H261.57C264.472 177.076 266.824 174.727 266.834 171.821V166.557C266.824 163.655 264.475 161.302 261.57 161.293Z" fill="white"/>
<path d="M261.57 177.084L249.439 229.717H131.61L119.479 177.084H261.57Z" fill="white"/>
<path d="M253.676 177.084L241.545 229.717H249.439L261.57 177.084H253.676Z" fill="white"/>
<path d="M249.439 229.715L246.728 241.424C246.176 243.815 244.049 245.504 241.597 245.504H139.451C137 245.504 134.872 243.815 134.32 241.424L131.61 229.715H249.439Z" fill="white"/>
<path d="M241.545 229.715L238.835 241.424C238.283 243.815 236.155 245.504 233.704 245.504H241.598C244.049 245.504 246.177 243.815 246.729 241.424L249.439 229.715H241.545Z" fill="white"/>
<path d="M142.214 241.429C138.594 225.771 141.425 238.052 127.373 177.086C124.472 177.076 122.119 174.727 122.109 171.821V166.557C122.119 163.655 124.468 161.302 127.373 161.293H119.479C116.578 161.302 114.225 163.652 114.216 166.557V171.821C114.225 174.723 116.575 177.076 119.479 177.086C133.531 238.052 130.703 225.808 134.32 241.429C134.872 243.819 137 245.509 139.451 245.509H147.345C144.894 245.509 142.766 243.819 142.214 241.429Z" fill="white"/>
<path d="M253.467 158.662H119.48C115.12 158.662 111.586 162.196 111.586 166.557V171.821C111.599 175.334 113.93 178.412 117.306 179.374L131.762 242.02C132.576 245.61 135.774 248.151 139.453 248.139H241.596C245.277 248.151 248.472 245.61 249.289 242.02L263.742 179.389C267.124 178.427 269.455 175.34 269.462 171.824V166.56C269.465 162.196 265.931 158.662 261.571 158.662H253.467ZM244.161 240.836C243.884 242.03 242.82 242.875 241.596 242.872H139.456C138.228 242.878 137.165 242.03 136.893 240.836L134.932 232.346H246.119L244.161 240.836ZM247.334 227.085H133.717L122.789 179.716H258.265L247.337 227.085H247.334ZM264.201 171.821C264.201 173.274 263.023 174.452 261.571 174.452H119.48C118.028 174.452 116.85 173.274 116.85 171.821V166.557C116.85 165.104 118.028 163.926 119.48 163.926H261.571C263.023 163.926 264.201 165.104 264.201 166.557V171.821Z" fill="url(#paint10_linear_873_105485)"/>
<path d="M135.267 190.24H148.425C149.877 190.24 151.055 189.062 151.055 187.609C151.055 186.157 149.877 184.979 148.425 184.979H135.267C133.815 184.979 132.637 186.157 132.637 187.609C132.637 189.062 133.815 190.24 135.267 190.24Z" fill="url(#paint11_linear_873_105485)"/>
<path d="M148.425 195.504H137.901C136.449 195.504 135.271 196.682 135.271 198.134C135.271 199.587 136.449 200.765 137.901 200.765H148.425C149.878 200.765 151.056 199.587 151.056 198.134C151.056 196.682 149.878 195.504 148.425 195.504Z" fill="url(#paint12_linear_873_105485)"/>
<path d="M148.426 206.035H140.532C139.079 206.035 137.901 207.213 137.901 208.666C137.901 210.118 139.079 211.296 140.532 211.296H148.426C149.878 211.296 151.056 210.118 151.056 208.666C151.056 207.213 149.878 206.035 148.426 206.035Z" fill="url(#paint13_linear_873_105485)"/>
<path d="M148.427 216.561H143.163C141.711 216.561 140.533 217.739 140.533 219.191C140.533 220.644 141.711 221.822 143.163 221.822H148.427C149.879 221.822 151.057 220.644 151.057 219.191C151.057 217.739 149.879 216.561 148.427 216.561Z" fill="url(#paint14_linear_873_105485)"/>
<path d="M158.949 190.24H166.843C168.296 190.24 169.474 189.062 169.474 187.609C169.474 186.157 168.296 184.979 166.843 184.979H158.949C157.497 184.979 156.319 186.157 156.319 187.609C156.319 189.062 157.497 190.24 158.949 190.24Z" fill="url(#paint15_linear_873_105485)"/>
<path d="M158.949 200.765H166.843C168.296 200.765 169.474 199.587 169.474 198.134C169.474 196.682 168.296 195.504 166.843 195.504H158.949C157.497 195.504 156.319 196.682 156.319 198.134C156.319 199.587 157.497 200.765 158.949 200.765Z" fill="url(#paint16_linear_873_105485)"/>
<path d="M158.949 211.304H166.843C168.296 211.304 169.474 210.126 169.474 208.674C169.474 207.221 168.296 206.043 166.843 206.043H158.949C157.497 206.043 156.319 207.221 156.319 208.674C156.319 210.126 157.497 211.304 158.949 211.304Z" fill="url(#paint17_linear_873_105485)"/>
<path d="M158.949 221.822H166.843C168.296 221.822 169.474 220.644 169.474 219.191C169.474 217.739 168.296 216.561 166.843 216.561H158.949C157.497 216.561 156.319 217.739 156.319 219.191C156.319 220.644 157.497 221.822 158.949 221.822Z" fill="url(#paint18_linear_873_105485)"/>
<path d="M177.368 190.24H185.262C186.714 190.24 187.892 189.062 187.892 187.609C187.892 186.157 186.714 184.979 185.262 184.979H177.368C175.916 184.979 174.738 186.157 174.738 187.609C174.738 189.062 175.916 190.24 177.368 190.24Z" fill="url(#paint19_linear_873_105485)"/>
<path d="M177.368 200.765H185.262C186.714 200.765 187.892 199.587 187.892 198.134C187.892 196.682 186.714 195.504 185.262 195.504H177.368C175.916 195.504 174.738 196.682 174.738 198.134C174.738 199.587 175.916 200.765 177.368 200.765Z" fill="url(#paint20_linear_873_105485)"/>
<path d="M177.368 211.304H185.262C186.714 211.304 187.892 210.126 187.892 208.674C187.892 207.221 186.714 206.043 185.262 206.043H177.368C175.916 206.043 174.738 207.221 174.738 208.674C174.738 210.126 175.916 211.304 177.368 211.304Z" fill="url(#paint21_linear_873_105485)"/>
<path d="M177.368 221.822H185.262C186.714 221.822 187.892 220.644 187.892 219.191C187.892 217.739 186.714 216.561 185.262 216.561H177.368C175.916 216.561 174.738 217.739 174.738 219.191C174.738 220.644 175.916 221.822 177.368 221.822Z" fill="url(#paint22_linear_873_105485)"/>
<path d="M232.625 190.24H245.783C247.235 190.24 248.413 189.062 248.413 187.609C248.413 186.157 247.235 184.979 245.783 184.979H232.625C231.173 184.979 229.995 186.157 229.995 187.609C229.995 189.062 231.173 190.24 232.625 190.24Z" fill="url(#paint23_linear_873_105485)"/>
<path d="M232.625 200.765H243.15C244.602 200.765 245.78 199.587 245.78 198.134C245.78 196.682 244.602 195.504 243.15 195.504H232.625C231.173 195.504 229.995 196.682 229.995 198.134C229.995 199.587 231.173 200.765 232.625 200.765Z" fill="url(#paint24_linear_873_105485)"/>
<path d="M232.625 211.304H240.519C241.972 211.304 243.15 210.126 243.15 208.674C243.15 207.221 241.972 206.043 240.519 206.043H232.625C231.173 206.043 229.995 207.221 229.995 208.674C229.995 210.126 231.173 211.304 232.625 211.304Z" fill="url(#paint25_linear_873_105485)"/>
<path d="M232.625 221.822H237.889C239.341 221.822 240.519 220.644 240.519 219.191C240.519 217.739 239.341 216.561 237.889 216.561H232.625C231.173 216.561 229.995 217.739 229.995 219.191C229.995 220.644 231.173 221.822 232.625 221.822Z" fill="url(#paint26_linear_873_105485)"/>
<path d="M214.207 190.24H222.101C223.553 190.24 224.731 189.062 224.731 187.609C224.731 186.157 223.553 184.979 222.101 184.979H214.207C212.755 184.979 211.577 186.157 211.577 187.609C211.577 189.062 212.755 190.24 214.207 190.24Z" fill="url(#paint27_linear_873_105485)"/>
<path d="M214.208 200.765H222.102C223.554 200.765 224.732 199.587 224.732 198.134C224.732 196.682 223.554 195.504 222.102 195.504H214.208C212.756 195.504 211.578 196.682 211.578 198.134C211.578 199.587 212.756 200.765 214.208 200.765Z" fill="url(#paint28_linear_873_105485)"/>
<path d="M214.208 211.304H222.102C223.554 211.304 224.732 210.126 224.732 208.674C224.732 207.221 223.554 206.043 222.102 206.043H214.208C212.756 206.043 211.578 207.221 211.578 208.674C211.578 210.126 212.756 211.304 214.208 211.304Z" fill="url(#paint29_linear_873_105485)"/>
<path d="M214.208 221.822H222.102C223.554 221.822 224.732 220.644 224.732 219.191C224.732 217.739 223.554 216.561 222.102 216.561H214.208C212.756 216.561 211.578 217.739 211.578 219.191C211.578 220.644 212.756 221.822 214.208 221.822Z" fill="url(#paint30_linear_873_105485)"/>
<path d="M195.789 190.24H203.683C205.135 190.24 206.313 189.062 206.313 187.609C206.313 186.157 205.135 184.979 203.683 184.979H195.789C194.337 184.979 193.159 186.157 193.159 187.609C193.159 189.062 194.337 190.24 195.789 190.24Z" fill="url(#paint31_linear_873_105485)"/>
<path d="M195.789 200.765H203.683C205.135 200.765 206.313 199.587 206.313 198.134C206.313 196.682 205.135 195.504 203.683 195.504H195.789C194.337 195.504 193.159 196.682 193.159 198.134C193.159 199.587 194.337 200.765 195.789 200.765Z" fill="url(#paint32_linear_873_105485)"/>
<path d="M195.789 211.304H203.683C205.135 211.304 206.313 210.126 206.313 208.674C206.313 207.221 205.135 206.043 203.683 206.043H195.789C194.337 206.043 193.159 207.221 193.159 208.674C193.159 210.126 194.337 211.304 195.789 211.304Z" fill="url(#paint33_linear_873_105485)"/>
<path d="M195.789 221.822H203.683C205.135 221.822 206.313 220.644 206.313 219.191C206.313 217.739 205.135 216.561 203.683 216.561H195.789C194.337 216.561 193.159 217.739 193.159 219.191C193.159 220.644 194.337 221.822 195.789 221.822Z" fill="url(#paint34_linear_873_105485)"/>
</g>
<defs>
<linearGradient id="paint0_linear_873_105485" x1="137.005" y1="124.731" x2="140.979" y2="120.758" gradientUnits="userSpaceOnUse">
<stop stop-color="#A03291"/>
<stop offset="1" stop-color="#FF7C66"/>
</linearGradient>
<linearGradient id="paint1_linear_873_105485" x1="137.005" y1="148.575" x2="254.256" y2="50.8769" gradientUnits="userSpaceOnUse">
<stop stop-color="#A03291"/>
<stop offset="1" stop-color="#FF7C66"/>
</linearGradient>
<linearGradient id="paint2_linear_873_105485" x1="192.629" y1="41.288" x2="194.499" y2="33.8084" gradientUnits="userSpaceOnUse">
<stop stop-color="#A03291"/>
<stop offset="1" stop-color="#FF7C66"/>
</linearGradient>
<linearGradient id="paint3_linear_873_105485" x1="212.495" y1="41.288" x2="215.674" y2="34.9306" gradientUnits="userSpaceOnUse">
<stop stop-color="#A03291"/>
<stop offset="1" stop-color="#FF7C66"/>
</linearGradient>
<linearGradient id="paint4_linear_873_105485" x1="146.938" y1="130.694" x2="150.607" y2="125.193" gradientUnits="userSpaceOnUse">
<stop stop-color="#A03291"/>
<stop offset="1" stop-color="#FF7C66"/>
</linearGradient>
<linearGradient id="paint5_linear_873_105485" x1="196.602" y1="130.694" x2="198.001" y2="123.001" gradientUnits="userSpaceOnUse">
<stop stop-color="#A03291"/>
<stop offset="1" stop-color="#FF7C66"/>
</linearGradient>
<linearGradient id="paint6_linear_873_105485" x1="156.871" y1="130.694" x2="157.793" y2="122.856" gradientUnits="userSpaceOnUse">
<stop stop-color="#A03291"/>
<stop offset="1" stop-color="#FF7C66"/>
</linearGradient>
<linearGradient id="paint7_linear_873_105485" x1="148.924" y1="120.758" x2="216.475" y2="53.2148" gradientUnits="userSpaceOnUse">
<stop stop-color="#A03291"/>
<stop offset="1" stop-color="#FF7C66"/>
</linearGradient>
<linearGradient id="paint8_linear_873_105485" x1="176.736" y1="67.1123" x2="180.71" y2="63.1391" gradientUnits="userSpaceOnUse">
<stop stop-color="#A03291"/>
<stop offset="1" stop-color="#FF7C66"/>
</linearGradient>
<linearGradient id="paint9_linear_873_105485" x1="184.683" y1="110.823" x2="188.657" y2="106.85" gradientUnits="userSpaceOnUse">
<stop stop-color="#A03291"/>
<stop offset="1" stop-color="#FF7C66"/>
</linearGradient>
<linearGradient id="paint10_linear_873_105485" x1="111.586" y1="248.139" x2="188.352" y2="112.692" gradientUnits="userSpaceOnUse">
<stop stop-color="#A03291"/>
<stop offset="1" stop-color="#FF7C66"/>
</linearGradient>
<linearGradient id="paint11_linear_873_105485" x1="132.637" y1="190.24" x2="135.416" y2="180.511" gradientUnits="userSpaceOnUse">
<stop stop-color="#A03291"/>
<stop offset="1" stop-color="#FF7C66"/>
</linearGradient>
<linearGradient id="paint12_linear_873_105485" x1="135.271" y1="200.765" x2="138.427" y2="191.295" gradientUnits="userSpaceOnUse">
<stop stop-color="#A03291"/>
<stop offset="1" stop-color="#FF7C66"/>
</linearGradient>
<linearGradient id="paint13_linear_873_105485" x1="137.901" y1="211.296" x2="141.529" y2="202.225" gradientUnits="userSpaceOnUse">
<stop stop-color="#A03291"/>
<stop offset="1" stop-color="#FF7C66"/>
</linearGradient>
<linearGradient id="paint14_linear_873_105485" x1="140.533" y1="221.822" x2="144.741" y2="213.403" gradientUnits="userSpaceOnUse">
<stop stop-color="#A03291"/>
<stop offset="1" stop-color="#FF7C66"/>
</linearGradient>
<linearGradient id="paint15_linear_873_105485" x1="156.319" y1="190.24" x2="159.947" y2="181.168" gradientUnits="userSpaceOnUse">
<stop stop-color="#A03291"/>
<stop offset="1" stop-color="#FF7C66"/>
</linearGradient>
<linearGradient id="paint16_linear_873_105485" x1="156.319" y1="200.765" x2="159.947" y2="191.694" gradientUnits="userSpaceOnUse">
<stop stop-color="#A03291"/>
<stop offset="1" stop-color="#FF7C66"/>
</linearGradient>
<linearGradient id="paint17_linear_873_105485" x1="156.319" y1="211.304" x2="159.947" y2="202.233" gradientUnits="userSpaceOnUse">
<stop stop-color="#A03291"/>
<stop offset="1" stop-color="#FF7C66"/>
</linearGradient>
<linearGradient id="paint18_linear_873_105485" x1="156.319" y1="221.822" x2="159.947" y2="212.75" gradientUnits="userSpaceOnUse">
<stop stop-color="#A03291"/>
<stop offset="1" stop-color="#FF7C66"/>
</linearGradient>
<linearGradient id="paint19_linear_873_105485" x1="174.738" y1="190.24" x2="178.366" y2="181.168" gradientUnits="userSpaceOnUse">
<stop stop-color="#A03291"/>
<stop offset="1" stop-color="#FF7C66"/>
</linearGradient>
<linearGradient id="paint20_linear_873_105485" x1="174.738" y1="200.765" x2="178.366" y2="191.694" gradientUnits="userSpaceOnUse">
<stop stop-color="#A03291"/>
<stop offset="1" stop-color="#FF7C66"/>
</linearGradient>
<linearGradient id="paint21_linear_873_105485" x1="174.738" y1="211.304" x2="178.366" y2="202.233" gradientUnits="userSpaceOnUse">
<stop stop-color="#A03291"/>
<stop offset="1" stop-color="#FF7C66"/>
</linearGradient>
<linearGradient id="paint22_linear_873_105485" x1="174.738" y1="221.822" x2="178.366" y2="212.75" gradientUnits="userSpaceOnUse">
<stop stop-color="#A03291"/>
<stop offset="1" stop-color="#FF7C66"/>
</linearGradient>
<linearGradient id="paint23_linear_873_105485" x1="229.995" y1="190.24" x2="232.774" y2="180.511" gradientUnits="userSpaceOnUse">
<stop stop-color="#A03291"/>
<stop offset="1" stop-color="#FF7C66"/>
</linearGradient>
<linearGradient id="paint24_linear_873_105485" x1="229.995" y1="200.765" x2="233.152" y2="191.295" gradientUnits="userSpaceOnUse">
<stop stop-color="#A03291"/>
<stop offset="1" stop-color="#FF7C66"/>
</linearGradient>
<linearGradient id="paint25_linear_873_105485" x1="229.995" y1="211.304" x2="233.623" y2="202.233" gradientUnits="userSpaceOnUse">
<stop stop-color="#A03291"/>
<stop offset="1" stop-color="#FF7C66"/>
</linearGradient>
<linearGradient id="paint26_linear_873_105485" x1="229.995" y1="221.822" x2="234.204" y2="213.403" gradientUnits="userSpaceOnUse">
<stop stop-color="#A03291"/>
<stop offset="1" stop-color="#FF7C66"/>
</linearGradient>
<linearGradient id="paint27_linear_873_105485" x1="211.577" y1="190.24" x2="215.205" y2="181.168" gradientUnits="userSpaceOnUse">
<stop stop-color="#A03291"/>
<stop offset="1" stop-color="#FF7C66"/>
</linearGradient>
<linearGradient id="paint28_linear_873_105485" x1="211.578" y1="200.765" x2="215.206" y2="191.694" gradientUnits="userSpaceOnUse">
<stop stop-color="#A03291"/>
<stop offset="1" stop-color="#FF7C66"/>
</linearGradient>
<linearGradient id="paint29_linear_873_105485" x1="211.578" y1="211.304" x2="215.206" y2="202.233" gradientUnits="userSpaceOnUse">
<stop stop-color="#A03291"/>
<stop offset="1" stop-color="#FF7C66"/>
</linearGradient>
<linearGradient id="paint30_linear_873_105485" x1="211.578" y1="221.822" x2="215.206" y2="212.75" gradientUnits="userSpaceOnUse">
<stop stop-color="#A03291"/>
<stop offset="1" stop-color="#FF7C66"/>
</linearGradient>
<linearGradient id="paint31_linear_873_105485" x1="193.159" y1="190.24" x2="196.787" y2="181.168" gradientUnits="userSpaceOnUse">
<stop stop-color="#A03291"/>
<stop offset="1" stop-color="#FF7C66"/>
</linearGradient>
<linearGradient id="paint32_linear_873_105485" x1="193.159" y1="200.765" x2="196.787" y2="191.694" gradientUnits="userSpaceOnUse">
<stop stop-color="#A03291"/>
<stop offset="1" stop-color="#FF7C66"/>
</linearGradient>
<linearGradient id="paint33_linear_873_105485" x1="193.159" y1="211.304" x2="196.787" y2="202.233" gradientUnits="userSpaceOnUse">
<stop stop-color="#A03291"/>
<stop offset="1" stop-color="#FF7C66"/>
</linearGradient>
<linearGradient id="paint34_linear_873_105485" x1="193.159" y1="221.822" x2="196.787" y2="212.75" gradientUnits="userSpaceOnUse">
<stop stop-color="#A03291"/>
<stop offset="1" stop-color="#FF7C66"/>
</linearGradient>
<clipPath id="clip0_873_105485">
<rect width="99.6388" height="119.208" fill="white" transform="translate(136.848 29.3613)"/>
</clipPath>
<clipPath id="clip1_873_105485">
<rect width="157.878" height="89.742" fill="white" transform="translate(111.585 158.664)"/>
</clipPath>
</defs>
</svg>
