<svg width="25" height="24" viewBox="0 0 25 24" fill="none" xmlns="http://www.w3.org/2000/svg">
<path d="M18.2238 7.30878C18.623 7.70803 18.623 8.30691 18.2238 8.70617L14.2313 12.6987C13.832 13.0979 13.2331 13.0979 12.8339 12.6987L10.8376 10.7024C10.4383 10.3032 10.4383 9.7043 10.8376 9.30505C11.2369 8.90579 11.8357 8.90579 12.235 9.30505L13.5326 10.6026L16.8264 7.30878C17.2256 6.90953 17.8245 6.90953 18.2238 7.30878Z" fill="currentColor"/>
<path fill-rule="evenodd" clip-rule="evenodd" d="M20.5195 17.9888H8.5419C7.44395 17.9888 6.54563 17.0905 6.54563 15.9925V4.01494C6.54563 2.917 7.44395 2.01868 8.5419 2.01868H20.5195C21.6174 2.01868 22.5157 2.917 22.5157 4.01494V15.9925C22.5157 17.0905 21.6174 17.9888 20.5195 17.9888ZM8.5419 4.01494V15.9925H20.5195V4.01494H8.5419Z" fill="currentColor"/>
<path d="M15.5288 21.9813H4.54937C3.45142 21.9813 2.5531 21.083 2.5531 19.9851V9.0056C2.5531 8.40672 2.95235 8.00747 3.55123 8.00747C4.15011 8.00747 4.54937 8.40672 4.54937 9.0056V19.9851H15.5288C16.1277 19.9851 16.527 20.3843 16.527 20.9832C16.527 21.5821 16.1277 21.9813 15.5288 21.9813Z" fill="currentColor"/>
</svg>
