<svg width="24" height="24" viewBox="0 0 24 24" fill="none" xmlns="http://www.w3.org/2000/svg">
<path d="M4.48698 1.99949C4.26615 2.00294 4.05573 2.0939 3.90192 2.25239C3.74811 2.41087 3.6635 2.62393 3.66667 2.84476V6.73365C3.66669 6.95466 3.75449 7.1666 3.91077 7.32288C4.06704 7.47916 4.27899 7.56696 4.5 7.56698H8.38889C8.49932 7.56854 8.60895 7.54814 8.71142 7.50697C8.8139 7.46579 8.90717 7.40465 8.98581 7.32712C9.06445 7.24958 9.1269 7.15718 9.16952 7.0553C9.21214 6.95342 9.23409 6.84409 9.23409 6.73365C9.23409 6.62321 9.21214 6.51388 9.16952 6.41199C9.1269 6.31011 9.06445 6.21772 8.98581 6.14018C8.90717 6.06265 8.8139 6.00151 8.71142 5.96033C8.60895 5.91916 8.49932 5.89875 8.38889 5.90032H6.3533C7.83771 4.5266 9.81264 3.67809 12 3.67809C16.6124 3.67809 20.3333 7.39898 20.3333 12.0114C20.3333 16.6239 16.6124 20.3448 12 20.3448C7.38756 20.3448 3.66667 16.6239 3.66667 12.0114C3.66667 11.4034 3.73129 10.8118 3.85438 10.2428C3.88087 10.1346 3.88541 10.0222 3.86773 9.91222C3.85005 9.80226 3.8105 9.69695 3.75143 9.60253C3.69236 9.5081 3.61496 9.42648 3.52381 9.36247C3.43266 9.29847 3.3296 9.25339 3.22073 9.22989C3.11186 9.20638 2.99938 9.20494 2.88995 9.22565C2.78051 9.24636 2.67633 9.28879 2.58357 9.35044C2.49081 9.41209 2.41135 9.4917 2.34988 9.58459C2.28841 9.67747 2.24619 9.78172 2.22569 9.8912C2.07767 10.5755 2 11.285 2 12.0114C2 17.5245 6.48689 22.0114 12 22.0114C17.5131 22.0114 22 17.5245 22 12.0114C22 6.49832 17.5131 2.01143 12 2.01143C9.44185 2.01143 7.10401 2.97853 5.33333 4.56351V2.84476C5.33493 2.73322 5.31413 2.6225 5.27215 2.51915C5.23017 2.41581 5.16787 2.32194 5.08894 2.24311C5.01001 2.16429 4.91606 2.10211 4.81266 2.06026C4.70926 2.01841 4.59851 1.99775 4.48698 1.99949Z" fill="currentColor"/>
</svg>
