<svg width="25" height="24" viewBox="0 0 25 24" fill="none" xmlns="http://www.w3.org/2000/svg">
<path d="M12.1955 2.21881C8.9471 2.21881 6.05795 3.75894 4.24327 6.13703V4.41958C4.2447 4.3214 4.22608 4.22393 4.18853 4.13295C4.15097 4.04197 4.09523 3.95934 4.02462 3.88995C3.95401 3.82056 3.86997 3.76582 3.77746 3.72898C3.68495 3.69214 3.58588 3.67395 3.48609 3.67549C3.28854 3.67852 3.10028 3.75859 2.96268 3.89811C2.82508 4.03763 2.74938 4.22519 2.75222 4.41958V7.84301C2.75224 8.03756 2.83079 8.22414 2.9706 8.36171C3.11041 8.49929 3.30002 8.57658 3.49774 8.5766H6.97686C7.07565 8.57797 7.17373 8.56002 7.26541 8.52377C7.35708 8.48752 7.44052 8.4337 7.51088 8.36544C7.58123 8.29719 7.6371 8.21585 7.67523 8.12617C7.71336 8.03648 7.733 7.94023 7.733 7.84301C7.733 7.74579 7.71336 7.64954 7.67523 7.55985C7.6371 7.47017 7.58123 7.38883 7.51088 7.32057C7.44052 7.25232 7.35708 7.1985 7.26541 7.16225C7.17373 7.126 7.07565 7.10804 6.97686 7.10942H5.36155C6.89688 5.03492 9.38201 3.68599 12.1955 3.68599C16.8706 3.68599 20.6448 7.39978 20.6448 12C20.6448 16.6003 16.8706 20.3141 12.1955 20.3141C7.52045 20.3141 3.74625 16.6003 3.74625 12C3.74765 11.9028 3.7294 11.8063 3.69256 11.7161C3.65572 11.6259 3.60103 11.5438 3.53166 11.4746C3.46229 11.4053 3.37963 11.3504 3.28849 11.3128C3.19734 11.2753 3.09953 11.256 3.00073 11.256C2.90193 11.256 2.80411 11.2753 2.71296 11.3128C2.62182 11.3504 2.53916 11.4053 2.46979 11.4746C2.40043 11.5438 2.34573 11.6259 2.30889 11.7161C2.27206 11.8063 2.2538 11.9028 2.2552 12C2.2552 17.3932 6.71458 21.7812 12.1955 21.7812C17.6765 21.7812 22.1359 17.3932 22.1359 12C22.1359 6.60681 17.6765 2.21881 12.1955 2.21881Z" fill="currentColor"/>
<path fill-rule="evenodd" clip-rule="evenodd" d="M16.4848 10.2603C17.8241 11.0335 17.8241 12.9666 16.4848 13.7398L11.8427 16.4199C10.5034 17.1932 8.82935 16.2266 8.82935 14.6802V9.31988C8.82935 7.77344 10.5034 6.80691 11.8427 7.58013L16.4848 10.2603ZM15.7348 12.4407C16.0741 12.2449 16.0741 11.7552 15.7348 11.5593L11.0927 8.87917C10.7534 8.6833 10.3293 8.92814 10.3293 9.31988L10.3293 14.6802C10.3293 15.0719 10.7534 15.3168 11.0927 15.1209L15.7348 12.4407Z" fill="currentColor"/>
</svg>
