<svg width="24" height="24" viewBox="0 0 24 24" fill="none" xmlns="http://www.w3.org/2000/svg">
<path d="M17.0403 2.45519C15.5469 2.44583 13.7659 3.03228 12.7306 4.06757C11.2671 5.53107 10.9721 7.51079 11.797 9.34646C11.3708 9.74109 10.8345 10.2108 10.2146 10.7356L6.18322 6.70418V5.8895C6.18322 5.65629 6.07077 5.4372 5.88064 5.30134L3.83866 3.84347C3.60421 3.67613 3.28359 3.70278 3.0798 3.90658L2.21414 4.77223C2.01035 4.97603 1.98369 5.29665 2.15104 5.5311L3.6089 7.57308C3.74476 7.7632 3.96344 7.87565 4.19706 7.87565H5.01175L8.93713 11.801C8.633 12.0537 8.35363 12.2908 8.04721 12.5445C6.29091 13.9989 4.63116 15.3732 3.78284 16.2215C2.56669 17.4373 2.56669 19.4154 3.78284 20.6315C4.39092 21.2396 5.18962 21.5433 5.98824 21.5433C6.78686 21.5433 7.58556 21.2396 8.19364 20.6315C8.93758 19.8876 10.3597 18.1801 11.8658 16.372C13.0746 14.9214 14.2891 13.4692 15.0663 12.6214C15.7355 12.9222 16.4237 13.0736 17.0994 13.0736C18.2774 13.0736 19.4161 12.6133 20.346 11.6829C22.0025 10.0269 22.5102 6.46231 21.2667 5.21882C20.9432 4.89531 20.4191 4.89572 20.0952 5.21882L17.4545 7.85947C17.1385 7.83047 16.832 7.76759 16.7127 7.7009C16.646 7.58119 16.5827 7.27466 16.5541 6.95903L19.1947 4.31837C19.5183 3.99487 19.5183 3.47122 19.1947 3.14771C18.7284 2.68156 17.9364 2.4608 17.0403 2.45519ZM17.0492 4.12259L15.1245 6.04726C14.9692 6.20259 14.8818 6.41345 14.8818 6.63299C14.8818 7.10976 14.9456 8.28285 15.5388 8.8756C16.1315 9.46877 17.3046 9.53253 17.7814 9.53253C18.0009 9.53253 18.2118 9.44476 18.3671 9.28902L20.2918 7.36435C20.2827 8.32327 19.9632 9.72278 19.1745 10.5115C17.6382 12.0461 15.6282 11.409 14.3163 10.098C13.0041 8.78579 12.3674 6.77454 13.9021 5.23985C14.6912 4.45076 16.0903 4.1317 17.0492 4.12259ZM12.6967 10.7736C12.8365 10.9417 12.9835 11.1074 13.1449 11.2687C13.3066 11.4304 13.473 11.5792 13.6416 11.7193C12.8472 12.6065 11.7467 13.9272 10.5932 15.3122C9.17699 17.0117 7.71268 18.7696 7.02217 19.4601C6.45221 20.0296 5.5251 20.0296 4.95431 19.4601C4.38434 18.8901 4.38434 17.963 4.95431 17.393C5.74795 16.5998 7.45476 15.1865 9.1046 13.8204C10.4768 12.6837 11.7768 11.6044 12.6967 10.7736ZM15.2443 14.0396L14.576 14.8082L17.893 18.1252C18.2957 18.5278 18.2957 19.1833 17.893 19.5855C17.5032 19.9752 16.8233 19.9757 16.4336 19.5855L13.2436 16.3955L12.1773 17.6729L15.2621 20.7569C15.7699 21.2652 16.445 21.5449 17.1633 21.5449C17.8815 21.5449 18.5571 21.2652 19.0653 20.7569C20.1137 19.7085 20.1137 18.0033 19.0653 16.9545L16.3219 14.2111L15.2443 14.0396Z" fill="currentColor"/>
</svg>
