<svg width="25" height="25" viewBox="0 0 25 25" fill="none" xmlns="http://www.w3.org/2000/svg">
<path fill-rule="evenodd" clip-rule="evenodd" d="M5.37132 2.61905C3.8172 2.61905 2.5531 3.79429 2.5531 5.2381V17.1429C2.5531 18.5867 3.8172 19.7619 5.37132 19.7619H11.2025C10.9402 19.3158 10.729 18.837 10.5767 18.3333H5.37132C4.66523 18.3333 4.09031 17.7995 4.09031 17.1429V14.5238H10.5767C10.8667 13.5649 11.37 12.6965 12.0326 11.9717V9.28572H18.4376V9.89755C18.976 10.006 19.4912 10.1774 19.9748 10.4035V5.2381C19.9748 3.79429 18.7107 2.61905 17.1566 2.61905H5.37132ZM5.37132 4.04762H10.4954V7.85714H4.09031V5.2381C4.09031 4.58143 4.66523 4.04762 5.37132 4.04762ZM12.0326 4.04762H17.1566C17.8627 4.04762 18.4376 4.58143 18.4376 5.2381V7.85714H12.0326V4.04762ZM4.09031 9.28572H10.4954V13.0952H4.09031V9.28572Z" fill="currentColor"/>
<path fill-rule="evenodd" clip-rule="evenodd" d="M15.9896 11.55C16.2654 10.4357 17.877 10.4357 18.1528 11.55L18.1521 11.5507C18.1933 11.7182 18.2742 11.8738 18.3881 12.0047C18.502 12.1356 18.6457 12.2382 18.8075 12.3041C18.9693 12.3701 19.1447 12.3975 19.3193 12.3841C19.4939 12.3707 19.6628 12.317 19.8123 12.2272C20.8083 11.63 21.948 12.7515 21.3411 13.7315C21.2499 13.8786 21.1952 14.0449 21.1816 14.2167C21.1681 14.3885 21.1959 14.561 21.2629 14.7203C21.3299 14.8795 21.4342 15.0209 21.5672 15.1329C21.7003 15.245 21.8584 15.3246 22.0286 15.3651C23.1617 15.6352 23.1617 17.2216 22.0286 17.4924C21.8584 17.5331 21.7005 17.6127 21.5675 17.7248C21.4346 17.8369 21.3303 17.9783 21.2634 18.1374C21.1964 18.2966 21.1685 18.4691 21.182 18.6409C21.1955 18.8126 21.25 18.9788 21.3411 19.126C21.948 20.106 20.8083 21.2275 19.8123 20.6303C19.6628 20.5407 19.4939 20.4871 19.3193 20.4738C19.1447 20.4605 18.9694 20.4879 18.8077 20.5538C18.6459 20.6197 18.5022 20.7223 18.3883 20.8531C18.2744 20.9839 18.1935 21.1394 18.1521 21.3068C17.8777 22.4218 16.2654 22.4218 15.9903 21.3068C15.9491 21.1393 15.8682 20.9837 15.7543 20.8528C15.6404 20.7219 15.4967 20.6193 15.3349 20.5534C15.1731 20.4874 14.9977 20.46 14.8231 20.4734C14.6485 20.4868 14.4796 20.5405 14.3301 20.6303C13.3341 21.2275 12.1944 20.106 12.8013 19.126C12.8925 18.9789 12.9472 18.8126 12.9608 18.6408C12.9743 18.469 12.9465 18.2965 12.8795 18.1372C12.8125 17.978 12.7082 17.8366 12.5752 17.7246C12.4421 17.6125 12.2841 17.5329 12.1138 17.4924C10.9807 17.2223 10.9807 15.6359 12.1138 15.3651C12.8456 15.1901 13.1933 14.3644 12.8013 13.7315C12.1944 12.7515 13.3341 11.63 14.3301 12.2272C14.4796 12.3168 14.6485 12.3704 14.8231 12.3837C14.9977 12.3969 15.1729 12.3695 15.3347 12.3035C15.4964 12.2375 15.64 12.1348 15.7538 12.0039C15.8676 11.873 15.9484 11.7175 15.9896 11.55ZM18.6111 17.944C18.2027 18.3459 17.6488 18.5717 17.0712 18.5717C16.4936 18.5717 15.9397 18.3459 15.5313 17.944C15.1229 17.5422 14.8934 16.9971 14.8934 16.4288C14.8934 15.8604 15.1229 15.3154 15.5313 14.9135C15.9397 14.5116 16.4936 14.2858 17.0712 14.2858C17.6488 14.2858 18.2027 14.5116 18.6111 14.9135C19.0195 15.3154 19.249 15.8604 19.249 16.4288C19.249 16.9971 19.0195 17.5422 18.6111 17.944Z" fill="currentColor"/>
</svg>
