<svg width="26" height="25" viewBox="0 0 26 25" fill="none" xmlns="http://www.w3.org/2000/svg">
<path fill-rule="evenodd" clip-rule="evenodd" d="M5.71405 22.6191C4.13098 22.6191 2.84766 21.3563 2.84766 19.7985V5.43956C2.84766 3.88184 4.13098 2.61905 5.71405 2.61905H20.3066C21.8897 2.61905 23.173 3.88184 23.173 5.43956V19.7985C23.173 21.3563 21.8897 22.6191 20.3066 22.6191H5.71405ZM4.41114 5.43956C4.41114 4.7315 4.99448 4.15751 5.71405 4.15751H12.2286V8.7729H4.41114V5.43956ZM12.2286 10.3114H4.41114V14.9267H12.2286V10.3114ZM13.7921 14.9267V10.3114H21.6095V14.9267H13.7921ZM12.2286 16.4652H4.41114V19.7985C4.41114 20.5066 4.99448 21.0806 5.71405 21.0806H12.2286V16.4652ZM13.7921 21.0806V16.4652H21.6095V19.7985C21.6095 20.5066 21.0262 21.0806 20.3066 21.0806H13.7921ZM13.7921 4.15751H20.3066C21.0262 4.15751 21.6095 4.7315 21.6095 5.43956V8.7729H13.7921V4.15751Z" fill="currentColor"/>
</svg>
