<svg width="25" height="24" viewBox="0 0 25 24" fill="none" xmlns="http://www.w3.org/2000/svg">
<g clip-path="url(#clip0_10279_147)">
<path d="M5.92927 4.8125C5.73524 4.8125 5.54119 4.8866 5.39314 5.03466C3.53266 6.89513 2.50732 9.3691 2.50732 12C2.50732 14.6309 3.53266 17.1049 5.39314 18.9653C5.54138 19.1136 5.73515 19.1875 5.92927 19.1875C6.1234 19.1875 6.31642 19.1129 6.46467 18.9646C6.76078 18.6685 6.76078 18.1892 6.46467 17.8931C4.89083 16.3192 4.02391 14.226 4.02391 12C4.02391 9.77403 4.89083 7.68115 6.46467 6.10693C6.76078 5.81082 6.76078 5.33077 6.46467 5.03466C6.31661 4.8866 6.1233 4.8125 5.92927 4.8125ZM18.7862 4.81324C18.5922 4.81324 18.3989 4.88734 18.2508 5.0354C17.9547 5.33151 17.9547 5.81082 18.2508 6.10693C19.8246 7.68077 20.6916 9.77403 20.6916 12C20.6916 14.226 19.8246 16.3189 18.2508 17.8931C17.9547 18.1892 17.9547 18.6692 18.2508 18.9653C18.3991 19.1136 18.5921 19.1875 18.7862 19.1875C18.9803 19.1875 19.1741 19.1128 19.3223 18.9653C21.1828 17.1049 22.2082 14.632 22.2082 12.0007C22.2082 9.36946 21.1828 6.89587 19.3223 5.0354C19.1743 4.88734 18.9802 4.81324 18.7862 4.81324ZM8.34115 7.22586C8.14712 7.22586 7.95307 7.29922 7.80501 7.44727C5.29506 9.95723 5.29506 14.042 7.80501 16.552C7.95326 16.7002 8.14703 16.7741 8.34115 16.7741C8.53527 16.7741 8.72942 16.7006 8.87729 16.552C9.1734 16.2559 9.1734 15.7758 8.87729 15.4797C6.95843 13.5608 6.95843 10.4384 8.87729 8.51955C9.1734 8.22344 9.1734 7.74339 8.87729 7.44727C8.72923 7.29922 8.53518 7.22586 8.34115 7.22586ZM16.3743 7.22586C16.1803 7.22586 15.9862 7.29996 15.8382 7.44802C15.5421 7.74413 15.5421 8.22418 15.8382 8.52029C17.7571 10.4392 17.7571 13.5608 15.8382 15.4797C15.5421 15.7758 15.5421 16.2559 15.8382 16.552C15.9864 16.7002 16.1802 16.7741 16.3743 16.7741C16.5681 16.7741 16.7622 16.7006 16.9105 16.5527C19.4204 14.0428 19.4204 9.95797 16.9105 7.44802C16.7624 7.29996 16.5684 7.22586 16.3743 7.22586ZM12.3577 8.96683C10.6853 8.96683 9.32456 10.3276 9.32456 12C9.32456 13.6724 10.6853 15.0332 12.3577 15.0332C14.0302 15.0332 15.3909 13.6724 15.3909 12C15.3909 10.3276 14.0302 8.96683 12.3577 8.96683ZM12.3577 10.4834C13.1941 10.4834 13.8743 11.1636 13.8743 12C13.8743 12.8364 13.1941 13.5166 12.3577 13.5166C11.5213 13.5166 10.8412 12.8364 10.8412 12C10.8412 11.1636 11.5213 10.4834 12.3577 10.4834Z" fill="currentColor"/>
</g>
<defs>
<clipPath id="clip0_10279_147">
<rect width="20" height="20" fill="white" transform="translate(2.35779 2)"/>
</clipPath>
</defs>
</svg>
