<svg width="25" height="24" viewBox="0 0 25 24" fill="none" xmlns="http://www.w3.org/2000/svg">
<path d="M12.1953 2.21881C8.94686 2.21881 6.0577 3.75894 4.24302 6.13703V4.41958C4.24445 4.3214 4.22584 4.22393 4.18828 4.13295C4.15073 4.04197 4.09499 3.95934 4.02438 3.88995C3.95377 3.82056 3.86972 3.76582 3.77722 3.72898C3.68471 3.69214 3.58563 3.67395 3.48585 3.67549C3.28829 3.67852 3.10004 3.75859 2.96244 3.89811C2.82484 4.03763 2.74914 4.22519 2.75197 4.41958V7.84301C2.75199 8.03756 2.83055 8.22414 2.97035 8.36171C3.11016 8.49929 3.29978 8.57658 3.4975 8.5766H6.97661C7.0754 8.57797 7.17349 8.56002 7.26516 8.52377C7.35684 8.48752 7.44028 8.4337 7.51063 8.36544C7.58099 8.29719 7.63685 8.21585 7.67499 8.12617C7.71312 8.03648 7.73275 7.94023 7.73275 7.84301C7.73275 7.74579 7.71312 7.64954 7.67499 7.55985C7.63685 7.47017 7.58099 7.38883 7.51063 7.32057C7.44028 7.25232 7.35684 7.1985 7.26516 7.16225C7.17349 7.126 7.0754 7.10804 6.97661 7.10942H5.36131C6.89663 5.03492 9.38176 3.68599 12.1953 3.68599C16.8704 3.68599 20.6446 7.39978 20.6446 12C20.6446 16.6003 16.8704 20.3141 12.1953 20.3141C7.5202 20.3141 3.74601 16.6003 3.74601 12C3.7474 11.9028 3.72915 11.8063 3.69231 11.7161C3.65547 11.6259 3.60078 11.5438 3.53141 11.4746C3.46205 11.4053 3.37939 11.3504 3.28824 11.3128C3.1971 11.2753 3.09928 11.256 3.00048 11.256C2.90168 11.256 2.80387 11.2753 2.71272 11.3128C2.62157 11.3504 2.53892 11.4053 2.46955 11.4746C2.40018 11.5438 2.34549 11.6259 2.30865 11.7161C2.27181 11.8063 2.25356 11.9028 2.25496 12C2.25496 17.3932 6.71433 21.7812 12.1953 21.7812C17.6762 21.7812 22.1356 17.3932 22.1356 12C22.1356 6.60681 17.6762 2.21881 12.1953 2.21881ZM11.9351 6.60985C11.7376 6.61289 11.5493 6.69296 11.4117 6.83248C11.2741 6.97199 11.1984 7.15955 11.2013 7.35395V13.2227C11.2013 13.4172 11.2798 13.6038 11.4196 13.7414C11.5594 13.879 11.7491 13.9562 11.9468 13.9563H15.9229C16.0217 13.9576 16.1198 13.9397 16.2115 13.9034C16.3031 13.8672 16.3866 13.8134 16.4569 13.7451C16.5273 13.6769 16.5831 13.5955 16.6213 13.5058C16.6594 13.4161 16.679 13.3199 16.679 13.2227C16.679 13.1255 16.6594 13.0292 16.6213 12.9395C16.5831 12.8498 16.5273 12.7685 16.4569 12.7002C16.3866 12.632 16.3031 12.5782 16.2115 12.5419C16.1198 12.5057 16.0217 12.4877 15.9229 12.4891H12.6923V7.35395C12.6937 7.25576 12.6751 7.15829 12.6376 7.06731C12.6 6.97634 12.5443 6.8937 12.4737 6.82431C12.403 6.75492 12.319 6.70019 12.2265 6.66335C12.134 6.62651 12.0349 6.60832 11.9351 6.60985Z" fill="currentColor"/>
</svg>
