<svg width="25" height="24" viewBox="0 0 25 24" fill="none" xmlns="http://www.w3.org/2000/svg">
<path fill-rule="evenodd" clip-rule="evenodd" d="M3.04883 4.18302C3.04883 2.98598 4.05085 2 5.26736 2H11.6765C11.8725 2.00003 12.0607 2.07672 12.1993 2.21319L18.6084 8.51969C18.7471 8.65613 18.825 8.84119 18.8251 9.03418V12.47C18.579 12.5238 18.3592 12.6459 18.0856 12.9151C18.0058 12.9936 17.7353 13.2678 17.346 13.6639V9.76186H13.1555C11.939 9.76186 10.9369 8.77587 10.9369 7.57883V3.45535H5.26736C4.85006 3.45535 4.52785 3.77237 4.52785 4.18302V19.2216C4.52785 19.6323 4.85006 19.9493 5.26736 19.9493H11.43V21.4046H5.26736C4.05085 21.4046 3.04883 20.4187 3.04883 19.2216V4.18302ZM16.3003 8.30651L12.416 4.48432V7.57883C12.416 7.98948 12.7381 8.30651 13.1555 8.30651H16.3003Z" fill="currentColor"/>
<path d="M7.44617 12.2398C7.53717 12.2039 7.63442 12.1861 7.7324 12.1874H14.1415C14.2395 12.1861 14.3368 12.2039 14.4277 12.2398C14.5187 12.2758 14.6014 12.3292 14.6712 12.3969C14.741 12.4646 14.7964 12.5453 14.8342 12.6342C14.872 12.7232 14.8915 12.8187 14.8915 12.9151C14.8915 13.0115 14.872 13.107 14.8342 13.196C14.8122 13.2478 14.7842 13.2968 14.7509 13.342C14.727 13.3745 14.7003 13.4051 14.6712 13.4333C14.6014 13.501 14.5187 13.5544 14.4277 13.5904C14.3368 13.6263 14.2395 13.6441 14.1415 13.6428H7.7324C7.63442 13.6441 7.53717 13.6263 7.44617 13.5904C7.35518 13.5544 7.27249 13.501 7.20268 13.4333C7.13287 13.3656 7.0775 13.285 7.03971 13.196C7.00179 13.107 6.9823 13.0115 6.9823 12.9151C6.9823 12.8187 7.00179 12.7232 7.03971 12.6342C7.0775 12.5453 7.13287 12.4646 7.20268 12.3969C7.27249 12.3292 7.35518 12.2758 7.44617 12.2398Z" fill="currentColor"/>
<path d="M7.7324 15.5832C7.68883 15.5827 7.64538 15.5859 7.60253 15.5928C7.54909 15.6013 7.49661 15.6157 7.44617 15.6357C7.35518 15.6716 7.27249 15.725 7.20268 15.7927C7.13287 15.8604 7.0775 15.9411 7.03971 16.03C7.00179 16.119 6.9823 16.2145 6.9823 16.3109C6.9823 16.3703 6.98976 16.4293 7.00432 16.4867C7.01335 16.5224 7.02514 16.5576 7.03971 16.5918C7.0775 16.6808 7.13287 16.7614 7.20268 16.8291C7.27249 16.8969 7.35518 16.9502 7.44617 16.9862C7.53717 17.0221 7.63442 17.04 7.7324 17.0386H12.1695C12.2376 17.0395 12.3055 17.0312 12.3711 17.0139C12.3997 17.0064 12.428 16.9971 12.4557 16.9862C12.5466 16.9502 12.6294 16.8969 12.6992 16.8291C12.769 16.7614 12.8244 16.6808 12.8622 16.5918C12.9 16.5028 12.9195 16.4074 12.9195 16.3109C12.9195 16.2145 12.9 16.119 12.8622 16.03C12.8244 15.9411 12.769 15.8604 12.6992 15.7927C12.6294 15.725 12.5466 15.6716 12.4557 15.6357C12.3647 15.5997 12.2674 15.5819 12.1695 15.5832H7.7324Z" fill="currentColor"/>
<path fill-rule="evenodd" clip-rule="evenodd" d="M18.4949 13.6273C18.802 13.3251 19.2185 13.1554 19.6527 13.1554C20.087 13.1554 20.5035 13.3251 20.8105 13.6273C21.1176 13.9294 21.2901 14.3392 21.2901 14.7666C21.2901 15.1939 21.1176 15.6037 20.8105 15.9058L14.7758 21.844C14.6743 21.9439 14.5365 22 14.3929 22H12.8588C12.5598 22 12.3174 21.7615 12.3174 21.4672V19.9266C12.3174 19.7853 12.3744 19.6498 12.476 19.5499L18.4949 13.6273ZM19.6527 14.221C19.5057 14.221 19.3646 14.2784 19.2606 14.3808L18.986 14.651L19.7702 15.4226L20.0448 15.1524C20.1488 15.05 20.2072 14.9113 20.2072 14.7666C20.2072 14.6219 20.1488 14.4831 20.0448 14.3808C19.9408 14.2784 19.7998 14.221 19.6527 14.221ZM13.4003 20.1473V20.9344H14.1687L19.0045 16.176L18.2203 15.4044L13.4003 20.1473Z" fill="currentColor"/>
</svg>
