<svg width="24" height="24" viewBox="0 0 24 24" fill="none" xmlns="http://www.w3.org/2000/svg">
<path d="M12 2C11.8128 2 11.6332 2.07437 11.5009 2.20675C11.3685 2.33913 11.2941 2.51867 11.2941 2.70588C11.2941 2.89309 11.3685 3.07264 11.5009 3.20502C11.6332 3.3374 11.8128 3.41176 12 3.41176C12.1872 3.41176 12.3667 3.3374 12.4991 3.20502C12.6315 3.07264 12.7059 2.89309 12.7059 2.70588C12.7059 2.51867 12.6315 2.33913 12.4991 2.20675C12.3667 2.07437 12.1872 2 12 2ZM6.58823 2.47059C5.42705 2.47059 4.47058 3.42706 4.47058 4.58824V19.1765C4.47058 20.3376 5.42705 21.2941 6.58823 21.2941H10.1176V19.8824H6.58823C6.18988 19.8824 5.88235 19.5748 5.88235 19.1765V4.58824C5.88235 4.18988 6.18988 3.88235 6.58823 3.88235H10.1176V2.47059H6.58823ZM13.8823 2.47059V3.88235H17.4118C17.8101 3.88235 18.1176 4.18988 18.1176 4.58824V19.1765C18.1176 19.5748 17.8101 19.8824 17.4118 19.8824H13.8823V21.2941H17.4118C18.5729 21.2941 19.5294 20.3376 19.5294 19.1765V4.58824C19.5294 3.42706 18.5729 2.47059 17.4118 2.47059H13.8823ZM12 4.35294C11.8128 4.35294 11.6332 4.42731 11.5009 4.55969C11.3685 4.69207 11.2941 4.87161 11.2941 5.05882C11.2941 5.24604 11.3685 5.42558 11.5009 5.55796C11.6332 5.69034 11.8128 5.76471 12 5.76471C12.1872 5.76471 12.3667 5.69034 12.4991 5.55796C12.6315 5.42558 12.7059 5.24604 12.7059 5.05882C12.7059 4.87161 12.6315 4.69207 12.4991 4.55969C12.3667 4.42731 12.1872 4.35294 12 4.35294ZM7.99999 6.70588C7.60988 6.70588 7.29411 7.02165 7.29411 7.41176C7.29411 7.80188 7.60988 8.11765 7.99999 8.11765H10.1176V6.70588H7.99999ZM12 6.70588C11.8128 6.70588 11.6332 6.78025 11.5009 6.91263C11.3685 7.04501 11.2941 7.22455 11.2941 7.41176C11.2941 7.59898 11.3685 7.77852 11.5009 7.9109C11.6332 8.04328 11.8128 8.11765 12 8.11765C12.1872 8.11765 12.3667 8.04328 12.4991 7.9109C12.6315 7.77852 12.7059 7.59898 12.7059 7.41176C12.7059 7.22455 12.6315 7.04501 12.4991 6.91263C12.3667 6.78025 12.1872 6.70588 12 6.70588ZM13.8823 6.70588V8.11765H16C16.3901 8.11765 16.7059 7.80188 16.7059 7.41176C16.7059 7.02165 16.3901 6.70588 16 6.70588H13.8823ZM12 9.05882C11.8128 9.05882 11.6332 9.13319 11.5009 9.26557C11.3685 9.39795 11.2941 9.57749 11.2941 9.76471C11.2941 9.95192 11.3685 10.1315 11.5009 10.2638C11.6332 10.3962 11.8128 10.4706 12 10.4706C12.1872 10.4706 12.3667 10.3962 12.4991 10.2638C12.6315 10.1315 12.7059 9.95192 12.7059 9.76471C12.7059 9.57749 12.6315 9.39795 12.4991 9.26557C12.3667 9.13319 12.1872 9.05882 12 9.05882ZM7.99999 9.52941C7.60988 9.52941 7.29411 9.84518 7.29411 10.2353C7.29411 10.6254 7.60988 10.9412 7.99999 10.9412H10.1176V9.52941H7.99999ZM13.8823 9.52941V10.9412H16C16.3901 10.9412 16.7059 10.6254 16.7059 10.2353C16.7059 9.84518 16.3901 9.52941 16 9.52941H13.8823ZM12 11.4118C11.8128 11.4118 11.6332 11.4861 11.5009 11.6185C11.3685 11.7509 11.2941 11.9304 11.2941 12.1176C11.2941 12.3049 11.3685 12.4844 11.5009 12.6168C11.6332 12.7492 11.8128 12.8235 12 12.8235C12.1872 12.8235 12.3667 12.7492 12.4991 12.6168C12.6315 12.4844 12.7059 12.3049 12.7059 12.1176C12.7059 11.9304 12.6315 11.7509 12.4991 11.6185C12.3667 11.4861 12.1872 11.4118 12 11.4118ZM13.8823 12.3529V13.7647H16C16.3901 13.7647 16.7059 13.4489 16.7059 13.0588C16.7059 12.6687 16.3901 12.3529 16 12.3529H13.8823ZM12 13.7647C11.8128 13.7647 11.6332 13.8391 11.5009 13.9715C11.3685 14.1038 11.2941 14.2834 11.2941 14.4706C11.2941 14.6578 11.3685 14.8373 11.5009 14.9697C11.6332 15.1021 11.8128 15.1765 12 15.1765C12.1872 15.1765 12.3667 15.1021 12.4991 14.9697C12.6315 14.8373 12.7059 14.6578 12.7059 14.4706C12.7059 14.2834 12.6315 14.1038 12.4991 13.9715C12.3667 13.8391 12.1872 13.7647 12 13.7647ZM13.8823 15.1765V16.5882H16C16.3901 16.5882 16.7059 16.2725 16.7059 15.8824C16.7059 15.4922 16.3901 15.1765 16 15.1765H13.8823ZM12 15.8824C11.8128 15.8824 11.6332 15.9567 11.5009 16.0891C11.3685 16.2215 11.2941 16.401 11.2941 16.5882C11.2941 16.7754 11.3685 16.955 11.5009 17.0874C11.6332 17.2197 11.8128 17.2941 12 17.2941C12.1872 17.2941 12.3667 17.2197 12.4991 17.0874C12.6315 16.955 12.7059 16.7754 12.7059 16.5882C12.7059 16.401 12.6315 16.2215 12.4991 16.0891C12.3667 15.9567 12.1872 15.8824 12 15.8824ZM12 18.2353C11.8128 18.2353 11.6332 18.3097 11.5009 18.442C11.3685 18.5744 11.2941 18.754 11.2941 18.9412C11.2941 19.1284 11.3685 19.3079 11.5009 19.4403C11.6332 19.5727 11.8128 19.6471 12 19.6471C12.1872 19.6471 12.3667 19.5727 12.4991 19.4403C12.6315 19.3079 12.7059 19.1284 12.7059 18.9412C12.7059 18.754 12.6315 18.5744 12.4991 18.442C12.3667 18.3097 12.1872 18.2353 12 18.2353ZM12 20.5882C11.8128 20.5882 11.6332 20.6626 11.5009 20.795C11.3685 20.9274 11.2941 21.1069 11.2941 21.2941C11.2941 21.4813 11.3685 21.6609 11.5009 21.7933C11.6332 21.9256 11.8128 22 12 22C12.1872 22 12.3667 21.9256 12.4991 21.7933C12.6315 21.6609 12.7059 21.4813 12.7059 21.2941C12.7059 21.1069 12.6315 20.9274 12.4991 20.795C12.3667 20.6626 12.1872 20.5882 12 20.5882Z" fill="currentColor"/>
</svg>
