<svg width="24" height="25" viewBox="0 0 24 25" fill="none" xmlns="http://www.w3.org/2000/svg">
<path d="M6.16667 10.4524C6.16667 9.99215 6.53976 9.61905 7 9.61905H7.83333C8.29357 9.61905 8.66667 9.99215 8.66667 10.4524C8.66667 10.9126 8.29357 11.2857 7.83333 11.2857H7C6.53976 11.2857 6.16667 10.9126 6.16667 10.4524Z" fill="currentColor"/>
<path d="M10.3333 9.61905C9.8731 9.61905 9.5 9.99215 9.5 10.4524C9.5 10.9126 9.8731 11.2857 10.3333 11.2857H17C17.4602 11.2857 17.8333 10.9126 17.8333 10.4524C17.8333 9.99215 17.4602 9.61905 17 9.61905H10.3333Z" fill="currentColor"/>
<path d="M6.16667 13.7857C6.16667 13.3255 6.53976 12.9524 7 12.9524H7.83333C8.29357 12.9524 8.66667 13.3255 8.66667 13.7857C8.66667 14.246 8.29357 14.619 7.83333 14.619H7C6.53976 14.619 6.16667 14.246 6.16667 13.7857Z" fill="currentColor"/>
<path d="M10.3333 12.9524C9.8731 12.9524 9.5 13.3255 9.5 13.7857C9.5 14.246 9.8731 14.619 10.3333 14.619H17C17.4602 14.619 17.8333 14.246 17.8333 13.7857C17.8333 13.3255 17.4602 12.9524 17 12.9524H10.3333Z" fill="currentColor"/>
<path fill-rule="evenodd" clip-rule="evenodd" d="M2 6.28572C2 5.36524 2.74619 4.61905 3.66667 4.61905H20.3333C21.2538 4.61905 22 5.36524 22 6.28572V17.9524C22 18.8729 21.2538 19.619 20.3333 19.619H15.3333V21.2857H8.66667V19.619H3.66667C2.74619 19.619 2 18.8729 2 17.9524V6.28572ZM3.66667 6.28572H20.3333V17.9524H3.66667L3.66667 6.28572Z" fill="currentColor"/>
</svg>
