<svg width="24" height="24" viewBox="0 0 24 24" fill="none" xmlns="http://www.w3.org/2000/svg">
<path fill-rule="evenodd" clip-rule="evenodd" d="M20.1033 20.5488C19.159 21.478 17.8782 22 16.5427 22C15.2072 22 13.9265 21.478 12.9821 20.5488C12.0378 19.6196 11.5073 18.3593 11.5073 17.0452C11.5073 15.7311 12.0378 14.4708 12.9821 13.5416C13.9265 12.6124 15.2072 12.0904 16.5427 12.0904C17.8782 12.0904 19.159 12.6124 20.1033 13.5416C21.0476 14.4708 21.5781 15.7311 21.5781 17.0452C21.5781 18.3593 21.0476 19.6196 20.1033 20.5488ZM19.0527 15.8087C19.0541 15.9711 18.9907 16.1276 18.876 16.2444L16.3583 18.7218C16.2403 18.8379 16.0802 18.9031 15.9133 18.9031C15.7464 18.9031 15.5863 18.8379 15.4683 18.7218L14.2094 17.4831C14.0948 17.3663 14.0313 17.2098 14.0328 17.0474C14.0342 16.885 14.1004 16.7297 14.2171 16.6149C14.3338 16.5 14.4917 16.4349 14.6567 16.4335C14.8217 16.4321 14.9807 16.4945 15.0994 16.6073L15.9133 17.4081L17.986 15.3686C18.1047 15.2558 18.2637 15.1934 18.4287 15.1948C18.5938 15.1962 18.7516 15.2613 18.8683 15.3762C18.985 15.491 19.0512 15.6463 19.0527 15.8087Z" fill="currentColor"/>
<path fill-rule="evenodd" clip-rule="evenodd" d="M10.8182 2.29365C10.905 2.2419 11 2.2166 11.0958 2.21974C11.1785 2.22371 11.2598 2.24884 11.3347 2.29365L19.367 7.02365C19.4736 7.08711 19.5637 7.18803 19.6269 7.31458C19.6901 7.44113 19.7236 7.58805 19.7236 7.73808C19.7236 7.88811 19.6901 8.03503 19.6269 8.16158C19.5637 8.28813 19.4736 8.38905 19.367 8.45251L11.3347 13.1825C11.2538 13.2301 11.1657 13.2547 11.0765 13.2547C10.9873 13.2547 10.8992 13.2301 10.8182 13.1825L2.78596 8.45251C2.6794 8.38905 2.58925 8.28813 2.52609 8.16158C2.46292 8.03503 2.42937 7.88811 2.42937 7.73808C2.42937 7.58805 2.46292 7.44113 2.52609 7.31458C2.58925 7.18803 2.6794 7.08711 2.78596 7.02365L10.8182 2.29365ZM17.6365 7.73808L11.0765 3.8734L4.51647 7.73808L11.0765 11.5997L17.6365 7.73808Z" fill="currentColor"/>
<path d="M18.8505 10.177C18.9366 10.1173 19.0326 10.0846 19.1305 10.0815C19.2761 10.0769 19.4184 10.1381 19.5321 10.2543C19.6458 10.3705 19.7237 10.5342 19.752 10.7166C19.7803 10.8989 19.7571 11.0881 19.6867 11.2509C19.6163 11.4136 19.5031 11.5393 19.367 11.6058L18.9775 11.8352C18.3808 11.5298 17.7229 11.3271 17.0269 11.2504L18.8505 10.177Z" fill="currentColor"/>
<path d="M11.1689 14.6987L11.0765 14.753L3.30246 10.177C3.20931 10.1198 3.10641 10.0933 3.00318 10.1C2.86523 10.1105 2.734 10.1796 2.63048 10.2964C2.52695 10.4132 2.4571 10.5709 2.43208 10.7443C2.40707 10.9177 2.42834 11.0968 2.49248 11.253C2.55663 11.4092 2.65996 11.5334 2.78596 11.6058L10.762 16.3027C10.8192 15.7396 10.959 15.2008 11.1689 14.6987Z" fill="currentColor"/>
<path d="M10.7974 17.7421L3.30246 13.3303C3.20931 13.2731 3.10641 13.2467 3.00318 13.2533C2.86523 13.2638 2.734 13.3329 2.63048 13.4497C2.52695 13.5665 2.4571 13.7242 2.43208 13.8977C2.40707 14.0711 2.42834 14.2502 2.49248 14.4063C2.55663 14.5625 2.65996 14.6867 2.78596 14.7592L10.8182 19.4892C10.8992 19.5367 10.9873 19.5613 11.0765 19.5613C11.1657 19.5613 11.2538 19.5367 11.3347 19.4892L11.359 19.4749C11.0839 18.941 10.8911 18.3578 10.7974 17.7421Z" fill="currentColor"/>
</svg>
