<svg width="25" height="24" viewBox="0 0 25 24" fill="none" xmlns="http://www.w3.org/2000/svg">
<path d="M12.5525 3.00109C12.3771 3.01066 12.2105 3.08013 12.0815 3.19754L8.80837 6.17049C8.73251 6.2359 8.67073 6.3156 8.62668 6.40489C8.58263 6.49417 8.55719 6.59124 8.55188 6.69035C8.54656 6.78947 8.56147 6.88862 8.59573 6.98198C8.62999 7.07533 8.6829 7.16098 8.75135 7.23389C8.81979 7.3068 8.90238 7.36548 8.99424 7.40647C9.0861 7.44746 9.18538 7.46994 9.28621 7.47257C9.38704 7.4752 9.48739 7.45793 9.58133 7.42178C9.67527 7.38564 9.7609 7.33135 9.83318 7.26211L11.8385 5.4408V16.1306C11.8385 18.1921 10.1569 19.8468 8.0619 19.8468H3.27817C3.17808 19.8454 3.07871 19.8636 2.98582 19.9003C2.89294 19.937 2.80841 19.9916 2.73713 20.0607C2.66585 20.1299 2.60925 20.2123 2.57061 20.3031C2.53198 20.394 2.51208 20.4915 2.51208 20.59C2.51208 20.6885 2.53198 20.786 2.57061 20.8769C2.60925 20.9678 2.66585 21.0502 2.73713 21.1193C2.80841 21.1885 2.89294 21.243 2.98582 21.2797C3.07871 21.3165 3.17808 21.3347 3.27817 21.3333H8.0619C10.9732 21.3333 13.3492 18.9953 13.3492 16.1306V5.4408L15.3545 7.26211C15.4268 7.33135 15.5124 7.38564 15.6064 7.42178C15.7003 7.45793 15.8007 7.4752 15.9015 7.47257C16.0023 7.46994 16.1016 7.44746 16.1935 7.40647C16.2853 7.36548 16.3679 7.3068 16.4364 7.23389C16.5048 7.16098 16.5577 7.07533 16.592 6.98198C16.6262 6.88862 16.6411 6.78947 16.6358 6.69035C16.6305 6.59124 16.6051 6.49417 16.561 6.40489C16.517 6.3156 16.4552 6.2359 16.3793 6.17049L13.1063 3.19754C13.032 3.13 12.9448 3.07781 12.8496 3.04407C12.7545 3.01032 12.6535 2.99571 12.5525 3.00109ZM14.3612 18.6477C14.1598 19.1284 13.9032 19.5844 13.596 20.0007C14.5326 20.8281 15.7662 21.3333 17.1258 21.3333H21.9095C22.3275 21.3333 22.6649 21.0013 22.6649 20.59C22.6649 20.1788 22.3275 19.8468 21.9095 19.8468H17.1258C16.0281 19.8468 15.041 19.386 14.3612 18.6477Z" fill="currentColor"/>
</svg>
