<svg width="77" height="76" viewBox="0 0 77 76" fill="none" xmlns="http://www.w3.org/2000/svg">
<g clip-path="url(#clip0_112_381)">
<ellipse cx="38.5183" cy="65.7425" rx="23.6924" ry="1.46563" fill="#E5E7EB"/>
<ellipse cx="38.5183" cy="65.7426" rx="10.9315" ry="0.884905" fill="#ADB5BD"/>
<path d="M38.1475 64.277C38.0827 60.5075 36.5306 56.9164 33.8295 54.2864C31.1994 51.5861 27.6088 50.0344 23.8398 49.9693C27.609 49.9043 31.1997 48.3522 33.8295 45.6513C36.5304 43.0215 38.0825 39.4308 38.1475 35.6616C38.2621 39.4199 39.8063 42.993 42.4651 45.6517C45.1239 48.3105 48.6969 49.8547 52.4552 49.9693C48.6968 50.0835 45.1235 51.6275 42.4646 54.2864C39.8058 56.9453 38.2617 60.5185 38.1475 64.277Z" fill="white"/>
<path d="M38.1474 35.6616C38.1316 37.7258 37.6421 39.7589 36.7167 41.6041C37.8904 44.0445 39.7122 46.1155 41.9832 47.5908C44.2541 49.066 46.8868 49.8888 49.5936 49.9693C46.8867 50.0496 44.2539 50.8723 41.983 52.3476C39.712 53.8229 37.8902 55.894 36.7167 58.3345C37.6422 60.1797 38.1317 62.2128 38.1474 64.277C38.2618 60.5186 39.806 56.9455 42.4648 54.2866C45.1236 51.6278 48.6967 50.0837 52.4551 49.9693C48.6968 49.8547 45.1238 48.3105 42.465 45.6517C39.8063 42.993 38.2621 39.4199 38.1474 35.6616Z" fill="white"/>
<path d="M54.3629 44.2461C54.271 41.2395 53.0356 38.3812 50.9086 36.2542C48.7816 34.1272 45.9234 32.8918 42.9167 32.7999C45.9321 32.7481 48.8047 31.5063 50.9081 29.3451C53.0692 27.2417 54.3111 24.3691 54.3629 21.3538C54.4147 24.3689 55.6562 27.2413 57.8168 29.3451C59.9205 31.5064 62.7934 32.7483 65.8091 32.7999C62.8023 32.8913 59.9437 34.1266 57.8167 36.2537C55.6896 38.3808 54.4543 41.2393 54.3629 44.2461Z" fill="white"/>
<path d="M54.3629 21.3538C54.3499 23.2221 53.8573 25.0558 52.9321 26.6791C53.9218 28.485 55.367 30.0003 57.1242 31.0741C58.8813 32.148 60.889 32.743 62.9475 32.7999C60.889 32.8567 58.8812 33.4516 57.124 34.5255C55.3669 35.5993 53.9216 37.1147 52.9321 38.9207C53.8573 40.544 54.3499 42.3777 54.3629 44.2461C54.4543 41.2393 55.6896 38.3808 57.8167 36.2537C59.9437 34.1266 62.8023 32.8913 65.8091 32.7999C62.8024 32.708 59.9442 31.4726 57.8172 29.3456C55.6902 27.2187 54.4548 24.3604 54.3629 21.3538Z" fill="white"/>
<path d="M27.6552 43.2923C27.5774 38.7692 25.715 34.4602 22.4739 31.3044C19.318 28.0633 15.009 26.2009 10.486 26.1231C15.009 26.0449 19.3178 24.1826 22.4739 20.9418C25.7147 17.7857 27.577 13.4768 27.6552 8.95386C27.733 13.4769 29.5954 17.7859 32.8365 20.9418C35.9923 24.1829 40.3013 26.0453 44.8244 26.1231C40.3145 26.2609 36.0271 28.114 32.8366 31.3045C29.6461 34.495 27.793 38.7824 27.6552 43.2923Z" fill="white"/>
<path d="M27.653 41.412C27.6621 39.3967 28.0962 37.406 28.9271 35.5699C26.5106 30.1559 20.9564 26.123 14.9122 26.123C20.9564 26.123 26.5106 22.0893 28.9271 16.6752C28.1013 14.8378 27.6674 12.8484 27.653 10.834C27.653 18.8921 20.4612 26.123 12.364 26.123C20.4477 26.123 27.653 33.3428 27.653 41.412Z" fill="white"/>
<path d="M27.6553 8.95386C27.6446 11.2166 27.1571 13.4518 26.2245 15.5135C28.9372 21.5933 35.1735 26.1231 41.963 26.1231C35.1735 26.1231 28.9372 30.652 26.2245 36.7318C27.1571 38.7938 27.6446 41.0292 27.6553 43.2923C27.6553 34.2155 35.7477 26.1231 44.8245 26.1231C35.7477 26.1231 27.6553 18.0288 27.6553 8.95386Z" fill="white"/>
<path d="M38.155 36.8018C38.1468 38.5609 37.7677 40.2986 37.0427 41.9014C39.1517 46.628 43.9999 50.1496 49.2783 50.1496C43.9999 50.1496 39.1517 53.6705 37.0427 58.3971C37.7678 60.0002 38.1468 61.7381 38.155 63.4975C38.155 56.4409 44.4463 50.1496 51.5029 50.1496C44.4463 50.1496 38.155 43.8568 38.155 36.8018Z" fill="white"/>
<path d="M17.552 28.8569L18.4334 27.1648C20.8125 28.4104 22.9072 30.1364 24.5847 32.2335L23.0958 33.4258C21.5836 31.5359 19.696 29.9802 17.552 28.8569Z" fill="#F9FAFB"/>
<path d="M52.4551 49.0155C48.9498 48.9011 45.6192 47.4574 43.1393 44.9775C40.6593 42.4975 39.2156 39.1669 39.1012 35.6616C39.1012 35.4086 39.0008 35.166 38.8219 34.9871C38.643 34.8083 38.4004 34.7078 38.1474 34.7078C37.8944 34.7078 37.6518 34.8083 37.4729 34.9871C37.2941 35.166 37.1936 35.4086 37.1936 35.6616C37.1242 39.1768 35.6733 42.5234 33.155 44.9769C30.7015 47.4952 27.3549 48.9461 23.8397 49.0155C23.5867 49.0155 23.3441 49.116 23.1652 49.2948C22.9864 49.4737 22.8859 49.7163 22.8859 49.9693C22.8859 50.2223 22.9864 50.4649 23.1652 50.6438C23.3441 50.8227 23.5867 50.9231 23.8397 50.9231C27.3547 50.9926 30.7011 52.4431 33.155 54.9608C35.6735 57.4145 37.1244 60.7614 37.1936 64.277C37.1936 64.53 37.2941 64.7726 37.4729 64.9515C37.6518 65.1303 37.8944 65.2308 38.1474 65.2308C38.4004 65.2308 38.643 65.1303 38.8219 64.9515C39.0008 64.7726 39.1012 64.53 39.1012 64.277C39.2154 60.7716 40.659 57.4409 43.139 54.9609C45.619 52.4809 48.9497 51.0373 52.4551 50.9231C52.7081 50.9231 52.9507 50.8227 53.1296 50.6438C53.3084 50.4649 53.4089 50.2223 53.4089 49.9693C53.4089 49.7163 53.3084 49.4737 53.1296 49.2948C52.9507 49.116 52.7081 49.0155 52.4551 49.0155ZM41.7901 53.612C40.1958 55.2004 38.9545 57.1074 38.1474 59.2083C37.3361 57.1094 36.0951 55.2033 34.5039 53.6122C32.9127 52.0212 31.0064 50.7803 28.9075 49.9693C31.0064 49.1579 32.9125 47.9168 34.5037 46.3256C36.0949 44.7344 37.336 42.8283 38.1474 40.7294C38.9584 42.8283 40.1993 44.7346 41.7903 46.3258C43.3814 47.917 45.2875 49.158 47.3864 49.9693C45.2855 50.7764 43.3785 52.0177 41.7901 53.612Z" fill="#6B7280"/>
<path d="M65.809 31.8461C63.0472 31.7906 60.4183 30.6498 58.4911 28.6707C56.5124 26.7438 55.372 24.1152 55.3167 21.3537C55.3167 21.1008 55.2162 20.8582 55.0374 20.6793C54.8585 20.5004 54.6159 20.3999 54.3629 20.3999C54.1099 20.3999 53.8673 20.5004 53.6884 20.6793C53.5095 20.8582 53.409 21.1008 53.409 21.3537C53.3533 24.1153 52.2126 26.7438 50.2337 28.6707C48.3068 30.6496 45.6782 31.7903 42.9167 31.8461C42.6638 31.8461 42.4211 31.9466 42.2423 32.1254C42.0634 32.3043 41.9629 32.5469 41.9629 32.7999C41.9629 33.0529 42.0634 33.2955 42.2423 33.4744C42.4211 33.6533 42.6638 33.7537 42.9167 33.7537C45.6703 33.8456 48.286 34.9805 50.2341 36.9287C52.1822 38.8768 53.3172 41.4925 53.409 44.2461C53.409 44.499 53.5095 44.7416 53.6884 44.9205C53.8673 45.0994 54.1099 45.1999 54.3629 45.1999C54.6159 45.1999 54.8585 45.0994 55.0374 44.9205C55.2162 44.7416 55.3167 44.499 55.3167 44.2461C55.4082 41.4924 56.5429 38.8764 58.4912 36.9282C60.4394 34.98 63.0554 33.8452 65.809 33.7537C66.062 33.7537 66.3046 33.6533 66.4835 33.4744C66.6624 33.2955 66.7629 33.0529 66.7629 32.7999C66.7629 32.5469 66.6624 32.3043 66.4835 32.1254C66.3046 31.9466 66.062 31.8461 65.809 31.8461ZM57.1424 35.5794C55.9621 36.7563 55.0186 38.1486 54.3629 39.681C53.0345 36.5908 50.5712 34.1279 47.4809 32.7999C50.5711 31.4712 53.0342 29.0081 54.3629 25.9179C55.6909 29.0083 58.1538 31.4715 61.2439 32.7999C59.7116 33.4556 58.3192 34.3991 57.1424 35.5794Z" fill="#6B7280"/>
<path d="M18.4334 27.1647C17.6442 26.7545 16.8254 26.4037 15.9839 26.1154C18.681 25.1757 21.1301 23.6371 23.1473 21.6152C25.1675 19.6056 26.7084 17.1662 27.6552 14.4785C28.6013 17.1663 30.1419 19.6058 32.1621 21.6152C34.1717 23.6354 36.6111 25.1763 39.2988 26.1231C36.6151 27.0755 34.1775 28.6142 32.1634 30.6272C30.1492 32.6402 28.6091 35.0769 27.6552 37.76C27.6132 37.6385 27.5693 37.5174 27.5236 37.3966C26.8233 35.5314 25.8296 33.79 24.58 32.2382C24.5032 32.136 24.4068 32.0503 24.2963 31.9862C24.1858 31.922 24.0635 31.8807 23.9367 31.8648C23.81 31.8488 23.6813 31.8584 23.5583 31.8931C23.4354 31.9278 23.3206 31.9868 23.2209 32.0667C23.1212 32.1466 23.0386 32.2457 22.9779 32.3582C22.9172 32.4706 22.8798 32.5941 22.8677 32.7213C22.8557 32.8485 22.8694 32.9768 22.9079 33.0987C22.9464 33.2205 23.009 33.3333 23.092 33.4305C24.2147 34.8239 25.1073 36.388 25.736 38.0633C26.3675 39.7347 26.6944 41.5057 26.7013 43.2923C26.7013 43.5453 26.8018 43.7879 26.9807 43.9668C27.1596 44.1457 27.4022 44.2462 27.6552 44.2462C27.9082 44.2462 28.1508 44.1457 28.3297 43.9668C28.5085 43.7879 28.609 43.5453 28.609 43.2923C28.7466 39.0354 30.4992 34.9904 33.5109 31.9787C36.5225 28.9671 40.5675 27.2145 44.8244 27.0769C45.0774 27.0769 45.32 26.9764 45.4989 26.7975C45.6778 26.6187 45.7783 26.3761 45.7783 26.1231C45.7783 25.8701 45.6778 25.6275 45.4989 25.4486C45.32 25.2697 45.0774 25.1692 44.8244 25.1692C40.5553 25.0858 36.4909 23.3245 33.5108 20.2665C30.4533 17.2866 28.6923 13.2225 28.609 8.95385C28.609 8.70087 28.5085 8.45826 28.3297 8.27938C28.1508 8.10049 27.9082 8 27.6552 8C27.4022 8 27.1596 8.10049 26.9807 8.27938C26.8018 8.45826 26.7013 8.70087 26.7013 8.95385C26.618 13.2227 24.8566 17.2868 21.7986 20.2665C18.8189 23.3245 14.7548 25.0859 10.486 25.1692C10.233 25.1692 9.99036 25.2697 9.81148 25.4486C9.6326 25.6275 9.5321 25.8701 9.5321 26.1231C9.5321 26.3761 9.6326 26.6187 9.81148 26.7975C9.99036 26.9764 10.233 27.0769 10.486 27.0769C12.9502 27.0933 15.3741 27.7038 17.552 28.8568C17.7732 28.9671 18.028 28.9891 18.2647 28.9182C18.5014 28.8473 18.7023 28.6889 18.8264 28.4753C18.891 28.3644 18.9321 28.2415 18.9472 28.1141C18.9623 27.9867 18.9511 27.8576 18.9143 27.7347C18.8774 27.6118 18.8157 27.4978 18.733 27.3998C18.6503 27.3017 18.5483 27.2217 18.4334 27.1647Z" fill="#6B7280"/>
<path d="M21.1919 31.0669C21.0666 31.0675 20.9425 31.0434 20.8265 30.9961C20.7106 30.9487 20.6051 30.879 20.516 30.7909C20.3363 30.6129 20.2346 30.3708 20.2333 30.1178C20.232 29.8648 20.3313 29.6217 20.5093 29.4419C20.6873 29.2622 20.9294 29.1604 21.1824 29.1592H21.1919C21.4449 29.1592 21.6875 29.2597 21.8664 29.4386C22.0453 29.6174 22.1458 29.8601 22.1458 30.113C22.1458 30.366 22.0453 30.6086 21.8664 30.7875C21.6875 30.9664 21.4449 31.0669 21.1919 31.0669Z" fill="#6B7280"/>
<path d="M36.9267 14.5722C37.0557 14.7012 37.2307 14.7736 37.4131 14.7736C37.5955 14.7736 37.7705 14.7012 37.8995 14.5722L38.7891 13.6826L39.6786 14.5722C39.8084 14.6975 39.9822 14.7669 40.1625 14.7653C40.3429 14.7637 40.5155 14.6914 40.643 14.5638C40.7706 14.4363 40.843 14.2637 40.8445 14.0833C40.8461 13.9029 40.7767 13.7292 40.6514 13.5994L39.7619 12.7098L40.6514 11.8203C40.7171 11.7568 40.7695 11.6809 40.8056 11.597C40.8417 11.513 40.8606 11.4228 40.8614 11.3314C40.8622 11.2401 40.8448 11.1495 40.8102 11.0649C40.7756 10.9804 40.7245 10.9036 40.6599 10.839C40.5954 10.7744 40.5185 10.7233 40.434 10.6887C40.3494 10.6541 40.2588 10.6367 40.1675 10.6375C40.0761 10.6383 39.9859 10.6572 39.9019 10.6933C39.818 10.7294 39.7421 10.7818 39.6786 10.8475L38.7891 11.737L37.8995 10.8475C37.836 10.7818 37.7601 10.7294 37.6762 10.6933C37.5923 10.6572 37.502 10.6383 37.4106 10.6375C37.3193 10.6367 37.2287 10.6541 37.1441 10.6887C37.0596 10.7233 36.9828 10.7744 36.9182 10.839C36.8536 10.9036 36.8025 10.9804 36.7679 11.0649C36.7333 11.1495 36.7159 11.2401 36.7167 11.3314C36.7175 11.4228 36.7365 11.513 36.7725 11.597C36.8086 11.6809 36.861 11.7568 36.9267 11.8203L37.8163 12.7098L36.9267 13.5994C36.7977 13.7284 36.7253 13.9034 36.7253 14.0858C36.7253 14.2682 36.7977 14.4432 36.9267 14.5722Z" fill="#6B7280"/>
<path d="M28.3412 55.4529C28.1623 55.274 27.9197 55.1736 27.6668 55.1736C27.4139 55.1736 27.1713 55.274 26.9924 55.4529L25.7591 56.6862L24.5258 55.4529C24.3459 55.2791 24.105 55.183 23.8549 55.1851C23.6048 55.1873 23.3655 55.2876 23.1887 55.4645C23.0118 55.6413 22.9115 55.8806 22.9093 56.1307C22.9072 56.3808 23.0033 56.6217 23.1771 56.8016L24.4104 58.0349L23.1771 59.2682C23.086 59.3562 23.0133 59.4615 22.9633 59.5779C22.9133 59.6942 22.887 59.8194 22.8859 59.946C22.8848 60.0727 22.9089 60.1983 22.9569 60.3155C23.0049 60.4327 23.0757 60.5392 23.1652 60.6288C23.2548 60.7184 23.3613 60.7892 23.4785 60.8371C23.5957 60.8851 23.7213 60.9092 23.848 60.9081C23.9746 60.907 24.0998 60.8807 24.2162 60.8307C24.3326 60.7807 24.4378 60.7081 24.5258 60.617L25.7591 59.3837L26.9924 60.617C27.1723 60.7907 27.4133 60.8869 27.6634 60.8847C27.9135 60.8825 28.1527 60.7822 28.3296 60.6054C28.5064 60.4285 28.6067 60.1893 28.6089 59.9392C28.6111 59.6891 28.5149 59.4481 28.3412 59.2682L27.1079 58.0349L28.3412 56.8016C28.52 56.6227 28.6205 56.3802 28.6205 56.1272C28.6205 55.8743 28.52 55.6317 28.3412 55.4529Z" fill="#6B7280"/>
<path d="M19.7449 14.0027C19.566 13.8238 19.3234 13.7234 19.0705 13.7234C18.8176 13.7234 18.575 13.8238 18.3961 14.0027L17.1628 15.236L15.9295 14.0027C15.7496 13.8289 15.5086 13.7328 15.2586 13.7349C15.0085 13.7371 14.7692 13.8374 14.5924 14.0143C14.4155 14.1911 14.3152 14.4304 14.313 14.6805C14.3109 14.9306 14.407 15.1715 14.5807 15.3514L15.8141 16.5847L14.5807 17.818C14.4896 17.906 14.417 18.0113 14.367 18.1277C14.317 18.244 14.2907 18.3692 14.2896 18.4958C14.2885 18.6225 14.3126 18.7481 14.3606 18.8653C14.4085 18.9825 14.4794 19.089 14.5689 19.1786C14.6585 19.2682 14.765 19.339 14.8822 19.387C14.9994 19.4349 15.125 19.459 15.2517 19.4579C15.3783 19.4568 15.5035 19.4305 15.6199 19.3805C15.7362 19.3306 15.8415 19.2579 15.9295 19.1668L17.1628 17.9335L18.3961 19.1668C18.576 19.3405 18.817 19.4367 19.0671 19.4345C19.3172 19.4323 19.5564 19.332 19.7333 19.1552C19.9101 18.9783 20.0104 18.7391 20.0126 18.489C20.0148 18.2389 19.9186 17.9979 19.7449 17.818L18.5115 16.5847L19.7449 15.3514C19.9237 15.1725 20.0241 14.93 20.0241 14.677C20.0241 14.4241 19.9237 14.1815 19.7449 14.0027Z" fill="#6B7280"/>
<path d="M17.8144 39.7674C17.6988 39.6518 17.5421 39.5869 17.3786 39.5869C17.2152 39.5869 17.0585 39.6518 16.9429 39.7674L16.146 40.5642L15.3492 39.7674C15.2329 39.6551 15.0772 39.593 14.9156 39.5944C14.7541 39.5958 14.5995 39.6606 14.4852 39.7749C14.3709 39.8891 14.3061 40.0437 14.3047 40.2053C14.3033 40.3669 14.3654 40.5226 14.4777 40.6388L15.2746 41.4357L14.4777 42.2326C14.4188 42.2894 14.3719 42.3574 14.3396 42.4326C14.3073 42.5078 14.2903 42.5887 14.2896 42.6705C14.2889 42.7524 14.3045 42.8335 14.3354 42.9092C14.3664 42.985 14.4122 43.0538 14.4701 43.1117C14.5279 43.1695 14.5967 43.2153 14.6725 43.2463C14.7482 43.2773 14.8294 43.2929 14.9112 43.2922C14.993 43.2914 15.0739 43.2744 15.1491 43.2421C15.2243 43.2098 15.2923 43.1629 15.3492 43.104L16.146 42.3071L16.9429 43.104C17.0592 43.2163 17.2148 43.2784 17.3764 43.277C17.538 43.2756 17.6926 43.2108 17.8069 43.0965C17.9211 42.9823 17.9859 42.8277 17.9874 42.6661C17.9888 42.5045 17.9266 42.3488 17.8144 42.2326L17.0175 41.4357L17.8144 40.6388C17.9299 40.5232 17.9948 40.3665 17.9948 40.2031C17.9948 40.0397 17.9299 39.8829 17.8144 39.7674Z" fill="#6B7280"/>
<path d="M50.1777 18.7075C50.0344 18.5642 49.8399 18.4836 49.6371 18.4836C49.4344 18.4836 49.2399 18.5642 49.0965 18.7075L48.4901 19.3139L47.8838 18.7075C47.7395 18.5682 47.5464 18.4912 47.3459 18.4929C47.1454 18.4946 46.9536 18.5751 46.8118 18.7168C46.6701 18.8586 46.5897 19.0504 46.5879 19.2509C46.5862 19.4514 46.6632 19.6445 46.8025 19.7888L47.4089 20.3951L46.8025 21.0015C46.7295 21.072 46.6712 21.1564 46.6312 21.2497C46.5911 21.343 46.57 21.4433 46.5691 21.5449C46.5682 21.6464 46.5876 21.7471 46.626 21.8411C46.6645 21.935 46.7213 22.0204 46.7931 22.0922C46.8649 22.164 46.9502 22.2208 47.0442 22.2592C47.1382 22.2977 47.2389 22.317 47.3404 22.3162C47.4419 22.3153 47.5423 22.2942 47.6356 22.2541C47.7288 22.214 47.8132 22.1558 47.8838 22.0827L48.4901 21.4764L49.0965 22.0827C49.2407 22.222 49.4339 22.2991 49.6344 22.2974C49.8349 22.2956 50.0267 22.2152 50.1684 22.0734C50.3102 21.9316 50.3906 21.7399 50.3924 21.5394C50.3941 21.3389 50.317 21.1457 50.1777 21.0015L49.5714 20.3951L50.1777 19.7888C50.3211 19.6454 50.4016 19.4509 50.4016 19.2481C50.4016 19.0454 50.3211 18.8509 50.1777 18.7075Z" fill="#6B7280"/>
<path d="M48.6758 59.4724C48.7978 59.5943 48.9632 59.6628 49.1356 59.6628C49.3081 59.6628 49.4735 59.5943 49.5955 59.4724L50.1112 58.9566L50.627 59.4724C50.7497 59.5909 50.914 59.6564 51.0845 59.655C51.255 59.6535 51.4182 59.5851 51.5388 59.4645C51.6593 59.3439 51.7277 59.1808 51.7292 59.0102C51.7307 58.8397 51.6652 58.6754 51.5467 58.5527L51.0309 58.037L51.5467 57.5212C51.6652 57.3985 51.7307 57.2342 51.7292 57.0637C51.7277 56.8932 51.6593 56.73 51.5388 56.6094C51.4182 56.4889 51.255 56.4205 51.0845 56.419C50.914 56.4175 50.7497 56.483 50.627 56.6015L50.1112 57.1173L49.5955 56.6015C49.4728 56.483 49.3085 56.4175 49.138 56.419C48.9674 56.4205 48.8043 56.4889 48.6837 56.6094C48.5631 56.73 48.4947 56.8932 48.4932 57.0637C48.4917 57.2342 48.5573 57.3985 48.6758 57.5212L49.1916 58.037L48.6758 58.5527C48.5538 58.6747 48.4854 58.8401 48.4854 59.0126C48.4854 59.185 48.5538 59.3504 48.6758 59.4724Z" fill="#6B7280"/>
<path d="M64.7704 39.0871C64.6033 38.92 64.3767 38.8262 64.1405 38.8262C63.9042 38.8262 63.6776 38.92 63.5105 39.0871L62.8039 39.7937L62.0973 39.0871C61.9292 38.9247 61.7041 38.8349 61.4705 38.837C61.2369 38.839 61.0134 38.9327 60.8482 39.0979C60.683 39.2631 60.5893 39.4866 60.5872 39.7202C60.5852 39.9539 60.675 40.179 60.8373 40.347L61.5439 41.0536L60.8373 41.7602C60.7522 41.8424 60.6843 41.9407 60.6376 42.0495C60.5909 42.1582 60.5664 42.2751 60.5653 42.3934C60.5643 42.5117 60.5869 42.629 60.6317 42.7386C60.6765 42.8481 60.7426 42.9475 60.8263 43.0312C60.91 43.1149 61.0094 43.181 61.1189 43.2258C61.2285 43.2706 61.3458 43.2932 61.4641 43.2922C61.5824 43.2911 61.6993 43.2666 61.8081 43.2199C61.9168 43.1732 62.0151 43.1053 62.0973 43.0202L62.8039 42.3136L63.5105 43.0202C63.6785 43.1825 63.9036 43.2723 64.1373 43.2703C64.3709 43.2682 64.5944 43.1745 64.7596 43.0093C64.9248 42.8441 65.0185 42.6206 65.0205 42.387C65.0226 42.1534 64.9328 41.9283 64.7704 41.7602L64.0638 41.0536L64.7704 40.347C64.9375 40.1799 65.0313 39.9533 65.0313 39.717C65.0313 39.4808 64.9375 39.2542 64.7704 39.0871Z" fill="#6B7280"/>
</g>
<defs>
<clipPath id="clip0_112_381">
<rect width="57.2308" height="60" fill="white" transform="translate(9.5321 8)"/>
</clipPath>
</defs>
</svg>
