<svg width="25" height="25" viewBox="0 0 25 25" fill="none" xmlns="http://www.w3.org/2000/svg">
<path fill-rule="evenodd" clip-rule="evenodd" d="M4.93057 2.61905C3.46919 2.61905 2.26892 3.80011 2.26892 5.2381V17.1429C2.26892 18.5808 3.46919 19.7619 4.93057 19.7619H10.9183C10.6561 19.3158 10.4448 18.8371 10.2925 18.3333H7.59223V7.85714H18.2388V9.91533C18.7464 10.0244 19.2326 10.1894 19.6906 10.4035V5.2381C19.6906 3.80011 18.4904 2.61905 17.029 2.61905H4.93057ZM4.93057 4.04762H6.14041V6.42857H3.72073V5.2381C3.72073 4.57227 4.25392 4.04762 4.93057 4.04762ZM7.59223 4.04762H17.029C17.7056 4.04762 18.2388 4.57227 18.2388 5.2381V6.42857H7.59223V4.04762ZM6.14041 7.85714V18.3333H4.93057C4.25392 18.3333 3.72073 17.8087 3.72073 17.1429V7.85714H6.14041Z" fill="currentColor"/>
<path fill-rule="evenodd" clip-rule="evenodd" d="M20.8934 20.4692C19.8043 21.5408 18.3272 22.1429 16.787 22.1429C15.2468 22.1429 13.7698 21.5408 12.6807 20.4692C11.5916 19.3975 10.9798 17.9441 10.9798 16.4286C10.9798 14.913 11.5916 13.4596 12.6807 12.388C13.7698 11.3163 15.2468 10.7143 16.787 10.7143C18.3272 10.7143 19.8043 11.3163 20.8934 12.388C21.9824 13.4596 22.5943 14.913 22.5943 16.4286C22.5943 17.9441 21.9824 19.3975 20.8934 20.4692ZM19.6817 15.0026C19.6833 15.1899 19.6102 15.3703 19.478 15.505L16.5743 18.3621C16.4382 18.4961 16.2536 18.5713 16.0611 18.5713C15.8686 18.5713 15.684 18.4961 15.5479 18.3621L14.0961 16.9336C13.9639 16.7989 13.8907 16.6184 13.8923 16.4311C13.894 16.2439 13.9703 16.0647 14.1049 15.9323C14.2395 15.7998 14.4216 15.7247 14.6119 15.7231C14.8022 15.7215 14.9856 15.7935 15.1225 15.9236L16.0611 16.8471L18.4515 14.495C18.5884 14.3649 18.7718 14.2929 18.9621 14.2945C19.1525 14.2961 19.3345 14.3713 19.4691 14.5037C19.6037 14.6361 19.68 14.8153 19.6817 15.0026Z" fill="currentColor"/>
</svg>
