<svg width="24" height="24" viewBox="0 0 24 24" fill="none" xmlns="http://www.w3.org/2000/svg">
<path d="M18.8636 3.88093C19.2968 4.20582 19.3846 4.82036 19.0597 5.25355C18.7348 5.68674 18.1203 5.77453 17.6871 5.44964L15.334 3.68484C14.9008 3.35995 14.813 2.74541 15.1379 2.31222C15.4628 1.87903 16.0774 1.79124 16.5106 2.11613L18.8636 3.88093Z" fill="currentColor"/>
<path d="M10.824 7.41055C11.3655 7.41055 11.8044 7.84951 11.8044 8.39099L11.8043 13.2932L8.86327 15.8873C8.45718 16.2455 7.83762 16.2067 7.47943 15.8006C7.12125 15.3945 7.16008 14.7749 7.56617 14.4167L9.84355 12.408V8.39099C9.84355 7.84951 10.2825 7.41055 10.824 7.41055Z" fill="currentColor"/>
<path d="M11.7912 21.0844C11.4735 21.119 11.1508 21.1368 10.824 21.1368C5.95074 21.1368 2 17.186 2 12.3128C2 7.43951 5.95074 3.48877 10.824 3.48877C15.6835 3.48877 19.6256 7.41722 19.6479 12.2715C19.1601 12.159 18.652 12.0995 18.1301 12.0995C18.0464 12.0995 17.9631 12.1011 17.8802 12.1041C17.7698 8.30203 14.6528 5.25357 10.824 5.25357C6.92541 5.25357 3.7648 8.41419 3.7648 12.3128C3.7648 16.2113 6.92541 19.372 10.824 19.372C11.0257 19.372 11.2254 19.3635 11.4228 19.3469C11.469 19.952 11.5954 20.5347 11.7912 21.0844Z" fill="currentColor"/>
<path d="M2.58828 5.25355C2.26339 4.82036 2.35118 4.20582 2.78437 3.88093L5.13743 2.11613C5.57062 1.79124 6.18516 1.87903 6.51005 2.31222C6.83494 2.74541 6.74715 3.35995 6.31396 3.68484L3.9609 5.44964C3.52771 5.77453 2.91317 5.68674 2.58828 5.25355Z" fill="currentColor"/>
<path d="M16.4758 21.3385H18.7692C18.5712 21.7751 18.1322 22.08 17.6226 22.08C17.113 22.08 16.6738 21.7751 16.4758 21.3385ZM21.239 19.4289C21.2863 19.4762 21.7008 19.91 21.7008 20.597C21.7008 20.8016 21.5347 20.9677 21.33 20.9677H13.9148C13.7101 20.9677 13.544 20.8016 13.544 20.597C13.544 19.91 13.9585 19.4762 14.0058 19.4289C14.0364 19.3981 14.0724 19.3731 14.1117 19.3549C14.6782 19.0922 14.7798 17.5076 14.8341 16.6563C14.9785 15.2129 16.1451 14.6294 16.814 14.4951C16.9378 14.2206 17.189 13.9232 17.6224 13.9232C18.0558 13.9232 18.307 14.2206 18.4307 14.495C19.0993 14.629 20.2658 15.2109 20.4094 16.6428C20.4651 17.5074 20.5666 19.0921 21.133 19.3547C21.1723 19.3731 21.2084 19.3983 21.239 19.4289Z" fill="currentColor"/>
</svg>
