<svg width="247" height="123" viewBox="0 0 247 123" fill="none" xmlns="http://www.w3.org/2000/svg">
<rect x="0.0136719" y="0.874023" width="246.702" height="121.171" rx="60.5854" fill="#F9FAFB"/>
<g clip-path="url(#clip0_6001_28699)">
<ellipse cx="76.3998" cy="93.2012" rx="33.4389" ry="3.12206" fill="#BCB7DE"/>
<ellipse cx="76.4016" cy="93.6929" rx="28.4055" ry="1.13137" fill="#9087C8"/>
<path d="M60.698 59.581V29.8252H57.3623V68.7263L60.698 59.581Z" fill="#EFEDF7"/>
<path d="M57.3621 68.7271V32.0498H54.0264V77.8725L57.3621 68.7271Z" fill="#EFEDF7"/>
<path d="M99.616 27.5967H60.6992V59.5764L60.9446 58.9037C61.1495 58.145 61.8378 57.6179 62.6238 57.618H102.952V27.5967H99.616Z" fill="#EFEDF7"/>
<path d="M105.473 47.6123H102.951V57.6195H107.399V49.5386C107.399 49.0276 107.196 48.5377 106.835 48.1764C106.473 47.8151 105.983 47.6123 105.473 47.6123Z" fill="#9087C8"/>
<path d="M54.0278 39.833H51.5065C50.9955 39.833 50.5056 40.0359 50.1443 40.3972C49.7831 40.7584 49.5801 41.2485 49.5801 41.7594V89.2685C49.6571 89.2712 49.7332 89.275 49.8085 89.2798L54.0277 77.773L54.0278 39.833Z" fill="#9087C8"/>
<path d="M101.087 92.0912H51.3196C50.7782 92.0912 50.2675 91.8391 49.9384 91.4092C49.6093 90.9794 49.499 90.4207 49.6404 89.898L60.9435 58.9078C61.1486 58.1491 61.8369 57.6221 62.6227 57.6221H112.39C113.536 57.6221 114.07 58.7166 114.07 59.8154L102.767 90.8056C102.561 91.5643 101.873 92.0912 101.087 92.0912Z" fill="#9087C8"/>
<path d="M97.7516 92.0912H51.3196C50.7782 92.0912 50.2675 91.8391 49.9384 91.4092C49.6093 90.9794 49.499 90.4207 49.6404 89.898L60.9435 58.9078C61.1486 58.1491 61.8369 57.6221 62.6227 57.6221H109.055C110.2 57.6221 110.734 58.7166 110.734 59.8154L99.4308 90.8056C99.2257 91.5643 98.5375 92.0912 97.7516 92.0912Z" fill="#BDB7DE"/>
<path d="M101.087 93.2047H51.3194C50.4317 93.2047 49.5945 92.7912 49.0549 92.0863C48.5154 91.3814 48.3349 90.4652 48.5668 89.6084L59.8988 58.5282C60.2573 57.3251 61.3674 56.5036 62.6227 56.5118H112.391C114.007 56.5118 115.181 57.9017 115.181 59.8171C115.181 59.9472 115.159 60.0762 115.114 60.1983L103.81 91.1883C103.452 92.3916 102.342 93.2135 101.087 93.2047ZM62.6226 58.7356C62.3393 58.7362 62.0912 58.926 62.0167 59.1992L50.6847 90.2805C50.6656 90.4441 50.715 90.6083 50.821 90.7343C50.9384 90.8912 51.1235 90.9827 51.3194 90.9808H101.087C101.37 90.9812 101.618 90.7915 101.692 90.5183L112.948 59.6466C112.921 59.3424 112.812 58.7355 112.391 58.7355L62.6226 58.7356Z" fill="#6254B8"/>
<path d="M95.1697 45.3928H68.4839C67.8698 45.3928 67.3721 44.8949 67.3721 44.2809C67.3721 43.667 67.8698 43.1689 68.4839 43.1689H95.1697C95.7838 43.1689 96.2815 43.6667 96.2815 44.2808C96.2815 44.8949 95.7838 45.3928 95.1697 45.3928Z" fill="#FFCE1F"/>
<path d="M79.6031 37.6075H68.4839C67.8698 37.6075 67.3721 37.1098 67.3721 36.4957C67.3721 35.8815 67.87 35.3838 68.4839 35.3838H79.603C80.2171 35.3838 80.7148 35.8817 80.7148 36.4957C80.7149 37.1098 80.2171 37.6075 79.6031 37.6075Z" fill="#FFCE1F"/>
<path d="M95.1697 53.1739H68.4839C67.8698 53.1739 67.3721 52.676 67.3721 52.0621C67.3721 51.4481 67.87 50.9502 68.4839 50.9502H95.1697C95.7838 50.9502 96.2815 51.4481 96.2815 52.0621C96.2815 52.676 95.7838 53.1739 95.1697 53.1739Z" fill="#FFCE1F"/>
<path d="M107.398 58.7367H102.951C102.656 58.7369 102.373 58.6199 102.164 58.4112C101.956 58.2026 101.839 57.9198 101.839 57.6249V47.6177C101.839 47.3227 101.956 47.0398 102.164 46.8314C102.373 46.6227 102.656 46.5057 102.951 46.5059H105.472C107.149 46.5077 108.508 47.8669 108.51 49.5441V57.625C108.51 57.92 108.393 58.2029 108.185 58.4114C107.976 58.6197 107.693 58.7369 107.398 58.7367ZM104.063 56.5129H106.286V49.544C106.286 49.0943 105.922 48.7297 105.472 48.7296H104.063V56.5129Z" fill="#6254B8"/>
<path d="M49.8088 90.3919C49.7823 90.3919 49.7557 90.3907 49.7284 90.3886L49.533 90.3789C48.9375 90.354 48.4676 89.864 48.4678 89.268V41.7589C48.4696 40.0817 49.8288 38.7225 51.506 38.7207H54.0273C54.3222 38.7206 54.6051 38.8377 54.8137 39.0463C55.0222 39.2548 55.1393 39.5377 55.1393 39.8327V77.7722C55.1395 77.9026 55.1165 78.032 55.0715 78.1544L50.8523 89.6622C50.692 90.1003 50.2753 90.3916 49.8088 90.3919ZM51.506 40.9446C51.0563 40.9449 50.692 41.3093 50.6916 41.7589V83.6401L52.9155 77.5745V40.9446H51.506Z" fill="#6254B8"/>
<path d="M60.6994 60.6944C60.6344 60.6945 60.5695 60.6886 60.5055 60.6771C59.9742 60.5838 59.5867 60.1221 59.5869 59.5825V27.6021C59.5868 27.3072 59.7039 27.0243 59.9125 26.8157C60.1212 26.6071 60.404 26.4901 60.6989 26.4902H102.951C103.246 26.4901 103.529 26.6071 103.738 26.8157C103.946 27.0243 104.063 27.3072 104.063 27.6021V57.6236C104.063 57.9186 103.946 58.2015 103.738 58.4099C103.529 58.6185 103.246 58.7356 102.951 58.7354H62.6236C62.3403 58.7359 62.0922 58.9258 62.0177 59.199C62.0095 59.2294 61.9997 59.2599 61.9889 59.2902L61.7435 59.9635C61.5831 60.402 61.1663 60.6939 60.6994 60.6944ZM61.8108 28.7141V56.6301C62.0745 56.5516 62.3484 56.5117 62.6236 56.5118H101.839V28.7141H61.8108Z" fill="#6254B8"/>
<path d="M57.3635 69.8402C57.2985 69.8403 57.2336 69.8345 57.1696 69.8229C56.6382 69.7296 56.2507 69.2679 56.251 68.7283V29.8268C56.2508 29.532 56.368 29.2491 56.5766 29.0405C56.7851 28.832 57.068 28.7148 57.363 28.7148H60.6987C60.9936 28.7147 61.2764 28.8319 61.4851 29.0405C61.6937 29.2491 61.8107 29.5318 61.8107 29.8268V59.5834C61.8107 59.7134 61.7879 59.8424 61.7433 59.9645L58.4076 69.1095C58.2472 69.5479 57.8304 69.8397 57.3635 69.8402ZM58.4748 30.9387V62.4348L59.5867 59.3869V30.9387H58.4748Z" fill="#6254B8"/>
<path d="M54.0276 78.986C53.9625 78.9862 53.8976 78.9803 53.8337 78.9687C53.3023 78.8754 52.9148 78.4138 52.915 77.8742V32.0514C52.9149 31.7566 53.0321 31.4737 53.2407 31.2651C53.4493 31.0565 53.732 30.9395 54.027 30.9395H57.3628C57.6576 30.9393 57.9405 31.0565 58.1491 31.2651C58.3577 31.4737 58.4747 31.7564 58.4747 32.0514V68.7291C58.4747 68.8591 58.4519 68.9881 58.4074 69.1102L55.0717 78.2552C54.9113 78.6936 54.4944 78.9854 54.0276 78.986ZM55.1389 33.1633V71.5805L56.2508 68.5325V33.1633H55.1389Z" fill="#6254B8"/>
<path d="M77.5466 70.1557C77.1235 69.7328 76.4378 69.7328 76.0148 70.1557L70.5984 75.5721C70.1755 75.9951 70.1755 76.6808 70.5984 77.1038L76.0148 82.5202C76.4399 82.9307 77.1155 82.9249 77.5334 82.507C77.9512 82.0892 77.9571 81.4135 77.5466 80.9884L72.896 76.3379L77.5466 71.6874C77.9694 71.2644 77.9694 70.5787 77.5466 70.1557Z" fill="#FFCE1F"/>
<path d="M89.0141 82.5202C89.4371 82.9431 90.1229 82.9431 90.5459 82.5202L95.9623 77.1038C96.3852 76.6808 96.3852 75.9951 95.9623 75.5721L90.5459 70.1557C90.1208 69.7451 89.4452 69.751 89.0273 70.1689C88.6095 70.5867 88.6036 71.2624 89.0141 71.6874L93.6646 76.3379L89.0141 80.9884C88.5912 81.4115 88.5912 82.0972 89.0141 82.5202Z" fill="#FFCE1F"/>
<path d="M81.1138 82.8376C81.5571 82.8378 81.9557 82.5679 82.1202 82.1562L86.4533 71.3234C86.5968 70.9639 86.5377 70.5551 86.2981 70.251C86.0586 69.9468 85.6749 69.7936 85.2918 69.8491C84.9086 69.9045 84.5841 70.1601 84.4405 70.5197L80.1074 81.3524C79.9741 81.6862 80.015 82.0644 80.2166 82.362C80.4182 82.6596 80.7543 82.8377 81.1138 82.8376Z" fill="#FFCE1F"/>
</g>
<path fill-rule="evenodd" clip-rule="evenodd" d="M138.238 53.5278L145.377 60.6672C145.815 61.1053 145.815 61.8156 145.377 62.2537L138.238 69.393C137.8 69.8311 137.089 69.8311 136.651 69.393C136.213 68.9549 136.213 68.2446 136.651 67.8065L141.875 62.5823L121.025 62.5823C120.406 62.5823 119.903 62.08 119.903 61.4604C119.903 60.8408 120.406 60.3386 121.025 60.3386L141.875 60.3386L136.651 55.1143C136.213 54.6762 136.213 53.9659 136.651 53.5278C137.089 53.0897 137.8 53.0897 138.238 53.5278Z" fill="#6254B8"/>
<g clip-path="url(#clip1_6001_28699)">
<ellipse cx="177.485" cy="92.002" rx="24.5064" ry="4.16416" fill="#BCB7DE"/>
<ellipse cx="178.134" cy="91.5788" rx="20.4429" ry="2.75258" fill="#9087C8"/>
<path d="M154.77 35.2334V51.7303C154.77 56.0199 165.134 59.4941 177.931 59.4941C190.727 59.4941 201.092 56.0199 201.092 51.7303V35.2334C201.092 40.0661 190.727 43.9665 177.931 43.9665C165.134 43.9665 154.77 40.0661 154.77 35.2334Z" fill="#EFEDF7"/>
<path d="M154.538 53.0967V68.6223C154.538 72.912 164.808 76.3861 177.487 76.3861C190.166 76.3861 200.436 72.912 200.436 68.6223V53.0967C200.436 57.3863 190.166 60.8605 177.487 60.8605C164.808 60.8605 154.538 57.3844 154.538 53.0967Z" fill="#FFCE1F"/>
<path d="M154.537 67.4834V83.0091C154.537 87.2987 164.807 90.7729 177.486 90.7729C190.165 90.7729 200.435 87.2987 200.435 83.0091V67.4834C200.435 71.7731 190.165 75.2472 177.486 75.2472C164.807 75.2472 154.537 71.7711 154.537 67.4834Z" fill="#EFEDF7"/>
<path d="M177.828 44.8753C190.69 44.8753 201.117 40.9654 201.117 36.1422C201.117 31.3191 190.69 27.4092 177.828 27.4092C164.965 27.4092 154.538 31.3191 154.538 36.1422C154.538 40.9654 164.965 44.8753 177.828 44.8753Z" fill="#EFEDF7"/>
<path d="M179.434 90.9949C178.505 90.9949 177.593 90.9681 176.695 90.9297C187.503 90.4538 195.864 87.2187 195.864 83.287V36.0803C195.864 31.6478 187.503 28.0174 176.695 27.484C177.595 27.4399 178.505 27.4092 179.434 27.4092C191.538 27.4092 201.341 31.2814 201.341 36.0803V83.287C201.341 87.5449 191.538 90.9949 179.434 90.9949Z" fill="#F9FAFB"/>
<path d="M192.216 50.5938C193.288 50.5938 194.156 49.725 194.156 48.6534C194.156 47.5817 193.288 46.7129 192.216 46.7129C191.144 46.7129 190.275 47.5817 190.275 48.6534C190.275 49.725 191.144 50.5938 192.216 50.5938Z" fill="#6254B8"/>
<path d="M192.216 66.1182C193.288 66.1182 194.156 65.2495 194.156 64.1778C194.156 63.1061 193.288 62.2373 192.216 62.2373C191.144 62.2373 190.275 63.1061 190.275 64.1778C190.275 65.2495 191.144 66.1182 192.216 66.1182Z" fill="#6254B8"/>
<path d="M192.216 81.6446C193.288 81.6446 194.156 80.7758 194.156 79.7041C194.156 78.6324 193.288 77.7637 192.216 77.7637C191.144 77.7637 190.275 78.6324 190.275 79.7041C190.275 80.7758 191.144 81.6446 192.216 81.6446Z" fill="#6254B8"/>
<path d="M186.218 29.1709H186.226C186.672 29.1709 187.088 28.9315 187.314 28.5461C187.54 28.1588 187.542 27.6761 187.32 27.2868C187.098 26.8976 186.681 26.6543 186.232 26.6523C185.523 26.6523 184.957 27.2168 184.957 27.9116C184.957 28.6064 185.521 29.1709 186.216 29.1709H186.218Z" fill="#6254B8"/>
<path d="M153.959 83.6899C153.959 89.5503 166.606 92.713 178.508 92.713C190.409 92.713 203.056 89.5503 203.056 83.6899V37.1499C203.049 37.0818 203.033 37.0156 203.014 36.9514L202.965 36.7957L202.994 36.6342C203.023 36.4687 203.043 36.3013 203.054 36.1359C202.996 34.9331 202.564 33.8023 201.807 32.8642C201.141 32.0681 200.353 31.3713 199.471 30.8011C197.84 29.7618 196.073 28.9463 194.22 28.3779L194.195 28.3701C193.876 28.2592 193.523 28.2845 193.224 28.4422C192.926 28.5998 192.702 28.8762 192.615 29.2012C192.439 29.8493 192.796 30.5364 193.426 30.7699C195.057 31.2662 196.616 31.9786 198.058 32.8875C198.714 33.3079 199.302 33.8159 199.808 34.4017C200.205 34.8844 200.45 35.4508 200.528 36.0522L200.534 36.1417C200.534 39.6762 191.488 43.6155 178.504 43.6155C165.52 43.6155 156.478 39.6782 156.478 36.1417C156.478 32.6053 165.526 28.6679 178.508 28.6679C179.203 28.6679 179.767 28.1035 179.767 27.4087C179.767 26.7138 179.203 26.1494 178.508 26.1494C166.454 26.1494 153.986 29.8805 153.959 36.1223C153.971 36.2935 153.99 36.4668 154.021 36.6361L154.05 36.7957L154.004 36.9514C153.984 37.0156 153.971 37.0837 153.961 37.1499V83.6899H153.959ZM156.478 40.7389L157.534 41.4376C161.921 44.3357 169.958 46.136 178.508 46.136C187.058 46.136 195.094 44.3357 199.481 41.4376L200.538 40.7389V52.6386C200.538 54.0808 198.309 55.6865 194.578 56.936C191.573 57.9423 186.345 59.1412 178.508 59.1412C170.67 59.1412 165.444 57.9423 162.437 56.936C158.706 55.6865 156.478 54.0808 156.478 52.6386V40.7389ZM156.478 56.8348L157.509 57.4557C161.818 60.0501 169.864 61.6617 178.506 61.6617C187.147 61.6617 195.193 60.0501 199.502 57.4557L200.534 56.8348V68.1643C200.534 69.6065 198.306 71.2141 194.574 72.4617C191.569 73.4679 186.342 74.6669 178.504 74.6669C170.666 74.6669 165.44 73.4679 162.433 72.4617C158.702 71.2122 156.474 69.6065 156.474 68.1643V56.8348H156.478ZM156.478 72.3605L157.509 72.9814C161.818 75.5758 169.864 77.1873 178.506 77.1873C187.147 77.1873 195.193 75.5758 199.502 72.9814L200.534 72.3605V83.6899C200.534 85.1321 198.306 86.7398 194.574 87.9874C191.569 88.9936 186.342 90.1925 178.504 90.1925C170.666 90.1925 165.44 88.9936 162.433 87.9874C158.702 86.7378 156.474 85.1321 156.474 83.6899V72.3605H156.478Z" fill="#6254B8"/>
</g>
<defs>
<clipPath id="clip0_6001_28699">
<rect width="73.1707" height="69.9426" fill="white" transform="translate(42.0127 26.4863)"/>
</clipPath>
<clipPath id="clip1_6001_28699">
<rect width="51.9461" height="70.0143" fill="white" transform="translate(151.597 26.1523)"/>
</clipPath>
</defs>
</svg>
