<svg width="16" height="16" viewBox="0 0 16 16" fill="none" xmlns="http://www.w3.org/2000/svg">
    <path d="M10.3569 6.81992H10.0949V5.77232C10.0949 4.61711 9.15514 3.67731 7.99993 3.67731C6.84472 3.67731 5.90492 4.61711 5.90492 5.77232V6.81992H5.64297C5.42599 6.81992 5.25024 6.99586 5.25024 7.21265V10.879C5.25024 11.096 5.42618 11.2717 5.64297 11.2717H10.3569C10.5739 11.2717 10.7496 11.0958 10.7496 10.879V7.21265C10.7496 6.99567 10.5737 6.81992 10.3569 6.81992ZM6.69057 5.77232C6.69057 5.05029 7.2779 4.46296 7.99993 4.46296C8.72196 4.46296 9.30929 5.05029 9.30929 5.77232V6.81992H6.69038L6.69057 5.77232ZM9.96416 10.4862H6.0359V7.60558H9.96416V10.4862Z" fill="#485159"/>
    <path d="M8.26192 8.65317H7.73822C7.52124 8.65317 7.34549 8.82912 7.34549 9.0459C7.34549 9.26269 7.52143 9.43863 7.73822 9.43863H8.26192C8.47891 9.43863 8.65465 9.26269 8.65465 9.0459C8.65465 8.82912 8.47871 8.65317 8.26192 8.65317Z" fill="#485159"/>
    <path d="M14.165 7.49855C13.8885 7.49855 13.6635 7.72358 13.6635 8.00006C13.6635 9.51286 13.0744 10.9351 12.0046 12.0047C10.9348 13.0745 9.51273 13.6636 7.99994 13.6636C6.48715 13.6636 5.06489 13.0745 3.99529 12.0047C2.9255 10.9349 2.3364 9.51286 2.3364 8.00006C2.3364 6.48727 2.9255 5.06501 3.99529 3.99541C5.06508 2.92581 6.48715 2.33653 7.99994 2.33653C8.62438 2.33653 9.23684 2.43667 9.82044 2.63421C10.3149 2.80152 10.782 3.03656 11.2121 3.33406L10.8189 3.40357C10.5466 3.45168 10.3642 3.71245 10.4123 3.98481C10.4547 4.22496 10.6623 4.39914 10.9057 4.39914C10.935 4.39914 10.9645 4.39658 10.9935 4.39148L12.4466 4.13463C12.449 4.13424 12.4509 4.13385 12.4531 4.13326C12.4588 4.13208 12.4643 4.1309 12.47 4.12953L12.4735 4.12874L12.4767 4.12796C12.4829 4.12658 12.4894 4.12501 12.4955 4.12324C12.5022 4.12128 12.5091 4.11912 12.5157 4.11696L12.5181 4.11617C12.5257 4.11362 12.5328 4.11127 12.5397 4.10852C12.547 4.10577 12.554 4.10263 12.5611 4.09948C12.5684 4.09634 12.5754 4.093 12.5825 4.08947C12.5892 4.08613 12.5959 4.0826 12.6025 4.07887C12.6098 4.07474 12.6171 4.07062 12.6241 4.0661C12.6302 4.06237 12.6361 4.05864 12.642 4.05452C12.6506 4.04863 12.6585 4.04254 12.6652 4.03763L12.6677 4.03567C12.6716 4.03272 12.6756 4.02977 12.6793 4.02663C12.6891 4.01839 12.6989 4.00975 12.7084 4.00052C12.7103 3.99875 12.7121 3.99698 12.7141 3.99521L12.7172 3.99207L12.7176 3.99148C12.7272 3.98167 12.7364 3.97145 12.7459 3.96007C12.749 3.95614 12.7522 3.95201 12.7553 3.94789L12.7573 3.94534C12.7622 3.93886 12.7679 3.9314 12.7736 3.92295C12.7777 3.91686 12.7816 3.91058 12.7855 3.9043C12.7897 3.89742 12.7938 3.89055 12.7977 3.88368C12.8014 3.877 12.805 3.87013 12.8083 3.86345C12.8119 3.85638 12.8152 3.84912 12.8183 3.84185C12.8213 3.83498 12.8242 3.82811 12.827 3.82124C12.8299 3.81338 12.8327 3.80533 12.8354 3.79728L12.8364 3.79414C12.8382 3.78884 12.8399 3.78334 12.8415 3.77784C12.8444 3.76763 12.8464 3.7584 12.8484 3.75015L12.8492 3.74721C12.8503 3.74249 12.8513 3.73778 12.8523 3.73307C12.8547 3.72089 12.856 3.7095 12.8572 3.69988C12.858 3.69576 12.8584 3.69144 12.8588 3.68732C12.8604 3.67141 12.8609 3.6557 12.8609 3.64058V2.18768C12.8609 1.9112 12.6359 1.68617 12.3594 1.68617C12.0829 1.68617 11.8579 1.9112 11.8579 2.18768V2.56234C11.4644 2.28252 11.0406 2.04591 10.5953 1.85759C9.77292 1.50983 8.89968 1.3335 7.99994 1.3335C7.1002 1.3335 6.22717 1.50983 5.40479 1.85759C4.61089 2.19338 3.89789 2.67408 3.28582 3.28614C2.67376 3.89821 2.19306 4.61101 1.85727 5.40511C1.50971 6.22729 1.33337 7.10032 1.33337 8.00006C1.33337 8.89981 1.50971 9.77284 1.85747 10.5952C2.19325 11.3891 2.67395 12.1021 3.28602 12.7142C3.89809 13.3263 4.61089 13.807 5.40499 14.1427C6.22717 14.4905 7.1004 14.6668 8.00014 14.6668C8.89988 14.6668 9.77311 14.4905 10.5953 14.1427C11.3892 13.807 12.1022 13.3263 12.7143 12.7142C13.3263 12.1021 13.807 11.3891 14.1428 10.5952C14.4906 9.77304 14.6669 8.9 14.6669 8.00006C14.6669 7.72358 14.4415 7.49855 14.165 7.49855Z" fill="#485159"/>
</svg>