<svg width="77" height="77" viewBox="0 0 77 77" fill="none" xmlns="http://www.w3.org/2000/svg">
<g clip-path="url(#clip0_132_418)">
<ellipse cx="38.1362" cy="66.6104" rx="29.3004" ry="2.90144" fill="#BCB7DE"/>
<ellipse cx="38.1362" cy="67.0666" rx="24.89" ry="1.05142" fill="#9087C8"/>
<path d="M66.7202 9.83377V60.1015C66.7202 63.3679 64.0728 66.0153 60.8063 66.0153H15.4661C12.1996 66.0153 9.55225 63.3679 9.55225 60.1015V9.83377C9.55225 9.28974 9.99347 8.84851 10.5375 8.84851H12.5092C13.0532 8.84851 13.4944 9.28974 13.4944 9.83377V44.3316C13.4979 45.4185 14.378 46.2998 15.4661 46.3033H60.8052C61.8921 46.2998 62.7734 45.4196 62.7769 44.3316V9.83377C62.7769 9.28974 63.2181 8.84851 63.7621 8.84851H65.7338C66.2778 8.84851 66.719 9.28974 66.719 9.83377H66.7202Z" fill="#EFEDF7"/>
<path d="M65.7338 8.84729H63.7621C63.5865 8.85191 63.4168 8.90389 63.2689 8.9986C63.5692 9.16955 63.7575 9.48719 63.7621 9.83255V60.1002C63.7621 63.3667 61.1147 66.0141 57.8483 66.0141H60.8052C64.0717 66.0141 66.719 63.3667 66.719 60.1002V9.8337C66.719 9.28967 66.2778 8.84845 65.7338 8.84845V8.84729Z" fill="#BDB7DE"/>
<path d="M13.4956 10.819H62.778V14.7611H13.4956V10.819Z" fill="#9087C8"/>
<path d="M33.218 27.5845C33.2227 28.9266 32.8796 30.248 32.2224 31.4181C31.3445 32.997 29.9527 34.2272 28.2802 34.9075L28.2698 46.302H22.356L22.3664 34.9075C19.5862 33.7755 17.6861 31.1686 17.4609 28.1747C17.2356 25.1808 18.7233 22.3186 21.3026 20.7824C21.5243 20.653 21.7981 20.6519 22.0198 20.7801C22.2416 20.9083 22.3779 21.1462 22.3768 21.4027L22.3664 25.4534C22.3329 27.0705 23.563 28.4346 25.1754 28.5686C25.9863 28.6125 26.7798 28.3191 27.3689 27.76C27.9579 27.201 28.2906 26.4237 28.2894 25.6117V21.3934C28.2894 21.1393 28.4234 20.9048 28.6429 20.7766C28.8623 20.6484 29.1326 20.6473 29.3544 20.772C30.5545 21.4881 31.5432 22.508 32.2224 23.7289C32.8796 24.9071 33.2227 26.2342 33.218 27.5833V27.5845Z" fill="#FFCE1F"/>
<path d="M32.2224 23.7312C31.5432 22.5103 30.5533 21.4904 29.3544 20.7743C29.1338 20.6484 28.8623 20.6507 28.6429 20.7789C28.4234 20.9071 28.2894 21.1416 28.2894 21.3957V22.374C28.6614 22.791 28.9882 23.2461 29.2654 23.7324C30.5926 26.1233 30.5926 29.0294 29.2654 31.4204C28.3876 32.9993 26.9958 34.2294 25.3233 34.9098L25.3129 46.3043H28.2698L28.2802 34.9098C29.9538 34.2294 31.3445 32.9993 32.2224 31.4204C33.5495 29.0294 33.5495 26.1233 32.2224 23.7324V23.7312Z" fill="#BDB7DE"/>
<path d="M42.0784 22.6466V28.5604C42.0749 29.6473 41.1948 30.5286 40.1067 30.5321H39.1214C38.0345 30.5286 37.1532 29.6485 37.1498 28.5604V22.6466C37.1498 21.5574 38.0322 20.6749 39.1214 20.6749H40.1067C41.1936 20.6784 42.0749 21.5585 42.0784 22.6466Z" fill="#FFCE1F"/>
<path d="M58.8347 23.6318V25.7017C58.8382 26.0713 58.6095 26.4028 58.2641 26.5333C57.9188 26.6639 57.5283 26.5634 57.2869 26.2838C56.4796 25.2339 55.231 24.6183 53.9061 24.6183V28.5604C53.9027 29.6473 53.0225 30.5286 51.9345 30.5321H44.0489C42.962 30.5286 42.0807 29.6485 42.0773 28.5604V22.6466C42.0807 21.5597 42.9609 20.6784 44.0489 20.6749H55.8766C56.6609 20.6749 57.4128 20.9868 57.9673 21.5412C58.5217 22.0956 58.8336 22.8476 58.8336 23.6318H58.8347Z" fill="#FFCE1F"/>
<path d="M52.2313 24.8147C51.931 24.72 51.603 24.7754 51.3489 24.9625C51.0959 25.1497 50.9469 25.4477 50.9492 25.763V28.5605C50.9457 29.6474 50.0656 30.5287 48.9775 30.5322H51.9345C53.0214 30.5287 53.9027 29.6486 53.9061 28.5605V25.8323C53.4337 25.368 52.8597 25.0203 52.2302 24.8147H52.2313Z" fill="#BDB7DE"/>
<path d="M55.8778 20.675H52.9209C54.5541 20.675 55.8778 21.9987 55.8778 23.6319V25.1011C56.4195 25.4003 56.8989 25.8022 57.287 26.2839C57.5284 26.5646 57.9188 26.6639 58.2642 26.5334C58.6095 26.4029 58.8382 26.0702 58.8347 25.7006V23.6308C58.8347 21.9975 57.5111 20.6738 55.8778 20.6738V20.675Z" fill="#BDB7DE"/>
<path d="M45.0353 30.5321H50.9491V46.302H45.0353V30.5321Z" fill="#FFCE1F"/>
<path d="M47.9922 30.5321H50.9491V46.302H47.9922V30.5321Z" fill="#BDB7DE"/>
<path d="M15.4661 66.0153H18.423C15.1565 66.0153 12.5092 63.3679 12.5092 60.1015V9.83377C12.5138 9.48841 12.7009 9.17077 13.0024 8.99982C12.8557 8.90511 12.6847 8.85198 12.5092 8.84851H10.5375C9.99347 8.84851 9.55225 9.28974 9.55225 9.83377V60.1015C9.55225 63.3679 12.1996 66.0153 15.4661 66.0153Z" fill="#F9FAFB"/>
<path d="M8.56702 52.2159H10.5387V60.1015H8.56702V52.2159Z" fill="#F9FAFB"/>
<path d="M9.55227 57.1434C10.0964 57.1434 10.5375 56.7022 10.5375 56.1581C10.5375 55.614 10.0964 55.1729 9.55227 55.1729C9.00813 55.1729 8.56702 55.614 8.56702 56.1581C8.56702 56.7022 9.00813 57.1434 9.55227 57.1434Z" fill="#6254B8"/>
<path d="M65.7338 7.86206H63.7621C62.6729 7.86206 61.7905 8.74452 61.7905 9.83373H14.4809C14.4809 8.74452 13.5984 7.86206 12.5092 7.86206H10.5375C9.44947 7.86206 8.56702 8.74452 8.56702 9.83373V52.2159C8.56702 52.7599 9.00824 53.2012 9.55227 53.2012C10.0963 53.2012 10.5375 52.7599 10.5375 52.2159V9.83373H12.5092V44.3315C12.5092 45.9648 13.8329 47.2885 15.4661 47.2885H60.8052C62.4385 47.2885 63.7621 45.9648 63.7621 44.3315V9.83373H65.7338V60.1014C65.7303 62.8216 63.5265 65.0265 60.8052 65.03H15.4661C12.746 65.0265 10.541 62.8227 10.5375 60.1014C10.5375 59.5574 10.0963 59.1162 9.55227 59.1162C9.00824 59.1162 8.56702 59.5574 8.56702 60.1014C8.57164 63.9096 11.6579 66.9971 15.4661 67.0005H60.8052C64.6134 66.9959 67.7009 63.9096 67.7043 60.1014V9.83373C67.7043 8.74452 66.8219 7.86206 65.7327 7.86206H65.7338ZM61.7916 11.8042V13.7759H14.4809V11.8042H61.7916ZM22.736 33.9927C20.1198 32.9474 18.4092 30.4074 18.4242 27.5903C18.4242 25.3229 19.5319 23.1976 21.3904 21.8982L21.3811 25.4546C21.3361 27.6007 22.9843 29.4049 25.1269 29.5527C26.2081 29.6105 27.2661 29.2201 28.0504 28.475C28.8346 27.73 29.2793 26.694 29.2782 25.6105V21.8947C31.1332 23.1965 32.2363 25.3206 32.2351 27.5857C32.2467 30.4063 30.5326 32.9474 27.9129 33.9927C27.541 34.1429 27.2973 34.5044 27.2973 34.9052L27.2892 45.318H23.3401L23.3528 34.9075C23.3528 34.5056 23.1091 34.144 22.7371 33.9939L22.736 33.9927ZM33.2077 31.6503C34.5221 29.1646 34.2911 25.815 33.2238 23.5557C32.8126 22.6859 31.9694 21.7053 31.9694 21.7053C31.3607 21.003 30.6469 20.4013 29.8511 19.9208C29.3302 19.6147 28.6833 19.6124 28.1613 19.9161C27.6322 20.2199 27.3054 20.7836 27.3042 21.3946V25.6117C27.3065 26.1546 27.0824 26.6743 26.6874 27.0463C26.2959 27.4228 25.7657 27.6168 25.224 27.5834C24.1394 27.4736 23.3228 26.5461 23.3528 25.4569L23.3632 21.4015C23.3632 20.7847 23.0305 20.2165 22.4934 19.9138C21.9667 19.6112 21.3176 19.6181 20.7978 19.9335C18.1042 21.5436 16.4537 24.4509 16.4537 27.5891C16.4364 30.9653 18.3514 34.0539 21.3823 35.5428L21.3696 45.3168H15.4684C14.9244 45.3168 14.4832 44.8756 14.4832 44.3315V15.7476H61.7939V44.3315C61.7939 44.8756 61.3527 45.3168 60.8087 45.3168H51.9379V31.5174C53.5712 31.5174 54.8948 30.1938 54.8948 28.5605V25.748C55.5417 25.9663 56.11 26.3694 56.5292 26.9088C57.0247 27.5129 57.8471 27.737 58.5806 27.469C59.3302 27.2057 59.8292 26.4953 59.8234 25.7018V23.6319C59.8234 21.4547 58.0585 19.6898 55.8813 19.6898H44.0536C43.3236 19.6921 42.6213 19.9658 42.0819 20.459C41.5436 19.967 40.8402 19.6932 40.1102 19.6898H39.125C38.2887 19.6921 37.0667 20.0397 36.6047 20.8483C36.1426 21.6568 36.1426 22.4653 36.1426 22.4653L36.168 28.5605C36.168 30.1938 37.4917 31.5174 39.125 31.5174C39.125 31.5174 40.4163 31.5902 40.9938 31.3592C41.338 31.2218 41.7954 31.0046 42.0819 30.7447C42.6201 31.2379 43.3224 31.514 44.0536 31.5174V45.3168L28.8658 45.3364L29.0968 35.403C29.0968 35.403 32.1635 33.6335 33.2111 31.6514L33.2077 31.6503ZM39.1215 41.3735L50.9492 29.5458H44.0501C43.5061 29.5458 43.0648 29.1045 43.0648 28.5605V22.6467C43.0648 22.1026 43.5061 21.6614 44.0501 21.6614H55.8778C56.967 21.6614 57.8495 22.5439 57.8495 23.6331V25.4269C56.8584 24.2845 55.4192 23.6296 53.9073 23.6331C53.3632 23.6331 52.922 24.0743 52.922 24.6183V28.5605C52.922 29.1045 52.4808 29.5458 51.9368 29.5458H50.9515L39.1215 41.3735ZM41.0932 28.5605C41.0932 29.1045 40.6519 29.5458 40.1079 29.5458H39.1227C38.5786 29.5458 38.1374 29.1045 38.1374 28.5605V22.6467C38.1374 22.1026 38.5786 21.6614 39.1227 21.6614H40.1079C40.6519 21.6614 41.0932 22.1026 41.0932 22.6467V28.5605ZM46.0218 45.3168V31.5174H49.9639V45.3168H46.0218Z" fill="#6254B8"/>
<path d="M31.8212 50.4235C31.4281 50.0305 30.7908 50.0305 30.3977 50.4235L25.3641 55.4571C24.9711 55.8503 24.9711 56.4875 25.3641 56.8806L30.3977 61.9143C30.7927 62.2958 31.4206 62.2903 31.809 61.902C32.1973 61.5137 32.2028 60.8858 31.8212 60.4908L27.4994 56.1689L31.8212 51.847C32.2142 51.4539 32.2142 50.8166 31.8212 50.4235Z" fill="#6254B8"/>
<path d="M42.4784 61.9143C42.8716 62.3073 43.5088 62.3073 43.9019 61.9143L48.9356 56.8806C49.3286 56.4875 49.3286 55.8503 48.9356 55.4571L43.9019 50.4235C43.5069 50.042 42.879 50.0474 42.4907 50.4358C42.1024 50.8241 42.0969 51.452 42.4784 51.847L46.8003 56.1689L42.4784 60.4908C42.0854 60.8839 42.0854 61.5212 42.4784 61.9143Z" fill="#6254B8"/>
<path d="M35.1364 62.2092C35.5483 62.2094 35.9188 61.9586 36.0716 61.576L40.0985 51.5088C40.232 51.1746 40.177 50.7947 39.9544 50.5121C39.7317 50.2294 39.3752 50.0871 39.0191 50.1386C38.663 50.1901 38.3615 50.4276 38.228 50.7618L34.2011 60.829C34.0772 61.1392 34.1152 61.4907 34.3026 61.7672C34.49 62.0438 34.8023 62.2094 35.1364 62.2092Z" fill="#6254B8"/>
</g>
<defs>
<clipPath id="clip0_132_418">
<rect width="59.1385" height="62" fill="white" transform="translate(8.56702 7.86206)"/>
</clipPath>
</defs>
</svg>
