<svg width="50" height="50" viewBox="0 0 50 50" fill="none" xmlns="http://www.w3.org/2000/svg">
<g clip-path="url(#clip0_1750_22128)">
<path d="M5.96495 22.9629H14.8026C15.1781 22.9629 15.4824 23.2673 15.4824 23.6427V28.4014C15.4824 28.7769 15.1781 29.0812 14.8026 29.0812H5.96495C5.58948 29.0812 5.28516 28.7769 5.28516 28.4014V23.6427C5.28508 23.2673 5.58948 22.9629 5.96495 22.9629Z" fill="#BDB7DE"/>
<path d="M5.96495 5.28711H14.8026C15.1781 5.28711 15.4824 5.59152 15.4824 5.96691V10.7257C15.4824 11.1012 15.1781 11.4055 14.8026 11.4055H5.96495C5.58948 11.4055 5.28516 11.1012 5.28516 10.7257V5.96699C5.28508 5.59152 5.58948 5.28711 5.96495 5.28711Z" fill="#BDB7DE"/>
<path d="M18.881 5.28711H31.1178C31.4933 5.28711 31.7976 5.59152 31.7976 5.96691V10.7257C31.7976 11.1012 31.4933 11.4055 31.1178 11.4055H18.881C18.5055 11.4055 18.2012 11.1012 18.2012 10.7257V5.96699C18.2012 5.59152 18.5055 5.28711 18.881 5.28711Z" fill="#BDB7DE"/>
<path d="M23.6403 15.0971V14.8048C23.6392 14.4298 23.3355 14.126 22.9605 14.125H5.96495C5.58996 14.1261 5.28619 14.4298 5.28516 14.8048V19.5635C5.28627 19.9385 5.58996 20.2423 5.96495 20.2433H19.7518L20.2412 16.8442L23.6403 15.0971Z" fill="#EFEDF7"/>
<path d="M44.7146 14.8048V19.5635C44.7135 19.9385 44.4098 20.2422 44.0348 20.2433H30.4383L29.7585 16.1644L26.3594 15.4846V14.8048C26.3605 14.4298 26.6642 14.1261 27.0392 14.125H44.0347C44.4097 14.1261 44.7135 14.4298 44.7146 14.8048Z" fill="#BDB7DE"/>
<path d="M15.938 31.8008L15.6865 34.2345L15.299 37.9192H5.96495C5.58996 37.9181 5.28627 37.6144 5.28516 37.2394V32.4807C5.28627 32.1057 5.58996 31.802 5.96495 31.8009H15.938V31.8008Z" fill="#EFEDF7"/>
<path d="M44.7155 32.4807V37.2394C44.7144 37.6144 44.4107 37.9181 44.0357 37.9192H35.4902L35.565 31.8008H44.0356C44.4106 31.8019 44.7144 32.1057 44.7155 32.4807Z" fill="#BDB7DE"/>
<path d="M35.1974 5.28711H44.0351C44.4105 5.28711 44.7148 5.59152 44.7148 5.96691V10.7257C44.7148 11.1012 44.4104 11.4055 44.0351 11.4055H35.1974C34.8219 11.4055 34.5176 11.1012 34.5176 10.7257V5.96699C34.5176 5.59152 34.8219 5.28711 35.1974 5.28711Z" fill="#BDB7DE"/>
<path d="M35.1974 22.9629H44.0351C44.4105 22.9629 44.7148 23.2673 44.7148 23.6427V28.4014C44.7148 28.7769 44.4104 29.0812 44.0351 29.0812H35.1974C34.8219 29.0812 34.5176 28.7769 34.5176 28.4014V23.6427C34.5176 23.2673 34.8219 22.9629 35.1974 22.9629Z" fill="#BDB7DE"/>
<path d="M5.96495 22.9629H12.7632C13.1386 22.9629 13.443 23.2673 13.443 23.6427V28.4014C13.443 28.7769 13.1385 29.0812 12.7632 29.0812H5.96495C5.58948 29.0812 5.28516 28.7769 5.28516 28.4014V23.6427C5.28508 23.2673 5.58948 22.9629 5.96495 22.9629Z" fill="#EFEDF7"/>
<path d="M5.96495 5.28711H12.7632C13.1386 5.28711 13.443 5.59152 13.443 5.96691V10.7257C13.443 11.1012 13.1385 11.4055 12.7632 11.4055H5.96495C5.58948 11.4055 5.28516 11.1012 5.28516 10.7257V5.96699C5.28508 5.59152 5.58948 5.28711 5.96495 5.28711Z" fill="#EFEDF7"/>
<path d="M18.881 5.28711H29.0783C29.4538 5.28711 29.7581 5.59152 29.7581 5.96691V10.7257C29.7581 11.1012 29.4538 11.4055 29.0783 11.4055H18.881C18.5055 11.4055 18.2012 11.1012 18.2012 10.7257V5.96699C18.2012 5.59152 18.5055 5.28711 18.881 5.28711Z" fill="#EFEDF7"/>
<path d="M42.6751 14.8048V19.5635C42.674 19.9385 42.3703 20.2422 41.9953 20.2433H30.4383L29.7585 16.1644L26.3594 15.4846V14.8048C26.3605 14.4298 26.6642 14.1261 27.0392 14.125H41.9953C42.3702 14.1261 42.674 14.4298 42.6751 14.8048Z" fill="#EFEDF7"/>
<path d="M42.6759 32.4807V37.2394C42.6748 37.6144 42.3711 37.9181 41.9961 37.9192H35.4902L35.565 31.8008H41.9961C42.3711 31.8019 42.6748 32.1057 42.6759 32.4807Z" fill="#EFEDF7"/>
<path d="M35.1974 5.28711H41.9956C42.3711 5.28711 42.6754 5.59152 42.6754 5.96691V10.7257C42.6754 11.1012 42.371 11.4055 41.9956 11.4055H35.1974C34.8219 11.4055 34.5176 11.1012 34.5176 10.7257V5.96699C34.5176 5.59152 34.8219 5.28711 35.1974 5.28711Z" fill="#EFEDF7"/>
<path d="M35.1974 22.9629H41.9956C42.3711 22.9629 42.6754 23.2673 42.6754 23.6427V28.4014C42.6754 28.7769 42.371 29.0812 41.9956 29.0812H35.1974C34.8219 29.0812 34.5176 28.7769 34.5176 28.4014V23.6427C34.5176 23.2673 34.8219 22.9629 35.1974 22.9629Z" fill="#EFEDF7"/>
<path d="M31.7977 18.2039V27.0416H29.0784V18.2039C29.0762 17.454 28.4688 16.8465 27.7187 16.8443H22.2801C21.5301 16.8465 20.9227 17.4539 20.9204 18.2039V27.0416H18.2012V18.2039C18.2029 15.9519 20.0281 14.1268 22.2801 14.125H27.7187C29.9707 14.1268 31.7959 15.9519 31.7977 18.2039Z" fill="#FFCE1F"/>
<path d="M36.5574 28.401V41.9975C36.5576 42.7187 36.2712 43.4106 35.7611 43.9206C35.2511 44.4306 34.5594 44.717 33.8381 44.7168H16.1627C15.4415 44.717 14.7497 44.4306 14.2396 43.9206C13.7296 43.4106 13.4432 42.7188 13.4434 41.9975V28.401C13.4422 27.1611 14.2818 26.0781 15.4828 25.7701C15.7043 25.7094 15.933 25.6797 16.1626 25.6817H33.8381C34.0677 25.6797 34.2965 25.7094 34.5179 25.7701C35.719 26.0781 36.5584 27.1611 36.5574 28.401Z" fill="#BDB7DE"/>
<path d="M34.5179 28.401V41.9975C34.5181 42.7187 34.2317 43.4106 33.7217 43.9206C33.2116 44.4306 32.5199 44.717 31.7986 44.7168H16.1627C15.4415 44.717 14.7497 44.4306 14.2396 43.9206C13.7296 43.4106 13.4432 42.7188 13.4434 41.9975V28.401C13.4422 27.1611 14.2818 26.0781 15.4828 25.7701C15.7043 25.7094 15.933 25.6797 16.1626 25.6817H31.7986C32.0282 25.6797 32.257 25.7094 32.4784 25.7701C33.6795 26.0781 34.519 27.1611 34.5179 28.401Z" fill="#EFEDF7"/>
<path d="M24.9993 41.3169C28.3784 41.3169 31.1177 38.5776 31.1177 35.1985C31.1177 31.8194 28.3784 29.0801 24.9993 29.0801C21.6202 29.0801 18.8809 31.8194 18.8809 35.1985C18.8809 38.5776 21.6202 41.3169 24.9993 41.3169Z" fill="#FFCE1F"/>
<path d="M25.0004 36.5594C26.1268 36.5594 27.0399 35.6463 27.0399 34.5199C27.0399 33.3936 26.1268 32.4805 25.0004 32.4805C23.874 32.4805 22.9609 33.3936 22.9609 34.5199C22.9609 35.6463 23.874 36.5594 25.0004 36.5594Z" fill="#BDB7DE"/>
<path d="M5.96495 11.4054H8.00442C7.62943 11.4043 7.32574 11.1006 7.32463 10.7256V5.96691C7.32574 5.59191 7.62943 5.28822 8.00442 5.28711H5.96495C5.58996 5.28822 5.28627 5.59191 5.28516 5.96691V10.7256C5.28619 11.1006 5.58996 11.4043 5.96495 11.4054Z" fill="#F9FAFB"/>
<path d="M17.5215 25.7701C17.743 25.7094 17.9717 25.6797 18.2013 25.6817H17.5215V25.7701Z" fill="#F9FAFB"/>
<path d="M5.96495 29.0812H8.00442C7.62943 29.0801 7.32574 28.7764 7.32463 28.4014V23.6427C7.32574 23.2677 7.62943 22.964 8.00442 22.9629H5.96495C5.58996 22.964 5.28627 23.2677 5.28516 23.6427V28.4014C5.28619 28.7764 5.58996 29.0801 5.96495 29.0812Z" fill="#F9FAFB"/>
<path d="M5.96495 37.9191H8.00442C7.62943 37.918 7.32574 37.6143 7.32463 37.2393V32.4806C7.32574 32.1056 7.62943 31.8019 8.00442 31.8008H5.96495C5.58996 31.8019 5.28627 32.1056 5.28516 32.4806V37.2393C5.28619 37.6143 5.58996 37.918 5.96495 37.9191Z" fill="#F9FAFB"/>
<path d="M5.96495 20.2434H8.00442C7.62943 20.2423 7.32574 19.9386 7.32463 19.5636V14.8048C7.32574 14.4298 7.62943 14.1261 8.00442 14.125H5.96495C5.58996 14.1261 5.28627 14.4298 5.28516 14.8048V19.5635C5.28619 19.9385 5.58996 20.2423 5.96495 20.2434Z" fill="#F9FAFB"/>
<path d="M5.96484 13.4453H14.8025H22.2806V14.805H14.8025H5.96484V13.4453Z" fill="#F9FAFB"/>
<path d="M5.96514 12.0855H14.8028C15.5534 12.0845 16.1615 11.4764 16.1625 10.7258V5.96709C16.1615 5.21655 15.5534 4.60838 14.8028 4.60742H5.96514C5.2146 4.60838 4.60642 5.21655 4.60547 5.96709V10.7258C4.60642 11.4764 5.2146 12.0845 5.96514 12.0855ZM5.96514 5.96709H14.8028L14.8042 10.7258H5.96514V5.96709Z" fill="#6254B8"/>
<path d="M9.36361 7.32617H8.00402C7.62855 7.32617 7.32422 7.63058 7.32422 8.00597C7.32422 8.38136 7.62863 8.68577 8.00402 8.68577H9.36369C9.73916 8.68577 10.0435 8.38136 10.0435 8.00597C10.0435 7.63058 9.73908 7.32617 9.36361 7.32617Z" fill="#6254B8"/>
<path d="M31.118 12.0855C31.8685 12.0845 32.4766 11.4764 32.4776 10.7258V5.96709C32.4766 5.21655 31.8685 4.60838 31.118 4.60742H18.8812C18.1306 4.60838 17.5225 5.21655 17.5215 5.96709V10.7258C17.5224 11.4764 18.1306 12.0845 18.8812 12.0855H31.118ZM18.8812 5.96709H31.118L31.1193 10.7258H18.8812V5.96709Z" fill="#6254B8"/>
<path d="M24.3211 7.32617H20.922C20.5465 7.32617 20.2422 7.63058 20.2422 8.00597C20.2422 8.38136 20.5466 8.68577 20.922 8.68577H24.3211C24.6966 8.68577 25.0009 8.38136 25.0009 8.00597C25.0009 7.63058 24.6966 7.32617 24.3211 7.32617Z" fill="#6254B8"/>
<path d="M11.8871 13.6425C11.619 13.3796 11.1899 13.3796 10.9218 13.6425L10.8401 13.7444C10.8143 13.7823 10.7937 13.8235 10.7787 13.8669C10.7591 13.9055 10.7455 13.9467 10.7382 13.9894C10.7306 14.0343 10.726 14.0796 10.7246 14.1252C10.7271 14.3052 10.7975 14.4776 10.9218 14.6079C11.0806 14.7728 11.3128 14.8452 11.5373 14.7998C11.7618 14.7544 11.9475 14.5975 12.0299 14.3838C12.0648 14.302 12.0832 14.2141 12.0844 14.1252C12.0816 13.9452 12.0111 13.7729 11.8871 13.6425Z" fill="#6254B8"/>
<path d="M11.4031 16.1641H8.00402C7.62855 16.1641 7.32422 16.4684 7.32422 16.8439C7.32422 17.2193 7.62863 17.5237 8.00402 17.5237H11.4032C11.7786 17.5237 12.083 17.2192 12.083 16.8439C12.083 16.4685 11.7785 16.1641 11.4031 16.1641Z" fill="#6254B8"/>
<path d="M44.0352 13.4453H14.123C13.7476 13.4453 13.4432 13.7497 13.4432 14.1251C13.4432 14.5006 13.7476 14.8049 14.123 14.8049H18.957C18.0395 15.6978 17.522 16.9237 17.5222 18.204V19.5637H5.96514L5.96713 14.805H8.68441C9.05988 14.805 9.36421 14.5006 9.36421 14.1252C9.36421 13.7497 9.0598 13.4454 8.68441 13.4454H5.96514C5.2146 13.4463 4.60642 14.0544 4.60547 14.805V19.5637C4.60642 20.3143 5.2146 20.9224 5.96514 20.9234H17.5222V25.0023H16.1625V23.6427C16.1615 22.8921 15.5534 22.284 14.8028 22.283H5.96514C5.2146 22.284 4.60642 22.8922 4.60547 23.6427V28.4014C4.60642 29.1519 5.2146 29.76 5.96514 29.7611H12.7633V31.1207H5.96514C5.2146 31.1217 4.60642 31.7299 4.60547 32.4804V37.2392C4.60642 37.9897 5.2146 38.5978 5.96514 38.5988H12.7633V41.998C12.7656 43.8744 14.2861 45.3949 16.1625 45.3971H33.8379C35.7143 45.3949 37.2348 43.8744 37.2371 41.998V38.5988H44.0353C44.7858 38.5979 45.3939 37.9897 45.3949 37.2392V32.4804C45.394 31.7299 44.7858 31.1218 44.0353 31.1207H37.237V29.7611H44.0352C44.7857 29.7601 45.3938 29.1519 45.3949 28.4014V23.6427C45.3939 22.8921 44.7857 22.284 44.0352 22.283H35.1975C34.447 22.2839 33.8389 22.8921 33.8378 23.6427V25.0023H32.4782V20.9234H44.0352C44.7857 20.9224 45.3938 20.3143 45.3949 19.5637V14.805C45.3939 14.0544 44.7857 13.4463 44.0352 13.4453ZM5.96514 28.4015V23.6427H14.8028V25.2892C13.5633 25.8273 12.7619 27.0502 12.7633 28.4015H5.96514ZM5.96514 32.4804H12.7633V37.2392H5.96514V32.4804ZM44.0352 32.4804V37.2392H37.237V32.4804H44.0352ZM44.0352 23.6427V28.4014H37.237C37.2389 27.0498 36.4375 25.8262 35.1975 25.288V23.6426L44.0352 23.6427ZM34.3497 26.429C35.2503 26.6595 35.8794 27.4718 35.8773 28.4014V41.9979C35.8761 43.1237 34.9637 44.0362 33.8378 44.0374H16.1625C15.0366 44.0362 14.1242 43.1237 14.123 41.9979V28.4015C14.1226 27.4663 14.7592 26.6512 15.6666 26.4251C15.8281 26.3813 15.995 26.36 16.1625 26.362H33.8379C34.0108 26.3603 34.183 26.3829 34.3497 26.429ZM28.3993 25.0023H21.6011V18.2041C21.6013 17.8287 21.9056 17.5246 22.2809 17.5243H27.7195C28.0949 17.5246 28.3991 17.8288 28.3993 18.2041V25.0023ZM29.7589 25.0023V18.2041C29.7577 17.0783 28.8453 16.1659 27.7194 16.1647H22.2808C21.155 16.1659 20.2425 17.0783 20.2414 18.2041V25.0023H18.8818V18.2041C18.884 16.3277 20.4045 14.8072 22.2809 14.805H27.7195C29.5959 14.8072 31.1164 16.3277 31.1187 18.2041V25.0023H29.7589ZM44.0352 19.5637H32.4783V18.204C32.4784 16.9238 31.9609 15.6978 31.0433 14.8049H44.0352V19.5637Z" fill="#6254B8"/>
<path d="M11.4031 33.8398H8.00402C7.62855 33.8398 7.32422 34.1442 7.32422 34.5196C7.32422 34.8951 7.62863 35.1994 8.00402 35.1994H11.4032C11.7786 35.1994 12.083 34.895 12.083 34.5196C12.083 34.1442 11.7785 33.8398 11.4031 33.8398Z" fill="#6254B8"/>
<path d="M44.0352 4.60742H35.1976C34.447 4.60838 33.8389 5.21655 33.8379 5.96709V10.7258C33.8388 11.4764 34.447 12.0845 35.1976 12.0855H44.0352C44.7858 12.0845 45.3939 11.4764 45.3949 10.7258V5.96709C45.394 5.21655 44.7858 4.60838 44.0352 4.60742ZM35.1976 10.7258V5.96709H44.0352L44.0366 10.7258H35.1976Z" fill="#6254B8"/>
<path d="M41.9963 7.32617H41.3165C40.941 7.32617 40.6367 7.63058 40.6367 8.00597C40.6367 8.38136 40.941 8.68577 41.3165 8.68577H41.9963C42.3718 8.68577 42.6761 8.38136 42.6761 8.00597C42.6761 7.63058 42.3718 7.32617 41.9963 7.32617Z" fill="#6254B8"/>
<path d="M9.36361 25.002H8.00402C7.62855 25.002 7.32422 25.3064 7.32422 25.6817C7.32422 26.0571 7.62863 26.3615 8.00402 26.3615H9.36369C9.73916 26.3615 10.0435 26.0572 10.0435 25.6817C10.0435 25.3063 9.73908 25.002 9.36361 25.002Z" fill="#6254B8"/>
<path d="M41.3165 26.3616H41.9963C42.3718 26.3616 42.6761 26.0573 42.6761 25.6818C42.6761 25.3064 42.3718 25.002 41.9963 25.002H41.3165C40.941 25.002 40.6367 25.3064 40.6367 25.6817C40.6367 26.0571 40.941 26.3616 41.3165 26.3616Z" fill="#6254B8"/>
<path d="M25.9209 28.4707C25.8309 28.4258 25.7319 28.4019 25.6315 28.4006H25.02L25.0159 28.4014L24.9995 28.4006C21.3032 28.3696 18.2478 31.2745 18.0921 34.9676C17.9365 38.6607 20.7367 41.8123 24.4224 42.0924C28.1082 42.3725 31.3525 39.6802 31.7567 36.0059C32.1608 32.3316 29.5794 28.9985 25.9209 28.4707ZM24.9994 40.6375C21.9957 40.6375 19.5608 38.2025 19.5608 35.1988C19.5608 32.1952 21.9957 29.7602 24.9994 29.7602C28.0031 29.7602 30.438 32.1952 30.438 35.1988C30.4346 38.2011 28.0016 40.634 24.9994 40.6375Z" fill="#6254B8"/>
<path d="M25.0007 31.8008C23.6323 31.7979 22.4759 32.8144 22.3032 34.1717C22.1304 35.5292 22.9954 36.8028 24.3209 37.1428V38.5989C24.3209 38.9744 24.6253 39.2787 25.0007 39.2787C25.3761 39.2787 25.6805 38.9744 25.6805 38.5989V37.1428C27.006 36.8028 27.8709 35.5291 27.6982 34.1717C27.5255 32.8144 26.369 31.798 25.0007 31.8008ZM25.0007 35.8797C24.2497 35.8797 23.641 35.271 23.641 34.5201C23.641 33.7691 24.2497 33.1604 25.0007 33.1604C25.7516 33.1604 26.3603 33.7691 26.3603 34.5201C26.3593 35.2706 25.7512 35.8788 25.0007 35.8797Z" fill="#6254B8"/>
</g>
<defs>
<clipPath id="clip0_1750_22128">
<rect width="40.7895" height="40.7895" fill="white" transform="translate(4.60547 4.60742)"/>
</clipPath>
</defs>
</svg>
