<svg width="16" height="16" viewBox="0 0 16 16" fill="none" xmlns="http://www.w3.org/2000/svg">
<path fill-rule="evenodd" clip-rule="evenodd" d="M13.525 8.84432C13.6697 8.75612 13.7893 8.63218 13.8723 8.48442C13.9553 8.33666 13.9989 8.17004 13.9989 8.00057C13.9989 7.8311 13.9553 7.66448 13.8723 7.51672C13.7893 7.36896 13.6697 7.24502 13.525 7.15682V7.15557L4.52 1.64682C4.36818 1.55385 4.19429 1.5031 4.0163 1.49981C3.83831 1.49651 3.66266 1.54079 3.5075 1.62807C3.35382 1.714 3.2258 1.83931 3.1366 1.99112C3.04741 2.14292 3.00026 2.31575 3 2.49182V13.5081C3.00116 13.7722 3.10715 14.025 3.29466 14.211C3.48218 14.397 3.73589 14.5009 4 14.4999C4.18435 14.4999 4.36511 14.4491 4.5225 14.3531L13.525 8.84432ZM4.5 12.6083V3.393L12.025 7.99637V7.99922L12.0286 8.00143L4.5 12.6083Z" fill="currentColor"/>
</svg>
