<svg width="96" height="80" viewBox="0 0 96 80" fill="none" xmlns="http://www.w3.org/2000/svg">
<rect width="96" height="80" rx="40" fill="#F5F5F5"/>
<g clip-path="url(#clip0_4121_15890)">
<path d="M42.5675 29.2677V31.5728H15.8282V29.2677C15.8282 28.7786 16.0225 28.3095 16.3684 27.9637C16.7142 27.6179 17.1833 27.4236 17.6723 27.4236H40.7234C41.2125 27.4236 41.6816 27.6179 42.0274 27.9637C42.3732 28.3095 42.5675 28.7786 42.5675 29.2677Z" fill="#F9FAFB"/>
<path d="M40.7228 27.4236H39.3397C39.8288 27.4236 40.2979 27.6179 40.6437 27.9637C40.9895 28.3095 41.1838 28.7786 41.1838 29.2677V31.5728H42.5669V29.2677C42.5669 28.7786 42.3726 28.3095 42.0268 27.9637C41.6809 27.6179 41.2119 27.4236 40.7228 27.4236Z" fill="#F9FAFB"/>
<path d="M42.5675 31.5728V52.3188C42.5675 52.8079 42.3732 53.2769 42.0274 53.6228C41.6816 53.9686 41.2125 54.1629 40.7234 54.1629H17.6723C17.1833 54.1629 16.7142 53.9686 16.3684 53.6228C16.0225 53.2769 15.8282 52.8079 15.8282 52.3188V31.5728H42.5675Z" fill="#F9FAFB"/>
<path d="M41.1838 31.5728V52.3188C41.1838 52.8079 40.9895 53.2769 40.6437 53.6228C40.2979 53.9686 39.8288 54.1629 39.3397 54.1629H40.7228C41.2119 54.1629 41.6809 53.9686 42.0268 53.6228C42.3726 53.2769 42.5669 52.8079 42.5669 52.3188V31.5728H41.1838Z" fill="#F9FAFB"/>
<path d="M15.8282 31.5728H42.5675V33.4169H15.8282V31.5728Z" fill="#F9FAFB"/>
<path d="M41.184 31.5728H42.567V33.4169H41.184V31.5728Z" fill="#F9FAFB"/>
<path d="M24.5885 33.4169H33.8089V54.1629H24.5885V33.4169Z" fill="#F9FAFB"/>
<path d="M32.4257 33.4169H33.8087V54.1629H32.4257V33.4169Z" fill="#F9FAFB"/>
<path d="M17.6723 54.1629H19.0554C18.5663 54.1629 18.0973 53.9686 17.7514 53.6227C17.4056 53.2769 17.2113 52.8079 17.2113 52.3188V29.2677C17.2113 28.7786 17.4056 28.3095 17.7514 27.9637C18.0973 27.6179 18.5663 27.4236 19.0554 27.4236H17.6723C17.1833 27.4236 16.7142 27.6179 16.3684 27.9637C16.0225 28.3095 15.8282 28.7786 15.8282 29.2677V52.3188C15.8282 52.8079 16.0225 53.2769 16.3684 53.6227C16.7142 53.9686 17.1833 54.1629 17.6723 54.1629Z" fill="#F9FAFB"/>
<path d="M17.6709 26.9625H21.3591V27.8846H17.6709V26.9625Z" fill="#F9FAFB"/>
<path d="M19.5149 27.8846C19.7695 27.8846 19.9759 27.6782 19.9759 27.4235C19.9759 27.1689 19.7695 26.9625 19.5149 26.9625C19.2602 26.9625 19.0538 27.1689 19.0538 27.4235C19.0538 27.6782 19.2602 27.8846 19.5149 27.8846Z" fill="#072B55"/>
<path d="M40.7217 26.9625H21.3588C21.2365 26.9625 21.1192 27.0111 21.0328 27.0976C20.9463 27.184 20.8977 27.3013 20.8977 27.4235C20.8977 27.5458 20.9463 27.6631 21.0328 27.7495C21.1192 27.836 21.2365 27.8846 21.3588 27.8846H40.7217C41.0885 27.8846 41.4403 28.0303 41.6997 28.2897C41.959 28.549 42.1048 28.9008 42.1048 29.2676V31.1117H16.2875V29.2676C16.2875 28.9008 16.4332 28.549 16.6926 28.2897C16.952 28.0303 17.3038 27.8846 17.6706 27.8846C17.7929 27.8846 17.9101 27.836 17.9966 27.7495C18.083 27.6631 18.1316 27.5458 18.1316 27.4235C18.1316 27.3013 18.083 27.184 17.9966 27.0976C17.9101 27.0111 17.7929 26.9625 17.6706 26.9625C17.0595 26.9633 16.4736 27.2064 16.0414 27.6385C15.6093 28.0706 15.3662 28.6565 15.3655 29.2676V52.3187C15.3662 52.9299 15.6093 53.5158 16.0414 53.9479C16.4736 54.38 17.0595 54.6231 17.6706 54.6239H40.7217C41.3328 54.6231 41.9187 54.38 42.3508 53.9479C42.783 53.5158 43.0261 52.9299 43.0268 52.3187V29.2676C43.0261 28.6565 42.783 28.0706 42.3508 27.6385C41.9187 27.2064 41.3328 26.9633 40.7217 26.9625ZM42.1048 33.8779V37.105H34.2674V33.8779H42.1048ZM24.1249 41.2542H16.2875V38.0271H24.1249V41.2542ZM25.0469 38.0271H33.3453V41.2542H25.0469V38.0271ZM24.1249 42.1763V45.4034H16.2875V42.1763H24.1249ZM25.0469 42.1763H33.3453V45.4034H25.0469V42.1763ZM34.2674 42.1763H42.1048V45.4034H34.2674V42.1763ZM34.2674 41.2542V38.0271H42.1048V41.2542H34.2674ZM33.3453 37.105H25.0469V33.8779H33.3453V37.105ZM24.1249 37.105H16.2875V33.8779H24.1249V37.105ZM16.2875 46.3255H24.1249V49.5526H16.2875V46.3255ZM25.0469 46.3255H33.3453V49.5526H25.0469V46.3255ZM34.2674 46.3255H42.1048V49.5526H34.2674V46.3255ZM42.1048 32.0338V32.9558H16.2875V32.0338H42.1048ZM16.2875 52.3187V50.4747H24.1249V53.7018H17.6706C17.3038 53.7018 16.952 53.5561 16.6926 53.2967C16.4332 53.0373 16.2875 52.6856 16.2875 52.3187ZM25.0469 53.7018V50.4747H33.3453V53.7018H25.0469ZM40.7217 53.7018H34.2674V50.4747H42.1048V52.3187C42.1048 52.6856 41.959 53.0373 41.6997 53.2967C41.4403 53.5561 41.0885 53.7018 40.7217 53.7018Z" fill="#072B55"/>
</g>
<path fill-rule="evenodd" clip-rule="evenodd" d="M52.6254 36.2695L55.783 39.4271C55.9768 39.6208 55.9768 39.935 55.783 40.1287L52.6254 43.2863C52.4317 43.4801 52.1175 43.4801 51.9237 43.2863C51.73 43.0926 51.73 42.7784 51.9237 42.5846L54.2343 40.2741L45.0126 40.2741C44.7386 40.2741 44.5165 40.0519 44.5165 39.7779C44.5165 39.5039 44.7386 39.2817 45.0126 39.2817L54.2343 39.2817L51.9237 36.9712C51.73 36.7774 51.73 36.4632 51.9237 36.2695C52.1175 36.0757 52.4317 36.0757 52.6254 36.2695Z" fill="#072B55"/>
<g clip-path="url(#clip1_4121_15890)">
<path d="M57.8412 28.8499V36.4751C57.8412 38.4578 62.6316 40.0636 68.5466 40.0636C74.4616 40.0636 79.2521 38.4578 79.2521 36.4751V28.8499C79.2521 31.0837 74.4616 32.8865 68.5466 32.8865C62.6316 32.8865 57.8412 31.0837 57.8412 28.8499Z" fill="#F9FAFB"/>
<path d="M57.7323 37.1057V44.282C57.7323 46.2647 62.4793 47.8705 68.3397 47.8705C74.2001 47.8705 78.9471 46.2647 78.9471 44.282V37.1057C78.9471 39.0885 74.2001 40.6943 68.3397 40.6943C62.4793 40.6943 57.7323 39.0876 57.7323 37.1057Z" fill="#F9FAFB"/>
<path d="M57.7323 43.7565V50.9327C57.7323 52.9155 62.4793 54.5213 68.3397 54.5213C74.2001 54.5213 78.9471 52.9155 78.9471 50.9327V43.7565C78.9471 45.7392 74.2001 47.345 68.3397 47.345C62.4793 47.345 57.7323 45.7383 57.7323 43.7565Z" fill="#F9FAFB"/>
<path d="M68.4971 33.3066C74.4424 33.3066 79.2619 31.4993 79.2619 29.27C79.2619 27.0406 74.4424 25.2334 68.4971 25.2334C62.5519 25.2334 57.7323 27.0406 57.7323 29.27C57.7323 31.4993 62.5519 33.3066 68.4971 33.3066Z" fill="#F9FAFB"/>
<path d="M69.2406 54.6239C68.8115 54.6239 68.3896 54.6115 67.9749 54.5938C72.9704 54.3738 76.8352 52.8785 76.8352 51.0612V29.2414C76.8352 27.1926 72.9704 25.5145 67.9749 25.268C68.3905 25.2476 68.8115 25.2334 69.2406 25.2334C74.8353 25.2334 79.3667 27.0232 79.3667 29.2414V51.0612C79.3667 53.0292 74.8353 54.6239 69.2406 54.6239Z" fill="#F9FAFB"/>
<path d="M75.1485 35.9487C75.6439 35.9487 76.0454 35.5471 76.0454 35.0518C76.0454 34.5564 75.6439 34.1548 75.1485 34.1548C74.6532 34.1548 74.2516 34.5564 74.2516 35.0518C74.2516 35.5471 74.6532 35.9487 75.1485 35.9487Z" fill="#072B55"/>
<path d="M75.1485 43.125C75.6439 43.125 76.0454 42.7234 76.0454 42.228C76.0454 41.7327 75.6439 41.3311 75.1485 41.3311C74.6532 41.3311 74.2516 41.7327 74.2516 42.228C74.2516 42.7234 74.6532 43.125 75.1485 43.125Z" fill="#072B55"/>
<path d="M75.1485 50.3012C75.6439 50.3012 76.0454 49.8996 76.0454 49.4042C76.0454 48.9089 75.6439 48.5073 75.1485 48.5073C74.6532 48.5073 74.2516 48.9089 74.2516 49.4042C74.2516 49.8996 74.6532 50.3012 75.1485 50.3012Z" fill="#072B55"/>
<path d="M72.3785 26.0475H72.3821C72.5881 26.0475 72.7806 25.9369 72.885 25.7588C72.9893 25.5797 72.9902 25.3566 72.8877 25.1767C72.7851 24.9968 72.5926 24.8843 72.3848 24.8834C72.0573 24.8834 71.7955 25.1443 71.7955 25.4655C71.7955 25.7866 72.0564 26.0475 72.3776 26.0475H72.3785Z" fill="#072B55"/>
<path d="M57.4678 51.2477C57.4678 53.9564 63.3135 55.4183 68.8146 55.4183C74.3158 55.4183 80.1615 53.9564 80.1615 51.2477V29.736C80.1579 29.7045 80.1507 29.6739 80.1417 29.6442L80.1192 29.5723L80.1327 29.4976C80.1462 29.4211 80.1552 29.3438 80.1606 29.2673C80.1336 28.7113 79.9339 28.1887 79.584 27.755C79.2763 27.3871 78.912 27.065 78.5044 26.8015C77.7505 26.3211 76.9337 25.9441 76.0773 25.6814L76.0656 25.6778C75.918 25.6266 75.7552 25.6382 75.6167 25.7111C75.479 25.784 75.3756 25.9117 75.3351 26.062C75.2541 26.3615 75.4187 26.6791 75.7102 26.7871C76.4641 27.0165 77.1847 27.3457 77.8513 27.7658C78.1545 27.9602 78.4262 28.195 78.6601 28.4657C78.8436 28.6889 78.9569 28.9506 78.9929 29.2286L78.9956 29.27C78.9956 30.9037 74.8142 32.7245 68.8128 32.7245C62.8115 32.7245 58.6319 30.9046 58.6319 29.27C58.6319 27.6354 62.8142 25.8155 68.8146 25.8155C69.1358 25.8155 69.3967 25.5546 69.3967 25.2334C69.3967 24.9123 69.1358 24.6514 68.8146 24.6514C63.2433 24.6514 57.4804 26.3759 57.4678 29.261C57.4732 29.3402 57.4822 29.4202 57.4966 29.4985L57.5101 29.5723L57.4885 29.6442C57.4795 29.6739 57.4732 29.7054 57.4687 29.736V51.2477H57.4678ZM58.6319 31.3949L59.1204 31.7179C61.1481 33.0574 64.8626 33.8895 68.8146 33.8895C72.7667 33.8895 76.4812 33.0574 78.5089 31.7179L78.9974 31.3949V36.8952C78.9974 37.5618 77.9674 38.304 76.2428 38.8815C74.8538 39.3466 72.4374 39.9008 68.8146 39.9008C65.1919 39.9008 62.7764 39.3466 61.3865 38.8815C59.6619 38.304 58.6319 37.5618 58.6319 36.8952V31.3949ZM58.6319 38.8347L59.1087 39.1217C61.1004 40.3209 64.8194 41.0658 68.8137 41.0658C72.8081 41.0658 76.5271 40.3209 78.5188 39.1217L78.9956 38.8347V44.0714C78.9956 44.738 77.9656 45.4811 76.241 46.0578C74.852 46.5229 72.4356 47.077 68.8128 47.077C65.1901 47.077 62.7746 46.5229 61.3847 46.0578C59.6601 45.4802 58.6301 44.738 58.6301 44.0714V38.8347H58.6319ZM58.6319 46.011L59.1087 46.298C61.1004 47.4972 64.8194 48.242 68.8137 48.242C72.8081 48.242 76.5271 47.4972 78.5188 46.298L78.9956 46.011V51.2477C78.9956 51.9143 77.9656 52.6574 76.241 53.234C74.852 53.6991 72.4356 54.2533 68.8128 54.2533C65.1901 54.2533 62.7746 53.6991 61.3847 53.234C59.6601 52.6565 58.6301 51.9143 58.6301 51.2477V46.011H58.6319Z" fill="#072B55"/>
</g>
<defs>
<clipPath id="clip0_4121_15890">
<rect width="27.6613" height="27.6613" fill="white" transform="translate(15.3677 26.9626)"/>
</clipPath>
<clipPath id="clip1_4121_15890">
<rect width="22.7603" height="30.7669" fill="white" transform="translate(57.4175 24.6513)"/>
</clipPath>
</defs>
</svg>
