<svg width="24" height="24" viewBox="0 0 24 24" fill="none" xmlns="http://www.w3.org/2000/svg">
<path fill-rule="evenodd" clip-rule="evenodd" d="M16.6593 4.80729C16.5125 4.73304 16.3348 4.65422 16.1225 4.5746C15.0271 4.16385 13.3883 3.87153 11.4861 3.87153C9.58388 3.87153 7.94512 4.16385 6.84977 4.5746C6.63744 4.65422 6.45968 4.73304 6.31291 4.80729C6.45968 4.88154 6.63744 4.96036 6.84977 5.03998C7.94512 5.45074 9.58388 5.74306 11.4861 5.74306C13.3883 5.74306 15.0271 5.45074 16.1225 5.03998C16.3348 4.96036 16.5125 4.88154 16.6593 4.80729ZM11.4861 7.61458C15.6206 7.61458 18.9722 6.35772 18.9722 4.80729C18.9722 3.25687 15.6206 2 11.4861 2C7.35165 2 4 3.25687 4 4.80729C4 6.35772 7.35165 7.61458 11.4861 7.61458Z" fill="#485159"/>
<path fill-rule="evenodd" clip-rule="evenodd" d="M4 4.80729V18.8438C4 20.3942 7.35165 21.651 11.4861 21.651C13.0201 21.651 14.4464 21.478 15.6337 21.1812C14.9391 20.8212 14.3575 20.2734 13.9561 19.6051C13.2097 19.7154 12.3768 19.7795 11.4861 19.7795C9.58388 19.7795 7.94512 19.4872 6.84977 19.0764C6.34287 18.8863 6.03295 18.7008 5.87153 18.5712V16.1467C6.1016 16.2359 6.34523 16.316 6.59724 16.3881C7.88756 16.7567 9.61573 16.9722 11.4861 16.9722C12.1434 16.9722 12.7832 16.9456 13.3926 16.8951C13.4872 16.1631 13.7697 15.4901 14.1902 14.926C13.3832 15.0367 12.4661 15.1007 11.4861 15.1007C9.73883 15.1007 8.19183 14.8972 7.11139 14.5885C6.5648 14.4324 6.1905 14.264 5.97433 14.118C5.92704 14.086 5.89401 14.0601 5.87153 14.0406V11.4679C6.1016 11.5571 6.34523 11.6372 6.59724 11.7092C7.88756 12.0779 9.61573 12.2934 11.4861 12.2934C13.3565 12.2934 15.0847 12.0779 16.375 11.7092C16.627 11.6372 16.8706 11.5571 17.1007 11.4679V13.2549C17.2543 13.2379 17.4104 13.2292 17.5686 13.2292C18.0607 13.2292 18.5332 13.3136 18.9722 13.4688V4.80729C18.9722 3.25687 15.6206 2 11.4861 2C7.35165 2 4 3.25687 4 4.80729ZM17.1007 5.07989C16.9393 4.9502 16.6294 4.76469 16.1225 4.5746C15.0271 4.16385 13.3883 3.87153 11.4861 3.87153C9.58388 3.87153 7.94512 4.16385 6.84977 4.5746C6.34287 4.76469 6.03295 4.9502 5.87153 5.07989V9.36173C5.89401 9.38129 5.92704 9.40722 5.97433 9.43916C6.1905 9.58519 6.5648 9.75355 7.11139 9.90971C8.19183 10.2184 9.73883 10.4219 11.4861 10.4219C13.2334 10.4219 14.7804 10.2184 15.8608 9.90971C16.4074 9.75355 16.7817 9.58519 16.9979 9.43916C17.0452 9.40722 17.0782 9.38129 17.1007 9.36173V5.07989ZM5.77592 18.4835C5.77514 18.4824 5.7745 18.4816 5.77403 18.481L5.77592 18.4835ZM17.1963 5.16757L17.1985 5.17018C17.1989 5.17077 17.1992 5.17106 17.1991 5.17106C17.1992 5.17106 17.1983 5.1699 17.1963 5.16757Z" fill="#485159"/>
<path fill-rule="evenodd" clip-rule="evenodd" d="M17.5686 20.7153C19.3774 20.7153 20.8438 19.2489 20.8438 17.4401C20.8438 15.6313 19.3774 14.1649 17.5686 14.1649C15.7597 14.1649 14.2934 15.6313 14.2934 17.4401C14.2934 19.2489 15.7597 20.7153 17.5686 20.7153ZM17.5686 16.5043L18.0365 15.5686H17.1007L16.1649 17.4401H17.5686L17.1007 19.3116L18.9722 16.5043H17.5686Z" fill="#485159"/>
</svg>
