<svg width="24" height="24" viewBox="0 0 24 24" fill="none" xmlns="http://www.w3.org/2000/svg">
<path d="M3.88928 5.82044C3.56932 5.39382 3.65578 4.78861 4.08239 4.46865L6.39974 2.73064C6.82635 2.41069 7.43156 2.49715 7.75152 2.92376C8.07148 3.35037 7.98502 3.95558 7.55841 4.27554L5.24107 6.01355C4.81446 6.33351 4.20924 6.24705 3.88928 5.82044Z" fill="currentColor"/>
<path d="M11.0344 8.91025C11.0344 8.37699 11.4667 7.94469 12 7.94469C12.5332 7.94469 12.9655 8.37699 12.9655 8.91025V12.8663L15.2083 14.8445C15.6083 15.1973 15.6465 15.8074 15.2938 16.2074C14.941 16.6073 14.3309 16.6455 13.9309 16.2928L11.0345 13.738L11.0344 8.91025Z" fill="currentColor"/>
<path fill-rule="evenodd" clip-rule="evenodd" d="M3.30994 12.7725C3.30994 17.5718 7.2007 21.4625 12 21.4625C16.7992 21.4625 20.69 17.5718 20.69 12.7725C20.69 7.97322 16.7992 4.08245 12 4.08245C7.2007 4.08245 3.30994 7.97322 3.30994 12.7725ZM5.04794 12.7725C5.04794 16.6119 8.16058 19.7245 12 19.7245C15.8394 19.7245 18.952 16.6119 18.952 12.7725C18.952 8.93309 15.8394 5.82046 12 5.82046C8.16058 5.82046 5.04794 8.93309 5.04794 12.7725Z" fill="currentColor"/>
<path d="M19.9176 4.46865C20.3442 4.78861 20.4306 5.39382 20.1107 5.82044C19.7907 6.24705 19.1855 6.33351 18.7589 6.01355L16.4415 4.27554C16.0149 3.95558 15.9285 3.35037 16.2484 2.92376C16.5684 2.49715 17.1736 2.41069 17.6002 2.73064L19.9176 4.46865Z" fill="currentColor"/>
</svg>
