<svg width="24" height="24" viewBox="0 0 24 24" fill="none" xmlns="http://www.w3.org/2000/svg">
<path d="M11.5546 2.00046C11.4396 1.99628 11.3253 2.02063 11.222 2.07133C11.1186 2.12203 11.0294 2.1975 10.9624 2.29102C10.8953 2.38455 10.8524 2.49321 10.8375 2.60734C10.8226 2.72147 10.8361 2.83751 10.877 2.94512C11.313 4.1443 11.3959 5.02071 11.1785 5.84179C10.9945 6.53694 10.5537 7.24409 9.82148 8.04994L9.37367 7.60214C8.96175 7.19022 8.3894 7.06594 7.87129 7.18158C7.35318 7.29722 6.88925 7.65367 6.69137 8.20163L2.04071 21.0727C1.99581 21.1973 1.9873 21.3321 2.01617 21.4613C2.04503 21.5906 2.11009 21.7089 2.20373 21.8026C2.29737 21.8962 2.41573 21.9613 2.54498 21.9901C2.67423 22.019 2.80902 22.0105 2.9336 21.9656L15.8056 17.3149V17.3158C16.9019 16.9207 17.2275 15.4577 16.4042 14.6335C16.4042 14.6332 16.4042 14.6329 16.4042 14.6326L15.9518 14.1803C16.7594 13.4457 17.4681 13.0039 18.1645 12.8196C18.9856 12.6022 19.862 12.6851 21.0612 13.1212C21.1474 13.1529 21.2391 13.1673 21.3309 13.1636C21.4227 13.1598 21.5129 13.138 21.5963 13.0992C21.6796 13.0605 21.7545 13.0057 21.8166 12.938C21.8787 12.8702 21.9268 12.7909 21.9582 12.7045C21.9895 12.6181 22.0035 12.5264 21.9993 12.4345C21.9951 12.3427 21.9728 12.2527 21.9336 12.1695C21.8945 12.0863 21.8393 12.0117 21.7713 11.95C21.7033 11.8882 21.6237 11.8405 21.5371 11.8095C20.8578 11.5625 20.2144 11.401 19.596 11.3399C18.9777 11.2788 18.3843 11.3178 17.8066 11.4707C16.804 11.7361 15.8946 12.3228 14.9581 13.1866L12.9661 11.1946C13.1699 11.1154 13.3784 11.1013 13.6819 11.0765C14.219 11.0326 15.0531 10.9258 15.7738 10.2054C16.4948 9.48437 16.6008 8.65085 16.6449 8.11353C16.6889 7.5762 16.6706 7.33549 17.1126 6.89364C17.5547 6.45175 17.7961 6.46997 18.3334 6.42585C18.8708 6.38172 19.7046 6.27491 20.4253 5.55385C20.526 5.45578 20.5948 5.32958 20.6225 5.19178C20.6503 5.05399 20.6358 4.91102 20.5809 4.78161C20.526 4.6522 20.4333 4.54239 20.3149 4.46656C20.1966 4.39074 20.0581 4.35243 19.9176 4.35667C19.7367 4.36218 19.5651 4.43774 19.4389 4.5674C18.997 5.00947 18.7563 4.99107 18.219 5.03519C17.6817 5.07931 16.8473 5.18642 16.1262 5.90719C15.4051 6.628 15.2992 7.46175 15.2551 7.99908C15.211 8.53641 15.2294 8.77688 14.7873 9.21896C14.3458 9.66028 14.1055 9.64195 13.5683 9.68585C13.1459 9.72036 12.5397 9.79806 11.9497 10.1782L10.8152 9.04366C11.6765 8.10871 12.2615 7.20069 12.5265 6.19967C12.8323 5.04422 12.6827 3.82784 12.1886 2.46916C12.1425 2.33621 12.0573 2.2203 11.9441 2.13666C11.831 2.05301 11.6952 2.00554 11.5546 2.00046ZM15.0208 2.93967C14.8707 2.93967 14.7203 2.99671 14.6057 3.11135L14.2623 3.4547C14.033 3.68397 14.033 4.05563 14.2623 4.28491L14.6057 4.62826C14.8349 4.85707 15.2066 4.85707 15.4359 4.62826L15.7792 4.28491C16.0085 4.05563 16.0085 3.68397 15.7792 3.4547L15.4359 3.11135C15.3212 2.99671 15.1709 2.93967 15.0208 2.93967ZM7.57972 4.33487C7.42962 4.33487 7.27925 4.39191 7.16461 4.50654L6.82126 4.84989C6.59198 5.07917 6.59198 5.45083 6.82126 5.68011L7.16461 6.02346C7.39389 6.25227 7.76555 6.25227 7.99482 6.02346L8.33817 5.68011C8.56745 5.45083 8.56745 5.07917 8.33817 4.84989L7.99482 4.50654C7.88018 4.39191 7.72982 4.33487 7.57972 4.33487ZM4.78932 6.42766C4.63922 6.42766 4.48886 6.4847 4.37422 6.59934L4.03087 6.94269C3.80159 7.17196 3.80159 7.54362 4.03087 7.7729L4.37422 8.11625C4.60349 8.34506 4.97515 8.34506 5.20443 8.11625L5.54778 7.7729C5.77706 7.54362 5.77706 7.17196 5.54778 6.94269L5.20443 6.59934C5.08979 6.4847 4.93942 6.42766 4.78932 6.42766ZM8.16831 8.50956C8.23828 8.49394 8.31642 8.5196 8.38631 8.58949C8.38662 8.58949 8.38692 8.58949 8.38722 8.58949L15.4177 15.62C15.557 15.7602 15.5183 15.9353 15.3323 16.0024C15.332 16.0027 15.3317 16.003 15.3314 16.0033L3.85738 20.1489L8.003 8.67487C8.03672 8.58151 8.09835 8.52518 8.16831 8.50956ZM19.2064 8.52046C19.0563 8.52046 18.9059 8.57749 18.7912 8.69213L18.4479 9.03548C18.2186 9.26476 18.2186 9.63642 18.4479 9.8657L18.7912 10.209C19.0205 10.4379 19.3922 10.4379 19.6215 10.209L19.9648 9.8657C20.1941 9.63642 20.1941 9.26476 19.9648 9.03548L19.6215 8.69213C19.5068 8.57749 19.3565 8.52046 19.2064 8.52046ZM19.2064 14.5663C19.0563 14.5663 18.9059 14.6233 18.7912 14.738L18.4479 15.0813C18.2186 15.3106 18.2186 15.6823 18.4479 15.9115L18.7912 16.2549C19.0205 16.4837 19.3922 16.4837 19.6215 16.2549L19.9648 15.9115C20.1941 15.6823 20.1941 15.3106 19.9648 15.0813L19.6215 14.738C19.5068 14.6233 19.3565 14.5663 19.2064 14.5663ZM17.8112 17.8218C17.6611 17.8218 17.5107 17.8788 17.396 17.9934L17.0527 18.3368C16.8234 18.5661 16.8234 18.9377 17.0527 19.167L17.396 19.5104C17.6253 19.7392 17.997 19.7392 18.2263 19.5104L18.5696 19.167C18.7989 18.9377 18.7989 18.5661 18.5696 18.3368L18.2263 17.9934C18.1116 17.8788 17.9613 17.8218 17.8112 17.8218Z" fill="currentColor"/>
</svg>
