<svg width="25" height="24" viewBox="0 0 25 24" fill="none" xmlns="http://www.w3.org/2000/svg">
<path d="M22.354 12C22.354 17.514 17.795 22 12.1913 22C6.5876 22 2.02863 17.514 2.02863 12C2.02863 6.486 6.5876 2 12.1913 2C17.795 2 22.354 6.486 22.354 12ZM12.1913 15C11.6298 15 11.175 15.4475 11.175 16C11.175 16.5525 11.6298 17 12.1913 17C12.7528 17 13.2076 16.5525 13.2076 16C13.2076 15.4475 12.7528 15 12.1913 15ZM12.9535 12.75V7.75C12.9535 7.336 12.6125 7 12.1913 7C11.7701 7 11.4291 7.336 11.4291 7.75V12.75C11.4291 13.164 11.7701 13.5 12.1913 13.5C12.6125 13.5 12.9535 13.164 12.9535 12.75Z" fill="currentColor"/>
</svg>
