<svg width="25" height="24" viewBox="0 0 25 24" fill="none" xmlns="http://www.w3.org/2000/svg">
<path d="M16.8023 2.0001C16.5911 2.00334 16.3899 2.08892 16.2429 2.23804C16.0958 2.38716 16.0149 2.58762 16.0179 2.7954V19.1975L13.6596 16.877C13.5862 16.8017 13.4982 16.7417 13.4009 16.7003C13.3036 16.6589 13.1989 16.637 13.0929 16.636C12.9869 16.6349 12.8817 16.6547 12.7836 16.6941C12.6854 16.7335 12.5962 16.7918 12.5213 16.8656C12.4463 16.9394 12.3871 17.0271 12.347 17.1237C12.3069 17.2203 12.2868 17.3237 12.2879 17.4281C12.289 17.5324 12.3112 17.6354 12.3533 17.7312C12.3953 17.8269 12.4564 17.9135 12.5328 17.9857L16.2514 21.6447C16.4008 21.7917 16.6034 21.8743 16.8147 21.8743C17.026 21.8743 17.2287 21.7917 17.3781 21.6447L21.0966 17.9857C21.1731 17.9135 21.2341 17.8269 21.2762 17.7312C21.3183 17.6354 21.3405 17.5324 21.3416 17.4281C21.3426 17.3237 21.3226 17.2203 21.2825 17.1237C21.2424 17.0271 21.1832 16.9394 21.1082 16.8656C21.0332 16.7918 20.9441 16.7335 20.8459 16.6941C20.7478 16.6547 20.6426 16.6349 20.5366 16.636C20.4306 16.637 20.3259 16.6589 20.2285 16.7003C20.1312 16.7417 20.0433 16.8017 19.9699 16.877L17.6116 19.1975V2.7954C17.6131 2.69045 17.5932 2.58628 17.5531 2.48904C17.5129 2.3918 17.4533 2.30348 17.3779 2.22932C17.3024 2.15515 17.2126 2.09665 17.1137 2.05727C17.0148 2.0179 16.9089 1.99846 16.8023 2.0001ZM5.3936 3.57946C4.95375 3.57946 4.59677 3.9302 4.59677 4.36353C4.59677 4.79686 4.95375 5.1476 5.3936 5.1476H7.6606L4.72231 9.69275C4.56614 9.93425 4.55613 10.2402 4.69637 10.4911C4.83555 10.742 5.10353 10.8974 5.39463 10.8974H9.11314C9.55299 10.8974 9.90997 10.5467 9.90997 10.1134C9.90997 9.68004 9.55299 9.3293 9.11314 9.3293H6.8451L9.78443 4.78415C9.9406 4.54266 9.9506 4.23669 9.81036 3.98579C9.67119 3.73489 9.40321 3.57946 9.11211 3.57946H5.3936ZM7.25285 13.511C6.92934 13.511 6.63788 13.7037 6.51517 13.998L4.1247 19.7478C3.95789 20.1487 4.15302 20.6062 4.56046 20.7698C4.9679 20.9349 5.43379 20.7424 5.60006 20.341L5.83143 19.7836H8.67427L8.90564 20.341C9.03207 20.6447 9.33041 20.829 9.64436 20.829C9.74476 20.829 9.84644 20.8105 9.94524 20.7708C10.3522 20.6072 10.5478 20.1487 10.381 19.7478L7.99053 13.998C7.86836 13.7032 7.57636 13.511 7.25285 13.511ZM7.25285 16.3655L8.02166 18.2154H6.48404L7.25285 16.3655Z" fill="currentColor"/>
</svg>
