<svg width="25" height="24" viewBox="0 0 25 24" fill="none" xmlns="http://www.w3.org/2000/svg">
<path d="M16.2129 2.0001C15.9946 2.00345 15.7867 2.0919 15.6347 2.24602C15.4827 2.40013 15.3991 2.60731 15.4022 2.82205V19.2336L12.9649 16.8353C12.889 16.7575 12.7981 16.6954 12.6975 16.6526C12.5969 16.6099 12.4887 16.5873 12.3791 16.5862C12.2696 16.5851 12.1609 16.6055 12.0595 16.6463C11.958 16.687 11.8659 16.7473 11.7884 16.8235C11.7109 16.8997 11.6497 16.9904 11.6083 17.0902C11.5669 17.1901 11.5461 17.297 11.5472 17.4048C11.5483 17.5126 11.5713 17.6191 11.6148 17.7181C11.6582 17.817 11.7213 17.9065 11.8004 17.9812L15.6435 21.7628C15.7979 21.9147 16.0074 22 16.2257 22C16.4441 22 16.6535 21.9147 16.808 21.7628L20.6511 17.9812C20.7301 17.9065 20.7932 17.817 20.8367 17.7181C20.8802 17.6191 20.9031 17.5126 20.9042 17.4048C20.9054 17.297 20.8846 17.1901 20.8432 17.0902C20.8018 16.9904 20.7405 16.8997 20.6631 16.8235C20.5856 16.7473 20.4934 16.687 20.392 16.6463C20.2906 16.6055 20.1819 16.5851 20.0723 16.5862C19.9628 16.5873 19.8545 16.6099 19.7539 16.6526C19.6534 16.6954 19.5625 16.7575 19.4866 16.8353L17.0493 19.2336V2.82205C17.0508 2.71359 17.0303 2.60592 16.9888 2.50543C16.9473 2.40493 16.8857 2.31365 16.8077 2.237C16.7297 2.16035 16.6369 2.09989 16.5347 2.05919C16.4325 2.0185 16.3231 1.9984 16.2129 2.0001ZM6.34344 3.09111C6.00908 3.09111 5.70731 3.28972 5.58103 3.59441L3.11046 9.53692C2.93807 9.95127 3.13973 10.4251 3.56082 10.5942C3.98192 10.7649 4.46342 10.5659 4.63526 10.151L4.87546 9.57385H7.81141L8.05161 10.151C8.18227 10.4649 8.49061 10.6543 8.81508 10.6543C8.91885 10.6543 9.02393 10.6358 9.12605 10.5942C9.54659 10.4251 9.7488 9.95127 9.57641 9.53692L7.10584 3.59441C6.97956 3.28972 6.67779 3.09111 6.34344 3.09111ZM6.34344 6.04232L7.13801 7.95316H5.54886L6.34344 6.04232ZM4.42188 13.3565C3.96729 13.3565 3.59835 13.719 3.59835 14.1668C3.59835 14.6147 3.96729 14.9772 4.42188 14.9772H6.76485L3.7281 19.6746C3.56669 19.9242 3.55635 20.2404 3.70129 20.4998C3.84514 20.7591 4.12209 20.9197 4.42295 20.9197H8.26606C8.72065 20.9197 9.08959 20.5572 9.08959 20.1094C9.08959 19.6615 8.72065 19.299 8.26606 19.299H5.92202L8.95984 14.6016C9.12125 14.352 9.13159 14.0358 8.98665 13.7764C8.84281 13.5171 8.56585 13.3565 8.26499 13.3565H4.42188Z" fill="currentColor"/>
</svg>
