<svg width="136" height="136" viewBox="0 0 136 136" fill="none" xmlns="http://www.w3.org/2000/svg">
<g clip-path="url(#clip0_1133_10353)">
<path d="M34.6667 65.8972L24.5115 67.5363C21.1464 68.0795 18.8588 71.2477 19.4019 74.6129L25.9582 115.233C26.5014 118.599 29.6697 120.886 33.0348 120.343L43.1899 118.704C46.555 118.161 48.8427 114.993 48.2995 111.627L41.7432 71.0069C41.2001 67.6418 38.0318 65.3541 34.6667 65.8972Z" fill="white"/>
<path d="M34.6668 65.8973L28.5737 66.8807C31.9388 66.3376 35.1071 68.6253 35.6503 71.9904L42.2066 112.611C42.7497 115.976 40.4621 119.144 37.097 119.687L43.19 118.704C46.5552 118.161 48.8428 114.993 48.2997 111.627L41.7433 71.0069C41.2002 67.6418 38.0319 65.3541 34.6668 65.8973Z" fill="white"/>
<path d="M112.373 82.5304L108.311 83.186C111.676 82.6429 114.844 84.9305 115.387 88.2956C115.93 91.6608 113.643 94.829 110.278 95.3722L106.216 96.0278C109.581 95.4847 112.749 97.7723 113.292 101.137C113.835 104.503 111.548 107.671 108.182 108.214L71.624 114.115C68.5244 114.665 65.3483 114.619 62.266 113.979C60.1478 113.508 58.1946 112.51 56.1143 111.887C53.9079 111.24 51.5845 111.095 49.3148 111.464L48.2993 111.628L41.7429 71.007C45.8767 70.3351 49.7306 68.4907 52.847 65.6929C59.425 59.8381 69.1645 49.5553 65.0239 39.1371C63.6247 35.6326 62.7464 32.1275 66.3076 29.5313C70.2594 26.6428 74.8315 28.7599 77.4093 31.949C86.0838 42.6982 77.2627 63.19 77.2627 63.19L106.408 58.4859C109.773 57.9427 112.941 60.2304 113.485 63.5955C114.028 66.9606 111.74 70.1289 108.375 70.672L110.406 70.3442C113.771 69.8011 116.939 72.0887 117.482 75.4538C118.026 78.819 115.738 81.9872 112.373 82.5304Z" fill="white"/>
<path d="M116.39 80.048C117.849 78.0246 117.947 75.3217 116.637 73.1984C115.328 71.0751 112.869 69.9488 110.406 70.3441L108.375 70.6719C111.74 70.1288 114.028 66.9605 113.485 63.5954C112.941 60.2303 109.773 57.9426 106.408 58.4857L100.315 59.4692C103.68 58.926 106.848 61.2137 107.392 64.5788C107.935 67.9439 105.647 71.1122 102.282 71.6553L104.313 71.3275C107.678 70.7844 110.846 73.072 111.389 76.4372C111.933 79.8023 109.645 82.9706 106.28 83.5137L102.218 84.1693C105.583 83.6262 108.751 85.9138 109.294 89.279C109.837 92.6441 107.55 95.8123 104.185 96.3555L100.123 97.0111C103.488 96.468 106.656 98.7556 107.199 102.121C107.742 105.486 105.455 108.654 102.09 109.197L108.183 108.214C111.548 107.671 113.835 104.502 113.292 101.137C112.749 97.7722 109.581 95.4845 106.216 96.0277L110.278 95.372C113.643 94.8289 115.931 91.6606 115.387 88.2955C114.844 84.9304 111.676 82.6427 108.311 83.1859L112.373 82.5302C113.989 82.2696 115.434 81.3764 116.39 80.048Z" fill="white"/>
<path d="M71.3166 32.9326C77.1048 40.1049 75.1033 51.6166 73.1291 58.4808C72.7676 59.7005 73.0574 61.0203 73.8966 61.9763C74.7358 62.9323 76.0069 63.3906 77.2631 63.1902C77.2631 63.1902 86.0842 42.6984 77.4097 31.9491C74.8497 28.78 70.3215 26.6767 66.3834 29.4818C68.3304 30.1237 70.0459 31.3237 71.3166 32.9326Z" fill="white"/>
<path d="M19.4019 74.6129L25.9582 115.233C26.5014 118.599 29.6697 120.886 33.0348 120.343L39.1279 119.36C35.7627 119.903 32.5945 117.615 32.0513 114.25L25.495 73.6294C24.9518 70.2643 27.2395 67.096 30.6046 66.5529L24.5115 67.5363C21.1464 68.0795 18.8588 71.2477 19.4019 74.6129Z" fill="white"/>
<path d="M21.3044 99.3132L25.3665 98.6576L27.989 114.906L23.927 115.561L21.3044 99.3132Z" fill="white"/>
<path d="M25.0152 109.134C23.8944 109.32 22.8345 108.563 22.6478 107.442C22.4612 106.322 23.2185 105.262 24.3393 105.075L24.3596 105.072C25.4813 104.891 26.5374 105.653 26.7184 106.775C26.8995 107.897 26.1369 108.953 25.0152 109.134Z" fill="url(#paint0_linear_1133_10353)"/>
<path d="M119.514 75.1262C119.043 72.2662 117.098 69.8667 114.398 68.8144C115.422 67.159 115.819 65.1909 115.516 63.2679C114.791 58.781 110.567 55.7308 106.08 56.455L80.4244 60.596C82.6246 54.0349 86.2146 39.5827 79.0094 30.6552C75.8404 26.7342 70.13 24.1882 65.0953 27.8683C59.8413 31.7005 62.0503 37.2394 63.1129 39.8979C65.829 46.7199 61.9186 54.8866 51.4862 64.156C49.0863 66.2821 46.2095 67.7986 43.0993 68.5772C41.5696 65.2166 37.9857 63.2895 34.3387 63.8665L24.1836 65.5056C19.6968 66.2298 16.6465 70.4542 17.3707 74.941L21.3045 99.3133C21.4856 100.435 22.5417 101.198 23.6634 101.017C24.7851 100.835 25.5476 99.7794 25.3666 98.6577L21.4328 74.2854C21.0707 72.042 22.5958 69.9298 24.8392 69.5677L34.9943 67.9286C37.2378 67.5665 39.3499 69.0916 39.712 71.335L46.2684 111.956C46.6305 114.199 45.1054 116.311 42.8619 116.673L32.7068 118.312C30.4634 118.674 28.3512 117.149 27.9891 114.906C27.8081 113.784 26.752 113.022 25.6303 113.203C24.5086 113.384 23.746 114.44 23.9271 115.562C24.6513 120.048 28.8756 123.099 33.3624 122.374L43.5176 120.735C47.1923 120.127 50.0005 117.127 50.3642 113.42C52.1034 113.232 53.8625 113.386 55.5428 113.872C56.3868 114.117 57.2074 114.437 58.029 114.75C59.2606 115.253 60.5261 115.669 61.8161 115.994C65.1546 116.686 68.5942 116.738 71.952 116.146L108.51 110.245C111.514 109.759 114.003 107.655 114.985 104.776C115.966 101.896 115.278 98.71 113.197 96.4913C115.445 95.2876 117.005 93.1052 117.416 90.5878C117.827 88.0705 117.041 85.5055 115.292 83.6495C118.384 82.0105 120.084 78.5793 119.514 75.1262ZM114.723 78.8441C114.087 79.7319 113.123 80.3281 112.045 80.4995L97.8279 82.7942C96.7062 82.9753 95.9437 84.0314 96.1247 85.1531C96.3058 86.2748 97.3619 87.0373 98.4836 86.8563L108.639 85.2172C110.882 84.8551 112.994 86.3802 113.356 88.6236C113.718 90.867 112.193 92.9792 109.95 93.3413L99.7948 94.9804C98.6731 95.1615 97.9106 96.2175 98.0916 97.3392C98.2727 98.461 99.3288 99.2235 100.45 99.0425L106.544 98.059C108.787 97.6969 110.899 99.222 111.261 101.465C111.623 103.709 110.098 105.821 107.855 106.183L71.2963 112.084C68.4621 112.592 65.557 112.558 62.7357 111.982C61.634 111.699 60.5531 111.34 59.501 110.908C58.5768 110.552 57.6491 110.202 56.7018 109.924C54.5308 109.3 52.2599 109.101 50.0134 109.336L44.0858 72.6109C47.8473 71.6569 51.323 69.8091 54.2176 67.2245C66.0817 56.6779 70.3603 46.9701 66.9335 38.3664C65.3523 34.4058 65.4939 32.6616 67.521 31.1862C70.8087 28.78 74.2799 31.3456 75.8081 33.235C83.5947 42.8856 75.4552 62.1774 75.372 62.3722C75.0726 63.0625 75.1739 63.8612 75.6362 64.4548C76.0986 65.0485 76.8481 65.3424 77.5907 65.2212L106.736 60.5171C108.979 60.155 111.092 61.6801 111.454 63.9235C111.816 66.1669 110.291 68.2791 108.047 68.6412L95.861 70.6081C94.7393 70.7891 93.9768 71.8452 94.1578 72.9669C94.3389 74.0886 95.395 74.8512 96.5167 74.6701L110.734 72.3754C112.376 72.1125 114.014 72.8634 114.887 74.2787C115.76 75.6939 115.695 77.4953 114.723 78.8441Z" fill="url(#paint1_linear_1133_10353)"/>
<path d="M105.576 49.5185C105.378 49.8854 105.042 50.1586 104.643 50.2779C104.243 50.3972 103.813 50.353 103.446 50.1548L89.6112 42.6838C89.2443 42.4857 88.9711 42.1499 88.8518 41.7503C88.7325 41.3508 88.7767 40.9202 88.9749 40.5532C89.173 40.1863 89.5088 39.9131 89.9084 39.7938C90.3079 39.6745 90.7385 39.7187 91.1054 39.9169L104.94 47.3879C105.307 47.5861 105.58 47.9218 105.699 48.3214C105.819 48.721 105.775 49.1516 105.576 49.5185Z" fill="url(#paint2_linear_1133_10353)"/>
<path d="M94.7584 13.2982C95.1253 13.4963 95.3985 13.8321 95.5178 14.2317C95.6372 14.6312 95.5929 15.0618 95.3947 15.4287L87.9237 29.2633C87.7256 29.6303 87.3898 29.9034 86.9902 30.0228C86.5907 30.1421 86.1601 30.0978 85.7932 29.8997C85.4262 29.7015 85.1531 29.3658 85.0337 28.9662C84.9144 28.5666 84.9587 28.136 85.1568 27.7691L92.6278 13.9345C92.826 13.5676 93.1618 13.2944 93.5613 13.1751C93.9609 13.0558 94.3915 13.1 94.7584 13.2982Z" fill="url(#paint3_linear_1133_10353)"/>
<path d="M87.7025 36.2922C87.429 36.1444 87.2054 35.9188 87.06 35.6439C86.9147 35.3691 86.8541 35.0573 86.8859 34.748C86.9177 34.4387 87.0405 34.1458 87.2387 33.9063C87.437 33.6668 87.7018 33.4914 87.9997 33.4024L109.305 27.0389C109.702 26.9278 110.127 26.977 110.488 27.1761C110.849 27.3751 111.118 27.708 111.236 28.103C111.354 28.498 111.312 28.9236 111.119 29.288C110.926 29.6525 110.598 29.9266 110.205 30.0515L88.8995 36.415C88.5 36.5344 88.0695 36.4902 87.7025 36.2922Z" fill="url(#paint4_linear_1133_10353)"/>
</g>
<defs>
<linearGradient id="paint0_linear_1133_10353" x1="22.974" y1="109.463" x2="26.3788" y2="104.735" gradientUnits="userSpaceOnUse">
<stop stop-color="#A03291"/>
<stop offset="1" stop-color="#FF7C66"/>
</linearGradient>
<linearGradient id="paint1_linear_1133_10353" x1="25.2388" y1="123.688" x2="96.7853" y2="10.7761" gradientUnits="userSpaceOnUse">
<stop stop-color="#A03291"/>
<stop offset="1" stop-color="#FF7C66"/>
</linearGradient>
<linearGradient id="paint2_linear_1133_10353" x1="104.829" y1="50.9019" x2="106.84" y2="45.033" gradientUnits="userSpaceOnUse">
<stop stop-color="#A03291"/>
<stop offset="1" stop-color="#FF7C66"/>
</linearGradient>
<linearGradient id="paint3_linear_1133_10353" x1="87.1766" y1="30.6468" x2="82.2769" y2="26.8418" gradientUnits="userSpaceOnUse">
<stop stop-color="#A03291"/>
<stop offset="1" stop-color="#FF7C66"/>
</linearGradient>
<linearGradient id="paint4_linear_1133_10353" x1="102.904" y1="44.5011" x2="95.275" y2="18.9609" gradientUnits="userSpaceOnUse">
<stop stop-color="#A03291"/>
<stop offset="1" stop-color="#FF7C66"/>
</linearGradient>
<clipPath id="clip0_1133_10353">
<rect width="106.334" height="110.132" fill="white" transform="translate(14.8328 12.9342)"/>
</clipPath>
</defs>
</svg>
