<svg width="25" height="24" viewBox="0 0 25 24" fill="none" xmlns="http://www.w3.org/2000/svg">
<path fill-rule="evenodd" clip-rule="evenodd" d="M8.22321 2.8689C8.22321 2.38902 7.83767 2 7.3621 2C6.88652 2 6.50099 2.38902 6.50099 2.8689V3.7378H4.77877C4.09362 3.7378 3.43654 4.01243 2.95207 4.50128C2.46761 4.99013 2.19543 5.65316 2.19543 6.34449V16.7713C2.19543 17.4626 2.46761 18.1256 2.95207 18.6145C3.43654 19.1033 4.09362 19.378 4.77877 19.378H11.906C11.7487 18.8251 11.6613 18.2423 11.6539 17.6402H4.77877C4.55038 17.6402 4.33136 17.5486 4.16987 17.3857C4.00838 17.2227 3.91765 17.0017 3.91765 16.7713V6.34449C3.91765 6.11405 4.00838 5.89304 4.16987 5.73009C4.33136 5.56714 4.55038 5.4756 4.77877 5.4756H6.50099V6.34449C6.50099 6.82437 6.88652 7.21339 7.3621 7.21339C7.83767 7.21339 8.22321 6.82437 8.22321 6.34449V5.4756H13.3899V6.34449C13.3899 6.82437 13.7754 7.21339 14.251 7.21339C14.7266 7.21339 15.1121 6.82437 15.1121 6.34449V5.4756H16.8343C17.0627 5.4756 17.2817 5.56714 17.4432 5.73009C17.6047 5.89304 17.6954 6.11405 17.6954 6.34449V10.9867C17.8562 10.9747 18.0187 10.9686 18.1825 10.9686C18.6048 10.9686 19.0177 11.0091 19.4176 11.0863V6.34449C19.4176 5.65315 19.1455 4.99013 18.661 4.50128C18.1765 4.01243 17.5195 3.7378 16.8343 3.7378H15.1121V2.8689C15.1121 2.38902 14.7266 2 14.251 2C13.7754 2 13.3899 2.38902 13.3899 2.8689V3.7378H8.22321V2.8689ZM6.50099 8.95119C6.02541 8.95119 5.63988 9.34021 5.63988 9.82009C5.63988 10.3 6.02541 10.689 6.50099 10.689H15.1121C15.5877 10.689 15.9732 10.3 15.9732 9.82009C15.9732 9.34021 15.5877 8.95119 15.1121 8.95119H6.50099ZM20.8083 20.6003C19.9201 21.4965 18.7154 22 17.4593 22C16.2032 22 14.9986 21.4965 14.1104 20.6003C13.2222 19.7041 12.7232 18.4885 12.7232 17.2211C12.7232 15.9536 13.2222 14.7381 14.1104 13.8418C14.9986 12.9456 16.2032 12.4421 17.4593 12.4421C18.7154 12.4421 19.9201 12.9456 20.8083 13.8418C21.6965 14.7381 22.1954 15.9536 22.1954 17.2211C22.1954 18.4885 21.6965 19.7041 20.8083 20.6003ZM17.8779 14.4092C17.989 14.5212 18.0513 14.6732 18.0513 14.8316V16.9737L19.5527 18.4881C19.6077 18.5436 19.6513 18.6095 19.6811 18.682C19.7109 18.7545 19.7262 18.8322 19.7262 18.9107C19.7262 18.9892 19.7109 19.0669 19.6811 19.1394C19.6513 19.212 19.6077 19.2778 19.5527 19.3333C19.4977 19.3889 19.4324 19.4329 19.3605 19.4629C19.2887 19.493 19.2116 19.5084 19.1338 19.5084C19.056 19.5084 18.979 19.493 18.9072 19.4629C18.8353 19.4329 18.77 19.3889 18.715 19.3333L17.0408 17.6434C16.9297 17.5314 16.8673 17.3795 16.8673 17.2211V14.8316C16.8673 14.6732 16.9297 14.5212 17.0407 14.4092C17.1517 14.2972 17.3023 14.2342 17.4593 14.2342C17.6163 14.2342 17.7669 14.2972 17.8779 14.4092Z" fill="currentColor"/>
</svg>
