<svg width="74px" height="24px" viewBox="0 0 75 24" fill="none" xmlns="http://www.w3.org/2000/svg">
    <rect x="0.5" width="74" height="24" rx="4" fill="#006CD6"/>
    <path d="M6.78577 14.0164L5.83337 8.90566L8.69053 10.95L12.5 6.86133L16.3096 10.95L19.1667 8.90566L18.2143 14.0164H6.78577Z" fill="currentColor"/>
    <path d="M18.2144 14.5656H6.78586V16.4704H18.2144V14.5656Z" fill="currentColor"/>
    <path d="M30.1543 7.46875H31.6191V13.1699C31.6191 13.8184 31.4785 14.3613 31.1973 14.7988C30.916 15.2363 30.5332 15.5664 30.0488 15.7891C29.5684 16.0078 29.0312 16.1172 28.4375 16.1172C27.8242 16.1172 27.2773 16.0078 26.7969 15.7891C26.3164 15.5664 25.9375 15.2363 25.6602 14.7988C25.3867 14.3613 25.25 13.8184 25.25 13.1699V7.46875H26.7148V13.1699C26.7148 13.5801 26.7852 13.918 26.9258 14.1836C27.0664 14.4453 27.2656 14.6387 27.5234 14.7637C27.7812 14.8887 28.0859 14.9512 28.4375 14.9512C28.7891 14.9512 29.0918 14.8887 29.3457 14.7637C29.6035 14.6387 29.8027 14.4453 29.9434 14.1836C30.084 13.918 30.1543 13.5801 30.1543 13.1699V7.46875ZM34.4961 10.8789V18.4375H33.084V9.66016H34.3848L34.4961 10.8789ZM38.627 12.7715V12.8945C38.627 13.3555 38.5723 13.7832 38.4629 14.1777C38.3574 14.5684 38.1992 14.9102 37.9883 15.2031C37.7812 15.4922 37.5254 15.7168 37.2207 15.877C36.916 16.0371 36.5645 16.1172 36.166 16.1172C35.7715 16.1172 35.4258 16.0449 35.1289 15.9004C34.8359 15.752 34.5879 15.543 34.3848 15.2734C34.1816 15.0039 34.0176 14.6875 33.8926 14.3242C33.7715 13.957 33.6855 13.5547 33.6348 13.1172V12.6426C33.6855 12.1777 33.7715 11.7559 33.8926 11.377C34.0176 10.998 34.1816 10.6719 34.3848 10.3984C34.5879 10.125 34.8359 9.91406 35.1289 9.76562C35.4219 9.61719 35.7637 9.54297 36.1543 9.54297C36.5527 9.54297 36.9062 9.62109 37.2148 9.77734C37.5234 9.92969 37.7832 10.1484 37.9941 10.4336C38.2051 10.7148 38.3633 11.0547 38.4688 11.4531C38.5742 11.8477 38.627 12.2871 38.627 12.7715ZM37.2148 12.8945V12.7715C37.2148 12.4785 37.1875 12.207 37.1328 11.957C37.0781 11.7031 36.9922 11.4805 36.875 11.2891C36.7578 11.0977 36.6074 10.9492 36.4238 10.8438C36.2441 10.7344 36.0273 10.6797 35.7734 10.6797C35.5234 10.6797 35.3086 10.7227 35.1289 10.8086C34.9492 10.8906 34.7988 11.0059 34.6777 11.1543C34.5566 11.3027 34.4629 11.4766 34.3965 11.6758C34.3301 11.8711 34.2832 12.084 34.2559 12.3145V13.4512C34.3027 13.7324 34.3828 13.9902 34.4961 14.2246C34.6094 14.459 34.7695 14.6465 34.9766 14.7871C35.1875 14.9238 35.457 14.9922 35.7852 14.9922C36.0391 14.9922 36.2559 14.9375 36.4355 14.8281C36.6152 14.7188 36.7617 14.5684 36.875 14.377C36.9922 14.1816 37.0781 13.957 37.1328 13.7031C37.1875 13.4492 37.2148 13.1797 37.2148 12.8945ZM43.8887 9.66016H45.1719V15.8242C45.1719 16.3945 45.0508 16.8789 44.8086 17.2773C44.5664 17.6758 44.2285 17.9785 43.7949 18.1855C43.3613 18.3965 42.8594 18.502 42.2891 18.502C42.0469 18.502 41.7773 18.4668 41.4805 18.3965C41.1875 18.3262 40.9023 18.2129 40.625 18.0566C40.3516 17.9043 40.123 17.7031 39.9395 17.4531L40.6016 16.6211C40.8281 16.8906 41.0781 17.0879 41.3516 17.2129C41.625 17.3379 41.9121 17.4004 42.2129 17.4004C42.5371 17.4004 42.8125 17.3398 43.0391 17.2188C43.2695 17.1016 43.4473 16.9277 43.5723 16.6973C43.6973 16.4668 43.7598 16.1855 43.7598 15.8535V11.0957L43.8887 9.66016ZM39.582 12.9004V12.7773C39.582 12.2969 39.6406 11.8594 39.7578 11.4648C39.875 11.0664 40.043 10.7246 40.2617 10.4395C40.4805 10.1504 40.7461 9.92969 41.0586 9.77734C41.3711 9.62109 41.7246 9.54297 42.1191 9.54297C42.5293 9.54297 42.8789 9.61719 43.168 9.76562C43.4609 9.91406 43.7051 10.127 43.9004 10.4043C44.0957 10.6777 44.248 11.0059 44.3574 11.3887C44.4707 11.7676 44.5547 12.1895 44.6094 12.6543V13.0469C44.5586 13.5 44.4727 13.9141 44.3516 14.2891C44.2305 14.6641 44.0703 14.9883 43.8711 15.2617C43.6719 15.5352 43.4258 15.7461 43.1328 15.8945C42.8438 16.043 42.502 16.1172 42.1074 16.1172C41.7207 16.1172 41.3711 16.0371 41.0586 15.877C40.75 15.7168 40.4844 15.4922 40.2617 15.2031C40.043 14.9141 39.875 14.5742 39.7578 14.1836C39.6406 13.7891 39.582 13.3613 39.582 12.9004ZM40.9941 12.7773V12.9004C40.9941 13.1895 41.0215 13.459 41.0762 13.709C41.1348 13.959 41.2227 14.1797 41.3398 14.3711C41.4609 14.5586 41.6133 14.707 41.7969 14.8164C41.9844 14.9219 42.2051 14.9746 42.459 14.9746C42.791 14.9746 43.0625 14.9043 43.2734 14.7637C43.4883 14.623 43.6523 14.4336 43.7656 14.1953C43.8828 13.9531 43.9648 13.6836 44.0117 13.3867V12.3262C43.9883 12.0957 43.9395 11.8809 43.8652 11.6816C43.7949 11.4824 43.6992 11.3086 43.5781 11.1602C43.457 11.0078 43.3047 10.8906 43.1211 10.8086C42.9375 10.7227 42.7207 10.6797 42.4707 10.6797C42.2168 10.6797 41.9961 10.7344 41.8086 10.8438C41.6211 10.9531 41.4668 11.1035 41.3457 11.2949C41.2285 11.4863 41.1406 11.709 41.082 11.9629C41.0234 12.2168 40.9941 12.4883 40.9941 12.7773ZM48.0547 10.8672V16H46.6426V9.66016H47.9902L48.0547 10.8672ZM49.9941 9.61914L49.9824 10.9316C49.8965 10.916 49.8027 10.9043 49.7012 10.8965C49.6035 10.8887 49.5059 10.8848 49.4082 10.8848C49.166 10.8848 48.9531 10.9199 48.7695 10.9902C48.5859 11.0566 48.4316 11.1543 48.3066 11.2832C48.1855 11.4082 48.0918 11.5605 48.0254 11.7402C47.959 11.9199 47.9199 12.1211 47.9082 12.3438L47.5859 12.3672C47.5859 11.9688 47.625 11.5996 47.7031 11.2598C47.7812 10.9199 47.8984 10.6211 48.0547 10.3633C48.2148 10.1055 48.4141 9.9043 48.6523 9.75977C48.8945 9.61523 49.1738 9.54297 49.4902 9.54297C49.5762 9.54297 49.668 9.55078 49.7656 9.56641C49.8672 9.58203 49.9434 9.59961 49.9941 9.61914ZM54.2422 14.7285V11.7051C54.2422 11.4785 54.2012 11.2832 54.1191 11.1191C54.0371 10.9551 53.9121 10.8281 53.7441 10.7383C53.5801 10.6484 53.373 10.6035 53.123 10.6035C52.8926 10.6035 52.6934 10.6426 52.5254 10.7207C52.3574 10.7988 52.2266 10.9043 52.1328 11.0371C52.0391 11.1699 51.9922 11.3203 51.9922 11.4883H50.5859C50.5859 11.2383 50.6465 10.9961 50.7676 10.7617C50.8887 10.5273 51.0645 10.3184 51.2949 10.1348C51.5254 9.95117 51.8008 9.80664 52.1211 9.70117C52.4414 9.5957 52.8008 9.54297 53.1992 9.54297C53.6758 9.54297 54.0977 9.62305 54.4648 9.7832C54.8359 9.94336 55.127 10.1855 55.3379 10.5098C55.5527 10.8301 55.6602 11.2324 55.6602 11.7168V14.5352C55.6602 14.8242 55.6797 15.084 55.7188 15.3145C55.7617 15.541 55.8223 15.7383 55.9004 15.9062V16H54.4531C54.3867 15.8477 54.334 15.6543 54.2949 15.4199C54.2598 15.1816 54.2422 14.9512 54.2422 14.7285ZM54.4473 12.1445L54.459 13.0176H53.4453C53.1836 13.0176 52.9531 13.043 52.7539 13.0938C52.5547 13.1406 52.3887 13.2109 52.2559 13.3047C52.123 13.3984 52.0234 13.5117 51.957 13.6445C51.8906 13.7773 51.8574 13.9277 51.8574 14.0957C51.8574 14.2637 51.8965 14.418 51.9746 14.5586C52.0527 14.6953 52.166 14.8027 52.3145 14.8809C52.4668 14.959 52.6504 14.998 52.8652 14.998C53.1543 14.998 53.4062 14.9395 53.6211 14.8223C53.8398 14.7012 54.0117 14.5547 54.1367 14.3828C54.2617 14.207 54.3281 14.041 54.3359 13.8848L54.793 14.5117C54.7461 14.6719 54.666 14.8438 54.5527 15.0273C54.4395 15.2109 54.291 15.3867 54.1074 15.5547C53.9277 15.7188 53.7109 15.8535 53.457 15.959C53.207 16.0645 52.918 16.1172 52.5898 16.1172C52.1758 16.1172 51.8066 16.0352 51.4824 15.8711C51.1582 15.7031 50.9043 15.4785 50.7207 15.1973C50.5371 14.9121 50.4453 14.5898 50.4453 14.2305C50.4453 13.8945 50.5078 13.5977 50.6328 13.3398C50.7617 13.0781 50.9492 12.8594 51.1953 12.6836C51.4453 12.5078 51.75 12.375 52.1094 12.2852C52.4688 12.1914 52.8789 12.1445 53.3398 12.1445H54.4473ZM61.0039 14.6875V7H62.4219V16H61.1387L61.0039 14.6875ZM56.8789 12.9004V12.7773C56.8789 12.2969 56.9355 11.8594 57.0488 11.4648C57.1621 11.0664 57.3262 10.7246 57.541 10.4395C57.7559 10.1504 58.0176 9.92969 58.3262 9.77734C58.6348 9.62109 58.9824 9.54297 59.3691 9.54297C59.752 9.54297 60.0879 9.61719 60.377 9.76562C60.666 9.91406 60.9121 10.127 61.1152 10.4043C61.3184 10.6777 61.4805 11.0059 61.6016 11.3887C61.7227 11.7676 61.8086 12.1895 61.8594 12.6543V13.0469C61.8086 13.5 61.7227 13.9141 61.6016 14.2891C61.4805 14.6641 61.3184 14.9883 61.1152 15.2617C60.9121 15.5352 60.6641 15.7461 60.3711 15.8945C60.082 16.043 59.7441 16.1172 59.3574 16.1172C58.9746 16.1172 58.6289 16.0371 58.3203 15.877C58.0156 15.7168 57.7559 15.4922 57.541 15.2031C57.3262 14.9141 57.1621 14.5742 57.0488 14.1836C56.9355 13.7891 56.8789 13.3613 56.8789 12.9004ZM58.291 12.7773V12.9004C58.291 13.1895 58.3164 13.459 58.3672 13.709C58.4219 13.959 58.5059 14.1797 58.6191 14.3711C58.7324 14.5586 58.8789 14.707 59.0586 14.8164C59.2422 14.9219 59.4609 14.9746 59.7148 14.9746C60.0352 14.9746 60.2988 14.9043 60.5059 14.7637C60.7129 14.623 60.875 14.4336 60.9922 14.1953C61.1133 13.9531 61.1953 13.6836 61.2383 13.3867V12.3262C61.2148 12.0957 61.166 11.8809 61.0918 11.6816C61.0215 11.4824 60.9258 11.3086 60.8047 11.1602C60.6836 11.0078 60.5332 10.8906 60.3535 10.8086C60.1777 10.7227 59.9688 10.6797 59.7266 10.6797C59.4688 10.6797 59.25 10.7344 59.0703 10.8438C58.8906 10.9531 58.7422 11.1035 58.625 11.2949C58.5117 11.4863 58.4277 11.709 58.373 11.9629C58.3184 12.2168 58.291 12.4883 58.291 12.7773ZM66.6934 16.1172C66.2246 16.1172 65.8008 16.041 65.4219 15.8887C65.0469 15.7324 64.7266 15.5156 64.4609 15.2383C64.1992 14.9609 63.998 14.6348 63.8574 14.2598C63.7168 13.8848 63.6465 13.4805 63.6465 13.0469V12.8125C63.6465 12.3164 63.7188 11.8672 63.8633 11.4648C64.0078 11.0625 64.209 10.7188 64.4668 10.4336C64.7246 10.1445 65.0293 9.92383 65.3809 9.77148C65.7324 9.61914 66.1133 9.54297 66.5234 9.54297C66.9766 9.54297 67.373 9.61914 67.7129 9.77148C68.0527 9.92383 68.334 10.1387 68.5566 10.416C68.7832 10.6895 68.9512 11.0156 69.0605 11.3945C69.1738 11.7734 69.2305 12.1914 69.2305 12.6484V13.252H64.332V12.2383H67.8359V12.127C67.8281 11.873 67.7773 11.6348 67.6836 11.4121C67.5938 11.1895 67.4551 11.0098 67.2676 10.873C67.0801 10.7363 66.8301 10.668 66.5176 10.668C66.2832 10.668 66.0742 10.7188 65.8906 10.8203C65.7109 10.918 65.5605 11.0605 65.4395 11.248C65.3184 11.4355 65.2246 11.6621 65.1582 11.9277C65.0957 12.1895 65.0645 12.4844 65.0645 12.8125V13.0469C65.0645 13.3242 65.1016 13.582 65.1758 13.8203C65.2539 14.0547 65.3672 14.2598 65.5156 14.4355C65.6641 14.6113 65.8438 14.75 66.0547 14.8516C66.2656 14.9492 66.5059 14.998 66.7754 14.998C67.1152 14.998 67.418 14.9297 67.6836 14.793C67.9492 14.6562 68.1797 14.4629 68.375 14.2129L69.1191 14.9336C68.9824 15.1328 68.8047 15.3242 68.5859 15.5078C68.3672 15.6875 68.0996 15.834 67.7832 15.9473C67.4707 16.0605 67.1074 16.1172 66.6934 16.1172Z" fill="currentColor"/>
</svg>