<svg width="308" height="245" viewBox="0 0 308 245" fill="none" xmlns="http://www.w3.org/2000/svg">
<g clip-path="url(#clip0_3018_207021)">
<path d="M37.9828 165.6C37.8816 168.294 36.9839 170.899 35.4033 173.083C33.8226 175.267 31.6301 176.932 29.1031 177.869C26.576 178.806 23.828 178.972 21.2066 178.346C18.5853 177.72 16.2084 176.331 14.3766 174.353C12.5449 172.375 11.3406 169.898 10.9161 167.235C10.4917 164.572 10.8661 161.843 11.9921 159.393C13.118 156.943 14.9449 154.882 17.2416 153.472C19.5383 152.061 22.2016 151.363 24.8945 151.467C28.4996 151.611 31.9005 153.179 34.3511 155.829C36.8017 158.478 38.1017 161.992 37.9661 165.6" fill="white"/>
<path d="M206.539 201.868C206.383 206.349 204.902 210.682 202.283 214.32C199.663 217.957 196.024 220.735 191.825 222.301C187.627 223.867 183.058 224.15 178.698 223.116C174.339 222.082 170.384 219.776 167.335 216.491C164.286 213.205 162.28 209.088 161.572 204.661C160.863 200.235 161.484 195.697 163.356 191.623C165.227 187.55 168.265 184.124 172.084 181.779C175.903 179.435 180.332 178.277 184.809 178.453V178.453C190.801 178.697 196.452 181.307 200.525 185.711C204.598 190.115 206.761 195.955 206.539 201.952V201.952" fill="white"/>
<path d="M228.504 208.39C228.359 212.241 227.076 215.963 224.817 219.084C222.558 222.206 219.424 224.587 215.813 225.926C212.201 227.266 208.273 227.504 204.527 226.61C200.78 225.716 197.382 223.73 194.764 220.904C192.145 218.078 190.423 214.538 189.815 210.733C189.206 206.927 189.74 203.026 191.348 199.524C192.955 196.022 195.565 193.075 198.846 191.057C202.127 189.039 205.933 188.04 209.782 188.186V188.186C212.339 188.283 214.851 188.883 217.176 189.952C219.5 191.021 221.592 192.537 223.33 194.415C225.069 196.293 226.421 198.495 227.308 200.896C228.196 203.296 228.602 205.849 228.504 208.406V208.406" fill="white"/>
<path d="M133.359 178.803C133.254 181.604 132.321 184.311 130.678 186.582C129.035 188.852 126.756 190.584 124.129 191.557C121.502 192.531 118.646 192.703 115.921 192.052C113.196 191.401 110.726 189.955 108.822 187.898C106.919 185.842 105.668 183.266 105.228 180.498C104.788 177.73 105.179 174.893 106.351 172.347C107.523 169.801 109.424 167.66 111.812 166.195C114.201 164.731 116.97 164.008 119.769 164.118C121.625 164.187 123.448 164.622 125.135 165.396C126.823 166.171 128.341 167.271 129.603 168.633C130.865 169.996 131.847 171.594 132.491 173.336C133.136 175.078 133.431 176.93 133.359 178.786V178.786" fill="white"/>
<path d="M102.768 192.718C102.721 193.954 102.309 195.148 101.584 196.15C100.858 197.151 99.8528 197.915 98.6938 198.345C97.5347 198.775 96.2744 198.851 95.0719 198.565C93.8695 198.278 92.7791 197.641 91.9383 196.734C91.0976 195.828 90.5443 194.692 90.3485 193.471C90.1527 192.25 90.323 190.998 90.838 189.874C91.3531 188.749 92.1896 187.803 93.242 187.154C94.2944 186.505 95.5154 186.183 96.7506 186.229V186.229C98.4061 186.294 99.968 187.014 101.093 188.231C102.218 189.448 102.815 191.062 102.752 192.718" fill="white"/>
<path d="M170.601 210.18C170.409 215.361 168.685 220.368 165.649 224.568C162.612 228.768 158.399 231.974 153.542 233.778C148.685 235.582 143.402 235.904 138.362 234.704C133.321 233.504 128.75 230.835 125.226 227.035C121.701 223.235 119.383 218.475 118.563 213.356C117.743 208.237 118.458 202.99 120.619 198.278C122.78 193.567 126.288 189.602 130.701 186.886C135.114 184.169 140.233 182.824 145.411 183.019V183.019C152.333 183.301 158.86 186.32 163.56 191.412C168.261 196.504 170.751 203.253 170.484 210.18V210.18" fill="white"/>
<path d="M108.302 208.762C108.11 213.943 106.387 218.95 103.35 223.15C100.314 227.351 96.1003 230.556 91.2431 232.36C86.3859 234.164 81.103 234.487 76.0627 233.286C71.0223 232.086 66.4509 229.417 62.9267 225.617C59.4025 221.817 57.0837 217.057 56.2637 211.938C55.4437 206.819 56.1594 201.572 58.3201 196.861C60.4808 192.149 63.9895 188.184 68.4024 185.468C72.8154 182.751 77.9343 181.406 83.1117 181.601V181.601C90.0337 181.883 96.561 184.902 101.262 189.994C105.962 195.086 108.452 201.835 108.185 208.762V208.762" fill="white"/>
<path d="M290.179 170.238C290.061 173.095 289.101 175.853 287.418 178.163C285.735 180.474 283.406 182.234 280.724 183.221C278.043 184.208 275.129 184.378 272.351 183.709C269.573 183.04 267.055 181.563 265.115 179.464C263.176 177.364 261.901 174.737 261.453 171.913C261.004 169.09 261.402 166.197 262.596 163.599C263.789 161.002 265.725 158.816 268.159 157.319C270.594 155.821 273.416 155.079 276.272 155.186C278.171 155.261 280.037 155.71 281.762 156.508C283.488 157.306 285.039 158.436 286.328 159.834C287.617 161.232 288.617 162.87 289.272 164.656C289.927 166.441 290.224 168.338 290.146 170.238V170.238" fill="white"/>
<path d="M255.007 195.589C254.77 202.064 252.62 208.323 248.827 213.574C245.034 218.826 239.77 222.834 233.7 225.091C227.63 227.348 221.027 227.752 214.728 226.253C208.428 224.754 202.714 221.419 198.309 216.67C193.904 211.921 191.006 205.971 189.982 199.573C188.958 193.176 189.854 186.618 192.556 180.73C195.258 174.841 199.645 169.887 205.162 166.495C210.678 163.102 217.077 161.423 223.548 161.67V161.67C227.843 161.832 232.065 162.839 235.971 164.634C239.877 166.429 243.391 168.977 246.313 172.131C249.235 175.286 251.506 178.986 252.998 183.019C254.49 187.053 255.172 191.341 255.007 195.639V195.639" fill="white"/>
<path d="M230.345 212.385C230.147 217.826 228.339 223.086 225.15 227.499C221.961 231.912 217.535 235.28 212.431 237.176C207.328 239.073 201.776 239.413 196.48 238.153C191.183 236.894 186.379 234.091 182.675 230.1C178.972 226.109 176.535 221.11 175.674 215.734C174.813 210.358 175.566 204.847 177.838 199.899C180.11 194.951 183.799 190.788 188.437 187.937C193.075 185.086 198.455 183.676 203.896 183.883C211.188 184.169 218.069 187.336 223.028 192.691C227.987 198.045 230.619 205.149 230.345 212.442V212.442" fill="white"/>
<path d="M291.07 198.874C290.78 206.497 288.237 213.863 283.763 220.04C279.289 226.217 273.085 230.928 265.935 233.576C258.786 236.225 251.011 236.693 243.596 234.92C236.18 233.148 229.457 229.215 224.275 223.619C219.094 218.023 215.688 211.015 214.487 203.482C213.286 195.948 214.345 188.228 217.53 181.297C220.715 174.366 225.882 168.535 232.379 164.543C238.876 160.551 246.41 158.576 254.028 158.868C264.241 159.264 273.878 163.7 280.823 171.202C287.769 178.703 291.454 188.656 291.07 198.874V198.874Z" fill="white"/>
<path d="M72.0801 202.704C71.9244 207.185 70.4431 211.518 67.8237 215.156C65.2043 218.793 61.5649 221.571 57.3664 223.137C53.1679 224.703 48.5993 224.986 44.2394 223.952C39.8796 222.918 35.9247 220.612 32.8758 217.327C29.8269 214.041 27.8212 209.924 27.1128 205.497C26.4044 201.071 27.0252 196.533 28.8966 192.459C30.7679 188.386 33.8056 184.96 37.6248 182.615C41.4439 180.27 45.8727 179.113 50.3499 179.289V179.289C53.3192 179.403 56.2368 180.102 58.9362 181.345C61.6355 182.588 64.0636 184.351 66.0816 186.533C68.0997 188.715 69.6681 191.274 70.6974 194.063C71.7266 196.852 72.1965 199.817 72.0801 202.788" fill="white"/>
<path d="M94.5105 185.11C94.2645 191.582 92.1058 197.836 88.3074 203.081C84.5089 208.325 79.2415 212.325 73.171 214.574C67.1006 216.824 60.4999 217.221 54.2036 215.717C47.9073 214.213 42.1983 210.874 37.7985 206.123C33.3986 201.372 30.5056 195.423 29.4853 189.026C28.465 182.63 29.3632 176.075 32.0663 170.19C34.7694 164.305 39.156 159.354 44.6715 155.963C50.1869 152.572 56.5833 150.894 63.0519 151.141C71.7239 151.476 79.9082 155.242 85.8068 161.611C91.7055 167.981 94.836 176.432 94.5105 185.11V185.11Z" fill="white"/>
<path d="M45.3681 193.739C45.196 198.215 43.701 202.54 41.0721 206.166C38.4433 209.792 34.7987 212.556 30.5994 214.109C26.4001 215.663 21.8347 215.935 17.4808 214.891C13.1269 213.848 9.18001 211.536 6.13945 208.248C3.09888 204.96 1.10122 200.844 0.399163 196.42C-0.302895 191.995 0.322188 187.462 2.19534 183.394C4.0685 179.325 7.10557 175.904 10.9224 173.562C14.7392 171.221 19.1643 170.065 23.6379 170.24C29.6331 170.475 35.2898 173.082 39.3645 177.489C43.4393 181.895 45.5987 187.74 45.3681 193.739V193.739Z" fill="white"/>
<path d="M199.249 196.223C199.077 200.699 197.582 205.024 194.953 208.65C192.324 212.276 188.68 215.04 184.48 216.594C180.281 218.147 175.716 218.419 171.362 217.376C167.008 216.332 163.061 214.021 160.02 210.733C156.98 207.445 154.982 203.328 154.28 198.904C153.578 194.48 154.203 189.947 156.076 185.878C157.949 181.809 160.986 178.388 164.803 176.047C168.62 173.705 173.045 172.549 177.519 172.724C183.514 172.959 189.171 175.567 193.245 179.973C197.32 184.379 199.479 190.224 199.249 196.223Z" fill="white"/>
<path d="M173.028 202.782C172.856 207.258 171.361 211.583 168.732 215.209C166.103 218.835 162.459 221.599 158.26 223.152C154.06 224.705 149.495 224.978 145.141 223.934C140.787 222.891 136.84 220.579 133.8 217.291C130.759 214.003 128.761 209.887 128.059 205.463C127.357 201.038 127.982 196.505 129.855 192.437C131.729 188.368 134.766 184.947 138.583 182.605C142.399 180.264 146.824 179.108 151.298 179.283C157.293 179.518 162.95 182.125 167.025 186.532C171.099 190.938 173.259 196.783 173.028 202.782Z" fill="white"/>
<path d="M145.699 199.95C145.45 206.422 143.289 212.674 139.488 217.917C135.688 223.159 130.419 227.156 124.349 229.403C118.278 231.65 111.678 232.045 105.383 230.539C99.088 229.033 93.3806 225.693 88.9824 220.941C84.5843 216.19 81.6929 210.24 80.6738 203.845C79.6548 197.449 80.5538 190.895 83.2573 185.011C85.9608 179.127 90.3473 174.177 95.8622 170.786C101.377 167.396 107.773 165.719 114.241 165.965V165.965C122.911 166.296 131.096 170.058 136.995 176.425C142.894 182.792 146.025 191.241 145.699 199.917V199.917" fill="white"/>
<g clip-path="url(#clip1_3018_207021)">
<path d="M151.73 80.7647L135.833 96.6624L110.055 70.8848C107.963 68.7863 106.789 65.944 106.789 62.9809C106.789 60.0178 107.963 57.1756 110.055 55.077L110.19 54.9423C112.289 52.8504 115.131 51.6758 118.094 51.6758C121.057 51.6758 123.899 52.8504 125.998 54.9423L151.73 80.7647Z" fill="#FFC493"/>
<path d="M128.546 57.5927L137.818 66.8652L121.909 82.7746L112.637 73.5021L128.546 57.5927Z" fill="#26114D"/>
<path d="M157.973 87.0079C160.081 89.1161 161.266 91.9754 161.266 94.9567C161.266 97.9381 160.081 100.797 157.973 102.906C155.865 105.014 153.006 106.198 150.024 106.198C147.043 106.198 144.184 105.014 142.075 102.906L135.833 96.6633L151.731 80.7656L157.973 87.0079Z" fill="#F9FAFB"/>
<path d="M132.6 176.644C132.599 174.632 132.994 172.64 133.763 170.782C134.532 168.923 135.66 167.235 137.083 165.813C138.505 164.39 140.194 163.262 142.052 162.493C143.911 161.724 145.902 161.329 147.914 161.33V161.33L152.45 153.875H186.85L175.667 180.73H132.645L132.6 176.644V176.644Z" fill="#26114D"/>
<path d="M253.494 176.644C253.495 174.632 253.1 172.64 252.331 170.782C251.562 168.923 250.434 167.235 249.011 165.813C247.589 164.39 245.901 163.262 244.042 162.493C242.184 161.724 240.192 161.329 238.18 161.33V161.33L233.645 153.875H199.289L210.472 180.73H253.494V176.644V176.644Z" fill="#26114D"/>
<path d="M149.844 86.1074H236.922V106.226H149.844V86.1074Z" fill="#F9FAFB"/>
<path d="M152.899 126.348C152.899 107.935 170.997 93.0254 193.317 93.0254C215.636 93.0254 233.734 107.935 233.734 126.348V139.102H152.899V126.348Z" fill="#AA87DC"/>
<path d="M233.645 153.878H152.504V139.014H233.645V153.878Z" fill="#26114D"/>
<path d="M182.311 109.236L152.492 139.056L166.683 139.101L196.682 109.146L182.311 109.236Z" fill="#514171"/>
<path d="M196.28 95.2715L152.494 139.057L166.685 139.102L210.65 95.1816L196.28 95.2715Z" fill="#514171"/>
<path d="M185.547 47.2637C164.664 47.2637 147.779 30.2433 147.779 9.31594V1.14258L150.698 1.2324C150.687 8.22765 153.452 14.9414 158.386 19.9005C163.319 24.8595 170.019 27.6586 177.014 27.6836H185.547" fill="#F9FAFB"/>
<path d="M166.237 64.957H220.262V79.5074H166.237V64.957Z" fill="#FFC493"/>
<path d="M169.782 77.9333C167.699 77.9333 166.01 76.2444 166.01 74.161C166.01 72.0776 167.699 70.3887 169.782 70.3887C171.866 70.3887 173.555 72.0776 173.555 74.161C173.555 76.2444 171.866 77.9333 169.782 77.9333Z" fill="#FFE1C9"/>
<path d="M177.373 68.7743C177.373 67.7738 176.976 66.8143 176.268 66.1068C175.561 65.3994 174.601 65.002 173.601 65.002C172.6 65.002 171.641 65.3994 170.933 66.1068C170.226 66.8143 169.828 67.7738 169.828 68.7743H177.373Z" fill="#26114D"/>
<path d="M198.705 68.7743C198.705 67.7738 198.308 66.8143 197.6 66.1068C196.893 65.3994 195.933 65.002 194.933 65.002C193.932 65.002 192.973 65.3994 192.265 66.1068C191.558 66.8143 191.16 67.7738 191.16 68.7743H198.705Z" fill="#26114D"/>
<path d="M222.012 53.1457C222.025 45.4947 219 38.1513 213.603 32.7285C208.206 27.3058 200.876 24.2472 193.225 24.2246C177.373 24.2246 164.439 37.2032 164.439 53.1457H222.012Z" fill="#26114D"/>
<path d="M178.359 53.1484H190.125V73.6268H178.359V53.1484Z" fill="#F9FAFB"/>
<path d="M195.92 79.508C195.92 77.9597 195.305 76.4747 194.21 75.3799C193.115 74.285 191.63 73.6699 190.082 73.6699C188.533 73.6699 187.048 74.285 185.954 75.3799C184.859 76.4747 184.244 77.9597 184.244 79.508H195.92Z" fill="#26114D"/>
<path d="M184.289 79.508C184.289 77.9597 183.674 76.4747 182.579 75.3799C181.484 74.285 179.999 73.6699 178.451 73.6699C176.903 73.6699 175.418 74.285 174.323 75.3799C173.228 76.4747 172.613 77.9597 172.613 79.508H184.289Z" fill="#26114D"/>
<path d="M198.704 77.9333C196.621 77.9333 194.932 76.2444 194.932 74.161C194.932 72.0776 196.621 70.3887 198.704 70.3887C200.788 70.3887 202.477 72.0776 202.477 74.161C202.477 76.2444 200.788 77.9333 198.704 77.9333Z" fill="#FFE1C9"/>
<path d="M160.578 109.506V64.3281H166.326V95.7192L160.578 109.506Z" fill="#26114D"/>
<path d="M164.396 79.0586C164.396 103.399 182.628 115.3 182.628 115.3C182.628 115.3 200.861 104.926 200.861 79.0586H164.396Z" fill="#26114D"/>
<path d="M213.792 67.4722V59.209H224.93V79.0586C224.93 100.749 209.616 109.417 209.616 109.417C209.616 109.417 194.302 99.4471 194.302 79.0586H202.206C203.729 79.0627 205.237 78.7659 206.645 78.1851C208.052 77.6043 209.331 76.751 210.408 75.6743C211.485 74.5975 212.338 73.3186 212.919 71.911C213.5 70.5034 213.797 68.9949 213.792 67.4722V67.4722Z" fill="#26114D"/>
<path d="M175.855 79.0586C175.855 100.749 160.542 109.417 160.542 109.417V79.0586H175.855Z" fill="#26114D"/>
<path d="M219.902 79.2363C219.902 79.2363 220.171 91.7658 210.112 101.825" stroke="#514171" stroke-width="1.85023" stroke-miterlimit="10"/>
<path d="M177.373 79.5078C177.373 81.3301 178.097 83.0778 179.386 84.3664C180.674 85.6549 182.422 86.3788 184.244 86.3788C186.067 86.3788 187.814 85.6549 189.103 84.3664C190.391 83.0778 191.115 81.3301 191.115 79.5078H177.373Z" fill="white"/>
<path d="M158.602 53.1484H227.852V64.9594H158.602V53.1484Z" fill="#F9FAFB"/>
<path d="M187.702 57.8613H202.297V60.2415H187.702V57.8613Z" fill="#26114D"/>
<path d="M166.325 57.8613H180.92V60.2415H166.325V57.8613Z" fill="#26114D"/>
<path d="M206.117 27.6836H214.829C218.294 27.6747 221.723 26.9835 224.92 25.6495C228.118 24.3154 231.022 22.3645 233.465 19.9083C235.909 17.4521 237.845 14.5386 239.163 11.3342C240.481 8.12976 241.154 4.69717 241.145 1.2324L244.064 1.14258V9.31594C244.064 30.2883 227.134 47.2637 206.296 47.2637V47.2188H206.117C203.526 47.2188 201.042 46.1897 199.21 44.3579C197.378 42.5261 196.349 40.0417 196.349 37.4512C196.349 34.8606 197.378 32.3762 199.21 30.5444C201.042 28.7126 203.526 27.6836 206.117 27.6836Z" fill="#F9FAFB"/>
<path fill-rule="evenodd" clip-rule="evenodd" d="M227.833 32.543C221.389 38.8112 213.263 42.2507 204.946 42.2507H196.234V44.1009H204.946C213.784 44.1009 222.364 40.4448 229.123 33.8692L227.833 32.543Z" fill="#514171"/>
<g filter="url(#filter0_d_3018_207021)">
<path d="M216.442 122.013L230.361 139.602L227.458 141.957C226.302 142.865 224.978 143.534 223.563 143.929C222.147 144.323 220.667 144.433 219.209 144.254C217.75 144.074 216.342 143.608 215.064 142.883C213.786 142.157 212.664 141.187 211.762 140.026L211.652 139.885C209.834 137.557 209.015 134.602 209.376 131.67C209.737 128.738 211.247 126.07 213.575 124.252L216.442 122.013Z" fill="#FFC493"/>
<path d="M216.516 121.959L226.852 113.889L240.723 131.653L230.388 139.724L216.516 121.959Z" fill="#26114D"/>
<path d="M240.688 131.612L226.75 113.89C226.75 113.89 225.716 107.143 225.716 105.78C225.716 104.418 248.092 106.08 248.092 106.08C248.092 106.08 251.256 113.597 250.544 119.083C249.703 125.556 244.435 127.553 240.688 131.612Z" fill="#FFC493"/>
</g>
<path d="M225.649 97.3795C225.649 94.3899 226.837 91.5229 228.951 89.4089C231.065 87.295 233.932 86.1074 236.921 86.1074C239.911 86.1074 242.778 87.295 244.892 89.4089C247.006 91.5229 248.193 94.3899 248.193 97.3795V106.226H225.703L225.658 97.3795H225.649Z" fill="#F9FAFB"/>
</g>
<g clip-path="url(#clip2_3018_207021)">
<path d="M31.8743 89.873H154.181C155.718 89.873 156.977 91.1186 156.977 92.6692V117.377C156.977 117.504 156.977 117.644 156.951 117.771C156.761 119.131 155.591 120.173 154.181 120.173H31.8743C30.4635 120.173 29.2942 119.131 29.1035 117.771C29.0908 117.644 29.0781 117.517 29.0781 117.377V92.6692C29.0781 91.1313 30.3237 89.873 31.8743 89.873Z" fill="#1AC9E6"/>
<path opacity="0.2" d="M29.1035 117.76H156.951C156.761 119.12 155.591 120.162 154.18 120.162H31.8742C30.4635 120.162 29.2942 119.12 29.1035 117.76Z" fill="white"/>
<g style="mix-blend-mode:multiply">
<path d="M29.1035 92.2752H156.951C156.761 90.9153 155.591 89.873 154.18 89.873H31.8742C30.4635 89.873 29.2942 90.9153 29.1035 92.2752Z" fill="#D1D3D4"/>
</g>
<path d="M101.41 94.5H37.4922V115.522H101.41V94.5Z" fill="#F7F7F7"/>
<path d="M44.7495 94.5H37.4922V115.522H44.7495V94.5Z" fill="#C0C7E2"/>
<path d="M53.5693 94.5H52.7559V115.522H53.5693V94.5Z" fill="#D9DADC"/>
<path d="M62.0205 94.5H61.207V115.522H62.0205V94.5Z" fill="#D9DADC"/>
<path d="M70.4736 94.5H69.6602V115.522H70.4736V94.5Z" fill="#D9DADC"/>
<path d="M78.9248 94.5H78.1113V115.522H78.9248V94.5Z" fill="#D9DADC"/>
<path d="M87.3759 94.5H86.5625V115.522H87.3759V94.5Z" fill="#D9DADC"/>
<path d="M132.688 113.386C137.314 113.386 141.064 109.636 141.064 105.011C141.064 100.385 137.314 96.6348 132.688 96.6348C128.062 96.6348 124.312 100.385 124.312 105.011C124.312 109.636 128.062 113.386 132.688 113.386Z" fill="#E2D4A7"/>
<path d="M132.689 111.938C136.514 111.938 139.615 108.836 139.615 105.011C139.615 101.185 136.514 98.084 132.689 98.084C128.863 98.084 125.762 101.185 125.762 105.011C125.762 108.836 128.863 111.938 132.689 111.938Z" fill="#323033"/>
<path d="M37.0227 150.459H159.354C160.892 150.459 162.151 151.705 162.151 153.255V177.963C162.151 178.09 162.151 178.23 162.125 178.357C161.934 179.717 160.765 180.759 159.354 180.759H37.0227C35.6119 180.759 34.4426 179.717 34.252 178.357C34.2393 178.23 34.2266 178.103 34.2266 177.963V153.255C34.2266 151.717 35.4848 150.459 37.0227 150.459Z" fill="#DB4CB2"/>
<path opacity="0.2" d="M34.252 178.355H162.125C161.934 179.715 160.765 180.758 159.354 180.758H37.0227C35.6119 180.758 34.4426 179.715 34.252 178.355Z" fill="white"/>
<g style="mix-blend-mode:multiply">
<path d="M34.252 152.861H162.125C161.934 151.501 160.765 150.459 159.354 150.459H37.0227C35.6119 150.459 34.4426 151.501 34.252 152.861Z" fill="#D1D3D4"/>
</g>
<path d="M106.584 155.096H42.6406V176.118H106.584V155.096Z" fill="#F7F7F7"/>
<path d="M49.9106 155.096H42.6406V176.118H49.9106V155.096Z" fill="#FBBEA9"/>
<path d="M58.7177 155.096H57.9043V176.118H58.7177V155.096Z" fill="#D9DADC"/>
<path d="M67.1826 155.096H66.3691V176.118H67.1826V155.096Z" fill="#D9DADC"/>
<path d="M75.6337 155.096H74.8203V176.118H75.6337V155.096Z" fill="#D9DADC"/>
<path d="M84.0869 155.096H83.2734V176.118H84.0869V155.096Z" fill="#D9DADC"/>
<path d="M92.538 155.096H91.7246V176.118H92.538V155.096Z" fill="#D9DADC"/>
<path d="M137.85 173.982C142.476 173.982 146.226 170.232 146.226 165.606C146.226 160.98 142.476 157.23 137.85 157.23C133.225 157.23 129.475 160.98 129.475 165.606C129.475 170.232 133.225 173.982 137.85 173.982Z" fill="#E2D4A7"/>
<path d="M137.851 158.68C141.676 158.68 144.777 161.781 144.777 165.607C144.777 169.432 141.676 172.533 137.851 172.533C134.025 172.533 130.924 169.432 130.924 165.607C130.924 161.781 134.025 158.68 137.851 158.68Z" fill="#323033"/>
<path d="M45.3977 120.158H167.729C169.267 120.158 170.526 121.404 170.526 122.954V147.662C170.526 147.789 170.526 147.929 170.5 148.056C170.309 149.416 169.14 150.458 167.729 150.458H45.3977C43.9869 150.458 42.8176 149.416 42.627 148.056C42.6143 147.929 42.6016 147.802 42.6016 147.662V122.954C42.6016 121.416 43.8598 120.158 45.3977 120.158Z" fill="#45CE31"/>
<path opacity="0.2" d="M42.627 148.055H170.5C170.309 149.415 169.14 150.457 167.729 150.457H45.3977C43.9869 150.457 42.8176 149.415 42.627 148.055Z" fill="white"/>
<g style="mix-blend-mode:multiply">
<path d="M42.627 122.56H170.5C170.309 121.2 169.14 120.158 167.729 120.158H45.3977C43.9869 120.158 42.8176 121.2 42.627 122.56Z" fill="#D1D3D4"/>
</g>
<path d="M114.959 124.795H51.0156V145.817H114.959V124.795Z" fill="#F7F7F7"/>
<path d="M58.2856 124.795H51.0156V145.817H58.2856V124.795Z" fill="#D7E2C0"/>
<path d="M67.0927 124.795H66.2793V145.817H67.0927V124.795Z" fill="#D9DADC"/>
<path d="M75.5576 124.795H74.7441V145.817H75.5576V124.795Z" fill="#D9DADC"/>
<path d="M84.0087 124.795H83.1953V145.817H84.0087V124.795Z" fill="#D9DADC"/>
<path d="M92.4619 124.795H91.6484V145.817H92.4619V124.795Z" fill="#D9DADC"/>
<path d="M100.913 124.795H100.1V145.817H100.913V124.795Z" fill="#D9DADC"/>
<path d="M146.225 143.681C150.851 143.681 154.601 139.931 154.601 135.305C154.601 130.68 150.851 126.93 146.225 126.93C141.6 126.93 137.85 130.68 137.85 135.305C137.85 139.931 141.6 143.681 146.225 143.681Z" fill="#E2D4A7"/>
<path d="M146.226 128.379C150.051 128.379 153.152 131.48 153.152 135.306C153.152 139.131 150.051 142.233 146.226 142.233C142.4 142.233 139.299 139.131 139.299 135.306C139.299 131.48 142.4 128.379 146.226 128.379Z" fill="#323033"/>
<path d="M139.348 90.0127L35.4578 90.2034C34.1487 90.2034 33.0811 89.1484 33.0811 87.8393L33.043 66.8555C33.043 66.7411 33.043 66.6267 33.0684 66.525C33.2209 65.3684 34.2123 64.4787 35.4197 64.4787L139.297 64.2754C140.491 64.2754 141.483 65.1651 141.648 66.309C141.661 66.4106 141.673 66.525 141.673 66.6394L141.712 87.6233C141.712 88.9324 140.657 90 139.348 90V90.0127Z" fill="#FFCE1F"/>
<path opacity="0.2" d="M141.647 66.309L33.0547 66.5123C33.2072 65.3557 34.1986 64.466 35.406 64.466L139.296 64.2754C140.49 64.2754 141.482 65.1651 141.647 66.309Z" fill="white"/>
<g style="mix-blend-mode:multiply">
<path d="M141.686 87.9561L33.0938 88.1467C33.259 89.3033 34.2503 90.193 35.4451 90.1803L139.335 89.9896C140.53 89.9896 141.521 89.0999 141.686 87.9434V87.9561Z" fill="#D1D3D4"/>
</g>
<path d="M134.525 68.2236L80.2285 68.3184L80.2597 86.1756L134.556 86.0808L134.525 68.2236Z" fill="#F7F7F7"/>
<path d="M134.526 68.2373L128.361 68.248L128.392 86.1053L134.557 86.0945L134.526 68.2373Z" fill="#FEF08F"/>
<path d="M121.559 68.2468L120.873 68.248L120.904 86.1053L121.591 86.1041L121.559 68.2468Z" fill="#D9DADC"/>
<path d="M114.378 68.2605L113.691 68.2617L113.723 86.1189L114.409 86.1177L114.378 68.2605Z" fill="#D9DADC"/>
<path d="M107.198 68.2703L106.512 68.2715L106.543 86.1287L107.229 86.1275L107.198 68.2703Z" fill="#D9DADC"/>
<path d="M100.016 68.2859L99.3301 68.2871L99.3612 86.1443L100.048 86.1431L100.016 68.2859Z" fill="#D9DADC"/>
<path d="M92.8484 68.2957L92.1621 68.2969L92.1933 86.1541L92.8796 86.1529L92.8484 68.2957Z" fill="#D9DADC"/>
<path d="M53.6946 84.4088C49.7673 84.4088 46.5772 81.2313 46.5645 77.304C46.5645 73.3767 49.7419 70.1865 53.6692 70.1738C57.5965 70.1738 60.7867 73.3513 60.7994 77.2786C60.7994 81.2059 57.622 84.3961 53.6946 84.4088Z" fill="#E2D4A7"/>
<path d="M59.3629 78.8255C60.2052 75.6865 58.3433 72.4591 55.2044 71.6169C52.0654 70.7746 48.838 72.6364 47.9957 75.7754C47.1535 78.9144 49.0153 82.1418 52.1543 82.984C55.2932 83.8263 58.5207 81.9644 59.3629 78.8255Z" fill="#323033"/>
</g>
<g filter="url(#filter1_d_3018_207021)">
<path d="M118.41 75.0166C121.494 75.0166 124.453 73.7911 126.634 71.6098C128.816 69.4285 130.041 66.47 130.041 63.3852C130.041 60.3004 128.816 57.3419 126.634 55.1606C124.453 52.9793 121.494 51.7539 118.41 51.7539V75.0166Z" fill="#FFC493"/>
</g>
<path d="M118.408 51.7539C115.329 51.7539 112.377 52.977 110.2 55.1541C108.022 57.3312 106.799 60.2839 106.799 63.3628C106.799 66.4416 108.022 69.3944 110.2 71.5715C112.377 73.7486 115.329 74.9716 118.408 74.9716V51.7539Z" fill="#FFC493"/>
<path d="M266.806 217.663C266.662 221.514 265.378 225.236 263.119 228.358C260.86 231.479 257.727 233.86 254.115 235.2C250.504 236.539 246.576 236.777 242.829 235.883C239.083 234.989 235.685 233.004 233.066 230.177C230.448 227.351 228.725 223.812 228.117 220.006C227.509 216.2 228.043 212.3 229.65 208.798C231.258 205.295 233.867 202.349 237.149 200.331C240.43 198.312 244.236 197.313 248.085 197.459V197.459C250.642 197.556 253.154 198.156 255.478 199.225C257.803 200.294 259.894 201.811 261.633 203.688C263.372 205.566 264.723 207.768 265.611 210.169C266.499 212.57 266.905 215.122 266.806 217.68V217.68" fill="white"/>
<path d="M156.546 202.078C156.442 204.88 155.509 207.587 153.866 209.857C152.223 212.127 149.944 213.859 147.317 214.833C144.69 215.807 141.833 215.979 139.108 215.327C136.384 214.676 133.913 213.23 132.01 211.174C130.107 209.117 128.856 206.542 128.416 203.773C127.976 201.005 128.367 198.168 129.539 195.622C130.711 193.076 132.611 190.936 135 189.471C137.388 188.006 140.157 187.283 142.957 187.394C144.812 187.463 146.636 187.897 148.323 188.672C150.01 189.447 151.529 190.546 152.791 191.909C154.053 193.271 155.034 194.869 155.679 196.611C156.323 198.353 156.618 200.205 156.546 202.062V202.062" fill="white"/>
<path d="M141.073 201.992C141.026 203.227 140.614 204.422 139.888 205.423C139.163 206.425 138.157 207.189 136.998 207.619C135.839 208.048 134.579 208.125 133.377 207.838C132.174 207.551 131.084 206.914 130.243 206.008C129.402 205.101 128.849 203.965 128.653 202.744C128.457 201.523 128.628 200.271 129.143 199.147C129.658 198.023 130.494 197.076 131.547 196.428C132.599 195.779 133.82 195.457 135.055 195.502V195.502C136.711 195.568 138.273 196.288 139.398 197.504C140.523 198.721 141.119 200.335 141.056 201.992" fill="white"/>
<path d="M185.786 207.905C185.594 213.085 183.871 218.092 180.834 222.293C177.798 226.493 173.585 229.698 168.727 231.502C163.87 233.307 158.587 233.629 153.547 232.429C148.507 231.229 143.935 228.56 140.411 224.76C136.887 220.96 134.568 216.199 133.748 211.081C132.928 205.962 133.644 200.715 135.804 196.003C137.965 191.291 141.474 187.327 145.887 184.61C150.3 181.894 155.419 180.548 160.596 180.743V180.743C167.518 181.026 174.045 184.044 178.746 189.136C183.446 194.228 185.936 200.978 185.669 207.905V207.905" fill="white"/>
<path d="M146.605 218.035C146.413 223.216 144.689 228.223 141.653 232.424C138.616 236.624 134.403 239.829 129.546 241.633C124.689 243.438 119.406 243.76 114.365 242.56C109.325 241.36 104.754 238.691 101.229 234.891C97.7052 231.091 95.3865 226.33 94.5665 221.211C93.7465 216.093 94.4621 210.846 96.6228 206.134C98.7835 201.422 102.292 197.457 106.705 194.741C111.118 192.025 116.237 190.679 121.414 190.874V190.874C128.336 191.157 134.864 194.175 139.564 199.267C144.265 204.359 146.755 211.109 146.488 218.035V218.035" fill="white"/>
<path d="M273.967 209.265C273.809 213.58 272.375 217.752 269.846 221.252C267.317 224.751 263.807 227.422 259.76 228.927C255.712 230.431 251.309 230.7 247.109 229.701C242.908 228.702 239.098 226.48 236.161 223.315C233.224 220.149 231.292 216.184 230.609 211.921C229.926 207.657 230.523 203.286 232.325 199.362C234.126 195.438 237.052 192.137 240.73 189.876C244.409 187.615 248.675 186.496 252.99 186.66V186.66C255.854 186.768 258.669 187.439 261.274 188.636C263.878 189.832 266.222 191.53 268.17 193.632C270.118 195.734 271.633 198.2 272.627 200.888C273.622 203.577 274.077 206.434 273.967 209.299V209.299" fill="white"/>
<path d="M264.927 189.965C264.783 193.766 263.514 197.44 261.281 200.521C259.049 203.601 255.953 205.951 252.385 207.272C248.817 208.593 244.937 208.826 241.237 207.942C237.536 207.058 234.181 205.096 231.595 202.305C229.01 199.514 227.31 196.019 226.711 192.262C226.112 188.505 226.64 184.655 228.229 181.198C229.819 177.741 232.397 174.834 235.639 172.842C238.881 170.851 242.641 169.866 246.443 170.012C251.539 170.21 256.348 172.422 259.814 176.163C263.28 179.904 265.119 184.868 264.927 189.965V189.965Z" fill="white"/>
<path d="M234.808 196.23C234.663 200.032 233.395 203.706 231.162 206.786C228.929 209.867 225.833 212.216 222.265 213.537C218.698 214.858 214.818 215.091 211.118 214.207C207.417 213.323 204.062 211.362 201.476 208.571C198.891 205.78 197.191 202.285 196.592 198.528C195.992 194.771 196.521 190.92 198.11 187.464C199.7 184.007 202.278 181.099 205.52 179.108C208.762 177.117 212.522 176.132 216.324 176.278C221.42 176.475 226.229 178.688 229.695 182.429C233.161 186.17 235 191.134 234.808 196.23V196.23Z" fill="white"/>
<path d="M110.383 211.977C110.227 216.458 108.746 220.792 106.126 224.429C103.507 228.066 99.8676 230.844 95.6691 232.41C91.4706 233.976 86.902 234.26 82.5422 233.225C78.1823 232.191 74.2274 229.885 71.1785 226.6C68.1296 223.315 66.1239 219.198 65.4155 214.771C64.7071 210.344 65.3279 205.806 67.1993 201.733C69.0707 197.659 72.1083 194.233 75.9275 191.888C79.7466 189.544 84.1754 188.386 88.6527 188.562V188.562C91.6219 188.677 94.5396 189.375 97.2389 190.618C99.9382 191.861 102.366 193.624 104.384 195.806C106.402 197.989 107.971 200.547 109 203.336C110.029 206.126 110.499 209.09 110.383 212.061" fill="white"/>
<path d="M97.3373 184.689C97.2464 187.305 96.3814 189.836 94.8521 191.959C93.3227 194.083 91.1977 195.705 88.7464 196.619C86.295 197.534 83.6275 197.699 81.0819 197.095C78.5364 196.492 76.2272 195.145 74.4471 193.227C72.6669 191.309 71.4958 188.905 71.0822 186.32C70.6686 183.736 71.0311 181.086 72.1237 178.708C73.2163 176.329 74.9899 174.329 77.2198 172.96C79.4497 171.591 82.0355 170.915 84.6497 171.018V171.018C86.3833 171.085 88.0869 171.493 89.6629 172.218C91.239 172.944 92.6566 173.973 93.8349 175.247C95.0132 176.522 95.929 178.016 96.5299 179.644C97.1309 181.273 97.4052 183.004 97.3373 184.738" fill="white"/>
<path d="M146.843 191.316C146.752 193.932 145.887 196.463 144.358 198.586C142.829 200.71 140.704 202.332 138.252 203.246C135.801 204.161 133.133 204.326 130.588 203.722C128.042 203.118 125.733 201.772 123.953 199.854C122.173 197.936 121.002 195.532 120.588 192.947C120.174 190.363 120.537 187.713 121.63 185.335C122.722 182.956 124.496 180.956 126.726 179.587C128.956 178.218 131.541 177.542 134.156 177.645V177.645C135.889 177.712 137.593 178.119 139.169 178.845C140.745 179.571 142.163 180.6 143.341 181.874C144.519 183.149 145.435 184.643 146.036 186.271C146.637 187.9 146.911 189.631 146.843 191.365" fill="white"/>
<path d="M81.4071 191.727C81.2351 196.203 79.7401 200.528 77.1112 204.154C74.4823 207.78 70.8378 210.544 66.6384 212.098C62.4391 213.651 57.8738 213.923 53.5199 212.88C49.1659 211.836 45.2191 209.525 42.1785 206.236C39.1379 202.948 37.1403 198.832 36.4382 194.408C35.7362 189.984 36.3613 185.451 38.2344 181.382C40.1076 177.313 43.1446 173.892 46.9615 171.55C50.7783 169.209 55.2034 168.053 59.677 168.228C65.6722 168.463 71.3288 171.071 75.4036 175.477C79.4783 179.883 81.6377 185.728 81.4071 191.727V191.727Z" fill="white"/>
<path d="M194.008 204.929C193.759 211.4 191.597 217.653 187.797 222.895C183.997 228.137 178.728 232.135 172.657 234.381C166.587 236.628 159.987 237.023 153.692 235.517C147.397 234.011 141.689 230.671 137.291 225.92C132.893 221.169 130.001 215.219 128.982 208.823C127.963 202.428 128.862 195.874 131.566 189.989C134.269 184.105 138.656 179.155 144.171 175.765C149.686 172.375 156.081 170.697 162.549 170.944V170.944C171.22 171.275 179.404 175.037 185.303 181.403C191.202 187.77 194.333 196.22 194.008 204.896V204.896" fill="white"/>
</g>
<defs>
<filter id="filter0_d_3018_207021" x="203.154" y="97.8728" width="57.4282" height="52.5044" filterUnits="userSpaceOnUse" color-interpolation-filters="sRGB">
<feFlood flood-opacity="0" result="BackgroundImageFix"/>
<feColorMatrix in="SourceAlpha" type="matrix" values="0 0 0 0 0 0 0 0 0 0 0 0 0 0 0 0 0 0 127 0" result="hardAlpha"/>
<feOffset/>
<feGaussianBlur stdDeviation="0.933706"/>
<feComposite in2="hardAlpha" operator="out"/>
<feColorMatrix type="matrix" values="0 0 0 0 0 0 0 0 0 0 0 0 0 0 0 0 0 0 0.21 0"/>
<feBlend mode="normal" in2="BackgroundImageFix" result="effect1_dropShadow_3018_207021"/>
<feBlend mode="normal" in="SourceGraphic" in2="effect1_dropShadow_3018_207021" result="shape"/>
</filter>
<filter id="filter1_d_3018_207021" x="118.41" y="51.7539" width="13.4983" height="25.1291" filterUnits="userSpaceOnUse" color-interpolation-filters="sRGB">
<feFlood flood-opacity="0" result="BackgroundImageFix"/>
<feColorMatrix in="SourceAlpha" type="matrix" values="0 0 0 0 0 0 0 0 0 0 0 0 0 0 0 0 0 0 127 0" result="hardAlpha"/>
<feOffset dx="0.933706" dy="0.933706"/>
<feGaussianBlur stdDeviation="0.466853"/>
<feComposite in2="hardAlpha" operator="out"/>
<feColorMatrix type="matrix" values="0 0 0 0 0 0 0 0 0 0 0 0 0 0 0 0 0 0 0.18 0"/>
<feBlend mode="normal" in2="BackgroundImageFix" result="effect1_dropShadow_3018_207021"/>
<feBlend mode="normal" in="SourceGraphic" in2="effect1_dropShadow_3018_207021" result="shape"/>
</filter>
<clipPath id="clip0_3018_207021">
<rect width="308" height="244" fill="white" transform="translate(0 0.349609)"/>
</clipPath>
<clipPath id="clip1_3018_207021">
<rect width="182.073" height="180.205" fill="white" transform="matrix(-1 0 0 1 253.576 0.554688)"/>
</clipPath>
<clipPath id="clip2_3018_207021">
<rect width="141.447" height="116.485" fill="white" transform="translate(29.0781 64.2754)"/>
</clipPath>
</defs>
</svg>
