<svg width="378" height="250" viewBox="0 0 378 250" fill="none" xmlns="http://www.w3.org/2000/svg">
<path d="M46.8025 160.507C46.6811 163.739 45.6042 166.863 43.708 169.483C41.8119 172.103 39.1817 174.102 36.1502 175.226C33.1187 176.35 29.8221 176.549 26.6775 175.798C23.5329 175.047 20.6815 173.38 18.4841 171.007C16.2867 168.634 14.8421 165.663 14.3329 162.468C13.8237 159.274 14.2729 156 15.6236 153.061C16.9743 150.122 19.1658 147.65 21.921 145.958C24.6761 144.265 27.8711 143.428 31.1016 143.553C35.4263 143.725 39.5061 145.607 42.4458 148.786C45.3856 151.964 46.9452 156.179 46.7824 160.507" fill="white"/>
<path d="M368.437 172.333C368.247 177.276 366.597 182.052 363.696 186.057C360.794 190.063 356.771 193.117 352.134 194.835C347.498 196.553 342.457 196.857 337.648 195.709C332.839 194.561 328.478 192.013 325.116 188.385C321.754 184.758 319.542 180.215 318.76 175.331C317.978 170.446 318.661 165.439 320.722 160.943C322.783 156.446 326.13 152.662 330.34 150.068C334.55 147.475 339.434 146.188 344.374 146.371V146.371C347.66 146.49 350.889 147.256 353.878 148.626C356.867 149.996 359.556 151.943 361.791 154.355C364.027 156.767 365.764 159.596 366.905 162.681C368.045 165.766 368.566 169.046 368.437 172.333" fill="white"/>
<path d="M376.898 195.968C376.708 200.911 375.058 205.687 372.157 209.692C369.255 213.697 365.231 216.752 360.595 218.47C355.959 220.188 350.918 220.492 346.109 219.344C341.299 218.196 336.938 215.647 333.577 212.02C330.215 208.393 328.003 203.85 327.221 198.965C326.439 194.081 327.122 189.074 329.183 184.577C331.244 180.081 334.591 176.297 338.801 173.703C343.011 171.109 347.895 169.823 352.835 170.005V170.005C359.467 170.256 365.727 173.132 370.24 178.001C374.752 182.87 377.147 189.332 376.898 195.968" fill="white"/>
<path d="M249.006 204.012C248.819 209.387 247.042 214.586 243.9 218.949C240.757 223.313 236.391 226.645 231.355 228.524C226.318 230.402 220.838 230.743 215.608 229.502C210.377 228.261 205.633 225.495 201.976 221.554C198.318 217.613 195.912 212.674 195.062 207.363C194.212 202.053 194.957 196.609 197.202 191.723C199.447 186.836 203.091 182.726 207.673 179.913C212.254 177.101 217.567 175.712 222.938 175.923V175.923C230.126 176.216 236.906 179.346 241.792 184.63C246.677 189.914 249.272 196.919 249.006 204.113V204.113" fill="white"/>
<path d="M275.355 211.838C275.182 216.458 273.642 220.922 270.932 224.667C268.222 228.412 264.463 231.268 260.131 232.875C255.798 234.482 251.087 234.767 246.592 233.695C242.098 232.622 238.022 230.24 234.88 226.85C231.739 223.46 229.673 219.213 228.943 214.648C228.214 210.083 228.854 205.404 230.782 201.202C232.711 197.001 235.841 193.466 239.778 191.045C243.714 188.624 248.28 187.425 252.897 187.601V187.601C255.964 187.717 258.978 188.437 261.766 189.719C264.555 191.001 267.064 192.821 269.149 195.073C271.235 197.326 272.857 199.968 273.921 202.848C274.986 205.728 275.474 208.789 275.355 211.858V211.858" fill="white"/>
<path d="M161.218 176.346C161.093 179.706 159.974 182.954 158.003 185.677C156.032 188.401 153.298 190.478 150.146 191.646C146.995 192.814 143.568 193.021 140.299 192.239C137.031 191.458 134.067 189.724 131.784 187.257C129.501 184.789 128 181.7 127.472 178.379C126.945 175.058 127.414 171.655 128.819 168.601C130.225 165.547 132.505 162.979 135.371 161.222C138.236 159.465 141.558 158.597 144.916 158.73C147.142 158.813 149.329 159.334 151.353 160.263C153.378 161.192 155.199 162.512 156.713 164.146C158.227 165.78 159.404 167.697 160.177 169.787C160.95 171.877 161.304 174.099 161.218 176.326V176.326" fill="white"/>
<path d="M124.523 193.038C124.466 194.52 123.972 195.953 123.102 197.154C122.232 198.356 121.026 199.272 119.635 199.788C118.245 200.304 116.733 200.395 115.29 200.051C113.848 199.707 112.54 198.943 111.531 197.856C110.523 196.768 109.859 195.406 109.624 193.941C109.389 192.476 109.593 190.974 110.211 189.625C110.829 188.277 111.833 187.141 113.095 186.363C114.358 185.585 115.822 185.199 117.304 185.253V185.253C119.29 185.331 121.164 186.195 122.514 187.655C123.863 189.115 124.579 191.051 124.503 193.038" fill="white"/>
<path d="M205.894 213.984C205.664 220.199 203.596 226.206 199.954 231.245C196.311 236.284 191.257 240.128 185.43 242.293C179.603 244.457 173.266 244.844 167.219 243.404C161.173 241.964 155.689 238.763 151.461 234.204C147.234 229.646 144.452 223.935 143.468 217.794C142.485 211.654 143.343 205.359 145.935 199.707C148.527 194.055 152.736 189.299 158.03 186.04C163.324 182.782 169.465 181.167 175.676 181.401V181.401C183.979 181.74 191.81 185.361 197.448 191.47C203.087 197.578 206.074 205.675 205.754 213.984V213.984" fill="white"/>
<path d="M131.16 212.285C130.929 218.5 128.862 224.506 125.219 229.545C121.577 234.584 116.522 238.429 110.696 240.594C104.869 242.758 98.5315 243.145 92.4851 241.705C86.4386 240.265 80.9547 237.064 76.7269 232.505C72.4992 227.946 69.7176 222.236 68.7339 216.095C67.7503 209.955 68.6087 203.66 71.2007 198.008C73.7927 192.356 78.0018 187.6 83.2957 184.341C88.5895 181.083 94.7303 179.468 100.941 179.702V179.702C109.245 180.041 117.075 183.662 122.714 189.771C128.353 195.879 131.34 203.976 131.02 212.285V212.285" fill="white"/>
<path d="M344.937 149.581C344.796 153.008 343.644 156.316 341.625 159.088C339.606 161.859 336.812 163.971 333.595 165.155C330.378 166.339 326.883 166.543 323.55 165.74C320.217 164.938 317.197 163.166 314.87 160.648C312.544 158.129 311.015 154.978 310.477 151.59C309.939 148.203 310.416 144.733 311.848 141.617C313.28 138.501 315.602 135.879 318.522 134.083C321.442 132.286 324.829 131.396 328.254 131.524C330.532 131.614 332.771 132.153 334.841 133.11C336.911 134.067 338.772 135.422 340.318 137.1C341.863 138.777 343.064 140.742 343.849 142.884C344.635 145.026 344.991 147.302 344.897 149.581V149.581" fill="white"/>
<path d="M370.542 138.646C370.471 139.699 370.091 140.708 369.45 141.547C368.809 142.386 367.935 143.018 366.938 143.363C365.94 143.708 364.863 143.752 363.841 143.489C362.819 143.226 361.897 142.667 361.19 141.883C360.483 141.099 360.023 140.124 359.866 139.08C359.71 138.035 359.864 136.968 360.309 136.011C360.755 135.054 361.472 134.249 362.372 133.697C363.272 133.145 364.314 132.871 365.369 132.908C366.812 132.991 368.165 133.639 369.133 134.714C370.102 135.788 370.608 137.201 370.542 138.646Z" fill="white"/>
<path d="M356.107 145.548C356.018 147.439 355.373 149.261 354.252 150.785C353.13 152.309 351.583 153.468 349.806 154.114C348.028 154.76 346.098 154.866 344.261 154.417C342.423 153.969 340.759 152.986 339.478 151.593C338.198 150.201 337.357 148.46 337.064 146.59C336.77 144.72 337.035 142.805 337.827 141.086C338.619 139.368 339.901 137.921 341.512 136.93C343.124 135.939 344.992 135.447 346.883 135.516V135.516C348.147 135.565 349.389 135.864 350.537 136.396C351.686 136.927 352.717 137.681 353.573 138.614C354.429 139.546 355.091 140.639 355.523 141.829C355.954 143.02 356.146 144.283 356.087 145.548V145.548" fill="white"/>
<path d="M327.59 184.933C327.307 192.7 324.727 200.209 320.177 206.508C315.627 212.808 309.312 217.616 302.03 220.324C294.749 223.031 286.828 223.517 279.271 221.718C271.713 219.92 264.859 215.919 259.575 210.222C254.291 204.525 250.814 197.387 249.586 189.712C248.357 182.038 249.432 174.171 252.673 167.107C255.915 160.044 261.177 154.101 267.795 150.031C274.413 145.961 282.089 143.947 289.852 144.243V144.243C295.005 144.437 300.069 145.645 304.755 147.799C309.441 149.952 313.656 153.008 317.161 156.793C320.666 160.577 323.391 165.015 325.18 169.854C326.97 174.693 327.789 179.837 327.59 184.993V184.993" fill="white"/>
<path d="M269.857 188.876C269.619 195.403 267.45 201.712 263.624 207.006C259.799 212.3 254.489 216.34 248.367 218.615C242.245 220.89 235.585 221.298 229.231 219.787C222.877 218.276 217.114 214.914 212.671 210.127C208.229 205.339 205.306 199.341 204.273 192.892C203.24 186.443 204.143 179.832 206.869 173.897C209.594 167.961 214.019 162.967 219.583 159.548C225.147 156.128 231.601 154.435 238.127 154.684C246.876 155.026 255.13 158.826 261.079 165.25C267.028 171.673 270.185 180.194 269.857 188.943V188.943" fill="white"/>
<path d="M350.41 200.423C350.062 209.567 347.012 218.403 341.645 225.813C336.278 233.223 328.835 238.874 320.258 242.052C311.681 245.229 302.355 245.79 293.459 243.664C284.564 241.538 276.498 236.819 270.282 230.106C264.067 223.393 259.98 214.986 258.54 205.949C257.1 196.912 258.37 187.651 262.191 179.336C266.011 171.022 272.21 164.028 280.004 159.238C287.797 154.449 296.835 152.08 305.975 152.43C318.225 152.906 329.786 158.227 338.118 167.226C346.45 176.225 350.871 188.164 350.41 200.423V200.423Z" fill="white"/>
<path d="M87.7069 205.016C87.5201 210.391 85.743 215.59 82.6008 219.953C79.4586 224.317 75.0926 227.649 70.056 229.528C65.0194 231.406 59.5389 231.747 54.3088 230.506C49.0786 229.265 44.3343 226.499 40.6767 222.558C37.0192 218.617 34.6131 213.678 33.7633 208.367C32.9136 203.057 33.6583 197.613 35.9032 192.727C38.1481 187.84 41.7922 183.73 46.3737 180.917C50.9552 178.105 56.268 176.716 61.639 176.927V176.927C65.201 177.064 68.701 177.902 71.9392 179.393C75.1773 180.884 78.0901 182.999 80.511 185.617C82.9319 188.235 84.8134 191.305 86.0481 194.65C87.2828 197.996 87.8465 201.553 87.7069 205.117" fill="white"/>
<path d="M114.617 183.911C114.322 191.675 111.732 199.177 107.176 205.469C102.619 211.76 96.3002 216.559 89.018 219.257C81.7358 221.955 73.8175 222.432 66.2644 220.628C58.7112 218.823 51.8626 214.818 46.5845 209.119C41.3064 203.419 37.8359 196.282 36.6119 188.609C35.3879 180.937 36.4654 173.073 39.7081 166.013C42.9508 158.953 48.2131 153.014 54.8294 148.946C61.4458 144.878 69.1191 142.865 76.8789 143.161C87.2819 143.563 97.1 148.081 104.176 155.722C111.252 163.362 115.008 173.501 114.617 183.911V183.911Z" fill="white"/>
<path d="M55.6622 194.263C55.4558 199.633 53.6623 204.821 50.5087 209.171C47.3551 213.52 42.983 216.837 37.9454 218.7C32.9079 220.563 27.4312 220.89 22.2082 219.638C16.9851 218.386 12.2504 215.613 8.60291 211.669C4.9554 207.724 2.55898 202.786 1.71678 197.479C0.874579 192.172 1.62444 186.734 3.8715 181.853C6.11857 176.972 9.76189 172.868 14.3406 170.059C18.9193 167.25 24.2277 165.863 29.5943 166.074C36.7863 166.355 43.5721 169.483 48.4602 174.769C53.3483 180.055 55.9388 187.067 55.6622 194.263V194.263Z" fill="white"/>
<path d="M337.338 196.119C337.252 198.2 336.551 200.209 335.324 201.892C334.097 203.575 332.399 204.857 330.443 205.576C328.488 206.295 326.363 206.419 324.337 205.932C322.311 205.445 320.476 204.369 319.061 202.839C317.647 201.31 316.717 199.396 316.39 197.339C316.063 195.283 316.353 193.175 317.224 191.283C318.094 189.39 319.506 187.798 321.281 186.708C323.056 185.617 325.114 185.076 327.196 185.154C328.581 185.209 329.942 185.536 331.2 186.117C332.459 186.698 333.59 187.521 334.529 188.54C335.469 189.558 336.199 190.752 336.676 192.052C337.154 193.353 337.37 194.735 337.313 196.119V196.119" fill="white"/>
<path d="M235.475 191.642C235.268 197.012 233.475 202.2 230.321 206.549C227.168 210.899 222.795 214.216 217.758 216.079C212.72 217.942 207.244 218.269 202.021 217.017C196.798 215.765 192.063 212.992 188.415 209.048C184.768 205.103 182.371 200.165 181.529 194.858C180.687 189.551 181.437 184.113 183.684 179.232C185.931 174.351 189.574 170.247 194.153 167.438C198.732 164.629 204.04 163.242 209.407 163.452C216.599 163.734 223.385 166.862 228.273 172.148C233.161 177.434 235.751 184.446 235.475 191.642Z" fill="white"/>
<path d="M208.807 205.111C208.6 210.48 206.807 215.668 203.653 220.018C200.5 224.368 196.128 227.684 191.09 229.548C186.052 231.411 180.576 231.737 175.353 230.486C170.13 229.234 165.395 226.461 161.747 222.516C158.1 218.572 155.704 213.634 154.861 208.327C154.019 203.019 154.769 197.581 157.016 192.7C159.263 187.82 162.906 183.715 167.485 180.907C172.064 178.098 177.372 176.711 182.739 176.921C189.931 177.203 196.717 180.331 201.605 185.617C206.493 190.903 209.083 197.914 208.807 205.111Z" fill="white"/>
<path d="M194.688 205.815C194.344 214.756 191.358 223.394 186.107 230.637C180.857 237.88 173.578 243.403 165.191 246.507C156.803 249.611 147.685 250.157 138.988 248.076C130.29 245.995 122.405 241.381 116.328 234.816C110.252 228.252 106.257 220.032 104.849 211.196C103.441 202.36 104.683 193.304 108.418 185.175C112.154 177.045 118.214 170.206 125.833 165.522C133.453 160.838 142.289 158.52 151.225 158.861V158.861C163.204 159.318 174.512 164.516 182.662 173.312C190.812 182.108 195.138 193.783 194.688 205.769V205.769" fill="white"/>
<path d="M169.263 84.4007C163.067 84.4007 158.08 89.4356 158.08 95.584C158.08 101.732 163.115 106.767 169.263 106.767H178.074V84.207L169.263 84.4007Z" fill="#F9FAFB"/>
<path d="M178.413 170.963C176.671 162.733 168.586 157.456 160.355 159.199C160.307 159.199 160.307 159.199 160.259 159.199L157.16 144.627L130.098 150.34L134.261 169.995L137.214 183.841L164.277 178.128L179.285 174.885L178.413 170.963Z" fill="#26114D"/>
<path d="M124.386 155.034L120.9 151.549L110.83 141.527L91.2717 161.086L80.3789 171.979L83.2352 174.835C89.19 180.838 98.8725 180.838 104.876 174.884L104.924 174.835L105.263 175.174C108.458 178.369 112.815 180.161 117.318 180.112C121.82 180.112 126.177 178.321 129.372 175.174L149.415 155.131L124.386 155.034Z" fill="#3C295F"/>
<path d="M163.26 85.0781H92.0449V138.041H163.26V85.0781Z" fill="#F9FAFB"/>
<path d="M169.263 84.4007C163.067 84.4007 158.08 89.4356 158.08 95.584C158.08 101.732 163.115 106.767 169.263 106.767H178.074V84.207L169.263 84.4007Z" fill="#F9FAFB"/>
<path d="M99.8902 104.298C104.296 99.8928 104.296 92.7761 99.8902 88.3706C95.4846 83.965 88.368 83.965 83.9624 88.3706L77.7656 94.6158L93.6934 110.544L99.8902 104.298Z" fill="#F9FAFB"/>
<path opacity="0.15" d="M104.634 199.526C126.639 199.526 144.477 197.359 144.477 194.685C144.477 192.011 126.639 189.844 104.634 189.844C82.6294 189.844 64.791 192.011 64.791 194.685C64.791 197.359 82.6294 199.526 104.634 199.526Z" fill="black"/>
<path d="M139.83 46.4458C160.696 46.4458 177.64 29.4529 177.64 8.4419V0.308594L174.687 0.453829C174.736 14.9776 162.971 26.7903 148.448 26.8387C148.399 26.8387 148.399 26.8387 148.351 26.8387H139.83" fill="#F9FAFB"/>
<path d="M103.375 52.3526C103.375 36.3765 116.253 23.3535 132.18 23.3535C148.108 23.4019 161.034 36.3281 160.986 52.2558C160.986 52.3042 160.986 52.3042 160.986 52.3526H103.375V52.3526Z" fill="#26114D"/>
<path d="M137.65 57.0488H123.029V59.421H137.65V57.0488Z" fill="#26114D"/>
<path d="M159.097 57.0488H144.477V59.421H159.097V57.0488Z" fill="#26114D"/>
<path d="M114.509 30.034H105.891C91.319 30.034 79.5547 18.2213 79.5547 3.64915L76.6016 3.50391V11.6856C76.6016 32.5998 93.546 49.6895 114.412 49.6895V49.6411H114.557C119.979 49.6411 124.336 45.2355 124.336 39.8133C124.336 34.3911 119.931 30.034 114.509 30.034Z" fill="#F9FAFB"/>
<path d="M124.432 45.4749H115.718C107.101 45.4749 98.7736 41.9408 92.1895 35.502" stroke="#514171" stroke-width="1.84984" stroke-miterlimit="10"/>
<path d="M163.26 114.223L116.93 114.126V52.3516H163.26V114.223Z" fill="#26114D"/>
<path d="M179.286 156.004H90.4492L105.021 109.286L161.567 109.141L179.286 156.004Z" fill="#6254B8"/>
<path d="M133.342 153.438C150.534 153.438 164.471 139.501 164.471 122.309C164.471 105.117 150.534 91.1797 133.342 91.1797C116.15 91.1797 102.213 105.117 102.213 122.309C102.213 139.501 116.15 153.438 133.342 153.438Z" fill="#6254B8"/>
<path d="M107.585 84.3535L179.284 156.198L165.099 156.246L104.1 95.1495L107.585 84.3535Z" fill="#514171"/>
<path d="M179.286 156.003H90.4492L94.4675 143.222L174.397 143.174L179.286 156.003Z" fill="#26114D"/>
<path d="M157.547 52.9805H107.73V68.182C107.73 80.8661 117.994 91.1296 130.63 91.178H134.599C147.284 91.178 157.547 80.9145 157.547 68.2304V52.9805V52.9805Z" fill="#FDC396"/>
<path d="M125.255 80.0437C127.18 80.0437 128.741 78.4831 128.741 76.558C128.741 74.6329 127.18 73.0723 125.255 73.0723C123.33 73.0723 121.77 74.6329 121.77 76.558C121.77 78.4831 123.33 80.0437 125.255 80.0437Z" fill="#FEE1CA"/>
<path d="M151.833 80.0437C153.758 80.0437 155.319 78.4831 155.319 76.558C155.319 74.6329 153.758 73.0723 151.833 73.0723C149.908 73.0723 148.348 74.6329 148.348 76.558C148.348 78.4831 149.908 80.0437 151.833 80.0437Z" fill="#FEE1CA"/>
<path d="M144.913 80.1895C144.913 83.6752 142.056 86.5315 138.571 86.5315C135.085 86.5315 132.229 83.6752 132.229 80.1895H144.913Z" fill="white"/>
<path d="M121.577 104.928L99.791 104.879V52.3516H121.577V104.928Z" fill="#26114D"/>
<path d="M145.736 70.3622C145.736 67.9415 147.721 65.9082 150.142 65.9082C152.514 65.9082 154.451 67.7479 154.596 70.1201V70.3622H145.736Z" fill="#26114D"/>
<path d="M124.338 70.3622C124.338 67.9415 126.323 65.9082 128.743 65.9082C131.116 65.9082 133.052 67.7479 133.197 70.1201V70.3622H124.338Z" fill="#26114D"/>
<path d="M166.796 52.3516H97.5176V64.1158H166.796V52.3516Z" fill="#F9FAFB"/>
<path d="M145.735 52.3516H133.971V72.8301H145.735V52.3516Z" fill="#F9FAFB"/>
<path d="M158.226 57.291H145.881V59.2759H158.226V57.291Z" fill="#26114D"/>
<path d="M137.554 57.291H125.209V59.2759H137.554V57.291Z" fill="#26114D"/>
<path d="M77.8116 126.424L93.7394 110.496L77.8116 94.5684C69.049 103.283 69.0006 117.467 77.6664 126.279L77.8116 126.424Z" fill="#FFC494"/>
<path d="M157.519 88.4406L131.354 84.7285L121.578 153.633L147.744 157.345L157.519 88.4406Z" fill="#176BA0"/>
<path d="M153.669 87.8937L127.504 84.1816L117.729 153.086L143.894 156.798L153.669 87.8937Z" fill="#1AC9E6"/>
<path d="M177.864 38.8503L149.121 134.619L174.477 142.04L203.219 46.2711L177.864 38.8503Z" fill="#B41D88"/>
<path d="M174.125 37.757L147.045 134.117L172.401 141.538L199.48 45.1778L174.125 37.757Z" fill="#DB4CB2"/>
<path d="M121.577 94.7753L95.875 100.926L108.598 154.092L134.3 147.941L121.577 94.7753Z" fill="#AC8704"/>
<path d="M117.796 95.6796L92.0938 101.83L104.817 154.996L130.518 148.846L117.796 95.6796Z" fill="#FFCE1F"/>
<path d="M200.11 81.1468L182.078 94.644L189.26 106.074C189.26 106.074 196.193 115.83 205.337 110.343C214.481 104.855 207.599 91.1436 200.11 81.1468Z" fill="#FFC494"/>
<path d="M174.126 84.0959L192.183 70.5706L190.093 67.7808C186.378 62.8211 179.397 61.8196 174.438 65.5347C169.478 69.2499 168.477 76.2304 172.192 81.19L174.126 84.0959Z" fill="#FFC494"/>
<path d="M192.242 70.6485L174.186 84.1738L182.051 94.6744L200.107 81.149L192.242 70.6485Z" fill="#26114D"/>
<path d="M102.984 119.887L87.0566 135.814L89.5257 138.283C93.9312 142.641 101.048 142.641 105.453 138.283C109.811 133.878 109.811 126.761 105.453 122.356L102.984 119.887Z" fill="#FFC494"/>
<path d="M93.7844 110.432L77.832 126.385L87.109 135.662L103.061 119.709L93.7844 110.432Z" fill="#26114D"/>
<path d="M168.092 201.245C168.246 205.267 169.59 209.153 171.952 212.411C174.314 215.67 177.589 218.154 181.363 219.549C185.136 220.945 189.239 221.19 193.151 220.252C197.063 219.315 200.61 217.237 203.342 214.283C206.074 211.328 207.869 207.629 208.5 203.653C209.131 199.678 208.569 195.605 206.886 191.949C205.203 188.292 202.474 185.218 199.044 183.114C195.615 181.01 191.638 179.971 187.618 180.129C182.231 180.34 177.148 182.683 173.487 186.642C169.825 190.602 167.885 195.854 168.092 201.245V201.245Z" fill="white"/>
<path d="M241.703 180.912C241.795 184.248 240.897 187.537 239.121 190.362C237.345 193.187 234.772 195.421 231.727 196.782C228.681 198.144 225.301 198.571 222.013 198.009C218.725 197.448 215.677 195.924 213.255 193.629C210.833 191.335 209.145 188.373 208.406 185.119C207.666 181.864 207.908 178.464 209.1 175.347C210.292 172.23 212.381 169.537 215.103 167.609C217.826 165.681 221.058 164.603 224.392 164.514C228.861 164.393 233.194 166.053 236.44 169.128C239.686 172.203 241.579 176.442 241.703 180.912V180.912Z" fill="white"/>
</svg>
