<svg width="348" height="336" viewBox="0 0 348 336" fill="none" xmlns="http://www.w3.org/2000/svg">
<path d="M42.2658 256.923C42.1541 259.899 41.1627 262.775 39.4172 265.186C37.6717 267.598 35.2504 269.438 32.4597 270.473C29.669 271.508 26.6342 271.691 23.7394 271C20.8445 270.308 18.2197 268.773 16.1968 266.589C14.1739 264.405 12.844 261.669 12.3753 258.729C11.9065 255.788 12.32 252.774 13.5634 250.069C14.8069 247.363 16.8243 245.087 19.3607 243.529C21.897 241.971 24.8381 241.201 27.8121 241.316C31.7933 241.474 35.549 243.207 38.2553 246.133C40.9615 249.059 42.3972 252.939 42.2474 256.923" fill="white"/>
<path d="M338.353 267.81C338.178 272.361 336.659 276.758 333.988 280.445C331.317 284.132 327.613 286.944 323.345 288.525C319.077 290.107 314.436 290.387 310.009 289.33C305.582 288.273 301.567 285.927 298.473 282.588C295.378 279.249 293.342 275.067 292.622 270.57C291.902 266.073 292.53 261.464 294.428 257.325C296.325 253.186 299.406 249.702 303.282 247.314C307.157 244.927 311.653 243.742 316.202 243.91V243.91C319.226 244.02 322.199 244.725 324.95 245.987C327.702 247.248 330.177 249.04 332.235 251.26C334.293 253.481 335.892 256.085 336.942 258.925C337.992 261.765 338.472 264.785 338.353 267.81" fill="white"/>
<path d="M346.142 289.568C345.967 294.119 344.448 298.516 341.777 302.203C339.106 305.89 335.402 308.702 331.134 310.283C326.866 311.865 322.225 312.145 317.798 311.088C313.371 310.031 309.356 307.685 306.262 304.346C303.167 301.007 301.131 296.824 300.411 292.328C299.691 287.831 300.319 283.222 302.217 279.083C304.114 274.943 307.195 271.46 311.071 269.072C314.946 266.684 319.442 265.5 323.991 265.668V265.668C330.096 265.899 335.859 268.546 340.013 273.028C344.167 277.51 346.372 283.46 346.142 289.568" fill="white"/>
<path d="M228.409 296.973C228.237 301.921 226.601 306.707 223.708 310.724C220.816 314.741 216.796 317.808 212.16 319.537C207.523 321.267 202.478 321.58 197.663 320.438C192.849 319.296 188.481 316.749 185.114 313.121C181.747 309.493 179.532 304.947 178.75 300.058C177.968 295.169 178.653 290.158 180.72 285.659C182.786 281.161 186.141 277.377 190.359 274.788C194.576 272.199 199.467 270.921 204.411 271.115V271.115C211.029 271.384 217.27 274.266 221.768 279.13C226.265 283.994 228.654 290.443 228.409 297.065V297.065" fill="white"/>
<path d="M252.665 304.177C252.505 308.43 251.088 312.54 248.594 315.987C246.099 319.434 242.638 322.064 238.65 323.543C234.662 325.022 230.324 325.285 226.187 324.298C222.049 323.311 218.297 321.118 215.405 317.997C212.513 314.876 210.611 310.967 209.94 306.764C209.268 302.561 209.857 298.254 211.633 294.386C213.408 290.519 216.29 287.265 219.913 285.036C223.537 282.807 227.74 281.704 231.991 281.865V281.865C234.814 281.972 237.588 282.635 240.155 283.815C242.723 284.995 245.032 286.67 246.952 288.744C248.872 290.818 250.365 293.25 251.345 295.901C252.325 298.552 252.774 301.371 252.665 304.195V304.195" fill="white"/>
<path d="M113.812 286.87C113.76 288.235 113.305 289.554 112.504 290.66C111.703 291.766 110.593 292.61 109.313 293.084C108.033 293.559 106.641 293.643 105.313 293.327C103.985 293.01 102.781 292.307 101.853 291.305C100.924 290.304 100.313 289.05 100.097 287.701C99.8807 286.353 100.069 284.97 100.638 283.729C101.206 282.487 102.13 281.442 103.292 280.726C104.455 280.009 105.803 279.654 107.167 279.704V279.704C108.995 279.776 110.72 280.571 111.963 281.915C113.205 283.259 113.864 285.041 113.794 286.87" fill="white"/>
<path d="M188.721 306.152C188.509 311.873 186.606 317.403 183.252 322.042C179.899 326.68 175.246 330.22 169.882 332.212C164.518 334.205 158.684 334.561 153.118 333.235C147.552 331.91 142.503 328.963 138.611 324.766C134.719 320.57 132.159 315.313 131.253 309.66C130.348 304.007 131.138 298.213 133.524 293.009C135.91 287.806 139.785 283.427 144.658 280.428C149.532 277.428 155.185 275.942 160.902 276.157V276.157C168.547 276.469 175.755 279.803 180.946 285.426C186.137 291.049 188.886 298.503 188.592 306.152V306.152" fill="white"/>
<path d="M119.924 304.588C119.712 310.309 117.809 315.839 114.455 320.477C111.102 325.116 106.449 328.655 101.085 330.648C95.7212 332.64 89.8872 332.996 84.321 331.671C78.7548 330.346 73.7064 327.398 69.8145 323.202C65.9226 319.005 63.3619 313.748 62.4564 308.095C61.5508 302.443 62.3411 296.648 64.7272 291.445C67.1134 286.241 70.9882 281.863 75.8615 278.863C80.7349 275.864 86.3879 274.377 92.1055 274.593V274.593C99.7497 274.905 106.958 278.238 112.149 283.862C117.34 289.485 120.089 296.939 119.795 304.588V304.588" fill="white"/>
<path d="M316.72 246.865C316.59 250.019 315.529 253.064 313.671 255.616C311.813 258.168 309.24 260.111 306.279 261.201C303.317 262.291 300.1 262.479 297.032 261.74C293.964 261.002 291.183 259.371 289.041 257.052C286.899 254.734 285.492 251.832 284.997 248.714C284.501 245.596 284.941 242.401 286.259 239.533C287.577 236.664 289.715 234.251 292.403 232.597C295.091 230.943 298.209 230.124 301.362 230.242C303.459 230.325 305.52 230.821 307.425 231.702C309.331 232.582 311.044 233.831 312.467 235.374C313.89 236.918 314.995 238.728 315.719 240.7C316.442 242.671 316.77 244.766 316.683 246.865V246.865" fill="white"/>
<path d="M340.293 236.799C340.227 237.769 339.877 238.698 339.287 239.47C338.697 240.242 337.893 240.824 336.975 241.142C336.057 241.459 335.065 241.5 334.124 241.257C333.183 241.015 332.335 240.501 331.684 239.779C331.033 239.057 330.609 238.16 330.465 237.199C330.321 236.237 330.463 235.255 330.873 234.374C331.283 233.492 331.944 232.752 332.772 232.243C333.6 231.735 334.56 231.483 335.531 231.517C336.859 231.593 338.104 232.19 338.996 233.179C339.887 234.168 340.354 235.469 340.293 236.799Z" fill="white"/>
<path d="M327.003 243.153C326.922 244.893 326.327 246.571 325.295 247.974C324.263 249.377 322.839 250.444 321.202 251.039C319.566 251.634 317.79 251.731 316.098 251.318C314.406 250.905 312.874 250 311.695 248.718C310.516 247.436 309.743 245.833 309.472 244.112C309.202 242.391 309.446 240.628 310.175 239.046C310.904 237.463 312.084 236.132 313.568 235.22C315.051 234.307 316.771 233.854 318.511 233.918V233.918C319.675 233.963 320.819 234.238 321.876 234.728C322.933 235.217 323.883 235.911 324.67 236.77C325.458 237.628 326.068 238.634 326.465 239.73C326.862 240.825 327.039 241.989 326.984 243.153V243.153" fill="white"/>
<path d="M300.752 279.409C300.491 286.56 298.116 293.472 293.927 299.272C289.739 305.071 283.925 309.497 277.222 311.989C270.519 314.482 263.227 314.929 256.27 313.273C249.313 311.618 243.003 307.935 238.139 302.69C233.274 297.445 230.074 290.875 228.943 283.809C227.812 276.744 228.801 269.502 231.785 263C234.769 256.497 239.614 251.027 245.706 247.28C251.799 243.533 258.865 241.679 266.011 241.952V241.952C270.754 242.131 275.416 243.243 279.73 245.225C284.044 247.207 287.925 250.021 291.151 253.504C294.377 256.988 296.886 261.074 298.533 265.529C300.181 269.983 300.934 274.719 300.752 279.465V279.465" fill="white"/>
<path d="M247.605 283.039C247.386 289.047 245.389 294.856 241.867 299.729C238.346 304.603 233.458 308.322 227.822 310.416C222.186 312.511 216.055 312.886 210.206 311.495C204.357 310.104 199.051 307.009 194.961 302.602C190.872 298.195 188.181 292.673 187.23 286.736C186.279 280.799 187.111 274.714 189.62 269.25C192.129 263.786 196.202 259.189 201.324 256.04C206.446 252.892 212.388 251.334 218.396 251.563C226.449 251.878 234.048 255.376 239.524 261.289C245.001 267.202 247.907 275.047 247.605 283.101V283.101" fill="white"/>
<path d="M321.759 293.669C321.438 302.087 318.63 310.221 313.69 317.042C308.749 323.864 301.897 329.066 294.002 331.991C286.106 334.916 277.521 335.432 269.331 333.475C261.142 331.518 253.717 327.174 247.995 320.994C242.273 314.814 238.511 307.076 237.185 298.756C235.86 290.437 237.029 281.911 240.546 274.257C244.063 266.603 249.77 260.164 256.944 255.755C264.119 251.347 272.439 249.166 280.852 249.488C292.13 249.926 302.773 254.825 310.443 263.108C318.113 271.392 322.183 282.384 321.759 293.669V293.669Z" fill="white"/>
<path d="M79.9205 297.897C79.7485 302.845 78.1126 307.631 75.22 311.647C72.3273 315.664 68.3081 318.732 63.6716 320.461C59.0351 322.19 53.9898 322.504 49.1751 321.362C44.3604 320.219 39.9929 317.673 36.6259 314.045C33.2589 310.417 31.0439 305.87 30.2616 300.982C29.4793 296.093 30.1649 291.082 32.2315 286.583C34.2981 282.085 37.6527 278.301 41.8703 275.712C46.0879 273.123 50.9788 271.844 55.9231 272.039V272.039C59.2022 272.165 62.4242 272.936 65.4052 274.309C68.3861 275.682 71.0675 277.629 73.2961 280.038C75.5247 282.448 77.2569 285.274 78.3935 288.354C79.5301 291.434 80.049 294.708 79.9205 297.989" fill="white"/>
<path d="M104.695 278.467C104.423 285.614 102.039 292.521 97.8445 298.312C93.6498 304.104 87.8327 308.522 81.1289 311.006C74.4252 313.49 67.1358 313.929 60.1826 312.267C53.2294 310.606 46.9248 306.919 42.0659 301.672C37.207 296.426 34.0122 289.856 32.8854 282.792C31.7586 275.729 32.7506 268.49 35.7357 261.991C38.7208 255.491 43.5651 250.024 49.656 246.279C55.7468 242.535 62.8106 240.682 69.9541 240.954C79.5308 241.324 88.569 245.483 95.0831 252.517C101.597 259.551 105.054 268.884 104.695 278.467V278.467Z" fill="white"/>
<path d="M50.423 287.997C50.2329 292.94 48.5819 297.716 45.6788 301.72C42.7757 305.725 38.7508 308.778 34.1134 310.493C29.476 312.208 24.4343 312.509 19.6262 311.356C14.818 310.204 10.4593 307.651 7.10154 304.02C3.74374 300.389 1.53767 295.843 0.762363 290.957C-0.0129423 286.072 0.677356 281.066 2.74594 276.572C4.81453 272.079 8.16846 268.301 12.3835 265.715C16.5985 263.13 21.4853 261.853 26.4256 262.047C33.0463 262.306 39.2931 265.185 43.793 270.051C48.2929 274.917 50.6776 281.372 50.423 287.997V287.997Z" fill="white"/>
<path d="M309.724 289.707C309.645 291.622 309 293.472 307.87 295.021C306.741 296.571 305.177 297.751 303.377 298.413C301.577 299.075 299.621 299.188 297.756 298.74C295.891 298.292 294.201 297.301 292.899 295.893C291.597 294.485 290.742 292.723 290.441 290.83C290.14 288.936 290.407 286.996 291.208 285.254C292.009 283.512 293.309 282.047 294.943 281.043C296.577 280.038 298.472 279.541 300.388 279.612C301.663 279.663 302.916 279.964 304.074 280.499C305.232 281.034 306.274 281.792 307.139 282.729C308.004 283.667 308.675 284.766 309.115 285.963C309.555 287.16 309.754 288.432 309.702 289.707V289.707" fill="white"/>
<path d="M220.183 287.747C219.993 292.69 218.342 297.466 215.439 301.47C212.535 305.475 208.511 308.528 203.873 310.243C199.236 311.958 194.194 312.259 189.386 311.106C184.578 309.954 180.219 307.401 176.861 303.77C173.504 300.139 171.297 295.593 170.522 290.707C169.747 285.822 170.437 280.816 172.506 276.322C174.574 271.829 177.928 268.051 182.143 265.465C186.358 262.88 191.245 261.603 196.185 261.797C202.806 262.056 209.053 264.935 213.553 269.801C218.053 274.667 220.437 281.122 220.183 287.747Z" fill="white"/>
<path d="M191.401 297.983C191.211 302.927 189.56 307.702 186.657 311.707C183.754 315.711 179.729 318.764 175.092 320.479C170.455 322.194 165.413 322.495 160.605 321.343C155.796 320.191 151.438 317.638 148.08 314.006C144.722 310.375 142.516 305.829 141.741 300.944C140.966 296.058 141.656 291.052 143.724 286.559C145.793 282.066 149.147 278.287 153.362 275.702C157.577 273.116 162.464 271.839 167.404 272.033C174.025 272.292 180.272 275.172 184.772 280.038C189.271 284.904 191.656 291.359 191.401 297.983Z" fill="white"/>
<path d="M205.706 276.804C205.809 280.536 204.804 284.216 202.817 287.376C200.83 290.537 197.951 293.037 194.544 294.56C191.137 296.083 187.354 296.561 183.676 295.933C179.997 295.305 176.587 293.599 173.877 291.032C171.167 288.465 169.278 285.151 168.451 281.51C167.623 277.869 167.894 274.064 169.228 270.577C170.561 267.09 172.899 264.077 175.945 261.919C178.99 259.761 182.607 258.556 186.338 258.456C191.337 258.321 196.186 260.178 199.817 263.619C203.449 267.059 205.567 271.802 205.706 276.804V276.804Z" fill="white"/>
<path d="M147.971 257.185C150.788 249.563 159.149 245.822 166.725 248.593L173.654 229.932L197.258 242.219L189.775 262.359L185.063 275.015L160.304 265.869L146.585 260.742L147.971 257.185Z" fill="#26114D"/>
<path d="M241.601 242.127L244.927 238.801L254.35 228.408L283.59 258.248L280.864 260.974C275.229 266.702 265.852 266.702 260.217 261.02L260.17 260.974L259.847 261.297C256.752 264.392 252.641 266.009 248.345 266.009C244.049 266.009 239.846 264.3 236.843 261.297L217.72 242.173L241.601 242.127Z" fill="#3C295F"/>
<path opacity="0.15" d="M249.75 284.532C231.166 284.532 216.1 282.919 216.1 280.929C216.1 278.939 231.166 277.326 249.75 277.326C268.335 277.326 283.4 278.939 283.4 280.929C283.4 282.919 268.335 284.532 249.75 284.532Z" fill="black"/>
<path d="M170.943 166.279H149.418V162.954C149.418 157.041 154.222 152.283 160.088 152.283C166.001 152.283 170.759 157.087 170.759 162.954L170.943 166.279Z" fill="#FFC494"/>
<path d="M149.418 166.373H170.943V178.891H149.418V166.373Z" fill="#26114D"/>
<path d="M149.418 178.891H170.943V200.416C159.026 200.37 149.418 190.808 149.418 178.891Z" fill="#FFC494"/>
<path d="M179.306 178.892C185.219 178.892 189.977 183.696 189.977 189.562C189.977 195.429 185.173 200.233 179.306 200.233H170.899V178.707L179.306 178.892Z" fill="#F9FAFB"/>
<path d="M251.209 167.666L251.394 164.34C251.394 158.474 256.151 153.67 262.064 153.67C267.93 153.67 272.734 158.428 272.734 164.34V167.666H251.209Z" fill="#FFC494"/>
<path d="M251.211 167.76H272.736V180.278H251.211V167.76Z" fill="#26114D"/>
<path d="M251.211 201.803V180.277H272.736C272.736 192.195 263.128 201.757 251.211 201.803Z" fill="#FFC494"/>
<path d="M242.849 180.277L251.256 180.092V201.617H242.849C236.982 201.617 232.178 196.813 232.178 190.947C232.178 185.081 236.936 180.277 242.849 180.277Z" fill="#F9FAFB"/>
<path d="M174.022 217.876C174.022 200.323 191.298 186.096 212.547 186.096C233.795 186.096 251.117 200.369 251.117 217.876V230.025H173.976V217.876H174.022Z" fill="#FFCE1F"/>
<path d="M251.025 244.113H173.653V229.932H251.025V244.113Z" fill="#26114D"/>
<path d="M217.027 186.697L173.652 229.979L187.233 230.072L230.746 186.559L217.027 186.697Z" fill="#514171"/>
<path d="M158.346 168.09C157.642 173.48 179.663 180.789 207.536 184.427C235.41 188.065 258.569 186.652 259.272 181.261L263.755 146.914L162.856 133.746L158.374 168.093L158.346 168.09Z" fill="#6B7280"/>
<path d="M214.561 130.603C186.687 126.966 163.528 128.379 162.825 133.769C162.121 139.16 184.142 146.469 212.016 150.107C239.889 153.744 263.048 152.331 263.752 146.941C264.455 141.55 242.435 134.241 214.561 130.603Z" fill="#2F3845"/>
<path d="M163.846 125.968C163.142 131.359 185.163 138.668 213.036 142.306C240.91 145.944 264.069 144.531 264.772 139.14L269.255 104.793L168.356 91.6247L163.874 125.972L163.846 125.968Z" fill="#6B7280"/>
<path d="M220.063 88.455C192.189 84.8173 169.03 86.2303 168.327 91.6208C167.623 97.0113 189.644 104.321 217.518 107.958C245.391 111.596 268.55 110.183 269.253 104.792C269.957 99.402 247.936 92.0927 220.063 88.455Z" fill="#2F3845"/>
<path d="M169.344 83.82C168.64 89.2105 190.661 96.5198 218.534 100.157C246.408 103.795 269.567 102.382 270.27 96.9917L274.753 62.6444L173.854 49.4763L169.372 83.8237L169.344 83.82Z" fill="#6B7280"/>
<path d="M225.563 46.3066C197.689 42.6688 174.53 44.0819 173.827 49.4723C173.123 54.8628 195.144 62.1721 223.018 65.8098C250.891 69.4475 274.05 68.0345 274.753 62.644C275.457 57.2536 253.436 49.9443 225.563 46.3066Z" fill="#ADB5BD"/>
<g style="mix-blend-mode:multiply">
<path d="M173.827 49.4723L169.344 83.8197C169.164 85.2012 170.529 86.7292 173.057 88.2713C170.189 89.1092 168.507 90.2395 168.326 91.621L163.844 125.968C163.663 127.35 165.028 128.878 167.556 130.42C164.689 131.258 163.006 132.388 162.825 133.77L158.343 168.117C157.639 173.507 179.66 180.817 207.533 184.454L225.563 46.3066C197.689 42.6688 174.53 44.0819 173.827 49.4723Z" fill="#D1D5DB"/>
</g>
<g style="mix-blend-mode:soft-light">
<path d="M262.934 68.8985C260.697 68.6066 258.668 70.2151 258.371 72.4904L255.437 94.9733C255.14 97.2487 256.689 99.3242 258.925 99.6161C261.162 99.908 263.191 98.2995 263.488 96.0241L266.423 73.5413C266.72 71.2659 265.171 69.1903 262.934 68.8985Z" fill="#ADB5BD"/>
</g>
<g style="mix-blend-mode:soft-light">
<path d="M257.366 111.561C255.129 111.269 253.099 112.877 252.802 115.153L249.868 137.635C249.571 139.911 251.12 141.986 253.357 142.278C255.593 142.57 257.623 140.962 257.92 138.686L260.854 116.203C261.151 113.928 259.602 111.852 257.366 111.561Z" fill="#ADB5BD"/>
</g>
<g style="mix-blend-mode:soft-light">
<path d="M251.866 153.709C249.629 153.417 247.599 155.026 247.303 157.301L244.368 179.784C244.071 182.059 245.62 184.135 247.857 184.427C250.093 184.718 252.123 183.11 252.42 180.835L255.354 158.352C255.651 156.076 254.102 154.001 251.866 153.709Z" fill="#ADB5BD"/>
</g>
<path d="M213.33 140.088C194.16 134.776 182.889 114.821 188.247 95.5124L190.326 88.0293L193.005 88.9069C189.263 102.349 197.07 116.16 210.466 119.902L218.318 122.073" fill="#F9FAFB"/>
<path d="M191.047 151.419L240.721 165.209L237.001 178.607L187.327 164.817L191.047 151.419Z" fill="#FFC494"/>
<path d="M191.991 164.386C190.001 164.386 188.388 162.773 188.388 160.783C188.388 158.793 190.001 157.18 191.991 157.18C193.981 157.18 195.594 158.793 195.594 160.783C195.594 162.773 193.981 164.386 191.991 164.386Z" fill="#FFE1C9"/>
<path d="M200.306 157.734C200.86 155.84 199.706 153.808 197.812 153.299C195.918 152.745 193.885 153.9 193.377 155.794L200.306 157.734Z" fill="#26114D"/>
<path d="M219.984 163.232C220.538 161.338 219.383 159.306 217.489 158.797C215.549 158.243 213.563 159.398 213.055 161.292L219.984 163.232Z" fill="#26114D"/>
<path d="M245.342 154.824C249.407 140.134 240.908 124.891 226.265 120.826C211.622 116.761 196.471 125.353 192.36 140.134L245.342 154.824Z" fill="#26114D"/>
<path d="M205.285 143.708L216.102 146.711L210.875 165.539L200.059 162.536L205.285 143.708Z" fill="#F9FAFB"/>
<path d="M214.672 172.377C215.503 169.375 213.702 166.326 210.791 165.494C207.835 164.663 204.74 166.464 203.909 169.375L214.672 172.377Z" fill="#26114D"/>
<path d="M203.906 169.373C204.737 166.371 202.936 163.322 200.026 162.49C197.023 161.659 193.975 163.461 193.143 166.371L203.906 169.373Z" fill="#26114D"/>
<path d="M218.643 171.729C216.653 171.729 215.04 170.116 215.04 168.126C215.04 166.137 216.653 164.523 218.643 164.523C220.633 164.523 222.246 166.137 222.246 168.126C222.246 170.116 220.633 171.729 218.643 171.729Z" fill="#FFE1C9"/>
<path d="M174.528 190.901L186.03 149.42L191.342 150.898L183.304 179.768L174.528 190.901Z" fill="#26114D"/>
<path d="M185.8 163.924C179.564 186.327 193.283 201.894 193.283 201.894C193.283 201.894 212.684 196.997 219.289 173.208L185.8 163.924Z" fill="#26114D"/>
<path d="M234.165 165.955L236.29 158.287L246.545 161.151L241.464 179.397C235.921 199.352 219.615 203.417 219.615 203.417C219.615 203.417 208.067 190.345 213.287 171.544L220.585 173.577C226.497 175.286 232.502 171.868 234.165 165.955Z" fill="#26114D"/>
<path d="M196.332 166.833C190.789 186.788 174.483 190.853 174.483 190.853L182.243 162.906L196.332 166.833Z" fill="#26114D"/>
<path d="M236.748 178.197C236.748 178.197 233.792 189.745 222.013 196.443" stroke="#514171" stroke-width="1.76501" stroke-miterlimit="10"/>
<path d="M197.578 167.619C196.608 171.084 198.686 174.733 202.151 175.703C205.615 176.673 209.264 174.594 210.234 171.13L197.578 167.619Z" fill="white"/>
<path d="M187.026 138.613L250.721 156.295L247.718 167.111L184.023 149.429L187.026 138.613Z" fill="#F9FAFB"/>
<path d="M212.638 150.372L226.08 154.104L225.475 156.285L212.032 152.553L212.638 150.372Z" fill="#26114D"/>
<path d="M192.907 144.921L206.35 148.652L205.744 150.833L192.302 147.102L192.907 144.921Z" fill="#26114D"/>
<path d="M240.815 131.449C240.861 131.449 240.954 131.495 240.954 131.495L248.76 133.666C262.156 137.408 276.014 129.463 279.709 116.113L282.48 116.714L280.402 124.243C275.044 143.459 255.135 154.869 235.919 149.51V149.464C235.873 149.464 235.78 149.418 235.78 149.418C230.884 148.078 227.927 142.951 229.313 137.962C230.699 132.927 235.826 130.063 240.815 131.449Z" fill="#F9FAFB"/>
<path d="M227.749 143.086L235.74 145.303C243.685 147.52 252.231 146.366 259.898 142.162" stroke="#514171" stroke-width="1.76501" stroke-miterlimit="10"/>
<path d="M167.028 297.569C166.753 304.716 164.366 311.62 160.169 317.409C155.972 323.199 150.154 327.613 143.45 330.094C136.746 332.575 129.458 333.012 122.506 331.349C115.554 329.685 109.251 325.997 104.394 320.75C99.5368 315.503 96.3438 308.933 95.2184 301.87C94.093 294.807 95.0858 287.569 98.0714 281.071C101.057 274.573 105.901 269.106 111.991 265.362C118.082 261.619 125.145 259.766 132.287 260.038V260.038C141.862 260.403 150.901 264.558 157.415 271.589C163.93 278.62 167.387 287.951 167.028 297.532V297.532" fill="white"/>
</svg>
