<svg width="330" height="244" viewBox="0 0 330 244" fill="none" xmlns="http://www.w3.org/2000/svg">
<path d="M192.277 83.9102H96.4551V106.033H192.277V83.9102Z" fill="#F9FAFB"/>
<path d="M108.821 96.3207C108.821 89.4859 103.29 83.9551 96.4555 83.9551C89.6206 83.9551 84.0898 89.4859 84.0898 96.3207V106.033H108.821V96.3207Z" fill="#F9FAFB"/>
<path d="M188.859 126.043C188.859 102.796 168.939 83.9551 144.387 83.9551C119.836 83.9551 99.916 102.796 99.916 126.043V142.186H188.859V126.043Z" fill="#84EE90"/>
<path d="M193.941 183.509C193.941 174.201 186.387 166.647 177.079 166.647V158.418H146.592V187.961H193.941V183.509Z" fill="#26114D"/>
<path d="M95.375 183.509C95.375 174.201 102.929 166.647 112.237 166.647V158.418H142.724V187.961H95.375V183.509Z" fill="#26114D"/>
<path d="M100.008 158.418H188.815V142.096H100.008V158.418Z" fill="#26114D"/>
<path d="M135.98 89.2598L188.86 142.14L173.257 142.185L120.467 89.3947L135.98 89.2598Z" fill="#514171"/>
<path d="M167.591 25.2745H175.775C189.49 25.2745 200.596 14.1229 200.596 0.363368L203.339 0.273438V8.00757C203.339 27.7476 187.376 43.7554 167.681 43.7554C167.681 43.7554 167.681 43.7554 167.636 43.7554V43.7105H167.502C162.42 43.6655 158.284 39.5287 158.328 34.4475C158.373 29.3664 162.51 25.2295 167.591 25.2745Z" fill="#F9FAFB"/>
<path d="M121.502 25.2744H113.273C99.5136 25.2744 88.3621 14.1229 88.3621 0.363325L85.6191 0.318359V8.00752C85.6191 27.7475 101.627 43.7554 121.367 43.7554V43.7104H121.502C126.583 43.7104 130.72 39.5736 130.72 34.4924C130.72 29.4113 126.583 25.2744 121.502 25.2744Z" fill="#F9FAFB"/>
<path fill-rule="evenodd" clip-rule="evenodd" d="M100.971 29.8184C107.061 35.69 114.703 38.9096 122.58 38.9096H130.809V40.7782H122.58C114.18 40.7782 106.084 37.3428 99.6738 31.1636L100.971 29.8184Z" fill="#514171"/>
<path d="M174.785 63.7207H115.385V79.6386H174.785V63.7207Z" fill="#FFC493"/>
<path d="M113.543 50.7693C113.543 33.2775 127.752 19.1133 145.199 19.1133C162.691 19.1133 176.855 33.2775 176.855 50.7693H113.543Z" fill="#26114D"/>
<path d="M151.583 50.7695H138.678V73.2075H151.583V50.7695Z" fill="#F9FAFB"/>
<path d="M132.338 79.6372C132.338 76.0848 135.216 73.207 138.768 73.207C142.32 73.207 145.198 76.0848 145.198 79.6372H132.338Z" fill="#26114D"/>
<path d="M145.152 79.6372C145.152 76.0848 148.03 73.207 151.582 73.207C155.135 73.207 158.013 76.0848 158.013 79.6372H145.152Z" fill="#26114D"/>
<path d="M129.279 77.9301C131.589 77.9301 133.461 76.0578 133.461 73.7482C133.461 71.4387 131.589 69.5664 129.279 69.5664C126.97 69.5664 125.098 71.4387 125.098 73.7482C125.098 76.0578 126.97 77.9301 129.279 77.9301Z" fill="#FFE1C9"/>
<path d="M161.071 77.9301C163.38 77.9301 165.252 76.0578 165.252 73.7482C165.252 71.4387 163.38 69.5664 161.071 69.5664C158.761 69.5664 156.889 71.4387 156.889 73.7482C156.889 76.0578 158.761 77.9301 161.071 77.9301Z" fill="#FFE1C9"/>
<path d="M163.859 79.5488C163.859 104.28 145.243 116.376 145.243 116.376C145.243 116.376 126.627 105.854 126.627 79.5488H163.859V79.5488Z" fill="#26114D"/>
<path d="M152.751 79.6387C152.751 83.8205 149.334 87.2379 145.152 87.2379C140.97 87.2379 137.553 83.8205 137.553 79.6387H152.751Z" fill="#F9FAFB"/>
<path d="M178.562 79.5488C178.562 96.456 165.837 104.685 165.837 104.685C165.837 104.685 153.111 97.4902 153.111 79.5488H178.562Z" fill="#26114D"/>
<path d="M137.24 79.5488C137.24 96.456 124.514 104.685 124.514 104.685C124.514 104.685 111.789 97.4902 111.789 79.5488H137.24Z" fill="#26114D"/>
<path d="M178.563 79.5482V62.1914H170.964V72.6685C170.964 76.5355 167.861 79.6382 163.994 79.6382L174.606 90.2501L178.563 79.5482Z" fill="#26114D"/>
<path d="M111.742 79.5482V62.1914H119.521V72.6685C119.566 76.5355 122.714 79.6831 126.626 79.6382L115.834 90.2501L111.742 79.5482Z" fill="#26114D"/>
<path d="M183.239 50.7695H107.111V63.6747H183.239V50.7695Z" fill="#F9FAFB"/>
<path d="M141.377 55.9414H125.324V58.5494H141.377V55.9414Z" fill="#26114D"/>
<path d="M164.893 55.9414H148.84V58.5494H164.893V55.9414Z" fill="#26114D"/>
<path fill-rule="evenodd" clip-rule="evenodd" d="M175.941 80.3987C175.2 88.3187 171.541 95.6833 165.659 101.056L164.398 99.6766C169.937 94.6175 173.383 87.6829 174.081 80.2246L175.941 80.3987Z" fill="#514171"/>
<path d="M159.093 68.8917H161.926C161.926 66.0589 159.633 63.7656 156.8 63.7656C153.967 63.7656 151.674 66.0589 151.674 68.8917H154.507" fill="#26114D"/>
<path d="M135.755 68.8917H138.588C138.588 66.0589 136.295 63.7656 133.462 63.7656C130.629 63.7656 128.336 66.0589 128.336 68.8917H131.169" fill="#26114D"/>
<path d="M180.346 97.3064C180.346 89.7072 186.506 83.5469 194.106 83.5469C201.705 83.5469 207.865 89.7072 207.865 97.3064V108.098H180.346V97.3064Z" fill="#F9FAFB"/>
<path d="M108.957 97.3064C108.957 89.7072 102.796 83.5469 95.1971 83.5469C87.5978 83.5469 81.4375 89.7072 81.4375 97.3064V108.098H108.957V97.3064Z" fill="#F9FAFB"/>
<g clip-path="url(#clip0_3018_206721)">
<path fill-rule="evenodd" clip-rule="evenodd" d="M99.5278 73.8499L143.829 43.5697C144.155 43.3703 144.232 43.3059 144.585 43.1625C145.647 42.7334 146.88 42.8009 147.893 43.3453C148.019 43.4129 148.138 43.4949 148.261 43.5697L195.794 75.239C198.375 77.1226 197.653 79.2047 197.648 82.975L144.196 124.836L95.584 81.9818C95.584 77.4582 95.8406 76.7746 96.4972 76.0962C96.5118 76.0858 99.5247 73.8531 99.5278 73.851V73.8499Z" fill="#FDD948"/>
<path fill-rule="evenodd" clip-rule="evenodd" d="M102.268 77.4972L143.82 48.9718C144.138 48.7816 144.211 48.7203 144.555 48.5832C145.585 48.1739 146.782 48.2383 147.764 48.7577C147.886 48.8222 148.003 48.9001 148.122 48.9718L192.443 78.2754C194.949 80.0727 194.247 82.0602 194.243 85.6602L144.261 123.058L98.4395 85.2602C98.4395 80.9423 98.6888 80.2899 99.3278 79.6416C99.3402 79.6322 102.264 77.5003 102.268 77.4982V77.4972Z" fill="#F7B81B"/>
<path fill-rule="evenodd" clip-rule="evenodd" d="M184.421 63.9984C184.807 60.5168 182.296 57.3782 178.814 56.9917L120.05 50.4785C116.571 50.093 113.431 52.6052 113.044 56.0867L106.855 111.92C106.47 115.401 108.983 118.54 112.463 118.927L171.227 125.44C174.708 125.825 177.846 123.313 178.232 119.832L184.421 63.9984V63.9984Z" fill="#EEF1F5"/>
<path fill-rule="evenodd" clip-rule="evenodd" d="M181.766 64.8423C182.073 62.0797 180.079 59.5883 177.316 59.2818L121.012 53.0408C118.249 52.7344 115.758 54.7291 115.452 57.4917L109.514 111.075C109.207 113.837 111.201 116.328 113.963 116.635L170.267 122.876C173.03 123.182 175.521 121.188 175.827 118.425L181.765 64.8423H181.766Z" fill="#A0A8FF"/>
<path fill-rule="evenodd" clip-rule="evenodd" d="M176.305 60.6681C178.536 60.9352 180.352 63.1034 180.118 65.4307C178.262 82.7915 176.339 100.145 174.348 117.491C174.078 119.724 171.914 121.538 169.585 121.303C151.376 119.339 133.17 117.321 114.973 115.25C112.755 114.982 110.936 112.848 111.157 110.516C112.911 93.1353 114.954 75.7849 116.93 58.4271C117.199 56.2007 119.331 54.3908 121.665 54.6121C139.895 56.4708 158.1 58.5788 176.305 60.6681V60.6681ZM121.612 55.6064C119.875 55.4204 118.136 56.7451 117.918 58.5425C115.944 75.8929 113.902 93.2371 112.148 110.612C111.984 112.326 113.293 114.044 115.088 114.261C133.29 116.333 151.484 118.476 169.71 120.315C171.417 120.477 173.129 119.189 173.357 117.396C175.451 100.052 177.377 82.6866 179.13 65.305C179.293 63.5876 177.987 61.8712 176.19 61.6551C158.005 59.5679 139.806 57.6219 121.612 55.6053V55.6064Z" fill="#EEF0F4"/>
<path d="M150.326 100.992C148.12 101.724 145.548 101.927 142.568 101.597C137.699 101.058 133.997 99.1826 131.501 96.0179C129.01 92.8127 127.988 88.9988 128.473 84.6185C128.833 81.3635 130.003 78.4835 132.022 75.9818C133.999 73.4758 136.498 71.6379 139.517 70.467C142.536 69.2972 145.722 68.9179 149.08 69.2899C153.572 69.7875 157.244 71.5371 160.099 74.5376C162.908 77.5745 164.068 81.2825 163.583 85.6617C163.24 88.7556 162.171 91.1182 160.417 92.7546C158.659 94.4304 156.752 95.1545 154.695 94.927C151.882 94.6153 150.257 93.1743 149.736 90.5946C148.112 92.9769 145.871 94.0304 143.059 93.7187C140.917 93.4818 139.318 92.5717 138.266 90.9499C137.213 89.3281 136.784 87.4507 137.03 85.2398C137.31 82.7079 138.34 80.7069 140.117 79.2368C141.895 77.7656 143.961 77.1412 146.27 77.3968C148.537 77.6482 150.118 78.7183 150.967 80.6425C150.994 80.4014 151.08 80.0046 151.184 79.4467C151.288 78.8887 151.338 78.4472 151.415 78.1303L154.773 78.5022L153.894 82.5947C153.417 84.9822 153.155 86.5801 153.066 87.3842C152.758 90.1572 153.489 91.6211 155.209 91.8112C156.343 91.9369 157.379 91.4008 158.315 90.2434C159.208 89.0819 159.764 87.5162 159.987 85.5069C160.397 81.8103 159.537 78.8274 157.368 76.5521C155.194 74.3184 152.282 72.9782 148.589 72.5688C144.517 72.1179 140.882 73.0976 137.725 75.5132C134.526 77.9246 132.728 81.1017 132.288 85.0798C131.873 88.8169 132.724 91.8808 134.801 94.2257C136.883 96.5312 139.622 97.8922 142.98 98.2641C145.792 98.5758 148.461 98.262 150.9 97.3519L150.326 100.99V100.992ZM144.278 90.7629C145.369 90.8834 146.417 90.6341 147.467 89.9775C148.47 89.3562 149.254 88.4263 149.778 87.1422C149.796 86.9811 149.819 86.7806 149.892 86.5042C149.964 86.2279 149.991 85.9868 150.06 85.75C150.082 85.5494 150.109 85.3084 150.132 85.1069C149.977 82.283 148.701 80.7588 146.308 80.4939C144.923 80.3402 143.685 80.7724 142.684 81.7594C141.635 82.7817 141.018 84.1375 140.826 85.8653C140.679 87.191 140.936 88.3183 141.603 89.2055C142.223 90.1281 143.144 90.6372 144.277 90.7629H144.278Z" fill="#26114D"/>
<g filter="url(#filter0_d_3018_206721)">
<path fill-rule="evenodd" clip-rule="evenodd" d="M196.276 75.6465C197.112 76.3176 197.648 77.3472 197.648 78.5015V141.64C197.648 143.659 196.009 145.299 193.989 145.299H99.2421C97.2234 145.299 95.584 143.659 95.584 141.64V78.5015C95.584 77.5831 95.9237 76.7426 96.4848 76.0995L146.05 110.07L196.277 75.6465H196.276Z" fill="#F8C82A"/>
</g>
<g filter="url(#filter1_d_3018_206721)">
<path fill-rule="evenodd" clip-rule="evenodd" d="M146.05 110.123L202.541 148.842H89.5566L146.05 110.123Z" fill="#F7B81B"/>
</g>
</g>
<g filter="url(#filter2_d_3018_206721)">
<path d="M81.3535 108.09C81.3535 108.09 81.9377 117.368 83.016 122.596C83.7696 126.251 84.6079 129.789 85.5192 132.063C85.9117 133.042 85.7579 132.67 86.1715 133.641C86.5659 134.43 88.1013 134.649 88.1013 134.649L89.2423 134.868H92.0877C99.6703 134.868 105.809 128.907 105.809 121.545V121.413C105.809 114.05 99.6703 108.09 92.0877 108.09H81.3535Z" fill="#FFC493"/>
</g>
<g filter="url(#filter3_d_3018_206721)">
<path d="M207.658 108.09C207.658 108.09 207.074 117.368 205.996 122.596C205.242 126.251 204.404 129.789 203.492 132.063C203.1 133.042 203.254 132.67 202.84 133.641C202.446 134.43 200.91 134.649 200.91 134.649L199.769 134.868H196.924C189.341 134.868 183.203 128.907 183.203 121.545V121.413C183.203 114.05 189.341 108.09 196.924 108.09H207.658Z" fill="#FFC493"/>
</g>
<path d="M15.9531 139.009C15.8934 140.305 15.4517 141.555 14.6835 142.601C13.9153 143.646 12.8551 144.441 11.6363 144.885C10.4175 145.329 9.0946 145.402 7.83432 145.096C6.57404 144.789 5.43269 144.116 4.55404 143.161C3.67538 142.206 3.0987 141.013 2.89664 139.731C2.69458 138.449 2.87618 137.136 3.41855 135.957C3.96092 134.778 4.83982 133.786 5.94454 133.106C7.04927 132.426 8.33041 132.088 9.62662 132.135V132.135C11.3637 132.204 13.003 132.958 14.1854 134.233C15.3679 135.508 15.9972 137.2 15.9356 138.939" fill="white"/>
<path d="M26.2567 147.707C26.2249 148.532 25.9496 149.328 25.4655 149.996C24.9814 150.664 24.3103 151.174 23.5369 151.46C22.7635 151.747 21.9226 151.797 21.1205 151.606C20.3183 151.414 19.5909 150.989 19.0303 150.384C18.4696 149.779 18.1008 149.021 17.9704 148.206C17.8401 147.391 17.954 146.556 18.2979 145.806C18.6418 145.056 19.2002 144.425 19.9024 143.992C20.6047 143.56 21.4194 143.345 22.2435 143.376C23.3469 143.422 24.3871 143.903 25.1362 144.715C25.8852 145.527 26.2819 146.603 26.2392 147.707V147.707" fill="white"/>
<path d="M40.4812 169.431C40.3751 172.256 39.4339 174.986 37.7768 177.276C36.1196 179.566 33.8209 181.312 31.1715 182.295C28.5221 183.277 25.6411 183.451 22.8928 182.795C20.1445 182.139 17.6525 180.681 15.7321 178.608C13.8117 176.534 12.5491 173.937 12.1041 171.145C11.659 168.353 12.0516 165.492 13.2321 162.924C14.4125 160.355 16.3279 158.195 18.7357 156.716C21.1436 155.236 23.9359 154.505 26.7593 154.614C30.5389 154.765 34.1045 156.409 36.6737 159.187C39.2429 161.965 40.6059 165.649 40.4637 169.431" fill="white"/>
<path d="M217.199 207.454C217.036 212.151 215.482 216.695 212.736 220.508C209.99 224.322 206.174 227.234 201.773 228.876C197.371 230.517 192.581 230.815 188.01 229.731C183.439 228.646 179.293 226.229 176.096 222.784C172.9 219.34 170.797 215.024 170.054 210.382C169.312 205.741 169.962 200.984 171.924 196.713C173.886 192.442 177.071 188.85 181.075 186.392C185.079 183.934 189.722 182.72 194.417 182.905V182.905C200.699 183.161 206.624 185.897 210.894 190.514C215.164 195.132 217.431 201.255 217.199 207.541V207.541" fill="white"/>
<path d="M240.227 214.292C240.075 218.33 238.729 222.232 236.361 225.505C233.993 228.777 230.707 231.274 226.921 232.678C223.135 234.083 219.017 234.332 215.089 233.395C211.161 232.457 207.599 230.376 204.853 227.413C202.107 224.45 200.302 220.739 199.664 216.749C199.027 212.759 199.586 208.669 201.272 204.998C202.957 201.326 205.693 198.237 209.133 196.121C212.573 194.005 216.563 192.957 220.599 193.11V193.11C223.279 193.212 225.913 193.841 228.35 194.962C230.787 196.082 232.98 197.672 234.803 199.641C236.625 201.61 238.043 203.919 238.973 206.436C239.904 208.953 240.33 211.628 240.227 214.31V214.31" fill="white"/>
<path d="M142.153 190.198C142.044 193.135 141.065 195.973 139.343 198.353C137.62 200.734 135.231 202.549 132.477 203.57C129.723 204.591 126.728 204.771 123.871 204.088C121.014 203.406 118.424 201.89 116.429 199.734C114.433 197.578 113.122 194.877 112.661 191.975C112.2 189.073 112.609 186.099 113.838 183.43C115.067 180.76 117.059 178.516 119.563 176.98C122.068 175.444 124.971 174.687 127.906 174.803C129.851 174.875 131.763 175.33 133.532 176.142C135.301 176.955 136.892 178.108 138.216 179.536C139.539 180.964 140.568 182.64 141.244 184.466C141.919 186.293 142.228 188.234 142.153 190.181V190.181" fill="white"/>
<path d="M108.405 197.863C108.355 199.158 107.923 200.41 107.163 201.46C106.402 202.51 105.348 203.311 104.133 203.762C102.918 204.213 101.596 204.293 100.336 203.992C99.0751 203.692 97.9318 203.024 97.0504 202.073C96.1689 201.123 95.5889 199.932 95.3836 198.652C95.1782 197.371 95.3569 196.059 95.8968 194.88C96.4368 193.702 97.3138 192.709 98.4172 192.029C99.5205 191.349 100.801 191.012 102.096 191.059V191.059C103.831 191.128 105.469 191.883 106.648 193.158C107.828 194.434 108.453 196.126 108.387 197.863" fill="white"/>
<path d="M179.521 216.17C179.32 221.601 177.513 226.851 174.329 231.254C171.146 235.658 166.729 239.019 161.636 240.91C156.544 242.802 151.005 243.14 145.721 241.881C140.436 240.623 135.644 237.825 131.949 233.841C128.254 229.857 125.823 224.866 124.963 219.5C124.104 214.133 124.854 208.632 127.119 203.692C129.385 198.752 133.063 194.595 137.69 191.748C142.316 188.9 147.683 187.489 153.111 187.693V187.693C160.368 187.99 167.212 191.154 172.14 196.493C177.068 201.831 179.678 208.908 179.398 216.17V216.17" fill="white"/>
<path d="M114.207 214.683C114.005 220.115 112.199 225.364 109.015 229.768C105.831 234.172 101.414 237.532 96.3218 239.424C91.2294 241.315 85.6908 241.653 80.4064 240.395C75.122 239.137 70.3293 236.339 66.6344 232.355C62.9396 228.371 60.5086 223.38 59.6489 218.013C58.7892 212.647 59.5394 207.146 61.8047 202.206C64.0701 197.266 67.7487 193.109 72.3753 190.261C77.0019 187.414 82.3686 186.003 87.7968 186.207V186.207C95.0539 186.503 101.897 189.668 106.825 195.007C111.753 200.345 114.364 207.422 114.084 214.683V214.683" fill="white"/>
<path d="M297.131 174.294C297.008 177.289 296.001 180.18 294.236 182.602C292.472 185.025 290.03 186.87 287.219 187.905C284.407 188.939 281.352 189.118 278.44 188.417C275.527 187.715 272.887 186.167 270.854 183.966C268.82 181.765 267.484 179.01 267.014 176.05C266.544 173.09 266.961 170.056 268.212 167.333C269.464 164.61 271.494 162.319 274.046 160.749C276.597 159.179 279.557 158.401 282.551 158.513C284.542 158.591 286.498 159.063 288.307 159.899C290.116 160.735 291.743 161.92 293.094 163.385C294.445 164.851 295.494 166.569 296.18 168.441C296.867 170.313 297.178 172.302 297.096 174.294V174.294" fill="white"/>
<path d="M301.411 161.845C301.333 163.498 300.769 165.09 299.789 166.422C298.809 167.754 297.457 168.767 295.904 169.332C294.35 169.897 292.664 169.989 291.058 169.597C289.452 169.205 287.997 168.346 286.878 167.129C285.759 165.911 285.025 164.39 284.768 162.756C284.511 161.122 284.743 159.448 285.435 157.946C286.127 156.444 287.247 155.18 288.656 154.314C290.064 153.447 291.697 153.017 293.349 153.078V153.078C294.454 153.121 295.54 153.382 296.543 153.847C297.547 154.311 298.449 154.97 299.196 155.785C299.944 156.6 300.523 157.555 300.9 158.595C301.277 159.636 301.445 160.74 301.393 161.845V161.845" fill="white"/>
<path d="M274.933 198.845C274.685 205.634 272.43 212.196 268.454 217.702C264.478 223.208 258.958 227.41 252.594 229.776C246.231 232.142 239.308 232.566 232.703 230.995C226.099 229.423 220.108 225.927 215.49 220.947C210.872 215.968 207.834 209.73 206.76 203.023C205.686 196.315 206.625 189.44 209.458 183.267C212.291 177.093 216.89 171.9 222.674 168.343C228.458 164.786 235.167 163.026 241.951 163.285V163.285C246.454 163.454 250.88 164.51 254.975 166.392C259.071 168.274 262.755 170.945 265.818 174.252C268.881 177.56 271.263 181.439 272.827 185.668C274.391 189.896 275.106 194.392 274.933 198.898V198.898" fill="white"/>
<path d="M229.88 200.921C229.672 206.625 227.776 212.139 224.433 216.766C221.09 221.393 216.449 224.924 211.099 226.912C205.748 228.9 199.928 229.257 194.375 227.936C188.822 226.616 183.785 223.677 179.902 219.493C176.019 215.309 173.465 210.067 172.562 204.431C171.66 198.795 172.449 193.017 174.831 187.83C177.213 182.642 181.08 178.278 185.943 175.289C190.806 172.3 196.446 170.821 202.15 171.039C209.795 171.338 217.01 174.659 222.209 180.272C227.408 185.886 230.167 193.333 229.88 200.98V200.98" fill="white"/>
<path d="M305.823 204.317C305.519 212.309 302.853 220.031 298.162 226.507C293.472 232.983 286.967 237.922 279.471 240.699C271.975 243.476 263.824 243.966 256.05 242.108C248.275 240.25 241.226 236.126 235.794 230.259C230.362 224.392 226.79 217.045 225.532 209.147C224.273 201.249 225.383 193.155 228.722 185.888C232.061 178.621 237.479 172.509 244.29 168.323C251.101 164.138 259 162.067 266.988 162.373C277.694 162.789 287.798 167.439 295.08 175.304C302.362 183.169 306.226 193.604 305.823 204.317V204.317Z" fill="white"/>
<path d="M76.2301 208.331C76.0668 213.028 74.5138 217.572 71.7676 221.385C69.0214 225.199 65.2057 228.111 60.8039 229.753C56.4021 231.394 51.6124 231.692 47.0414 230.608C42.4705 229.523 38.3241 227.106 35.1276 223.661C31.931 220.217 29.8282 215.901 29.0855 211.259C28.3429 206.618 28.9937 201.861 30.9557 197.59C32.9177 193.319 36.1024 189.727 40.1065 187.269C44.1105 184.811 48.7537 183.597 53.4478 183.782V183.782C56.5608 183.902 59.6197 184.634 62.4497 185.937C65.2798 187.24 67.8254 189.089 69.9411 191.377C72.0569 193.665 73.7013 196.347 74.7804 199.271C75.8595 202.195 76.3521 205.304 76.2301 208.418" fill="white"/>
<path d="M99.747 189.884C99.4891 196.67 97.2258 203.227 93.2435 208.725C89.2612 214.224 83.7387 218.418 77.3743 220.776C71.01 223.134 64.0897 223.551 57.4886 221.974C50.8874 220.396 44.902 216.896 40.2891 211.915C35.6763 206.934 32.6432 200.697 31.5735 193.991C30.5038 187.285 31.4454 180.413 34.2794 174.242C37.1134 168.072 41.7124 162.881 47.4949 159.327C53.2773 155.772 59.9835 154.012 66.7653 154.271C75.8571 154.622 84.4377 158.571 90.6219 165.248C96.8062 171.926 100.088 180.787 99.747 189.884V189.884Z" fill="white"/>
<path d="M48.2249 198.932C48.0445 203.625 46.4771 208.159 43.721 211.961C40.9648 215.762 37.1438 218.66 32.7412 220.289C28.3385 221.917 23.5521 222.203 18.9874 221.109C14.4227 220.015 10.2847 217.591 7.09695 214.144C3.90917 210.697 1.81479 206.381 1.07874 201.743C0.342687 197.104 0.998034 192.352 2.96188 188.086C4.92573 183.82 8.10985 180.233 12.1115 177.779C16.1131 175.324 20.7524 174.112 25.4426 174.296C31.7281 174.542 37.6586 177.275 41.9307 181.895C46.2027 186.515 48.4667 192.643 48.2249 198.932V198.932Z" fill="white"/>
<path d="M193.268 197.998C193.087 202.691 191.52 207.225 188.764 211.027C186.008 214.829 182.187 217.727 177.784 219.355C173.381 220.984 168.595 221.269 164.03 220.175C159.466 219.081 155.328 216.658 152.14 213.21C148.952 209.763 146.858 205.447 146.122 200.809C145.386 196.171 146.041 191.418 148.005 187.152C149.969 182.887 153.153 179.3 157.154 176.845C161.156 174.39 165.795 173.178 170.486 173.362C176.771 173.608 182.702 176.342 186.974 180.961C191.246 185.581 193.51 191.709 193.268 197.998Z" fill="white"/>
<path d="M182.067 208.412C181.886 213.105 180.319 217.64 177.563 221.441C174.807 225.243 170.986 228.141 166.583 229.769C162.18 231.398 157.394 231.683 152.829 230.589C148.264 229.495 144.127 227.072 140.939 223.624C137.751 220.177 135.657 215.861 134.921 211.223C134.184 206.585 134.84 201.832 136.804 197.566C138.768 193.301 141.952 189.714 145.953 187.259C149.955 184.804 154.594 183.592 159.284 183.776C165.57 184.022 171.5 186.756 175.772 191.376C180.044 195.995 182.308 202.123 182.067 208.412Z" fill="white"/>
<path d="M153.414 205.445C153.153 212.23 150.887 218.784 146.903 224.281C142.918 229.777 137.395 233.968 131.03 236.323C124.666 238.679 117.746 239.093 111.146 237.514C104.546 235.935 98.5625 232.433 93.9514 227.452C89.3403 222.471 86.3089 216.233 85.2405 209.528C84.1721 202.823 85.1147 195.951 87.949 189.782C90.7834 183.613 95.3823 178.423 101.164 174.869C106.946 171.315 113.652 169.555 120.433 169.814V169.814C129.523 170.161 138.103 174.105 144.288 180.78C150.473 187.455 153.755 196.314 153.414 205.41V205.41" fill="white"/>
<defs>
<filter id="filter0_d_3018_206721" x="94.7528" y="74.6075" width="103.727" height="71.3147" filterUnits="userSpaceOnUse" color-interpolation-filters="sRGB">
<feFlood flood-opacity="0" result="BackgroundImageFix"/>
<feColorMatrix in="SourceAlpha" type="matrix" values="0 0 0 0 0 0 0 0 0 0 0 0 0 0 0 0 0 0 127 0" result="hardAlpha"/>
<feOffset dy="-0.20779"/>
<feGaussianBlur stdDeviation="0.41558"/>
<feComposite in2="hardAlpha" operator="out"/>
<feColorMatrix type="matrix" values="0 0 0 0 0 0 0 0 0 0 0 0 0 0 0 0 0 0 0.1 0"/>
<feBlend mode="normal" in2="BackgroundImageFix" result="effect1_dropShadow_3018_206721"/>
<feBlend mode="normal" in="SourceGraphic" in2="effect1_dropShadow_3018_206721" result="shape"/>
</filter>
<filter id="filter1_d_3018_206721" x="88.7255" y="108.045" width="114.647" height="40.7966" filterUnits="userSpaceOnUse" color-interpolation-filters="sRGB">
<feFlood flood-opacity="0" result="BackgroundImageFix"/>
<feColorMatrix in="SourceAlpha" type="matrix" values="0 0 0 0 0 0 0 0 0 0 0 0 0 0 0 0 0 0 127 0" result="hardAlpha"/>
<feOffset dy="-1.24674"/>
<feGaussianBlur stdDeviation="0.41558"/>
<feComposite in2="hardAlpha" operator="out"/>
<feColorMatrix type="matrix" values="0 0 0 0 0 0 0 0 0 0 0 0 0 0 0 0 0 0 0.1 0"/>
<feBlend mode="normal" in2="BackgroundImageFix" result="effect1_dropShadow_3018_206721"/>
<feBlend mode="normal" in="SourceGraphic" in2="effect1_dropShadow_3018_206721" result="shape"/>
</filter>
<filter id="filter2_d_3018_206721" x="81.2647" y="107.557" width="26.2305" height="28.5527" filterUnits="userSpaceOnUse" color-interpolation-filters="sRGB">
<feFlood flood-opacity="0" result="BackgroundImageFix"/>
<feColorMatrix in="SourceAlpha" type="matrix" values="0 0 0 0 0 0 0 0 0 0 0 0 0 0 0 0 0 0 127 0" result="hardAlpha"/>
<feOffset dx="0.798919" dy="0.355075"/>
<feGaussianBlur stdDeviation="0.443844"/>
<feComposite in2="hardAlpha" operator="out"/>
<feColorMatrix type="matrix" values="0 0 0 0 0 0 0 0 0 0 0 0 0 0 0 0 0 0 0.1 0"/>
<feBlend mode="normal" in2="BackgroundImageFix" result="effect1_dropShadow_3018_206721"/>
<feBlend mode="normal" in="SourceGraphic" in2="effect1_dropShadow_3018_206721" result="shape"/>
</filter>
<filter id="filter3_d_3018_206721" x="181.694" y="107.646" width="26.0529" height="28.3752" filterUnits="userSpaceOnUse" color-interpolation-filters="sRGB">
<feFlood flood-opacity="0" result="BackgroundImageFix"/>
<feColorMatrix in="SourceAlpha" type="matrix" values="0 0 0 0 0 0 0 0 0 0 0 0 0 0 0 0 0 0 127 0" result="hardAlpha"/>
<feOffset dx="-0.710151" dy="0.355075"/>
<feGaussianBlur stdDeviation="0.39946"/>
<feComposite in2="hardAlpha" operator="out"/>
<feColorMatrix type="matrix" values="0 0 0 0 0 0 0 0 0 0 0 0 0 0 0 0 0 0 0.15 0"/>
<feBlend mode="normal" in2="BackgroundImageFix" result="effect1_dropShadow_3018_206721"/>
<feBlend mode="normal" in="SourceGraphic" in2="effect1_dropShadow_3018_206721" result="shape"/>
</filter>
<clipPath id="clip0_3018_206721">
<rect width="102.161" height="102.415" fill="white" transform="translate(95.584 42.8828)"/>
</clipPath>
</defs>
</svg>
