<svg width="376" height="254" viewBox="0 0 376 254" fill="none" xmlns="http://www.w3.org/2000/svg">
<path d="M45.6658 164.735C45.5443 167.968 44.4675 171.092 42.5713 173.712C40.6752 176.332 38.045 178.33 35.0135 179.454C31.982 180.578 28.6854 180.777 25.5408 180.027C22.3962 179.276 19.5448 177.608 17.3474 175.236C15.15 172.863 13.7054 169.891 13.1962 166.697C12.687 163.502 13.1362 160.229 14.4869 157.29C15.8376 154.351 18.0291 151.879 20.7843 150.186C23.5394 148.494 26.7343 147.657 29.9649 147.782C34.2896 147.954 38.3694 149.836 41.3091 153.014C44.2489 156.193 45.8085 160.408 45.6457 164.735" fill="white"/>
<path d="M367.298 176.563C367.109 181.507 365.459 186.283 362.557 190.288C359.655 194.293 355.632 197.348 350.996 199.066C346.359 200.783 341.318 201.088 336.509 199.94C331.7 198.792 327.339 196.243 323.977 192.616C320.615 188.989 318.404 184.446 317.621 179.561C316.839 174.677 317.522 169.67 319.583 165.173C321.644 160.677 324.991 156.892 329.201 154.299C333.411 151.705 338.295 150.418 343.236 150.601V150.601C346.521 150.72 349.751 151.486 352.739 152.857C355.728 154.227 358.417 156.173 360.653 158.585C362.888 160.997 364.626 163.827 365.766 166.912C366.906 169.997 367.427 173.277 367.298 176.563" fill="white"/>
<path d="M375.761 200.198C375.572 205.141 373.922 209.917 371.02 213.923C368.118 217.928 364.095 220.982 359.458 222.7C354.822 224.418 349.781 224.722 344.972 223.574C340.163 222.426 335.802 219.878 332.44 216.251C329.078 212.623 326.866 208.08 326.084 203.196C325.302 198.311 325.985 193.304 328.046 188.808C330.107 184.311 333.454 180.527 337.664 177.934C341.874 175.34 346.758 174.053 351.699 174.236V174.236C358.33 174.487 364.591 177.363 369.103 182.231C373.616 187.1 376.011 193.563 375.761 200.198" fill="white"/>
<path d="M247.869 208.243C247.682 213.618 245.905 218.816 242.763 223.18C239.621 227.543 235.255 230.875 230.218 232.754C225.182 234.633 219.701 234.973 214.471 233.732C209.241 232.491 204.496 229.725 200.839 225.784C197.181 221.843 194.775 216.904 193.925 211.594C193.076 206.283 193.82 200.84 196.065 195.953C198.31 191.066 201.954 186.956 206.536 184.144C211.117 181.331 216.43 179.943 221.801 180.154V180.154C228.989 180.446 235.769 183.577 240.655 188.861C245.541 194.144 248.135 201.15 247.869 208.343V208.343" fill="white"/>
<path d="M274.217 216.068C274.043 220.688 272.504 225.153 269.794 228.897C267.084 232.642 263.325 235.498 258.992 237.105C254.66 238.712 249.948 238.998 245.454 237.925C240.959 236.853 236.883 234.471 233.742 231.08C230.6 227.69 228.534 223.444 227.805 218.879C227.075 214.313 227.715 209.634 229.644 205.433C231.572 201.232 234.703 197.697 238.639 195.276C242.575 192.855 247.141 191.656 251.758 191.831V191.831C254.825 191.948 257.839 192.667 260.628 193.95C263.416 195.232 265.925 197.051 268.011 199.304C270.096 201.556 271.718 204.198 272.783 207.078C273.848 209.958 274.335 213.02 274.217 216.088V216.088" fill="white"/>
<path d="M160.08 180.576C159.954 183.937 158.835 187.184 156.864 189.908C154.893 192.631 152.159 194.708 149.008 195.877C145.856 197.045 142.429 197.251 139.161 196.47C135.892 195.689 132.928 193.954 130.645 191.487C128.362 189.02 126.861 185.93 126.334 182.61C125.806 179.289 126.275 175.886 127.681 172.832C129.087 169.777 131.367 167.209 134.232 165.452C137.097 163.695 140.419 162.828 143.777 162.96C146.003 163.043 148.19 163.564 150.215 164.494C152.239 165.423 154.06 166.742 155.574 168.377C157.088 170.011 158.266 171.928 159.039 174.018C159.812 176.108 160.166 178.33 160.08 180.556V180.556" fill="white"/>
<path d="M123.384 197.268C123.328 198.751 122.833 200.183 121.963 201.385C121.093 202.586 119.887 203.503 118.496 204.018C117.106 204.534 115.594 204.626 114.152 204.282C112.709 203.938 111.401 203.174 110.393 202.086C109.384 200.998 108.72 199.636 108.485 198.171C108.25 196.706 108.455 195.205 109.073 193.856C109.69 192.507 110.694 191.372 111.956 190.594C113.219 189.815 114.684 189.429 116.165 189.484V189.484C118.151 189.562 120.025 190.426 121.375 191.885C122.725 193.345 123.44 195.281 123.364 197.268" fill="white"/>
<path d="M204.756 218.215C204.525 224.43 202.458 230.436 198.815 235.475C195.173 240.514 190.118 244.359 184.291 246.523C178.465 248.688 172.127 249.074 166.081 247.635C160.034 246.195 154.55 242.993 150.323 238.435C146.095 233.876 143.313 228.165 142.33 222.025C141.346 215.884 142.204 209.59 144.796 203.938C147.388 198.285 151.598 193.529 156.891 190.271C162.185 187.012 168.326 185.398 174.537 185.632V185.632C182.841 185.971 190.671 189.592 196.31 195.7C201.948 201.809 204.935 209.906 204.615 218.215V218.215" fill="white"/>
<path d="M130.021 216.516C129.791 222.73 127.723 228.737 124.081 233.776C120.438 238.815 115.384 242.66 109.557 244.824C103.73 246.988 97.3929 247.375 91.3464 245.935C85.2999 244.496 79.816 241.294 75.5883 236.735C71.3605 232.177 68.5789 226.466 67.5953 220.326C66.6116 214.185 67.47 207.891 70.0621 202.238C72.6541 196.586 76.8632 191.83 82.157 188.571C87.4509 185.313 93.5916 183.699 99.8025 183.932V183.932C108.106 184.272 115.936 187.893 121.575 194.001C127.214 200.11 130.201 208.207 129.881 216.516V216.516" fill="white"/>
<path d="M343.799 153.81C343.658 157.236 342.505 160.544 340.486 163.316C338.468 166.088 335.673 168.199 332.456 169.383C329.239 170.567 325.744 170.771 322.411 169.969C319.079 169.167 316.058 167.395 313.732 164.876C311.405 162.358 309.876 159.206 309.338 155.819C308.8 152.432 309.277 148.961 310.709 145.845C312.141 142.729 314.464 140.107 317.384 138.311C320.304 136.515 323.69 135.624 327.115 135.752C329.394 135.843 331.632 136.382 333.702 137.338C335.772 138.295 337.633 139.651 339.179 141.328C340.725 143.005 341.925 144.971 342.711 147.113C343.497 149.254 343.853 151.53 343.759 153.81V153.81" fill="white"/>
<path d="M369.406 142.876C369.334 143.93 368.954 144.939 368.313 145.778C367.672 146.617 366.798 147.248 365.801 147.593C364.804 147.939 363.727 147.982 362.705 147.719C361.683 147.456 360.761 146.898 360.054 146.114C359.347 145.329 358.886 144.354 358.729 143.31C358.573 142.266 358.727 141.199 359.173 140.241C359.618 139.284 360.336 138.479 361.235 137.928C362.135 137.376 363.177 137.101 364.232 137.138C365.676 137.221 367.028 137.87 367.997 138.944C368.965 140.018 369.471 141.431 369.406 142.876Z" fill="white"/>
<path d="M354.968 149.778C354.88 151.669 354.234 153.491 353.113 155.016C351.992 156.54 350.445 157.698 348.667 158.344C346.889 158.991 344.96 159.096 343.122 158.648C341.284 158.199 339.62 157.217 338.34 155.824C337.059 154.431 336.219 152.69 335.925 150.82C335.631 148.951 335.897 147.036 336.688 145.317C337.48 143.598 338.762 142.152 340.374 141.161C341.985 140.169 343.854 139.677 345.744 139.747V139.747C347.008 139.796 348.25 140.095 349.399 140.626C350.547 141.158 351.579 141.912 352.434 142.844C353.29 143.777 353.953 144.87 354.384 146.06C354.815 147.25 355.007 148.514 354.948 149.778V149.778" fill="white"/>
<path d="M326.451 189.163C326.168 196.93 323.588 204.439 319.038 210.739C314.489 217.039 308.173 221.847 300.892 224.554C293.61 227.262 285.689 227.747 278.132 225.949C270.575 224.151 263.72 220.15 258.436 214.452C253.152 208.755 249.676 201.618 248.447 193.943C247.219 186.268 248.293 178.401 251.535 171.338C254.776 164.274 260.039 158.331 266.657 154.261C273.275 150.192 280.951 148.177 288.713 148.474V148.474C293.866 148.668 298.93 149.876 303.616 152.029C308.302 154.182 312.518 157.239 316.023 161.023C319.527 164.807 322.252 169.246 324.042 174.085C325.831 178.923 326.65 184.068 326.451 189.223V189.223" fill="white"/>
<path d="M268.72 193.106C268.482 199.633 266.313 205.943 262.487 211.237C258.662 216.531 253.352 220.571 247.23 222.846C241.108 225.121 234.449 225.529 228.094 224.018C221.74 222.507 215.977 219.145 211.535 214.357C207.092 209.57 204.169 203.572 203.136 197.123C202.103 190.674 203.007 184.063 205.732 178.127C208.457 172.192 212.882 167.198 218.446 163.778C224.011 160.358 230.464 158.665 236.991 158.915C245.739 159.257 253.994 163.057 259.943 169.48C265.892 175.903 269.048 184.425 268.72 193.174V193.174" fill="white"/>
<path d="M349.272 204.651C348.924 213.796 345.873 222.632 340.506 230.042C335.139 237.452 327.697 243.103 319.12 246.28C310.543 249.458 301.217 250.019 292.321 247.892C283.425 245.766 275.359 241.048 269.144 234.335C262.928 227.622 258.842 219.215 257.401 210.178C255.961 201.141 257.231 191.879 261.052 183.565C264.873 175.25 271.072 168.256 278.865 163.467C286.659 158.678 295.697 156.308 304.836 156.659C317.087 157.134 328.648 162.456 336.98 171.454C345.311 180.453 349.732 192.393 349.272 204.651V204.651Z" fill="white"/>
<path d="M86.5682 209.247C86.3814 214.622 84.6044 219.82 81.4621 224.184C78.3199 228.547 73.9539 231.879 68.9173 233.758C63.8808 235.637 58.4002 235.977 53.1701 234.736C47.9399 233.495 43.1956 230.729 39.5381 226.788C35.8805 222.847 33.4745 217.908 32.6247 212.598C31.7749 207.287 32.5196 201.844 34.7645 196.957C37.0094 192.07 40.6535 187.96 45.235 185.148C49.8165 182.335 55.1293 180.946 60.5003 181.158V181.158C64.0623 181.295 67.5624 182.133 70.8005 183.624C74.0387 185.115 76.9514 187.23 79.3723 189.848C81.7932 192.465 83.6748 195.535 84.9095 198.881C86.1442 202.227 86.7078 205.783 86.5682 209.347" fill="white"/>
<path d="M113.478 188.139C113.183 195.903 110.594 203.406 106.037 209.697C101.48 215.989 95.1615 220.787 87.8793 223.486C80.5971 226.184 72.6788 226.661 65.1257 224.856C57.5726 223.052 50.7239 219.046 45.4458 213.347C40.1677 207.648 36.6972 200.511 35.4732 192.838C34.2492 185.165 35.3267 177.302 38.5694 170.241C41.8121 163.181 47.0744 157.242 53.6908 153.175C60.3071 149.107 67.9804 147.094 75.7403 147.39C86.1433 147.792 95.9613 152.31 103.037 159.95C110.114 167.591 113.869 177.73 113.478 188.139V188.139Z" fill="white"/>
<path d="M54.5255 198.491C54.3191 203.861 52.5256 209.049 49.372 213.399C46.2184 217.749 41.8463 221.065 36.8087 222.928C31.7712 224.792 26.2945 225.118 21.0715 223.867C15.8484 222.615 11.1137 219.842 7.46619 215.897C3.81868 211.953 1.42226 207.015 0.58006 201.707C-0.26214 196.4 0.487719 190.962 2.73479 186.081C4.98185 181.2 8.62517 177.096 13.2039 174.287C17.7826 171.479 23.091 170.092 28.4576 170.302C35.6496 170.584 42.4353 173.712 47.3235 178.998C52.2116 184.284 54.8021 191.295 54.5255 198.491V198.491Z" fill="white"/>
<path d="M336.199 200.348C336.113 202.429 335.413 204.437 334.186 206.121C332.958 207.804 331.26 209.086 329.304 209.805C327.349 210.524 325.224 210.648 323.199 210.161C321.173 209.673 319.337 208.597 317.922 207.068C316.508 205.539 315.579 203.625 315.252 201.568C314.925 199.511 315.215 197.403 316.085 195.511C316.956 193.619 318.367 192.027 320.142 190.936C321.917 189.845 323.976 189.305 326.058 189.382C327.443 189.437 328.803 189.765 330.062 190.345C331.32 190.926 332.451 191.75 333.391 192.768C334.33 193.787 335.06 194.98 335.538 196.281C336.015 197.581 336.232 198.963 336.175 200.348V200.348" fill="white"/>
<path d="M207.668 209.339C207.462 214.709 205.668 219.897 202.515 224.247C199.361 228.597 194.989 231.913 189.951 233.776C184.914 235.639 179.437 235.966 174.214 234.714C168.991 233.463 164.256 230.689 160.609 226.745C156.961 222.801 154.565 217.862 153.723 212.555C152.88 207.248 153.63 201.81 155.877 196.929C158.124 192.048 161.768 187.944 166.346 185.135C170.925 182.326 176.234 180.939 181.6 181.15C188.792 181.432 195.578 184.559 200.466 189.845C205.354 195.131 207.945 202.143 207.668 209.339Z" fill="white"/>
<path d="M193.552 210.046C193.207 218.986 190.221 227.625 184.97 234.867C179.72 242.11 172.441 247.633 164.054 250.737C155.667 253.841 146.548 254.387 137.851 252.306C129.153 250.226 121.268 245.611 115.192 239.047C109.115 232.482 105.12 224.262 103.712 215.426C102.304 206.59 103.547 197.535 107.282 189.405C111.017 181.275 117.077 174.436 124.697 169.753C132.316 165.069 141.152 162.751 150.088 163.091V163.091C162.068 163.549 173.375 168.746 181.525 177.543C189.675 186.339 194.001 198.013 193.552 209.999V209.999" fill="white"/>
<path d="M240.564 185.143C240.656 188.479 239.758 191.767 237.982 194.592C236.206 197.417 233.633 199.652 230.588 201.013C227.543 202.374 224.162 202.801 220.874 202.24C217.586 201.679 214.539 200.154 212.116 197.86C209.694 195.565 208.007 192.603 207.267 189.349C206.527 186.095 206.769 182.694 207.961 179.577C209.153 176.461 211.243 173.768 213.965 171.839C216.687 169.911 219.919 168.834 223.254 168.744C227.722 168.624 232.055 170.283 235.301 173.358C238.547 176.433 240.44 180.672 240.564 185.143V185.143Z" fill="white"/>
<path d="M218.074 111.193C215.121 112.265 212.717 114.475 211.404 117.333C210.091 120.19 209.956 123.443 211.057 126.387L211.105 126.522C212.176 129.476 214.387 131.87 217.244 133.192C220.092 134.515 223.355 134.64 226.299 133.54L262.594 120.19L254.351 97.7754L218.074 111.193Z" fill="#F4B789"/>
<path d="M243.076 101.193L251.32 123.608L260.123 120.374C266.176 118.009 269.226 111.232 266.987 105.132C264.747 99.0309 258.029 95.8454 251.88 97.9594L243.076 101.193V101.193Z" fill="#26114D"/>
<path d="M136.727 185.608H86.1738L89.1952 157.189H119.892L120.452 165.095C129.439 165.095 136.717 172.383 136.727 181.37V185.608Z" fill="#3C295F"/>
<path d="M233.519 128V141.573H309.788V128C309.788 108.511 294.883 92.6895 273.029 92.6895C251.174 92.6895 233.461 108.511 233.461 128H233.509H233.519Z" fill="#1AC9E6"/>
<path d="M309.652 141.428H233.055V157.191H309.652V141.428Z" fill="#26114D"/>
<path d="M162.653 111.955C165.607 113.026 168.01 115.237 169.323 118.094C170.645 120.942 170.771 124.205 169.671 127.149L169.622 127.284C168.551 130.238 166.34 132.632 163.483 133.954C160.635 135.277 157.373 135.402 154.428 134.302L118.133 120.952L126.377 98.5371L162.653 111.955V111.955Z" fill="#F4B789"/>
<path d="M145.951 105.691L137.709 128.105L150.782 132.913L159.025 110.499L145.951 105.691Z" fill="#26114D"/>
<path d="M134.612 101.578L126.368 123.992L117.565 120.759C111.512 118.394 108.462 111.617 110.701 105.516C112.95 99.4157 119.659 96.2302 125.808 98.3442L134.612 101.578Z" fill="#F9FAFB"/>
<path d="M107.7 185.608H57.1465L60.1679 157.189H90.8646L91.4245 165.095C100.412 165.095 107.69 172.383 107.7 181.37V185.608Z" fill="#26114D"/>
<path d="M227.34 185.608H277.893L274.872 157.189H244.175L243.615 165.095C234.628 165.095 227.349 172.383 227.34 181.37V185.608V185.608Z" fill="#3C295F"/>
<path d="M256.367 185.608H306.92L303.899 157.189H273.202L272.642 165.095C263.655 165.095 256.377 172.383 256.367 181.37V185.608Z" fill="#26114D"/>
<path d="M129.245 128V141.573H49.916V128C49.916 108.511 67.6777 92.6895 89.5998 92.6895C111.522 92.6895 129.284 108.511 129.284 128H129.235H129.245Z" fill="#F5CB03"/>
<path d="M50.0527 141.428H129.71V157.191H50.0527V141.428Z" fill="#26114D"/>
<path d="M177.191 87.6974H169.488C163.165 87.6974 157.103 85.1876 152.634 80.7182C148.164 76.2489 145.655 70.1868 145.655 63.864L143 63.7578V71.1038C143 89.9852 158.31 105.285 177.182 105.285" fill="#F9FAFB"/>
<path d="M154.883 114.128C154.883 97.3315 168.494 83.7207 185.29 83.7207C202.086 83.7207 215.697 97.3315 215.697 114.128H154.883Z" fill="#26114D"/>
<path d="M191.342 96.4427C191.342 101.308 195.28 105.246 200.145 105.246H200.3C219.181 105.246 234.481 89.9461 234.481 71.0647V63.7188L231.827 63.8249C231.827 70.1477 229.317 76.2098 224.847 80.6792C220.378 85.1486 214.316 87.6584 207.993 87.6584H200.136C195.27 87.6584 191.332 91.5968 191.332 96.4619L191.342 96.4427Z" fill="#F9FAFB"/>
<path d="M220.35 92.5918C214.432 98.4126 206.884 101.569 199.074 101.569H191.217" stroke="#514171" stroke-width="1.13906"/>
<path d="M221.875 114.127H148.715V126.521H221.875V114.127Z" fill="#F9FAFB"/>
<path d="M144.227 136.659C150.656 138.56 157.413 134.902 159.334 128.483L159.382 128.328C160.299 125.23 159.942 121.899 158.398 119.061C156.853 116.223 154.247 114.119 151.148 113.202L147.384 112.082L140.414 135.52L144.227 136.659V136.659Z" fill="#FFC494"/>
<path d="M133.778 107.991L126.791 131.473L140.54 135.563L147.527 112.081L133.778 107.991Z" fill="#26114D"/>
<path d="M133.608 107.979C127.42 106.135 110.836 103.848 105.15 106.917C99.4744 109.997 105.17 118.182 103.326 124.37L103.278 124.524L126.812 131.523L133.801 108.037L133.598 107.979H133.608Z" fill="#FFC494"/>
<path d="M110.933 101.241L120.171 103.973L113.23 127.468L103.992 124.736C99.8026 123.501 96.5978 120.122 95.5745 115.875C94.5513 111.628 95.8738 107.158 99.04 104.156C102.206 101.144 106.733 100.054 110.923 101.289L110.942 101.241H110.933Z" fill="#F9FAFB"/>
<path d="M117.547 95.5075V62.6484H123.619V109.891L117.547 95.4978V95.5075Z" fill="#26114D"/>
<path d="M99.0801 23.9689H106.783C113.106 23.9689 119.168 21.4591 123.637 16.9897C128.107 12.5204 130.617 6.45824 130.617 0.135481L133.271 0.0292969V7.37528C133.271 26.2567 117.961 41.5568 99.0897 41.5568" fill="#F9FAFB"/>
<path d="M119.485 62.8516H62.3965V78.1613H119.485V62.8516Z" fill="#FFC494"/>
<path d="M115.461 76.4717C117.658 76.4717 119.439 74.6911 119.439 72.4947C119.439 70.2982 117.658 68.5176 115.461 68.5176C113.265 68.5176 111.484 70.2982 111.484 72.4947C111.484 74.6911 113.265 76.4717 115.461 76.4717Z" fill="#FFE1C9"/>
<path d="M121.379 50.3993C121.379 33.603 107.768 19.9922 90.9716 19.9922C74.1753 19.9922 60.5645 33.603 60.5645 50.3993H121.379Z" fill="#26114D"/>
<path d="M106.609 50.4082H94.2148V71.9345H106.609V50.4082Z" fill="#F9FAFB"/>
<path d="M100.452 78.1018C100.452 74.6943 97.6909 71.9238 94.2737 71.9238C90.8661 71.9238 88.0957 74.6846 88.0957 78.1018H100.442H100.452Z" fill="#26114D"/>
<path d="M112.749 78.1018C112.749 74.6943 109.988 71.9238 106.571 71.9238C103.163 71.9238 100.393 74.6846 100.393 78.1018H112.739H112.749Z" fill="#26114D"/>
<path d="M85.1509 76.4717C87.3474 76.4717 89.128 74.6911 89.128 72.4947C89.128 70.2982 87.3474 68.5176 85.1509 68.5176C82.9544 68.5176 81.1738 70.2982 81.1738 72.4947C81.1738 74.6911 82.9544 76.4717 85.1509 76.4717Z" fill="#FFE1C9"/>
<path d="M81.2793 78.1035C81.2793 105.2 100.412 116.011 100.412 116.011C100.412 116.011 119.592 103.559 119.592 78.1035H81.2793V78.1035Z" fill="#26114D"/>
<path d="M84.9188 32.7239C84.9188 37.589 80.9804 41.5275 76.1153 41.5275H75.9608C57.0794 41.5275 41.7793 26.2274 41.7793 7.34598V0L44.4339 0.106184C44.4339 6.42894 46.9437 12.4911 51.4131 16.9604C55.8824 21.4298 61.9445 23.9396 68.2673 23.9396H76.1249C80.99 23.9396 84.9285 27.878 84.9285 32.7432L84.9188 32.7239Z" fill="#F9FAFB"/>
<path d="M55.9121 28.873C61.8294 34.6938 69.3781 37.8504 77.1875 37.8504H85.0451" stroke="#514171" stroke-width="1.13906"/>
<path d="M79.8413 78.1602H88.1623C88.1623 99.5418 72.0899 109.948 72.0899 109.948C72.0899 109.948 56.0176 100.864 56.0176 78.1602V57.3965H67.6978V66.0167C67.7171 72.7159 73.1421 78.1409 79.8413 78.1602V78.1602Z" fill="#26114D"/>
<path d="M127.547 50.3984H54.3867V62.793H127.547V50.3984Z" fill="#F9FAFB"/>
<path d="M96.7813 55.3496H81.375V57.8497H96.7813V55.3496Z" fill="#26114D"/>
<path d="M119.332 55.3496H103.926V57.8497H119.332V55.3496Z" fill="#26114D"/>
<path d="M123.617 78.1035V109.891C123.617 109.891 107.545 100.808 107.545 78.1035H123.617Z" fill="#26114D"/>
<path d="M71.5295 101.879C61.0173 91.3672 61.2779 78.3066 61.2779 78.3066" stroke="#514171" stroke-width="1.13906"/>
<path d="M107.604 67.2907C107.604 65.1477 109.341 63.4102 111.484 63.4102C113.627 63.4102 115.365 65.1477 115.365 67.2907H107.604V67.2907Z" fill="#26114D"/>
<path d="M85.5645 67.2907C85.5645 65.1477 87.302 63.4102 89.445 63.4102C91.588 63.4102 93.3255 65.1477 93.3255 67.2907H85.5645V67.2907Z" fill="#26114D"/>
<path d="M107.605 78.334C107.605 82.2145 104.419 85.4 100.539 85.4C96.6582 85.4 93.4727 82.2145 93.4727 78.334H107.605V78.334Z" fill="white"/>
<path d="M253.316 70.4766C253.316 73.3532 250.98 75.6892 248.103 75.6892C245.227 75.6892 242.891 73.3532 242.891 70.4766H253.316V70.4766Z" fill="#F56F0D"/>
<path d="M253.268 53.0039H242.891V70.4759H253.268V53.0039Z" fill="#F56F0D"/>
<path d="M301.485 46.0449H244.396V66.9921H301.485V46.0449Z" fill="#FFC494"/>
<path d="M242.506 55.3505C242.506 38.5542 256.117 24.9434 272.913 24.9434C289.709 24.9434 303.32 38.5542 303.32 55.3505H242.506Z" fill="#F56F0D"/>
<path d="M301.484 65.0137C301.484 80.7578 288.722 93.5192 272.978 93.5192C257.234 93.5192 244.473 80.7578 244.473 65.0137H301.493H301.484Z" fill="#FFC494"/>
<path d="M278.606 76.4717C280.802 76.4717 282.583 74.6911 282.583 72.4947C282.583 70.2982 280.802 68.5176 278.606 68.5176C276.409 68.5176 274.629 70.2982 274.629 72.4947C274.629 74.6911 276.409 76.4717 278.606 76.4717Z" fill="#FFE1C9"/>
<path d="M282.631 58.7383H274.57V61.2384H282.631V58.7383Z" fill="#26114D"/>
<path d="M261.289 58.7383H253.229V61.2384H261.289V58.7383Z" fill="#26114D"/>
<path d="M260.091 67.2907C260.091 65.1477 258.354 63.4102 256.211 63.4102C254.068 63.4102 252.33 65.1477 252.33 67.2907H260.091V67.2907Z" fill="#26114D"/>
<path d="M282.12 67.2907C282.12 65.1477 280.383 63.4102 278.24 63.4102C276.097 63.4102 274.359 65.1477 274.359 67.2907H282.12V67.2907Z" fill="#26114D"/>
<path d="M260.092 74.8008C260.092 78.6813 263.277 81.8668 267.158 81.8668C271.038 81.8668 274.224 78.6813 274.224 74.8008H260.092Z" fill="white"/>
<path d="M254.879 76.4717C257.076 76.4717 258.856 74.6911 258.856 72.4947C258.856 70.2982 257.076 68.5176 254.879 68.5176C252.683 68.5176 250.902 70.2982 250.902 72.4947C250.902 74.6911 252.683 76.4717 254.879 76.4717Z" fill="#FFE1C9"/>
<path d="M303.328 70.4766C303.328 73.3532 300.992 75.6892 298.115 75.6892C295.238 75.6892 292.902 73.3532 292.902 70.4766H303.328V70.4766Z" fill="#F56F0D"/>
<path d="M303.279 55.3496H292.902V70.476H303.279V55.3496Z" fill="#F56F0D"/>
<path d="M292.4 65.0136C295.016 65.0136 297.14 67.1372 297.14 69.7532C297.14 72.3692 295.016 74.4929 292.4 74.4929V65.0039V65.0136Z" fill="#FFC494"/>
<path d="M234.502 55.3502C234.502 48.6221 239.956 43.1777 246.674 43.1777C253.403 43.1777 258.847 48.6317 258.847 55.3502H234.492H234.502Z" fill="#F56F0D"/>
<path d="M236.809 39.8566C240.342 34.1324 247.842 32.3562 253.566 35.8892C259.291 39.4222 261.067 46.9227 257.534 52.6469L236.809 39.8566Z" fill="#F56F0D"/>
<path d="M234.504 141.07C228.683 144.043 221.559 141.746 218.576 135.925L218.508 135.79C217.08 132.99 216.819 129.728 217.794 126.735C218.769 123.743 220.893 121.262 223.692 119.833L227.1 118.086L237.959 139.294L234.504 141.06V141.07Z" fill="#FFC494"/>
<path d="M239.605 111.622L227.164 117.994L238.051 139.25L250.492 132.878L239.605 111.622Z" fill="#FFC494"/>
<path d="M239.386 112.362C244.985 109.495 260.469 104.331 266.454 106.271C272.439 108.202 268.452 117.063 271.309 122.672L271.377 122.807L250.459 132.952L239.57 111.696L239.367 112.362H239.386Z" fill="#FFC494"/>
<path d="M258.231 102.961L249.871 107.227L260.711 128.503L269.071 124.236C272.865 122.305 275.336 118.492 275.558 114.245C275.78 109.998 273.714 105.953 270.152 103.627C266.581 101.31 262.044 101.069 258.26 103.009L258.24 102.961H258.231Z" fill="#26114D"/>
<path d="M237.84 197.978C237.633 203.348 235.84 208.536 232.686 212.885C229.533 217.235 225.161 220.551 220.123 222.415C215.086 224.278 209.609 224.604 204.386 223.353C199.163 222.101 194.428 219.328 190.781 215.384C187.133 211.439 184.737 206.501 183.895 201.194C183.052 195.886 183.802 190.448 186.049 185.568C188.296 180.687 191.94 176.582 196.518 173.774C201.097 170.965 206.405 169.578 211.772 169.788C218.964 170.07 225.75 173.198 230.638 178.484C235.526 183.77 238.116 190.782 237.84 197.978Z" fill="white"/>
<path d="M313.038 194.701C312.878 198.878 311.482 202.914 309.029 206.298C306.575 209.683 303.174 212.263 299.255 213.712C295.336 215.162 291.075 215.416 287.012 214.442C282.948 213.468 279.265 211.311 276.427 208.242C273.589 205.173 271.725 201.332 271.07 197.203C270.415 193.074 270.998 188.843 272.746 185.046C274.494 181.249 277.329 178.056 280.891 175.871C284.453 173.685 288.583 172.606 292.758 172.77C298.353 172.989 303.632 175.423 307.435 179.535C311.238 183.647 313.253 189.102 313.038 194.701Z" fill="white"/>
<path d="M286.616 205.857C286.456 210.035 285.06 214.071 282.607 217.455C280.154 220.839 276.752 223.419 272.833 224.868C268.914 226.318 264.653 226.572 260.59 225.598C256.526 224.625 252.843 222.467 250.005 219.398C247.168 216.33 245.303 212.488 244.648 208.359C243.993 204.23 244.576 199.999 246.324 196.202C248.073 192.405 250.907 189.212 254.469 187.027C258.031 184.842 262.161 183.763 266.336 183.926C271.931 184.146 277.21 186.579 281.013 190.691C284.816 194.804 286.831 200.259 286.616 205.857Z" fill="white"/>
<path d="M95.5127 201.435C95.3521 205.613 93.9569 209.649 91.5034 213.033C89.05 216.417 85.6486 218.997 81.7295 220.446C77.8104 221.896 73.5497 222.15 69.4863 221.176C65.4229 220.203 61.7394 218.045 58.9018 214.976C56.0641 211.908 54.1998 208.066 53.5445 203.937C52.8893 199.808 53.4727 195.578 55.2209 191.78C56.969 187.983 59.8034 184.79 63.3656 182.605C66.9277 180.42 71.0575 179.341 75.2326 179.504C80.8277 179.724 86.1069 182.157 89.9098 186.269C93.7126 190.382 95.7279 195.837 95.5127 201.435Z" fill="white"/>
<path d="M125.452 198.259C125.292 202.437 123.896 206.473 121.443 209.857C118.989 213.241 115.588 215.821 111.669 217.271C107.75 218.72 103.489 218.974 99.4258 218.001C95.3624 217.027 91.6789 214.869 88.8412 211.801C86.0036 208.732 84.1392 204.89 83.484 200.761C82.8288 196.632 83.4121 192.402 85.1603 188.605C86.9085 184.807 89.7429 181.614 93.305 179.429C96.8671 177.244 100.997 176.165 105.172 176.329C110.767 176.548 116.046 178.981 119.849 183.094C123.652 187.206 125.667 192.661 125.452 198.259Z" fill="white"/>
<path d="M167.286 201.886C167.126 206.064 165.73 210.1 163.277 213.484C160.823 216.868 157.422 219.448 153.503 220.898C149.584 222.347 145.323 222.601 141.26 221.627C137.196 220.654 133.513 218.496 130.675 215.428C127.838 212.359 125.973 208.517 125.318 204.388C124.663 200.259 125.246 196.029 126.994 192.232C128.742 188.434 131.577 185.241 135.139 183.056C138.701 180.871 142.831 179.792 147.006 179.956C152.601 180.175 157.88 182.608 161.683 186.721C165.486 190.833 167.501 196.288 167.286 201.886Z" fill="white"/>
</svg>
