<svg width="308" height="236" viewBox="0 0 308 236" fill="none" xmlns="http://www.w3.org/2000/svg">
<g clip-path="url(#clip0_3018_206918)">
<path d="M37.8637 165.045C37.7624 167.74 36.8647 170.344 35.2841 172.528C33.7035 174.712 31.511 176.378 28.9839 177.315C26.4569 178.252 23.7088 178.418 21.0875 177.792C18.4661 177.166 16.0892 175.776 14.2575 173.798C12.4257 171.82 11.2215 169.343 10.797 166.68C10.3725 164.017 10.747 161.288 11.8729 158.838C12.9989 156.388 14.8257 154.328 17.1224 152.917C19.4191 151.506 22.0824 150.809 24.7754 150.912C28.3805 151.056 31.7814 152.625 34.232 155.274C36.6825 157.924 37.9826 161.438 37.8469 165.045" fill="white"/>
<path d="M206.42 201.313C206.264 205.794 204.783 210.127 202.164 213.765C199.544 217.402 195.905 220.18 191.706 221.746C187.508 223.312 182.939 223.596 178.579 222.561C174.219 221.527 170.265 219.221 167.216 215.936C164.167 212.651 162.161 208.534 161.453 204.107C160.744 199.68 161.365 195.142 163.236 191.069C165.108 186.995 168.145 183.569 171.965 181.224C175.784 178.88 180.213 177.722 184.69 177.898V177.898C190.682 178.142 196.333 180.752 200.406 185.156C204.479 189.561 206.642 195.401 206.42 201.397V201.397" fill="white"/>
<path d="M228.385 207.835C228.24 211.686 226.956 215.408 224.697 218.53C222.438 221.651 219.305 224.032 215.693 225.372C212.082 226.711 208.154 226.949 204.408 226.055C200.661 225.161 197.263 223.175 194.645 220.349C192.026 217.523 190.303 213.983 189.695 210.178C189.087 206.372 189.621 202.472 191.228 198.969C192.836 195.467 195.446 192.521 198.727 190.503C202.008 188.484 205.814 187.485 209.663 187.631V187.631C212.22 187.728 214.732 188.328 217.057 189.397C219.381 190.466 221.472 191.982 223.211 193.86C224.95 195.738 226.301 197.94 227.189 200.341C228.077 202.742 228.483 205.294 228.385 207.852V207.852" fill="white"/>
<path d="M133.24 178.248C133.135 181.049 132.202 183.756 130.559 186.027C128.916 188.297 126.637 190.029 124.01 191.003C121.383 191.976 118.527 192.149 115.802 191.497C113.077 190.846 110.607 189.4 108.703 187.344C106.8 185.287 105.549 182.711 105.109 179.943C104.669 177.175 105.06 174.338 106.232 171.792C107.404 169.246 109.305 167.106 111.693 165.641C114.082 164.176 116.851 163.453 119.65 163.564C121.505 163.633 123.329 164.067 125.016 164.842C126.704 165.616 128.222 166.716 129.484 168.079C130.746 169.441 131.728 171.039 132.372 172.781C133.017 174.523 133.311 176.375 133.24 178.232V178.232" fill="white"/>
<path d="M102.649 192.163C102.602 193.399 102.19 194.594 101.465 195.595C100.739 196.597 99.7337 197.361 98.5746 197.79C97.4156 198.22 96.1552 198.297 94.9528 198.01C93.7504 197.723 92.6599 197.086 91.8192 196.18C90.9784 195.273 90.4252 194.137 90.2294 192.916C90.0335 191.695 90.2039 190.443 90.7189 189.319C91.2339 188.195 92.0705 187.248 93.1229 186.599C94.1753 185.951 95.3962 185.629 96.6315 185.674V185.674C98.287 185.739 99.8489 186.46 100.974 187.676C102.099 188.893 102.696 190.507 102.632 192.163" fill="white"/>
<path d="M170.482 209.625C170.29 214.806 168.566 219.813 165.53 224.013C162.493 228.214 158.28 231.419 153.423 233.223C148.566 235.027 143.283 235.35 138.242 234.15C133.202 232.949 128.631 230.281 125.106 226.48C121.582 222.68 119.263 217.92 118.443 212.801C117.623 207.683 118.339 202.436 120.5 197.724C122.66 193.012 126.169 189.047 130.582 186.331C134.995 183.615 140.114 182.269 145.291 182.464V182.464C152.213 182.747 158.741 185.765 163.441 190.857C168.142 195.949 170.632 202.699 170.365 209.625V209.625" fill="white"/>
<path d="M108.183 208.207C107.991 213.388 106.267 218.395 103.231 222.595C100.194 226.796 95.9811 230.001 91.1239 231.805C86.2667 233.609 80.9839 233.932 75.9435 232.732C70.9032 231.531 66.3318 228.863 62.8076 225.063C59.2833 221.263 56.9646 216.502 56.1446 211.383C55.3246 206.265 56.0402 201.018 58.2009 196.306C60.3616 191.594 63.8703 187.629 68.2833 184.913C72.6962 182.197 77.8151 180.851 82.9926 181.046V181.046C89.9146 181.329 96.4418 184.347 101.142 189.439C105.843 194.531 108.333 201.281 108.066 208.207V208.207" fill="white"/>
<path d="M290.06 169.684C289.942 172.54 288.981 175.298 287.299 177.608C285.616 179.919 283.287 181.679 280.605 182.666C277.923 183.653 275.01 183.823 272.231 183.154C269.453 182.485 266.936 181.008 264.996 178.909C263.056 176.81 261.782 174.182 261.333 171.359C260.885 168.535 261.283 165.642 262.476 163.045C263.67 160.447 265.606 158.262 268.04 156.764C270.474 155.267 273.297 154.525 276.153 154.631C278.052 154.707 279.918 155.156 281.643 155.953C283.369 156.751 284.92 157.881 286.209 159.279C287.497 160.677 288.498 162.316 289.153 164.101C289.808 165.886 290.105 167.783 290.026 169.684V169.684" fill="white"/>
<path d="M261.487 193.102C261.251 199.577 259.1 205.837 255.308 211.088C251.515 216.34 246.25 220.348 240.18 222.605C234.11 224.861 227.508 225.266 221.208 223.767C214.908 222.268 209.194 218.933 204.789 214.184C200.385 209.434 197.487 203.485 196.463 197.087C195.439 190.689 196.334 184.131 199.036 178.243C201.738 172.355 206.125 167.401 211.642 164.008C217.159 160.616 223.558 158.937 230.028 159.184V159.184C234.324 159.346 238.545 160.353 242.451 162.148C246.358 163.943 249.872 166.49 252.793 169.645C255.715 172.8 257.987 176.5 259.478 180.533C260.97 184.567 261.653 188.855 261.487 193.153V193.153" fill="white"/>
<path d="M218.515 195.079C218.317 200.52 216.508 205.779 213.32 210.192C210.131 214.605 205.705 217.973 200.601 219.87C195.498 221.766 189.946 222.106 184.65 220.847C179.353 219.587 174.549 216.784 170.845 212.794C167.142 208.803 164.705 203.803 163.844 198.427C162.983 193.051 163.736 187.54 166.008 182.592C168.28 177.644 171.968 173.482 176.607 170.631C181.245 167.78 186.625 166.369 192.066 166.577C199.358 166.862 206.239 170.03 211.198 175.384C216.157 180.738 218.789 187.842 218.515 195.135V195.135" fill="white"/>
<path d="M290.951 198.32C290.661 205.943 288.118 213.308 283.644 219.485C279.17 225.662 272.966 230.373 265.816 233.022C258.666 235.67 250.892 236.138 243.477 234.366C236.061 232.593 229.338 228.66 224.156 223.064C218.975 217.468 215.568 210.46 214.368 202.927C213.167 195.394 214.226 187.673 217.411 180.742C220.596 173.811 225.763 167.981 232.26 163.988C238.757 159.996 246.291 158.021 253.909 158.313C264.121 158.71 273.759 163.146 280.704 170.647C287.65 178.148 291.335 188.101 290.951 198.32V198.32Z" fill="white"/>
<path d="M71.961 202.149C71.8053 206.63 70.3239 210.963 67.7046 214.601C65.0852 218.238 61.4457 221.016 57.2472 222.582C53.0487 224.148 48.4801 224.432 44.1203 223.397C39.7605 222.363 35.8055 220.057 32.7566 216.772C29.7077 213.487 27.702 209.37 26.9936 204.943C26.2853 200.516 26.9061 195.978 28.7774 191.905C30.6488 187.831 33.6865 184.405 37.5056 182.06C41.3248 179.716 45.7535 178.558 50.2308 178.734V178.734C53.2 178.848 56.1177 179.547 58.817 180.79C61.5164 182.033 63.9444 183.796 65.9625 185.978C67.9805 188.16 69.549 190.719 70.5783 193.508C71.6075 196.297 72.0774 199.262 71.961 202.233" fill="white"/>
<path d="M94.3914 184.555C94.1453 191.027 91.9866 197.281 88.1882 202.526C84.3898 207.771 79.1223 211.77 73.0519 214.02C66.9815 216.269 60.3807 216.667 54.0845 215.162C47.7882 213.658 42.0791 210.319 37.6793 205.568C33.2795 200.817 30.3865 194.868 29.3662 188.472C28.3459 182.076 29.244 175.521 31.9472 169.635C34.6503 163.75 39.0369 158.799 44.5523 155.408C50.0677 152.018 56.4642 150.34 62.9328 150.586C71.6047 150.921 79.7891 154.687 85.6877 161.057C91.5863 167.426 94.7168 175.878 94.3914 184.555V184.555Z" fill="white"/>
<path d="M45.2489 193.184C45.0769 197.66 43.5819 201.985 40.953 205.611C38.3241 209.237 34.6795 212.001 30.4802 213.555C26.2809 215.108 21.7156 215.38 17.3617 214.337C13.0077 213.293 9.06087 210.982 6.02031 207.694C2.97974 204.405 0.982081 200.289 0.280023 195.865C-0.422036 191.441 0.203047 186.908 2.0762 182.839C3.94936 178.77 6.98643 175.349 10.8032 173.007C14.6201 170.666 19.0452 169.51 23.5188 169.685C29.514 169.92 35.1706 172.528 39.2454 176.934C43.3201 181.34 45.4795 187.185 45.2489 193.184V193.184Z" fill="white"/>
<path d="M183.595 192.293C183.423 196.77 181.928 201.094 179.299 204.72C176.67 208.346 173.025 211.111 168.826 212.664C164.627 214.217 160.061 214.489 155.707 213.446C151.353 212.403 147.407 210.091 144.366 206.803C141.325 203.515 139.328 199.398 138.626 194.974C137.924 190.55 138.549 186.017 140.422 181.948C142.295 177.88 145.332 174.458 149.149 172.117C152.966 169.775 157.391 168.619 161.864 168.795C167.86 169.03 173.516 171.637 177.591 176.043C181.666 180.45 183.825 186.295 183.595 192.293Z" fill="white"/>
<path d="M172.909 202.227C172.737 206.703 171.242 211.028 168.613 214.654C165.984 218.28 162.34 221.044 158.14 222.598C153.941 224.151 149.376 224.423 145.022 223.38C140.668 222.336 136.721 220.025 133.68 216.736C130.64 213.448 128.642 209.332 127.94 204.908C127.238 200.484 127.863 195.951 129.736 191.882C131.61 187.813 134.647 184.392 138.463 182.05C142.28 179.709 146.705 178.553 151.179 178.728C157.174 178.963 162.831 181.571 166.905 185.977C170.98 190.383 173.14 196.228 172.909 202.227Z" fill="white"/>
<path d="M145.58 199.396C145.331 205.867 143.169 212.119 139.369 217.362C135.569 222.604 130.3 226.602 124.23 228.848C118.159 231.095 111.559 231.49 105.264 229.984C98.9689 228.478 93.2615 225.138 88.8633 220.387C84.4651 215.635 81.5738 209.686 80.5547 203.29C79.5356 196.895 80.4347 190.341 83.1382 184.456C85.8416 178.572 90.2281 173.622 95.7431 170.232C101.258 166.842 107.654 165.164 114.122 165.41V165.41C122.792 165.741 130.976 169.504 136.875 175.87C142.775 182.237 145.906 190.687 145.58 199.362V199.362" fill="white"/>
<g clip-path="url(#clip1_3018_206918)">
<path d="M264.336 204.876C264.191 208.727 262.908 212.449 260.649 215.571C258.39 218.692 255.256 221.073 251.645 222.413C248.033 223.752 244.105 223.99 240.359 223.096C236.612 222.202 233.214 220.217 230.596 217.39C227.977 214.564 226.255 211.024 225.647 207.219C225.038 203.413 225.572 199.513 227.18 196.01C228.787 192.508 231.397 189.562 234.678 187.544C237.96 185.525 241.765 184.526 245.614 184.672V184.672C248.171 184.769 250.683 185.369 253.008 186.438C255.332 187.507 257.424 189.024 259.162 190.901C260.901 192.779 262.253 194.981 263.14 197.382C264.028 199.783 264.434 202.335 264.336 204.893V204.893" fill="white"/>
<path d="M154.076 189.291C153.971 192.092 153.038 194.799 151.395 197.07C149.752 199.34 147.473 201.072 144.846 202.046C142.219 203.019 139.362 203.192 136.638 202.54C133.913 201.889 131.443 200.443 129.539 198.387C127.636 196.33 126.385 193.754 125.945 190.986C125.505 188.218 125.896 185.381 127.068 182.835C128.24 180.289 130.141 178.149 132.529 176.684C134.918 175.219 137.687 174.496 140.486 174.607C142.341 174.676 144.165 175.11 145.852 175.885C147.54 176.659 149.058 177.759 150.32 179.122C151.582 180.484 152.564 182.082 153.208 183.824C153.853 185.566 154.147 187.418 154.076 189.275V189.275" fill="white"/>
<path d="M138.602 189.204C138.555 190.44 138.143 191.635 137.418 192.636C136.692 193.638 135.687 194.402 134.528 194.831C133.369 195.261 132.108 195.338 130.906 195.051C129.704 194.764 128.613 194.127 127.772 193.221C126.932 192.314 126.378 191.178 126.182 189.957C125.987 188.736 126.157 187.484 126.672 186.36C127.187 185.236 128.024 184.289 129.076 183.64C130.128 182.992 131.349 182.67 132.585 182.715V182.715C134.24 182.78 135.802 183.501 136.927 184.717C138.052 185.934 138.649 187.548 138.585 189.204" fill="white"/>
<path d="M183.316 195.118C183.124 200.298 181.4 205.305 178.364 209.506C175.327 213.706 171.114 216.911 166.257 218.715C161.4 220.52 156.117 220.842 151.076 219.642C146.036 218.442 141.465 215.773 137.94 211.973C134.416 208.173 132.097 203.412 131.277 198.294C130.457 193.175 131.173 187.928 133.334 183.216C135.494 178.504 139.003 174.539 143.416 171.823C147.829 169.107 152.948 167.761 158.125 167.956V167.956C165.047 168.239 171.575 171.257 176.275 176.349C180.976 181.441 183.466 188.191 183.199 195.118V195.118" fill="white"/>
<path d="M144.134 205.248C143.942 210.429 142.219 215.436 139.182 219.636C136.146 223.837 131.932 227.042 127.075 228.846C122.218 230.65 116.935 230.973 111.895 229.773C106.854 228.572 102.283 225.904 98.7587 222.104C95.2345 218.304 92.9158 213.543 92.0958 208.424C91.2758 203.306 91.9914 198.059 94.1521 193.347C96.3128 188.635 99.8215 184.67 104.234 181.954C108.647 179.238 113.766 177.892 118.944 178.087V178.087C125.866 178.37 132.393 181.388 137.094 186.48C141.794 191.572 144.284 198.322 144.017 205.248V205.248" fill="white"/>
<path d="M271.496 196.478C271.338 200.793 269.905 204.965 267.376 208.464C264.847 211.964 261.336 214.635 257.289 216.139C253.241 217.644 248.839 217.913 244.638 216.914C240.437 215.915 236.627 213.693 233.69 210.527C230.753 207.362 228.821 203.397 228.138 199.133C227.455 194.87 228.052 190.499 229.854 186.575C231.656 182.651 234.581 179.35 238.26 177.089C241.938 174.828 246.205 173.709 250.519 173.873V173.873C253.384 173.981 256.198 174.652 258.803 175.848C261.408 177.045 263.751 178.743 265.699 180.845C267.647 182.947 269.162 185.413 270.157 188.101C271.151 190.789 271.606 193.647 271.496 196.511V196.511" fill="white"/>
<path d="M244.865 189.385C244.72 193.186 243.451 196.86 241.219 199.941C238.986 203.021 235.89 205.371 232.322 206.692C228.754 208.013 224.875 208.246 221.174 207.362C217.474 206.478 214.119 204.516 211.533 201.725C208.947 198.934 207.247 195.439 206.648 191.682C206.049 187.925 206.578 184.075 208.167 180.618C209.756 177.161 212.335 174.254 215.577 172.262C218.819 170.271 222.578 169.286 226.38 169.432C231.476 169.63 236.286 171.842 239.752 175.583C243.217 179.324 245.057 184.288 244.865 189.385V189.385Z" fill="white"/>
<path d="M107.912 199.19C107.756 203.671 106.275 208.004 103.656 211.642C101.036 215.279 97.3969 218.057 93.1984 219.623C88.9999 221.189 84.4313 221.473 80.0715 220.438C75.7116 219.404 71.7567 217.098 68.7078 213.813C65.6589 210.528 63.6532 206.411 62.9448 201.984C62.2364 197.557 62.8572 193.019 64.7286 188.946C66.5999 184.872 69.6376 181.446 73.4568 179.101C77.2759 176.757 81.7047 175.599 86.182 175.775V175.775C89.1512 175.889 92.0689 176.588 94.7682 177.831C97.4675 179.074 99.8956 180.837 101.914 183.019C103.932 185.201 105.5 187.76 106.529 190.549C107.559 193.338 108.029 196.303 107.912 199.274" fill="white"/>
<path d="M81.2001 190.225C81.028 194.701 79.533 199.026 76.9042 202.652C74.2753 206.278 70.6307 209.042 66.4314 210.596C62.2321 212.149 57.6668 212.421 53.3128 211.378C48.9589 210.334 45.012 208.023 41.9715 204.735C38.9309 201.446 36.9333 197.33 36.2312 192.906C35.5291 188.482 36.1542 183.949 38.0274 179.88C39.9005 175.811 42.9376 172.39 46.7544 170.049C50.5712 167.707 54.9963 166.551 59.4699 166.726C65.4651 166.961 71.1218 169.569 75.1965 173.975C79.2713 178.381 81.4307 184.226 81.2001 190.225V190.225Z" fill="white"/>
<path d="M181.531 196.437C181.282 202.908 179.121 209.16 175.32 214.403C171.52 219.645 166.252 223.643 160.181 225.889C154.11 228.136 147.51 228.531 141.215 227.025C134.92 225.519 129.213 222.179 124.814 217.428C120.416 212.676 117.525 206.727 116.506 200.331C115.487 193.936 116.386 187.382 119.089 181.497C121.793 175.613 126.179 170.663 131.694 167.273C137.209 163.883 143.605 162.205 150.073 162.451V162.451C158.743 162.782 166.928 166.545 172.827 172.911C178.726 179.278 181.857 187.728 181.531 196.403V196.403" fill="white"/>
<path d="M194.286 82.3418H99.9473V104.122H194.286V82.3418Z" fill="white"/>
<path d="M112.122 94.5589C112.122 87.8299 106.677 82.3848 99.9476 82.3848C93.2186 82.3848 87.7734 87.8299 87.7734 94.5589V104.121H112.122V94.5589Z" fill="white"/>
<path d="M190.921 123.821C190.921 100.934 171.309 82.3848 147.138 82.3848C122.967 82.3848 103.355 100.934 103.355 123.821V139.714H190.921V123.821Z" fill="#84EE90"/>
<path d="M195.924 180.4C195.924 171.236 188.487 163.799 179.323 163.799V155.697H149.309V184.782H195.924V180.4Z" fill="#26114D"/>
<path d="M98.8848 180.4C98.8848 171.236 106.322 163.799 115.486 163.799V155.697H145.501V184.782H98.8848V180.4Z" fill="#26114D"/>
<path d="M103.445 155.697H190.878V139.627H103.445V155.697Z" fill="#26114D"/>
<path d="M138.861 87.6094L190.922 139.67L175.56 139.715L123.588 87.7422L138.861 87.6094Z" fill="#514171"/>
<path d="M169.983 24.6139H178.04C191.542 24.6139 202.477 13.635 202.477 0.0885379L205.178 0V7.61437C205.178 27.0487 189.462 42.8087 170.072 42.8087C170.072 42.8087 170.072 42.8087 170.027 42.8087V42.7644H169.895C164.892 42.7202 160.819 38.6474 160.864 33.6449C160.908 28.6424 164.981 24.5696 169.983 24.6139Z" fill="white"/>
<path d="M124.606 24.6146H116.505C102.959 24.6146 91.9797 13.6357 91.9797 0.0891908L89.2793 0.0449219V7.61502C89.2793 27.0494 105.039 42.8094 124.474 42.8094V42.7651H124.606C129.609 42.7651 133.682 38.6923 133.682 33.6898C133.682 28.6874 129.609 24.6146 124.606 24.6146Z" fill="white"/>
<path fill-rule="evenodd" clip-rule="evenodd" d="M104.394 29.0859C110.39 34.8667 117.914 38.0364 125.669 38.0364H133.77V39.8761H125.669C117.399 39.8761 109.428 36.4939 103.117 30.4104L104.394 29.0859Z" fill="#514171"/>
<path d="M177.066 62.4648H118.586V78.1363H177.066V62.4648Z" fill="#FFC493"/>
<path d="M116.77 49.7146C116.77 32.4938 130.759 18.5488 147.935 18.5488C165.156 18.5488 179.101 32.4938 179.101 49.7146H116.77Z" fill="#26114D"/>
<path d="M154.223 49.7148H141.518V71.8054H154.223V49.7148Z" fill="white"/>
<path d="M135.275 78.1352C135.275 74.6379 138.109 71.8047 141.606 71.8047C145.103 71.8047 147.937 74.6379 147.937 78.1352H135.275Z" fill="#26114D"/>
<path d="M147.891 78.1352C147.891 74.6379 150.724 71.8047 154.221 71.8047C157.718 71.8047 160.552 74.6379 160.552 78.1352H147.891Z" fill="#26114D"/>
<path d="M132.264 76.4529C134.537 76.4529 136.381 74.6096 136.381 72.3358C136.381 70.062 134.537 68.2188 132.264 68.2188C129.99 68.2188 128.146 70.062 128.146 72.3358C128.146 74.6096 129.99 76.4529 132.264 76.4529Z" fill="#FFE1C9"/>
<path d="M163.562 76.4529C165.836 76.4529 167.679 74.6096 167.679 72.3358C167.679 70.062 165.836 68.2188 163.562 68.2188C161.289 68.2188 159.445 70.062 159.445 72.3358C159.445 74.6096 161.289 76.4529 163.562 76.4529Z" fill="#FFE1C9"/>
<path d="M166.308 78.0469C166.308 102.395 147.98 114.304 147.98 114.304C147.98 114.304 129.652 103.945 129.652 78.0469H166.308V78.0469Z" fill="#26114D"/>
<path d="M155.373 78.1367C155.373 82.2538 152.009 85.6183 147.892 85.6183C143.775 85.6183 140.41 82.2538 140.41 78.1367H155.373Z" fill="white"/>
<path d="M180.783 78.0469C180.783 94.6922 168.255 102.794 168.255 102.794C168.255 102.794 155.727 95.7104 155.727 78.0469H180.783Z" fill="#26114D"/>
<path d="M140.1 78.0469C140.1 94.6922 127.571 102.794 127.571 102.794C127.571 102.794 115.043 95.7104 115.043 78.0469H140.1Z" fill="#26114D"/>
<path d="M180.783 78.047V60.959H173.301V71.2738C173.301 75.081 170.247 78.1356 166.439 78.1356L176.887 88.5832L180.783 78.047Z" fill="#26114D"/>
<path d="M115 78.047V60.959H122.659V71.2738C122.703 75.081 125.802 78.1799 129.653 78.1356L119.029 88.5832L115 78.047Z" fill="#26114D"/>
<path d="M185.388 49.7148H110.439V62.4202H185.388V49.7148Z" fill="white"/>
<path d="M144.171 54.8066H128.367V57.3743H144.171V54.8066Z" fill="#26114D"/>
<path d="M167.326 54.8066H151.521V57.3743H167.326V54.8066Z" fill="#26114D"/>
<path fill-rule="evenodd" clip-rule="evenodd" d="M178.202 78.8843C177.472 86.6817 173.87 93.9322 168.079 99.222L166.838 97.8637C172.291 92.8829 175.683 86.0557 176.37 78.7129L178.202 78.8843Z" fill="#514171"/>
<path d="M161.615 67.5546H164.404C164.404 64.7656 162.146 62.5078 159.357 62.5078C156.568 62.5078 154.311 64.7656 154.311 67.5546H157.1" fill="#26114D"/>
<path d="M138.638 67.5546H141.427C141.427 64.7656 139.17 62.5078 136.381 62.5078C133.592 62.5078 131.334 64.7656 131.334 67.5546H134.123" fill="#26114D"/>
<path d="M182.538 95.5309C182.538 88.0493 188.603 81.9844 196.084 81.9844C203.566 81.9844 209.631 88.0493 209.631 95.5309V106.156H182.538V95.5309Z" fill="white"/>
<path d="M112.257 95.5309C112.257 88.0493 106.192 81.9844 98.7106 81.9844C91.229 81.9844 85.1641 88.0493 85.1641 95.5309V106.156H112.257V95.5309Z" fill="white"/>
<path d="M106.535 184.254C106.454 186.226 105.79 188.13 104.627 189.725C103.464 191.32 101.855 192.535 100.002 193.216C98.1486 193.898 96.1351 194.015 94.2153 193.553C92.2956 193.092 90.5557 192.072 89.2153 190.623C87.875 189.173 86.9943 187.36 86.6844 185.41C86.3745 183.461 86.6493 181.464 87.4742 179.671C88.2991 177.877 89.637 176.369 91.319 175.335C93.0011 174.301 94.9518 173.789 96.925 173.862C98.2374 173.914 99.5268 174.225 100.719 174.775C101.912 175.326 102.984 176.106 103.874 177.071C104.765 178.036 105.456 179.168 105.909 180.4C106.361 181.633 106.567 182.942 106.512 184.254V184.254" fill="white"/>
<path d="M162.02 189.939C161.912 192.568 161.026 195.107 159.476 197.233C157.925 199.36 155.779 200.98 153.308 201.889C150.838 202.797 148.153 202.954 145.593 202.338C143.033 201.723 140.714 200.363 138.926 198.43C137.139 196.498 135.965 194.08 135.552 191.481C135.139 188.882 135.505 186.219 136.605 183.828C137.705 181.437 139.489 179.425 141.731 178.047C143.974 176.669 146.575 175.985 149.206 176.083C150.956 176.153 152.675 176.566 154.265 177.301C155.855 178.035 157.284 179.075 158.472 180.362C159.659 181.649 160.581 183.157 161.184 184.8C161.788 186.444 162.061 188.19 161.989 189.939V189.939" fill="white"/>
<path d="M105.385 72.4909C104.215 71.8135 102.79 71.7416 101.557 72.2979C100.324 72.8541 99.4354 73.9703 99.1691 75.2961C87.207 134.838 127.294 171.854 146.947 183.684C148.344 184.525 150.102 184.48 151.455 183.57C202.266 149.363 204.752 97.2979 199.462 75.1479C199.177 73.9573 198.387 72.9502 197.299 72.3906C196.21 71.831 194.931 71.7746 193.798 72.2363C175.812 79.5609 157.889 74.7507 151.094 71.1082C149.938 70.4888 148.56 70.4451 147.367 70.99C127.141 80.2323 110.565 75.489 105.385 72.4909Z" fill="#A0A8FF" stroke="#26114D" stroke-width="8.39251" stroke-linejoin="round"/>
<path d="M148.672 151.281C166.255 151.281 180.508 137.028 180.508 119.445C180.508 101.863 166.255 87.6094 148.672 87.6094C131.089 87.6094 116.836 101.863 116.836 119.445C116.836 137.028 131.089 151.281 148.672 151.281Z" fill="#26114D"/>
<path fill-rule="evenodd" clip-rule="evenodd" d="M136.164 110.586H161.182V135.604H136.164V110.586ZM139.955 114.377V131.813H157.391V114.377H139.955Z" fill="white"/>
<path fill-rule="evenodd" clip-rule="evenodd" d="M148.672 102.404C146.531 102.404 145.054 103.983 145.054 105.572V112.46H141.264V105.572C141.264 101.594 144.747 98.6133 148.672 98.6133C152.596 98.6133 156.079 101.594 156.079 105.572V112.46H152.289V105.572C152.289 103.983 150.812 102.404 148.672 102.404Z" fill="white"/>
<path d="M148.672 124.758C150.209 124.758 151.455 123.512 151.455 121.975C151.455 120.438 150.209 119.191 148.672 119.191C147.135 119.191 145.889 120.438 145.889 121.975C145.889 123.512 147.135 124.758 148.672 124.758Z" fill="white"/>
<path fill-rule="evenodd" clip-rule="evenodd" d="M150.568 123.23V126.994H146.777V123.23H150.568Z" fill="white"/>
<path fill-rule="evenodd" clip-rule="evenodd" d="M148.673 94.0794C134.663 94.0794 123.306 105.436 123.306 119.446C123.306 133.456 134.663 144.813 148.673 144.813C162.682 144.813 174.039 133.456 174.039 119.446C174.039 105.436 162.682 94.0794 148.673 94.0794ZM121.604 119.446C121.604 104.496 133.723 92.377 148.673 92.377C163.623 92.377 175.742 104.496 175.742 119.446C175.742 134.396 163.623 146.515 148.673 146.515C133.723 146.515 121.604 134.396 121.604 119.446Z" fill="white"/>
<path d="M85.0801 106.146C85.0801 106.146 85.6552 115.281 86.7168 120.428C87.4588 124.027 88.2841 127.51 89.1813 129.748C89.5677 130.712 89.4163 130.346 89.8234 131.302C90.2117 132.078 91.7234 132.294 91.7234 132.294L92.8467 132.51H95.6481C103.113 132.51 109.157 126.642 109.157 119.393V119.263C109.157 112.015 103.113 106.146 95.6481 106.146H85.0801Z" fill="#FFC493"/>
<path d="M209.43 106.148C209.43 106.148 208.855 115.283 207.793 120.43C207.051 124.028 206.226 127.512 205.328 129.75C204.942 130.714 205.093 130.348 204.686 131.304C204.298 132.08 202.786 132.296 202.786 132.296L201.663 132.512H198.862C191.396 132.512 185.353 126.644 185.353 119.395V119.265C185.353 112.017 191.396 106.148 198.862 106.148H209.43Z" fill="#FFC493"/>
<path d="M203.501 191.137C203.384 193.993 202.423 196.751 200.74 199.062C199.057 201.372 196.728 203.132 194.046 204.119C191.365 205.106 188.451 205.276 185.673 204.607C182.895 203.939 180.377 202.461 178.437 200.362C176.498 198.263 175.223 195.635 174.775 192.812C174.326 189.988 174.724 187.095 175.918 184.498C177.112 181.9 179.048 179.715 181.482 178.217C183.916 176.72 186.739 175.978 189.594 176.084C191.493 176.16 193.359 176.609 195.085 177.406C196.81 178.204 198.362 179.334 199.65 180.732C200.939 182.13 201.939 183.769 202.594 185.554C203.249 187.34 203.546 189.237 203.468 191.137V191.137" fill="white"/>
<path d="M116.89 188.571C116.833 189.959 116.366 191.299 115.548 192.421C114.729 193.544 113.597 194.399 112.293 194.878C110.989 195.358 109.572 195.44 108.221 195.115C106.87 194.791 105.645 194.073 104.702 193.053C103.759 192.033 103.139 190.757 102.921 189.385C102.703 188.013 102.896 186.608 103.477 185.346C104.057 184.084 104.999 183.022 106.183 182.295C107.366 181.568 108.739 181.207 110.127 181.259C111.051 181.295 111.958 181.514 112.797 181.901C113.637 182.289 114.391 182.838 115.018 183.517C115.644 184.196 116.131 184.992 116.449 185.859C116.768 186.727 116.912 187.648 116.874 188.571V188.571" fill="white"/>
<path d="M181.254 191.652C181.173 193.624 180.509 195.528 179.346 197.123C178.183 198.718 176.574 199.933 174.721 200.615C172.867 201.296 170.854 201.413 168.934 200.952C167.014 200.49 165.274 199.47 163.934 198.021C162.594 196.572 161.713 194.758 161.403 192.809C161.093 190.86 161.368 188.862 162.193 187.069C163.018 185.276 164.356 183.767 166.038 182.733C167.72 181.7 169.671 181.187 171.644 181.261C172.956 181.313 174.246 181.623 175.438 182.174C176.63 182.724 177.703 183.504 178.593 184.47C179.483 185.435 180.175 186.566 180.628 187.798C181.08 189.031 181.285 190.341 181.231 191.652V191.652" fill="white"/>
</g>
</g>
<defs>
<clipPath id="clip0_3018_206918">
<rect width="307.762" height="236" fill="white"/>
</clipPath>
<clipPath id="clip1_3018_206918">
<rect width="236" height="230.821" fill="white" transform="translate(35.5117)"/>
</clipPath>
</defs>
</svg>
