<svg preserveAspectRatio="none" width="100%" height="100%" overflow="visible" style="display: block;" viewBox="0 0 40.0002 40" fill="none" xmlns="http://www.w3.org/2000/svg">
<g id="Group">
<path id="Vector" d="M40 19.9999C40 31.0456 31.0456 40 19.9999 40C8.95421 40 0 31.0456 0 19.9999C0 8.95421 8.95442 0 20.0001 0C31.0458 0 40.0002 8.95442 40.0002 20.0001" fill="var(--fill-0, #072B55)"/>
<path id="Vector_2" d="M21.641 15.4783C19.1159 15.4783 16.9009 16.3918 15.2807 17.9007V6.00433C15.2807 5.70454 14.9562 5.5172 14.6965 5.66699L11.8283 7.32298C11.7645 7.35968 11.7255 7.42753 11.7255 7.50136V32.6894C11.7255 32.9045 11.8998 33.079 12.1149 33.079H14.8913C15.1062 33.079 15.2807 32.9045 15.2807 32.6894V31.0164C16.9009 32.5251 19.1159 33.4388 21.641 33.4388C26.8855 33.4388 30.8008 29.5055 30.8008 24.4585C30.8008 19.4116 26.8857 15.4783 21.641 15.4783ZM21.641 30.0982C18.3902 30.0982 16.0373 27.6376 16.0373 24.4585C16.0373 21.2795 18.3902 18.8187 21.641 18.8187C24.8917 18.8187 27.2446 21.2795 27.2446 24.4585C27.2446 27.6376 24.8917 30.0982 21.641 30.0982Z" fill="var(--fill-0, white)"/>
<path id="Vector_3" d="M32.8068 13.3685C32.8068 14.5873 31.8186 15.5754 30.5998 15.5754C29.3811 15.5754 28.3929 14.5873 28.3929 13.3685C28.3929 12.1497 29.3811 11.1616 30.5998 11.1616C31.8186 11.1616 32.8068 12.1497 32.8068 13.3685Z" fill="var(--fill-0, #FF7C66)"/>
</g>
</svg>
