<svg width="189" height="111" viewBox="0 0 189 111" fill="none" xmlns="http://www.w3.org/2000/svg">
<path d="M149.569 26.8602C115.838 16.813 98.9089 -10.4422 45.0166 16.7868C-3.81931 41.4607 0.351105 94.5631 21.5305 108.666C76.487 108.666 166.439 108.625 166.439 108.625C184 103.422 213.268 45.8347 149.569 26.8602Z" fill="#FFCE1F" fill-opacity="0.25"/>
<rect x="0.671437" y="107.992" width="184.645" height="2.5065" rx="1.25325" fill="#D9D9D9"/>
<path d="M102.188 38.5038H105.684C108.501 38.4993 111.201 37.3754 113.189 35.3797C115.178 33.384 116.292 30.6799 116.286 27.8626L117.458 27.8242V31.128C117.462 35.1758 115.857 39.0594 112.997 41.9234C110.136 44.7875 106.255 46.3973 102.207 46.3983V46.3791H102.149C99.9746 46.3685 98.2203 44.5969 98.2309 42.4222C98.2415 40.2476 100.013 38.4932 102.188 38.5038Z" fill="#D1D5DB"/>
<path d="M82.4995 38.5081H78.9844C73.1101 38.5017 68.3496 33.7412 68.3432 27.8669L67.1715 27.8477V31.1322C67.1726 39.5653 74.0087 46.4015 82.4418 46.4025V46.3833H82.4995C84.6742 46.3833 86.4371 44.6204 86.4371 42.4457C86.4371 40.271 84.6742 38.5081 82.4995 38.5081Z" fill="#D1D5DB"/>
<path d="M86.4748 44.7277H82.9598C79.4831 44.7277 76.1218 43.3063 73.4519 40.7324V40.7324" stroke="#514171" stroke-width="0.946978"/>
<path d="M79.0999 49.3935C79.0999 41.9253 85.1541 35.8711 92.6223 35.8711C100.09 35.8711 106.145 41.9253 106.145 49.3935H79.0999Z" fill="#26114D"/>
<rect x="71.8008" y="63.5469" width="40.9321" height="9.4503" fill="#D1D5DB"/>
<path d="M111.273 81.545C111.273 71.6145 102.764 63.5664 92.2762 63.5664C81.7886 63.5664 73.2795 71.6145 73.2795 81.545V88.4407H111.273V81.545Z" fill="#00B9AD"/>
<path d="M113.443 106.093C113.442 102.115 110.218 98.8911 106.24 98.8901V95.375H93.2173V107.995H113.443V106.093Z" fill="#26114D"/>
<path d="M71.3397 106.093C71.3408 102.115 74.5651 98.8911 78.5427 98.8901V95.375H91.5657V107.995H71.3397V106.093Z" fill="#26114D"/>
<path d="M73.3175 95.3748H111.253V88.4023H73.3175V95.3748Z" fill="#26114D"/>
<path d="M88.6845 65.832L111.273 88.4206L104.608 88.4398L82.0578 65.8897L88.6845 65.832Z" fill="#514171"/>
<rect x="79.8862" y="54.9258" width="25.3737" height="6.79961" fill="#FFC493"/>
<rect x="89.8369" y="49.3887" width="5.51268" height="9.58477" fill="#D1D5DB"/>
<path d="M87.1282 61.7253C87.1282 60.2083 88.3579 58.9785 89.8749 58.9785C91.3919 58.9785 92.6217 60.2083 92.6217 61.7253H87.1282Z" fill="#26114D"/>
<path d="M92.6026 61.7253C92.6026 60.2083 93.8323 58.9785 95.3493 58.9785C96.8663 58.9785 98.0961 60.2083 98.0961 61.7253H92.6026Z" fill="#26114D"/>
<circle cx="85.8224" cy="59.2063" r="1.78634" fill="#FFE1C9"/>
<circle cx="99.4023" cy="59.2063" r="1.78634" fill="#FFE1C9"/>
<path d="M100.593 61.6836C100.593 72.248 92.6409 77.4149 92.6409 77.4149C92.6409 77.4149 84.6888 72.9202 84.6888 61.6836L100.593 61.6836Z" fill="#26114D"/>
<path d="M95.8486 61.7227C95.8486 63.5155 94.3952 64.9688 92.6024 64.9688C90.8096 64.9688 89.3563 63.5155 89.3563 61.7227H95.8486Z" fill="white"/>
<path d="M106.874 61.6836C106.874 68.9058 101.438 72.4208 101.438 72.4208C101.438 72.4208 96.0026 69.3476 96.0026 61.6836H106.874Z" fill="#26114D"/>
<path d="M89.2216 61.6836C89.2216 68.9058 83.7858 72.4208 83.7858 72.4208C83.7858 72.4208 78.3499 69.3476 78.3499 61.6836H89.2216Z" fill="#26114D"/>
<path d="M106.875 61.6818V54.2676H103.629V58.743C103.628 60.3869 102.295 61.7192 100.652 61.7203L105.185 66.2533L106.875 61.6818Z" fill="#26114D"/>
<path d="M78.3314 61.6818V54.2676H81.6544V58.743C81.6615 59.5405 81.9854 60.3023 82.5546 60.8608C83.1239 61.4192 83.8918 61.7284 84.6892 61.7203L80.0793 66.2533L78.3314 61.6818Z" fill="#26114D"/>
<rect x="76.3521" y="49.3887" width="32.519" height="5.51268" fill="#D1D5DB"/>
<rect x="84.1317" y="51.6016" width="6.85723" height="1.11406" fill="#26114D"/>
<rect x="94.1779" y="51.6016" width="6.85723" height="1.11406" fill="#26114D"/>
<path d="M101.092 70.5765C103.535 68.3549 105.057 65.2982 105.356 62.0098" stroke="#514171" stroke-width="0.946978"/>
<path d="M97.5771 57.1311C98.158 57.1316 98.7152 56.9011 99.126 56.4903C99.5367 56.0796 99.7673 55.5223 99.7668 54.9414L95.3873 54.9414C95.3868 55.5223 95.6174 56.0796 96.0281 56.4903C96.4389 56.9011 96.9962 57.1316 97.5771 57.1311Z" fill="#26114D"/>
<path d="M87.6279 57.1311C88.2088 57.1316 88.7661 56.9011 89.1769 56.4903C89.5876 56.0796 89.8181 55.5223 89.8176 54.9414L85.4382 54.9414C85.4377 55.5223 85.6683 56.0796 86.079 56.4903C86.4898 56.9011 87.047 57.1316 87.6279 57.1311Z" fill="#26114D"/>
<path d="M111.792 61.0372L119.264 68.5091L131.365 56.4081C133.421 54.3416 133.421 51.0027 131.365 48.9362C129.299 46.8806 125.96 46.8806 123.893 48.9362L111.792 61.0372Z" fill="#FFC493"/>
<rect x="118.336" y="54.5137" width="6.16575" height="10.5836" transform="rotate(-45 118.336 54.5137)" fill="#26114D"/>
<path d="M108.872 63.974C106.816 66.0169 106.789 69.3348 108.812 71.4105C110.835 73.4862 114.153 73.5449 116.248 71.5419L116.344 71.4459L119.283 68.507L111.811 61.0352L108.872 63.974Z" fill="#D1D5DB"/>
<path fill-rule="evenodd" clip-rule="evenodd" d="M132.171 50.126C131.197 48.4382 129.396 47.3984 127.447 47.3984V47.4211C125.498 47.4211 123.697 48.4608 122.723 50.1486C121.748 51.8364 121.748 53.9158 122.723 55.6036C123.697 57.2914 125.498 58.3312 127.447 58.3312V58.3085C129.396 58.3085 131.197 57.2688 132.171 55.581C133.146 53.8932 133.146 51.8138 132.171 50.126Z" fill="#FFC493"/>
<path d="M72.2746 61.1524L64.8011 68.6227L52.7026 56.5192C50.6475 54.4522 50.6482 51.1134 52.7042 49.0473C54.7712 46.9922 58.11 46.9929 60.1761 49.0489L72.2746 61.1524Z" fill="#FFC493"/>
<rect width="6.16575" height="10.5836" transform="matrix(-0.706958 -0.707256 -0.707256 0.706958 66.0768 54.9141)" fill="#26114D"/>
<path d="M75.1938 64.0986C77.2495 66.142 77.2755 69.4599 75.252 71.5352C73.2286 73.6105 69.911 73.6684 67.8164 71.665L67.7204 71.569L64.7822 68.6295L72.2556 61.1592L75.1938 64.0986Z" fill="#D1D5DB"/>
<path fill-rule="evenodd" clip-rule="evenodd" d="M51.5783 50.2371C52.5531 48.5495 54.3542 47.5102 56.3031 47.5106L56.3008 58.4207C54.3519 58.4203 52.5512 57.3802 51.5771 55.6922C50.603 54.0042 50.6035 51.9247 51.5783 50.2371ZM61.0259 55.7197C60.0511 57.4073 58.25 58.4467 56.3011 58.4463L56.3034 47.5361C58.2523 47.5366 60.0529 48.5767 61.027 50.2647C62.0011 51.9527 62.0007 54.0321 61.0259 55.7197Z" fill="#FFC493"/>
<g clip-path="url(#clip0_1982_14328)">
<g clip-path="url(#clip1_1982_14328)">
<path d="M167.616 12.8437C167.616 12.8437 167.867 11.3424 169.904 11.2726C171.941 11.2034 172.131 10.3143 172.131 10.3143L172.061 9.25616C172.061 9.25616 172.484 8.84514 171.012 8.74856C169.541 8.65197 166.088 10.1571 166.671 11.5753C167.452 13.479 167.616 12.8437 167.616 12.8437H167.616Z" fill="#8943C2"/>
<path d="M166.628 11.0684C166.628 11.0684 166.4 12.06 166.675 13.3434C166.808 13.9686 168.396 15.1517 170.11 14.4692C170.11 14.4692 170.407 14.4729 170.643 13.7239C170.879 12.9754 171.031 12.3835 170.834 12.2579C170.834 12.2579 170.419 12.596 169.71 12.6105C169.262 12.6191 168.959 12.5359 168.204 12.3132C166.986 11.9537 166.555 11.3892 166.628 11.0689L166.628 11.0684Z" fill="#B459FF"/>
<path d="M172.085 9.04274C172.085 9.04274 172.455 9.26005 172.144 10.7045C172.001 11.3683 171.439 11.8812 170.761 11.9097C170.526 11.9188 170.245 11.9097 169.912 11.8694C168.161 11.6602 166.799 10.7378 166.725 9.8696C166.574 8.10426 166.819 7.35358 167.007 7.02734C167.007 7.02734 166.551 8.24752 168.203 9.16507C170.088 10.2109 172.205 9.85779 172.086 9.04327L172.085 9.04274Z" fill="#B459FF"/>
<path d="M37.92 13.2074C37.92 13.2074 39.0866 12.1079 40.8385 13.3469C42.5909 14.5858 43.3164 13.9607 43.3164 13.9607L43.9313 13.0287C43.9313 13.0287 44.5473 12.9535 43.3754 11.9362C42.2025 10.9188 38.3498 9.98252 37.9356 11.5424C37.3786 13.6361 37.9206 13.2079 37.9206 13.2079L37.92 13.2074Z" fill="#8943C2"/>
<path d="M38.2229 11.0904C38.2229 11.0904 37.4009 11.7767 36.8144 13.0274C36.5279 13.6364 37.1063 15.64 38.9784 16.1584C38.9784 16.1584 39.2247 16.3499 39.8987 15.8718C40.5731 15.3948 41.0775 14.9951 40.9922 14.7649C40.9922 14.7649 40.4288 14.7847 39.8246 14.3442C39.4436 14.0662 39.2424 13.8039 38.7515 13.1369C37.9584 12.06 37.9562 11.3125 38.2224 11.0898L38.2229 11.0904Z" fill="#B459FF"/>
<path d="M44.0876 12.8651C44.0876 12.8651 44.2593 13.2825 43.0794 14.2956C42.5369 14.7613 41.739 14.8338 41.1526 14.4249C40.9497 14.2832 40.7201 14.096 40.4663 13.8513C39.1307 12.5613 38.5759 10.9205 39.0669 10.1457C40.0644 8.56974 40.748 8.09594 41.1128 7.94141C41.1128 7.94141 39.9533 8.67383 40.7549 10.495C41.6693 12.571 43.668 13.6227 44.0876 12.8645V12.8651Z" fill="#B459FF"/>
<path d="M151.839 20.9444C151.839 20.9444 151.224 20.116 149.626 19.9781C148.028 19.8412 147.07 20.6321 145.292 19.1152C145.292 19.1152 146.174 20.9358 148.043 21.1789C149.911 21.422 151.106 20.7507 152.187 21.987L151.839 20.945V20.9444Z" fill="#B459FF"/>
<path d="M136.167 71.9947C136.707 74.985 136.674 76.5942 136.012 79.5594C137.093 79.5819 137.633 79.5926 138.715 79.6152C139.376 76.6495 139.41 75.0398 138.87 72.0499C137.789 72.0279 137.248 72.0172 136.167 71.9941V71.9947Z" fill="#FF4F5D"/>
<path d="M83.275 2.92578C82.0318 4.32303 81.2392 4.91756 79.5522 5.72297C79.9514 6.25471 80.1516 6.52139 80.5519 7.05314C82.2394 6.24827 83.0319 5.65267 84.2752 4.25596C83.8754 3.72367 83.6753 3.45807 83.2755 2.92578H83.275Z" fill="#FF4F5D"/>
<path d="M48.9141 35.4004C47.82 36.9264 47.0919 37.6047 45.4913 38.5861C45.9468 39.0754 46.1743 39.3201 46.6299 39.8095C48.23 38.827 48.9581 38.1493 50.0522 36.6233C49.5972 36.1339 49.3697 35.8892 48.9141 35.4004Z" fill="#FF4F5D"/>
<path d="M161.461 25.5294C166.043 26.6476 168.235 27.5292 171.765 29.6717C172.712 28.751 173.185 28.2906 174.132 27.3704C170.603 25.2289 168.41 24.3473 163.828 23.2285C162.881 24.1487 162.408 24.6091 161.461 25.5299V25.5294Z" fill="#FF4F5D"/>
<path d="M120.08 17.2294C119.425 15.6932 118.924 14.964 117.724 13.8023C118.215 13.4659 118.459 13.2974 118.949 12.9609C120.149 14.1226 120.65 14.8518 121.305 16.3881C120.815 16.7245 120.57 16.893 120.08 17.23V17.2294Z" fill="#FFCB00"/>
<path d="M63.0497 5.70123C63.846 4.35066 64.1175 3.56565 64.3278 2.01172C64.8547 2.19416 65.1182 2.28537 65.6456 2.46835C65.4358 4.02174 65.1638 4.80676 64.3681 6.15786C63.8411 5.97489 63.5777 5.88421 63.0497 5.70123Z" fill="#FFCB00"/>
<path d="M77.2986 14.0091C76.269 15.4541 75.8853 16.3132 75.4968 18.0442C74.92 17.7872 74.6319 17.6584 74.055 17.4008C74.4435 15.6693 74.8272 14.8108 75.8563 13.3652C76.4331 13.6233 76.7213 13.7521 77.2981 14.0091H77.2986Z" fill="#FFCB00"/>
<path d="M133.695 58.4604C134.961 58.1787 135.535 57.8407 136.393 56.8711C136.758 57.4903 136.941 57.8005 137.306 58.4197C136.447 59.3893 135.873 59.7278 134.608 60.0095C134.243 59.3893 134.06 59.0802 133.695 58.4604Z" fill="#FF4F5D"/>
<path d="M32.3514 59.8752C33.4556 59.5742 33.9488 59.2512 34.6662 58.3594C35.0144 58.8906 35.1888 59.1567 35.5365 59.6879C34.8185 60.5797 34.326 60.9028 33.2217 61.2043C32.8734 60.6731 32.6996 60.407 32.3514 59.8752Z" fill="#FF4F5D"/>
<path d="M14.2471 59.7372C13.9547 60.3628 13.9112 60.7154 14.0416 61.3936C13.6612 61.3464 13.4712 61.3228 13.0902 61.2756C12.9598 60.5979 13.0038 60.2453 13.2957 59.6191C13.6767 59.6664 13.8672 59.69 14.2471 59.7377V59.7372Z" fill="#FF4F5D"/>
<path d="M19.9397 97.8418C20.1528 98.7062 20.3942 99.0942 21.0741 99.6688C20.6545 99.9291 20.4447 100.06 20.0251 100.321C19.3452 99.7461 19.1038 99.3571 18.8907 98.4932C19.3098 98.2324 19.5201 98.102 19.9397 97.8418Z" fill="#FF4F5D"/>
<path d="M54.5186 3.89968C53.3359 4.01451 52.7763 4.25811 51.8861 5.04474C51.6232 4.44055 51.4917 4.13846 51.2293 3.53427C52.1201 2.74711 52.6792 2.5035 53.8613 2.38867C54.1242 2.9934 54.2556 3.29549 54.5186 3.89968Z" fill="#FF4F5D"/>
<path d="M9.79489 74.8082C9.6967 73.7662 9.48368 73.2715 8.79256 72.4854C9.32592 72.2552 9.5926 72.1398 10.1265 71.9102C10.8171 72.6968 11.0312 73.191 11.1288 74.233C10.5955 74.4632 10.3288 74.578 9.79543 74.8082H9.79489Z" fill="#FF4F5D"/>
<path d="M121.567 28.4046C120.78 27.5987 120.266 27.3288 119.155 27.1383C119.447 26.5845 119.592 26.3077 119.882 25.7539C120.993 25.9444 121.506 26.2143 122.294 27.0202C122.004 27.574 121.858 27.8509 121.567 28.4046Z" fill="#FF4F5D"/>
<path d="M132.565 42.208C131.701 41.7084 131.201 41.6011 130.208 41.7036C130.324 41.1622 130.382 40.8918 130.498 40.3514C131.49 40.2495 131.992 40.3563 132.854 40.8563C132.738 41.3972 132.68 41.6682 132.565 42.2085V42.208Z" fill="#FF4F5D"/>
<path d="M154.306 5.88271C153.591 6.92475 153.407 7.54717 153.439 8.81028C152.767 8.61067 152.431 8.5114 151.759 8.3118C151.727 7.04923 151.911 6.42626 152.626 5.38477C153.298 5.58384 153.635 5.6831 154.306 5.88217V5.88271Z" fill="#FF4F5D"/>
<path d="M19.6062 14.442C19.2354 15.5071 19.2231 16.0877 19.5483 17.1673C18.9221 17.1544 18.6098 17.1474 17.983 17.134C17.659 16.0544 17.6713 15.4738 18.0415 14.4082C18.6677 14.4216 18.98 14.4286 19.6062 14.442Z" fill="#FF4F5D"/>
<path d="M30.5036 46.293C31.0852 47.1349 31.5032 47.4541 32.4685 47.7949C32.1235 48.2456 31.9512 48.4709 31.6068 48.9222C30.6415 48.582 30.2235 48.2622 29.6418 47.4209C29.9863 46.9696 30.1585 46.7442 30.5036 46.2935V46.293Z" fill="#01B5D6"/>
<path d="M61.8219 14.1173C61.4909 14.9457 61.4603 15.4034 61.6787 16.2684C61.185 16.2357 60.9376 16.2196 60.4435 16.1863C60.2251 15.3213 60.2557 14.8642 60.5862 14.0352C61.0804 14.0679 61.3277 14.0845 61.8214 14.1173H61.8219Z" fill="#01B5D6"/>
<path d="M61.0846 91.5019C60.8716 90.5682 60.6189 90.1459 59.8988 89.5149C60.3549 89.2423 60.5835 89.1066 61.039 88.834C61.7597 89.465 62.0118 89.8878 62.2254 90.8215C61.7693 91.0935 61.5407 91.2298 61.0846 91.5019Z" fill="#01B5D6"/>
<path d="M46.1853 69.8687C45.2881 69.3777 44.7709 69.2796 43.7567 69.4083C43.8624 68.8508 43.9156 68.5718 44.0213 68.0143C45.0354 67.8855 45.5521 67.9842 46.4493 68.4752C46.3436 69.0327 46.291 69.3107 46.1848 69.8687H46.1853Z" fill="#01B5D6"/>
<path d="M15.5484 45.1026C14.6357 44.9523 14.1651 45.0242 13.3383 45.4385C13.2605 44.9309 13.2218 44.6776 13.1451 44.17C13.9725 43.7552 14.4425 43.6839 15.3563 43.8336C15.4331 44.3412 15.4717 44.595 15.5484 45.1026Z" fill="#01B5D6"/>
<path d="M137.396 33.5263C137.238 32.0733 136.93 31.3881 135.95 30.3052C136.689 29.9731 137.059 29.8068 137.799 29.4746C138.779 30.558 139.087 31.2437 139.245 32.6957C138.505 33.0278 138.136 33.1936 137.396 33.5263Z" fill="url(#paint0_linear_1982_14328)"/>
<path d="M107.146 21.7266C107.765 22.95 108.262 23.45 109.482 24.0768C108.943 24.6134 108.673 24.8822 108.133 25.4182C106.913 24.7915 106.416 24.2919 105.796 23.0675C106.336 22.5309 106.606 22.2631 107.146 21.7266Z" fill="url(#paint1_linear_1982_14328)"/>
<path d="M20.0657 30.3402C21.5252 30.3257 22.2372 30.0869 23.4107 29.2188C23.6683 29.9861 23.7971 30.3702 24.0541 31.1386C22.8811 32.0068 22.1691 32.2456 20.709 32.2601C20.4515 31.4922 20.3232 31.1086 20.0657 30.3402Z" fill="url(#paint2_linear_1982_14328)"/>
<path d="M110.064 19.2349C110.064 19.2349 111.854 19.5032 111.817 17.5361C111.817 17.5361 111.751 16.559 107.431 13.1346L105.3 13.0879L105.059 13.4678C105.006 13.3272 104.985 13.5279 105.813 14.2544C106.579 14.9267 108.979 16.8075 110.064 19.2355V19.2349Z" fill="url(#paint3_linear_1982_14328)"/>
<path d="M102.508 18.0263C102.508 18.0263 101.978 18.3987 101.501 20.1195C101.501 20.1195 102.315 19.3833 103.938 19.8533C105.559 20.3234 108.754 21.4464 110.238 20.4951C110.238 20.4951 110.674 20.252 111.043 19.8265C111.393 19.4225 111.978 18.3348 111.816 17.5391C111.816 17.5391 111.997 19.0501 109.504 19.0688C108.199 19.079 103.311 17.8959 102.508 18.0263Z" fill="url(#paint4_linear_1982_14328)"/>
<path d="M113.556 12.7144C113.556 12.7144 115.346 12.9827 115.309 11.0156C115.309 11.0156 115.243 10.0385 110.923 6.61403L109.395 6.24219L108.551 6.94672C108.498 6.80613 108.477 7.00627 109.305 7.7328C110.072 8.40513 112.471 10.2853 113.556 12.7139V12.7144Z" fill="url(#paint5_linear_1982_14328)"/>
<path d="M106 11.5053C106 11.5053 105.47 11.8777 104.994 13.5985C104.994 13.5985 105.809 12.8618 107.431 13.3324C109.052 13.8024 112.247 14.9255 113.731 13.9747C113.731 13.9747 114.168 13.7305 114.536 13.305C114.887 12.901 115.47 11.8133 115.309 11.0176C115.309 11.0176 115.49 12.5291 112.997 12.5479C111.692 12.5581 106.803 11.3749 106.001 11.5048L106 11.5053Z" fill="url(#paint6_linear_1982_14328)"/>
<path d="M109.548 4.89472C109.548 4.89472 109.018 5.26711 108.542 6.98792C108.542 6.98792 109.357 6.25173 110.979 6.72231C112.6 7.19235 115.795 8.31488 117.28 7.3646L117.807 5.75003C117.491 5.86164 117.08 5.93407 116.545 5.93783C115.24 5.94802 110.352 4.76487 109.548 4.89472Z" fill="url(#paint7_linear_1982_14328)"/>
<path d="M38.9472 45.203C38.9472 45.203 39.8433 43.8595 38.2411 43.1431C38.2411 43.1431 37.4271 42.8249 33.0218 45.0115L32.1751 46.7146L32.3902 47.0532C32.2566 47.043 32.4101 47.1353 33.311 46.743C34.1449 46.3798 36.575 45.1564 38.9472 45.203Z" fill="#E32A3A"/>
<path d="M35.1001 50.8425C35.1001 50.8425 35.1994 51.4118 36.4083 52.4501C36.4083 52.4501 36.1234 51.5132 37.1187 50.3821C38.1141 49.2515 40.2341 47.0988 40.0297 45.5395C40.0297 45.5395 39.9986 45.0946 39.7952 44.6359C39.602 44.1991 38.9458 43.3148 38.2418 43.1426C38.2418 43.1426 39.5301 43.5708 38.5992 45.5904C38.1109 46.6475 35.2997 50.1449 35.1001 50.8425Z" fill="#FF4F5D"/>
<path d="M35.0074 39.9081C35.0074 39.9081 35.9035 38.5651 34.3018 37.8482C34.3018 37.8482 33.4878 37.53 29.0825 39.7171L28.2025 40.8101L28.451 41.7588C28.3174 41.7486 28.4708 41.8409 29.3717 41.4486C30.2061 41.0859 32.6357 39.8625 35.0074 39.9087V39.9081Z" fill="#E32A3A"/>
<path d="M31.16 45.55C31.16 45.55 31.2587 46.1194 32.4676 47.1576C32.4676 47.1576 32.1827 46.2202 33.1786 45.0897C34.1739 43.9586 36.2934 41.8063 36.0895 40.2465C36.0895 40.2465 36.0584 39.8022 35.855 39.3429C35.6619 38.9061 35.0056 38.0219 34.3017 37.8496C34.3017 37.8496 35.59 38.2778 34.6585 40.2975C34.1707 41.3551 31.3596 44.8525 31.1595 45.55H31.16Z" fill="#FF4F5D"/>
<path d="M27.172 40.1735C27.172 40.1735 27.2713 40.7428 28.4802 41.7811C28.4802 41.7811 28.1952 40.8442 29.1906 39.7131C30.186 38.5826 32.306 36.4293 32.1015 34.87L30.9989 33.8301C30.9688 34.1279 30.8712 34.4879 30.6716 34.9209C30.1833 35.978 27.3727 39.476 27.172 40.1735Z" fill="#FF4F5D"/>
<path d="M133.593 15.4395C133.82 15.1053 131.198 12.6842 131.486 12.2227L132.239 11.0879C132.058 11.3438 134.65 13.8132 134.369 14.2666L133.593 15.4395Z" fill="#53BA00"/>
<path d="M133.588 15.4491C133.311 15.8676 132.059 15.4239 130.928 14.6754L131.697 13.5137C132.828 14.2627 134.058 14.7387 134.355 14.2901C134.355 14.2901 133.72 15.2506 133.588 15.4496V15.4491Z" fill="#65E200"/>
<path d="M135.341 13.5928C135.745 12.9827 133.228 9.4536 133.632 8.8419L134.385 7.70703C134.204 7.96244 136.586 11.711 136.118 12.4193L135.341 13.5922V13.5928Z" fill="#53BA00"/>
<path d="M138.363 9.17086C138.88 8.39068 138.511 3.52498 140.517 0.742287L141.27 -0.392578C140.623 0.583458 140.758 5.55271 139.14 7.9979L138.364 9.17086H138.363Z" fill="#53BA00"/>
<path d="M135.38 13.5333C135.261 13.7136 134.55 13.5226 133.462 12.8025C132.374 12.0824 131.596 12.0615 131.487 12.2257C131.487 12.2257 132.054 11.3688 132.226 11.1085C132.384 10.8714 133.113 10.9653 134.202 11.6854C135.29 12.4054 135.988 12.6153 136.118 12.4183C136.118 12.4183 135.507 13.3418 135.38 13.5333Z" fill="#65E200"/>
<path d="M138.328 9.2236C138.089 9.58418 137.271 9.61691 135.952 9.25043C134.644 8.88717 133.755 8.65644 133.642 8.82707C133.642 8.82707 134.232 7.93635 134.411 7.66537C134.574 7.41855 135.417 7.71098 136.72 8.08874C138.009 8.46219 138.877 8.39459 139.096 8.06406C139.096 8.06406 138.46 9.02453 138.329 9.22414L138.328 9.2236Z" fill="#65E200"/>
<path d="M148.089 -6.08245C146.4 -3.53048 141.693 -1.03539 140.41 0.903802C140.41 0.903802 140.999 0.0125504 141.179 -0.257885C144.339 -5.0329 148.342 -6.46449 148.858 -7.24414L148.089 -6.08245Z" fill="#65E200"/>
<path d="M157.874 51.0435C158.074 50.5134 152.888 47.8756 153.129 47.1523L153.784 45.3574C153.621 45.7652 158.782 48.4782 158.549 49.1886L157.874 51.0435Z" fill="#007F9F"/>
<path d="M159.953 48.1801C160.153 47.65 153.908 43.7179 154.149 42.9941L154.804 41.1992C154.641 41.607 160.861 45.6142 160.628 46.3246L159.953 48.1796V48.1801Z" fill="#007F9F"/>
<path d="M159.96 48.1619C159.853 48.4586 158.409 48.1007 156.62 47.4493C154.831 46.7985 153.235 46.8586 153.137 47.1285C153.137 47.1285 153.649 45.7194 153.805 45.2917C153.947 44.9016 155.499 44.9623 157.288 45.6131C159.077 46.264 160.509 46.6525 160.627 46.3284C160.627 46.3284 160.075 47.8464 159.96 48.1619Z" fill="#01B5D6"/>
<path d="M159.434 43.0372C157.826 42.1545 154.519 41.9785 154.134 43.0361C154.134 43.0361 154.646 41.6271 154.802 41.1994C155.203 40.0957 158.367 40.3468 160.101 41.2005L159.433 43.0372H159.434Z" fill="#01B5D6"/>
<path d="M156.663 54.3736C156.862 53.8435 151.677 51.2057 151.918 50.4824L152.572 48.6875C152.41 49.0958 157.57 51.8082 157.338 52.5187L156.663 54.3736Z" fill="#007F9F"/>
<path d="M154.395 56.4289C154.395 56.4289 150.468 54.5246 150.709 53.8007L151.363 52.0059C151.001 53.0012 155.124 54.883 155.124 54.883L154.394 56.4289H154.395Z" fill="#007F9F"/>
<path d="M156.657 54.3839C156.549 54.6807 155.476 54.6517 153.687 54.0008C151.898 53.35 150.787 53.5861 150.689 53.8554C150.689 53.8554 151.202 52.4464 151.357 52.0187C151.499 51.6291 152.567 51.5132 154.356 52.1641C156.145 52.815 157.207 52.874 157.325 52.5505C157.325 52.5505 156.772 54.0684 156.658 54.3839H156.657Z" fill="#01B5D6"/>
<path d="M157.894 50.9852C157.786 51.282 156.714 51.253 154.924 50.6021C153.135 49.9513 152.024 50.1873 151.926 50.4572C151.926 50.4572 152.438 49.0482 152.594 48.6205C152.736 48.2304 153.803 48.1151 155.592 48.7654C157.381 49.4163 158.443 49.4753 158.561 49.1517C158.561 49.1517 158.009 50.6703 157.894 50.9852H157.894Z" fill="#01B5D6"/>
<path d="M169.562 78.4031C169.268 78.0935 165.778 80.7431 165.367 80.3423L164.365 79.3094C164.588 79.5535 168.121 76.9458 168.526 77.3369L169.562 78.4031Z" fill="#E32A3A"/>
<path d="M169.571 78.4079C169.94 78.7883 169.2 79.9801 168.171 80.9786L167.145 79.9226C168.174 78.9235 168.943 77.7613 168.546 77.3535C168.546 77.3535 169.394 78.2265 169.57 78.4079H169.571Z" fill="#FF4F5D"/>
<path d="M167.696 76.4818C167.403 76.1722 163.912 78.8218 163.501 78.4204L162.499 77.3875C162.722 77.6317 166.256 75.0239 166.66 75.4151L167.696 76.4818H167.696Z" fill="#E32A3A"/>
<path d="M165.025 73.7363C164.336 73.0264 160.431 73.3371 159.619 72.5017L158.618 71.4688C159.479 72.3573 163.057 71.7097 163.989 72.6701L165.025 73.7369V73.7363Z" fill="#E32A3A"/>
<path d="M156.768 65.6992C156.079 64.9899 152.174 65.3 151.362 64.4646L150.36 63.4316C151.221 64.3202 154.799 63.6726 155.732 64.633L156.768 65.6998L156.768 65.6992Z" fill="#E32A3A"/>
<path d="M167.705 76.4894C167.87 76.66 167.499 77.378 166.47 78.3771C165.441 79.3762 165.237 80.2068 165.387 80.3619C165.387 80.3619 164.601 79.5516 164.362 79.3059C164.144 79.0816 164.416 78.3202 165.445 77.3211C166.473 76.322 166.862 75.6217 166.681 75.4355C166.681 75.4355 167.529 76.3086 167.705 76.4894H167.705Z" fill="#FF4F5D"/>
<path d="M164.955 73.6574C165.274 73.9847 165.122 74.8373 164.446 76.1165C163.776 77.3844 163.338 78.2499 163.488 78.405C163.488 78.405 162.701 77.5948 162.462 77.349C162.245 77.1247 162.737 76.3209 163.421 75.061C164.097 73.8146 164.223 72.9035 163.932 72.6035C163.932 72.6035 164.78 73.4765 164.956 73.6579L164.955 73.6574Z" fill="#FF4F5D"/>
<path d="M156.686 65.6146C158.051 67.3992 157.931 70.7604 159.644 72.523C159.644 72.523 158.857 71.7133 158.618 71.467C156.748 69.5423 156.349 65.2669 155.661 64.5586L156.687 65.6146H156.686Z" fill="#FF4F5D"/>
<path d="M89.9412 27.1178C90.892 28.0605 92.0387 24.3796 93.3216 23.9155C93.1671 23.6826 92.9637 23.4884 92.6976 23.3596C91.5354 22.7946 90.4713 25.6052 89.5468 26.453C89.6219 26.7003 89.7469 26.9257 89.9412 27.1183V27.1178Z" fill="#8943C2"/>
<path d="M88.1426 21.1373C88.1426 21.1373 88.5805 21.3519 88.6615 21.7302C88.9636 22.9198 87.5508 25.3499 88.7463 26.5352C88.7903 26.5787 88.8348 26.6125 88.8793 26.6366L88.8788 26.6372L90.1113 27.2387C90.1113 27.2387 89.6171 26.7837 89.5468 26.4526C89.5447 26.4413 89.5415 26.4317 89.5382 26.422C89.0891 24.8466 90.6179 22.4025 89.4519 21.7758C89.4524 21.7758 89.4529 21.7758 89.4529 21.7758L88.1437 21.1367L88.1426 21.1373Z" fill="#B459FF"/>
<path d="M92.6302 23.3262C92.6302 23.3262 93.1362 23.6154 93.3207 23.9148C93.324 23.9202 93.3277 23.9255 93.3309 23.9304C94.0687 25.0658 93.6674 27.0989 93.6674 27.0989L94.8618 27.6816C94.8618 27.6816 95.4397 24.7535 93.9335 23.9625H93.9341L92.6302 23.3262Z" fill="#B459FF"/>
<path d="M62.1705 33.1477C61.9033 32.6155 55.9838 34.9651 55.5959 34.2644L54.6751 32.4808C54.8742 32.8972 60.8339 30.6204 61.2176 31.3051L62.1705 33.1472V33.1477Z" fill="#FFA100"/>
<path d="M62.1779 33.1605C62.5175 33.8172 60.9888 35.1785 59.15 36.1701L58.2066 34.3463C60.0455 33.3547 61.6005 32.0444 61.2356 31.3398C61.2356 31.3398 62.0158 32.8476 62.1779 33.1605Z" fill="#FFCB00"/>
<path d="M60.452 29.8269C60.1848 29.2946 54.2653 31.6448 53.8773 30.944L52.9565 29.1605C53.1556 29.5768 59.1154 27.3001 59.499 27.9848L60.452 29.8269Z" fill="#FFA100"/>
<path d="M57.9961 25.0794C57.3619 23.8538 51.8898 22.8456 51.1434 21.4027L50.2227 19.6191C51.0147 21.1532 56.1851 21.5787 57.0431 23.2373L57.9961 25.0794Z" fill="#FFA100"/>
<path d="M60.46 29.8382C60.6124 30.1322 59.7925 30.98 57.9536 31.9716C56.1148 32.9632 55.4741 34.0267 55.6125 34.2945C55.6125 34.2945 54.8887 32.8956 54.6692 32.4706C54.4691 32.0838 55.1709 31.1394 57.0098 30.1478C58.8486 29.1562 59.6841 28.339 59.5178 28.0176C59.5178 28.0176 60.2974 29.5254 60.46 29.8382Z" fill="#FFCB00"/>
<path d="M57.9309 24.954C58.2239 25.52 57.6476 26.6324 56.1682 28.138C54.7028 29.6292 53.7273 30.6546 53.8663 30.9218C53.8663 30.9218 53.1425 29.5229 52.9225 29.098C52.7223 28.7111 53.7429 27.7898 55.2244 26.3136C56.6898 24.8542 57.257 23.6517 56.9887 23.1328C56.9887 23.1328 57.7689 24.6406 57.9304 24.9534L57.9309 24.954Z" fill="#FFCB00"/>
<path d="M17.0509 59.0303C18.8597 57.5799 12.7524 54.8841 12.2061 52.5859C11.7753 52.8059 11.4013 53.1177 11.1271 53.5502C9.92674 55.4389 14.5526 57.8213 15.8291 59.5786C16.2696 59.4981 16.6817 59.327 17.0509 59.0308V59.0303Z" fill="#FFA100"/>
<path d="M6.4081 60.9477C6.4081 60.9477 6.86366 60.2368 7.53063 60.1713C9.6367 59.8859 13.5392 62.793 15.8133 60.9697C15.897 60.9027 15.963 60.8329 16.0139 60.761C16.0145 60.7615 16.015 60.7621 16.015 60.7621L17.2915 58.7601C17.2915 58.7601 16.4115 59.521 15.8288 59.5773C15.809 59.5789 15.7913 59.5822 15.7746 59.5864C12.9758 60.0495 9.07168 56.9395 7.76511 58.8223C7.76511 58.8213 7.76511 58.8207 7.76511 58.8207L6.40864 60.9472L6.4081 60.9477Z" fill="#FFCB00"/>
<path d="M11.0576 53.6568C11.0576 53.6568 11.6543 52.8428 12.2059 52.5842C12.2161 52.5794 12.2252 52.5745 12.2348 52.5697C14.3329 51.5234 17.7519 52.6137 17.7519 52.6137L18.9893 50.6734C18.9893 50.6734 14.0657 49.1039 12.4087 51.5395C12.4087 51.5384 12.4082 51.5379 12.4082 51.5379L11.0571 53.6563L11.0576 53.6568Z" fill="#FFCB00"/>
<path d="M31.3802 96.5221C31.546 96.1031 27.4551 93.939 27.6563 93.3665L28.1999 91.9473C28.0652 92.2697 32.1351 94.4933 31.9403 95.0551L31.3802 96.5221Z" fill="#007F9F"/>
<path d="M31.3759 96.5356C31.1763 97.0588 29.705 96.8801 28.2911 96.3392L28.846 94.8867C30.2604 95.4271 31.7156 95.6465 31.9302 95.0853C31.9302 95.0853 31.4714 96.2856 31.3759 96.5351V96.5356Z" fill="#01B5D6"/>
<path d="M32.3901 93.8776C32.5559 93.4585 28.4651 91.2945 28.6663 90.722L29.2098 89.3027C29.0751 89.6252 33.1451 91.8488 32.9503 92.4106L32.3896 93.8771L32.3901 93.8776Z" fill="#007F9F"/>
<path d="M33.8353 90.0959C34.2082 89.1204 32.173 85.5173 32.6124 84.3685L33.156 82.9492C32.6881 84.1694 34.9009 87.3078 34.396 88.6289L33.8353 90.0959Z" fill="#007F9F"/>
<path d="M37.855 78.6135C38.2279 77.638 36.1927 74.0349 36.6316 72.886L37.1751 71.4668C36.7073 72.6875 38.9196 75.8254 38.4152 77.1465L37.8545 78.6129L37.855 78.6135Z" fill="#007F9F"/>
<path d="M32.3856 93.8902C32.296 94.1247 31.4429 94.0882 30.0285 93.5474C28.614 93.007 27.7271 93.1803 27.6455 93.3934C27.6455 93.3934 28.071 92.2794 28.2003 91.9414C28.3178 91.6328 29.1689 91.5545 30.5833 92.0954C31.9977 92.6357 32.8412 92.6969 32.9394 92.4404C32.9394 92.4404 32.4806 93.6407 32.3856 93.8902Z" fill="#01B5D6"/>
<path d="M33.8735 89.9942C33.7012 90.4449 32.818 90.6794 31.2914 90.6011C29.7794 90.5238 28.755 90.4884 28.6735 90.702C28.6735 90.702 29.099 89.588 29.2283 89.25C29.3458 88.9415 30.3353 89.0547 31.8463 89.1496C33.3406 89.243 34.2695 88.9581 34.4272 88.5449C34.4272 88.5449 33.9684 89.7458 33.8735 89.9948V89.9942Z" fill="#01B5D6"/>
<path d="M37.8992 78.495C36.7971 80.5962 33.525 81.9773 32.5984 84.4016C32.5984 84.4016 33.0239 83.2877 33.1532 82.9496C34.1646 80.3022 38.0817 78.0169 38.454 77.043L37.8992 78.4955V78.495Z" fill="#01B5D6"/>
</g>
</g>
<defs>
<linearGradient id="paint0_linear_1982_14328" x1="136.914" y1="29.407" x2="138.453" y2="33.3315" gradientUnits="userSpaceOnUse">
<stop stop-color="#CE38BF"/>
<stop offset="0.73" stop-color="#E051CA"/>
<stop offset="1" stop-color="#E85CCF"/>
</linearGradient>
<linearGradient id="paint1_linear_1982_14328" x1="105.961" y1="21.9938" x2="109.809" y2="26.0723" gradientUnits="userSpaceOnUse">
<stop stop-color="#CE38BF"/>
<stop offset="0.73" stop-color="#E051CA"/>
<stop offset="1" stop-color="#E85CCF"/>
</linearGradient>
<linearGradient id="paint2_linear_1982_14328" x1="20.0657" y1="30.7394" x2="24.0546" y2="30.7394" gradientUnits="userSpaceOnUse">
<stop stop-color="#CE38BF"/>
<stop offset="0.73" stop-color="#E051CA"/>
<stop offset="1" stop-color="#E85CCF"/>
</linearGradient>
<linearGradient id="paint3_linear_1982_14328" x1="104.854" y1="13.7058" x2="111.855" y2="18.1542" gradientUnits="userSpaceOnUse">
<stop stop-color="#5C5894"/>
<stop offset="0.47" stop-color="#6862C1"/>
<stop offset="1" stop-color="#7E78E1"/>
</linearGradient>
<linearGradient id="paint4_linear_1982_14328" x1="102.47" y1="17.5855" x2="112.019" y2="20.4077" gradientUnits="userSpaceOnUse">
<stop stop-color="#7E78E1"/>
<stop offset="0.09" stop-color="#7068DC"/>
<stop offset="0.18" stop-color="#6661B8"/>
<stop offset="0.26" stop-color="#6560B6"/>
<stop offset="0.29" stop-color="#635EAF"/>
<stop offset="0.3" stop-color="#625DA9"/>
<stop offset="0.31" stop-color="#6661B9"/>
<stop offset="0.32" stop-color="#6B65CA"/>
<stop offset="0.34" stop-color="#6F68D6"/>
<stop offset="0.36" stop-color="#716ADD"/>
<stop offset="0.43" stop-color="#726BDF"/>
<stop offset="0.49" stop-color="#716ADD"/>
<stop offset="0.51" stop-color="#6E67D6"/>
<stop offset="0.52" stop-color="#6A63CA"/>
<stop offset="0.53" stop-color="#6A63C8"/>
<stop offset="0.58" stop-color="#6B64C9"/>
<stop offset="0.61" stop-color="#726BCE"/>
<stop offset="0.62" stop-color="#7D77D6"/>
<stop offset="0.63" stop-color="#8E88E2"/>
<stop offset="0.64" stop-color="#948EE7"/>
<stop offset="0.69" stop-color="#928CE6"/>
<stop offset="0.71" stop-color="#8B85E4"/>
<stop offset="0.72" stop-color="#7E78E1"/>
<stop offset="0.9" stop-color="#645EB1"/>
<stop offset="1" stop-color="#5F5A9C"/>
</linearGradient>
<linearGradient id="paint5_linear_1982_14328" x1="108.346" y1="7.18557" x2="115.347" y2="11.6339" gradientUnits="userSpaceOnUse">
<stop stop-color="#5C5894"/>
<stop offset="0.47" stop-color="#6862C1"/>
<stop offset="1" stop-color="#7E78E1"/>
</linearGradient>
<linearGradient id="paint6_linear_1982_14328" x1="105.963" y1="11.0649" x2="115.511" y2="13.8873" gradientUnits="userSpaceOnUse">
<stop stop-color="#7E78E1"/>
<stop offset="0.09" stop-color="#7068DC"/>
<stop offset="0.18" stop-color="#6661B8"/>
<stop offset="0.26" stop-color="#6560B6"/>
<stop offset="0.29" stop-color="#635EAF"/>
<stop offset="0.3" stop-color="#625DA9"/>
<stop offset="0.31" stop-color="#6661B9"/>
<stop offset="0.32" stop-color="#6B65CA"/>
<stop offset="0.34" stop-color="#6F68D6"/>
<stop offset="0.36" stop-color="#716ADD"/>
<stop offset="0.43" stop-color="#726BDF"/>
<stop offset="0.49" stop-color="#716ADD"/>
<stop offset="0.51" stop-color="#6E67D6"/>
<stop offset="0.52" stop-color="#6A63CA"/>
<stop offset="0.53" stop-color="#6A63C8"/>
<stop offset="0.58" stop-color="#6B64C9"/>
<stop offset="0.61" stop-color="#726BCE"/>
<stop offset="0.62" stop-color="#7D77D6"/>
<stop offset="0.63" stop-color="#8E88E2"/>
<stop offset="0.64" stop-color="#948EE7"/>
<stop offset="0.69" stop-color="#928CE6"/>
<stop offset="0.71" stop-color="#8B85E4"/>
<stop offset="0.72" stop-color="#7E78E1"/>
<stop offset="0.9" stop-color="#645EB1"/>
<stop offset="1" stop-color="#5F5A9C"/>
</linearGradient>
<linearGradient id="paint7_linear_1982_14328" x1="109.268" y1="5.20925" x2="117.978" y2="7.78357" gradientUnits="userSpaceOnUse">
<stop stop-color="#7E78E1"/>
<stop offset="0.09" stop-color="#7068DC"/>
<stop offset="0.18" stop-color="#6661B8"/>
<stop offset="0.26" stop-color="#6560B6"/>
<stop offset="0.29" stop-color="#635EAF"/>
<stop offset="0.3" stop-color="#625DA9"/>
<stop offset="0.31" stop-color="#6661B9"/>
<stop offset="0.32" stop-color="#6B65CA"/>
<stop offset="0.34" stop-color="#6F68D6"/>
<stop offset="0.36" stop-color="#716ADD"/>
<stop offset="0.43" stop-color="#726BDF"/>
<stop offset="0.49" stop-color="#716ADD"/>
<stop offset="0.51" stop-color="#6E67D6"/>
<stop offset="0.52" stop-color="#6A63CA"/>
<stop offset="0.53" stop-color="#6A63C8"/>
<stop offset="0.58" stop-color="#6B64C9"/>
<stop offset="0.61" stop-color="#726BCE"/>
<stop offset="0.62" stop-color="#7D77D6"/>
<stop offset="0.63" stop-color="#8E88E2"/>
<stop offset="0.64" stop-color="#948EE7"/>
<stop offset="0.69" stop-color="#928CE6"/>
<stop offset="0.71" stop-color="#8B85E4"/>
<stop offset="0.72" stop-color="#7E78E1"/>
<stop offset="0.9" stop-color="#645EB1"/>
<stop offset="1" stop-color="#5F5A9C"/>
</linearGradient>
<clipPath id="clip0_1982_14328">
<rect width="167.156" height="108.165" fill="white" transform="translate(3.98257 0.5)"/>
</clipPath>
<clipPath id="clip1_1982_14328">
<rect width="185.426" height="135.802" fill="white" transform="translate(-1.15587 0.5)"/>
</clipPath>
</defs>
</svg>
